<?xml version="1.0" encoding="utf-8"?>
<!-- Generator: Adobe Illustrator 19.0.0, SVG Export Plug-In . SVG Version: 6.00 Build 0)  -->
<svg version="1.1" id="Layer_1" xmlns="http://www.w3.org/2000/svg" xmlns:xlink="http://www.w3.org/1999/xlink" x="0px" y="0px"
	 viewBox="-224.4 64 490.8 434" style="enable-background:new -224.4 64 490.8 434;" xml:space="preserve">
<style type="text/css">
	.st0{fill:#F48120;}
	.st1{fill:#FFFFFF;}
	.st2{fill:none;stroke:#000F24;stroke-width:3.0849;stroke-linecap:round;stroke-linejoin:round;stroke-miterlimit:22.926;}
</style>
<polygon id="XMLID_270_" class="st0" points="-224.4,281 21,64 266.4,281 21,498 "/>
<path id="XMLID_269_" d="M-187.5,282l6.7-6c1.1,0.2,20.8-11.2,19.5-15.7c9.4-3.7,31-20.8,29.2-27.7l13.2-11.3
	c1.5,0.3,8.5-5.2,10.1-5.6c7-1.7,6.8-10.1,12.2-14.9c1.5,0.3,3.1,0.3,4.6-0.1c5-1.2,13-12.4,18.4-17.5c5.5-4.9,23.6-16.4,22.1-22.6
	l5.4-4.9c1.4,0.3,3,0.2,4.5-0.1c9.8-2.4,4-11.9,16.8-15c4.9-1.2,13.6-12.6,13.2-14l16-15.9c1.4,0.2,2.9,0.2,4.4-0.2
	c4.9-1.2,7.9-5.6,6.9-9.9l5-4.5c4.7,4.1,21.7,21.3,22.6,24.4c3,9.8,19.1,4.3,23.1,17.3c0.6,2.1,19.9,18.8,22.4,18.2
	c3-0.7,15.5,12.6,15.8,13.7c1.4,4.5,8.1,12,13.2,10.7c4.9,4.3,9.6,7.5,11.2,12.6c0.4,1.4,10.4,9.9,12.2,11.5c-0.4,1.4,3,3.2,3.4,4.7
	c1.4,4.5,25.1,21.6,30.1,20.4l9.8,9.2c4.7,10.2,21.7,11.8,25.3,23.8c0.7,2.3,11.5,12.1,13.7,11.7l5.7,5l-6.1,5.4
	c-1.3-0.2-2.7-0.1-4.1,0.2c-4.8,1.2-7.8,5.4-6.9,9.7l-12.2,12.5c-1.9-0.3-16.5,11-23,16.5l-4.3,6.2c-1.8,2.6-4.8,3.3-10.1,8.2
	c-1.5,1.5-8.5,3.7-10,5.2c-7,6.8-12,15.7-17.5,16.9c-4.8,1.1-3.6,6.5-7,9.5l-6,5.3c-0.9,0.8-2.6-0.1-3.9,0.2c-4.7,1.2-4.8,5.7-7,9.4
	c-4.1,7.2-20,19-26.6,20.6c-4.7,1.1-3.6,6.4-7,9.4l-6.1,5.4c-7.8,6.9-10.8,15.2-21.6,19c-1.2,0.4-5.6,8.8-12.1,11.1
	c-5.6,2-11.4,4-10.6,9.5l-6.2,5.5l-5.6-5.1c-7.2-7.4-14.1-9.9-17-19.4c-2.8-9.2-17.3-5.5-21.2-18.3c-1.4-4.5-14.2-13-19.3-11.8
	l-0.2,0.1c-4.1-3.6-12-11-13.4-15.5s-10.4-12.5-15.5-11.3c-6-3.7-1,0.3-8.1-5.7c-5.5-4.7-9.6-11-14.5-16.3
	c-9.9-10.1-25.7-20.2-31.4-25.2c-2.7-2.1-2.2-5.2-10.4-11.7c-7.3-5.8-18.2-10.9-18.7-10.8l-5.1-13.2c-10.6-5.9-15.4-15.6-22.5-13.9
	L-187.5,282z"/>
<path id="XMLID_257_" class="st1" d="M38.4,161.3l-2.1,1.8L19,143.6l2.1-1.8L38.4,161.3z M41.7,136.9c-1.3-1.4-2.9-2.2-4.8-2.3
	s-3.6,0.4-5.1,1.7l-1.3,1.1l9.2,10.4l1.3-1.1c1.4-1.3,2.2-2.8,2.4-4.8C43.5,140,42.9,138.3,41.7,136.9z M43.7,135.1
	c1.4,1.6,2.2,3.5,2.4,5.7c0.2,2.2-0.3,4.1-1.5,6l9.8,0.6l-3,2.6l-9.3-0.6l-0.6,0.5l4.3,4.9l-6.6,5.7L22.1,141l6.6-5.7l1.3-1.1
	c2-1.8,4.4-2.5,7.1-2.4C39.7,132,42,133.1,43.7,135.1z M21.3,176.2l-2.1,1.8L1.9,158.5l2.1-1.8L21.3,176.2z M33.7,165.5l-5.2,4.5
	l-6.3,5.5L4.9,156l6.6-5.7l4.9-4.2l1.8,2.1l-4.9,4.2l5.4,6.1l4.9-4.2l1.8,2.1l-4.9,4.2l6.4,7.2l4.9-4.2L33.7,165.5z M4.1,191.1
	L2,192.9l-17.3-19.5l2.1-1.8L4.1,191.1z M16.5,180.4l-5.2,4.5L5,190.4l-17.3-19.5l6.6-5.7l4.9-4.2l1.8,2.1l-4.9,4.2l5.4,6.2l4.9-4.2
	l1.8,2.1l-4.9,4.2l6.4,7.2l4.9-4.2L16.5,180.4z M-15.3,207.9l-2.1,1.8l-17.3-19.5l2.1-1.8L-15.3,207.9z M-7.6,191.1
	c-0.8-0.9-1.8-1.5-3-1.8c-1.3-0.2-2.4,0-3.3,0.8l-2.1,1.8l6.5,7.3l2.1-1.8c0.9-0.8,1.3-1.9,1.2-3.2C-6.3,193.1-6.8,192-7.6,191.1z
	 M-15.8,182.8c-0.7-0.8-1.5-1.3-2.6-1.4c-1-0.2-1.9,0.1-2.7,0.8l-2.1,1.8l5.3,5.9l2.1-1.8c0.8-0.7,1.1-1.5,1.1-2.6
	S-15.1,183.5-15.8,182.8z M-5.5,189.3c1.3,1.5,2,3.2,2.1,5.2c0.1,2.1-0.7,3.8-2.2,5.1l-2.4,2.1l-6.3,5.4l-17.3-19.5l6.6-5.7l2.1-1.8
	c1.4-1.2,2.9-1.7,4.7-1.5s3.3,1,4.5,2.4c1.5,1.7,2,3.5,1.7,5.6C-9.5,186.3-7.3,187.2-5.5,189.3z"/>
<path id="XMLID_249_" class="st0" d="M31.5,137.4l8.4,9.5l0.8-0.7c1.3-1.1,2-2.6,2.1-4.3c0.1-1.7-0.4-3.2-1.6-4.6
	c-1.2-1.3-2.6-2-4.4-2.1c-1.8-0.1-3.3,0.4-4.6,1.5L31.5,137.4z M-15.1,192l5.6,6.3l1.6-1.4c0.8-0.7,1.1-1.6,1-2.6
	c-0.1-1.1-0.5-2-1.2-2.8s-1.6-1.4-2.7-1.6c-1-0.2-1.9,0-2.7,0.7L-15.1,192z M-22.2,184l4.4,4.9l1.6-1.4c0.6-0.6,0.9-1.2,0.9-2.1
	c0-0.9-0.4-1.6-0.9-2.3c-0.6-0.7-1.3-1.1-2.2-1.2c-0.8-0.1-1.5,0.1-2.1,0.6L-22.2,184z M-14.3,208L-14.3,208l-3.1,2.7l-18.1-20.5
	l12.2-10.6c1.5-1.3,3.3-1.8,5.2-1.6c2,0.2,3.6,1.1,4.9,2.6c1.4,1.5,2.1,3.3,1.9,5.3c2.5,0,4.6,1.1,6.3,3c1.4,1.6,2.2,3.5,2.2,5.6
	c0.1,2.2-0.7,4.1-2.4,5.6l-2.4,2.1L-14.3,208z M5,191.3l-3,2.6l-18.2-20.5l3.1-2.7l12.4-10.8L2,163l-4.9,4.2l4.6,5.1l4.9-4.2
	l2.7,3.1l-4.9,4.2l5.5,6.2l4.9-4.2l2.7,3.1L5,191.3z M22.2,176.3L22.2,176.3l-3.1,2.7L1,158.4l3.1-2.7l12.4-10.8l2.7,3.1l-4.9,4.2
	l4.6,5.2l4.9-4.2l2.7,3.1l-4.9,4.2l5.5,6.2l4.9-4.2l2.7,3.1L22.2,176.3z M39.3,161.4L39.3,161.4l-3.1,2.7l-18.1-20.5l11.4-9.9
	c2.2-1.9,4.7-2.7,7.6-2.5c2.9,0.2,5.3,1.3,7.2,3.5c1.5,1.7,2.4,3.8,2.6,6.1c0.2,1.9-0.2,3.7-1.1,5.4l10.3,0.7l-4.4,3.8l-9.1-0.6
	l4.2,4.8L39.3,161.4z"/>
<path id="XMLID_223_" class="st1" d="M24.4,120l2.2-2l-2.3-1.2c-0.7-0.4-1.3-0.7-1.7-1c0.3,0.5,0.5,1,0.8,1.6L24.4,120z M24.9,124.4
	l-3.3-8.7l0.9-0.8l8.5,4.2l-1,0.9l-2.5-1.3l-2.8,2.4l1,2.6L24.9,124.4z M23.2,125.8l-5.8-6.5l0.9-0.8l5.8,6.5L23.2,125.8z M16.7,127
	l-0.7-0.8l2.8-2.4l2.2,2.4c-0.1,0.7-0.3,1.4-0.6,1.9c-0.3,0.6-0.7,1.1-1.2,1.5c-0.6,0.6-1.4,0.9-2.1,1.1c-0.8,0.2-1.5,0.1-2.3-0.1
	c-0.7-0.3-1.4-0.8-2-1.4s-1-1.3-1.2-2.1c-0.2-0.8-0.2-1.5,0.1-2.2s0.7-1.4,1.4-1.9c0.5-0.4,1-0.7,1.5-0.9c0.5-0.2,1-0.2,1.5-0.2
	c0.5,0.1,0.9,0.3,1.4,0.6l-0.6,0.9c-0.4-0.2-0.8-0.4-1.1-0.5s-0.7,0-1,0.1c-0.4,0.1-0.7,0.3-1.1,0.6c-0.4,0.3-0.7,0.7-0.9,1.1
	s-0.3,0.7-0.3,1.1c0,0.3,0,0.7,0.2,1c0.2,0.5,0.5,1.1,0.9,1.5c0.5,0.6,1.1,1,1.6,1.2c0.6,0.2,1.1,0.3,1.7,0.1
	c0.6-0.1,1.1-0.4,1.5-0.8c0.4-0.3,0.7-0.7,0.9-1.2s0.4-0.9,0.4-1.2l-1.1-1.2L16.7,127z M6.9,133.6l1.9-1.6c0.4-0.4,0.7-0.7,0.8-0.9
	c0.2-0.3,0.2-0.6,0.2-0.8c0-0.3-0.2-0.5-0.3-0.7c-0.3-0.3-0.6-0.5-1-0.5s-0.9,0.2-1.3,0.6l-2.1,1.8L6.9,133.6z M9.3,138l-5.8-6.5
	l2.9-2.6c0.6-0.5,1.1-0.8,1.5-1c0.4-0.1,0.8-0.1,1.3,0c0.4,0.1,0.8,0.4,1.1,0.7c0.4,0.5,0.6,1,0.6,1.6s-0.3,1.2-0.9,1.8
	c0.3-0.1,0.6-0.1,0.8-0.1c0.5,0,1,0.1,1.5,0.2l2.7,0.8l-1.1,1l-2.1-0.6c-0.6-0.2-1.1-0.3-1.4-0.3c-0.3-0.1-0.6-0.1-0.8-0.1
	s-0.4,0.1-0.5,0.2c-0.1,0.1-0.3,0.2-0.5,0.4l-1,0.9l2.6,2.9L9.3,138z M-0.1,140.6c0.7,0.8,1.5,1.2,2.3,1.3s1.6-0.2,2.2-0.7
	c0.7-0.6,1-1.3,1-2.1s-0.3-1.7-1.1-2.5c-0.5-0.5-1-0.9-1.5-1.2c-0.5-0.2-1.1-0.3-1.6-0.2s-1,0.3-1.5,0.7c-0.6,0.5-1,1.2-1,2
	C-1.4,138.7-1,139.6-0.1,140.6z M-1,141.4c-1-1.1-1.4-2.2-1.4-3.3s0.5-2.1,1.5-2.9c0.6-0.5,1.3-0.9,2-1s1.5-0.1,2.2,0.2
	c0.7,0.3,1.4,0.8,2,1.4c0.6,0.7,1,1.4,1.2,2.1c0.2,0.8,0.2,1.5-0.1,2.2s-0.7,1.3-1.2,1.8c-0.6,0.5-1.3,0.9-2.1,1s-1.5,0-2.2-0.3
	C0.1,142.4-0.5,141.9-1,141.4z M-4,149.7l-5.8-6.5L-5,139l0.7,0.8l-3.9,3.4l1.8,2l3.7-3.2l0.7,0.8l-3.6,3.2l2,2.2l4-3.5l0.7,0.8
	L-4,149.7z M-10.4,150.7l-0.7-0.8l2.8-2.5l2.2,2.4c-0.1,0.7-0.3,1.4-0.6,1.9c-0.3,0.6-0.7,1.1-1.2,1.5c-0.7,0.6-1.4,0.9-2.1,1.1
	c-0.8,0.2-1.5,0.1-2.3-0.1c-0.7-0.3-1.4-0.8-2-1.4c-0.6-0.6-1-1.3-1.2-2.1s-0.2-1.5,0.1-2.3c0.3-0.7,0.7-1.3,1.4-1.9
	c0.5-0.4,1-0.7,1.5-0.9s1-0.2,1.5-0.2c0.5,0.1,0.9,0.3,1.5,0.6l-0.6,0.9c-0.4-0.2-0.8-0.4-1.1-0.5s-0.7,0-1,0.1
	c-0.4,0.1-0.7,0.3-1.1,0.6c-0.4,0.4-0.7,0.7-0.9,1.1c-0.2,0.4-0.3,0.7-0.3,1.1s0,0.7,0.2,1c0.2,0.5,0.5,1.1,0.9,1.5
	c0.5,0.6,1.1,1,1.6,1.2c0.6,0.2,1.1,0.3,1.7,0.1c0.6-0.1,1.1-0.4,1.5-0.8c0.4-0.3,0.7-0.7,0.9-1.2s0.4-0.9,0.4-1.2l-1.1-1.2
	L-10.4,150.7z M-20.4,164l-5.8-6.5l0.9-0.8l8,2.1l-4.6-5.1l0.8-0.7l5.8,6.5l-0.9,0.8l-8-2.1l4.6,5.1L-20.4,164z M-22.8,166.1
	l-5.8-6.5l0.9-0.8l5.8,6.5L-22.8,166.1z M-32,172.8l1.4-1.2c0.4-0.4,0.7-0.7,0.9-1s0.3-0.6,0.3-0.8c0-0.4-0.1-0.8-0.2-1.2
	c-0.2-0.5-0.5-0.9-0.9-1.4c-0.6-0.7-1.2-1.1-1.7-1.3c-0.6-0.2-1-0.2-1.5,0c-0.3,0.1-0.7,0.4-1.3,0.9l-1.4,1.2L-32,172.8z
	 M-32.2,174.3l-5.8-6.5l2.3-2c0.5-0.5,0.9-0.8,1.3-0.9c0.5-0.2,0.9-0.4,1.4-0.4c0.6,0,1.2,0.1,1.8,0.4c0.6,0.3,1.1,0.7,1.6,1.3
	c0.4,0.5,0.8,1,1,1.5s0.4,0.9,0.4,1.3c0,0.4,0,0.8-0.1,1.1s-0.3,0.7-0.5,1c-0.3,0.3-0.6,0.7-1,1L-32.2,174.3z M-38.3,179.7l-5.8-6.5
	l4.8-4.2l0.7,0.8l-3.9,3.4l1.8,2l3.6-3.2l0.7,0.8l-3.7,3.2l2,2.2l4.1-3.5l0.7,0.8L-38.3,179.7z M-42.3,179.1l1.1-0.5
	c0.4,0.9,0.6,1.7,0.5,2.5s-0.6,1.5-1.2,2.1c-0.7,0.6-1.4,1-2.1,1.1c-0.7,0.1-1.4,0-2.1-0.4c-0.7-0.3-1.4-0.8-1.9-1.4
	c-0.6-0.7-1-1.4-1.2-2.1c-0.2-0.7-0.2-1.4,0.1-2.1c0.3-0.7,0.7-1.3,1.2-1.8c0.7-0.6,1.4-0.9,2.1-1c0.7-0.1,1.5,0.1,2.2,0.6l-0.7,0.9
	c-0.6-0.3-1.1-0.5-1.6-0.5s-0.9,0.3-1.4,0.6c-0.5,0.4-0.8,0.9-1,1.5c-0.1,0.5-0.1,1.1,0.2,1.6c0.2,0.5,0.5,1,0.9,1.4
	c0.5,0.6,1,1,1.5,1.2c0.5,0.3,1.1,0.4,1.6,0.3c0.5-0.1,1-0.3,1.4-0.7c0.5-0.4,0.8-0.9,0.9-1.5C-41.8,180.3-42,179.7-42.3,179.1z
	 M-53.2,181l0.9-0.8l3.4,3.8c0.6,0.7,1,1.2,1.2,1.8c0.2,0.5,0.2,1.1,0,1.7c-0.2,0.6-0.6,1.1-1.2,1.7c-0.6,0.5-1.2,0.9-1.8,1
	s-1.1,0.1-1.6-0.2c-0.5-0.2-1.1-0.7-1.7-1.4l-3.4-3.8l0.9-0.8l3.4,3.8c0.5,0.6,0.9,0.9,1.3,1.1c0.4,0.2,0.7,0.2,1.1,0.1
	c0.4-0.1,0.8-0.3,1.1-0.6c0.6-0.6,1-1.1,1-1.6s-0.3-1.2-1.1-2L-53.2,181z M-58.1,195.6l1.4-1.2c0.4-0.4,0.7-0.7,0.9-1
	s0.3-0.6,0.3-0.9c0-0.4-0.1-0.8-0.3-1.2s-0.5-0.9-0.9-1.4c-0.6-0.7-1.2-1.1-1.7-1.3c-0.6-0.2-1.1-0.2-1.5,0
	c-0.3,0.1-0.7,0.4-1.3,0.8l-1.4,1.2L-58.1,195.6z M-58.3,197.1l-5.8-6.5l2.3-2c0.5-0.4,0.9-0.8,1.3-0.9c0.5-0.2,0.9-0.4,1.4-0.4
	c0.6,0,1.2,0.1,1.8,0.4c0.6,0.3,1.1,0.7,1.6,1.3c0.4,0.5,0.8,1,1,1.5s0.4,0.9,0.4,1.3c0,0.4,0,0.8-0.1,1.1s-0.3,0.7-0.5,1
	s-0.6,0.7-1,1L-58.3,197.1z M-67.7,199.7c0.7,0.8,1.5,1.2,2.3,1.3s1.6-0.2,2.2-0.7c0.7-0.6,1-1.3,1-2.1s-0.3-1.7-1.1-2.5
	c-0.5-0.5-1-0.9-1.5-1.1c-0.5-0.2-1.1-0.3-1.6-0.2s-1,0.3-1.5,0.7c-0.6,0.5-1,1.2-1,2C-69,197.8-68.6,198.7-67.7,199.7z
	 M-68.6,200.4c-1-1.1-1.4-2.2-1.4-3.3s0.5-2.1,1.5-2.9c0.6-0.5,1.3-0.9,2-1s1.5-0.1,2.2,0.2s1.4,0.8,1.9,1.4c0.6,0.7,1,1.4,1.2,2.1
	c0.2,0.8,0.2,1.5-0.1,2.2c-0.2,0.7-0.7,1.3-1.2,1.8c-0.6,0.5-1.3,0.9-2.1,1s-1.5,0-2.2-0.3C-67.5,201.4-68.1,201-68.6,200.4z
	 M-74.5,204.8l1.9-1.6c0.4-0.3,0.7-0.7,0.8-0.9c0.2-0.3,0.2-0.6,0.2-0.8c0-0.3-0.2-0.5-0.4-0.7c-0.3-0.3-0.6-0.5-1-0.5
	s-0.8,0.2-1.3,0.6l-2.1,1.8L-74.5,204.8z M-72.1,209.2l-5.8-6.5l2.9-2.6c0.6-0.5,1.1-0.8,1.5-1s0.8-0.2,1.3,0
	c0.4,0.1,0.8,0.4,1.1,0.7c0.4,0.5,0.6,1,0.6,1.6s-0.3,1.2-0.9,1.8c0.3-0.1,0.6-0.1,0.8-0.1c0.5,0,1,0.1,1.5,0.2l2.7,0.8l-1.1,1
	l-2.1-0.6c-0.6-0.2-1.1-0.3-1.4-0.4c-0.4-0.1-0.6-0.1-0.8,0c-0.2,0-0.4,0.1-0.5,0.2c-0.1,0.1-0.3,0.2-0.5,0.4l-1,0.9l2.6,2.9
	L-72.1,209.2z M-80.5,210.4l1.7-1.5c0.6-0.5,0.9-0.9,0.9-1.4c0-0.4-0.1-0.8-0.4-1.2c-0.3-0.3-0.5-0.4-0.8-0.5s-0.6,0-0.9,0.1
	c-0.2,0.1-0.5,0.3-0.9,0.7l-1.7,1.5L-80.5,210.4z M-78.3,214.6l-5.8-6.5l2.5-2.2c0.4-0.4,0.8-0.7,1.1-0.8c0.4-0.2,0.7-0.4,1.1-0.4
	c0.4,0,0.7,0,1.1,0.2c0.4,0.2,0.7,0.4,1,0.7c0.5,0.6,0.7,1.2,0.7,1.9s-0.5,1.5-1.4,2.3l-1.7,1.5l2.4,2.7L-78.3,214.6z"/>
<path id="XMLID_183_" class="st2" d="M56.2,244.7c-1.1-0.3-1.9,0.3-2.2,1.6c-0.4,1.4,0,2.2,1.1,2.5s1.9-0.3,2.2-1.6
	C57.7,245.9,57.4,245,56.2,244.7z M64.6,260c-0.1,0-0.4-0.1-0.7-0.1h-0.4c-0.3,0.1-0.8,0.3-1.4,0.6c-0.6,0.4-1,0.7-1.2,0.9
	c0,0-0.1,0.1-0.2,0.4s-0.2,0.5-0.3,0.6c0,0.1,0,0.3,0,0.6c0,0.2,0,0.4,0,0.5l5.3-3.1c-0.1,0-0.3-0.1-0.5-0.2
	C64.9,260.1,64.8,260,64.6,260z M55.5,282.2c-0.6-0.5-1.1-0.2-1.3,0.8c-0.3,1,0,1.4,0.8,1.3c0.8-0.1,1.2-0.4,1.3-0.8
	C56.4,283.1,56.1,282.7,55.5,282.2z M62.8,305.2c0-0.1,0.1-0.3,0.2-0.5s0.2-0.4,0.2-0.5c0.4,0.1,1.1,0.6,2,1.4s1.5,1.4,1.7,1.8
	c0,0,0,0.1,0,0.4s0,0.5-0.1,0.7c0,0.1-0.1,0.3-0.2,0.5s-0.2,0.4-0.2,0.5c-0.4-0.1-1.1-0.6-2-1.4s-1.5-1.4-1.7-1.8c0,0,0-0.2,0-0.4
	C62.7,305.5,62.7,305.3,62.8,305.2z M7.6,294.5c1.1,0.3,1.5,1.1,1.1,2.5s-1.1,1.9-2.2,1.6c-1.1-0.3-1.5-1.1-1.1-2.5
	C5.7,294.7,6.4,294.2,7.6,294.5z M53.7,315.1c-1.1-0.3-1.9,0.3-2.2,1.7c-0.4,1.4,0,2.2,1.1,2.5s1.9-0.3,2.2-1.7
	C55.2,316.2,54.8,315.3,53.7,315.1z M93.6,334l3.1,5.2c0.3-0.5,0.8-1.2,1.6-2.2c0.8-0.9,1.5-1.9,2.3-2.9s1.5-1.9,2.1-2.9
	s1-1.8,1.2-2.5c0.2-1,0.6-2.6,1.1-4.9c0.4-2.3,0.7-4.7,0.7-7.1s-0.3-4.7-1-6.7s-2-3.3-4-3.8L93.6,334z M90.9,344.4
	c-1.1-0.3-1.9,0.3-2.2,1.7c-0.4,1.4,0,2.2,1.1,2.5s1.9-0.3,2.2-1.7C92.4,345.6,92,344.7,90.9,344.4z M98.3,341.9
	c-1.5,1-2.4,1.9-2.9,2.9s-0.9,2.2-1.3,3.8c-0.1,0.3-0.2,0.8-0.3,1.6c-0.1,0.8-0.2,1.3-0.3,1.6c1.4-1,2.4-1.9,2.9-2.9
	s0.9-2.2,1.3-3.8c0.1-0.3,0.2-0.8,0.3-1.6C98.1,342.7,98.2,342.2,98.3,341.9z M50.7,326.7L47.3,340c1.4-1.3,2.5-2.8,3.3-4.6
	c0.8-1.8,1.6-3.6,2.4-5.4s1.6-3.5,2.5-5.2s2.1-3,3.5-4l5.2,5.8c0.4-3.3,1.3-6.6,2.6-9.9c1.3-3.3,2.7-6.6,4.2-9.8
	c1.5-3.2,3-6.5,4.6-9.8c1.5-3.3,2.7-6.6,3.6-9.9l0.9-3.5c0.4-1.7,0.9-3.4,1.3-5.3c0.4-1.9,0.8-3.7,1.3-5.3l0.9-3.5
	c0-1.9-0.6-4.3-2-7c-1.4-2.8-2.6-4.6-3.7-5.5c-0.5-0.4-1.3-0.5-2.5-0.2c-1.2,0.3-1.9,0.7-2.2,1.2l1.6,2.6c-3.6,2.3-6.1,5.6-7.6,9.9
	c-1.5,4.3-2.3,8.2-2.5,11.9c-0.3,0.1-0.8,0.3-1.4,0.6c-0.6,0.4-1,0.7-1.3,0.9l-0.3,1l-0.3,1c0,0.1,0,0.5,0,1.2
	c0.1,0.7,0.1,1.4,0.2,2.2c0.1,0.8,0.2,1.5,0.2,2.2s0.1,1.1,0,1.2c-0.1,0.3-0.6,0.9-1.5,1.8c-0.9,1-1.5,1.5-1.7,1.8l-0.3,1l-0.3,1
	c0.1,0.2,0.4,0.6,0.9,1.3c0.5,0.7,0.7,1.1,0.7,1.3c-0.1,0.3-0.6,0.9-1.6,1.8s-1.5,1.5-1.6,1.8c0,0.1,0,0.6,0,1.2
	c0,0.7,0.1,1.4,0.2,2.2c0.1,0.8,0.2,1.5,0.2,2.2c0.1,0.7,0.1,1.1,0,1.2c0,0.1-0.1,0.6-0.3,1.5c-0.1,0.8-0.3,1.5-0.4,1.9
	c-0.3,1.1-0.8,2.2-1.4,3.3c-0.7,1.1-1.8,1.4-3.3,1c-0.1,0-0.3-0.1-0.6-0.3c-0.3-0.1-0.4-0.2-0.4-0.2l-1.6-2.6
	c-0.1,0-0.5-0.2-1.2-0.5s-1.4-0.7-2.3-1.1s-1.7-0.9-2.5-1.4s-1.5-0.9-1.8-1.1l-1.1-0.3l-1.1-0.3l-2.7,19.3l7.1,1.8
	c0.5-1.9,0.5-3.9,0-6s-1.3-4-2.3-5.7c0.4-0.2,1.1-0.4,2.3-0.7c1.2-0.3,2-0.4,2.4-0.3c0.1,0,0.4,0.4,0.7,1.1c0.3,0.7,0.6,1.2,0.8,1.5
	c0.1,0.3,0.2,1.1,0.4,2.3c0.2,1.2,0.4,2,0.6,2.4c0.1,0.2,0.5,0.2,1.1,0C50.2,326.8,50.6,326.7,50.7,326.7z M89.3,350.7
	c-0.6-0.5-1.1-0.2-1.3,0.8c-0.2,0.8,0.1,1.3,0.8,1.3c0.7,0,1.2-0.2,1.3-0.8C90.1,351.6,89.9,351.1,89.3,350.7z M50.9,343.2
	c-0.3,0.7-0.6,2.1-0.9,4.2c-0.3,2.2-0.3,3.6-0.2,4.4l2.2-8.3l3.1,9.7c1.8-0.7,3.3-1.8,4.4-3.3s1.9-3.1,2.4-4.9
	c0.4-1.7,0.5-3.1,0.2-4.2s-1.4-1.9-3.2-2.4c-1.5-0.4-3.1-0.1-4.7,1C52.5,340.4,51.5,341.7,50.9,343.2z M102.8,367.4
	c-1.1-0.3-1.9,0.3-2.2,1.7c-0.4,1.4,0,2.2,1.1,2.5s1.9-0.3,2.2-1.6C104.3,368.6,103.9,367.7,102.8,367.4z M97.4,359
	c-2.4-0.6-4.5-0.2-6.3,1.2c-1.9,1.4-3.1,3.2-3.7,5.6c-0.1,0.3-0.1,0.7-0.2,1.2s-0.1,0.8-0.1,1c2.2-0.6,4.4-1.7,6.4-3.1
	C95.5,363.3,96.8,361.3,97.4,359z M97.5,370.5c-1.1-0.3-1.8,0.3-2.2,1.7c-0.4,1.4,0,2.2,1.1,2.5s1.9-0.3,2.2-1.6
	C99.1,371.7,98.7,370.8,97.5,370.5z M66,362.5c-0.1-0.3-0.3-0.5-0.6-0.5c-0.4,0-0.8,0.1-1.2,0.4c-0.4,0.3-0.7,0.6-0.9,0.9
	c-0.2,0.3-0.1,0.6,0.1,0.8c0.6,0.5,1.3,0.5,1.9,0.1C65.9,363.9,66.1,363.3,66,362.5z M38.7,363.4c-0.2,0.8-0.1,1.5,0.4,2.1
	c0.4,0.6,1.1,1.1,1.8,1.6c0.8,0.5,1.6,0.9,2.4,1.2c0.8,0.3,1.5,0.5,2.1,0.6c0.4-1.7-0.2-3.1-1.9-4.3c-1.7-1.2-3.1-1.9-4.2-2.2
	c0,0.1-0.1,0.3-0.2,0.5C38.9,363.1,38.8,363.2,38.7,363.4z M-37.2,216.6c1.1,0.3,1.5,1.1,1.1,2.5c-0.3,1.4-1.1,1.9-2.2,1.7
	c-1.1-0.3-1.5-1.1-1.1-2.5C-39.1,216.8-38.3,216.3-37.2,216.6z M-67.7,213.3c0.6,0.5,0.8,1.2,0.5,2.3s-0.8,1.7-1.6,1.8
	c-0.3,0.1-0.5-0.2-0.6-0.7s-0.1-1.1,0.1-1.6c0.1-0.6,0.4-1,0.7-1.5C-68.2,213.2-67.9,213.1-67.7,213.3z M-50.9,226.4
	c0.6,0.4,0.9,0.9,0.8,1.3c-0.1,0.4-0.6,0.7-1.3,0.8c-0.8,0.1-1-0.3-0.8-1.3S-51.5,225.9-50.9,226.4z M-30.5,242.7
	c-0.1-0.3-0.3-0.5-0.7-0.5s-0.8,0.1-1.2,0.4c-0.4,0.3-0.7,0.6-0.9,0.9c-0.2,0.3-0.1,0.6,0.1,0.8c0.6,0.5,1.3,0.5,1.9,0.1
	S-30.4,243.4-30.5,242.7z M-12.2,262.6c-0.1,0-0.4,0-0.7-0.1h-0.5c-0.3,0.2-0.9,0.8-1.8,1.8c-0.9,1-1.3,1.6-1.4,1.9l5.3-3.1
	c-0.1,0-0.3-0.1-0.5-0.2C-11.9,262.7-12,262.7-12.2,262.6z M-66.9,253.4c-0.5,0.6-0.9,0.9-1.3,0.8c-0.4-0.1-0.7-0.6-0.8-1.3
	c-0.1-0.8,0.3-1,1.3-0.8C-66.7,252.3-66.4,252.8-66.9,253.4z M-55,294.1c1.1,0.3,1.5,1.1,1.1,2.5s-1.1,2-2.2,1.7
	c-1.1-0.3-1.5-1.1-1.1-2.5C-56.9,294.4-56.1,293.8-55,294.1z M-47.2,307.2c0.6,0.5,0.9,0.9,0.8,1.3c-0.1,0.6-0.6,0.8-1.3,0.8
	c-0.7-0.1-1-0.5-0.8-1.3C-48.3,307-47.8,306.7-47.2,307.2z M-88.7,303.3c1.1,0.3,1.5,1.1,1.1,2.5s-1.1,1.9-2.2,1.6
	c-1.1-0.3-1.5-1.1-1.1-2.5C-90.6,303.5-89.8,303-88.7,303.3z M-5.8,328.8c0.6,0.5,0.9,0.9,0.8,1.3c-0.1,0.6-0.6,0.8-1.3,0.8
	s-1-0.5-0.8-1.3C-6.9,328.6-6.4,328.3-5.8,328.8z M-90.3,309.5c1.1,0.3,1.5,1.1,1.1,2.5s-1.1,1.9-2.2,1.7c-1.1-0.3-1.5-1.1-1.1-2.5
	C-92.2,309.8-91.5,309.2-90.3,309.5z M-24.6,412.6h8.7v-3.2h-4.8v-34.3h4.8v-3.3h-8.7V412.6z M75.6,412.6h-8.7v-3.2h4.8v-25.5
	l-10.4-2.6c-1.8-0.5-3-1.4-3.6-2.8s-0.9-2.9-0.9-4.6c0-1.6,0.2-3.3,0.7-4.9s0.9-2.9,1.3-3.9c-2.8-0.3-5,0.3-6.7,1.5
	c-1.7,1.3-3.2,2.6-4.6,4s-3,2.6-4.7,3.7s-3.9,1.2-6.7,0.5c-0.3-0.1-1-0.3-2-0.7c-1.1-0.4-2.3-0.9-3.5-1.5c-1.3-0.5-2.5-1.1-3.8-1.7
	s-2.1-1.1-2.7-1.3c-0.2-0.2-0.8-0.8-1.8-1.7c-1-0.9-1.6-1.4-1.9-1.5c-0.3-0.1-1.1,0.1-2.3,0.4c-1.3,0.3-2.1,0.5-2.4,0.6
	c0,0-0.3,0-0.9-0.1c-0.6-0.1-1-0.1-1.3-0.2c-2.9-0.7-5-2.1-6.3-4s-2.1-4.1-2.6-6.5c-0.4-2.4-0.6-4.9-0.5-7.6c0.1-2.6,0-5-0.2-7
	c-0.2-2.1-0.8-3.6-1.8-4.8c-1-1.1-2.7-1.5-5.2-1.1l0.5-2.1l7.8,2c0.1-0.6,0.5-1.7,1.2-3.3c0.7-1.7,1.3-3.5,1.9-5.4
	c0.6-1.9,0.9-3.8,1.1-5.7c0.2-1.9-0.1-3.4-0.8-4.6c-0.1-0.2-0.4-0.4-1-0.8s-1.2-0.7-1.9-1s-1.3-0.7-1.9-1c-0.6-0.4-0.9-0.6-1-0.8
	c0,0,0-0.3,0.1-0.8s0.1-0.9,0.2-1.2c0.3-1.1,0.8-2.1,1.5-2.9s1.7-1.1,3-0.8c0.1,0,0.3,0.1,0.6,0.3c0.3,0.1,0.4,0.2,0.4,0.2
	c0.2,0.2,0.5,0.6,0.9,1.2s0.6,1.1,0.6,1.4l2.6-1.5L31,238.6l9.5-10.9c1.7,1,3.6,1.3,5.7,0.8s4.2-1.3,6.1-2.5c2-1.2,3.7-2.6,5.3-4.2
	c1.6-1.6,2.7-3,3.4-4.4c0.5,1.5,1.7,3.4,3.5,5.8c1.8,2.4,4,4.7,6.3,7c2.4,2.3,4.8,4.3,7.3,6.1c2.5,1.7,4.6,2.6,6.4,2.6
	c1.9,0.1,3.2-0.1,4-0.5c0.7-0.4,1.1-1,1.2-1.8s0.1-1.6,0-2.6c-0.1-0.9-0.1-1.8,0.1-2.6l-9.5-2.4c1-1.4,2.1-2.7,3.3-3.8
	c1.3-1.1,2.8-1.5,4.6-1c0.8,0.2,1.6,0.5,2.3,0.9c0.7,0.4,1.1,1.2,1.3,2.4c1.3-2.8,2.7-6,4.2-9.8s2.7-7.2,3.5-10.4l39.7,10.1
	c2.5,0.6,3.7,1.6,3.6,2.8s-0.3,2.6-0.7,4.1c-0.2,0.6-0.4,1.4-0.8,2.6c-0.4,1.2-0.6,1.8-0.6,2c-0.1,0.3-0.3,0.8-0.7,1.6
	c-0.4,0.8-0.9,1.6-1.4,2.4c-0.5,0.8-1,1.6-1.4,2.4c-0.4,0.8-0.7,1.2-0.7,1.4c-0.1,0.4,0,1.2,0.3,2.4s0.5,2,0.7,2.3L127,282.7
	c-2.2,0.6-4.2,1.9-5.9,3.7c-1.7,1.9-2.8,4-3.4,6.3l-0.2,0.8c0.3,0.4,1.3,1.1,2.7,2c1.5,1,2.5,1.5,3,1.7l-9.7,37.5
	c-0.2,0.7-0.6,1.1-1.2,1.3c-0.7,0.2-1.4,0.2-2.2,0.1c-0.8-0.1-1.5-0.3-2.2-0.6c-0.7-0.3-1.1-0.4-1.2-0.4c0,0.7,0.1,1.6,0.3,2.7
	c0.2,1.1,0.5,2.3,0.7,3.5s0.3,2.4,0.4,3.5s0,2-0.2,2.7l-0.3,1l-3.2,3.6l-0.3,1c-0.4,1.4-0.3,2.9,0.2,4.5s1.2,2.9,2.1,3.9l-7.5,29.1
	l-23.4-5.9v27.9H75.6z M50.2,394.9h13c-0.2-1.9-0.7-3.4-1.5-4.4c-1.3-1.5-2.9-2.3-4.9-2.3c-1.8,0-3.3,0.6-4.6,1.8
	C51,391.3,50.3,392.9,50.2,394.9z M63.2,401.2l4.1,0.5c-0.6,2.4-1.8,4.2-3.6,5.5c-1.7,1.3-4,2-6.7,2c-3.4,0-6.1-1-8.1-3.1
	s-3-5-3-8.8c0-3.9,1-6.9,3-9.1c2-2.1,4.6-3.2,7.9-3.2c3.1,0,5.7,1.1,7.6,3.2c2,2.1,3,5.1,3,8.9c0,0.2,0,0.6,0,1H50
	c0.1,2.5,0.9,4.5,2.2,5.8c1.3,1.4,2.9,2,4.9,2c1.5,0,2.7-0.4,3.7-1.1C61.8,404.1,62.6,402.9,63.2,401.2z M24.8,397.1
	c0,3,0.6,5.2,1.9,6.6c1.3,1.5,2.7,2.2,4.5,2.2c1.7,0,3.2-0.7,4.4-2.1c1.2-1.4,1.8-3.5,1.8-6.4c0-3.2-0.6-5.5-1.9-7
	c-1.2-1.5-2.7-2.2-4.5-2.2c-1.8,0-3.2,0.7-4.4,2.1C25.4,391.8,24.8,394.1,24.8,397.1z M37.3,408.7v-2.9c-1.5,2.3-3.6,3.4-6.5,3.4
	c-1.9,0-3.6-0.5-5.1-1.5c-1.6-1-2.8-2.4-3.6-4.3c-0.9-1.8-1.3-3.9-1.3-6.3c0-2.3,0.4-4.4,1.2-6.3s1.9-3.3,3.5-4.3s3.3-1.5,5.2-1.5
	c1.4,0,2.6,0.3,3.8,0.9c1.1,0.6,2,1.3,2.7,2.3v-11.5h3.9v31.9L37.3,408.7L37.3,408.7z M12.2,385.5h4v23.1h-4V385.5z M12.2,376.7h4
	v4.5h-4V376.7z M-2.8,408.7v-23.1h3.5v3.5c0.9-1.6,1.8-2.7,2.5-3.2c0.8-0.5,1.6-0.8,2.5-0.8c1.3,0,2.7,0.4,4.1,1.3L8.4,390
	c-1-0.6-1.9-0.9-2.9-0.9c-0.9,0-1.6,0.3-2.3,0.8S2,391.1,1.7,392c-0.4,1.4-0.7,2.9-0.7,4.6v12.1H-2.8z M-6.7,405.2l0.6,3.5
	c-1.1,0.2-2.1,0.3-3,0.3c-1.4,0-2.6-0.2-3.3-0.7c-0.8-0.4-1.3-1-1.7-1.8c-0.3-0.7-0.5-2.3-0.5-4.6v-13.3h-2.9v-3h2.9v-5.7l3.9-2.3
	v8.1h4v3h-4v13.5c0,1.1,0.1,1.8,0.2,2.2c0.2,0.3,0.4,0.6,0.7,0.8c0.3,0.2,0.8,0.3,1.4,0.3C-8,405.3-7.4,405.2-6.7,405.2z
	 M-84.6,303.9c0.5-1.9,1.5-3.9,3-5.9s3-3.7,4.6-5.1c0.3,1.3,1.3,2.6,3.2,4.1c1.8,1.5,3.2,2.2,4.1,2.2c0.9-0.1,1.7-0.8,2.5-2.1
	c0.7-1.4,1.2-2.6,1.5-3.7c0.3-1,0.3-1.6,0.3-1.9c0.4,0.2,1,0.7,1.9,1.5c0.9,0.7,1.6,1.6,2.4,2.6c0.7,1,1.2,2,1.3,3.1
	c0.2,1.1-0.3,2-1.4,2.7l4.7-1l-0.5,2.1l4.7-1l-0.5,2.1l4.2,1.1l-3.7,5.7c-0.2-0.4-0.8-0.9-1.7-1.8c-0.9-0.8-1.6-1.3-2-1.4
	c-1.1-0.3-1.9,0.1-2.4,1.1s-0.8,1.8-1,2.5c-0.2,0.8-0.3,1.7-0.3,2.5s0.5,1.6,1.5,2.3l-2.6,1.5c1,1.2,1.7,1.9,2.1,2.3
	c0.3,0.4,0.7,0.6,0.9,0.7c0.4,0.1,0.9,0.1,1.3,0.1c0.5,0,1.3,0.1,2.4,0.4c0.1-0.4,0.2-1,0.1-1.9c0-0.8,0-1.7,0.1-2.5
	c0.1-0.9,0.3-1.6,0.8-2.2s1.2-1,2.3-1c-0.1,0.3-0.4,1-0.9,2.3c-0.6,1.3-1,2.7-1.4,4.2s-0.5,3-0.2,4.4c0.2,1.4,1.1,2.3,2.4,2.6
	c1.7,0.4,3.1,0,4.3-1.4c1.2-1.3,2.1-3,2.9-4.9c0.8-1.9,1.4-3.8,1.8-5.6c0.4-1.8,0.7-3,0.8-3.6l0.5-2.1c0.3-1,0.5-2,0.7-3.1
	s0.5-2.2,0.7-3.1l0.5-2.1c0.3-1.7,0.2-3.2-0.4-4.4c-0.6-1.3-1.4-2.3-2.6-3.1c-1.1-0.8-2.4-1.4-3.8-1.7c-1.4-0.4-2.8-0.4-4.2-0.2
	c0-0.4,0-1.2,0-2.2s0.1-2.1,0.2-3.3c0.1-1.2,0.1-2.2,0.2-3.3c0.1-1,0.1-1.7,0.2-2.2l0.3-1.3c0.4-1.7,1.5-2.6,3.2-2.9
	s3.5-0.4,5.5-0.4c1.9,0,3.7-0.1,5.4-0.3c1.7-0.2,2.8-1.2,3.2-2.9l0.3-1c-0.1-0.3-0.3-1.1-0.6-2.4c-0.3-1.3-0.5-2-0.4-2.3
	c0-0.1,0.4-0.4,1.2-0.8c0.8-0.4,1.2-0.6,1.4-0.7c0.4-0.2,0.9-0.8,1.7-1.8s1.3-1.6,1.5-1.8l-0.6-0.2c0.2-0.8,0.5-2,0.8-3.5
	s0.5-3,0.5-4.6s-0.2-3.1-0.6-4.6c-0.4-1.4-1.3-2.5-2.6-3.3c-0.3,0.2-0.9,0.8-1.7,1.8s-1.3,1.6-1.5,1.8c-0.3,0.6-0.8,1.8-1.4,3.3
	c-0.6,1.5-1.3,3.1-1.9,4.8c-0.7,1.7-1.3,3.3-1.9,4.8c-0.6,1.5-1,2.6-1.2,3.1c-0.6,0.6-1.2,1-1.8,1.2s-1.9,0.4-3.8,0.5
	c-2.1-0.1-4.7-0.1-7.8-0.1s-5.5,0-7.1-0.2l-1.3-0.3c-1.3-0.3-2.2-0.9-2.8-1.7c-0.6-0.8-0.9-1.7-1-2.7c0-1,0-2,0.3-3.2
	c0.2-1.1,0.4-2.1,0.7-2.9c0.5-1.8,1.1-3.8,2-6s1.9-4.5,3-6.8s2.4-4.5,3.8-6.6c1.4-2.1,2.9-3.8,4.5-5.2c0.2,0.2,1.5,0,3.7-0.6
	s4.9-1.2,8.1-1.8c3.2-0.6,6.4-1.1,9.9-1.5s6.6-0.2,9.4,0.5c4.2,1.1,7.4,2.2,9.4,3.3c2.1,1.1,3.5,2.3,4.3,3.5s1.1,2.5,1,3.7
	c-0.2,1.2-0.3,2.5-0.4,3.8c-0.1,1.3,0,2.6,0.4,4s1.4,2.8,2.9,4.2l-0.5,2.1c-0.3,1-0.5,2-0.7,3.2c-0.2,1.1-0.5,2.2-0.7,3.1l-0.5,2.1
	c-1.2,4.4-2.3,7.5-3.5,9.2s-2.3,2.9-3.4,3.6c-1.1,0.7-2,1.2-2.9,1.7c-0.9,0.4-1.6,1.7-2.1,3.8c-0.3,1.3-0.4,2.4-0.1,3.4
	c0.3,1,0.7,2,1.2,3c0.6,1,1.1,1.9,1.6,2.9s0.8,2.2,0.9,3.5c0.1,3.6,0.1,6.3-0.1,8.3c-0.2,1.9-0.6,4.2-1.3,6.9l-1.6,6.2
	c-0.2,0.8-0.6,2.5-1.2,4.9c-0.6,2.4-1.3,5-2.2,7.8c-0.9,2.7-2,5.2-3.3,7.4c-1.2,2.2-2.6,3.5-4.2,3.8c-0.6,0.1-1.5-0.3-2.6-1.2
	c-1.1-1-1.9-1.5-2.5-1.6c0,0.1-0.4,0.7-1,1.6c-0.6,1-0.9,1.5-0.8,1.7c0.2,0.3,0.9,0.9,1.9,1.6c1.1,0.7,1.7,1.2,1.7,1.5
	c0,1.9-0.6,3.4-1.7,4.3c-1.1,1-2.4,1.6-4,2c-1.6,0.3-3.2,0.4-4.8,0.1s-3.1-0.7-4.2-1.3l1,4.7c-4.7,0.1-8.9,0.1-12.6,0
	c-3.8-0.1-7.7-0.7-11.7-1.8c-4.3-1.1-7.3-2.9-8.9-5.3c-1.6-2.4-2.6-5.1-2.8-8.1c-0.3-3-0.1-6.2,0.5-9.6s1-6.6,1.1-9.5
	s-0.2-5.5-1.1-7.7C-79.3,306.2-81.4,304.7-84.6,303.9z"/>
<path id="XMLID_143_" class="st1" d="M56.2,244.7c-1.1-0.3-1.9,0.3-2.2,1.6c-0.4,1.4,0,2.2,1.1,2.5s1.9-0.3,2.2-1.6
	C57.7,245.9,57.4,245,56.2,244.7 M64.6,260c-0.1,0-0.4-0.1-0.7-0.1h-0.4c-0.3,0.1-0.8,0.3-1.4,0.6c-0.6,0.4-1,0.7-1.2,0.9
	c0,0-0.1,0.1-0.2,0.4s-0.2,0.5-0.3,0.6c0,0.1,0,0.3,0,0.6c0,0.2,0,0.4,0,0.5l5.3-3.1c-0.1,0-0.3-0.1-0.5-0.2
	C64.9,260.1,64.8,260,64.6,260z M55.5,282.2c-0.6-0.5-1.1-0.2-1.3,0.8c-0.3,1,0,1.4,0.8,1.3c0.8-0.1,1.2-0.4,1.3-0.8
	C56.4,283.1,56.1,282.7,55.5,282.2z M62.8,305.2c0-0.1,0.1-0.3,0.2-0.5s0.2-0.4,0.2-0.5c0.4,0.1,1.1,0.6,2,1.4s1.5,1.4,1.7,1.8
	c0,0,0,0.1,0,0.4s0,0.5-0.1,0.7c0,0.1-0.1,0.3-0.2,0.5s-0.2,0.4-0.2,0.5c-0.4-0.1-1.1-0.6-2-1.4s-1.5-1.4-1.7-1.8c0,0,0-0.2,0-0.4
	C62.7,305.5,62.7,305.3,62.8,305.2z M7.6,294.5c1.1,0.3,1.5,1.1,1.1,2.5s-1.1,1.9-2.2,1.6c-1.1-0.3-1.5-1.1-1.1-2.5
	C5.7,294.7,6.4,294.2,7.6,294.5z M53.7,315.1c-1.1-0.3-1.9,0.3-2.2,1.7c-0.4,1.4,0,2.2,1.1,2.5s1.9-0.3,2.2-1.7
	C55.2,316.2,54.8,315.3,53.7,315.1z M93.6,334l3.1,5.2c0.3-0.5,0.8-1.2,1.6-2.2c0.8-0.9,1.5-1.9,2.3-2.9s1.5-1.9,2.1-2.9
	s1-1.8,1.2-2.5c0.2-1,0.6-2.6,1.1-4.9c0.4-2.3,0.7-4.7,0.7-7.1s-0.3-4.7-1-6.7s-2-3.3-4-3.8L93.6,334z M90.9,344.4
	c-1.1-0.3-1.9,0.3-2.2,1.7c-0.4,1.4,0,2.2,1.1,2.5s1.9-0.3,2.2-1.7C92.4,345.6,92,344.7,90.9,344.4z M98.3,341.9
	c-1.5,1-2.4,1.9-2.9,2.9s-0.9,2.2-1.3,3.8c-0.1,0.3-0.2,0.8-0.3,1.6c-0.1,0.8-0.2,1.3-0.3,1.6c1.4-1,2.4-1.9,2.9-2.9
	s0.9-2.2,1.3-3.8c0.1-0.3,0.2-0.8,0.3-1.6C98.1,342.7,98.2,342.2,98.3,341.9z M50.7,326.7L47.3,340c1.4-1.3,2.5-2.8,3.3-4.6
	c0.8-1.8,1.6-3.6,2.4-5.4s1.6-3.5,2.5-5.2s2.1-3,3.5-4l5.2,5.8c0.4-3.3,1.3-6.6,2.6-9.9c1.3-3.3,2.7-6.6,4.2-9.8
	c1.5-3.2,3-6.5,4.6-9.8c1.5-3.3,2.7-6.6,3.6-9.9l0.9-3.5c0.4-1.7,0.9-3.4,1.3-5.3c0.4-1.9,0.8-3.7,1.3-5.3l0.9-3.5
	c0-1.9-0.6-4.3-2-7c-1.4-2.8-2.6-4.6-3.7-5.5c-0.5-0.4-1.3-0.5-2.5-0.2c-1.2,0.3-1.9,0.7-2.2,1.2l1.6,2.6c-3.6,2.3-6.1,5.6-7.6,9.9
	c-1.5,4.3-2.3,8.2-2.5,11.9c-0.3,0.1-0.8,0.3-1.4,0.6c-0.6,0.4-1,0.7-1.3,0.9l-0.3,1l-0.3,1c0,0.1,0,0.5,0,1.2
	c0.1,0.7,0.1,1.4,0.2,2.2c0.1,0.8,0.2,1.5,0.2,2.2s0.1,1.1,0,1.2c-0.1,0.3-0.6,0.9-1.5,1.8c-0.9,1-1.5,1.5-1.7,1.8l-0.3,1l-0.3,1
	c0.1,0.2,0.4,0.6,0.9,1.3c0.5,0.7,0.7,1.1,0.7,1.3c-0.1,0.3-0.6,0.9-1.6,1.8s-1.5,1.5-1.6,1.8c0,0.1,0,0.6,0,1.2
	c0,0.7,0.1,1.4,0.2,2.2c0.1,0.8,0.2,1.5,0.2,2.2c0.1,0.7,0.1,1.1,0,1.2c0,0.1-0.1,0.6-0.3,1.5c-0.1,0.8-0.3,1.5-0.4,1.9
	c-0.3,1.1-0.8,2.2-1.4,3.3c-0.7,1.1-1.8,1.4-3.3,1c-0.1,0-0.3-0.1-0.6-0.3c-0.3-0.1-0.4-0.2-0.4-0.2l-1.6-2.6
	c-0.1,0-0.5-0.2-1.2-0.5s-1.4-0.7-2.3-1.1s-1.7-0.9-2.5-1.4s-1.5-0.9-1.8-1.1l-1.1-0.3l-1.1-0.3l-2.7,19.3l7.1,1.8
	c0.5-1.9,0.5-3.9,0-6s-1.3-4-2.3-5.7c0.4-0.2,1.1-0.4,2.3-0.7c1.2-0.3,2-0.4,2.4-0.3c0.1,0,0.4,0.4,0.7,1.1c0.3,0.7,0.6,1.2,0.8,1.5
	c0.1,0.3,0.2,1.1,0.4,2.3c0.2,1.2,0.4,2,0.6,2.4c0.1,0.2,0.5,0.2,1.1,0C50.2,326.8,50.6,326.7,50.7,326.7z M89.3,350.7
	c-0.6-0.5-1.1-0.2-1.3,0.8c-0.2,0.8,0.1,1.3,0.8,1.3c0.7,0,1.2-0.2,1.3-0.8C90.1,351.6,89.9,351.1,89.3,350.7z M50.9,343.2
	c-0.3,0.7-0.6,2.1-0.9,4.2c-0.3,2.2-0.3,3.6-0.2,4.4l2.2-8.3l3.1,9.7c1.8-0.7,3.3-1.8,4.4-3.3s1.9-3.1,2.4-4.9
	c0.4-1.7,0.5-3.1,0.2-4.2s-1.4-1.9-3.2-2.4c-1.5-0.4-3.1-0.1-4.7,1C52.5,340.4,51.5,341.7,50.9,343.2z M102.8,367.4
	c-1.1-0.3-1.9,0.3-2.2,1.7c-0.4,1.4,0,2.2,1.1,2.5s1.9-0.3,2.2-1.6C104.3,368.6,103.9,367.7,102.8,367.4z M97.4,359
	c-2.4-0.6-4.5-0.2-6.3,1.2c-1.9,1.4-3.1,3.2-3.7,5.6c-0.1,0.3-0.1,0.7-0.2,1.2s-0.1,0.8-0.1,1c2.2-0.6,4.4-1.7,6.4-3.1
	C95.5,363.3,96.8,361.3,97.4,359z M97.5,370.5c-1.1-0.3-1.8,0.3-2.2,1.7c-0.4,1.4,0,2.2,1.1,2.5s1.9-0.3,2.2-1.6
	C99.1,371.7,98.7,370.8,97.5,370.5z M66,362.5c-0.1-0.3-0.3-0.5-0.6-0.5c-0.4,0-0.8,0.1-1.2,0.4c-0.4,0.3-0.7,0.6-0.9,0.9
	c-0.2,0.3-0.1,0.6,0.1,0.8c0.6,0.5,1.3,0.5,1.9,0.1C65.9,363.9,66.1,363.3,66,362.5z M38.7,363.4c-0.2,0.8-0.1,1.5,0.4,2.1
	c0.4,0.6,1.1,1.1,1.8,1.6c0.8,0.5,1.6,0.9,2.4,1.2c0.8,0.3,1.5,0.5,2.1,0.6c0.4-1.7-0.2-3.1-1.9-4.3c-1.7-1.2-3.1-1.9-4.2-2.2
	c0,0.1-0.1,0.3-0.2,0.5C38.9,363.1,38.8,363.2,38.7,363.4z M-37.2,216.6c1.1,0.3,1.5,1.1,1.1,2.5c-0.3,1.4-1.1,1.9-2.2,1.7
	c-1.1-0.3-1.5-1.1-1.1-2.5C-39.1,216.8-38.3,216.3-37.2,216.6z M-67.7,213.3c0.6,0.5,0.8,1.2,0.5,2.3s-0.8,1.7-1.6,1.8
	c-0.3,0.1-0.5-0.2-0.6-0.7s-0.1-1.1,0.1-1.6c0.1-0.6,0.4-1,0.7-1.5C-68.2,213.2-67.9,213.1-67.7,213.3z M-50.9,226.4
	c0.6,0.4,0.9,0.9,0.8,1.3c-0.1,0.4-0.6,0.7-1.3,0.8c-0.8,0.1-1-0.3-0.8-1.3S-51.5,225.9-50.9,226.4z M-30.5,242.7
	c-0.1-0.3-0.3-0.5-0.7-0.5s-0.8,0.1-1.2,0.4c-0.4,0.3-0.7,0.6-0.9,0.9c-0.2,0.3-0.1,0.6,0.1,0.8c0.6,0.5,1.3,0.5,1.9,0.1
	S-30.4,243.4-30.5,242.7z M-12.2,262.6c-0.1,0-0.4,0-0.7-0.1h-0.5c-0.3,0.2-0.9,0.8-1.8,1.8c-0.9,1-1.3,1.6-1.4,1.9l5.3-3.1
	c-0.1,0-0.3-0.1-0.5-0.2C-11.9,262.7-12,262.7-12.2,262.6z M-66.9,253.4c-0.5,0.6-0.9,0.9-1.3,0.8c-0.4-0.1-0.7-0.6-0.8-1.3
	c-0.1-0.8,0.3-1,1.3-0.8C-66.7,252.3-66.4,252.8-66.9,253.4z M-55,294.1c1.1,0.3,1.5,1.1,1.1,2.5s-1.1,2-2.2,1.7
	c-1.1-0.3-1.5-1.1-1.1-2.5C-56.9,294.4-56.1,293.8-55,294.1z M-47.2,307.2c0.6,0.5,0.9,0.9,0.8,1.3c-0.1,0.6-0.6,0.8-1.3,0.8
	c-0.7-0.1-1-0.5-0.8-1.3C-48.3,307-47.8,306.7-47.2,307.2z M-88.7,303.3c1.1,0.3,1.5,1.1,1.1,2.5s-1.1,1.9-2.2,1.6
	c-1.1-0.3-1.5-1.1-1.1-2.5C-90.6,303.5-89.8,303-88.7,303.3z M-5.8,328.8c0.6,0.5,0.9,0.9,0.8,1.3c-0.1,0.6-0.6,0.8-1.3,0.8
	s-1-0.5-0.8-1.3C-6.9,328.6-6.4,328.3-5.8,328.8z M-90.3,309.5c1.1,0.3,1.5,1.1,1.1,2.5s-1.1,1.9-2.2,1.7c-1.1-0.3-1.5-1.1-1.1-2.5
	C-92.2,309.8-91.5,309.2-90.3,309.5z M-24.6,412.6h8.7v-3.2h-4.8v-34.3h4.8v-3.3h-8.7V412.6z M75.6,412.6h-8.7v-3.2h4.8v-25.5
	l-10.4-2.6c-1.8-0.5-3-1.4-3.6-2.8s-0.9-2.9-0.9-4.6c0-1.6,0.2-3.3,0.7-4.9s0.9-2.9,1.3-3.9c-2.8-0.3-5,0.3-6.7,1.5
	c-1.7,1.3-3.2,2.6-4.6,4s-3,2.6-4.7,3.7s-3.9,1.2-6.7,0.5c-0.3-0.1-1-0.3-2-0.7c-1.1-0.4-2.3-0.9-3.5-1.5c-1.3-0.5-2.5-1.1-3.8-1.7
	s-2.1-1.1-2.7-1.3c-0.2-0.2-0.8-0.8-1.8-1.7c-1-0.9-1.6-1.4-1.9-1.5c-0.3-0.1-1.1,0.1-2.3,0.4c-1.3,0.3-2.1,0.5-2.4,0.6
	c0,0-0.3,0-0.9-0.1c-0.6-0.1-1-0.1-1.3-0.2c-2.9-0.7-5-2.1-6.3-4s-2.1-4.1-2.6-6.5c-0.4-2.4-0.6-4.9-0.5-7.6c0.1-2.6,0-5-0.2-7
	c-0.2-2.1-0.8-3.6-1.8-4.8c-1-1.1-2.7-1.5-5.2-1.1l0.5-2.1l7.8,2c0.1-0.6,0.5-1.7,1.2-3.3c0.7-1.7,1.3-3.5,1.9-5.4
	c0.6-1.9,0.9-3.8,1.1-5.7c0.2-1.9-0.1-3.4-0.8-4.6c-0.1-0.2-0.4-0.4-1-0.8s-1.2-0.7-1.9-1s-1.3-0.7-1.9-1c-0.6-0.4-0.9-0.6-1-0.8
	c0,0,0-0.3,0.1-0.8s0.1-0.9,0.2-1.2c0.3-1.1,0.8-2.1,1.5-2.9s1.7-1.1,3-0.8c0.1,0,0.3,0.1,0.6,0.3c0.3,0.1,0.4,0.2,0.4,0.2
	c0.2,0.2,0.5,0.6,0.9,1.2s0.6,1.1,0.6,1.4l2.6-1.5L31,238.6l9.5-10.9c1.7,1,3.6,1.3,5.7,0.8s4.2-1.3,6.1-2.5c2-1.2,3.7-2.6,5.3-4.2
	c1.6-1.6,2.7-3,3.4-4.4c0.5,1.5,1.7,3.4,3.5,5.8c1.8,2.4,4,4.7,6.3,7c2.4,2.3,4.8,4.3,7.3,6.1c2.5,1.7,4.6,2.6,6.4,2.6
	c1.9,0.1,3.2-0.1,4-0.5c0.7-0.4,1.1-1,1.2-1.8s0.1-1.6,0-2.6c-0.1-0.9-0.1-1.8,0.1-2.6l-9.5-2.4c1-1.4,2.1-2.7,3.3-3.8
	c1.3-1.1,2.8-1.5,4.6-1c0.8,0.2,1.6,0.5,2.3,0.9c0.7,0.4,1.1,1.2,1.3,2.4c1.3-2.8,2.7-6,4.2-9.8s2.7-7.2,3.5-10.4l39.7,10.1
	c2.5,0.6,3.7,1.6,3.6,2.8s-0.3,2.6-0.7,4.1c-0.2,0.6-0.4,1.4-0.8,2.6c-0.4,1.2-0.6,1.8-0.6,2c-0.1,0.3-0.3,0.8-0.7,1.6
	c-0.4,0.8-0.9,1.6-1.4,2.4c-0.5,0.8-1,1.6-1.4,2.4c-0.4,0.8-0.7,1.2-0.7,1.4c-0.1,0.4,0,1.2,0.3,2.4s0.5,2,0.7,2.3L127,282.7
	c-2.2,0.6-4.2,1.9-5.9,3.7c-1.7,1.9-2.8,4-3.4,6.3l-0.2,0.8c0.3,0.4,1.3,1.1,2.7,2c1.5,1,2.5,1.5,3,1.7l-9.7,37.5
	c-0.2,0.7-0.6,1.1-1.2,1.3c-0.7,0.2-1.4,0.2-2.2,0.1c-0.8-0.1-1.5-0.3-2.2-0.6c-0.7-0.3-1.1-0.4-1.2-0.4c0,0.7,0.1,1.6,0.3,2.7
	c0.2,1.1,0.5,2.3,0.7,3.5s0.3,2.4,0.4,3.5s0,2-0.2,2.7l-0.3,1l-3.2,3.6l-0.3,1c-0.4,1.4-0.3,2.9,0.2,4.5s1.2,2.9,2.1,3.9l-7.5,29.1
	l-23.4-5.9v27.9H75.6z M50.2,394.9h13c-0.2-1.9-0.7-3.4-1.5-4.4c-1.3-1.5-2.9-2.3-4.9-2.3c-1.8,0-3.3,0.6-4.6,1.8
	C51,391.3,50.3,392.9,50.2,394.9z M63.2,401.2l4.1,0.5c-0.6,2.4-1.8,4.2-3.6,5.5c-1.7,1.3-4,2-6.7,2c-3.4,0-6.1-1-8.1-3.1
	s-3-5-3-8.8c0-3.9,1-6.9,3-9.1c2-2.1,4.6-3.2,7.9-3.2c3.1,0,5.7,1.1,7.6,3.2c2,2.1,3,5.1,3,8.9c0,0.2,0,0.6,0,1H50
	c0.1,2.5,0.9,4.5,2.2,5.8c1.3,1.4,2.9,2,4.9,2c1.5,0,2.7-0.4,3.7-1.1C61.8,404.1,62.6,402.9,63.2,401.2z M24.8,397.1
	c0,3,0.6,5.2,1.9,6.6c1.3,1.5,2.7,2.2,4.5,2.2c1.7,0,3.2-0.7,4.4-2.1c1.2-1.4,1.8-3.5,1.8-6.4c0-3.2-0.6-5.5-1.9-7
	c-1.2-1.5-2.7-2.2-4.5-2.2c-1.8,0-3.2,0.7-4.4,2.1C25.4,391.8,24.8,394.1,24.8,397.1z M37.3,408.7v-2.9c-1.5,2.3-3.6,3.4-6.5,3.4
	c-1.9,0-3.6-0.5-5.1-1.5c-1.6-1-2.8-2.4-3.6-4.3c-0.9-1.8-1.3-3.9-1.3-6.3c0-2.3,0.4-4.4,1.2-6.3s1.9-3.3,3.5-4.3s3.3-1.5,5.2-1.5
	c1.4,0,2.6,0.3,3.8,0.9c1.1,0.6,2,1.3,2.7,2.3v-11.5h3.9v31.9L37.3,408.7L37.3,408.7z M12.2,385.5h4v23.1h-4V385.5z M12.2,376.7h4
	v4.5h-4V376.7z M-2.8,408.7v-23.1h3.5v3.5c0.9-1.6,1.8-2.7,2.5-3.2c0.8-0.5,1.6-0.8,2.5-0.8c1.3,0,2.7,0.4,4.1,1.3L8.4,390
	c-1-0.6-1.9-0.9-2.9-0.9c-0.9,0-1.6,0.3-2.3,0.8S2,391.1,1.7,392c-0.4,1.4-0.7,2.9-0.7,4.6v12.1H-2.8z M-6.7,405.2l0.6,3.5
	c-1.1,0.2-2.1,0.3-3,0.3c-1.4,0-2.6-0.2-3.3-0.7c-0.8-0.4-1.3-1-1.7-1.8c-0.3-0.7-0.5-2.3-0.5-4.6v-13.3h-2.9v-3h2.9v-5.7l3.9-2.3
	v8.1h4v3h-4v13.5c0,1.1,0.1,1.8,0.2,2.2c0.2,0.3,0.4,0.6,0.7,0.8c0.3,0.2,0.8,0.3,1.4,0.3C-8,405.3-7.4,405.2-6.7,405.2z
	 M-84.6,303.9c0.5-1.9,1.5-3.9,3-5.9s3-3.7,4.6-5.1c0.3,1.3,1.3,2.6,3.2,4.1c1.8,1.5,3.2,2.2,4.1,2.2c0.9-0.1,1.7-0.8,2.5-2.1
	c0.7-1.4,1.2-2.6,1.5-3.7c0.3-1,0.3-1.6,0.3-1.9c0.4,0.2,1,0.7,1.9,1.5c0.9,0.7,1.6,1.6,2.4,2.6c0.7,1,1.2,2,1.3,3.1
	c0.2,1.1-0.3,2-1.4,2.7l4.7-1l-0.5,2.1l4.7-1l-0.5,2.1l4.2,1.1l-3.7,5.7c-0.2-0.4-0.8-0.9-1.7-1.8c-0.9-0.8-1.6-1.3-2-1.4
	c-1.1-0.3-1.9,0.1-2.4,1.1s-0.8,1.8-1,2.5c-0.2,0.8-0.3,1.7-0.3,2.5s0.5,1.6,1.5,2.3l-2.6,1.5c1,1.2,1.7,1.9,2.1,2.3
	c0.3,0.4,0.7,0.6,0.9,0.7c0.4,0.1,0.9,0.1,1.3,0.1c0.5,0,1.3,0.1,2.4,0.4c0.1-0.4,0.2-1,0.1-1.9c0-0.8,0-1.7,0.1-2.5
	c0.1-0.9,0.3-1.6,0.8-2.2s1.2-1,2.3-1c-0.1,0.3-0.4,1-0.9,2.3c-0.6,1.3-1,2.7-1.4,4.2s-0.5,3-0.2,4.4c0.2,1.4,1.1,2.3,2.4,2.6
	c1.7,0.4,3.1,0,4.3-1.4c1.2-1.3,2.1-3,2.9-4.9c0.8-1.9,1.4-3.8,1.8-5.6c0.4-1.8,0.7-3,0.8-3.6l0.5-2.1c0.3-1,0.5-2,0.7-3.1
	s0.5-2.2,0.7-3.1l0.5-2.1c0.3-1.7,0.2-3.2-0.4-4.4c-0.6-1.3-1.4-2.3-2.6-3.1c-1.1-0.8-2.4-1.4-3.8-1.7c-1.4-0.4-2.8-0.4-4.2-0.2
	c0-0.4,0-1.2,0-2.2s0.1-2.1,0.2-3.3c0.1-1.2,0.1-2.2,0.2-3.3c0.1-1,0.1-1.7,0.2-2.2l0.3-1.3c0.4-1.7,1.5-2.6,3.2-2.9
	s3.5-0.4,5.5-0.4c1.9,0,3.7-0.1,5.4-0.3c1.7-0.2,2.8-1.2,3.2-2.9l0.3-1c-0.1-0.3-0.3-1.1-0.6-2.4c-0.3-1.3-0.5-2-0.4-2.3
	c0-0.1,0.4-0.4,1.2-0.8c0.8-0.4,1.2-0.6,1.4-0.7c0.4-0.2,0.9-0.8,1.7-1.8s1.3-1.6,1.5-1.8l-0.6-0.2c0.2-0.8,0.5-2,0.8-3.5
	s0.5-3,0.5-4.6s-0.2-3.1-0.6-4.6c-0.4-1.4-1.3-2.5-2.6-3.3c-0.3,0.2-0.9,0.8-1.7,1.8s-1.3,1.6-1.5,1.8c-0.3,0.6-0.8,1.8-1.4,3.3
	c-0.6,1.5-1.3,3.1-1.9,4.8c-0.7,1.7-1.3,3.3-1.9,4.8c-0.6,1.5-1,2.6-1.2,3.1c-0.6,0.6-1.2,1-1.8,1.2s-1.9,0.4-3.8,0.5
	c-2.1-0.1-4.7-0.1-7.8-0.1s-5.5,0-7.1-0.2l-1.3-0.3c-1.3-0.3-2.2-0.9-2.8-1.7c-0.6-0.8-0.9-1.7-1-2.7c0-1,0-2,0.3-3.2
	c0.2-1.1,0.4-2.1,0.7-2.9c0.5-1.8,1.1-3.8,2-6s1.9-4.5,3-6.8s2.4-4.5,3.8-6.6c1.4-2.1,2.9-3.8,4.5-5.2c0.2,0.2,1.5,0,3.7-0.6
	s4.9-1.2,8.1-1.8c3.2-0.6,6.4-1.1,9.9-1.5s6.6-0.2,9.4,0.5c4.2,1.1,7.4,2.2,9.4,3.3c2.1,1.1,3.5,2.3,4.3,3.5s1.1,2.5,1,3.7
	c-0.2,1.2-0.3,2.5-0.4,3.8c-0.1,1.3,0,2.6,0.4,4s1.4,2.8,2.9,4.2l-0.5,2.1c-0.3,1-0.5,2-0.7,3.2c-0.2,1.1-0.5,2.2-0.7,3.1l-0.5,2.1
	c-1.2,4.4-2.3,7.5-3.5,9.2s-2.3,2.9-3.4,3.6c-1.1,0.7-2,1.2-2.9,1.7c-0.9,0.4-1.6,1.7-2.1,3.8c-0.3,1.3-0.4,2.4-0.1,3.4
	c0.3,1,0.7,2,1.2,3c0.6,1,1.1,1.9,1.6,2.9s0.8,2.2,0.9,3.5c0.1,3.6,0.1,6.3-0.1,8.3c-0.2,1.9-0.6,4.2-1.3,6.9l-1.6,6.2
	c-0.2,0.8-0.6,2.5-1.2,4.9c-0.6,2.4-1.3,5-2.2,7.8c-0.9,2.7-2,5.2-3.3,7.4c-1.2,2.2-2.6,3.5-4.2,3.8c-0.6,0.1-1.5-0.3-2.6-1.2
	c-1.1-1-1.9-1.5-2.5-1.6c0,0.1-0.4,0.7-1,1.6c-0.6,1-0.9,1.5-0.8,1.7c0.2,0.3,0.9,0.9,1.9,1.6c1.1,0.7,1.7,1.2,1.7,1.5
	c0,1.9-0.6,3.4-1.7,4.3c-1.1,1-2.4,1.6-4,2c-1.6,0.3-3.2,0.4-4.8,0.1s-3.1-0.7-4.2-1.3l1,4.7c-4.7,0.1-8.9,0.1-12.6,0
	c-3.8-0.1-7.7-0.7-11.7-1.8c-4.3-1.1-7.3-2.9-8.9-5.3c-1.6-2.4-2.6-5.1-2.8-8.1c-0.3-3-0.1-6.2,0.5-9.6s1-6.6,1.1-9.5
	s-0.2-5.5-1.1-7.7C-79.3,306.2-81.4,304.7-84.6,303.9z"/>
</svg>
