<?xml version="1.0" encoding="utf-8"?>
<!-- Generator: Adobe Illustrator 19.0.0, SVG Export Plug-In . SVG Version: 6.00 Build 0)  -->
<svg version="1.1" id="Layer_1" xmlns="http://www.w3.org/2000/svg" xmlns:xlink="http://www.w3.org/1999/xlink" x="0px" y="0px"
	 viewBox="0 0 223 126" style="enable-background:new 0 0 223 126;" xml:space="preserve">
<style type="text/css">
	.st0{clip-path:url(#SVGID_2_);fill:url(#SVGID_3_);}
	.st1{clip-path:url(#SVGID_5_);fill:url(#SVGID_6_);}
	.st2{clip-path:url(#SVGID_8_);fill:url(#SVGID_9_);}
	.st3{clip-path:url(#SVGID_11_);fill:url(#SVGID_12_);}
	.st4{clip-path:url(#SVGID_14_);fill:url(#SVGID_15_);}
	.st5{clip-path:url(#SVGID_17_);fill:url(#SVGID_18_);}
	.st6{clip-path:url(#SVGID_20_);fill:url(#SVGID_21_);}
	.st7{clip-path:url(#SVGID_23_);fill:url(#SVGID_24_);}
	.st8{clip-path:url(#SVGID_26_);fill:url(#SVGID_27_);}
	.st9{clip-path:url(#SVGID_29_);fill:url(#SVGID_30_);}
	.st10{fill-rule:evenodd;clip-rule:evenodd;}
</style>
<g>
	<defs>
		<path id="SVGID_1_" d="M161.1,64.8h-9.5l4.8-14L161.1,64.8z M173.1,78l1.9-3.2l-15.8-35.2l-2.2-3.2l-4.3,3.2l-13.9,38.5l8.4-0.1
			l1.9-3l0.4-3.8H163l2.3,6.8L173.1,78z M201.9,39.6l-3.7-3.1l-3.7,3.1v25c0,1.5-0.3,2.7-0.8,3.8c-0.5,1.1-1.3,1.9-2.3,2.4
			c-1,0.6-2.2,0.9-3.5,0.9c-1.4,0-2.5-0.3-3.5-0.9c-1-0.6-1.7-1.4-2.3-2.4c-0.5-1.1-0.8-2.3-0.8-3.8v-25l-3.8-3.1l-3.7,3.1v24
			c0,6.4,2.3,11.4,8.4,13.8c1.7,0.7,3.6,1,5.6,1c2,0,3.9-0.3,5.6-1c3-1.2,5.3-3.5,7.7-5.5c0.7-1.6,0.7-5,0.7-7V39.6z M139.2,56.6
			l-10.5-3.1l-3.7,3.1v6.3h6.8v1.4c0,1.5-0.3,2.8-0.8,3.9c-0.5,1.1-1.3,2-2.3,2.6c-1,0.6-2.2,0.9-3.6,0.9c-1,0-1.9-0.2-2.7-0.5
			c-0.8-0.3-1.5-0.8-2.1-1.5c-0.4-0.4-0.7-0.8-0.9-1.4c-0.2-0.5-0.4-1.1-0.6-1.9c-0.1-0.7-0.2-1.6-0.3-2.7c-0.1-1.1-0.1-2.4-0.1-3.9
			v-1.1c0-1.7,0-3.2,0.1-4.5c0.1-1.3,0.2-2.3,0.3-3.2c0.1-0.5,0.2-1.1,0.5-1.6c0.2-0.5,0.6-1,1-1.5c0.6-0.7,1.3-1.2,2.1-1.5
			c0.8-0.4,1.7-0.5,2.8-0.5c0.5,0,1.1,0.1,1.6,0.1c0.5,0.1,1,0.2,1.4,0.4l1.1,0.6l1.1,0.8l1,1l5.5-4.7l1.9-3l-3.9,1.2l-1.6-1.2
			l-1.7-0.8c-0.9-0.4-1.8-0.7-2.9-0.8c-1-0.2-2.1-0.3-3.3-0.3c-2.2,0-0.1-2.9-1.8-2.2c-3.8,1.5-9,5.6-10.8,9.3
			c-0.4,0.8-0.7,1.6-0.9,2.2c-0.3,1-0.5,2.3-0.6,3.7c-0.1,1.4-0.2,3.1-0.2,5v1.6c0,2.2,0.1,4.1,0.2,5.6c0.1,1.5,0.2,2.6,0.3,3.4
			c0.1,0.7,0.3,1.4,0.6,2.2c0.3,0.7,0.7,1.5,1.1,2.2c0.5,0.7,1,1.4,1.6,2c1.3,1.4,2.9,2.4,4.7,3.1c1.8,0.7,3.6,1.1,5.7,1.1
			c2.1,0,4.1-0.4,5.9-1.1c1.8-0.8,6.6-4.4,7.9-5.9c0.9-0.9-1.6,0.7-1.1-0.4c0.5-1.1,0.9-2.3,1.1-3.7c0.2-1.4,0.3-3.1,0.3-5V56.6z"/>
	</defs>
	<clipPath id="SVGID_2_">
		<use xlink:href="#SVGID_1_"  style="overflow:visible;"/>
	</clipPath>
	
		<linearGradient id="SVGID_3_" gradientUnits="userSpaceOnUse" x1="-176.6883" y1="245.3681" x2="-176.3286" y2="245.3681" gradientTransform="matrix(-113.2521 153.381 -171.1076 -126.3408 22120.3672 58171.6836)">
		<stop  offset="0" style="stop-color:#003E6E"/>
		<stop  offset="0.67" style="stop-color:#818DAE"/>
		<stop  offset="1" style="stop-color:#FFFFFF"/>
	</linearGradient>
	<polygon class="st0" points="143.1,-7.1 90.9,63.5 169.8,121.8 222,51.2 	"/>
</g>
<g>
	<defs>
		<path id="SVGID_4_" d="M165.3,77.9l3.7-3.1l7.1-1.3l0.7,1.3l-3.7,3.2L165.3,77.9z M143.1,74.9l7.8-1.8l-0.1,1.8l-3.7,3.1l-8.4,0.1
			L143.1,74.9z"/>
	</defs>
	<clipPath id="SVGID_5_">
		<use xlink:href="#SVGID_4_"  style="overflow:visible;"/>
	</clipPath>
	
		<linearGradient id="SVGID_6_" gradientUnits="userSpaceOnUse" x1="-176.8875" y1="245.2845" x2="-176.2875" y2="245.2845" gradientTransform="matrix(0 11.4395 -65.7439 0 16283.7236 2098.8262)">
		<stop  offset="0" style="stop-color:#003E6E"/>
		<stop  offset="0.67" style="stop-color:#818DAE"/>
		<stop  offset="1" style="stop-color:#FFFFFF"/>
	</linearGradient>
	<rect x="138.8" y="73" class="st1" width="38" height="5.1"/>
</g>
<g>
	<defs>
		<path id="SVGID_7_" d="M125,62.9h6.8l3.7-3.1l1.7-1.8c-0.1-0.1-6.4-1.2-6.4-1.2l-2.1,3L125,62.9z"/>
	</defs>
	<clipPath id="SVGID_8_">
		<use xlink:href="#SVGID_7_"  style="overflow:visible;"/>
	</clipPath>
	
		<linearGradient id="SVGID_9_" gradientUnits="userSpaceOnUse" x1="-176.7844" y1="245.2952" x2="-176.4044" y2="245.2952" gradientTransform="matrix(-2.4051 14.0709 -23.1088 -3.9499 5374.3384 3516.6948)">
		<stop  offset="0" style="stop-color:#003E6E"/>
		<stop  offset="0.67" style="stop-color:#818DAE"/>
		<stop  offset="1" style="stop-color:#FFFFFF"/>
	</linearGradient>
	<polygon class="st2" points="125.4,54.8 124,62.7 136.9,64.9 138.2,57 	"/>
</g>
<g>
	<defs>
		<path id="SVGID_10_" d="M120.7,49.9c0.1-0.1,0.1-0.3,0.2-0.4c0.2-0.5,0.6-1,1-1.5c0.6-0.7,0.3-1.4,1.2-1.8
			c3.7-1.1,6.1,0.4,8.5,2.9l3.8-3l0.2-1.2c0,0-5.7-3.6-9-2.8c-3.3,0.8-5,4-5,4l-1.5,3.8L120.7,49.9z"/>
	</defs>
	<clipPath id="SVGID_11_">
		<use xlink:href="#SVGID_10_"  style="overflow:visible;"/>
	</clipPath>
	
		<linearGradient id="SVGID_12_" gradientUnits="userSpaceOnUse" x1="-176.929" y1="245.3962" x2="-176.1685" y2="245.3962" gradientTransform="matrix(-6.4037 20.0976 -24.3388 -7.7551 4968.7188 5500.6123)">
		<stop  offset="0" style="stop-color:#003E6E"/>
		<stop  offset="0.67" style="stop-color:#818DAE"/>
		<stop  offset="1" style="stop-color:#FFFFFF"/>
	</linearGradient>
	<polygon class="st3" points="121.5,36.8 117.6,49.1 134.1,54.4 138,42.1 	"/>
</g>
<g>
	<defs>
		<path id="SVGID_13_" d="M150,71.1l13,0l3.7-3.1c-6-1.8-8.7-2.6-15.1-2.7L150,71.1z"/>
	</defs>
	<clipPath id="SVGID_14_">
		<use xlink:href="#SVGID_13_"  style="overflow:visible;"/>
	</clipPath>
	
		<linearGradient id="SVGID_15_" gradientUnits="userSpaceOnUse" x1="-176.8757" y1="245.2799" x2="-176.2757" y2="245.2799" gradientTransform="matrix(0 13.0989 -28.9088 0 7249.1304 2384.8516)">
		<stop  offset="0" style="stop-color:#003E6E"/>
		<stop  offset="0.67" style="stop-color:#818DAE"/>
		<stop  offset="1" style="stop-color:#FFFFFF"/>
	</linearGradient>
	<rect x="150" y="65.3" class="st4" width="16.7" height="5.8"/>
</g>
<g>
	<defs>
		<path id="SVGID_16_" d="M164.8,61.7h-9.5l4.8-14L164.8,61.7z M176.8,74.9l-13.9-38.5H157l-13.9,38.5h7.8l2.3-6.8h13.6l2.3,6.8
			H176.8z M205.6,36.5h-7.4v25c0,1.5-0.3,2.7-0.8,3.8c-0.5,1.1-1.3,1.9-2.3,2.4c-1,0.6-2.2,0.9-3.5,0.9c-1.4,0-2.5-0.3-3.5-0.9
			c-1-0.6-1.7-1.4-2.3-2.4c-0.5-1.1-0.8-2.3-0.8-3.8v-25h-7.5v25.3c0,2,0.4,3.8,1,5.4c0.7,1.6,1.7,3.1,2.9,4.3
			c1.3,1.2,2.7,2.1,4.5,2.8c1.7,0.7,3.6,1,5.6,1c2,0,3.9-0.3,5.6-1c1.7-0.7,3.2-1.6,4.5-2.8c1.3-1.2,2.2-2.6,2.9-4.3
			c0.7-1.6,1-3.4,1-5.4V36.5z M142.9,53.5h-14.2v6.3h6.8v1.4c0,1.5-0.3,2.8-0.8,3.9c-0.5,1.1-1.3,2-2.3,2.6c-1,0.6-2.2,0.9-3.6,0.9
			c-1,0-1.9-0.2-2.7-0.5c-0.8-0.3-1.5-0.8-2.1-1.5c-0.4-0.4-0.7-0.8-0.9-1.4c-0.2-0.5-0.4-1.1-0.6-1.9c-0.1-0.7-0.2-1.6-0.3-2.7
			c-0.1-1.1-0.1-2.4-0.1-3.9v-1.1c0-1.7,0-3.2,0.1-4.5c0.1-1.3,0.2-2.3,0.3-3.2c0.1-0.5,0.2-1.1,0.5-1.6s0.6-1,1-1.5
			c0.6-0.7,1.3-1.2,2.1-1.5c0.8-0.4,1.7-0.5,2.8-0.5c0.5,0,1.1,0.1,1.6,0.1c0.5,0.1,1,0.2,1.4,0.4c0.4,0.2,0.8,0.4,1.1,0.6
			c0.3,0.2,0.7,0.5,1.1,0.8c0.4,0.3,0.9,0.8,1.4,1.3l5-5.1c-0.8-0.7-1.4-1.4-2-1.8c-0.6-0.5-1.1-0.9-1.6-1.2
			c-0.5-0.3-1.1-0.6-1.7-0.8c-0.9-0.4-1.8-0.6-2.9-0.8c-1-0.2-2.1-0.3-3.3-0.3c-2.2,0-4.1,0.3-5.9,1c-1.7,0.7-3.3,1.7-4.7,3.2
			c-0.7,0.7-1.3,1.5-1.8,2.4c-0.5,0.8-0.9,1.8-1.2,2.8c-0.3,1-0.5,2.3-0.6,3.7c-0.1,1.4-0.2,3.1-0.2,5v1.6c0,2.2,0.1,4.1,0.2,5.6
			c0.1,1.5,0.2,2.6,0.3,3.4c0.1,0.7,0.3,1.4,0.6,2.2c0.3,0.7,0.7,1.5,1.1,2.2c0.5,0.7,1,1.4,1.6,2c1.3,1.4,2.9,2.4,4.7,3.1
			c1.8,0.7,3.6,1.1,5.7,1.1c2.1,0,4.1-0.4,5.9-1.1c1.8-0.8,3.4-1.8,4.7-3.3c0.9-0.9,1.5-1.9,2.1-3c0.5-1.1,0.9-2.3,1.1-3.7
			c0.2-1.4,0.3-3.1,0.3-5V53.5z"/>
	</defs>
	<clipPath id="SVGID_17_">
		<use xlink:href="#SVGID_16_"  style="overflow:visible;"/>
	</clipPath>
	
		<linearGradient id="SVGID_18_" gradientUnits="userSpaceOnUse" x1="-176.9511" y1="245.5445" x2="-176.0712" y2="245.5445" gradientTransform="matrix(-15.51 102.5856 -111.464 -16.8524 24791.1973 22305.3867)">
		<stop  offset="0" style="stop-color:#003E6E"/>
		<stop  offset="0.67" style="stop-color:#818DAE"/>
		<stop  offset="1" style="stop-color:#FFFFFF"/>
	</linearGradient>
	<polygon class="st5" points="116.7,22.7 108.9,74.4 203.6,88.7 211.4,37 	"/>
</g>
<g>
	<defs>
		<path id="SVGID_19_" d="M55.1,46.8c-1.9,0-1.3,0.8-2.4,1.6c-1,0.8-4.5,1.6-4.5,3.8c0,1.9,0,1.8,0,3.7c0,1.9,0,3.8,0,5.7
			c0,2.2,0.6,3.6,1.6,4.4c1,0.8,2.5,1,4.4,1h13.9h13.9c1.9,0,3.4-0.2,4.4-1c1-0.8,0.8-2.2,0.8-4.4c0-1.9,0-3.8,0-5.7
			c0-1.9,0-1.7,0-3.6c0-4.5-0.6-5.6-4.6-5.6l-14.6,0H55.1z M54.6,77.9c-9.2,0-17-6.1-17-15.5v-6.2v-5.4c0-4.7,2.3-8.5,4.8-10.9
			l5-4.8c0.1-0.1,0.7,0.9,0.8,0.8c1.9-1.2,2,0.3,5.2,0.3h14.7h14.7c4.6,0,8.4,1.2,11,3.6c2.6,2.4,4.1,6,4.1,10.7V56v7.1
			c0,3-2.5,2.9-2.2,3.6c0.2,0.4,4.9,0.5,3.9,1.5L93.2,75c-3.2,3.3-7.3,3-10.4,3H68.1H54.6z"/>
	</defs>
	<clipPath id="SVGID_20_">
		<use xlink:href="#SVGID_19_"  style="overflow:visible;"/>
	</clipPath>
	
		<linearGradient id="SVGID_21_" gradientUnits="userSpaceOnUse" x1="-176.8325" y1="245.4487" x2="-176.1927" y2="245.4487" gradientTransform="matrix(-106.2877 10.7073 -5.7536 -57.1139 -17300.0059 15967.042)">
		<stop  offset="0" style="stop-color:#717272"/>
		<stop  offset="1" style="stop-color:#FFFFFF"/>
	</linearGradient>
	<polygon class="st6" points="100.1,28.4 33.3,35.2 38.3,84.5 105.1,77.8 	"/>
</g>
<g>
	<defs>
		<path id="SVGID_22_" d="M59.2,41.4c-3.7,0-6,1-6,5.5c-0.1,3.8-0.1,6.3,0,10c0,4.5,2.3,5.5,6,5.5h27.3c3.7,0,6.1-0.9,6.1-5.4
			c0.1-3.8,0.1-6.3,0-10c0-4.5-2.2-5.6-6-5.6H59.2z M58.4,72.7c-9.2,0-15.5-4.8-15.5-14.3V45.8c0-9.5,6.2-14.6,15.4-14.6h29.4
			c9.2,0,15.2,5.2,15.2,14.6v12.6c0,9.5-5.9,14.3-15.1,14.3H58.4z"/>
	</defs>
	<clipPath id="SVGID_23_">
		<use xlink:href="#SVGID_22_"  style="overflow:visible;"/>
	</clipPath>
	
		<linearGradient id="SVGID_24_" gradientUnits="userSpaceOnUse" x1="-176.9413" y1="245.4295" x2="-176.0417" y2="245.4295" gradientTransform="matrix(89.771 -54.4966 46.7519 77.0134 4455.9932 -28475.8281)">
		<stop  offset="0" style="stop-color:#595959"/>
		<stop  offset="1" style="stop-color:#FFFFFF"/>
	</linearGradient>
	<polygon class="st7" points="59.1,99.3 121.4,61.5 86.8,4.5 24.6,42.3 	"/>
</g>
<g>
	<defs>
		<path id="SVGID_25_" d="M33.8,62.4c-9.2,0-16.7-6.7-16.7-16.1v-6.2v-5.4c0-4.7,1.9-8.3,4.5-10.7l5-4.8c0.1-0.1,0.7,0.9,0.8,0.8
			c1.9-1.2,2,0.3,5.2,0.3h14.7H62c4.6,0,8.4,1.2,11,3.6c2.6,2.4,4.1,6,4.1,10.7v5.4v7.1c0,3-2.5,2.9-2.2,3.6c0.2,0.4,3.9,1.4,3,2.4
			L72.3,59c-3.9,4.1-7.2,3.4-10.3,3.4l-4,0c-3.7,0-4.9-2.4-4.9-5.5c0-2.1,0-3.8,0-5.6l0-0.1h8.1c1.9,0,3.4-0.2,4.4-1
			c1-0.8,0.8-2.2,0.8-4.4c0-1.9,0-3.8,0-5.7c0-1.9,0-2.1,0-4c0-4.5-0.5-5-4.5-5H47.4H33.9c-1.9,0-1.4,0.4-2.5,1.2
			c-1,0.8-4,1.4-4,3.7c0,1.9,0,2.2,0,4.1c0,1.9,0,3.8,0,5.7c0,2.2,0.6,3.6,1.6,4.4c1,0.8,2.6,1,4.4,1h4.3v5v6.2v0H33.8z"/>
	</defs>
	<clipPath id="SVGID_26_">
		<use xlink:href="#SVGID_25_"  style="overflow:visible;"/>
	</clipPath>
	
		<linearGradient id="SVGID_27_" gradientUnits="userSpaceOnUse" x1="-176.8015" y1="245.4749" x2="-176.2214" y2="245.4749" gradientTransform="matrix(-86.5868 106.6174 -108.4992 -88.115 11377.6143 40515.5859)">
		<stop  offset="0" style="stop-color:#003E6E"/>
		<stop  offset="0.67" style="stop-color:#818DAE"/>
		<stop  offset="1" style="stop-color:#FFFFFF"/>
	</linearGradient>
	<polygon class="st8" points="41.7,-11.4 -4.6,45.5 54.3,93.3 100.6,36.4 	"/>
</g>
<g>
	<defs>
		<path id="SVGID_28_" d="M37.6,57c-9.2,0-15.1-5.1-15.1-14.6V29.9c0-9.5,5.9-14.3,15.1-14.3H67c9.2,0,15.1,4.8,15.1,14.3v12.6
			c0,9.5-6.2,14.6-15.4,14.6l-13.4-0.1v-0.1c-0.1-3.4-0.1-5.7,0-8.9c0-0.6,0.4-1.3,1.9-1.3H57l0,0h9.1c3.7,0,5.6-0.9,5.6-5.4
			c0.1-3.8,0.1-6.2,0-9.9c0-4.5-2.4-5.6-6.1-5.6l-26.9,0.1c-3.7,0-6,1-6,5.5c-0.1,3.8-0.1,5.9,0,9.6c0,4.4,1.9,5.7,5.5,5.7
			c-0.4,1.3-0.6,2.6-0.6,4.1v5.4L37.6,57L37.6,57z"/>
	</defs>
	<clipPath id="SVGID_29_">
		<use xlink:href="#SVGID_28_"  style="overflow:visible;"/>
	</clipPath>
	
		<linearGradient id="SVGID_30_" gradientUnits="userSpaceOnUse" x1="-176.8975" y1="245.5541" x2="-176.0778" y2="245.5541" gradientTransform="matrix(60.0023 -69.6284 69.769 60.1235 -6483.1318 -27023.9531)">
		<stop  offset="0" style="stop-color:#004A82"/>
		<stop  offset="1" style="stop-color:#FFFFFF"/>
	</linearGradient>
	<polygon class="st9" points="56.7,86.5 102.6,33.2 47.9,-13.9 1.9,39.3 	"/>
</g>
<path d="M205.7,101h-1.4l-1.7,2.8l-1.6-2.8h-1.7l2.4,4.1v3.6h1.5v-3.6L205.7,101z M199.1,101.9V101h-5.2v0.9h1.9v6.8h1.5v-6.8H199.1
	z M193.1,108.7V101h-1.5v7.7H193.1z M190.5,106.5c0-0.3-0.1-0.6-0.2-0.8c-0.1-0.2-0.2-0.4-0.4-0.6c-0.2-0.2-0.4-0.3-0.6-0.5
	c-0.2-0.1-0.5-0.3-0.7-0.4c-0.2-0.1-0.5-0.2-0.7-0.4c-0.2-0.1-0.4-0.2-0.6-0.4c-0.2-0.1-0.3-0.3-0.4-0.4c-0.1-0.1-0.2-0.3-0.2-0.5
	c0-0.1,0-0.3,0.1-0.4c0.1-0.1,0.1-0.2,0.2-0.2c0.1-0.1,0.2-0.1,0.3-0.1c0.1,0,0.2,0,0.4,0c0.2,0,0.5,0,0.7,0.1
	c0.3,0,0.5,0.1,0.7,0.2c0.2,0.1,0.5,0.2,0.7,0.3v-1.2c-0.3-0.1-0.6-0.1-1-0.2c-0.3,0-0.6-0.1-1-0.1c-0.3,0-0.5,0-0.8,0.1
	c-0.3,0-0.5,0.1-0.7,0.2c-0.2,0.1-0.4,0.2-0.6,0.4c-0.2,0.2-0.3,0.3-0.4,0.6c-0.1,0.2-0.1,0.5-0.1,0.8c0,0.3,0.1,0.6,0.2,0.8
	c0.1,0.2,0.2,0.4,0.4,0.6c0.2,0.2,0.4,0.3,0.6,0.5c0.2,0.1,0.4,0.3,0.7,0.4c0.2,0.1,0.5,0.3,0.7,0.4c0.2,0.1,0.4,0.3,0.6,0.4
	c0.2,0.1,0.3,0.3,0.4,0.5c0.1,0.2,0.2,0.4,0.2,0.6c0,0.2,0,0.3-0.1,0.4c-0.1,0.1-0.2,0.2-0.3,0.3c-0.1,0.1-0.2,0.1-0.4,0.2
	c-0.1,0-0.3,0.1-0.4,0.1c-0.3,0-0.6,0-0.8-0.1c-0.3-0.1-0.5-0.2-0.8-0.3c-0.3-0.1-0.5-0.3-0.7-0.4v1.4c0.3,0.1,0.7,0.2,1,0.2
	c0.4,0.1,0.7,0.1,1.1,0.1c0.3,0,0.6,0,0.9-0.1c0.3,0,0.6-0.1,0.8-0.2c0.2-0.1,0.5-0.2,0.6-0.4c0.2-0.2,0.3-0.4,0.4-0.6
	C190.4,107.2,190.5,106.9,190.5,106.5z M182.8,103.1c0,0.3,0,0.5-0.1,0.7c-0.1,0.2-0.2,0.3-0.4,0.4c-0.2,0.1-0.4,0.2-0.6,0.2
	c-0.2,0-0.5,0.1-0.7,0.1h-0.3v-2.7h0.3c0.2,0,0.5,0,0.7,0c0.2,0,0.4,0.1,0.6,0.2c0.2,0.1,0.3,0.2,0.4,0.4
	C182.8,102.6,182.8,102.8,182.8,103.1z M184.6,108.7l-0.4-2c0-0.2-0.1-0.5-0.2-0.7c-0.1-0.2-0.1-0.4-0.2-0.5
	c-0.1-0.2-0.2-0.3-0.4-0.4c-0.2-0.1-0.4-0.2-0.7-0.2v0c0.3-0.1,0.6-0.2,0.8-0.3c0.2-0.1,0.4-0.3,0.6-0.6c0.1-0.2,0.2-0.5,0.2-0.9
	c0-0.4-0.1-0.7-0.2-0.9c-0.1-0.2-0.3-0.4-0.5-0.6c-0.2-0.1-0.5-0.3-0.8-0.3c-0.3-0.1-0.6-0.1-0.9-0.1c-0.3,0-0.6,0-0.9,0h-1.8v7.7
	h1.5v-3.4h0.5c0.3,0,0.5,0,0.7,0.1c0.2,0.1,0.3,0.2,0.4,0.3c0.1,0.1,0.2,0.3,0.3,0.4c0.1,0.2,0.1,0.3,0.2,0.5c0,0.2,0.1,0.4,0.1,0.6
	l0.3,1.4H184.6z M178.1,108.7v-0.9h-3.2v-2.6h2.9v-0.9h-2.9v-2.4h3.1V101h-4.5v7.7H178.1z M172.7,101h-1.3l-2,5.9h0l-2-5.9h-1.5
	l2.6,7.7h1.5L172.7,101z M165.1,108.7V101h-1.5v7.7H165.1z M162,108.7V101h-1.2v5.7h0l-3-5.7h-1.6v7.7h1.2v-6h0l3.2,6H162z
	 M154.7,106.1V101h-1.5v5.1c0,0.3,0,0.5,0,0.7c0,0.2-0.1,0.4-0.2,0.6c-0.1,0.2-0.2,0.3-0.4,0.5c-0.2,0.1-0.4,0.2-0.8,0.2
	c-0.3,0-0.6-0.1-0.7-0.2c-0.2-0.1-0.3-0.3-0.4-0.5c-0.1-0.2-0.1-0.4-0.2-0.6c0-0.2,0-0.5,0-0.7V101h-1.5v5.1c0,0.7,0.1,1.2,0.3,1.6
	c0.2,0.4,0.5,0.7,0.9,0.9c0.4,0.2,0.9,0.3,1.6,0.3c0.7,0,1.2-0.1,1.6-0.3c0.4-0.2,0.7-0.5,0.9-0.9
	C154.7,107.2,154.7,106.7,154.7,106.1z M144.2,108.7V101H143v5.7h0l-3-5.7h-1.6v7.7h1.2v-6h0l3.2,6H144.2z M135,105.7h-2.1l1.1-3.4
	h0L135,105.7z M137.5,108.7l-2.7-7.7h-1.5l-2.7,7.7h1.3l0.7-2.2h2.6l0.7,2.2H137.5z M130.6,103.1c0-0.4-0.1-0.7-0.2-1
	c-0.1-0.3-0.3-0.5-0.6-0.7c-0.3-0.2-0.5-0.3-0.9-0.4c-0.3-0.1-0.7-0.1-1-0.1c-0.5,0-0.9,0.1-1.2,0.2c-0.4,0.1-0.7,0.3-0.9,0.6
	c-0.2,0.2-0.5,0.5-0.6,0.8c-0.2,0.3-0.3,0.7-0.3,1c-0.1,0.4-0.1,0.8-0.1,1.2c0,0.4,0,0.9,0.1,1.3c0.1,0.4,0.2,0.8,0.4,1.1
	c0.2,0.3,0.4,0.6,0.6,0.9c0.3,0.3,0.6,0.5,1,0.6c0.4,0.1,0.8,0.2,1.3,0.2c0.4,0,0.8,0,1.1-0.1c0.4-0.1,0.7-0.2,1.1-0.3v-1.2
	c-0.2,0.1-0.4,0.3-0.6,0.4c-0.2,0.1-0.4,0.2-0.6,0.3c-0.2,0.1-0.5,0.1-0.7,0.1c-0.3,0-0.6-0.1-0.8-0.2c-0.2-0.1-0.4-0.2-0.6-0.4
	c-0.2-0.2-0.3-0.4-0.4-0.6c-0.1-0.2-0.2-0.5-0.2-0.7c-0.1-0.3-0.1-0.5-0.1-0.8c0-0.3,0-0.5,0-0.7c0-0.2,0-0.3,0-0.5
	c0-0.2,0-0.4,0.1-0.6c0-0.2,0.1-0.4,0.2-0.6c0.1-0.2,0.2-0.4,0.3-0.5c0.1-0.2,0.2-0.3,0.4-0.4c0.2-0.1,0.4-0.1,0.6-0.1
	c0.2,0,0.4,0,0.5,0.1c0.1,0.1,0.3,0.2,0.4,0.3c0.1,0.1,0.2,0.3,0.2,0.5c0,0.2,0.1,0.4,0.1,0.5H130.6z M123.3,108.7V101h-1.5v7.7
	H123.3z M118.9,103.1c0,0.3,0,0.5-0.1,0.7c-0.1,0.2-0.2,0.3-0.4,0.4c-0.2,0.1-0.4,0.2-0.6,0.2c-0.2,0-0.5,0.1-0.7,0.1h-0.3v-2.7h0.3
	c0.2,0,0.5,0,0.7,0c0.2,0,0.4,0.1,0.6,0.2c0.2,0.1,0.3,0.2,0.4,0.4C118.9,102.6,118.9,102.8,118.9,103.1z M120.7,108.7l-0.4-2
	c0-0.2-0.1-0.5-0.2-0.7c-0.1-0.2-0.1-0.4-0.2-0.5c-0.1-0.2-0.2-0.3-0.4-0.4c-0.2-0.1-0.4-0.2-0.7-0.2v0c0.3-0.1,0.6-0.2,0.8-0.3
	c0.2-0.1,0.4-0.3,0.6-0.6c0.1-0.2,0.2-0.5,0.2-0.9c0-0.4-0.1-0.7-0.2-0.9c-0.1-0.2-0.3-0.4-0.5-0.6c-0.2-0.1-0.5-0.3-0.8-0.3
	c-0.3-0.1-0.6-0.1-0.9-0.1c-0.3,0-0.6,0-0.9,0h-1.8v7.7h1.5v-3.4h0.5c0.3,0,0.5,0,0.7,0.1c0.2,0.1,0.3,0.2,0.4,0.3
	c0.1,0.1,0.2,0.3,0.3,0.4c0.1,0.2,0.1,0.3,0.2,0.5c0,0.2,0.1,0.4,0.1,0.6l0.3,1.4H120.7z M114.2,108.7v-0.9H111v-2.6h2.9v-0.9H111
	v-2.4h3.1V101h-4.5v7.7H114.2z M107.9,108.7V101H106l-2.2,6.3h0l-2.2-6.3h-1.8v7.7h1.1v-6.4h0l2.3,6.4h1.1l2.3-6.6h0v6.6H107.9z
	 M96.4,105.7h-2.1l1.1-3.4h0L96.4,105.7z M98.9,108.7l-2.7-7.7h-1.5l-2.7,7.7h1.3l0.7-2.2h2.6l0.7,2.2H98.9z M87.8,108.7V101h-1.2
	v5.7h0l-3-5.7H82v7.7h1.2v-6h0l3.2,6H87.8z M78.7,105.7h-2.1l1.1-3.4h0L78.7,105.7z M81.2,108.7l-2.7-7.7h-1.5l-2.7,7.7h1.3l0.7-2.2
	h2.6l0.7,2.2H81.2z M73.4,108.7V101H72v7.7H73.4z M70.5,108.1v-3.9h-2.9v0.9h1.4v2.7c-0.1,0.1-0.2,0.1-0.3,0.2
	c-0.1,0-0.2,0.1-0.3,0.1c-0.1,0-0.2,0-0.3,0c-0.3,0-0.6-0.1-0.8-0.2c-0.2-0.1-0.4-0.2-0.6-0.4c-0.1-0.2-0.3-0.4-0.4-0.6
	c-0.1-0.2-0.2-0.5-0.2-0.7c0-0.3-0.1-0.5-0.1-0.8c0-0.3,0-0.5,0-0.7c0-0.2,0-0.4,0-0.6c0-0.2,0-0.4,0.1-0.7c0-0.2,0.1-0.4,0.1-0.7
	c0.1-0.2,0.2-0.4,0.3-0.6c0.1-0.2,0.3-0.3,0.4-0.4c0.2-0.1,0.4-0.1,0.7-0.1c0.2,0,0.4,0,0.6,0.1c0.1,0.1,0.3,0.2,0.4,0.3
	c0.1,0.1,0.2,0.3,0.2,0.4c0,0.2,0.1,0.3,0.1,0.5h1.6c0-0.3,0-0.6-0.1-0.8c-0.1-0.2-0.2-0.4-0.4-0.6c-0.2-0.2-0.4-0.3-0.6-0.4
	c-0.2-0.1-0.5-0.2-0.8-0.2c-0.3,0-0.6-0.1-0.8-0.1c-0.5,0-0.9,0.1-1.3,0.2c-0.4,0.1-0.7,0.3-0.9,0.6c-0.2,0.2-0.4,0.5-0.6,0.8
	c-0.1,0.3-0.2,0.7-0.3,1.1c-0.1,0.4-0.1,0.8-0.1,1.2c0,0.4,0,0.9,0.1,1.3c0.1,0.4,0.2,0.8,0.4,1.1c0.2,0.3,0.4,0.6,0.7,0.9
	c0.3,0.2,0.6,0.4,1,0.6c0.4,0.1,0.8,0.2,1.3,0.2c0.4,0,0.9-0.1,1.3-0.2C69.7,108.5,70.1,108.3,70.5,108.1z M62,103.1
	c0,0.3,0,0.5-0.1,0.7c-0.1,0.2-0.2,0.3-0.4,0.4c-0.2,0.1-0.4,0.2-0.6,0.2c-0.2,0-0.5,0.1-0.7,0.1h-0.3v-2.7h0.3c0.2,0,0.5,0,0.7,0
	c0.2,0,0.4,0.1,0.6,0.2c0.2,0.1,0.3,0.2,0.4,0.4C61.9,102.6,62,102.8,62,103.1z M63.8,108.7l-0.4-2c0-0.2-0.1-0.5-0.2-0.7
	c-0.1-0.2-0.1-0.4-0.2-0.5c-0.1-0.2-0.2-0.3-0.4-0.4c-0.2-0.1-0.4-0.2-0.7-0.2v0c0.3-0.1,0.6-0.2,0.8-0.3c0.2-0.1,0.4-0.3,0.6-0.6
	c0.1-0.2,0.2-0.5,0.2-0.9c0-0.4-0.1-0.7-0.2-0.9c-0.1-0.2-0.3-0.4-0.5-0.6c-0.2-0.1-0.5-0.3-0.8-0.3c-0.3-0.1-0.6-0.1-0.9-0.1
	c-0.3,0-0.6,0-0.9,0h-1.8v7.7h1.5v-3.4h0.5c0.3,0,0.5,0,0.7,0.1c0.2,0.1,0.3,0.2,0.4,0.3c0.1,0.1,0.2,0.3,0.3,0.4
	c0.1,0.2,0.1,0.3,0.2,0.5c0,0.2,0.1,0.4,0.1,0.6l0.3,1.4H63.8z M55.5,104.8c0,0.2,0,0.4,0,0.6c0,0.2,0,0.5-0.1,0.7
	c0,0.2-0.1,0.5-0.2,0.7c-0.1,0.2-0.2,0.4-0.3,0.6c-0.1,0.2-0.3,0.3-0.5,0.4c-0.2,0.1-0.4,0.2-0.7,0.2c-0.3,0-0.5-0.1-0.7-0.2
	c-0.2-0.1-0.3-0.2-0.5-0.4c-0.1-0.2-0.2-0.4-0.3-0.6c-0.1-0.2-0.1-0.5-0.2-0.7c0-0.2-0.1-0.5-0.1-0.7c0-0.2,0-0.4,0-0.6
	c0-0.2,0-0.4,0-0.6c0-0.2,0-0.5,0.1-0.7c0-0.2,0.1-0.5,0.2-0.7c0.1-0.2,0.2-0.4,0.3-0.6c0.1-0.2,0.3-0.3,0.5-0.4
	c0.2-0.1,0.4-0.2,0.7-0.2c0.3,0,0.5,0.1,0.7,0.2c0.2,0.1,0.3,0.2,0.5,0.4c0.1,0.2,0.2,0.4,0.3,0.6s0.1,0.5,0.2,0.7
	c0,0.2,0.1,0.5,0.1,0.7C55.5,104.4,55.5,104.6,55.5,104.8z M57.1,104.8c0-0.4,0-0.8-0.1-1.2c-0.1-0.4-0.2-0.8-0.3-1.1
	c-0.2-0.3-0.4-0.6-0.6-0.9c-0.3-0.2-0.6-0.4-0.9-0.6c-0.4-0.1-0.8-0.2-1.3-0.2c-0.5,0-0.9,0.1-1.3,0.2c-0.4,0.1-0.7,0.3-0.9,0.6
	c-0.3,0.2-0.5,0.5-0.6,0.9c-0.2,0.3-0.3,0.7-0.3,1.1c-0.1,0.4-0.1,0.8-0.1,1.2c0,0.4,0,0.8,0.1,1.2c0.1,0.4,0.2,0.8,0.3,1.1
	c0.2,0.3,0.4,0.6,0.6,0.9c0.3,0.2,0.6,0.4,0.9,0.6c0.4,0.1,0.8,0.2,1.3,0.2c0.5,0,0.9-0.1,1.3-0.2c0.4-0.1,0.7-0.3,0.9-0.6
	s0.5-0.5,0.6-0.9c0.2-0.3,0.3-0.7,0.3-1.1C57,105.7,57.1,105.3,57.1,104.8z M49.7,108.7v-0.9h-3.2v-2.6h2.9v-0.9h-2.9v-2.4h3.1V101
	H45v7.7H49.7z M43.6,108.1v-3.9h-2.9v0.9h1.4v2.7c-0.1,0.1-0.2,0.1-0.3,0.2c-0.1,0-0.2,0.1-0.3,0.1c-0.1,0-0.2,0-0.3,0
	c-0.3,0-0.6-0.1-0.8-0.2c-0.2-0.1-0.4-0.2-0.6-0.4c-0.1-0.2-0.3-0.4-0.4-0.6c-0.1-0.2-0.2-0.5-0.2-0.7c0-0.3-0.1-0.5-0.1-0.8
	c0-0.3,0-0.5,0-0.7c0-0.2,0-0.4,0-0.6c0-0.2,0-0.4,0.1-0.7c0-0.2,0.1-0.4,0.1-0.7c0.1-0.2,0.2-0.4,0.3-0.6c0.1-0.2,0.3-0.3,0.4-0.4
	c0.2-0.1,0.4-0.1,0.7-0.1c0.2,0,0.4,0,0.6,0.1c0.1,0.1,0.3,0.2,0.4,0.3c0.1,0.1,0.2,0.3,0.2,0.4c0,0.2,0.1,0.3,0.1,0.5h1.6
	c0-0.3,0-0.6-0.1-0.8c-0.1-0.2-0.2-0.4-0.4-0.6c-0.2-0.2-0.4-0.3-0.6-0.4c-0.2-0.1-0.5-0.2-0.8-0.2c-0.3,0-0.6-0.1-0.8-0.1
	c-0.5,0-0.9,0.1-1.3,0.2c-0.4,0.1-0.7,0.3-0.9,0.6c-0.2,0.2-0.4,0.5-0.6,0.8c-0.1,0.3-0.2,0.7-0.3,1.1c-0.1,0.4-0.1,0.8-0.1,1.2
	c0,0.4,0,0.9,0.1,1.3c0.1,0.4,0.2,0.8,0.4,1.1c0.2,0.3,0.4,0.6,0.7,0.9c0.3,0.2,0.6,0.4,1,0.6c0.4,0.1,0.8,0.2,1.3,0.2
	c0.4,0,0.9-0.1,1.3-0.2C42.8,108.5,43.2,108.3,43.6,108.1z"/>
<path class="st10" d="M39.3,96.1c-0.6,0-1-0.1-1.6-0.4v-1.2c0.4,0.3,0.9,0.6,1.3,0.7c1.3,0.4,1.9-0.6,1.9-1.8v-5.1h1.4v4.5
	C42.3,95,41.4,96.1,39.3,96.1"/>
<path class="st10" d="M38.2,92c0-0.7,0.1-1.2,0.3-1.6c0.2-0.4,0.7-0.6,1.2-0.6c0.6,0,1.2,0.4,1.4,0.9c0,0.1,0.1,3,0,1.5
	c0-0.5-0.3-1.4-0.8-1.6c-0.3-0.1-0.7,0-0.8,0.4c-0.1,0.3-0.1,0.7-0.1,1H38.2z"/>
<path class="st10" d="M123.6,91.3c0,0,0-0.5,0-0.5c0.1-1.2-0.2-2.2-1.5-2.5c-0.3-0.1-0.6-0.1-1-0.1c-0.8,0-1.5,0.2-2,0.6
	c-0.9,0.9-0.8,2.4-0.8,3.6c0,1.2-0.1,2,0.7,2.9c0.6,0.6,1.4,0.8,2.2,0.8c0.7,0,1.4-0.2,2.1-0.5v-1.2c-0.5,0.5-1.1,0.8-1.8,0.8
	c-1.5,0-1.8-0.8-1.9-2.1c0-0.5,0-2,0-2.7c0.1-0.9,0.4-1.5,1.3-1.5c1.1,0,1.2,1.1,1.2,1.9c0,0.1,0,0.5,0,0.5H123.6z"/>
<path class="st10" d="M58.9,94.2c-0.4,1.2-1.4,1.6-2.1,0.7c-0.8-1-0.8-3.9-0.3-5c0.6-1.4,2-1.1,2.4,0.3c0.1,0.2,0.1,0.5,0.2,0.7
	C59.2,91.8,59.2,93.2,58.9,94.2 M60.5,90.9c-0.4-2.4,1.8-2.7,1.8-0.5V96h1.4c0-0.1,0-5.5,0-5.6c0-2.3-2.5-2.8-3.9-1.4
	c0,0-0.1,0.1-0.1,0.1c0,0-0.1-0.1-0.1-0.1c-1.2-1.2-3.4-1.1-4.3,0.4c-1,1.5-0.9,4.9,0.6,6c1.4,1.1,3.6,0.8,4.3-1
	C60.7,93.4,60.7,92,60.5,90.9z"/>
<rect x="75.5" y="92.7" width="2.1" height="0.9"/>
<path class="st10" d="M110.6,91.5L110.6,91.5c1.2-0.4,1.1-2.6,0.2-3.2h-1.3c0,0,0,0,0,0.1c0.5,0.2,0.8,0.8,0.8,1.4
	c0,0.5-0.2,1.1-0.6,1.2c-0.2,0.1-0.4,0.1-0.8,0.1v0.8c0.3,0,0.4,0,0.6,0c0.5,0,1,0.8,1,1.5c0,1.2-0.7,2.2-2.2,1.8
	c-0.4-0.1-0.8-0.3-1.2-0.6v1.2c0.5,0.2,0.9,0.3,1.4,0.3c2.3,0,3.2-0.8,3.1-2.7C111.8,92.6,111.6,91.7,110.6,91.5"/>
<path class="st10" d="M141.3,95.4c-1.1,0-1.2-1.4-1.2-2.2c0-1.5,0.5-2.2,1.2-2.2c0.7,0,1.2,0.9,1.2,2.2
	C142.5,94.6,141.9,95.5,141.3,95.4 M140.8,90.4c-0.3,0.1-0.5,0.4-0.7,0.7h0c0-0.4,0-0.8,0-1.2c0-0.9,0.4-1,1.1-1
	c0.7,0,1.3,0.3,1.9,0.6l0-1c-0.7-0.3-2.3-0.4-3.1-0.2c-1,0.2-1.3,1-1.4,2.3l0,3.1c0,1.5,1.1,2.4,2.4,2.4c1.9,0,2.7-1,2.8-3
	c0-0.7-0.1-1.5-0.5-2C142.8,90.3,141.7,90,140.8,90.4z"/>
<path class="st10" d="M144.6,90.9v5h1.4v-5c0-0.3,0-0.5,0-0.7c0-0.2,0.1-0.4,0.2-0.6c0.1-0.2,0.2-0.3,0.4-0.5
	c0.2-0.1,0.4-0.2,0.7-0.2c0.3,0,0.5,0.1,0.7,0.2c0.2,0.1,0.3,0.3,0.4,0.5c0.1,0.2,0.1,0.4,0.2,0.6c0,0.2,0,0.5,0,0.7v5h1.4v-5
	c0-0.6-0.1-1.2-0.3-1.6c-0.2-0.4-0.5-0.7-0.9-0.9c-0.4-0.2-0.9-0.3-1.5-0.3c-0.6,0-1.1,0.1-1.5,0.3c-0.4,0.2-0.7,0.5-0.9,0.9
	C144.7,89.7,144.6,90.3,144.6,90.9"/>
<path class="st10" d="M154.4,91.8L154.4,91.8c0.7-0.2,1.1-1.1,1-1.9c-0.1-0.8-0.6-1.3-1.3-1.5c-0.3-0.1-0.7-0.2-1.2-0.2
	c-1,0-2.2,0.3-2.3,1.5h1.4c0.1-0.5,0.5-0.7,0.9-0.8c0.8,0,1.2,0.5,1.1,1.4c-0.1,0.9-0.5,1.1-1.3,1.1v0.8c0.7-0.1,1.4,0.3,1.4,1.4
	c0,1-0.3,1.7-1.2,1.7c-0.2,0-0.4,0-0.7-0.1c-0.6-0.1-1.2-0.6-1.6-0.9l0,1.3c0.7,0.3,1.1,0.5,1.9,0.5c2.3,0,3.2-0.7,3.1-2.6
	C155.7,92.7,155.2,92,154.4,91.8"/>
<path class="st10" d="M162.3,96h1.4c0-0.9-0.1-1.9,0-2.8c0-0.4,0.2-0.9,0.5-1.1c0.6-0.4,1.5-0.2,1.8,0.6c0.4,1,0.1,2.7-0.2,3.3h1.4
	c0.2-0.5,0.3-1.3,0.4-1.9c0.1-1-0.2-2.1-1.2-2.6c-0.8-0.4-2-0.4-2.8,0.2c-0.2-2.9,1.9-3.5,3.8-1.8v-1.2c-0.7-0.3-1.4-0.5-2.1-0.5
	c-1.2,0-2.3,0.6-2.9,1.7c-0.2,0.4-0.2,1.1-0.2,1.7C162.3,93.1,162.3,94.5,162.3,96"/>
<path class="st10" d="M168.5,93.3v-5h1.4v5c0,0.3,0,0.5,0,0.7c0.1,1.5,1.8,1.7,2.2,0.5c0.4-1,0.1-2.7-0.2-3.3h1.4
	c0.2,0.5,0.3,1.3,0.4,1.9c0.1,1-0.2,2.1-1.2,2.6c-0.8,0.4-2.1,0.4-2.9,0c-0.4-0.2-0.7-0.5-0.9-0.9C168.6,94.5,168.5,94,168.5,93.3"
	/>
<path class="st10" d="M174.5,90.9v5h1.4v-5c0-0.3,0-0.5,0-0.7c0-0.2,0.1-0.4,0.2-0.6c0.1-0.2,0.2-0.3,0.4-0.5
	c0.2-0.1,0.4-0.2,0.7-0.2c0.3,0,0.5,0.1,0.7,0.2c0.2,0.1,0.3,0.3,0.4,0.5c0.1,0.2,0.1,0.4,0.2,0.6c0,0.2,0,0.5,0,0.7v5h1.4v-5
	c0-0.6-0.1-1.2-0.3-1.6c-0.2-0.4-0.5-0.7-0.9-0.9c-0.4-0.2-0.9-0.3-1.5-0.3c-0.6,0-1.1,0.1-1.5,0.3c-0.4,0.2-0.7,0.5-0.9,0.9
	C174.6,89.7,174.5,90.3,174.5,90.9"/>
<path class="st10" d="M182.1,93c0-0.3,0-1.3,0-1.6c0.1-1.1,0.7-1.9,1.6-1.9c0.9,0,1.4,0.7,1.6,1.8c0.1,0.4,0.1,1.4,0,1.8
	c-0.1,1.1-0.2,2.4-1.6,2.4C182.3,95.5,182.2,94.2,182.1,93 M183.7,88.8c-1.8,0-2.8,1.2-3,2.8c0,0.3,0,1.1,0,1.4
	c0.1,2,0.9,3.1,3.1,3.1c2.1,0,2.8-1.1,3-3c0-0.4,0-1.4-0.1-1.8C186.4,89.9,185.4,88.8,183.7,88.8z"/>
<rect x="183" y="88.3" class="st10" width="1.3" height="4.6"/>
<path class="st10" d="M194.9,93c0-0.3,0-1.3,0-1.6c0.1-1.1,0.7-1.9,1.6-1.9c0.9,0,1.4,0.7,1.6,1.8c0.1,0.4,0.1,1.4,0,1.8
	c-0.1,1.1-0.2,2.4-1.6,2.4C195.1,95.5,195,94.2,194.9,93 M196.5,88.8c-1.8,0-2.8,1.2-3,2.8c0,0.3,0,1.1,0,1.4c0.1,2,0.9,3.1,3.1,3.1
	c2.1,0,2.8-1.1,3-3c0-0.4,0-1.4-0.1-1.8C199.2,89.9,198.2,88.8,196.5,88.8z"/>
<rect x="195.9" y="88.3" class="st10" width="1.3" height="4.6"/>
<path class="st10" d="M200.4,90.9v5h1.4v-5c0-0.3,0-0.5,0-0.7c0-0.2,0.1-0.4,0.2-0.6c0.1-0.2,0.2-0.3,0.4-0.5
	c0.2-0.1,0.4-0.2,0.7-0.2c0.3,0,0.5,0.1,0.7,0.2c0.2,0.1,0.3,0.3,0.4,0.5c0.1,0.2,0.1,0.4,0.2,0.6c0,0.2,0,0.5,0,0.7v5h1.4v-5
	c0-0.6-0.1-1.2-0.3-1.6c-0.2-0.4-0.5-0.7-0.9-0.9c-0.4-0.2-0.9-0.3-1.5-0.3c-0.6,0-1.1,0.1-1.5,0.3c-0.4,0.2-0.7,0.5-0.9,0.9
	C200.5,89.7,200.4,90.3,200.4,90.9"/>
<path class="st10" d="M69.5,90.4c0-1.3-0.6-2.2-1.9-2.2c-0.7,0-1.3,0.4-1.5,1.1h0c-0.2-1.1-1.1-1.3-1.8-1.1v0.8c0.4-0.3,1-0.2,1.1,1
	c0,0.4,0,0.7,0,1.1h1.2c0-0.2,0-0.7,0-1c0-1.5,1.5-1.6,1.5-0.1l0,2.9c0,1.4-0.2,2.7-2,2.2c-0.6-0.1-1.1-0.5-1.6-0.9v1.3
	c0.6,0.3,1.1,0.4,1.8,0.4c2.5,0,3.1-0.8,3.1-3.1V90.4z"/>
<path class="st10" d="M48.6,96H50c0-0.9-0.1-2.3,0-3.2c0-0.4,0.2-0.9,0.5-1.1c0.6-0.4,1.5-0.2,1.8,0.6c0.4,1,0.1,3.2-0.2,3.7h1.4
	c0.2-0.5,0.3-1.7,0.4-2.3c0.1-1-0.2-2.1-1.2-2.6c-0.8-0.4-2-0.4-2.8,0.2c-0.1-2.4,2.1-2.9,3.8-1.4l0-1.2c-0.7-0.3-1.4-0.5-2.1-0.5
	c-1.2,0-2.3,0.6-2.9,1.7c-0.2,0.4-0.2,1.1-0.2,1.7C48.6,93.1,48.6,94.5,48.6,96"/>
<path class="st10" d="M79.5,88.3l-1.3,0c-0.1,0.7,0,1.5,0.5,2c0.9,1,1.4,1.2,2.2,2c1,1,0.6,3-1,3c-0.7,0-1.4-0.5-1.9-0.9l0,1.4
	c0.9,0.3,1.6,0.5,2.6,0.3c1.6-0.3,2.6-2.7,1.7-4.3c-0.4-0.7-1-1.1-1.6-1.7C79.9,89.6,79.5,89.2,79.5,88.3"/>
<path class="st10" d="M95,96h1.4c0-0.9-0.1-2.3,0-3.2c0-0.4,0.2-0.9,0.5-1.1c0.6-0.4,1.5-0.2,1.8,0.6c0.4,1,0.1,3.2-0.2,3.7h1.4
	c0.2-0.5,0.3-1.7,0.4-2.3c0.1-1-0.2-2.1-1.2-2.6c-0.8-0.4-2-0.4-2.8,0.2c-0.1-2.4,2.1-2.9,3.8-1.4l0-1.2c-0.7-0.3-1.4-0.5-2.1-0.5
	c-1.2,0-2.3,0.6-2.9,1.7c-0.2,0.4-0.2,1.1-0.2,1.7C95,93.1,95,94.5,95,96"/>
<path class="st10" d="M101.2,90.9v5h1.4v-5c0-0.3,0-0.5,0-0.7c0-0.2,0.1-0.4,0.2-0.6c0.1-0.2,0.2-0.3,0.4-0.5
	c0.2-0.1,0.4-0.2,0.7-0.2c0.3,0,0.5,0.1,0.7,0.2c0.2,0.1,0.3,0.3,0.4,0.5c0.1,0.2,0.1,0.4,0.2,0.6c0,0.2,0,0.5,0,0.7v5h1.4v-5
	c0-0.6-0.1-1.2-0.3-1.6c-0.2-0.4-0.5-0.7-0.9-0.9c-0.4-0.2-0.9-0.3-1.5-0.3c-0.6,0-1.1,0.1-1.5,0.3c-0.4,0.2-0.7,0.5-0.9,0.9
	C101.3,89.7,101.2,90.3,101.2,90.9"/>
<path class="st10" d="M124.5,90.9v5h1.4v-5c0-0.3,0-0.5,0-0.7c0-0.2,0.1-0.4,0.2-0.6c0.1-0.2,0.2-0.3,0.4-0.5
	c0.2-0.1,0.4-0.2,0.7-0.2c0.3,0,0.5,0.1,0.7,0.2c0.2,0.1,0.3,0.3,0.4,0.5c0.1,0.2,0.1,0.4,0.2,0.6c0,0.2,0,0.5,0,0.7v5h1.4v-5
	c0-0.6-0.1-1.2-0.3-1.6c-0.2-0.4-0.5-0.7-0.9-0.9c-0.4-0.2-0.9-0.3-1.5-0.3c-0.6,0-1.1,0.1-1.5,0.3c-0.4,0.2-0.7,0.5-0.9,0.9
	C124.5,89.7,124.5,90.3,124.5,90.9"/>
<path class="st10" d="M44.7,88.3l-1.3,0c-0.1,0.7,0,1.5,0.5,2c0.9,1,1.4,1.2,2.2,2c1,1,0.6,3-1,3c-0.7,0-1.4-0.5-1.9-0.9l0,1.4
	c0.9,0.3,1.6,0.5,2.6,0.3c1.6-0.3,2.6-2.7,1.7-4.3c-0.4-0.7-1-1.1-1.6-1.7C45.1,89.6,44.7,89.2,44.7,88.3"/>
<path class="st10" d="M87.1,93.3c0-2.3-2.4-2.3-2.4,0.1c0,0.9,0.1,2.1,1.3,2C86.6,95.3,87.2,94.7,87.1,93.3 M87.1,91.7L87.1,91.7
	l0-0.7c0-1.5-0.6-2.1-1.3-2.1c-0.5,0-0.9,0.3-0.9,0.9h-1.3c0.1-1.1,1.1-1.6,2.2-1.6c1.4,0,2.5,0.8,2.6,2.8c0,1,0.1,1.8,0,2.7
	c-0.2,1.4-0.9,2.4-2.3,2.4c-1.9,0-2.7-1-2.7-2.9c0-1.4,0.9-2.5,2.2-2.4C86.2,90.8,86.7,91.1,87.1,91.7z"/>
<path class="st10" d="M117.6,90.4c0-1.3-0.6-2.2-1.9-2.2c-0.7,0-1.3,0.4-1.5,1.1h0c-0.2-1.1-1.1-1.3-1.8-1.1v0.8
	c0.4-0.3,1-0.2,1.1,1c0,0.4,0,0.7,0,1.1h1.2c0-0.2,0-0.7,0-1c0-1.5,1.5-1.6,1.5-0.1l0,2.9c0,1.4-0.2,2.7-2,2.2
	c-0.6-0.1-1.1-0.5-1.6-0.9v1.3c0.6,0.3,1.1,0.4,1.8,0.4c2.5,0,3.1-0.8,3.1-3.1V90.4z"/>
<path class="st10" d="M89,91.3c0,0,0-0.5,0-0.5c-0.1-1.2,0.2-2.2,1.5-2.5c0.3-0.1,0.6-0.1,1-0.1c0.8,0,1.5,0.2,2,0.6
	c0.9,0.9,0.8,2.4,0.8,3.6c0,1.2,0.1,2-0.7,2.9c-0.6,0.6-1.4,0.8-2.2,0.8c-0.7,0-1.4-0.2-2.1-0.5v-1.2c0.5,0.5,1.1,0.8,1.8,0.8
	c1.5,0,1.8-0.8,1.9-2.1c0-0.5,0-2,0-2.7c-0.1-0.9-0.4-1.5-1.3-1.5c-1.1,0-1.2,1.1-1.2,1.9c0,0.1,0,0.5,0,0.5H89z"/>
<path class="st10" d="M75.5,91.3c0,0,0-0.5,0-0.5c0.1-1.2-0.2-2.2-1.5-2.5c-0.3-0.1-0.6-0.1-1-0.1c-0.8,0-1.5,0.2-2,0.6
	c-0.9,0.9-0.8,2.4-0.8,3.6c0,1.2-0.1,2,0.7,2.9c0.6,0.6,1.4,0.8,2.2,0.8c0.7,0,1.4-0.2,2.1-0.5v-1.2c-0.5,0.5-1.1,0.8-1.8,0.8
	c-1.5,0-1.8-0.8-1.9-2.1c0-0.5,0-2,0-2.7c0.1-0.9,0.4-1.5,1.3-1.5c1.1,0,1.2,1.1,1.2,1.9c0,0.1,0,0.5,0,0.5H75.5z"/>
<path class="st10" d="M187.5,91.3c0,0,0-0.5,0-0.5c-0.1-1.2,0.2-2.2,1.5-2.5c0.3-0.1,0.6-0.1,1-0.1c0.8,0,1.5,0.2,2,0.6
	c0.9,0.9,0.8,2.4,0.8,3.6c0,1.2,0.1,2-0.7,2.9c-0.6,0.6-1.4,0.8-2.2,0.8c-0.7,0-1.4-0.2-2.1-0.5v-1.2c0.5,0.5,1.1,0.8,1.8,0.8
	c1.5,0,1.8-0.8,1.9-2.1c0-0.5,0-2,0-2.7c-0.1-0.9-0.4-1.5-1.3-1.5c-1.1,0-1.2,1.1-1.2,1.9c0,0.1,0,0.5,0,0.5H187.5z"/>
<path class="st10" d="M156.3,91.3c0,0,0-0.5,0-0.5c-0.1-1.2,0.2-2.2,1.5-2.5c0.3-0.1,0.6-0.1,1-0.1c0.8,0,1.5,0.2,2,0.6
	c0.9,0.9,0.8,2.4,0.8,3.6c0,1.2,0.1,2-0.7,2.9c-0.6,0.6-1.4,0.8-2.2,0.8c-0.7,0-1.4-0.2-2.1-0.5v-1.2c0.5,0.5,1.1,0.8,1.8,0.8
	c1.5,0,1.8-0.8,1.9-2.1c0-0.5,0-2,0-2.7c-0.1-0.9-0.4-1.5-1.3-1.5c-1.1,0-1.2,1.1-1.2,1.9c0,0.1,0,0.5,0,0.5H156.3z"/>
<path class="st10" d="M137.9,90.4c0-1.3-0.6-2.2-1.9-2.2c-0.7,0-1.3,0.4-1.5,1.1h0c-0.2-1.1-1.1-1.3-1.8-1.1v0.8
	c0.4-0.3,1-0.2,1.1,1c0,0.4,0,0.7,0,1.1h1.2c0-0.2,0-0.7,0-1c0-1.5,1.5-1.6,1.5-0.1l0,2.9c0,1.4-0.2,2.7-2,2.2
	c-0.6-0.1-1.1-0.5-1.6-0.9v1.3c0.6,0.3,1.1,0.4,1.8,0.4c2.5,0,3.1-0.8,3.1-3.1V90.4z"/>
</svg>
