<?xml version="1.0" encoding="utf-8"?>
<!-- Generator: Adobe Illustrator 19.0.0, SVG Export Plug-In . SVG Version: 6.00 Build 0)  -->
<svg version="1.1" id="Layer_1" xmlns="http://www.w3.org/2000/svg" xmlns:xlink="http://www.w3.org/1999/xlink" x="0px" y="0px"
	 viewBox="0 0 213.2 187.7" style="enable-background:new 0 0 213.2 187.7;" xml:space="preserve">
<style type="text/css">
	.st0{fill:#FFFFFF;}
	.st1{fill:#64257E;}
	.st2{fill-rule:evenodd;clip-rule:evenodd;fill:#64257E;}
</style>
<g id="XMLID_2_">
	<g id="XMLID_12_">
		<g id="XMLID_13_">
			<g id="XMLID_59_">
				<path id="XMLID_60_" class="st0" d="M106.6,29.1c2.7-8.3,9.1-15.2,17.1-20c0.4-0.3,0.9-0.5,1.4-0.8c-5.4-3.6-11.8-5.5-18.5-5.5
					c-6.6,0-13,2-18.4,5.6c0.4,0.2,0.9,0.5,1.3,0.7C97.5,13.9,103.9,20.8,106.6,29.1z"/>
			</g>
			<path id="XMLID_56_" class="st1" d="M148.9,49.2c2.1-3.5,3.3-7.6,3.3-12c0-0.1,0-0.1,0-0.2c0-23.3,4.9-36.2,4.9-36.2H156
				c-10,0-19.9,2.2-28,6C121.8,2.4,114.4,0,106.6,0c-7.7,0-15.1,2.4-21.3,6.9C77.2,3,67.2,0.8,57.2,0.8h-1.1c0,0,4.9,12.9,4.9,36.2
				c0,0.1,0,0.1,0,0.2c0,4.4,1.2,8.5,3.3,12c-23,29.2,4.2,70.1,42.3,89.7h0C144.7,119.3,171.9,78.5,148.9,49.2z M106.6,2.8
				c6.7,0,13,1.9,18.5,5.5c-0.5,0.3-1,0.5-1.4,0.8c-8,4.8-14.4,11.7-17.1,20c-2.7-8.3-9.1-15.2-17.1-20c-0.4-0.3-0.9-0.5-1.3-0.7
				C93.6,4.8,100,2.8,106.6,2.8z"/>
			<path id="XMLID_55_" class="st0" d="M106.6,44.8l-7.4,9c0,5.2,7.4,10.8,7.4,10.8S114,59,114,53.8L106.6,44.8z"/>
			<path id="XMLID_49_" class="st0" d="M146.8,38.2l-1.7-0.3c-0.1,0-0.3,0-0.4,0c0.1-1.1,0-2.3-0.2-3.4c0.1,0,0.2,0,0.4,0l1.7-0.5
				c0.6-0.2,0.9-0.8,0.8-1.3l-0.5-1.7c-0.2-0.6-0.8-0.9-1.4-0.8l-1.7,0.5c-0.1,0-0.2,0.1-0.3,0.2c-0.4-1-1-2-1.6-3
				c0.1,0,0.2-0.1,0.3-0.2l1.3-1.2c0.4-0.4,0.5-1.1,0.1-1.5l-1.2-1.3c-0.4-0.4-1.1-0.5-1.6-0.1l-1.3,1.2c-0.1,0.1-0.1,0.2-0.2,0.3
				c-0.8-0.7-1.6-1.3-2.5-1.8c-0.1-0.1-0.2-0.1-0.3-0.1c0.1-0.1,0.1-0.2,0.2-0.3l0.7-1.6c0.2-0.6,0-1.2-0.6-1.4l-1.7-0.7
				c-0.6-0.2-1.2,0-1.4,0.6l-0.7,1.6c-0.1,0.1-0.1,0.2-0.1,0.3c-0.7-0.2-1.5-0.4-2.2-0.4c0-0.1,0.1-0.2,0.1-0.3v-1.7
				c0-0.6-0.5-1.1-1.1-1.1h-1.8c-0.6,0-1.1,0.5-1.1,1.1v1.7c0,0.1,0,0.3,0.1,0.4c-1.1,0.1-2.2,0.4-3.3,0.8c0-0.1,0-0.3-0.1-0.4
				l-0.8-1.6c-0.3-0.5-0.9-0.8-1.5-0.5l-1.6,0.8c-0.5,0.3-0.8,0.9-0.5,1.5l0.8,1.6c0.1,0.1,0.1,0.2,0.2,0.3
				c-0.9,0.6-1.8,1.3-2.6,2.1c-0.1-0.1-0.2-0.2-0.3-0.3l-1.4-1.1c-0.5-0.4-1.2-0.3-1.5,0.2l-1.1,1.4c-0.4,0.5-0.3,1.2,0.2,1.5
				l1.4,1.1c0.1,0.1,0.2,0.2,0.4,0.2c0,0.1-0.1,0.1-0.1,0.2c-0.5,0.9-1,1.9-1.3,2.9c-0.1-0.1-0.3-0.1-0.4-0.2l-1.7-0.4
				c-0.6-0.1-1.2,0.3-1.3,0.8l-0.4,1.7c-0.1,0.6,0.3,1.2,0.9,1.3l1.7,0.4c0.2,0,0.3,0,0.5,0c-0.1,1.1-0.1,2.3,0.1,3.4
				c-0.2,0-0.3,0-0.5,0l-1.7,0.4c-0.6,0.1-1,0.7-0.8,1.3l0.4,1.7c0.1,0.6,0.8,0.9,1.3,0.8l1.7-0.4c0.2,0,0.3-0.1,0.4-0.2
				c0.4,1.1,0.9,2.1,1.6,3c-0.2,0-0.3,0.1-0.5,0.2l-1.3,1.1c-0.5,0.4-0.5,1.1-0.1,1.5l1.2,1.4c0.4,0.5,1.1,0.5,1.6,0.1l1.3-1.1
				c0.1-0.1,0.2-0.3,0.3-0.4c0.8,0.8,1.7,1.5,2.8,2.1c-0.1,0.1-0.2,0.2-0.3,0.4l-0.7,1.6c-0.2,0.5,0,1.2,0.6,1.4l1.6,0.7
				c0.6,0.2,1.2,0,1.5-0.6l0.7-1.6c0.1-0.2,0.1-0.3,0.1-0.5c1.1,0.3,2.2,0.6,3.4,0.7c-0.1,0.1-0.1,0.3-0.1,0.5l0.1,1.7
				c0,0.6,0.5,1.1,1.1,1.1l1.8-0.1c0.6,0,1.1-0.5,1.1-1.1l-0.1-1.7c0-0.2-0.1-0.3-0.1-0.5c1.1-0.2,2.2-0.5,3.3-0.9
				c0,0.1,0,0.3,0.1,0.4l0.8,1.5c0.3,0.5,1,0.7,1.5,0.5l1.6-0.8c0.5-0.3,0.7-0.9,0.5-1.5l-0.8-1.5c-0.1-0.1-0.2-0.3-0.3-0.3
				c0.9-0.6,1.8-1.4,2.6-2.2c0.1,0.1,0.2,0.2,0.3,0.3l1.4,1c0.5,0.4,1.2,0.2,1.5-0.2l1.1-1.4c0.4-0.5,0.2-1.2-0.2-1.5l-1.4-1
				c-0.1-0.1-0.2-0.1-0.4-0.2c0.6-1,1-2,1.3-3.1c0.1,0.1,0.2,0.1,0.4,0.1l1.7,0.3c0.6,0.1,1.2-0.3,1.3-0.9l0.3-1.8
				C147.8,38.9,147.4,38.4,146.8,38.2z M119.8,41.6c-0.5-1.1-0.9-2.2-1-3.5h19.9c-0.1,1.2-0.5,2.4-1,3.5H119.8z M136.3,43.6
				c-1.8,2.1-4.6,3.5-7.6,3.5c-3,0-5.8-1.4-7.6-3.5H136.3z M118.8,36.1c0.1-1.2,0.5-2.4,1-3.5h17.8c0.5,1.1,0.9,2.2,1,3.5H118.8z
				 M121.1,30.6c1.8-2.1,4.6-3.5,7.6-3.5c3,0,5.8,1.4,7.6,3.5H121.1z"/>
			<path id="XMLID_42_" class="st0" d="M102.6,38.2l-1.7-0.3c-0.1,0-0.3,0-0.4,0c0.1-1.1,0-2.3-0.2-3.4c0.1,0,0.2,0,0.4,0l1.7-0.5
				c0.6-0.2,0.9-0.8,0.8-1.4l-0.5-1.7c-0.2-0.6-0.8-0.9-1.4-0.8l-1.7,0.5c-0.1,0-0.2,0.1-0.3,0.2c-0.4-1-1-2-1.6-3
				c0.1,0,0.2-0.1,0.3-0.2l1.3-1.2c0.4-0.4,0.5-1.1,0.1-1.5l-1.2-1.3c-0.4-0.4-1.1-0.5-1.6-0.1l-1.3,1.2c-0.1,0.1-0.2,0.2-0.2,0.3
				c-0.8-0.7-1.6-1.3-2.5-1.8c-0.1-0.1-0.2-0.1-0.3-0.1c0.1-0.1,0.1-0.2,0.2-0.3l0.7-1.6c0.2-0.6,0-1.2-0.6-1.4l-1.7-0.7
				c-0.6-0.2-1.2,0-1.4,0.6l-0.7,1.6c0,0.1-0.1,0.2-0.1,0.3c-0.7-0.2-1.5-0.4-2.2-0.4c0-0.1,0.1-0.2,0.1-0.3v-1.7
				c0-0.6-0.5-1.1-1.1-1.1h-1.8c-0.6,0-1.1,0.5-1.1,1.1v1.7c0,0.1,0,0.3,0.1,0.4c-1.1,0.1-2.2,0.4-3.3,0.8c0-0.1,0-0.3-0.1-0.4
				l-0.8-1.6c-0.3-0.5-0.9-0.8-1.5-0.5l-1.6,0.8c-0.5,0.3-0.8,0.9-0.5,1.5l0.8,1.6c0.1,0.1,0.1,0.2,0.2,0.3
				c-0.9,0.6-1.8,1.3-2.6,2.1c-0.1-0.1-0.2-0.2-0.3-0.3l-1.4-1.1c-0.5-0.4-1.2-0.3-1.5,0.2l-1.1,1.4c-0.4,0.5-0.3,1.2,0.2,1.5
				l1.4,1.1c0.1,0.1,0.2,0.2,0.4,0.2c0,0.1-0.1,0.1-0.1,0.2c-0.5,0.9-1,1.9-1.3,2.9c-0.1-0.1-0.3-0.1-0.4-0.2l-1.7-0.4
				c-0.6-0.1-1.2,0.3-1.3,0.8L65.5,34c-0.1,0.6,0.3,1.2,0.9,1.3l1.7,0.4c0.2,0,0.3,0,0.5,0c-0.1,1.1-0.1,2.3,0.1,3.4
				c-0.2,0-0.3,0-0.5,0l-1.7,0.4c-0.6,0.1-1,0.7-0.8,1.3l0.4,1.7c0.1,0.6,0.8,0.9,1.3,0.8l1.7-0.4c0.2,0,0.3-0.1,0.4-0.2
				c0.4,1.1,0.9,2.1,1.6,3c-0.2,0-0.3,0.1-0.5,0.2l-1.3,1.1c-0.5,0.4-0.5,1.1-0.1,1.5l1.2,1.4c0.4,0.5,1.1,0.5,1.6,0.1l1.3-1.1
				c0.1-0.1,0.2-0.3,0.3-0.4c0.8,0.8,1.7,1.5,2.8,2.1c-0.1,0.1-0.2,0.2-0.3,0.4l-0.7,1.6c-0.2,0.6,0,1.2,0.6,1.4l1.6,0.7
				c0.6,0.2,1.2,0,1.5-0.6l0.7-1.6c0.1-0.2,0.1-0.3,0.1-0.5c1.1,0.3,2.2,0.6,3.4,0.7C83.1,53,83,53.1,83,53.3l0.1,1.7
				c0,0.6,0.5,1.1,1.1,1.1L86,56c0.6,0,1.1-0.5,1.1-1.1L87,53.2c0-0.2-0.1-0.3-0.1-0.5c1.1-0.2,2.2-0.5,3.3-0.9c0,0.1,0,0.3,0.1,0.4
				l0.8,1.5c0.3,0.5,1,0.7,1.5,0.5l1.6-0.8c0.5-0.3,0.7-0.9,0.5-1.5l-0.8-1.5c-0.1-0.1-0.2-0.3-0.3-0.3c0.9-0.6,1.8-1.4,2.6-2.2
				c0.1,0.1,0.2,0.2,0.3,0.3l1.4,1c0.5,0.4,1.2,0.2,1.5-0.2l1.1-1.4c0.4-0.5,0.2-1.2-0.2-1.5l-1.4-1c-0.1-0.1-0.2-0.1-0.4-0.2
				c0.6-1,1-2,1.3-3.1c0.1,0.1,0.2,0.1,0.4,0.1l1.7,0.3c0.6,0.1,1.2-0.3,1.3-0.9l0.3-1.8C103.6,38.9,103.2,38.4,102.6,38.2z
				 M87.2,33c-1-0.6-2.1-0.9-3.4-0.7c-0.7,0.1-1.3,0.4-1.9,0.7l-3.7-3.7c1.7-1.4,3.9-2.3,6.3-2.3s4.6,0.8,6.3,2.3L87.2,33z
				 M86.8,38.8c-0.4,0.6-1.1,1-1.9,1.1c-1.6,0.2-3-0.8-3.3-2.4c-0.2-1.6,0.8-3,2.4-3.3c0.2,0,0.3,0,0.4,0c1.4,0,2.6,1,2.8,2.4
				C87.4,37.4,87.3,38.2,86.8,38.8z M80.5,34.5c-0.6,1-0.9,2.2-0.7,3.4c0.1,0.7,0.4,1.3,0.7,1.9l-3.7,3.7c-1.4-1.7-2.3-3.9-2.3-6.3
				c0-2.4,0.8-4.6,2.3-6.3L80.5,34.5z M81.9,41.2c0.8,0.5,1.7,0.8,2.6,0.8c0.3,0,0.5,0,0.8-0.1c0.7-0.1,1.3-0.4,1.9-0.7l3.7,3.7
				c-1.7,1.4-3.9,2.3-6.3,2.3s-4.6-0.8-6.3-2.3L81.9,41.2z M88.6,39.7c0.7-1,0.9-2.2,0.7-3.4c-0.1-0.7-0.4-1.3-0.7-1.9l3.7-3.7
				c1.4,1.7,2.3,3.9,2.3,6.3c0,2.4-0.8,4.6-2.3,6.3L88.6,39.7z"/>
			<g id="XMLID_14_">
				<path id="XMLID_41_" class="st0" d="M106.6,68.8c-2.2,0-4.3,0.2-6.3,0.7c1,2.4,3.2,4.1,6,4.2c2.9,0.1,5.5-1.6,6.6-4.2
					C110.9,69.1,108.8,68.8,106.6,68.8z"/>
				<path id="XMLID_40_" class="st0" d="M97.2,105.4c0,0.8,0.7,1.5,1.5,1.5c0.8,0,1.5-0.7,1.5-1.5c0-0.8-0.7-1.5-1.5-1.5
					C97.9,103.9,97.2,104.5,97.2,105.4z"/>
				<g id="XMLID_38_">
					<path id="XMLID_39_" class="st0" d="M101.6,89.6c-0.1-0.1-0.3-0.1-0.4,0l-0.2,0.2c-0.1,0.1-0.1,0.3,0,0.4l11.2,12.1
						c0.1,0.1,0.3,0.1,0.4,0l0.2-0.2c0.1-0.1,0.1-0.3,0-0.4L101.6,89.6z"/>
				</g>
				<g id="XMLID_15_">
					<g id="XMLID_19_">
						<path id="XMLID_37_" class="st0" d="M121.4,72.6"/>
						<polygon id="XMLID_36_" class="st0" points="100.1,87.7 97,86.6 95.6,87.9 96.4,91 						"/>
						<g id="XMLID_21_">
							<line id="XMLID_35_" class="st0" x1="91.8" y1="72.6" x2="91.8" y2="72.6"/>
							<line id="XMLID_34_" class="st0" x1="126.3" y1="113.2" x2="126.3" y2="113.2"/>
							<g id="XMLID_22_">
								<line id="XMLID_33_" class="st0" x1="133.5" y1="94.9" x2="133.5" y2="94.9"/>
								<path id="XMLID_23_" class="st0" d="M97.8,126.3c0.7-0.8,1.4-1.6,2.3-2.2l-1-4.5l3.5-1.4l2.4,3.9c1.1-0.2,2.2-0.1,3.3,0
									l2.5-3.9l3.5,1.5l-1.1,4.5c0.8,0.6,1.5,1.3,2.2,2.1c3.5-3.5,7.5-7.9,10.8-12.9c-0.6-0.5-1.1-1-1.6-1.6l-2.2,0.6
									c-0.8-1.2-1.4-2.6-1.7-3.9l1.9-1.2c-0.2-1-0.2-2-0.1-3l-1.9-1.2c0.3-1.4,0.8-2.8,1.6-4l2.2,0.5c0.6-0.8,1.3-1.6,2.1-2.2
									l-0.6-2.2c1.2-0.8,2.6-1.4,3.9-1.7l1.2,1.9c0.8-0.1,1.6-0.2,2.4-0.1c0.1-0.8,0.1-1.6,0.1-2.4c0-7.6-4.6-15.4-12.2-20
									c-0.4,0.9-0.8,1.8-1.3,2.6l-2.8-0.6c-0.8,1.1-1.7,2-2.7,2.7l0.7,2.8c-1.6,1-3.3,1.7-5.1,2.1l-1.5-2.4
									c-1.3,0.2-2.6,0.2-3.9,0l-1.5,2.5c-1.8-0.4-3.5-1.1-5.1-2.1l0.6-2.8c-1.1-0.8-2-1.7-2.7-2.7l-2.8,0.7
									c-0.6-0.9-1-1.8-1.4-2.8c-7.6,4.6-12.3,12.4-12.3,19.9c0,12.8,10.1,25.4,17.9,33.3 M86.1,85.8c0.9,0,1.6,0.7,1.6,1.6
									c0,0.9-0.7,1.6-1.6,1.6c-0.9,0-1.6-0.7-1.6-1.6C84.4,86.6,85.2,85.8,86.1,85.8z M87.4,99.9c-0.3,0-0.5,0.1-0.8,0l-0.6,0.9
									l-0.9-0.3l0.2-1.1c-0.2-0.2-0.4-0.3-0.6-0.5l-1.1,0.2l-0.4-0.8l0.9-0.6c0-0.3,0-0.5,0-0.8l-0.9-0.6l0.3-0.9l1.1,0.2
									c0.2-0.2,0.3-0.4,0.5-0.6l-0.3-1.1l0.8-0.4l0.6,0.9c0.3,0,0.5,0,0.8,0l0.6-0.9l0.9,0.3l-0.2,1.1c0.2,0.2,0.4,0.3,0.6,0.5
									l1.1-0.3l0.4,0.8l-0.9,0.6c0,0.3,0.1,0.5,0,0.8l0.9,0.6L90.2,99l-1.1-0.2c-0.2,0.2-0.3,0.4-0.5,0.6l0.3,1.1l-0.8,0.4
									L87.4,99.9z M89.7,109.3c-0.9,0-1.6-0.7-1.6-1.6c0-0.9,0.7-1.6,1.6-1.6c0.9,0,1.6,0.7,1.6,1.6
									C91.4,108.5,90.7,109.3,89.7,109.3z M91.4,81.2c-0.9,0-1.6-0.7-1.6-1.6c0-0.9,0.7-1.6,1.6-1.6c0.9,0,1.6,0.7,1.6,1.6
									C93,80.4,92.3,81.2,91.4,81.2z M95.6,116.7c-0.9,0-1.6-0.7-1.6-1.6c0-0.9,0.7-1.6,1.6-1.6c0.9,0,1.6,0.7,1.6,1.6
									C97.2,116,96.5,116.7,95.6,116.7z M119.4,90.6c-0.1,1.3-0.6,2.6-1.6,3.6c-1.5,1.5-3.7,1.9-5.5,1.3l-1.8,1.8l6.2,6.7
									c0.7,0.8,0.7,2,0,2.8l-2.8,2.6c-0.8,0.7-2,0.7-2.8-0.1l-6-6.4l-2,2c0.3,1.4-0.1,2.9-1.2,3.9c-1.7,1.7-4.5,1.7-6.2,0
									c-1.7-1.7-1.7-4.5,0-6.2c1-1,2.4-1.4,3.8-1.2l2.2-2.2l-6-6.5c-0.1-0.1-0.2-0.2-0.2-0.4l-1.6-6.3c-0.1-0.3,0-0.5,0.2-0.7l0,0
									c0.2-0.2,0.5-0.2,0.8-0.2l6.2,2.1c0.1,0.1,0.3,0.2,0.4,0.3l5.8,6.3l1.7-1.7c-0.6-1.9-0.1-4,1.4-5.5c1-1,2.3-1.5,3.6-1.5
									c0.9-0.1,1.7,0,2.5,0.3l-3.9,3.8l2.9,3l3.9-3.8C119.5,88.8,119.6,89.7,119.4,90.6z M122.7,81.8c-0.9,0-1.6-0.7-1.6-1.6
									c0-0.9,0.7-1.6,1.6-1.6c0.9,0,1.6,0.7,1.6,1.6C124.4,81.1,123.6,81.8,122.7,81.8z M127.1,89.9c-0.9,0-1.6-0.7-1.6-1.6
									c0-0.9,0.7-1.6,1.6-1.6c0.9,0,1.6,0.7,1.6,1.6C128.8,89.2,128,89.9,127.1,89.9z"/>
							</g>
						</g>
						<path id="XMLID_20_" class="st0" d="M111.6,107.4c0.5,0.5,1.3,0.6,1.8,0.1l1.8-1.7c0.5-0.5,0.5-1.3,0-1.8l-1.1-1.2l-3.6,3.4
							L111.6,107.4z"/>
					</g>
					<g id="XMLID_17_">
						<path id="XMLID_18_" class="st0" d="M127.5,105.1c-0.1,1.5,0.4,2.8,1.4,3.8c0.1-0.1,0.1-0.2,0.2-0.4c1.5-2.7,2.6-5.5,3.4-8.4
							C129.9,100.3,127.7,102.4,127.5,105.1z"/>
					</g>
					<path id="XMLID_16_" class="st0" d="M106.6,134c0,0,2.2-1.7,5.4-4.6c-1.7-2.6-4.9-3.7-7.9-2.5c-1.2,0.5-2.3,1.5-3,2.5
						C104.4,132.3,106.6,134,106.6,134L106.6,134z"/>
				</g>
			</g>
		</g>
	</g>
	<path id="XMLID_3_" class="st2" d="M119,170c1.7,0,4.5-0.1,5.6-1.2c0.9-1,0.9-3.1,0.9-4.4l0-10.3c-1.9-0.5-3.7-0.9-5.7-1.2
		c-2-0.3-4.1-0.4-6.2-0.4c-2.4,0-4.9,0.3-7,1.3c-1.7,0.8-3.2,2-4.1,3.6c-1,1.7-1.4,3.5-1.4,5.5v14.4c0,1.9,0.4,3.8,1.4,5.5
		c1,1.6,2.4,2.8,4.1,3.6c2.2,1,4.7,1.3,7,1.3c1.4,0,2.7,0,4.1-0.1c1.3-0.1,2.6-0.2,3.9-0.4c1-0.1,1.9-0.3,2.9-0.5l0,0
		c-0.1-1.4-0.4-4.1-1.6-5c-1-0.8-3-0.6-4.1-0.5l-3.2,0.3c-0.7,0-1.3,0.1-2,0.1c-1.1,0-2.4-0.2-3.3-0.7c-0.8-0.5-1.4-1.1-1.8-2
		c-0.3-0.9-0.4-1.8-0.4-2.7v-11.7c0-0.9,0.1-1.9,0.4-2.7c0.3-0.9,0.9-1.6,1.7-2.1c1-0.6,2.2-0.8,3.4-0.8c0.5,0,1,0,1.5,0
		c0.5,0,1,0,1.5,0.1c0.6,0.1,1.2,0.1,1.8,0.2l0.4,0.1V170z M0,176.6v9.9c1.9,0.5,3.7,0.9,5.7,1.2c2,0.3,4.1,0.4,6.2,0.4
		c2.4,0,4.9-0.3,7-1.3c1.7-0.8,3.2-2,4.1-3.6c1-1.7,1.4-3.5,1.4-5.5v-1.8c0-2.5-0.3-5.6-1.7-7.7c-1.7-2.5-4.8-3.3-7.7-3.4l-0.5,0
		V162h8.6c0-1.5-0.1-4-1.1-5c-0.9-0.8-2.8-0.8-3.9-0.8l-3.6,0v-3.4h-7v3.4H1.3c0,1.5,0.1,4,1.1,5c0.9,0.8,2.8,0.8,3.9,0.8h1.1v7.9
		h4.2c1.5,0,3.3,0.2,4.4,1.4c1.1,1.1,1.3,3,1.3,4.5v0.4c0,0.9-0.1,1.9-0.5,2.7c-0.3,0.9-0.9,1.6-1.7,2.1c-1,0.6-2.2,0.8-3.3,0.8
		c-1.5,0-3.9-0.1-5.3-0.4l0-0.4c0-0.6-0.1-1.3-0.3-1.9c-0.1-0.5-0.3-0.9-0.6-1.2C4.6,176.6,1.7,176.6,0,176.6 M28.6,162.1
		c0.8,4.9,1.2,6.7,6.9,5.8c2.1-0.3,4.2-1,6.2,0.1c0.8,0.4,1.4,1.1,1.8,1.9c0.3,0.9,0.5,1.9,0.5,2.9v3.1c0,1-0.1,1.9-0.5,2.8
		c-0.3,0.9-0.9,1.5-1.7,1.9c-1,0.5-2.2,0.7-3.3,0.7c-2,0-3.8-0.7-5.7-0.7c-0.6,0-1.2,0.1-1.9,0.2c-0.4,0.1-0.9,0.3-1.2,0.6
		c-1.1,1-1.1,3.6-1.1,5.1c1.6,0.3,3.1,0.6,4.7,0.8c1.7,0.2,3.4,0.3,5.2,0.3c2.4,0,5-0.3,7.2-1.3c1.7-0.8,3.1-2,4-3.6
		c0.9-1.7,1.3-3.6,1.3-5.5v-5.7c0-1.9-0.4-3.8-1.3-5.5c-0.9-1.6-2.4-2.8-4-3.6c-2.2-1-4.8-1.3-7.2-1.3c-1.7,0-3.4,0.1-5.2,0.3
		c-1.4,0.2-2.8,0.4-4.2,0.7L28.6,162.1z M97.2,187.7v-16.2c0-1.9-0.4-3.8-1.4-5.5c-1-1.6-2.4-2.8-4.1-3.6c-2.2-1-4.7-1.3-7-1.3
		c-3,0-5.2,0.3-8,0.9c-3-0.5-6-0.9-9.1-0.9c-2.4,0-4.9,0.3-7,1.3c-1.7,0.8-3.2,2-4.1,3.6c-1,1.7-1.4,3.5-1.4,5.5v16.2
		c1.8,0,4.9-0.1,6-1.3c1-1.1,1-3.3,1-4.7l0-8.7c0-0.9,0.1-1.9,0.5-2.7c0.3-0.9,0.9-1.6,1.7-2.1c1-0.6,2.2-0.8,3.4-0.8
		c1.9,0,3.5,0.1,5.3,0.4v11.4c1.7,0,4.5-0.1,5.6-1.2c0.8-0.8,0.9-2.3,0.9-3.4c0.1-2.2,0-4.5,0-6.7c1.8-0.2,3.4-0.4,5.3-0.4
		c1.1,0,2.4,0.2,3.4,0.8c0.8,0.5,1.4,1.2,1.7,2.1c0.3,0.9,0.5,1.8,0.5,2.7l0,8.7c0,1.4,0,3.6,1,4.7
		C92.4,187.7,95.4,187.7,97.2,187.7 M129.5,177.5v8.8c1.7,0.5,3.5,0.8,5.3,1.1c3.3,0.5,7,0.6,10.2,0c1.1-0.2,2.4-0.5,3.4-1.1
		c0.8-0.5,1.5-1,2-1.8c2-3,1.3-7.2,1.3-10.7c0-1.1,0-2.3-0.1-3.4c-0.1-0.8-0.2-1.6-0.6-2.4c-0.3-0.7-0.8-1.2-1.4-1.7
		c-0.8-0.6-1.7-1-2.7-1.4c-1.4-0.5-2.9-0.9-4.4-1.3c-1-0.2-2.1-0.5-3.1-0.8c-0.6-0.2-1.3-0.4-1.8-0.8c-0.3-0.2-0.5-0.5-0.7-0.9h-6.7
		c0.1,1.2,0.3,2.4,0.8,3.5c0.3,0.7,0.8,1.2,1.4,1.7c0.8,0.6,1.7,1,2.6,1.3c1.3,0.4,2.7,0.8,4,1.1c1.1,0.2,2.2,0.5,3.3,0.8
		c0.6,0.2,1.4,0.5,1.9,0.9c0.4,0.4,0.7,0.9,0.8,1.4c0.1,0.6,0.1,1.3,0.1,1.9c0,2.1,0.5,6.2-1,7.8c-0.4,0.4-1.1,0.6-1.7,0.7
		c-2,0.4-4.8,0.1-6.8-0.2c-0.1-1.1-0.1-2.6-0.9-3.4C133.8,177.6,131.1,177.5,129.5,177.5 M165.4,152.6h-6.8c0.1,2.2,0.8,4.2,2.9,5.3
		c0.7,0.3,1.6,0.6,2.3,0.8c0.5,0.1,1.5,0.4,1.8,0.8c0.7,1.1,0.8,3.3,0.8,4l-0.5,0.1c-1,0.1-2,0.4-3,0.7c-1.5,0.5-3,1.3-4.1,2.4
		c-1,0.9-1.8,2-2.3,3.3c-0.5,1.2-0.7,2.5-0.7,3.8v3.7c0,1.3,0.2,2.6,0.7,3.8c0.5,1.3,1.3,2.4,2.3,3.3c1.2,1.1,2.6,1.9,4.1,2.4
		c2,0.7,4.2,0.9,6.3,0.9c2.1,0,4.3-0.2,6.3-0.9c1.5-0.5,2.9-1.3,4.1-2.4c1-0.9,1.8-2,2.3-3.3c0.5-1.2,0.7-2.5,0.7-3.8v-3.7
		c0-1.3-0.2-2.6-0.7-3.8c-0.5-1.3-1.3-2.4-2.3-3.3c-1.1-1.1-2.6-1.9-4.1-2.4c-0.5-0.2-1-0.3-1.5-0.5c0-1.6,0.1-4-0.4-5.5
		c-0.2-0.8-0.8-1.2-1.5-1.5c-0.7-0.3-1.9-0.5-2.6-0.7c-0.9-0.2-2-0.5-2.7-1c-0.4-0.3-0.7-0.7-0.9-1.1
		C165.6,153.6,165.5,153.1,165.4,152.6 M175.5,176.8c0,1.4-0.4,2.7-1.6,3.7c-2.1,1.8-7.4,1.8-9.5,0c-1.1-0.9-1.5-2.3-1.5-3.7v-2.3
		c0-1.4,0.4-2.7,1.5-3.7c2.1-1.8,7.3-1.8,9.5,0c1.1,0.9,1.6,2.2,1.6,3.7V176.8z M186.5,187.7c1.8,0,4.9-0.1,6-1.3c1-1.1,1-3.3,1-4.7
		c0-3.1,0-6.3,0-9.4c0-1.4,0.5-2.7,1.6-3.7c1.3-1.1,3.1-1.3,4.7-1.3c1.6,0,3.5,0.2,4.7,1.3c1.1,0.9,1.6,2.2,1.6,3.7v9.4
		c0,1.4,0,3.6,1,4.7c1.2,1.3,4.2,1.3,6,1.3v-16.2c0-1.3-0.2-2.6-0.7-3.8c-0.5-1.3-1.3-2.4-2.3-3.3c-1.2-1.1-2.6-1.9-4.1-2.4
		c-2-0.7-4.2-0.9-6.3-0.9c-2.1,0-4.3,0.2-6.3,0.9c-1.5,0.5-2.9,1.3-4.1,2.4c-1,0.9-1.8,2.1-2.3,3.3c-0.5,1.2-0.7,2.5-0.7,3.8V187.7z
		"/>
</g>
</svg>
