<?xml version="1.0" encoding="utf-8"?>
<!-- Generator: Adobe Illustrator 19.0.0, SVG Export Plug-In . SVG Version: 6.00 Build 0)  -->
<svg version="1.1" id="Layer_1" xmlns="http://www.w3.org/2000/svg" xmlns:xlink="http://www.w3.org/1999/xlink" x="0px" y="0px"
	 viewBox="252 222 181 177" style="enable-background:new 252 222 181 177;" xml:space="preserve">
<style type="text/css">
	.st0{fill:#231F20;}
	.st1{fill:#FFFFFF;}
	.st2{fill:#93D2C0;}
	.st3{fill:url(#SVGID_1_);}
	.st4{fill:url(#SVGID_2_);}
	.st5{fill:url(#SVGID_3_);}
	.st6{fill:url(#SVGID_4_);}
	.st7{fill:url(#SVGID_5_);}
	.st8{fill:url(#SVGID_6_);}
	.st9{fill:url(#SVGID_7_);}
	.st10{fill:url(#SVGID_8_);}
	.st11{fill:#93CC7D;}
	.st12{fill:url(#SVGID_9_);}
	.st13{fill:url(#SVGID_10_);}
	.st14{fill:url(#SVGID_11_);}
	.st15{fill:url(#SVGID_12_);}
	.st16{fill:#3AB4A3;}
	.st17{fill:url(#SVGID_13_);}
	.st18{fill:url(#SVGID_14_);}
	.st19{fill:#1CB6BA;}
	.st20{fill:url(#SVGID_15_);}
	.st21{fill:url(#SVGID_16_);}
	.st22{fill:url(#SVGID_17_);}
	.st23{fill:url(#SVGID_18_);}
	.st24{fill:url(#SVGID_19_);}
</style>
<g>
	<path class="st0" d="M259.8,374.8c-0.2-0.1-0.5-0.3-0.6-0.4c-0.2-0.2-0.3-0.4-0.4-0.6s-0.2-0.5-0.2-0.8v-7.3h1.1v7.4
		c0,0.1,0,0.2,0.1,0.4c0,0.1,0.1,0.2,0.2,0.3c0.1,0.1,0.2,0.1,0.3,0.2c0.1,0,0.2,0.1,0.4,0.1h1.1c0.1,0,0.2,0,0.4-0.1
		c0.1,0,0.2-0.1,0.3-0.2c0.1-0.1,0.1-0.2,0.2-0.3c0-0.1,0.1-0.2,0.1-0.3c0-0.2,0-0.4-0.1-0.6s-0.1-0.4-0.2-0.5s-0.1-0.4-0.2-0.6
		s-0.1-0.4-0.1-0.6s0-0.4,0-0.6s0-0.3,0.1-0.4c0-0.1,0.1-0.3,0.1-0.3h1.1c0,0.1-0.1,0.3-0.1,0.4s0,0.3-0.1,0.4c0,0.2,0,0.3,0,0.5
		s0,0.3,0.1,0.5c0.1,0.1,0.1,0.3,0.2,0.5s0.1,0.4,0.2,0.6s0.1,0.4,0.1,0.7c0,0.3-0.1,0.5-0.2,0.8c-0.1,0.2-0.2,0.5-0.4,0.6
		c-0.2,0.2-0.4,0.3-0.6,0.4s-0.5,0.2-0.8,0.2h-1.1C260.3,374.9,260,374.9,259.8,374.8z"/>
	<path class="st0" d="M269.6,368.7c0.1,0.1,0.1,0.2,0.2,0.3c0,0.1,0.1,0.2,0.1,0.4c0,0.1,0,0.3,0,0.4s0,0.3,0,0.5v2.7
		c0,0.3-0.1,0.5-0.2,0.8c-0.1,0.2-0.3,0.5-0.4,0.6c-0.2,0.2-0.4,0.3-0.6,0.4s-0.5,0.2-0.8,0.2h-1.1c-0.3,0-0.5-0.1-0.8-0.2
		c-0.2-0.1-0.5-0.3-0.6-0.4c-0.2-0.2-0.3-0.4-0.4-0.6s-0.2-0.5-0.2-0.8v-2.1h1.1v2.2c0,0.1,0,0.2,0.1,0.4c0,0.1,0.1,0.2,0.2,0.3
		c0.1,0.1,0.2,0.1,0.3,0.2c0.1,0,0.2,0.1,0.4,0.1h1.1c0.1,0,0.2,0,0.4-0.1c0.1,0,0.2-0.1,0.3-0.2c0.1-0.1,0.1-0.2,0.2-0.3
		c0-0.1,0.1-0.2,0.1-0.4v-2.8c0-0.1,0-0.3,0-0.4s0-0.2,0-0.3c0-0.1,0-0.1,0-0.2c0,0,0-0.1-0.1-0.1c-0.1-0.1-0.2-0.2-0.4-0.4
		c-0.2-0.2-0.5-0.3-0.8-0.6l0,0c-0.2-0.1-0.4-0.3-0.6-0.4s-0.3-0.2-0.4-0.3c-0.1-0.1-0.2-0.2-0.3-0.3c-0.1-0.1-0.2-0.2-0.2-0.3
		c-0.1-0.1-0.1-0.2-0.2-0.3c0-0.1-0.1-0.2-0.1-0.4c0-0.1,0-0.3,0-0.4s0-0.3,0-0.5h1.1c0,0.1,0,0.3,0,0.4s0,0.2,0,0.3
		c0,0.1,0,0.1,0,0.2c0,0,0,0.1,0.1,0.1c0.1,0.1,0.2,0.2,0.4,0.4c0.2,0.1,0.5,0.3,0.8,0.6l0,0c0.2,0.1,0.4,0.3,0.6,0.4
		s0.3,0.2,0.4,0.3c0.1,0.1,0.2,0.2,0.3,0.3C269.5,368.5,269.5,368.6,269.6,368.7z"/>
	<path class="st0" d="M276.2,365.6v7.3c0,0.3-0.1,0.5-0.2,0.8c-0.1,0.2-0.3,0.5-0.4,0.6c-0.2,0.2-0.4,0.3-0.6,0.4s-0.5,0.2-0.8,0.2
		h-1.1c-0.3,0-0.5-0.1-0.8-0.2s-0.5-0.3-0.6-0.4c-0.2-0.2-0.3-0.4-0.4-0.6s-0.2-0.5-0.2-0.8v-1h1.1v1.1c0,0.1,0,0.2,0.1,0.4
		c0,0.1,0.1,0.2,0.2,0.3c0.1,0.1,0.2,0.1,0.3,0.2c0.1,0,0.2,0.1,0.4,0.1h1.1c0.1,0,0.2,0,0.4-0.1c0.1,0,0.2-0.1,0.3-0.2
		c0.1-0.1,0.1-0.2,0.2-0.3c0-0.1,0.1-0.2,0.1-0.4v-4.1c0-0.1,0-0.2-0.1-0.4c0-0.1-0.1-0.2-0.2-0.3c-0.1-0.1-0.2-0.1-0.3-0.2
		c-0.1,0-0.2-0.1-0.4-0.1h-0.6c-0.1,0-0.2,0-0.4,0.1c-0.1,0-0.2,0.1-0.3,0.2c-0.1,0.1-0.1,0.2-0.2,0.3c0,0.1-0.1,0.2-0.1,0.4v0.4
		h-1.1V369c0-0.3,0.1-0.5,0.2-0.8c0.1-0.2,0.2-0.5,0.4-0.6c0.2-0.2,0.4-0.3,0.6-0.4s0.5-0.2,0.8-0.2h0.6c0.2,0,0.3,0,0.5,0.1
		s0.3,0.2,0.4,0.4v-1.8h1.1V365.6z"/>
	<path class="st0" d="M282.1,368.7c0.1,0.1,0.1,0.2,0.2,0.3c0,0.1,0.1,0.2,0.1,0.4c0,0.1,0,0.3,0,0.4s0,0.3,0,0.5v2.7
		c0,0.3-0.1,0.5-0.2,0.8c-0.1,0.2-0.3,0.5-0.4,0.6c-0.2,0.2-0.4,0.3-0.6,0.4s-0.5,0.2-0.8,0.2h-1.1c-0.3,0-0.5-0.1-0.8-0.2
		c-0.2-0.1-0.5-0.3-0.6-0.4c-0.2-0.2-0.3-0.4-0.4-0.6s-0.2-0.5-0.2-0.8v-2.1h1.1v2.2c0,0.1,0,0.2,0.1,0.4c0,0.1,0.1,0.2,0.2,0.3
		c0.1,0.1,0.2,0.1,0.3,0.2c0.1,0,0.2,0.1,0.4,0.1h1.1c0.1,0,0.2,0,0.4-0.1c0.1,0,0.2-0.1,0.3-0.2c0.1-0.1,0.1-0.2,0.2-0.3
		c0-0.1,0.1-0.2,0.1-0.4v-2.8c0-0.1,0-0.3,0-0.4s0-0.2,0-0.3s0-0.1,0-0.2c0,0,0-0.1-0.1-0.1c-0.1-0.1-0.2-0.2-0.4-0.4
		c-0.2-0.2-0.5-0.3-0.8-0.6l0,0c-0.2-0.1-0.4-0.3-0.6-0.4s-0.3-0.2-0.4-0.3c-0.1-0.1-0.2-0.2-0.3-0.3c-0.1-0.1-0.2-0.2-0.2-0.3
		c-0.1-0.1-0.1-0.2-0.2-0.3c0-0.1-0.1-0.2-0.1-0.4c0-0.1,0-0.3,0-0.4s0-0.3,0-0.5h1.1c0,0.1,0,0.3,0,0.4s0,0.2,0,0.3
		c0,0.1,0,0.1,0,0.2c0,0,0,0.1,0.1,0.1c0.1,0.1,0.2,0.2,0.4,0.4c0.2,0.1,0.5,0.3,0.8,0.6l0,0c0.2,0.1,0.4,0.3,0.6,0.4
		s0.3,0.2,0.4,0.3c0.1,0.1,0.2,0.2,0.3,0.3C282,368.5,282.1,368.6,282.1,368.7z"/>
	<path class="st0" d="M290.4,369.4c0.2,0.1,0.5,0.2,0.6,0.4c0.2,0.2,0.3,0.4,0.4,0.6s0.2,0.5,0.2,0.8v3.5h-1.1v-3.6
		c0-0.1,0-0.2-0.1-0.4c0-0.1-0.1-0.2-0.2-0.3c-0.1-0.1-0.2-0.1-0.3-0.2c-0.1,0-0.2-0.1-0.4-0.1H289c-0.1,0-0.2,0-0.4,0.1
		c-0.1,0-0.2,0.1-0.3,0.2c-0.1,0.1-0.1,0.2-0.2,0.3c0,0.1-0.1,0.2-0.1,0.4v1.9h-1v-1.9c0-0.1,0-0.2-0.1-0.4c0-0.1-0.1-0.2-0.2-0.3
		c-0.1-0.1-0.2-0.1-0.3-0.2c-0.1,0-0.2-0.1-0.3-0.1h-0.5c-0.1,0-0.2,0-0.4,0.1c-0.1,0-0.2,0.1-0.3,0.2c-0.1,0.1-0.1,0.2-0.2,0.3
		c0,0.1-0.1,0.2-0.1,0.4v3.6h-1.1V369c0-0.4,0.1-0.7,0.2-1s0.3-0.6,0.6-0.8c0.2-0.2,0.5-0.4,0.8-0.6c0.3-0.1,0.7-0.2,1-0.2h2.5
		c0.1,0,0.2,0,0.2,0c0.1,0,0.1-0.1,0.2-0.1c0.1-0.1,0.1-0.1,0.1-0.2s0.1-0.2,0.1-0.2v-0.3h1.1v0.2c0,0.2,0,0.5-0.1,0.7
		s-0.2,0.4-0.4,0.5c-0.2,0.2-0.3,0.3-0.5,0.4s-0.4,0.1-0.7,0.1h-2.5c-0.2,0-0.4,0-0.6,0.1s-0.3,0.2-0.5,0.3
		c-0.1,0.1-0.2,0.3-0.3,0.5c-0.1,0.2-0.1,0.4-0.1,0.6v0.4c0.3-0.1,0.6-0.2,0.9-0.2h0.5c0.3,0,0.6,0.1,0.8,0.2
		c0.2,0.1,0.5,0.3,0.7,0.5c0.2-0.2,0.4-0.3,0.7-0.5c0.3-0.1,0.5-0.2,0.8-0.2h0.5C289.9,369.3,290.1,369.3,290.4,369.4z"/>
	<path class="st0" d="M298.8,365.5c0.3,0,0.5,0.1,0.8,0.2c0.2,0.1,0.5,0.3,0.6,0.4c0.2,0.2,0.3,0.4,0.4,0.6s0.2,0.5,0.2,0.8v7.3
		h-1.1v-7.4c0-0.1,0-0.2-0.1-0.4c0-0.1-0.1-0.2-0.2-0.3c-0.1-0.1-0.2-0.1-0.3-0.2c-0.1,0-0.2-0.1-0.4-0.1h-0.5c-0.1,0-0.2,0-0.4,0.1
		c-0.1,0-0.2,0.1-0.3,0.2c-0.1,0.1-0.1,0.2-0.2,0.3c0,0.1-0.1,0.2-0.1,0.4v0.1v5.4c0,0.3-0.1,0.5-0.2,0.8c-0.1,0.2-0.2,0.5-0.4,0.6
		c-0.2,0.2-0.4,0.3-0.6,0.4s-0.5,0.2-0.8,0.2h-0.5c-0.3,0-0.5-0.1-0.8-0.2c-0.2-0.1-0.5-0.3-0.6-0.4c-0.2-0.2-0.3-0.4-0.4-0.6
		s-0.2-0.5-0.2-0.8v-5.4c0-0.3,0.1-0.5,0.2-0.8c0.1-0.2,0.3-0.5,0.4-0.6s0.4-0.3,0.6-0.4s0.5-0.2,0.8-0.2h0.5c0.3,0,0.6,0.1,0.8,0.2
		c0.2,0.1,0.5,0.3,0.7,0.5c0.2-0.2,0.4-0.3,0.7-0.5c0.2-0.1,0.5-0.2,0.8-0.2H298.8z M296.2,367.5L296.2,367.5c0-0.2,0-0.3-0.1-0.4
		c0-0.1-0.1-0.2-0.2-0.3c-0.1-0.1-0.2-0.1-0.3-0.2c-0.1,0-0.2-0.1-0.4-0.1h-0.5c-0.1,0-0.2,0-0.4,0.1c-0.1,0-0.2,0.1-0.3,0.2
		c-0.1,0.1-0.1,0.2-0.2,0.3c0,0.1-0.1,0.2-0.1,0.4v5.6c0,0.1,0,0.2,0.1,0.4c0,0.1,0.1,0.2,0.2,0.3c0.1,0.1,0.2,0.1,0.3,0.2
		c0.1,0,0.2,0.1,0.4,0.1h0.5c0.1,0,0.2,0,0.4-0.1c0.1,0,0.2-0.1,0.3-0.2c0.1-0.1,0.1-0.2,0.2-0.3c0-0.1,0.1-0.2,0.1-0.4V367.5z"/>
	<path class="st0" d="M306.3,369.8c0.1,0,0.2,0.1,0.2,0.2c0.1,0.1,0.2,0.2,0.2,0.4c0.1,0.1,0.1,0.3,0.2,0.5c0,0.2,0.1,0.4,0.1,0.5
		v1.6c0,0.3-0.1,0.5-0.2,0.8c-0.1,0.2-0.2,0.5-0.4,0.6c-0.2,0.2-0.4,0.3-0.6,0.4s-0.5,0.2-0.8,0.2h-1.1c-0.3,0-0.5-0.1-0.8-0.2
		c-0.2-0.1-0.5-0.3-0.6-0.4c-0.2-0.2-0.3-0.4-0.4-0.6s-0.2-0.5-0.2-0.8v-1h1.1v1.1c0,0.1,0,0.2,0.1,0.4c0,0.1,0.1,0.2,0.2,0.3
		c0.1,0.1,0.2,0.1,0.3,0.2c0.1,0,0.2,0.1,0.3,0.1h1.1c0.1,0,0.2,0,0.4-0.1c0.1,0,0.2-0.1,0.3-0.2c0.1-0.1,0.1-0.2,0.2-0.3
		c0-0.1,0.1-0.2,0.1-0.4v-1.8c0-0.1,0-0.2-0.1-0.4c0-0.1-0.1-0.2-0.2-0.3c-0.1-0.1-0.2-0.1-0.3-0.2c-0.1,0-0.2-0.1-0.4-0.1h-0.9v-1
		h0.8c0.1,0,0.2,0,0.4-0.1c0.1,0,0.2-0.1,0.3-0.2c0.1-0.1,0.1-0.2,0.2-0.3c0-0.1,0.1-0.2,0.1-0.4v-1c0-0.1,0-0.2-0.1-0.4
		c0-0.1-0.1-0.2-0.2-0.3c-0.1-0.1-0.2-0.1-0.3-0.2c-0.1,0-0.2-0.1-0.4-0.1h-0.8c-0.1,0-0.2,0-0.4,0.1c-0.1,0-0.2,0.1-0.3,0.2
		c-0.1,0.1-0.1,0.2-0.2,0.3c0,0.1-0.1,0.2-0.1,0.4v1.1H302v-1c0-0.3,0.1-0.5,0.2-0.8c0.1-0.2,0.3-0.5,0.4-0.6
		c0.2-0.2,0.4-0.3,0.6-0.4s0.5-0.2,0.8-0.2h0.8c0.3,0,0.5,0.1,0.8,0.2c0.2,0.1,0.5,0.3,0.6,0.4s0.3,0.4,0.4,0.6s0.2,0.5,0.2,0.8v0.8
		c0,0.3-0.1,0.6-0.2,0.8C306.6,369.4,306.5,369.6,306.3,369.8z"/>
	<path class="st0" d="M312.1,365.7c0.2,0.1,0.5,0.3,0.6,0.4c0.2,0.2,0.3,0.4,0.4,0.6s0.2,0.5,0.2,0.8v5.4c0,0.3-0.1,0.5-0.2,0.8
		c-0.1,0.2-0.3,0.5-0.4,0.6c-0.2,0.2-0.4,0.3-0.6,0.4s-0.5,0.2-0.8,0.2h-1.1c-0.3,0-0.5-0.1-0.8-0.2c-0.2-0.1-0.5-0.3-0.6-0.4
		c-0.2-0.2-0.3-0.4-0.4-0.6s-0.2-0.5-0.2-0.8v-1h1.1v1.1c0,0.1,0,0.2,0.1,0.4c0,0.1,0.1,0.2,0.2,0.3c0.1,0.1,0.2,0.1,0.3,0.2
		c0.1,0,0.2,0.1,0.4,0.1h1.1c0.1,0,0.2,0,0.4-0.1c0.1,0,0.2-0.1,0.3-0.2c0.1-0.1,0.1-0.2,0.2-0.3c0-0.1,0.1-0.2,0.1-0.4v-5.6
		c0-0.1,0-0.2-0.1-0.4c0-0.1-0.1-0.2-0.2-0.3c-0.1-0.1-0.2-0.1-0.3-0.2c-0.1,0-0.2-0.1-0.4-0.1h-1c-0.1,0-0.2,0-0.4,0.1
		c-0.1,0-0.2,0.1-0.3,0.2c-0.1,0.1-0.1,0.2-0.2,0.3c0,0.1-0.1,0.2-0.1,0.4v1.1h-1.1v-1c0-0.3,0.1-0.5,0.2-0.8
		c0.1-0.2,0.2-0.5,0.4-0.6c0.2-0.2,0.4-0.3,0.6-0.4s0.5-0.2,0.8-0.2h1C311.6,365.5,311.8,365.6,312.1,365.7z"/>
	<path class="st0" d="M323.8,365.7c0.2,0.1,0.5,0.3,0.6,0.4c0.2,0.2,0.3,0.4,0.4,0.6s0.2,0.5,0.2,0.8v4.3h-1v-4.4
		c0-0.1,0-0.2-0.1-0.4c0-0.1-0.1-0.2-0.2-0.3c-0.1-0.1-0.2-0.1-0.3-0.2c-0.1,0-0.2-0.1-0.4-0.1h-0.3c-0.1,0-0.2,0-0.4,0.1
		c-0.1,0-0.2,0.1-0.3,0.2c-0.1,0.1-0.1,0.2-0.2,0.3c0,0.1-0.1,0.2-0.1,0.4v3h-1.1v-3c0-0.1,0-0.2-0.1-0.4c0-0.1-0.1-0.2-0.2-0.3
		c-0.1-0.1-0.2-0.1-0.3-0.2c-0.1,0-0.2-0.1-0.4-0.1h-0.3c-0.1,0-0.2,0-0.4,0.1c-0.1,0-0.2,0.1-0.3,0.2c-0.1,0.1-0.1,0.2-0.2,0.3
		c0,0.1-0.1,0.2-0.1,0.4v3h-1.1v-3c0-0.1,0-0.2-0.1-0.4c0-0.1-0.1-0.2-0.2-0.3c-0.1-0.1-0.2-0.1-0.3-0.2c-0.1,0-0.2-0.1-0.4-0.1H316
		c-0.1,0-0.2,0-0.3,0.1c-0.1,0-0.2,0.1-0.3,0.2c-0.1,0.1-0.1,0.2-0.2,0.3c0,0.1-0.1,0.2-0.1,0.4v4c0,0.2,0,0.4,0.1,0.6
		c0,0.2,0.1,0.3,0.2,0.5c0.1,0.1,0.2,0.2,0.4,0.3c0.1,0.1,0.3,0.1,0.5,0.1h5.4c0.2,0,0.5,0,0.7,0.1s0.4,0.2,0.6,0.4
		c0.2,0.2,0.3,0.3,0.4,0.6c0.1,0.2,0.1,0.4,0.1,0.7v0.2h-1.1v-0.3c0-0.1,0-0.2,0-0.2c0-0.1-0.1-0.1-0.1-0.2
		c-0.1-0.1-0.1-0.1-0.2-0.1s-0.2,0-0.2,0h-5.4c-0.4,0-0.7-0.1-1-0.2s-0.5-0.3-0.7-0.6c-0.2-0.2-0.4-0.5-0.5-0.8s-0.2-0.7-0.2-1v-3.7
		c0-0.3,0.1-0.5,0.2-0.8c0.1-0.2,0.3-0.5,0.4-0.6c0.2-0.2,0.4-0.3,0.6-0.4s0.5-0.2,0.8-0.2h0.2c0.3,0,0.6,0.1,0.8,0.2
		c0.3,0.1,0.5,0.3,0.7,0.5c0.2-0.2,0.4-0.3,0.7-0.5c0.2-0.1,0.5-0.2,0.8-0.2h0.3c0.3,0,0.6,0.1,0.8,0.2c0.2,0.1,0.5,0.3,0.7,0.5
		c0.2-0.2,0.4-0.3,0.7-0.5c0.3-0.1,0.5-0.2,0.8-0.2h0.3C323.3,365.5,323.6,365.6,323.8,365.7z"/>
	<path class="st0" d="M333,365.7c0.2,0.1,0.5,0.3,0.6,0.4c0.2,0.2,0.3,0.4,0.4,0.6s0.2,0.5,0.2,0.8v7.3h-1.1v-7.4
		c0-0.1,0-0.2-0.1-0.4c0-0.1-0.1-0.2-0.2-0.3c-0.1-0.1-0.2-0.1-0.3-0.2c-0.1,0-0.2-0.1-0.4-0.1h-0.5c-0.1,0-0.2,0-0.4,0.1
		c-0.1,0-0.2,0.1-0.3,0.2c-0.1,0.1-0.1,0.2-0.2,0.3c0,0.1-0.1,0.2-0.1,0.4v4.2h-1.1v-4.2c0-0.1,0-0.2-0.1-0.4c0-0.1-0.1-0.2-0.2-0.3
		c-0.1-0.1-0.2-0.1-0.3-0.2c-0.1,0-0.2-0.1-0.4-0.1H328c-0.1,0-0.2,0-0.4,0.1c-0.1,0-0.2,0.1-0.3,0.2c-0.1,0.1-0.1,0.2-0.2,0.3
		c0,0.1-0.1,0.2-0.1,0.4v7.4h-1.1v-7.3c0-0.3,0.1-0.5,0.2-0.8c0.1-0.2,0.3-0.5,0.4-0.6c0.2-0.2,0.4-0.3,0.6-0.4s0.5-0.2,0.8-0.2h0.5
		c0.3,0,0.6,0.1,0.8,0.2c0.3,0.1,0.5,0.3,0.7,0.5c0.2-0.2,0.4-0.3,0.7-0.5c0.3-0.1,0.5-0.2,0.8-0.2h0.5
		C332.5,365.5,332.7,365.6,333,365.7z"/>
	<path class="st0" d="M336.6,374.8c-0.2-0.1-0.5-0.3-0.6-0.4c-0.2-0.2-0.3-0.4-0.4-0.6s-0.2-0.5-0.2-0.8v-7.3h1.1v7.4
		c0,0.1,0,0.2,0.1,0.4c0,0.1,0.1,0.2,0.2,0.3c0.1,0.1,0.2,0.1,0.3,0.2c0.1,0,0.2,0.1,0.4,0.1h1.1c0.1,0,0.2,0,0.4-0.1
		c0.1,0,0.2-0.1,0.3-0.2c0.1-0.1,0.1-0.2,0.2-0.3c0-0.1,0.1-0.2,0.1-0.3c0-0.2,0-0.4-0.1-0.6s-0.1-0.4-0.2-0.5
		c-0.1-0.2-0.1-0.4-0.2-0.6s-0.1-0.4-0.1-0.6s0-0.4,0-0.6s0-0.3,0.1-0.4c0-0.1,0.1-0.3,0.1-0.3h1.1c0,0.1-0.1,0.3-0.1,0.4
		s0,0.3-0.1,0.4c0,0.2,0,0.3,0,0.5s0,0.3,0.1,0.5c0.1,0.1,0.1,0.3,0.2,0.5s0.1,0.4,0.2,0.6s0.1,0.4,0.1,0.7c0,0.3-0.1,0.5-0.2,0.8
		c-0.1,0.2-0.2,0.5-0.4,0.6c-0.2,0.2-0.4,0.3-0.6,0.4s-0.5,0.2-0.8,0.2h-1.1C337.1,374.9,336.8,374.9,336.6,374.8z"/>
	<path class="st0" d="M349.9,365.7c0.2,0.1,0.5,0.3,0.6,0.4c0.2,0.2,0.3,0.4,0.4,0.6s0.2,0.5,0.2,0.8v7.3H350v-7.4
		c0-0.1,0-0.2-0.1-0.4c0-0.1-0.1-0.2-0.2-0.3c-0.1-0.1-0.2-0.1-0.3-0.2c-0.1,0-0.2-0.1-0.4-0.1h-1c-0.1,0-0.2,0-0.4,0.1
		c-0.1,0-0.2,0.1-0.3,0.2c-0.1,0.1-0.1,0.2-0.2,0.3c0,0.1-0.1,0.2-0.1,0.4v7.4h-1v-7.3c0-0.3,0.1-0.5,0.2-0.8
		c0.1-0.2,0.2-0.5,0.4-0.6c0.2-0.2,0.4-0.3,0.6-0.4s0.5-0.2,0.8-0.2h1.1C349.4,365.5,349.7,365.6,349.9,365.7z"/>
	<path class="st0" d="M355.4,369.3c0.3,0,0.5,0.1,0.8,0.2c0.2,0.1,0.5,0.2,0.6,0.4c0.2,0.2,0.3,0.4,0.4,0.6s0.2,0.5,0.2,0.8v1.6
		c0,0.3-0.1,0.5-0.2,0.8c-0.1,0.2-0.3,0.5-0.4,0.6c-0.2,0.2-0.4,0.3-0.6,0.4s-0.5,0.2-0.8,0.2h-1.1c-0.3,0-0.5-0.1-0.8-0.2
		c-0.2-0.1-0.5-0.3-0.6-0.4c-0.2-0.2-0.3-0.4-0.4-0.6s-0.2-0.5-0.2-0.8v-1.6v-3.8c0-0.3,0.1-0.5,0.2-0.8c0.1-0.2,0.2-0.5,0.4-0.6
		s0.4-0.3,0.6-0.4s0.5-0.2,0.8-0.2c0.2,0,0.4,0,0.5,0s0.2,0,0.3,0.1c0.1,0,0.2,0.1,0.3,0.1c0.1,0,0.2,0,0.4,0c0.2,0,0.3,0,0.5,0
		s0.3,0,0.5-0.1c0.2,0,0.3-0.1,0.5-0.1v1c-0.1,0-0.3,0.1-0.5,0.1c-0.1,0-0.3,0-0.5,0.1c-0.2,0-0.4,0-0.5,0c-0.2,0-0.3,0-0.5,0
		c-0.1,0-0.3,0-0.4-0.1c-0.1,0-0.2-0.1-0.3-0.1c-0.1,0-0.2,0-0.3,0c-0.1,0-0.2,0-0.4,0.1c-0.1,0-0.2,0.1-0.3,0.2
		c-0.1,0.1-0.1,0.2-0.2,0.3c0,0.1-0.1,0.2-0.1,0.4v2.2c0.1-0.1,0.3-0.2,0.4-0.3c0.2-0.1,0.3-0.1,0.5-0.1L355.4,369.3L355.4,369.3z
		 M356.3,371.2c0-0.1,0-0.2-0.1-0.4c0-0.1-0.1-0.2-0.2-0.3c-0.1-0.1-0.2-0.1-0.3-0.2c-0.1,0-0.2-0.1-0.4-0.1h-1.1
		c-0.1,0-0.2,0-0.4,0.1c-0.1,0-0.2,0.1-0.3,0.2c-0.1,0.1-0.1,0.2-0.2,0.3c0,0.1-0.1,0.2-0.1,0.4v1.8c0,0.1,0,0.2,0.1,0.4
		c0,0.1,0.1,0.2,0.2,0.3c0.1,0.1,0.2,0.1,0.3,0.2c0.1,0,0.2,0.1,0.4,0.1h1.1c0.1,0,0.2,0,0.4-0.1c0.1,0,0.2-0.1,0.3-0.2
		c0.1-0.1,0.1-0.2,0.2-0.3c0-0.1,0.1-0.2,0.1-0.4V371.2z"/>
	<path class="st0" d="M365.4,365.7c0.2,0.1,0.5,0.3,0.6,0.4s0.3,0.4,0.4,0.6s0.2,0.5,0.2,0.8v7.3h-1.1v-7.4c0-0.1,0-0.2-0.1-0.4
		c0-0.1-0.1-0.2-0.2-0.3c-0.1-0.1-0.2-0.1-0.3-0.2c-0.1,0-0.2-0.1-0.4-0.1H364c-0.1,0-0.2,0-0.4,0.1c-0.1,0-0.2,0.1-0.3,0.2
		c-0.1,0.1-0.1,0.2-0.2,0.3c0,0.1-0.1,0.2-0.1,0.4v4.2h-1v-4.2c0-0.1,0-0.2-0.1-0.4c0-0.1-0.1-0.2-0.2-0.3c-0.1-0.1-0.2-0.1-0.3-0.2
		c-0.1,0-0.2-0.1-0.4-0.1h-0.5c-0.1,0-0.2,0-0.4,0.1c-0.1,0-0.2,0.1-0.3,0.2c-0.1,0.1-0.1,0.2-0.2,0.3c0,0.1-0.1,0.2-0.1,0.4v7.4
		h-1.1v-7.3c0-0.3,0.1-0.5,0.2-0.8c0.1-0.2,0.3-0.5,0.4-0.6s0.4-0.3,0.6-0.4s0.5-0.2,0.8-0.2h0.5c0.3,0,0.6,0.1,0.8,0.2
		c0.3,0.1,0.5,0.3,0.7,0.5c0.2-0.2,0.4-0.3,0.7-0.5c0.3-0.1,0.5-0.2,0.8-0.2h0.5C364.8,365.5,365.1,365.6,365.4,365.7z"/>
	<path class="st0" d="M372.1,369.8c0.1,0,0.2,0.1,0.2,0.2c0.1,0.1,0.2,0.2,0.2,0.4c0.1,0.1,0.1,0.3,0.2,0.5c0,0.2,0.1,0.4,0.1,0.5
		v1.6c0,0.3-0.1,0.5-0.2,0.8c-0.1,0.2-0.2,0.5-0.4,0.6c-0.2,0.2-0.4,0.3-0.6,0.4s-0.5,0.2-0.8,0.2h-1.1c-0.3,0-0.5-0.1-0.8-0.2
		s-0.5-0.3-0.6-0.4c-0.2-0.2-0.3-0.4-0.4-0.6s-0.2-0.5-0.2-0.8v-1h1.1v1.1c0,0.1,0,0.2,0.1,0.4c0,0.1,0.1,0.2,0.2,0.3
		c0.1,0.1,0.2,0.1,0.3,0.2c0.1,0,0.2,0.1,0.3,0.1h1.1c0.1,0,0.2,0,0.4-0.1c0.1,0,0.2-0.1,0.3-0.2c0.1-0.1,0.1-0.2,0.2-0.3
		c0-0.1,0.1-0.2,0.1-0.4v-1.8c0-0.1,0-0.2-0.1-0.4c0-0.1-0.1-0.2-0.2-0.3c-0.1-0.1-0.2-0.1-0.3-0.2c-0.1,0-0.2-0.1-0.4-0.1h-0.9v-1
		h0.8c0.1,0,0.2,0,0.4-0.1c0.1,0,0.2-0.1,0.3-0.2c0.1-0.1,0.1-0.2,0.2-0.3c0-0.1,0.1-0.2,0.1-0.4v-1c0-0.1,0-0.2-0.1-0.4
		c0-0.1-0.1-0.2-0.2-0.3c-0.1-0.1-0.2-0.1-0.3-0.2c-0.1,0-0.2-0.1-0.4-0.1h-0.8c-0.1,0-0.2,0-0.4,0.1c-0.1,0-0.2,0.1-0.3,0.2
		c-0.1,0.1-0.1,0.2-0.2,0.3c0,0.1-0.1,0.2-0.1,0.4v1.1h-1.1v-1c0-0.3,0.1-0.5,0.2-0.8c0.1-0.2,0.3-0.5,0.4-0.6
		c0.2-0.2,0.4-0.3,0.6-0.4s0.5-0.2,0.8-0.2h0.8c0.3,0,0.5,0.1,0.8,0.2c0.2,0.1,0.5,0.3,0.6,0.4s0.3,0.4,0.4,0.6s0.2,0.5,0.2,0.8v0.8
		c0,0.3-0.1,0.6-0.2,0.8C372.4,369.4,372.3,369.6,372.1,369.8z"/>
	<path class="st0" d="M378.8,368.7c0.1,0.1,0.1,0.2,0.2,0.3c0,0.1,0.1,0.2,0.1,0.4c0,0.1,0,0.3,0,0.4s0,0.3,0,0.5v2.7
		c0,0.3-0.1,0.5-0.2,0.8c-0.1,0.2-0.3,0.5-0.4,0.6c-0.2,0.2-0.4,0.3-0.6,0.4s-0.5,0.2-0.8,0.2H376c-0.3,0-0.5-0.1-0.8-0.2
		c-0.2-0.1-0.5-0.3-0.6-0.4c-0.2-0.2-0.3-0.4-0.4-0.6s-0.2-0.5-0.2-0.8v-2.1h1.1v2.2c0,0.1,0,0.2,0.1,0.4c0,0.1,0.1,0.2,0.2,0.3
		c0.1,0.1,0.2,0.1,0.3,0.2c0.1,0,0.2,0.1,0.4,0.1h1.1c0.1,0,0.2,0,0.4-0.1c0.1,0,0.2-0.1,0.3-0.2c0.1-0.1,0.1-0.2,0.2-0.3
		c0-0.1,0.1-0.2,0.1-0.4v-2.8c0-0.1,0-0.3,0-0.4s0-0.2,0-0.3c0-0.1,0-0.1,0-0.2c0,0,0-0.1-0.1-0.1c-0.1-0.1-0.2-0.2-0.4-0.4
		c-0.2-0.2-0.5-0.3-0.8-0.6l0,0c-0.2-0.1-0.4-0.3-0.6-0.4s-0.3-0.2-0.4-0.3c-0.1-0.1-0.2-0.2-0.3-0.3c-0.1-0.1-0.2-0.2-0.2-0.3
		c-0.1-0.1-0.1-0.2-0.2-0.3c0-0.1-0.1-0.2-0.1-0.4c0-0.1,0-0.3,0-0.4s0-0.3,0-0.5h1.1c0,0.1,0,0.3,0,0.4s0,0.2,0,0.3
		c0,0.1,0,0.1,0,0.2c0,0,0,0.1,0.1,0.1c0.1,0.1,0.2,0.2,0.4,0.4c0.2,0.1,0.5,0.3,0.8,0.6l0,0c0.2,0.1,0.4,0.3,0.6,0.4
		s0.3,0.2,0.4,0.3c0.1,0.1,0.2,0.2,0.3,0.3C378.7,368.5,378.7,368.6,378.8,368.7z"/>
	<path class="st0" d="M385.2,369.8c0.1,0,0.2,0.1,0.2,0.2c0.1,0.1,0.2,0.2,0.2,0.4c0.1,0.1,0.1,0.3,0.2,0.5s0.1,0.4,0.1,0.5v1.6
		c0,0.3-0.1,0.5-0.2,0.8c-0.1,0.2-0.3,0.5-0.4,0.6c-0.2,0.2-0.4,0.3-0.6,0.4s-0.5,0.2-0.8,0.2h-1.7c-0.3,0-0.5-0.1-0.8-0.2
		c-0.2-0.1-0.5-0.3-0.6-0.4c-0.2-0.2-0.3-0.4-0.4-0.6s-0.2-0.5-0.2-0.8v-7.3h1.1v7.4c0,0.1,0,0.2,0.1,0.4c0,0.1,0.1,0.2,0.2,0.3
		c0.1,0.1,0.2,0.1,0.3,0.2c0.1,0,0.2,0.1,0.3,0.1h1.7c0.1,0,0.2,0,0.4-0.1c0.1,0,0.2-0.1,0.3-0.2c0.1-0.1,0.1-0.2,0.2-0.3
		c0-0.1,0.1-0.2,0.1-0.4v-1.8c0-0.1,0-0.2-0.1-0.4c0-0.1-0.1-0.2-0.2-0.3c-0.1-0.1-0.2-0.1-0.3-0.2c-0.1,0-0.2-0.1-0.4-0.1H383v-1
		h0.8c0.1,0,0.2,0,0.4-0.1c0.1,0,0.2-0.1,0.3-0.2c0.1-0.1,0.1-0.2,0.2-0.3c0-0.1,0.1-0.2,0.1-0.4c0-0.2,0-0.4,0-0.5
		s-0.1-0.2-0.2-0.3c-0.1-0.1-0.2-0.1-0.3-0.2c-0.1-0.1-0.3-0.1-0.5-0.2s-0.4-0.1-0.5-0.2c-0.1,0-0.2-0.1-0.3-0.1
		c-0.1,0-0.2-0.1-0.2-0.2c-0.1-0.1-0.1-0.1-0.2-0.2s-0.2-0.3-0.2-0.4s-0.1-0.3-0.1-0.4h1.1v0.1c0,0.1,0,0.1,0,0.1l0.1,0.1
		c0,0,0.1,0.1,0.2,0.1s0.2,0.1,0.4,0.1c0.2,0.1,0.4,0.1,0.6,0.2c0.3,0.1,0.5,0.2,0.6,0.3c0.2,0.1,0.3,0.2,0.4,0.4
		c0.1,0.1,0.1,0.3,0.2,0.5c0,0.2,0,0.4,0,0.7c0,0.3-0.1,0.5-0.2,0.7C385.5,369.4,385.4,369.6,385.2,369.8z"/>
	<path class="st0" d="M391,365.7c0.2,0.1,0.5,0.3,0.6,0.4c0.2,0.2,0.3,0.4,0.4,0.6s0.2,0.5,0.2,0.8v7.3h-1.1v-7.4
		c0-0.1,0-0.2-0.1-0.4c0-0.1-0.1-0.2-0.2-0.3c-0.1-0.1-0.2-0.1-0.3-0.2c-0.1,0-0.2-0.1-0.4-0.1H389c-0.1,0-0.2,0-0.4,0.1
		c-0.1,0-0.2,0.1-0.3,0.2c-0.1,0.1-0.1,0.2-0.2,0.3c0,0.1-0.1,0.2-0.1,0.4v7.4h-1.1v-7.3c0-0.3,0.1-0.5,0.2-0.8
		c0.1-0.2,0.2-0.5,0.4-0.6c0.2-0.2,0.4-0.3,0.6-0.4s0.5-0.2,0.8-0.2h1.1C390.5,365.5,390.7,365.6,391,365.7z"/>
	<path class="st0" d="M397.2,365.7c0.2,0.1,0.5,0.3,0.6,0.4s0.3,0.4,0.4,0.6s0.2,0.5,0.2,0.8v5.4c0,0.3-0.1,0.5-0.2,0.8
		c-0.1,0.2-0.3,0.5-0.4,0.6c-0.2,0.2-0.4,0.3-0.6,0.4s-0.5,0.2-0.8,0.2h-1.1c-0.3,0-0.5-0.1-0.8-0.2c-0.2-0.1-0.5-0.3-0.6-0.4
		c-0.2-0.2-0.3-0.4-0.4-0.6s-0.2-0.5-0.2-0.8v-1h1.1v1.1c0,0.1,0,0.2,0.1,0.4c0,0.1,0.1,0.2,0.2,0.3c0.1,0.1,0.2,0.1,0.3,0.2
		c0.1,0,0.2,0.1,0.4,0.1h1.1c0.1,0,0.2,0,0.4-0.1c0.1,0,0.2-0.1,0.3-0.2c0.1-0.1,0.1-0.2,0.2-0.3c0-0.1,0.1-0.2,0.1-0.4v-5.6
		c0-0.1,0-0.2-0.1-0.4c0-0.1-0.1-0.2-0.2-0.3c-0.1-0.1-0.2-0.1-0.3-0.2c-0.1,0-0.2-0.1-0.4-0.1h-1c-0.1,0-0.2,0-0.4,0.1
		c-0.1,0-0.2,0.1-0.3,0.2c-0.1,0.1-0.1,0.2-0.2,0.3c0,0.1-0.1,0.2-0.1,0.4v1.1h-1.1v-1c0-0.3,0.1-0.5,0.2-0.8
		c0.1-0.2,0.2-0.5,0.4-0.6c0.2-0.2,0.4-0.3,0.6-0.4s0.5-0.2,0.8-0.2h1C396.7,365.5,397,365.6,397.2,365.7z"/>
	<path class="st0" d="M402.8,369.3c0.3,0,0.5,0.1,0.7,0.2s0.4,0.3,0.6,0.4c0.2,0.2,0.3,0.4,0.4,0.6s0.1,0.5,0.1,0.8v1.6
		c0,0.3-0.1,0.5-0.2,0.8s-0.3,0.5-0.4,0.6c-0.2,0.2-0.4,0.3-0.6,0.4s-0.5,0.2-0.8,0.2h-1.1c-0.3,0-0.5-0.1-0.8-0.2
		c-0.2-0.1-0.5-0.3-0.6-0.4c-0.2-0.2-0.3-0.4-0.4-0.6s-0.2-0.5-0.2-0.8v-1.6c0-0.3,0.1-0.5,0.2-0.8c0.1-0.2,0.2-0.5,0.4-0.6
		c0.2-0.2,0.4-0.3,0.6-0.4s0.5-0.2,0.8-0.2h0.1v-1.5h-0.3c-0.2,0-0.5,0-0.7-0.1s-0.4-0.2-0.5-0.4c-0.2-0.2-0.3-0.3-0.4-0.5
		s-0.1-0.4-0.1-0.7v-0.5h1.1v0.5c0,0.1,0,0.2,0,0.2c0,0.1,0.1,0.1,0.1,0.2c0.1,0.1,0.1,0.1,0.2,0.1s0.2,0,0.2,0h1.2h0.1v0.1v2.6
		H402.8z M403.6,371.2c0-0.1,0-0.2-0.1-0.4c0-0.1-0.1-0.2-0.2-0.3c-0.1-0.1-0.2-0.1-0.3-0.2c-0.1,0-0.2-0.1-0.3-0.1h-1.1
		c-0.1,0-0.2,0-0.4,0.1c-0.1,0-0.2,0.1-0.3,0.2c-0.1,0.1-0.1,0.2-0.2,0.3c0,0.1-0.1,0.2-0.1,0.4v1.8c0,0.1,0,0.2,0.1,0.4
		c0,0.1,0.1,0.2,0.2,0.3c0.1,0.1,0.2,0.1,0.3,0.2c0.1,0,0.2,0.1,0.4,0.1h1.1c0.1,0,0.2,0,0.3-0.1c0.1,0,0.2-0.1,0.3-0.2
		c0.1-0.1,0.1-0.2,0.2-0.3c0-0.1,0.1-0.2,0.1-0.4V371.2z"/>
	<path class="st0" d="M409.8,365.7c0.2,0.1,0.5,0.3,0.6,0.4c0.2,0.2,0.3,0.4,0.4,0.6s0.2,0.5,0.2,0.8v7.3h-1.1v-7.4
		c0-0.1,0-0.2-0.1-0.4c0-0.1-0.1-0.2-0.2-0.3c-0.1-0.1-0.2-0.1-0.3-0.2c-0.1,0-0.2-0.1-0.4-0.1h-1.1c-0.1,0-0.2,0-0.4,0.1
		c-0.1,0-0.2,0.1-0.3,0.2c-0.1,0.1-0.1,0.2-0.2,0.3c0,0.1-0.1,0.2-0.1,0.4v7.4h-1.1v-7.3c0-0.3,0.1-0.5,0.2-0.8
		c0.1-0.2,0.2-0.5,0.4-0.6c0.2-0.2,0.4-0.3,0.6-0.4s0.5-0.2,0.8-0.2h1.1C409.2,365.5,409.5,365.6,409.8,365.7z"/>
	<path class="st0" d="M413.4,374.8c-0.2-0.1-0.5-0.3-0.6-0.4c-0.2-0.2-0.3-0.4-0.4-0.6s-0.2-0.5-0.2-0.8v-7.3h1.1v7.4
		c0,0.1,0,0.2,0.1,0.4c0,0.1,0.1,0.2,0.2,0.3c0.1,0.1,0.2,0.1,0.3,0.2c0.1,0,0.2,0.1,0.4,0.1h1.1c0.1,0,0.2,0,0.4-0.1
		c0.1,0,0.2-0.1,0.3-0.2c0.1-0.1,0.1-0.2,0.2-0.3c0-0.1,0.1-0.2,0.1-0.3c0-0.2,0-0.4-0.1-0.6s-0.1-0.4-0.2-0.5
		c-0.1-0.2-0.1-0.4-0.2-0.6s-0.1-0.4-0.1-0.6s0-0.4,0-0.6s0-0.3,0.1-0.4c0-0.1,0.1-0.3,0.1-0.3h1.1c0,0.1-0.1,0.3-0.1,0.4
		s0,0.3-0.1,0.4c0,0.2,0,0.3,0,0.5s0,0.3,0.1,0.5c0.1,0.1,0.1,0.3,0.2,0.5s0.1,0.4,0.2,0.6s0.1,0.4,0.1,0.7c0,0.3-0.1,0.5-0.2,0.8
		c-0.1,0.2-0.2,0.5-0.4,0.6c-0.2,0.2-0.4,0.3-0.6,0.4s-0.5,0.2-0.8,0.2h-1.1C413.9,374.9,413.6,374.9,413.4,374.8z"/>
	<path class="st0" d="M264.5,380.8c0.3,0,0.5,0.1,0.8,0.2s0.5,0.3,0.6,0.4c0.2,0.2,0.3,0.4,0.4,0.6s0.2,0.5,0.2,0.8v2.4
		c0,0.3-0.1,0.5-0.2,0.8c-0.1,0.2-0.3,0.5-0.4,0.6c-0.2,0.2-0.4,0.3-0.6,0.4s-0.5,0.2-0.8,0.2H264c-0.3,0-0.5-0.1-0.8-0.2
		s-0.5-0.3-0.6-0.4c-0.2-0.2-0.3-0.4-0.4-0.6s-0.2-0.5-0.2-0.8v-2.5c0-0.1,0-0.2-0.1-0.4c0-0.1-0.1-0.2-0.2-0.3
		c-0.1-0.1-0.2-0.1-0.3-0.2c-0.1,0-0.2-0.1-0.4-0.1h-0.5c-0.1,0-0.2,0-0.4,0.1c-0.1,0-0.2,0.1-0.3,0.2c-0.1,0.1-0.1,0.2-0.2,0.3
		c0,0.1-0.1,0.2-0.1,0.4v4c0,0.2,0,0.4,0.1,0.6s0.2,0.3,0.3,0.5c0.1,0.1,0.3,0.2,0.5,0.3c0.2,0.1,0.4,0.1,0.6,0.1h2.5
		c0.2,0,0.5,0,0.7,0.1s0.4,0.2,0.6,0.4c0.2,0.2,0.3,0.3,0.4,0.6c0.1,0.2,0.1,0.4,0.1,0.7v0.2h-1.1v-0.3c0-0.1,0-0.2,0-0.2
		c0-0.1-0.1-0.1-0.1-0.2c-0.1-0.1-0.1-0.1-0.2-0.1s-0.2,0-0.2,0h-2.5c-0.4,0-0.7-0.1-1-0.2s-0.6-0.3-0.8-0.6
		c-0.2-0.2-0.4-0.5-0.6-0.8c-0.1-0.3-0.2-0.7-0.2-1v-3.7c0-0.3,0.1-0.5,0.2-0.8c0.1-0.2,0.3-0.5,0.4-0.6c0.2-0.2,0.4-0.3,0.6-0.4
		s0.5-0.2,0.8-0.2h0.5c0.3,0,0.6,0.1,0.8,0.2c0.3,0.1,0.5,0.3,0.7,0.5c0.2-0.2,0.4-0.3,0.7-0.5c0.3-0.1,0.5-0.2,0.8-0.2h0.4V380.8z
		 M265.5,382.8c0-0.1,0-0.2-0.1-0.4c0-0.1-0.1-0.2-0.2-0.3c-0.1-0.1-0.2-0.1-0.3-0.2c-0.1,0-0.2-0.1-0.4-0.1H264
		c-0.1,0-0.2,0-0.4,0.1c-0.1,0-0.2,0.1-0.3,0.2c-0.1,0.1-0.1,0.2-0.2,0.3c0,0.1-0.1,0.2-0.1,0.4v2.6c0,0.1,0,0.2,0.1,0.4
		c0,0.1,0.1,0.2,0.2,0.3c0.1,0.1,0.2,0.1,0.3,0.2c0.1,0,0.2,0.1,0.4,0.1h0.5c0.1,0,0.2,0,0.4-0.1c0.1,0,0.2-0.1,0.3-0.2
		c0.1-0.1,0.1-0.2,0.2-0.3c0-0.1,0.1-0.2,0.1-0.4V382.8z"/>
	<path class="st0" d="M272.5,384c0.1,0.1,0.1,0.2,0.2,0.3c0,0.1,0.1,0.2,0.1,0.4c0,0.1,0,0.3,0,0.4s0,0.3,0,0.5v2.7
		c0,0.3-0.1,0.5-0.2,0.8c-0.1,0.2-0.3,0.5-0.4,0.6c-0.2,0.2-0.4,0.3-0.6,0.4s-0.5,0.2-0.8,0.2h-1.1c-0.3,0-0.5-0.1-0.8-0.2
		c-0.2-0.1-0.5-0.3-0.6-0.4c-0.2-0.2-0.3-0.4-0.4-0.6s-0.2-0.5-0.2-0.8v-2.1h1.1v2.2c0,0.1,0,0.2,0.1,0.4c0,0.1,0.1,0.2,0.2,0.3
		c0.1,0.1,0.2,0.1,0.3,0.2c0.1,0,0.2,0.1,0.4,0.1h1.1c0.1,0,0.2,0,0.4-0.1c0.1,0,0.2-0.1,0.3-0.2c0.1-0.1,0.1-0.2,0.2-0.3
		c0-0.1,0.1-0.2,0.1-0.4v-2.8c0-0.1,0-0.3,0-0.4s0-0.2,0-0.3c0-0.1,0-0.1,0-0.2c0,0,0-0.1-0.1-0.1c-0.1-0.1-0.2-0.2-0.4-0.4
		c-0.2-0.2-0.5-0.3-0.8-0.6l0,0c-0.2-0.1-0.4-0.3-0.6-0.4s-0.3-0.2-0.4-0.3c-0.1-0.1-0.2-0.2-0.3-0.3c-0.1-0.1-0.2-0.2-0.2-0.3
		c-0.1-0.1-0.1-0.2-0.2-0.3c0-0.1-0.1-0.2-0.1-0.4c0-0.1,0-0.3,0-0.4s0-0.3,0-0.5h1.1c0,0.1,0,0.3,0,0.4s0,0.2,0,0.3
		c0,0.1,0,0.1,0,0.2c0,0,0,0.1,0.1,0.1c0.1,0.1,0.2,0.2,0.4,0.4c0.2,0.1,0.5,0.3,0.8,0.6l0,0c0.2,0.1,0.4,0.3,0.6,0.4
		s0.3,0.2,0.4,0.3c0.1,0.1,0.2,0.2,0.3,0.3C272.4,383.8,272.5,383.9,272.5,384z"/>
	<path class="st0" d="M282.1,381.9c0.3,0,0.5,0.1,0.8,0.2c0.2,0.1,0.5,0.3,0.6,0.4c0.2,0.2,0.3,0.4,0.4,0.6s0.2,0.5,0.2,0.8v4.4
		c0,0.3-0.1,0.5-0.2,0.8c-0.1,0.2-0.3,0.5-0.4,0.6c-0.2,0.2-0.4,0.3-0.6,0.4s-0.5,0.2-0.8,0.2h-1.7c-0.3,0-0.5-0.1-0.8-0.2
		c-0.2-0.1-0.5-0.3-0.6-0.4c-0.2-0.2-0.3-0.4-0.4-0.6s-0.2-0.5-0.2-0.8v-4.4c0-0.3,0.1-0.5,0.2-0.8c0.1-0.2,0.3-0.5,0.4-0.6
		c0.2-0.2,0.4-0.3,0.6-0.4s0.5-0.2,0.8-0.2h0.3V381h1.1v0.9H282.1z M283,383.8c0-0.1,0-0.2-0.1-0.4c0-0.1-0.1-0.2-0.2-0.3
		c-0.1-0.1-0.2-0.1-0.3-0.2c-0.1,0-0.2-0.1-0.4-0.1h-0.3v2.9h-1.1v-2.9h-0.3c-0.1,0-0.2,0-0.4,0.1c-0.1,0-0.2,0.1-0.3,0.2
		s-0.1,0.2-0.2,0.3c0,0.1-0.1,0.2-0.1,0.4v4.5c0,0.1,0,0.2,0.1,0.4c0,0.1,0.1,0.2,0.2,0.3c0.1,0.1,0.2,0.1,0.3,0.2
		c0.1,0,0.2,0.1,0.4,0.1h1.7c0.1,0,0.2,0,0.4-0.1c0.1,0,0.2-0.1,0.3-0.2c0.1-0.1,0.1-0.2,0.2-0.3c0-0.1,0.1-0.2,0.1-0.4L283,383.8
		L283,383.8z"/>
	<path class="st0" d="M289.1,381c0.2,0.1,0.5,0.3,0.6,0.4c0.2,0.2,0.3,0.4,0.4,0.6s0.2,0.5,0.2,0.8v5.4c0,0.3-0.1,0.5-0.2,0.8
		c-0.1,0.2-0.3,0.5-0.4,0.6c-0.2,0.2-0.4,0.3-0.6,0.4s-0.5,0.2-0.8,0.2h-1.1c-0.3,0-0.5-0.1-0.8-0.2c-0.2-0.1-0.5-0.3-0.6-0.4
		c-0.2-0.2-0.3-0.4-0.4-0.6s-0.2-0.5-0.2-0.8v-1h1.1v1.1c0,0.1,0,0.2,0.1,0.4c0,0.1,0.1,0.2,0.2,0.3c0.1,0.1,0.2,0.1,0.3,0.2
		c0.1,0,0.2,0.1,0.4,0.1h1.1c0.1,0,0.2,0,0.4-0.1c0.1,0,0.2-0.1,0.3-0.2c0.1-0.1,0.1-0.2,0.2-0.3c0-0.1,0.1-0.2,0.1-0.4v-5.6
		c0-0.1,0-0.2-0.1-0.4c0-0.1-0.1-0.2-0.2-0.3c-0.1-0.1-0.2-0.1-0.3-0.2c-0.1,0-0.2-0.1-0.4-0.1h-1c-0.1,0-0.2,0-0.4,0.1
		c-0.1,0-0.2,0.1-0.3,0.2c-0.1,0.1-0.1,0.2-0.2,0.3c0,0.1-0.1,0.2-0.1,0.4v1.1h-1.1v-1c0-0.3,0.1-0.5,0.2-0.8
		c0.1-0.2,0.2-0.5,0.4-0.6c0.2-0.2,0.4-0.3,0.6-0.4s0.5-0.2,0.8-0.2h1C288.6,380.8,288.9,380.9,289.1,381z"/>
	<path class="st0" d="M296.6,380.9v7.3c0,0.3-0.1,0.5-0.2,0.8c-0.1,0.2-0.3,0.5-0.4,0.6c-0.2,0.2-0.4,0.3-0.6,0.4s-0.5,0.2-0.8,0.2
		h-1.1c-0.3,0-0.5-0.1-0.8-0.2c-0.2-0.1-0.5-0.3-0.6-0.4c-0.2-0.2-0.3-0.4-0.4-0.6s-0.2-0.5-0.2-0.8v-1h1.1v1.1c0,0.1,0,0.2,0.1,0.4
		c0,0.1,0.1,0.2,0.2,0.3c0.1,0.1,0.2,0.1,0.3,0.2c0.1,0,0.2,0.1,0.4,0.1h1.1c0.1,0,0.2,0,0.4-0.1c0.1,0,0.2-0.1,0.3-0.2
		c0.1-0.1,0.1-0.2,0.2-0.3c0-0.1,0.1-0.2,0.1-0.4v-4.1c0-0.1,0-0.2-0.1-0.4c0-0.1-0.1-0.2-0.2-0.3c-0.1-0.1-0.2-0.1-0.3-0.2
		c-0.1,0-0.2-0.1-0.4-0.1H294c-0.1,0-0.2,0-0.4,0.1c-0.1,0-0.2,0.1-0.3,0.2c-0.1,0.1-0.1,0.2-0.2,0.3s-0.1,0.2-0.1,0.4v0.4h-1.1
		v-0.3c0-0.3,0.1-0.5,0.2-0.8c0.1-0.2,0.2-0.5,0.4-0.6c0.2-0.2,0.4-0.3,0.6-0.4s0.5-0.2,0.8-0.2h0.6c0.2,0,0.3,0,0.5,0.1
		s0.3,0.2,0.4,0.4V381h1.2V380.9z"/>
	<path class="st0" d="M300.9,384.6c0.3,0,0.5,0.1,0.8,0.2c0.2,0.1,0.5,0.2,0.6,0.4c0.2,0.2,0.3,0.4,0.4,0.6s0.2,0.5,0.2,0.8v1.6
		c0,0.3-0.1,0.5-0.2,0.8c-0.1,0.2-0.3,0.5-0.4,0.6c-0.2,0.2-0.4,0.3-0.6,0.4s-0.5,0.2-0.8,0.2h-1.1c-0.3,0-0.5-0.1-0.8-0.2
		c-0.2-0.1-0.5-0.3-0.6-0.4c-0.2-0.2-0.3-0.4-0.4-0.6s-0.2-0.5-0.2-0.8v-1.6v-3.8c0-0.3,0.1-0.5,0.2-0.8c0.1-0.2,0.2-0.5,0.4-0.6
		c0.2-0.2,0.4-0.3,0.6-0.4s0.5-0.2,0.8-0.2c0.2,0,0.4,0,0.5,0s0.2,0,0.3,0.1c0.1,0,0.2,0.1,0.3,0.1c0.1,0,0.2,0,0.4,0
		c0.2,0,0.3,0,0.5,0s0.3,0,0.5-0.1c0.2,0,0.3-0.1,0.5-0.1v1c-0.1,0-0.3,0.1-0.5,0.1c-0.1,0-0.3,0-0.5,0.1c-0.2,0-0.4,0-0.5,0
		c-0.2,0-0.3,0-0.5,0c-0.1,0-0.3,0-0.4-0.1c-0.1,0-0.2-0.1-0.3-0.1c-0.1,0-0.2,0-0.3,0c-0.1,0-0.2,0-0.4,0.1c-0.1,0-0.2,0.1-0.3,0.2
		c-0.1,0.1-0.1,0.2-0.2,0.3c0,0.1-0.1,0.2-0.1,0.4v2.2c0.1-0.1,0.3-0.2,0.4-0.3c0.2-0.1,0.3-0.1,0.5-0.1L300.9,384.6L300.9,384.6z
		 M301.8,386.6c0-0.1,0-0.2-0.1-0.4c0-0.1-0.1-0.2-0.2-0.3c-0.1-0.1-0.2-0.1-0.3-0.2c-0.1,0-0.2-0.1-0.4-0.1h-1.1
		c-0.1,0-0.2,0-0.4,0.1c-0.1,0-0.2,0.1-0.3,0.2c-0.1,0.1-0.1,0.2-0.2,0.3c0,0.1-0.1,0.2-0.1,0.4v1.8c0,0.1,0,0.2,0.1,0.4
		c0,0.1,0.1,0.2,0.2,0.3c0.1,0.1,0.2,0.1,0.3,0.2c0.1,0,0.2,0.1,0.4,0.1h1.1c0.1,0,0.2,0,0.4-0.1c0.1,0,0.2-0.1,0.3-0.2
		c0.1-0.1,0.1-0.2,0.2-0.3c0-0.1,0.1-0.2,0.1-0.4V386.6z"/>
	<path class="st0" d="M310.8,381c0.2,0.1,0.5,0.3,0.6,0.4c0.2,0.2,0.3,0.4,0.4,0.6s0.2,0.5,0.2,0.8v7.3h-1.1v-7.4
		c0-0.1,0-0.2-0.1-0.4c0-0.1-0.1-0.2-0.2-0.3c-0.1-0.1-0.2-0.1-0.3-0.2c-0.1,0-0.2-0.1-0.4-0.1h-0.5c-0.1,0-0.2,0-0.4,0.1
		c-0.1,0-0.2,0.1-0.3,0.2c-0.1,0.1-0.1,0.2-0.2,0.3c0,0.1-0.1,0.2-0.1,0.4v4.2h-1.1v-4.2c0-0.1,0-0.2-0.1-0.4c0-0.1-0.1-0.2-0.2-0.3
		c-0.1-0.1-0.2-0.1-0.3-0.2c-0.1,0-0.2-0.1-0.4-0.1H306c-0.1,0-0.2,0-0.4,0.1c-0.1,0-0.2,0.1-0.3,0.2c-0.1,0.1-0.1,0.2-0.2,0.3
		c0,0.1-0.1,0.2-0.1,0.4v7.4h-1v-7.3c0-0.3,0.1-0.5,0.2-0.8c0.1-0.2,0.3-0.5,0.4-0.6c0.2-0.2,0.4-0.3,0.6-0.4s0.5-0.2,0.8-0.2h0.5
		c0.3,0,0.6,0.1,0.8,0.2c0.3,0.1,0.5,0.3,0.7,0.5c0.2-0.2,0.4-0.3,0.7-0.5c0.3-0.1,0.5-0.2,0.8-0.2h0.5
		C310.3,380.8,310.6,380.9,310.8,381z"/>
	<path class="st0" d="M322.6,381c0.2,0.1,0.5,0.3,0.6,0.4c0.2,0.2,0.3,0.4,0.4,0.6s0.2,0.5,0.2,0.8v4.3h-1.1v-4.4
		c0-0.1,0-0.2-0.1-0.4c0-0.1-0.1-0.2-0.2-0.3c-0.1-0.1-0.2-0.1-0.3-0.2c-0.1,0-0.2-0.1-0.4-0.1h-0.3c-0.1,0-0.2,0-0.4,0.1
		c-0.1,0-0.2,0.1-0.3,0.2c-0.1,0.1-0.1,0.2-0.2,0.3c0,0.1-0.1,0.2-0.1,0.4v3h-1.1v-3c0-0.1,0-0.2-0.1-0.4c0-0.1-0.1-0.2-0.2-0.3
		c-0.1-0.1-0.2-0.1-0.3-0.2c-0.1,0-0.2-0.1-0.4-0.1H318c-0.1,0-0.2,0-0.4,0.1c-0.1,0-0.2,0.1-0.3,0.2c-0.1,0.1-0.1,0.2-0.2,0.3
		c0,0.1-0.1,0.2-0.1,0.4v3h-1.1v-3c0-0.1,0-0.2-0.1-0.4c0-0.1-0.1-0.2-0.2-0.3c-0.1-0.1-0.2-0.1-0.3-0.2c-0.1,0-0.2-0.1-0.4-0.1
		h-0.2c-0.1,0-0.2,0-0.3,0.1c-0.1,0-0.2,0.1-0.3,0.2c-0.1,0.1-0.1,0.2-0.2,0.3c0,0.1-0.1,0.2-0.1,0.4v4c0,0.2,0,0.4,0.1,0.6
		c0,0.2,0.1,0.3,0.2,0.5c0.1,0.1,0.2,0.2,0.4,0.3c0.1,0.1,0.3,0.1,0.5,0.1h5.4c0.2,0,0.5,0,0.7,0.1s0.4,0.2,0.6,0.4
		c0.2,0.2,0.3,0.3,0.4,0.6c0.1,0.2,0.1,0.4,0.1,0.7v0.2h-1.1v-0.3c0-0.1,0-0.2-0.1-0.2c0-0.1-0.1-0.1-0.1-0.2
		c-0.1-0.1-0.1-0.1-0.2-0.1s-0.2,0-0.2,0h-5.4c-0.4,0-0.7-0.1-1-0.2s-0.5-0.3-0.7-0.6c-0.2-0.2-0.4-0.5-0.5-0.8s-0.2-0.7-0.2-1v-3.7
		c0-0.3,0.1-0.5,0.2-0.8c0.1-0.2,0.3-0.5,0.4-0.6c0.2-0.2,0.4-0.3,0.6-0.4s0.5-0.2,0.8-0.2h0.2c0.3,0,0.6,0.1,0.8,0.2
		c0.3,0.1,0.5,0.3,0.7,0.5c0.2-0.2,0.4-0.3,0.7-0.5c0.2-0.1,0.5-0.2,0.8-0.2h0.3c0.3,0,0.6,0.1,0.8,0.2c0.2,0.1,0.5,0.3,0.7,0.5
		c0.2-0.2,0.4-0.3,0.7-0.5c0.3-0.1,0.5-0.2,0.8-0.2h0.3C322.1,380.8,322.4,380.9,322.6,381z"/>
	<path class="st0" d="M331.7,381c0.2,0.1,0.5,0.3,0.6,0.4c0.2,0.2,0.3,0.4,0.4,0.6s0.2,0.5,0.2,0.8v7.3h-1.1v-7.4
		c0-0.1,0-0.2-0.1-0.4c0-0.1-0.1-0.2-0.2-0.3c-0.1-0.1-0.2-0.1-0.3-0.2c-0.1,0-0.2-0.1-0.4-0.1h-0.5c-0.1,0-0.2,0-0.4,0.1
		c-0.1,0-0.2,0.1-0.3,0.2c-0.1,0.1-0.1,0.2-0.2,0.3c0,0.1-0.1,0.2-0.1,0.4v4.2h-1.1v-4.2c0-0.1,0-0.2-0.1-0.4c0-0.1-0.1-0.2-0.2-0.3
		c-0.1-0.1-0.2-0.1-0.3-0.2c-0.1,0-0.2-0.1-0.4-0.1h-0.5c-0.1,0-0.2,0-0.4,0.1c-0.1,0-0.2,0.1-0.3,0.2c-0.1,0.1-0.1,0.2-0.2,0.3
		c0,0.1-0.1,0.2-0.1,0.4v7.4h-1.1v-7.3c0-0.3,0.1-0.5,0.2-0.8c0.1-0.2,0.3-0.5,0.4-0.6c0.2-0.2,0.4-0.3,0.6-0.4s0.5-0.2,0.8-0.2h0.5
		c0.3,0,0.6,0.1,0.8,0.2c0.3,0.1,0.5,0.3,0.7,0.5c0.2-0.2,0.4-0.3,0.7-0.5c0.3-0.1,0.5-0.2,0.8-0.2h0.5
		C331.2,380.8,331.5,380.9,331.7,381z"/>
	<path class="st0" d="M338.1,384.9c0.2,0.1,0.3,0.2,0.4,0.3c0.1,0.1,0.2,0.3,0.3,0.4c0.1,0.2,0.2,0.3,0.2,0.5
		c0.1,0.2,0.1,0.4,0.1,0.6v1.6c0,0.3-0.1,0.5-0.2,0.8c-0.1,0.2-0.3,0.5-0.4,0.6c-0.2,0.2-0.4,0.3-0.6,0.4s-0.5,0.2-0.8,0.2H336
		c-0.3,0-0.5-0.1-0.8-0.2c-0.2-0.1-0.5-0.3-0.6-0.4c-0.2-0.2-0.3-0.4-0.4-0.6s-0.2-0.5-0.2-0.8v-1.6c0-0.3,0.1-0.5,0.2-0.8
		c0.1-0.2,0.3-0.5,0.4-0.6c0.2-0.2,0.4-0.3,0.6-0.4s0.5-0.2,0.8-0.2h0.6c0.2,0,0.3-0.1,0.4-0.2s0.2-0.3,0.2-0.4v-1.5
		c0-0.1,0-0.2-0.1-0.2c0-0.1-0.1-0.1-0.1-0.2c-0.1-0.1-0.1-0.1-0.2-0.1s-0.2,0-0.2,0h-0.3c-0.1,0-0.2,0-0.2,0
		c-0.1,0-0.1,0.1-0.2,0.1c-0.1,0.1-0.1,0.1-0.1,0.2s0,0.2,0,0.2v0.9h-1.1v-0.8c0-0.2,0-0.5,0.1-0.7s0.2-0.4,0.4-0.6
		c0.2-0.2,0.3-0.3,0.6-0.4c0.2-0.1,0.4-0.1,0.7-0.1h0.3c0.2,0,0.5,0,0.7,0.1s0.4,0.2,0.5,0.4c0.2,0.2,0.3,0.3,0.4,0.6
		c0.1,0.2,0.1,0.4,0.1,0.7v1.3c0,0.2,0,0.3-0.1,0.5C338.3,384.6,338.2,384.7,338.1,384.9z M338.1,386.6c0-0.1,0-0.2-0.1-0.4
		c0-0.1-0.1-0.2-0.2-0.3c-0.1-0.1-0.2-0.1-0.3-0.2c-0.1,0-0.2-0.1-0.4-0.1H336c-0.1,0-0.2,0-0.4,0.1c-0.1,0-0.2,0.1-0.3,0.2
		c-0.1,0.1-0.1,0.2-0.2,0.3c0,0.1-0.1,0.2-0.1,0.4v1.8c0,0.1,0,0.2,0.1,0.4c0,0.1,0.1,0.2,0.2,0.3c0.1,0.1,0.2,0.1,0.3,0.2
		c0.1,0,0.2,0.1,0.4,0.1h1.1c0.1,0,0.2,0,0.4-0.1c0.1,0,0.2-0.1,0.3-0.2c0.1-0.1,0.1-0.2,0.2-0.3c0-0.1,0.1-0.2,0.1-0.4V386.6z"/>
	<path class="st0" d="M344.2,381c0.2,0.1,0.5,0.3,0.6,0.4c0.2,0.2,0.3,0.4,0.4,0.6s0.2,0.5,0.2,0.8v7.3h-1.1v-7.4
		c0-0.1,0-0.2-0.1-0.4c0-0.1-0.1-0.2-0.2-0.3c-0.1-0.1-0.2-0.1-0.3-0.2c-0.1,0-0.2-0.1-0.4-0.1h-1.1c-0.1,0-0.2,0-0.4,0.1
		c-0.1,0-0.2,0.1-0.3,0.2c-0.1,0.1-0.1,0.2-0.2,0.3c0,0.1-0.1,0.2-0.1,0.4v7.4h-1.1v-7.3c0-0.3,0.1-0.5,0.2-0.8
		c0.1-0.2,0.2-0.5,0.4-0.6c0.2-0.2,0.4-0.3,0.6-0.4s0.5-0.2,0.8-0.2h1.1C343.7,380.8,344,380.9,344.2,381z"/>
	<path class="st0" d="M350.5,381c0.2,0.1,0.5,0.3,0.6,0.4c0.2,0.2,0.3,0.4,0.4,0.6s0.2,0.5,0.2,0.8v5.4c0,0.3-0.1,0.5-0.2,0.8
		c-0.1,0.2-0.3,0.5-0.4,0.6c-0.2,0.2-0.4,0.3-0.6,0.4s-0.5,0.2-0.8,0.2h-1.1c-0.3,0-0.5-0.1-0.8-0.2c-0.2-0.1-0.5-0.3-0.6-0.4
		c-0.2-0.2-0.3-0.4-0.4-0.6s-0.2-0.5-0.2-0.8v-1h1.1v1.1c0,0.1,0,0.2,0.1,0.4c0,0.1,0.1,0.2,0.2,0.3c0.1,0.1,0.2,0.1,0.3,0.2
		c0.1,0,0.2,0.1,0.4,0.1h1.1c0.1,0,0.2,0,0.4-0.1c0.1,0,0.2-0.1,0.3-0.2c0.1-0.1,0.1-0.2,0.2-0.3c0-0.1,0.1-0.2,0.1-0.4v-5.6
		c0-0.1,0-0.2-0.1-0.4c0-0.1-0.1-0.2-0.2-0.3c-0.1-0.1-0.2-0.1-0.3-0.2c-0.1,0-0.2-0.1-0.4-0.1h-1c-0.1,0-0.2,0-0.4,0.1
		c-0.1,0-0.2,0.1-0.3,0.2c-0.1,0.1-0.1,0.2-0.2,0.3c0,0.1-0.1,0.2-0.1,0.4v1.1h-1.1v-1c0-0.3,0.1-0.5,0.2-0.8
		c0.1-0.2,0.2-0.5,0.4-0.6c0.2-0.2,0.4-0.3,0.6-0.4s0.5-0.2,0.8-0.2h1C350,380.8,350.3,380.9,350.5,381z"/>
	<path class="st0" d="M356.1,384.6c0.3,0,0.5,0.1,0.7,0.2s0.4,0.3,0.6,0.4c0.2,0.2,0.3,0.4,0.4,0.6s0.1,0.5,0.1,0.8v1.6
		c0,0.3-0.1,0.5-0.2,0.8c-0.1,0.2-0.3,0.5-0.4,0.6c-0.2,0.2-0.4,0.3-0.6,0.4s-0.5,0.2-0.8,0.2h-1.1c-0.3,0-0.5-0.1-0.8-0.2
		c-0.2-0.1-0.5-0.3-0.6-0.4c-0.2-0.2-0.3-0.4-0.4-0.6s-0.2-0.5-0.2-0.8v-1.6c0-0.3,0.1-0.5,0.2-0.8c0.1-0.2,0.2-0.5,0.4-0.6
		c0.2-0.2,0.4-0.3,0.6-0.4s0.5-0.2,0.8-0.2h0.1v-1.5h-0.3c-0.2,0-0.5,0-0.7-0.1s-0.4-0.2-0.5-0.4c-0.2-0.2-0.3-0.3-0.4-0.5
		s-0.1-0.4-0.1-0.7V381h1.1v0.5c0,0.1,0,0.2,0,0.2c0,0.1,0.1,0.1,0.1,0.2c0.1,0.1,0.1,0.1,0.2,0.1s0.2,0,0.2,0h1.2h0.1v0.1v2.5
		H356.1z M356.9,386.6c0-0.1,0-0.2-0.1-0.4c0-0.1-0.1-0.2-0.2-0.3c-0.1-0.1-0.2-0.1-0.3-0.2c-0.1,0-0.2-0.1-0.3-0.1h-1.1
		c-0.1,0-0.2,0-0.4,0.1c-0.1,0-0.2,0.1-0.3,0.2c-0.1,0.1-0.1,0.2-0.2,0.3c0,0.1-0.1,0.2-0.1,0.4v1.8c0,0.1,0,0.2,0.1,0.4
		c0,0.1,0.1,0.2,0.2,0.3c0.1,0.1,0.2,0.1,0.3,0.2c0.1,0,0.2,0.1,0.4,0.1h1.1c0.1,0,0.2,0,0.3-0.1c0.1,0,0.2-0.1,0.3-0.2
		c0.1-0.1,0.1-0.2,0.2-0.3c0-0.1,0.1-0.2,0.1-0.4V386.6z"/>
	<path class="st0" d="M363,381c0.2,0.1,0.5,0.3,0.6,0.4c0.2,0.2,0.3,0.4,0.4,0.6s0.2,0.5,0.2,0.8v7.3h-1.1v-7.4c0-0.1,0-0.2-0.1-0.4
		c0-0.1-0.1-0.2-0.2-0.3c-0.1-0.1-0.2-0.1-0.3-0.2c-0.1,0-0.2-0.1-0.4-0.1H361c-0.1,0-0.2,0-0.4,0.1c-0.1,0-0.2,0.1-0.3,0.2
		c-0.1,0.1-0.1,0.2-0.2,0.3c0,0.1-0.1,0.2-0.1,0.4v7.4h-1.1v-7.3c0-0.3,0.1-0.5,0.2-0.8c0.1-0.2,0.2-0.5,0.4-0.6
		c0.2-0.2,0.4-0.3,0.6-0.4s0.5-0.2,0.8-0.2h1.1C362.5,380.8,362.8,380.9,363,381z"/>
	<path class="st0" d="M366.6,390.1c-0.2-0.1-0.5-0.3-0.6-0.4c-0.2-0.2-0.3-0.4-0.4-0.6s-0.2-0.5-0.2-0.8V381h1.1v7.4
		c0,0.1,0,0.2,0.1,0.4c0,0.1,0.1,0.2,0.2,0.3c0.1,0.1,0.2,0.1,0.3,0.2c0.1,0,0.2,0.1,0.4,0.1h1.1c0.1,0,0.2,0,0.4-0.1
		c0.1,0,0.2-0.1,0.3-0.2c0.1-0.1,0.1-0.2,0.2-0.3c0-0.1,0.1-0.2,0.1-0.3c0-0.2,0-0.4-0.1-0.6s-0.1-0.4-0.2-0.5s-0.1-0.4-0.2-0.6
		s-0.1-0.4-0.1-0.6s0-0.4,0-0.6s0-0.3,0.1-0.4c0-0.1,0.1-0.3,0.1-0.3h1.1c0,0.1-0.1,0.3-0.1,0.4s0,0.3-0.1,0.4c0,0.2,0,0.3,0,0.5
		s0,0.3,0.1,0.5c0.1,0.1,0.1,0.3,0.2,0.5s0.1,0.4,0.2,0.6s0.1,0.4,0.1,0.7c0,0.3-0.1,0.5-0.2,0.8c-0.1,0.2-0.2,0.5-0.4,0.6
		c-0.2,0.2-0.4,0.3-0.6,0.4s-0.5,0.2-0.8,0.2h-1.1C367.1,390.2,366.9,390.2,366.6,390.1z"/>
	<path class="st0" d="M377.3,390.1c-0.2-0.1-0.5-0.3-0.6-0.4c-0.2-0.2-0.3-0.4-0.4-0.6s-0.2-0.5-0.2-0.8V381h1.1v7.4
		c0,0.1,0,0.2,0.1,0.4c0,0.1,0.1,0.2,0.2,0.3c0.1,0.1,0.2,0.1,0.3,0.2c0.1,0,0.2,0.1,0.4,0.1h1.1c0.1,0,0.2,0,0.4-0.1
		c0.1,0,0.2-0.1,0.3-0.2c0.1-0.1,0.1-0.2,0.2-0.3c0-0.1,0.1-0.2,0.1-0.3c0-0.2,0-0.4-0.1-0.6s-0.1-0.4-0.2-0.5
		c-0.1-0.2-0.1-0.4-0.2-0.6s-0.1-0.4-0.1-0.6s0-0.4,0-0.6s0-0.3,0.1-0.4c0-0.1,0.1-0.3,0.1-0.3h1.1c0,0.1-0.1,0.3-0.1,0.4
		s0,0.3-0.1,0.4c0,0.2,0,0.3,0,0.5s0,0.3,0.1,0.5c0.1,0.1,0.1,0.3,0.2,0.5s0.1,0.4,0.2,0.6s0.1,0.4,0.1,0.7c0,0.3-0.1,0.5-0.2,0.8
		c-0.1,0.2-0.2,0.5-0.4,0.6c-0.2,0.2-0.4,0.3-0.6,0.4s-0.5,0.2-0.8,0.2h-1.1C377.8,390.2,377.6,390.2,377.3,390.1z"/>
	<path class="st0" d="M387.2,384c0.1,0.1,0.1,0.2,0.2,0.3c0,0.1,0.1,0.2,0.1,0.4c0,0.1,0,0.3,0,0.4s0,0.3,0,0.5v2.7
		c0,0.3-0.1,0.5-0.2,0.8c-0.1,0.2-0.3,0.5-0.4,0.6c-0.2,0.2-0.4,0.3-0.6,0.4s-0.5,0.2-0.8,0.2h-1.1c-0.3,0-0.5-0.1-0.8-0.2
		c-0.2-0.1-0.5-0.3-0.6-0.4c-0.2-0.2-0.3-0.4-0.4-0.6s-0.2-0.5-0.2-0.8v-2.1h1.1v2.2c0,0.1,0,0.2,0.1,0.4c0,0.1,0.1,0.2,0.2,0.3
		c0.1,0.1,0.2,0.1,0.3,0.2c0.1,0,0.2,0.1,0.4,0.1h1.1c0.1,0,0.2,0,0.4-0.1c0.1,0,0.2-0.1,0.3-0.2c0.1-0.1,0.1-0.2,0.2-0.3
		c0-0.1,0.1-0.2,0.1-0.4v-2.8c0-0.1,0-0.3,0-0.4s0-0.2,0-0.3c0-0.1,0-0.1,0-0.2c0,0,0-0.1-0.1-0.1c-0.1-0.1-0.2-0.2-0.4-0.4
		c-0.2-0.2-0.5-0.3-0.8-0.6l0,0c-0.2-0.1-0.4-0.3-0.6-0.4s-0.3-0.2-0.4-0.3c-0.1-0.1-0.2-0.2-0.3-0.3c-0.1-0.1-0.2-0.2-0.2-0.3
		c-0.1-0.1-0.1-0.2-0.2-0.3c0-0.1-0.1-0.2-0.1-0.4c0-0.1,0-0.3,0-0.4s0-0.3,0-0.5h1.1c0,0.1,0,0.3,0,0.4s0,0.2,0,0.3
		c0,0.1,0,0.1,0,0.2c0,0,0,0.1,0.1,0.1c0.1,0.1,0.2,0.2,0.4,0.4c0.2,0.1,0.5,0.3,0.8,0.6l0,0c0.2,0.1,0.4,0.3,0.6,0.4
		s0.3,0.2,0.4,0.3c0.1,0.1,0.2,0.2,0.3,0.3C387,383.8,387.1,383.9,387.2,384z"/>
	<path class="st0" d="M393.4,384c0.1,0.1,0.1,0.2,0.2,0.3c0,0.1,0.1,0.2,0.1,0.4c0,0.1,0,0.3,0,0.4s0,0.3,0,0.5v2.7
		c0,0.3-0.1,0.5-0.2,0.8c-0.1,0.2-0.3,0.5-0.4,0.6c-0.2,0.2-0.4,0.3-0.6,0.4s-0.5,0.2-0.8,0.2h-1.1c-0.3,0-0.5-0.1-0.8-0.2
		c-0.2-0.1-0.5-0.3-0.6-0.4c-0.2-0.2-0.3-0.4-0.4-0.6s-0.2-0.5-0.2-0.8v-2.1h1.1v2.2c0,0.1,0,0.2,0.1,0.4c0,0.1,0.1,0.2,0.2,0.3
		c0.1,0.1,0.2,0.1,0.3,0.2c0.1,0,0.2,0.1,0.4,0.1h1.1c0.1,0,0.2,0,0.4-0.1c0.1,0,0.2-0.1,0.3-0.2c0.1-0.1,0.1-0.2,0.2-0.3
		c0-0.1,0.1-0.2,0.1-0.4v-2.8c0-0.1,0-0.3,0-0.4s0-0.2,0-0.3s0-0.1,0-0.2c0,0,0-0.1-0.1-0.1c-0.1-0.1-0.2-0.2-0.4-0.4
		c-0.2-0.2-0.5-0.3-0.8-0.6l0,0c-0.2-0.1-0.4-0.3-0.6-0.4s-0.3-0.2-0.4-0.3c-0.1-0.1-0.2-0.2-0.3-0.3c-0.1-0.1-0.2-0.2-0.2-0.3
		c-0.1-0.1-0.1-0.2-0.2-0.3c0-0.1-0.1-0.2-0.1-0.4c0-0.1,0-0.3,0-0.4s0-0.3,0-0.5h1.1c0,0.1,0,0.3,0,0.4s0,0.2,0,0.3
		c0,0.1,0,0.1,0,0.2c0,0,0,0.1,0.1,0.1c0.1,0.1,0.2,0.2,0.4,0.4c0.2,0.1,0.5,0.3,0.8,0.6l0,0c0.2,0.1,0.4,0.3,0.6,0.4
		s0.3,0.2,0.4,0.3c0.1,0.1,0.2,0.2,0.3,0.3C393.3,383.8,393.4,383.9,393.4,384z"/>
	<path class="st0" d="M398.9,384.9c0.2,0.1,0.3,0.2,0.4,0.3c0.1,0.1,0.2,0.3,0.3,0.4c0.1,0.2,0.2,0.3,0.2,0.5
		c0.1,0.2,0.1,0.4,0.1,0.6v1.6c0,0.3-0.1,0.5-0.2,0.8c-0.1,0.2-0.3,0.5-0.4,0.6c-0.2,0.2-0.4,0.3-0.6,0.4s-0.5,0.2-0.8,0.2h-1.1
		c-0.3,0-0.5-0.1-0.8-0.2c-0.2-0.1-0.5-0.3-0.6-0.4c-0.2-0.2-0.3-0.4-0.4-0.6s-0.2-0.5-0.2-0.8v-1.6c0-0.3,0.1-0.5,0.2-0.8
		c0.1-0.2,0.3-0.5,0.4-0.6c0.2-0.2,0.4-0.3,0.6-0.4s0.5-0.2,0.8-0.2h0.6c0.2,0,0.3-0.1,0.4-0.2s0.2-0.3,0.2-0.4v-1.5
		c0-0.1,0-0.2-0.1-0.2c0-0.1-0.1-0.1-0.1-0.2c-0.1-0.1-0.1-0.1-0.2-0.1s-0.2,0-0.2,0h-0.3c-0.1,0-0.2,0-0.2,0
		c-0.1,0-0.1,0.1-0.2,0.1c-0.1,0.1-0.1,0.1-0.1,0.2s0,0.2,0,0.2v0.9h-1.1v-0.8c0-0.2,0-0.5,0.1-0.7s0.2-0.4,0.4-0.6
		c0.2-0.2,0.3-0.3,0.6-0.4c0.2-0.1,0.4-0.1,0.7-0.1h0.3c0.2,0,0.5,0,0.7,0.1s0.4,0.2,0.5,0.4c0.2,0.2,0.3,0.3,0.4,0.6
		c0.1,0.2,0.1,0.4,0.1,0.7v1.3c0,0.2,0,0.3-0.1,0.5C399.1,384.6,399,384.7,398.9,384.9z M398.9,386.6c0-0.1,0-0.2-0.1-0.4
		c0-0.1-0.1-0.2-0.2-0.3c-0.1-0.1-0.2-0.1-0.3-0.2c-0.1,0-0.2-0.1-0.4-0.1h-1.1c-0.1,0-0.2,0-0.4,0.1c-0.1,0-0.2,0.1-0.3,0.2
		c-0.1,0.1-0.1,0.2-0.2,0.3c0,0.1-0.1,0.2-0.1,0.4v1.8c0,0.1,0,0.2,0.1,0.4c0,0.1,0.1,0.2,0.2,0.3c0.1,0.1,0.2,0.1,0.3,0.2
		c0.1,0,0.2,0.1,0.4,0.1h1.1c0.1,0,0.2,0,0.4-0.1c0.1,0,0.2-0.1,0.3-0.2c0.1-0.1,0.1-0.2,0.2-0.3c0-0.1,0.1-0.2,0.1-0.4V386.6z"/>
	<path class="st0" d="M405,381c0.2,0.1,0.5,0.3,0.6,0.4c0.2,0.2,0.3,0.4,0.4,0.6s0.2,0.5,0.2,0.8v5.4c0,0.3-0.1,0.5-0.2,0.8
		c-0.1,0.2-0.3,0.5-0.4,0.6c-0.2,0.2-0.4,0.3-0.6,0.4s-0.5,0.2-0.8,0.2h-1.1c-0.3,0-0.5-0.1-0.8-0.2s-0.5-0.3-0.6-0.4
		c-0.2-0.2-0.3-0.4-0.4-0.6s-0.2-0.5-0.2-0.8v-1h1.1v1.1c0,0.1,0,0.2,0.1,0.4c0,0.1,0.1,0.2,0.2,0.3c0.1,0.1,0.2,0.1,0.3,0.2
		c0.1,0,0.2,0.1,0.4,0.1h1.1c0.1,0,0.2,0,0.4-0.1c0.1,0,0.2-0.1,0.3-0.2c0.1-0.1,0.1-0.2,0.2-0.3c0-0.1,0.1-0.2,0.1-0.4v-5.6
		c0-0.1,0-0.2-0.1-0.4c0-0.1-0.1-0.2-0.2-0.3c-0.1-0.1-0.2-0.1-0.3-0.2c-0.1,0-0.2-0.1-0.4-0.1h-1c-0.1,0-0.2,0-0.4,0.1
		c-0.1,0-0.2,0.1-0.3,0.2c-0.1,0.1-0.1,0.2-0.2,0.3c0,0.1-0.1,0.2-0.1,0.4v1.1h-1.1v-1c0-0.3,0.1-0.5,0.2-0.8
		c0.1-0.2,0.2-0.5,0.4-0.6s0.4-0.3,0.6-0.4s0.5-0.2,0.8-0.2h1C404.5,380.8,404.8,380.9,405,381z"/>
	<path class="st0" d="M410.5,384.6c0.3,0,0.5,0.1,0.8,0.2c0.2,0.1,0.5,0.2,0.6,0.4c0.2,0.2,0.3,0.4,0.4,0.6s0.2,0.5,0.2,0.8v1.6
		c0,0.3-0.1,0.5-0.2,0.8c-0.1,0.2-0.3,0.5-0.4,0.6c-0.2,0.2-0.4,0.3-0.6,0.4s-0.5,0.2-0.8,0.2h-1.1c-0.3,0-0.5-0.1-0.8-0.2
		c-0.2-0.1-0.5-0.3-0.6-0.4c-0.2-0.2-0.3-0.4-0.4-0.6s-0.2-0.5-0.2-0.8v-1.6v-3.8c0-0.3,0.1-0.5,0.2-0.8c0.1-0.2,0.2-0.5,0.4-0.6
		c0.2-0.2,0.4-0.3,0.6-0.4s0.5-0.2,0.8-0.2c0.2,0,0.4,0,0.5,0s0.2,0,0.3,0.1c0.1,0,0.2,0.1,0.3,0.1c0.1,0,0.2,0,0.4,0s0.3,0,0.5,0
		s0.3,0,0.5-0.1c0.2,0,0.3-0.1,0.5-0.1v1c-0.1,0-0.3,0.1-0.5,0.1c-0.1,0-0.3,0-0.5,0.1c-0.2,0-0.4,0-0.5,0c-0.2,0-0.3,0-0.5,0
		c-0.1,0-0.3,0-0.4-0.1c-0.1,0-0.2-0.1-0.3-0.1c-0.1,0-0.2,0-0.3,0c-0.1,0-0.2,0-0.4,0.1c-0.1,0-0.2,0.1-0.3,0.2
		c-0.1,0.1-0.1,0.2-0.2,0.3c0,0.1-0.1,0.2-0.1,0.4v2.2c0.1-0.1,0.3-0.2,0.4-0.3c0.2-0.1,0.3-0.1,0.5-0.1L410.5,384.6L410.5,384.6z
		 M411.4,386.6c0-0.1,0-0.2-0.1-0.4c0-0.1-0.1-0.2-0.2-0.3c-0.1-0.1-0.2-0.1-0.3-0.2c-0.1,0-0.2-0.1-0.4-0.1h-1.1
		c-0.1,0-0.2,0-0.4,0.1c-0.1,0-0.2,0.1-0.3,0.2c-0.1,0.1-0.1,0.2-0.2,0.3c0,0.1-0.1,0.2-0.1,0.4v1.8c0,0.1,0,0.2,0.1,0.4
		c0,0.1,0.1,0.2,0.2,0.3c0.1,0.1,0.2,0.1,0.3,0.2c0.1,0,0.2,0.1,0.4,0.1h1.1c0.1,0,0.2,0,0.4-0.1c0.1,0,0.2-0.1,0.3-0.2
		c0.1-0.1,0.1-0.2,0.2-0.3c0-0.1,0.1-0.2,0.1-0.4V386.6z"/>
	<path class="st0" d="M417.3,381.9c0.3,0,0.5,0.1,0.8,0.2s0.5,0.3,0.6,0.4c0.2,0.2,0.3,0.4,0.4,0.6s0.2,0.5,0.2,0.8v4.4
		c0,0.3-0.1,0.5-0.2,0.8c-0.1,0.2-0.3,0.5-0.4,0.6c-0.2,0.2-0.4,0.3-0.6,0.4s-0.5,0.2-0.8,0.2h-1.7c-0.3,0-0.5-0.1-0.8-0.2
		c-0.2-0.1-0.5-0.3-0.6-0.4c-0.2-0.2-0.3-0.4-0.4-0.6s-0.2-0.5-0.2-0.8v-4.4c0-0.3,0.1-0.5,0.2-0.8c0.1-0.2,0.3-0.5,0.4-0.6
		c0.2-0.2,0.4-0.3,0.6-0.4s0.5-0.2,0.8-0.2h0.3V381h1.1v0.9H417.3z M418.2,383.8c0-0.1,0-0.2-0.1-0.4c0-0.1-0.1-0.2-0.2-0.3
		c-0.1-0.1-0.2-0.1-0.3-0.2c-0.1,0-0.2-0.1-0.4-0.1h-0.3v2.9h-1.1v-2.9h-0.3c-0.1,0-0.2,0-0.4,0.1c-0.1,0-0.2,0.1-0.3,0.2
		c-0.1,0.1-0.1,0.2-0.2,0.3c0,0.1-0.1,0.2-0.1,0.4v4.5c0,0.1,0,0.2,0.1,0.4c0,0.1,0.1,0.2,0.2,0.3c0.1,0.1,0.2,0.1,0.3,0.2
		c0.1,0,0.2,0.1,0.4,0.1h1.7c0.1,0,0.2,0,0.4-0.1c0.1,0,0.2-0.1,0.3-0.2c0.1-0.1,0.1-0.2,0.2-0.3c0-0.1,0.1-0.2,0.1-0.4L418.2,383.8
		L418.2,383.8z"/>
	<path class="st0" d="M427.3,381c0.2,0.1,0.5,0.3,0.6,0.4c0.2,0.2,0.3,0.4,0.4,0.6s0.2,0.5,0.2,0.8v7.3h-1.1v-7.4
		c0-0.1,0-0.2-0.1-0.4c0-0.1-0.1-0.2-0.2-0.3c-0.1-0.1-0.2-0.1-0.3-0.2c-0.1,0-0.2-0.1-0.4-0.1H426c-0.1,0-0.2,0-0.4,0.1
		c-0.1,0-0.2,0.1-0.3,0.2c-0.1,0.1-0.1,0.2-0.2,0.3c0,0.1-0.1,0.2-0.1,0.4v4.2h-1.1v-4.2c0-0.1,0-0.2-0.1-0.4c0-0.1-0.1-0.2-0.2-0.3
		c-0.1-0.1-0.2-0.1-0.3-0.2c-0.1,0-0.2-0.1-0.4-0.1h-0.5c-0.1,0-0.2,0-0.4,0.1c-0.1,0-0.2,0.1-0.3,0.2c-0.1,0.1-0.1,0.2-0.2,0.3
		c0,0.1-0.1,0.2-0.1,0.4v7.4h-1.1v-7.3c0-0.3,0.1-0.5,0.2-0.8c0.1-0.2,0.3-0.5,0.4-0.6s0.4-0.3,0.6-0.4s0.5-0.2,0.8-0.2h0.5
		c0.3,0,0.6,0.1,0.8,0.2c0.3,0.1,0.5,0.3,0.7,0.5c0.2-0.2,0.4-0.3,0.7-0.5c0.3-0.1,0.5-0.2,0.8-0.2h0.5
		C426.8,380.8,427.1,380.9,427.3,381z"/>
</g>
<g>
	<polygon class="st1" points="299,279.5 302.2,268.6 307.2,269 306,276 302.2,279.8 	"/>
	<g>
		<polygon class="st2" points="312.4,311.7 324.5,334.3 344.5,313.1 		"/>
	</g>
	<g>
		
			<linearGradient id="SVGID_1_" gradientUnits="userSpaceOnUse" x1="196.1646" y1="508.3093" x2="193.2243" y2="517.8655" gradientTransform="matrix(-0.3917 0.9201 0.9201 0.3917 -79.1984 -48.9188)">
			<stop  offset="0" style="stop-color:#C6E2B2"/>
			<stop  offset="1" style="stop-color:#41BFB9"/>
		</linearGradient>
		<polygon class="st3" points="313,314.9 321.3,347.6 323.9,335.2 		"/>
	</g>
	<g>
		
			<linearGradient id="SVGID_2_" gradientUnits="userSpaceOnUse" x1="160.8286" y1="499.777" x2="209.9769" y2="499.777" gradientTransform="matrix(-0.3917 0.9201 0.9201 0.3917 -79.1984 -48.9188)">
			<stop  offset="0" style="stop-color:#C6E2B2"/>
			<stop  offset="1" style="stop-color:#3AB4A3"/>
		</linearGradient>
		<polygon class="st4" points="297.7,290.2 319.1,342.9 311.1,311.4 		"/>
	</g>
	<g>
		
			<linearGradient id="SVGID_3_" gradientUnits="userSpaceOnUse" x1="142.9415" y1="475.8308" x2="160.8307" y2="475.8308" gradientTransform="matrix(-0.3917 0.9201 0.9201 0.3917 -79.1984 -48.9188)">
			<stop  offset="0.1626" style="stop-color:#F0EE91"/>
			<stop  offset="0.5072" style="stop-color:#A8D798"/>
			<stop  offset="1" style="stop-color:#3AB4A3"/>
		</linearGradient>
		<polygon class="st5" points="300.7,270.8 296.9,281.7 301,275.5 		"/>
	</g>
	<g>
		
			<linearGradient id="SVGID_4_" gradientUnits="userSpaceOnUse" x1="149.4867" y1="486.9218" x2="178.2635" y2="486.9218" gradientTransform="matrix(-0.3917 0.9201 0.9201 0.3917 -79.1984 -48.9188)">
			<stop  offset="0" style="stop-color:#F0EE91"/>
			<stop  offset="0.2112" style="stop-color:#EDEE91"/>
			<stop  offset="0.3623" style="stop-color:#E4EB92"/>
			<stop  offset="0.4947" style="stop-color:#D4E594"/>
			<stop  offset="0.6163" style="stop-color:#BEDE96"/>
			<stop  offset="0.7306" style="stop-color:#A1D599"/>
			<stop  offset="0.8394" style="stop-color:#7ECA9C"/>
			<stop  offset="0.9419" style="stop-color:#55BDA0"/>
			<stop  offset="1" style="stop-color:#3AB4A3"/>
		</linearGradient>
		<polygon class="st6" points="295.7,285.3 310.1,308 301.3,276.8 		"/>
	</g>
	<g>
		
			<linearGradient id="SVGID_5_" gradientUnits="userSpaceOnUse" x1="162.9081" y1="483.0909" x2="163.5381" y2="493.5915" gradientTransform="matrix(-0.3917 0.9201 0.9201 0.3917 -79.1984 -48.9188)">
			<stop  offset="0" style="stop-color:#93CC7D"/>
			<stop  offset="1" style="stop-color:#67C18D"/>
		</linearGradient>
		<polygon class="st7" points="302.4,276.8 311.4,309 316,285.7 		"/>
	</g>
	
		<linearGradient id="SVGID_6_" gradientUnits="userSpaceOnUse" x1="149.8318" y1="485.9187" x2="134.6379" y2="484.3088" gradientTransform="matrix(-0.3917 0.9201 0.9201 0.3917 -79.1984 -48.9188)">
		<stop  offset="0" style="stop-color:#B0CB6F"/>
		<stop  offset="1" style="stop-color:#93CC7D"/>
	</linearGradient>
	<polygon class="st8" points="310.7,260.9 302.2,275.5 315.8,284.4 	"/>
	<g>
		
			<linearGradient id="SVGID_7_" gradientUnits="userSpaceOnUse" x1="119.6627" y1="475.7579" x2="149.4867" y2="475.7579" gradientTransform="matrix(-0.3917 0.9201 0.9201 0.3917 -79.1984 -48.9188)">
			<stop  offset="0" style="stop-color:#B0CB6F"/>
			<stop  offset="1" style="stop-color:#93CC7D"/>
		</linearGradient>
		<polygon class="st9" points="308.9,254.7 301.6,268.4 301.9,273.3 		"/>
	</g>
	<g>
		
			<linearGradient id="SVGID_8_" gradientUnits="userSpaceOnUse" x1="119.6618" y1="478.0331" x2="149.4886" y2="478.0331" gradientTransform="matrix(-0.3917 0.9201 0.9201 0.3917 -79.1984 -48.9188)">
			<stop  offset="0.4877" style="stop-color:#BBD751"/>
			<stop  offset="1" style="stop-color:#F0EE91"/>
		</linearGradient>
		<polygon class="st10" points="311.2,251.4 304.1,270.3 310.4,259.4 		"/>
	</g>
	<g>
		<polygon class="st11" points="328.9,242 312.5,248.1 311.5,258.3 		"/>
	</g>
	<g>
		
			<linearGradient id="SVGID_9_" gradientUnits="userSpaceOnUse" x1="109.4502" y1="481.3275" x2="111.0781" y2="486.5259" gradientTransform="matrix(-0.3917 0.9201 0.9201 0.3917 -79.1984 -48.9188)">
			<stop  offset="0" style="stop-color:#F5F4B4"/>
			<stop  offset="0.3877" style="stop-color:#E8EC90"/>
			<stop  offset="0.7794" style="stop-color:#DEE672"/>
			<stop  offset="1" style="stop-color:#DAE366"/>
		</linearGradient>
		<polygon class="st12" points="328.6,238.3 316.7,245.5 330.2,240.5 		"/>
	</g>
	<g>
		
			<linearGradient id="SVGID_10_" gradientUnits="userSpaceOnUse" x1="107.0601" y1="494.2946" x2="96.3495" y2="495.6596" gradientTransform="matrix(-0.3917 0.9201 0.9201 0.3917 -79.1984 -48.9188)">
			<stop  offset="0" style="stop-color:#F9F9D5"/>
			<stop  offset="7.477885e-002" style="stop-color:#F2F4BC"/>
			<stop  offset="0.1876" style="stop-color:#EAEE9D"/>
			<stop  offset="0.3059" style="stop-color:#E3E985"/>
			<stop  offset="0.4301" style="stop-color:#DEE674"/>
			<stop  offset="0.5643" style="stop-color:#DBE469"/>
			<stop  offset="0.7267" style="stop-color:#DAE366"/>
			<stop  offset="0.7653" style="stop-color:#DAE366"/>
			<stop  offset="1" style="stop-color:#DAE366"/>
		</linearGradient>
		<polygon class="st13" points="349.4,229 329.4,237.8 331.1,240.1 		"/>
	</g>
	<g>
		
			<linearGradient id="SVGID_11_" gradientUnits="userSpaceOnUse" x1="105.8019" y1="492.4578" x2="131.0039" y2="492.4578" gradientTransform="matrix(-0.3917 0.9201 0.9201 0.3917 -79.1984 -48.9188)">
			<stop  offset="0" style="stop-color:#C6E2B2"/>
			<stop  offset="0.2609" style="stop-color:#BEDEAA"/>
			<stop  offset="0.6592" style="stop-color:#AAD595"/>
			<stop  offset="1" style="stop-color:#93CC7D"/>
		</linearGradient>
		<polygon class="st14" points="330.8,241.6 312,259.2 336.4,262.3 		"/>
	</g>
	<g>
		
			<linearGradient id="SVGID_12_" gradientUnits="userSpaceOnUse" x1="131.6175" y1="499.6917" x2="144.6405" y2="483.7986" gradientTransform="matrix(-0.3917 0.9201 0.9201 0.3917 -79.1984 -48.9188)">
			<stop  offset="0" style="stop-color:#C6E2B2"/>
			<stop  offset="0.2036" style="stop-color:#C5E1AD"/>
			<stop  offset="0.4136" style="stop-color:#C4DFA1"/>
			<stop  offset="0.6265" style="stop-color:#C1DD8C"/>
			<stop  offset="0.84" style="stop-color:#BDD970"/>
			<stop  offset="1" style="stop-color:#BAD655"/>
		</linearGradient>
		<polygon class="st15" points="311.5,260.1 316.8,284.4 336.1,263.3 		"/>
	</g>
	<g>
		<polygon class="st2" points="344.8,311.3 336.8,264 317.2,285.4 		"/>
	</g>
	<g>
		<polygon class="st16" points="312.1,310.7 344.3,312.1 316.8,286.4 		"/>
	</g>
	<g>
		
			<linearGradient id="SVGID_13_" gradientUnits="userSpaceOnUse" x1="81.8609" y1="532.051" x2="123.8685" y2="532.051" gradientTransform="matrix(-0.3917 0.9201 0.9201 0.3917 -79.1984 -48.9188)">
			<stop  offset="0" style="stop-color:#41BFB9"/>
			<stop  offset="1" style="stop-color:#0A80C2"/>
		</linearGradient>
		<polygon class="st17" points="391.3,271.6 356.3,226.3 337.8,262.5 		"/>
	</g>
	<g>
		
			<linearGradient id="SVGID_14_" gradientUnits="userSpaceOnUse" x1="81.8615" y1="499.4753" x2="123.8693" y2="499.4753" gradientTransform="matrix(-0.3917 0.9201 0.9201 0.3917 -79.1984 -48.9188)">
			<stop  offset="0" style="stop-color:#C6E2B2"/>
			<stop  offset="0.1471" style="stop-color:#B9DCA4"/>
			<stop  offset="0.4449" style="stop-color:#A4D38E"/>
			<stop  offset="0.7334" style="stop-color:#97CE81"/>
			<stop  offset="1" style="stop-color:#93CC7D"/>
		</linearGradient>
		<polygon class="st18" points="355,226.7 331.6,240.9 337.2,261.6 		"/>
	</g>
	<g>
		<polygon class="st19" points="391.3,272.6 337.7,263.5 345.9,311.7 		"/>
	</g>
	<g>
		
			<linearGradient id="SVGID_15_" gradientUnits="userSpaceOnUse" x1="130.5699" y1="557.2759" x2="162.9139" y2="548.0349" gradientTransform="matrix(-0.3917 0.9201 0.9201 0.3917 -79.1984 -48.9188)">
			<stop  offset="0" style="stop-color:#008DB7"/>
			<stop  offset="1" style="stop-color:#186DAE"/>
		</linearGradient>
		<polygon class="st20" points="371.1,324.8 391.2,274 346.5,312.5 		"/>
	</g>
	<g>
		
			<linearGradient id="SVGID_16_" gradientUnits="userSpaceOnUse" x1="196.5597" y1="524.0656" x2="202.4643" y2="539.0239" gradientTransform="matrix(-0.3917 0.9201 0.9201 0.3917 -79.1984 -48.9188)">
			<stop  offset="0" style="stop-color:#C6E2B2"/>
			<stop  offset="1" style="stop-color:#41BFB9"/>
		</linearGradient>
		<polygon class="st21" points="321.9,349.3 353.3,348 324.7,335.8 		"/>
	</g>
	<g>
		<polygon class="st19" points="369.9,325.3 345.7,313.3 325.8,334.3 		"/>
	</g>
	<g>
		
			<linearGradient id="SVGID_17_" gradientUnits="userSpaceOnUse" x1="184.358" y1="541.9125" x2="211.6608" y2="541.9125" gradientTransform="matrix(-0.3917 0.9201 0.9201 0.3917 -79.1984 -48.9188)">
			<stop  offset="0" style="stop-color:#009EC1"/>
			<stop  offset="1" style="stop-color:#41BFB9"/>
		</linearGradient>
		<polygon class="st22" points="355.3,347.8 370.3,326.2 326,335.3 		"/>
	</g>
	<g>
		
			<linearGradient id="SVGID_18_" gradientUnits="userSpaceOnUse" x1="166.3694" y1="552.1956" x2="174.8755" y2="560.4916" gradientTransform="matrix(-0.3917 0.9201 0.9201 0.3917 -79.1984 -48.9188)">
			<stop  offset="0" style="stop-color:#43C0B9"/>
			<stop  offset="1" style="stop-color:#0D7FC3"/>
		</linearGradient>
		<polygon class="st23" points="356.7,347.5 363.7,345.6 379.3,315.5 371.8,325.8 		"/>
	</g>
	<g>
		
			<linearGradient id="SVGID_19_" gradientUnits="userSpaceOnUse" x1="141.7021" y1="562.1785" x2="142.9622" y2="567.3236" gradientTransform="matrix(-0.3917 0.9201 0.9201 0.3917 -79.1984 -48.9188)">
			<stop  offset="0.1576" style="stop-color:#06AFE3"/>
			<stop  offset="0.4536" style="stop-color:#07ACE1"/>
			<stop  offset="0.6468" style="stop-color:#09A4DA"/>
			<stop  offset="0.8106" style="stop-color:#0E95CD"/>
			<stop  offset="0.9572" style="stop-color:#1480BC"/>
			<stop  offset="1" style="stop-color:#1678B6"/>
		</linearGradient>
		<polygon class="st24" points="382.2,310 390,279.8 373.2,322.1 		"/>
	</g>
</g>
</svg>
