<?xml version="1.0" encoding="utf-8"?>
<!-- Generator: Adobe Illustrator 19.0.0, SVG Export Plug-In . SVG Version: 6.00 Build 0)  -->
<svg version="1.1"
	 id="svg2" xmlns:cc="http://creativecommons.org/ns#" xmlns:rdf="http://www.w3.org/1999/02/22-rdf-syntax-ns#" xmlns:dc="http://purl.org/dc/elements/1.1/"
	 xmlns="http://www.w3.org/2000/svg" xmlns:xlink="http://www.w3.org/1999/xlink" x="0px" y="0px" viewBox="20 116.4 1000 328.6"
	 style="enable-background:new 20 116.4 1000 328.6;" xml:space="preserve">
<style type="text/css">
	.st0{fill:#4885ED;}
	.st1{fill:#DB3236;}
	.st2{fill:#F4C20D;}
	.st3{fill:#3CBA54;}
</style>
<path id="path2998" class="st0" d="M266.1,232.6H149.5v34.6h82.7c-4.1,48.5-44.4,69.2-82.5,69.2c-48.7,0-91.3-38.3-91.3-92.1
	c0-52.4,40.5-92.7,91.4-92.7c39.2,0,62.3,25,62.3,25l24.2-25.1c0,0-31.1-34.6-87.8-34.6c-72.2,0-128.1,60.9-128.1,126.8
	c0,64.5,52.5,127.4,129.9,127.4c68,0,117.8-46.6,117.8-115.5C268.2,241,266.1,232.6,266.1,232.6L266.1,232.6z"/>
<path id="path3000" class="st1" d="M361.6,207.6c-47.8,0-82.1,37.4-82.1,81c0,44.3,33.2,82.3,82.7,82.3c44.7,0,81.4-34.2,81.4-81.4
	C443.6,235.4,400.9,207.6,361.6,207.6L361.6,207.6z M362.1,239.7c23.5,0,45.8,19,45.8,49.7c0,30-22.2,49.6-45.9,49.6
	c-26.1,0-46.6-20.9-46.6-49.8C315.3,260.8,335.6,239.7,362.1,239.7L362.1,239.7z"/>
<path id="path3005" class="st2" d="M540.2,207.6c-47.8,0-82.1,37.4-82.1,81c0,44.3,33.2,82.3,82.7,82.3c44.7,0,81.4-34.2,81.4-81.4
	C622.1,235.4,579.5,207.6,540.2,207.6L540.2,207.6z M540.7,239.7c23.5,0,45.8,19,45.8,49.7c0,30-22.2,49.6-45.9,49.6
	c-26.1,0-46.6-20.9-46.6-49.8C493.9,260.8,514.2,239.7,540.7,239.7L540.7,239.7z"/>
<path id="path3007" class="st0" d="M715.3,207.7c-43.9,0-78.4,38.5-78.4,81.6c0,49.2,40,81.8,77.7,81.8c23.3,0,35.7-9.2,44.8-19.8
	v16.1c0,28.2-17.1,45.1-42.9,45.1c-24.9,0-37.5-18.6-41.8-29.1l-31.4,13.1c11.1,23.5,33.6,48.1,73.5,48.1
	c43.7,0,76.9-27.5,76.9-85.2V212.6h-34.2v13.8C748.9,215.1,734.5,207.7,715.3,207.7L715.3,207.7z M718.5,239.7
	c21.5,0,43.6,18.4,43.6,49.8c0,31.9-22.1,49.5-44.1,49.5c-23.4,0-45.2-19-45.2-49.2C672.9,258.4,695.5,239.7,718.5,239.7
	L718.5,239.7z"/>
<path id="path3011" class="st1" d="M945.9,207.5c-41.4,0-76.2,33-76.2,81.6c0,51.4,38.8,82,80.2,82c34.6,0,55.8-18.9,68.4-35.8
	l-28.2-18.8c-7.3,11.4-19.6,22.5-40,22.5c-23,0-33.5-12.6-40.1-24.8l109.5-45.4l-5.7-13.3C1003.2,229.2,978.6,207.5,945.9,207.5
	L945.9,207.5z M947.3,238.9c14.9,0,25.7,7.9,30.2,17.4l-73.1,30.6C901.2,263.2,923.7,238.9,947.3,238.9L947.3,238.9z"/>
<path id="path3015" class="st3" d="M817.5,366.1h36V125.4h-36V366.1z"/>
</svg>
