<?xml version="1.0" encoding="utf-8"?>
<!-- Generator: Adobe Illustrator 18.0.0, SVG Export Plug-In . SVG Version: 6.00 Build 0)  -->
<!DOCTYPE svg PUBLIC "-//W3C//DTD SVG 1.1//EN" "http://www.w3.org/Graphics/SVG/1.1/DTD/svg11.dtd">
<svg version="1.1" id="Layer_1" xmlns="http://www.w3.org/2000/svg" xmlns:xlink="http://www.w3.org/1999/xlink" x="0px" y="0px"
	 viewBox="0 0 1280 800" enable-background="new 0 0 1280 800" xml:space="preserve">
<g>
	<path fill="#3E98D3" d="M640.9,381.4c-71.4,0-143-0.6-214.4,0.3c-26.2,0.3-48.4-8.7-67.6-24.8c-38.7-32.9-53.6-75.2-40.8-124.7
		c12.5-49.2,45.7-78.4,95.3-89.4c14.3-3.2,28.8-3.2,43.1,0c6.1,1.5,7.9-0.6,9.6-5.8C490,70.3,536.4,28,605.4,12.6
		c91.5-20.4,185.3,33.8,215,122.9c2.6,7.6,4.7,10.2,13.7,9c62.6-9,123.2,37,132.5,100.5c7.6,51.6-15.4,99-60.3,124.4
		c-14.3,7.9-29.1,12.5-46,12.5C786.9,381.4,713.8,381.4,640.9,381.4z M722.2,232.2c-14.6,15.1-29.1,30.3-43.4,45.4
		c-2,2-4.7,1.7-7.3,1.7c-15.4,0-31.2-0.3-46.6,0c-4.1,0-6.4-0.9-8.7-4.7c-6.4-11.1-18.4-15.4-30-11.9c-11.4,3.2-18.9,13.7-18.9,25.6
		c0,11.9,7.9,21.8,19.2,25.3c11.1,3.2,23-1.2,29.4-11.4c2.3-3.8,5-5.2,9.3-5.2c17.8,0.3,35.8,0,53.6,0.3c4.1,0,7.3-1.2,10.2-4.1
		c12.8-14.3,25.9-28.3,39-42.2c10.5-11.1,19.5-24.2,38.5-20.4c5.2,1.2,7.9,2,9.9,7.3c7.6,17.8,26.5,28.5,44.6,25.1
		c20.7-3.8,35.2-20.7,35.2-41.4c0-20.4-14.3-37.6-34.1-41.4c-19.5-3.8-38.7,7.3-46.3,26.8c-1.7,4.1-3.8,5.5-7.9,5.2
		c-10.5-0.3-21.3-0.3-31.8,0c-4.1,0.3-6.7-1.5-9.6-4.1c-21-20.1-41.9-39.9-62.9-60c-4.1-3.8-8.2-5.5-13.7-5.5
		c-22.1,0.3-44,0-66.1,0.3c-4.7,0-7.6-1.2-10.2-5.2c-6.7-10.5-18.4-14.6-29.7-11.4c-11.4,3.5-18.9,13.4-18.9,25.6
		c0,11.9,7.3,21.6,18.4,25.1c11.7,3.8,23.6-0.6,30.3-11.4c2.3-3.8,5-5.2,9.3-5.2c21,0.3,41.9,0.3,62.9,0c4.1,0,7.3,1.5,10.2,4.4
		c12.5,12.2,25.1,23.9,37.6,36.1c3.2,3.2,8.4,5,9.9,10.2c-2.6,1.7-5.2,0.9-7.9,0.9c-59.4,0-118.6,0-178,0.3
		c-7.3,0-13.1-0.6-18.4-7.6c-9.6-12.5-27.7-12.2-38.2-1.2c-10.8,11.4-9.6,29.4,2.6,39.3c11.9,9.6,29.7,7,38.2-6.1
		c2.9-4.4,5.8-6.1,11.1-6.1c67,0.3,134,0.3,201.3,0.3C716.4,231.1,719,230.2,722.2,232.2z"/>
	<path fill="#3E98D3" d="M446.6,429.7c21,0,41.9,0,62.9,0c1.5,0,3.2,0,4.7,0c11.1,0.3,17.2,4.4,18.1,12.2
		c1.2,7.9-3.2,13.1-13.7,16.9c-10.8,3.8-13.4,7.6-13.4,20.4c0,49.8,0,99.3,0,149.1c0,37,0,74,0,111c0,15.4,1.7,17.8,15.7,23.6
		c8.2,3.2,12.2,9,11.4,16.6c-0.9,7.3-5.5,11.4-14.6,12.5c-1.2,0.3-2.6,0.3-3.8,0.3c-45.4,0-90.6,0.3-136,0
		c-14.3,0-20.7-9.6-15.7-21.3c2-5,6.7-6.7,11.4-8.4c11.4-4.1,13.1-6.4,13.1-18.9c0.3-39,0-78.1,0.3-117.4c0-5-1.2-6.7-6.4-6.7
		c-10.2,0.3-20.1-0.3-30.3,0.3c-4.7,0.3-6.7-0.9-6.7-6.1c-0.3-20.4-0.6-20.1,20.1-20.4c7.6-0.3,17.8,3.5,22.1-1.7
		c3.8-4.4,1.2-14.3,1.2-21.8c0-30.3,0-60.6,0-90.9c0-14.3-1.2-15.7-14.3-20.1c-9-3.2-13.1-8.7-11.9-16.6c1.2-7.6,6.4-11.7,15.7-11.9
		C400,429.7,423.3,429.7,446.6,429.7L446.6,429.7z"/>
	<path fill="#3E98D3" d="M262.5,791.5c-22.7,0-45.4,0.3-68.5,0c-12.5-0.3-18.4-6.4-17.2-16.6c0.9-7,5.8-9.9,11.7-12.2
		c13.4-5,15.1-7.3,15.1-21.6c0-87.4,0-174.5,0-261.9c0-14.6-1.5-16.9-15.4-21.8c-8.7-3.2-11.9-7.9-11.1-16
		c0.6-6.4,5.8-10.8,14.3-11.9c2.6-0.3,5.2-0.3,7.9-0.3c42.5,0,85.1,0,127.3,0c0.9,0,1.5,0,2.3,0c12.2,0.3,17.8,3.8,18.9,11.9
		c1.2,8.4-2.9,13.7-14.3,17.2c-9.6,3.2-11.9,6.4-11.9,18.1c0,45.2,0,90,0,135.2c0,43.4,0,87.1,0,130.5c0,13.4,1.7,15.7,14.3,20.4
		c8.7,3.2,12.8,9,11.4,16.9c-1.2,7.6-6.4,11.7-15.7,11.9C308.6,791.8,285.5,791.5,262.5,791.5z"/>
	<path fill="#3E98D3" d="M1093.9,610.6c0,57.4-0.3,115.1,0.3,172.5c0,7.6-2.3,8.7-9,8.7c-38.5-0.3-76.6-0.3-115.1-0.3
		c-4.4,0-8.7-0.3-12.8-2c-5-2-7.9-5.8-8.2-11.4s1.5-10.2,6.7-13.1c2-1.2,4.7-2,7.3-3.2c11.1-3.8,12.8-6.1,12.8-18.1
		c0.3-89.4,0.3-178.6,0-267.7c0-11.9-1.7-13.7-13.4-17.8c-2.6-0.9-5.5-2-7.6-3.5c-5-3.2-6.1-8.2-5.5-13.7c0.6-5.2,3.8-8.2,8.4-10.2
		c3.8-1.5,8.2-1.7,12.2-1.7c38.7,0,77.8,0.3,116.5-0.3c6.4,0,7.6,2.3,7.6,8.2C1093.9,495.3,1093.9,553,1093.9,610.6z"/>
	<path fill="#3E98D3" d="M587.6,587.6c0-40.8,0-74,0-107.5c0-16.9-2.9-18.1-14.9-22.1c-9-2.9-12.8-8.4-11.9-15.7
		c0.9-6.7,6.1-11.1,15.1-12.2c3.5-0.6,7.3-0.3,10.8-0.3c40.8,0,81.3,0,122.1,0c5,0,9.9,0,14.6,1.5c5.5,1.7,8.7,5.2,9.6,11.1
		c0.9,5.8-1.7,10.5-6.7,13.7c-1.2,0.6-2.3,1.2-3.5,1.5c-14.3,3.8-16.9,4.4-16.9,24.8c-0.3,73.1-0.3,145.9,0,219.1
		c0,11.4-0.3,23.3,2,34.7c2.6,12.8,9,22.4,22.4,25.9c4.1,1.2,5.8,2.9,5.8,7.6c-0.6,8.2-0.3,16-0.3,24.2c0,3.5-0.9,5.5-4.7,5.5
		c-38.5-0.3-75.2-5.8-107.5-28.8c-23-16.6-33.8-38.7-35.2-66.7C586.8,662.5,588.2,621.4,587.6,587.6z"/>
	<path fill="#3E98D3" d="M835.2,429.7c20.1,0,40.5,0,60.6,0c2.6,0,5.2,0,7.9,0c10.2,0.6,16.6,5,17.5,12.2
		c1.2,7.9-3.2,13.1-13.1,16.6c-12.5,4.4-13.7,6.1-13.7,20.7c0,65.8,0,131.7,0,197.2c0,12.2-0.9,24.2-1.7,36.4
		c-2.9,30.6-20.4,50.4-46,65c-22.1,12.5-45.7,18.9-71.1,20.1c-7.9,0.6-15.4,0.6-23.3,1.2c-4.4,0.3-6.7-1.2-6.4-6.1
		c0.3-8.2,0.3-16,0-24.2c-0.3-3.8,1.5-5.8,5-6.7c18.6-5,23.9-19.2,24.5-36.1c2.6-65.5,0.9-131.1,1.2-196.6
		c0.3-18.6,0.9-37.3-0.6-55.9c-0.6-7.9-3.8-13.1-11.9-15.1c-2.6-0.6-5-1.5-7.3-2.9c-5.8-2.9-8.4-7.6-7.6-14
		c0.6-6.1,4.4-9.6,10.2-11.4c4.4-1.2,8.7-1.2,13.1-1.2C793.3,429.7,814.3,429.7,835.2,429.7z"/>
	<path fill="#3E98D3" d="M1179.3,603.4c12.2,3.2,22.4,5.5,32,8.7c32.9,10.8,55.1,31.8,60.9,66.7c10.2,61.8-28.8,99.9-80.7,109.8
		c-23.3,4.4-46.9,2.9-70.5,3.2c-3.8,0-6.1-0.9-5.5-5.2c0.3-0.9,0-1.5,0-2.3c0-5.8-1.5-12.5,0.6-17.8c2.3-6.1,10.2-3.5,15.4-5.5
		c12.8-5,18.4-14.9,19.5-27.4c2.3-28.5,2-56.8,0-85.4c-1.2-14.9-11.7-26.2-26.8-29.1c-5.8-1.2-8.7-3.5-7.6-9.6c0.3-1.2,0-2.6,0-3.8
		c0.3-5-1.2-10.5,0.9-14.6s8.4-2.6,12.8-3.8c12.8-4.1,21.6-15.7,21.8-31.8c0.3-19.8,0.9-39.9-0.6-59.7c-1.7-21.6-9.9-31.5-30.6-36.1
		c-3.8-0.9-5.8-1.7-5.5-6.4c0.3-6.4,0.3-12.8,0-19.5c0-2.9,0.6-4.4,3.8-4.4c31.2-0.3,62.3-1.5,92.1,9.9
		c31.2,11.9,52.1,32.6,56.8,67.3c4.7,35.8-14.9,69.6-48.9,84.2C1206.9,596.4,1194.1,599.3,1179.3,603.4z"/>
	<path fill="#3E98D3" d="M70.8,791.5c-16.3,0-32.6,0.3-48.9,0c-9-0.3-13.7-5-12.5-11.9c0.9-5,4.4-7.6,9-8.4
		c7.6-1.7,9.9-6.7,9.9-14.3c-0.3-63.2-0.3-126.4,0-189.3c0-7.6-2.3-12.2-10.2-14.3c-6.1-1.5-10.2-5.5-8.7-12.5
		c1.2-6.7,6.7-8.4,12.2-8.4c32.9-0.3,65.8-0.3,98.5,0c5.5,0,10.5,1.7,11.7,8.2c1.2,6.7-2,11.1-8.4,12.8c-8.2,2-10.2,7.3-10.2,14.9
		c0.3,62.9,0.3,125.6,0,188.5c0,7.9,2.6,12.8,10.5,14.9c6.1,1.5,9.3,5.5,8.4,11.9c-0.9,6.4-6.1,8.2-11.4,8.2
		C104.1,791.8,87.5,791.5,70.8,791.5L70.8,791.5z"/>
	<path fill="#3E98D3" d="M135.2,446.1c0,35.8-28.8,64.4-64.7,64.4s-64.4-29.1-64.4-65c0.3-35.2,28.8-64.1,64.4-64.1
		C106.4,381.4,135.2,410.5,135.2,446.1z"/>
	<path fill="#F8FBFE" d="M722.2,232.2c-3.2-2-5.8-1.2-8.2-1.2c-67,0-134,0-201.3-0.3c-5.2,0-8.2,1.5-11.1,6.1
		c-8.4,13.1-26.5,15.4-38.2,6.1c-12.2-9.9-13.4-28-2.6-39.3c10.5-11.1,28.8-11.4,38.2,1.2c5.5,7.3,11.1,7.6,18.4,7.6
		c59.4-0.3,118.6,0,178-0.3c2.6,0,5.2,0.9,7.9-0.9c-1.5-5.2-6.4-7-9.9-10.2c-12.5-12.2-25.1-23.9-37.6-36.1
		c-2.9-2.9-6.1-4.4-10.2-4.4c-21,0.3-41.9,0.3-62.9,0c-4.4,0-6.7,1.2-9.3,5.2c-6.7,10.8-18.6,14.9-30.3,11.4
		c-11.1-3.5-18.1-13.1-18.4-25.1c0-12.2,7.3-22.1,18.9-25.6c11.4-3.5,23,0.9,29.7,11.4c2.6,4.1,5.5,5.2,10.2,5.2
		c22.1-0.3,44,0,66.1-0.3c5.5,0,9.9,1.5,13.7,5.5c20.7,20.1,41.9,39.9,62.9,60c2.9,2.6,5.5,4.1,9.6,4.1c10.5-0.3,21.3-0.3,31.8,0
		c4.1,0.3,6.1-1.2,7.9-5.2c7.9-19.5,27.1-30.6,46.3-26.8c20.1,3.8,34.1,21,34.1,41.4c0,20.7-14.3,37.6-35.2,41.4
		c-17.8,3.5-37-7.3-44.6-25.1c-2-5-4.7-6.1-9.9-7.3c-18.9-3.8-28.3,9-38.5,20.4c-13.1,14-26.2,28-39,42.2c-2.9,3.2-6.1,4.4-10.2,4.1
		c-17.8-0.3-35.8,0-53.6-0.3c-4.4,0-7,1.2-9.3,5.2c-6.4,10.5-18.4,14.9-29.4,11.4c-11.4-3.5-19.2-13.7-19.2-25.3
		c0-11.9,7.6-22.1,18.9-25.6c11.7-3.5,23.6,0.9,30,11.9c2,3.8,5,4.7,8.7,4.7c15.4-0.3,31.2,0,46.6,0c2.6,0,5.2,0.3,7.3-1.7
		C693.1,262.5,707.6,247.4,722.2,232.2z M786,202.5c14.3-2.9,26.8-1.7,37.9,7.3c10.8,8.7,15.1,20.1,15.4,34.1
		c13.4-15.7,7-37.6-5-46.9C819.5,184.8,798.2,186.8,786,202.5z"/>
	<path fill="#3E98D3" d="M786,202.5c12.2-15.7,33.5-17.5,48.4-5.5c11.9,9.3,18.1,31.2,5,46.9c-0.3-14-5-25.3-15.4-34.1
		C812.8,200.8,800.3,199.6,786,202.5z"/>
</g>
</svg>
