<?xml version="1.0" encoding="utf-8"?>
<!-- Generator: Adobe Illustrator 18.1.1, SVG Export Plug-In . SVG Version: 6.00 Build 0)  -->
<svg version="1.1" id="Layer_1" xmlns="http://www.w3.org/2000/svg" xmlns:xlink="http://www.w3.org/1999/xlink" x="0px" y="0px"
	 viewBox="0 0 1500 1500" enable-background="new 0 0 1500 1500" xml:space="preserve">
<g>
	<path fill="#3E98D3" d="M-2707.6,853.9c-46,0-92-0.3-138,0.2c-16.8,0.2-31.2-5.3-43.6-15.7c-25.6-21.5-35.3-49.2-26.5-81.5
		c8.9-32.5,31.3-51.3,64.5-57.1c8.2-1.4,16.3-1.3,24.3,0.5c4,0.9,5-0.4,6.2-3.8c15.3-43,45.2-70.1,89.6-80
		c58.8-13.2,119.3,21.7,138.3,79.1c1.6,4.8,3,6.6,8.8,5.8c40.5-5.8,79.4,23.9,85.3,64.6c5,34.4-11.7,67.2-42,81.7
		c-8.5,4.1-17.3,6.5-27.1,6.4C-2614.3,853.7-2661,853.9-2707.6,853.9z M-2655.8,757.7c-9.3,9.7-18.2,19-27.2,28.5
		c-1.5,1.6-3.3,2-5.4,1.9c-10,0-20-0.1-30,0c-2.8,0-4.4-0.9-5.9-3.4c-4-6.7-11.7-9.5-19-7.4c-7.3,2.1-12.3,8.7-12.3,16.4
		c0,7.7,4.7,14.1,12.2,16.4c7.1,2.2,15.1-0.6,19.1-7.3c1.6-2.7,3.5-3.4,6.5-3.4c11.2,0.1,22.3-0.1,33.5,0.1c3.3,0.1,5.7-1,7.8-3.4
		c9.5-10.3,19.5-20.1,28.4-30.8c6-7.2,12.7-9.8,21.7-8.7c2.6,0.3,4,0.8,5.1,3.5c4.3,10.7,12.5,16.8,24,17.4
		c13.3,0.7,25.5-9.5,27.5-22.7c2-13.2-6.2-26.3-18.7-30c-13.4-3.9-27.4,2.5-32.5,15.4c-1.4,3.6-3.2,4.7-6.9,4.5
		c-6.3-0.3-12.7-0.2-19,0c-2.5,0.1-4.4-0.7-6.2-2.5c-13.4-12.9-27-25.7-40.5-38.7c-2.6-2.5-5.2-3.7-8.8-3.6c-14.3,0.2-28.7,0-43,0.1
		c-2.8,0-4.5-0.8-6.1-3.2c-4.5-7-12-9.7-19.5-7.3c-7.2,2.3-11.8,8.6-11.8,16.2c0,8,4.6,14.3,12,16.5c7.5,2.2,14.9-0.5,19.4-7.6
		c1.5-2.3,3-3.1,5.6-3.1c13.7,0.1,27.3,0.1,41,0c2.6,0,4.4,0.9,6.2,2.6c9,8.7,18.1,17.2,27.1,25.9c1.1,1.1,3.3,2.1,2.6,3.8
		c-0.7,1.8-3,0.8-4.5,0.8c-38.7,0-77.3,0-116,0.1c-3.9,0-6.6-0.5-9.1-4.2c-4.5-6.5-12.1-8.2-19.1-5.5c-6.9,2.6-11.2,9.3-11,16.8
		c0.3,7.1,5.3,13.7,12,15.6c7.5,2.1,15-0.4,19.1-7.2c1.8-2.9,3.8-3.5,6.8-3.5c43.3,0.1,86.6,0,130,0.1
		C-2659.2,756.9-2657.7,756.5-2655.8,757.7z"/>
	<path fill="#3E98D3" d="M-2190.7,853.9c-14.7,0-29.3,0.1-44,0c-9.1-0.1-13.5-7.2-9.3-14.4c1.7-2.9,4.5-3.8,7.3-4.8
		c6.8-2.6,8.1-4.1,8.1-11.3c0.1-25.5,0-51,0.1-76.5c0-3.1-0.9-4-4-3.9c-6.8,0.2-13.7,0-20.5,0.1c-2.5,0-3.4-0.7-3.6-3.4
		c-0.7-13.7-0.8-13.7,12.7-13.7c3.7,0,7.4-0.2,11,0.1c3.7,0.3,4.4-1.2,4.4-4.6c-0.1-23.3,0-46.7-0.1-70c0-8.2-1.1-9.5-8.9-12.1
		c-5.8-1.9-8.5-5.6-7.9-10.5c0.6-4.8,4-7.7,10.1-7.7c30-0.1,60-0.1,90,0c6.1,0,9.6,2.9,10.3,7.5c0.8,4.9-1.8,8.5-7.8,10.6
		c-8.4,3-9.7,4.8-9.7,13.9c0,56,0,112,0,168c0,9,1.5,11.1,9.6,14c5.9,2.1,8.7,6.1,7.9,11.1c-0.7,4.8-4.3,7.7-10.7,7.8
		C-2160.7,854-2175.7,853.9-2190.7,853.9z"/>
	<path fill="#3E98D3" d="M-2308.7,853.9c-14.7,0-29.3,0.1-44,0c-8-0.1-11.9-4.2-11.1-10.7c0.6-4.5,3.7-6.4,7.5-7.8
		c8.7-3.2,9.6-4.5,9.6-13.8c0-56.2,0-112.3,0-168.5c0-9.4-1-10.8-10-14.1c-5.6-2.1-7.7-5.1-7.1-10.4c0.6-5.2,4.5-6.6,8.7-7.4
		c1.8-0.4,3.7-0.2,5.5-0.2c27.3,0,54.7,0,82,0c0.3,0,0.7,0,1,0c8.2,0.1,11.8,2.3,12.7,7.7c0.8,5.5-2,9.1-9.6,11.2
		c-4.6,1.3-6.4,4.3-7,8.6c-0.2,1.5-0.1,3-0.1,4.5c0,56.2,0,112.3,0,168.5c0,9.8,0.8,10.9,9.7,14.3c5.2,1.9,7.7,5.8,6.9,10.7
		c-0.8,4.6-4,7.4-9.7,7.5c-9.3,0.2-18.7,0.1-28,0.1C-2297.4,853.9-2303,853.9-2308.7,853.9z"/>
	<path fill="#3E98D3" d="M-1773.4,737.4c0,37-0.1,74,0.1,111c0,4.2-0.7,5.7-5.4,5.7c-24.8-0.3-49.6-0.1-74.5-0.1
		c-2.7,0-5.3-0.1-7.9-1.1c-3.2-1.3-5.3-3.5-5.6-7c-0.3-3.8,0.8-6.9,4.2-8.9c0.9-0.5,1.8-1,2.7-1.2c10.8-2.7,10.3-7.1,10.3-15.4
		c0-55.3,0-110.6,0-165.9c0-1.5-0.1-3-0.1-4.5c-0.1-5.3-2.1-8.9-7.7-10.1c-1.9-0.4-3.8-1.3-5.5-2.3c-3.2-1.9-4.3-4.9-4-8.6
		c0.3-3.6,2.5-5.7,5.6-6.9c2.4-1,4.8-1.1,7.4-1.1c25.2,0,50.3,0.1,75.5-0.1c4.2,0,4.8,1.5,4.8,5.2
		C-1773.5,663.1-1773.4,700.3-1773.4,737.4z"/>
	<path fill="#3E98D3" d="M-2061.4,620.9c13.5,0,27,0,40.5,0c3,0,6,0,8.9,0.9c3.5,1.1,5.8,3.4,6.3,7c0.5,3.8-1.1,6.8-4.3,8.9
		c-0.7,0.4-1.5,0.8-2.2,1.1c-10.5,4.4-10.9,5-11,16.5c0,19.8,0,39.6,0,59.5c0,24.2,0,48.3,0,72.5c0,10.1-0.1,20.3,1.5,30.4
		c1.4,8.7,5.7,15.2,14.8,17.4c2.5,0.6,3.5,1.9,3.4,4.6c-0.2,5.3-0.1,10.7,0,16c0,1.9-0.4,3.2-2.7,3.2c-27.9-0.1-54.4-4.6-76.2-24.1
		c-10.5-9.4-14.7-21.5-15.9-35c-0.6-7-0.8-14-0.8-21c-0.1-41,0-81.9,0-122.9c0-2.3-0.1-4.7-0.1-7c-0.1-4.5-2.2-7.3-6.7-8.8
		c-8.5-2.8-11.3-6.2-10.3-11.7c0.9-5,5.3-7.4,13.6-7.4C-2089.1,620.9-2075.3,620.9-2061.4,620.9z"/>
	<path fill="#3E98D3" d="M-1939.5,620.9c13.7,0,27.3,0,41,0c2.1,0,4.4,0.1,6.4,0.6c4,1,7,3.1,7.3,7.7c0.3,4.6-1.9,7.6-6,9.4
		c-1.7,0.7-3.4,1.3-5.2,1.8c-3.7,1.1-5.4,3.7-5.8,7.3c-0.2,2.7-0.3,5.3-0.3,8c0,42.1,0,84.3-0.1,126.4c0,7-0.6,14-1.2,20.9
		c-1.7,19.6-13,32.6-29.4,41.9c-14.1,8-29.4,12.2-45.6,13.1c-5.1,0.3-10.3,0.4-15.5,0.8c-2.7,0.2-4-0.5-3.9-3.6
		c0.2-5.3,0.1-10.7,0-16c-0.1-2.2,0.6-3.5,2.7-4c12.6-3.1,15.7-12.8,16.2-23.9c1.2-24.5,0.6-48.9,0.7-73.4c0.1-27,0-54,0-80.9
		c0-2.7-0.4-5.3-0.5-8c-0.1-5-2.6-8-7.6-9.1c-1.6-0.4-3.2-1.1-4.6-1.8c-3.7-1.9-5.4-5-4.9-9c0.5-3.9,2.9-6.2,6.6-7.2
		c2.8-0.8,5.6-0.8,8.4-0.8C-1966.8,620.9-1953.1,620.9-1939.5,620.9z"/>
	<path fill="#3E98D3" d="M-1717.1,732.7c7.3,2.3,14.8,3.9,21.9,6.4c44.6,15.7,44.6,67.3,25.2,90.1c-12.4,14.6-28.8,21.5-47.5,23.6
		c-12.6,1.4-25.3,0.7-37.9,1.1c-3.3,0.1-4.6-1-4.1-4.2c0.1-1,0-2,0-3c0.1-3.3-0.9-7.2,0.5-9.8c1.4-2.6,5.7-1.5,8.7-2.5
		c8.5-2.7,13-9,13.6-17.4c1.2-18.6,1.1-37.3,0-55.9c-0.5-9.4-7.4-16.3-17.1-18.3c-3.7-0.8-5.7-2.1-4.9-6.1c0.1-0.5,0-1,0-1.5
		c0-3.3-0.8-7,0.3-9.9c1.3-3.5,5.8-1.9,8.8-3.1c8.1-3,12.7-9.1,13.1-17.2c0.6-14.5,0.5-29-0.1-43.5c-0.5-11.8-6.8-18.6-18.4-21
		c-3.8-0.8-4.8-2.3-4.6-5.9c0.3-3.6,0.1-7.3,0.1-11c0-1.7,0.3-2.9,2.4-2.9c21-0.1,42.1-0.9,62,7.5c14.8,6.2,26.1,15.9,31.4,31.5
		c9,26.3-3.5,54-29.1,64.9C-1700.7,728.1-1708.9,730.1-1717.1,732.7z"/>
	<path fill="#3E98D3" d="M-2459.4,770.4c0-19.8-0.1-39.6,0.1-59.5c0-5.4-1.1-9.4-7.1-10.8c-3.6-0.9-5.6-3.5-5.1-7.5
		c0.5-4.1,3.5-5.7,7.1-5.7c21.7-0.1,43.3-0.1,65,0c3.3,0,6.3,1.4,6.9,5.3c0.6,4.1-1.3,7-5.2,7.9c-5.7,1.4-7,5-7,10.3
		c0.1,40.1,0.1,80.3,0,120.4c0,5.2,1.6,8.6,6.9,9.9c4,0.9,5.8,3.7,5.2,7.8c-0.6,3.9-3.7,5.1-7,5.1c-21.7,0.1-43.3,0.1-65,0
		c-3.6,0-6.6-1.7-6.9-5.8c-0.4-4,1.7-6.4,5.4-7.2c5.4-1.2,6.9-4.8,6.8-9.9C-2459.5,810.7-2459.4,790.6-2459.4,770.4z"/>
	<path fill="#3E98D3" d="M-2390.6,631.4c0,23-18.5,41.6-41.6,41.5c-23,0-41.5-18.6-41.4-41.7c0.1-22.8,18.5-41.2,41.3-41.3
		C-2409.2,589.9-2390.7,608.3-2390.6,631.4z"/>
	<path fill="#F8FBFE" d="M-2655.8,757.7c-1.9-1.2-3.4-0.8-4.8-0.8c-43.3,0-86.6,0-130-0.1c-3.1,0-5.1,0.6-6.8,3.5
		c-4.1,6.8-11.6,9.4-19.1,7.2c-6.7-1.9-11.7-8.5-12-15.6c-0.3-7.5,4.1-14.2,11-16.8c7-2.7,14.7-0.9,19.1,5.5
		c2.5,3.7,5.3,4.2,9.1,4.2c38.7-0.1,77.3,0,116-0.1c1.6,0,3.8,1,4.5-0.8c0.7-1.7-1.5-2.7-2.6-3.8c-9-8.7-18.1-17.2-27.1-25.9
		c-1.8-1.7-3.6-2.6-6.2-2.6c-13.7,0.1-27.3,0.1-41,0c-2.6,0-4.2,0.8-5.6,3.1c-4.5,7.1-11.9,9.8-19.4,7.6c-7.5-2.2-12-8.5-12-16.5
		c0-7.6,4.6-13.9,11.8-16.2c7.4-2.4,15,0.3,19.5,7.3c1.6,2.5,3.3,3.2,6.1,3.2c14.3-0.1,28.7,0,43-0.1c3.6,0,6.3,1.1,8.8,3.6
		c13.4,13,27,25.7,40.5,38.7c1.8,1.8,3.7,2.5,6.2,2.5c6.3-0.1,12.7-0.3,19,0c3.7,0.2,5.5-0.9,6.9-4.5c5.1-12.9,19-19.3,32.5-15.4
		c12.5,3.6,20.7,16.8,18.7,30c-2,13.2-14.2,23.5-27.5,22.7c-11.5-0.6-19.7-6.7-24-17.4c-1.1-2.7-2.4-3.2-5.1-3.5
		c-9-1.1-15.7,1.6-21.7,8.7c-8.9,10.7-19,20.5-28.4,30.8c-2.2,2.4-4.5,3.4-7.8,3.4c-11.2-0.2-22.3,0-33.5-0.1
		c-2.9,0-4.8,0.7-6.5,3.4c-4,6.7-12,9.5-19.1,7.3c-7.5-2.3-12.2-8.7-12.2-16.4c0-7.7,5-14.3,12.3-16.4c7.4-2.1,15,0.7,19,7.4
		c1.5,2.5,3.1,3.4,5.9,3.4c10-0.2,20-0.1,30,0c2.1,0,3.9-0.3,5.4-1.9C-2674.1,776.8-2665.1,767.4-2655.8,757.7z M-2614.3,738.4
		c8.6-1.5,16.7-1,23.7,4.6c7,5.6,9.8,13.2,10.3,22.4c7.8-11.3,5.3-25-5.1-31.9C-2595.1,727.2-2608.4,729.3-2614.3,738.4z"/>
	<path fill="#3E98D3" d="M-2614.3,738.4c5.9-9.1,19.2-11.2,28.9-4.8c10.4,6.9,12.9,20.5,5.1,31.9c-0.5-9.3-3.3-16.8-10.3-22.4
		C-2597.7,737.4-2605.7,736.9-2614.3,738.4z"/>
</g>
<g>
	<path fill="#3E98D3" d="M-759.8,693.3c-46,0-92-0.3-138,0.2c-16.9,0.2-31.2-5.6-43.5-16c-25-21.2-34.5-48.4-26.3-80.2
		c8.1-31.6,29.5-50.5,61.3-57.5c9.2-2,18.6-2.1,27.8,0c4,0.9,5-0.4,6.2-3.8c15.3-43,45.2-70.1,89.6-80
		c58.8-13.2,119.3,21.7,138.3,79.1c1.6,4.9,3,6.6,8.8,5.8c40.4-5.8,79.3,23.9,85.3,64.6c4.8,33.2-9.9,63.8-38.9,80
		c-9.1,5.1-18.8,8.1-29.7,8.1C-665.8,693.2-712.8,693.3-759.8,693.3z M-707.5,597.2c-9.4,9.8-18.7,19.5-28,29.2
		c-1.3,1.4-3,1.2-4.7,1.2c-10,0-20-0.1-30,0c-2.6,0-4.2-0.6-5.6-3c-4.2-7.1-11.8-9.9-19.3-7.7c-7.3,2.1-12.2,8.8-12.2,16.5
		c0,7.6,5,14.1,12.3,16.4c7.1,2.1,14.9-0.7,19-7.4c1.5-2.5,3.2-3.3,6-3.3c11.5,0.1,23,0,34.5,0.1c2.7,0,4.7-0.7,6.6-2.7
		c8.3-9.1,16.7-18.1,25.1-27.1c6.7-7.2,12.6-15.6,24.8-13.2c3.4,0.7,5.1,1.4,6.4,4.6c4.8,11.5,17.1,18.3,28.6,16.1
		c13.4-2.5,22.6-13.3,22.6-26.6c0-13.1-9.1-24.1-22-26.6c-12.5-2.4-24.9,4.6-29.8,17.3c-1.1,2.7-2.4,3.5-5.1,3.4
		c-6.8-0.2-13.7-0.2-20.5,0c-2.6,0.1-4.3-0.9-6.1-2.6c-13.5-12.9-27-25.7-40.5-38.7c-2.6-2.5-5.3-3.5-8.9-3.5
		c-14.2,0.1-28.3,0-42.5,0.1c-3,0-4.8-0.7-6.5-3.4c-4.3-6.8-11.8-9.4-19.1-7.3c-7.4,2.2-12.1,8.7-12.1,16.5
		c0,7.6,4.6,13.9,11.8,16.2c7.5,2.4,15.1-0.3,19.5-7.3c1.5-2.5,3.2-3.3,6-3.3c13.5,0.1,27,0.1,40.5,0c2.7,0,4.7,0.9,6.6,2.8
		c8,7.8,16.2,15.4,24.1,23.2c2.1,2.1,5.4,3.2,6.3,6.6c-1.7,1.1-3.4,0.6-5,0.6c-38.2,0-76.3,0-114.5,0.1c-4.7,0-8.4-0.3-11.9-4.9
		c-6.1-8.1-17.8-7.9-24.6-0.7c-6.9,7.3-6.1,19,1.7,25.3c7.6,6.1,19.2,4.5,24.5-3.9c1.9-2.9,3.8-3.9,7.1-3.9
		c43.2,0.1,86.3,0.1,129.5,0.1C-711.2,596.4-709.5,595.9-707.5,597.2z"/>
	<path fill="#3E98D3" d="M-884.8,724.3c13.5,0,27,0,40.5,0c1,0,2,0,3,0c7.2,0.2,11,2.8,11.7,7.8c0.7,5.1-2.1,8.5-8.9,10.8
		c-7,2.4-8.6,4.8-8.7,13.1c0,32,0,64,0,96c0,23.8,0,47.7,0,71.5c0,10,1.1,11.5,10.2,15.1c5.3,2,7.9,5.8,7.3,10.6
		c-0.5,4.6-3.6,7.3-9.4,8c-0.8,0.1-1.7,0.1-2.5,0.1c-29.2,0-58.3,0.1-87.5,0c-9.1,0-13.4-6.2-10.1-13.7c1.4-3.2,4.4-4.3,7.4-5.5
		c7.4-2.7,8.4-4.1,8.4-12.1c0.1-25.2,0-50.3,0.1-75.5c0-3.2-0.8-4.4-4.1-4.3c-6.5,0.2-13-0.1-19.5,0.1c-3,0.1-4.4-0.5-4.4-4
		c-0.2-13.1-0.3-13,12.9-13.1c4.9-0.1,11.5,2.2,14.3-1.1c2.4-2.8,0.8-9.2,0.8-14c0-19.5,0-39,0-58.5c0-9.1-0.8-10.1-9.1-13
		c-5.8-2-8.5-5.7-7.7-10.7c0.7-4.8,4.1-7.5,10.2-7.6C-914.8,724.3-899.8,724.4-884.8,724.3C-884.8,724.4-884.8,724.3-884.8,724.3z"
		/>
	<path fill="#3E98D3" d="M-1003.3,957.3c-14.7,0-29.3,0.1-44,0c-8-0.1-11.9-4.1-11.1-10.7c0.6-4.5,3.7-6.4,7.5-7.8
		c8.7-3.2,9.7-4.6,9.7-13.8c0-56.2,0-112.3,0-168.5c0-9.4-1-10.8-10-14.1c-5.7-2.1-7.7-5.1-7.2-10.4c0.4-4.2,3.7-6.9,9.2-7.6
		c1.6-0.2,3.3-0.2,5-0.2c27.3,0,54.7,0,82,0c0.5,0,1,0,1.5,0c7.8,0.1,11.4,2.4,12.2,7.6c0.8,5.4-1.9,8.8-9.1,11.1
		c-6.1,2-7.6,4.2-7.6,11.7c0,29,0,58,0,87c0,28,0,56,0,84c0,8.6,1.2,10.2,9.2,13.1c5.6,2,8.3,5.9,7.4,10.8
		c-0.8,4.8-4.1,7.5-10.2,7.6C-973.7,957.4-988.5,957.3-1003.3,957.3z"/>
	<path fill="#3E98D3" d="M-468.1,840.8c0,37-0.1,74,0.1,111c0,4.8-1.5,5.7-5.9,5.7c-24.7-0.2-49.3-0.1-74-0.1
		c-2.9,0-5.7-0.1-8.3-1.3c-3.1-1.4-5.1-3.7-5.2-7.3c-0.1-3.6,1-6.6,4.3-8.4c1.4-0.8,3-1.4,4.6-2c7.1-2.5,8.3-3.9,8.3-11.6
		c0.1-57.5,0.1-115,0-172.4c0-7.6-1.2-8.8-8.6-11.4c-1.7-0.6-3.5-1.3-4.9-2.3c-3.1-2.1-4-5.2-3.6-8.8c0.4-3.3,2.5-5.3,5.5-6.5
		c2.5-1,5.2-1.1,7.9-1.1c25,0,50,0.1,75-0.1c4.2,0,4.8,1.5,4.8,5.2C-468.1,766.5-468.1,803.7-468.1,840.8z"/>
	<path fill="#3E98D3" d="M-794,825.9c0-26.2,0-47.7,0-69.2c0-10.9-1.8-11.7-9.6-14.2c-5.8-1.8-8.2-5.5-7.6-10.2
		c0.5-4.3,3.9-7.1,9.7-7.8c2.3-0.3,4.7-0.2,7-0.2c26.2,0,52.3,0,78.5,0c3.2,0,6.3,0,9.4,1c3.5,1.1,5.7,3.4,6.2,7.1
		c0.5,3.8-1.1,6.8-4.4,8.8c-0.7,0.4-1.5,0.8-2.3,1c-9.1,2.5-10.8,2.9-10.8,16c-0.2,47-0.2,94,0,141c0,7.4-0.1,15,1.4,22.4
		c1.7,8.3,5.8,14.5,14.5,16.7c2.6,0.7,3.8,1.9,3.7,4.9c-0.3,5.2-0.1,10.3-0.1,15.5c0,2.2-0.5,3.5-3,3.5
		c-24.7-0.1-48.4-3.8-69.2-18.6c-14.9-10.6-21.8-25-22.7-42.9C-794.6,874.2-793.6,847.7-794,825.9z"/>
	<path fill="#3E98D3" d="M-634.6,724.3c13,0,26,0,39,0c1.7,0,3.3,0,5,0c6.6,0.3,10.6,3.1,11.2,7.8c0.7,5-2,8.4-8.4,10.7
		c-8,2.9-8.8,3.9-8.8,13.3c0,42.3,0,84.7,0,127c0,7.8-0.5,15.6-1.2,23.4c-1.9,19.6-13.2,32.5-29.6,41.8c-14.2,8-29.4,12.2-45.7,13
		c-5,0.3-10,0.4-15,0.8c-2.9,0.2-4.3-0.7-4.2-3.9c0.2-5.2,0.2-10.3,0-15.5c-0.1-2.5,0.9-3.7,3.1-4.3c12-3.1,15.4-12.4,15.8-23.2
		c1.6-42.1,0.5-84.3,0.7-126.5c0.1-12,0.5-24-0.3-36c-0.3-5.1-2.4-8.5-7.6-9.7c-1.6-0.4-3.2-1-4.6-1.8c-3.7-1.9-5.4-4.9-4.9-9
		c0.4-3.9,2.9-6.2,6.6-7.3c2.8-0.8,5.6-0.8,8.4-0.8C-661.6,724.3-648.1,724.3-634.6,724.3z"/>
	<path fill="#3E98D3" d="M-413.3,836.1c7.9,2.1,14.4,3.6,20.6,5.6c21.1,6.9,35.4,20.5,39.1,43c6.5,39.7-18.6,64.4-51.9,70.6
		c-15,2.8-30.2,1.9-45.3,2.1c-2.5,0-3.9-0.6-3.5-3.3c0.1-0.5,0-1,0-1.5c0-3.8-0.9-8,0.3-11.4c1.5-4,6.6-2.3,10-3.6
		c8.2-3.2,11.9-9.6,12.6-17.7c1.5-18.3,1.3-36.6,0-54.9c-0.7-9.6-7.5-16.9-17.2-18.7c-3.8-0.7-5.6-2.2-4.9-6.2c0.2-0.8,0-1.7,0-2.5
		c0.1-3.2-0.8-6.8,0.5-9.3c1.3-2.6,5.4-1.6,8.2-2.5c8.2-2.7,13.9-10.2,14.1-20.4c0.2-12.8,0.6-25.6-0.4-38.5
		c-1.1-13.8-6.4-20.3-19.7-23.3c-2.5-0.6-3.8-1.2-3.6-4.1c0.2-4.2,0.1-8.3,0-12.5c0-1.8,0.4-2.8,2.5-2.8c20-0.1,40.1-0.9,59.2,6.4
		c20.1,7.7,33.6,21,36.5,43.3c3,23.1-9.6,44.9-31.5,54.2C-395.4,831.6-403.7,833.5-413.3,836.1z"/>
	<path fill="#3E98D3" d="M-1126.6,957.3c-10.5,0-21,0.1-31.5,0c-5.8-0.1-8.9-3.2-8.1-7.7c0.6-3.2,2.8-4.8,5.8-5.5
		c4.9-1.2,6.4-4.4,6.4-9.2c-0.1-40.6-0.1-81.3,0-121.9c0-4.8-1.5-7.9-6.5-9.2c-3.9-1-6.5-3.6-5.7-8.1c0.8-4.3,4.3-5.4,7.9-5.4
		c21.1-0.1,42.3-0.1,63.4,0c3.5,0,6.7,1.1,7.5,5.2c0.8,4.4-1.4,7.2-5.5,8.2c-5.3,1.3-6.6,4.6-6.6,9.6c0.1,40.5,0.1,80.9,0,121.4
		c0,5,1.7,8.3,6.8,9.5c4,0.9,6,3.6,5.4,7.7c-0.6,4.2-3.9,5.3-7.3,5.3C-1105.3,957.4-1116,957.3-1126.6,957.3
		C-1126.6,957.3-1126.6,957.3-1126.6,957.3z"/>
	<path fill="#3E98D3" d="M-1085.3,734.9c0,23-18.6,41.5-41.6,41.5c-23,0-41.5-18.7-41.4-41.8c0.1-22.7,18.6-41.2,41.4-41.2
		C-1103.9,693.3-1085.3,711.9-1085.3,734.9z"/>
	<path fill="#F8FBFE" d="M-707.5,597.2c-2-1.3-3.7-0.8-5.3-0.8c-43.2,0-86.3,0-129.5-0.1c-3.4,0-5.3,1-7.1,3.9
		c-5.4,8.4-17,10-24.5,3.9c-7.8-6.3-8.6-18-1.7-25.3c6.8-7.2,18.6-7.4,24.6,0.7c3.5,4.6,7.1,4.9,11.9,4.9c38.2-0.1,76.3,0,114.5-0.1
		c1.6,0,3.3,0.5,5-0.6c-0.9-3.4-4.2-4.5-6.3-6.6c-8-7.8-16.1-15.4-24.1-23.2c-1.9-1.9-3.9-2.8-6.6-2.8c-13.5,0.1-27,0.1-40.5,0
		c-2.8,0-4.4,0.8-6,3.3c-4.4,7-12,9.6-19.5,7.3c-7.2-2.2-11.7-8.5-11.8-16.2c0-7.8,4.7-14.3,12.1-16.5c7.3-2.2,14.8,0.5,19.1,7.3
		c1.7,2.7,3.5,3.4,6.5,3.4c14.2-0.1,28.3,0,42.5-0.1c3.6,0,6.3,0.9,8.9,3.5c13.4,13,27,25.7,40.5,38.7c1.8,1.7,3.6,2.7,6.1,2.6
		c6.8-0.2,13.7-0.2,20.5,0c2.7,0.1,4-0.7,5.1-3.4c5-12.6,17.4-19.7,29.8-17.3c12.9,2.5,22,13.5,22,26.6c0,13.3-9.2,24.1-22.6,26.6
		c-11.5,2.2-23.9-4.6-28.6-16.1c-1.3-3.2-3-3.9-6.4-4.6c-12.2-2.5-18.1,5.9-24.8,13.2c-8.4,9-16.8,18-25.1,27.1
		c-1.8,2-3.9,2.8-6.6,2.7c-11.5-0.1-23,0-34.5-0.1c-2.8,0-4.5,0.7-6,3.3c-4.1,6.7-11.9,9.6-19,7.4c-7.4-2.2-12.3-8.8-12.3-16.4
		c0-7.7,4.9-14.3,12.2-16.5c7.5-2.2,15.1,0.6,19.3,7.7c1.4,2.4,3.1,3,5.6,3c10-0.1,20,0,30,0c1.7,0,3.4,0.2,4.7-1.2
		C-726.2,616.7-716.9,607-707.5,597.2z M-666.4,578c9.2-1.8,17.3-1.1,24.3,4.6c6.9,5.6,9.8,13,10,22c8.6-10.1,4.5-24.2-3.1-30.2
		C-644.9,566.7-658.5,567.9-666.4,578z"/>
	<path fill="#3E98D3" d="M-666.4,578c7.9-10.1,21.5-11.3,31.2-3.6c7.6,6,11.7,20.1,3.1,30.2c-0.2-9-3.2-16.4-10-22
		C-649.2,576.9-657.2,576.3-666.4,578z"/>
</g>
<rect x="5.2" fill="#3E98D3" width="1500" height="1500"/>
<g>
	<path fill="#FFFFFF" d="M301.4,849.7c-46,0-92-0.3-138,0.2c-16.8,0.2-31.2-5.3-43.6-15.7c-25.6-21.5-35.3-49.2-26.5-81.5
		c8.9-32.5,31.3-51.3,64.5-57.1c8.2-1.4,16.3-1.3,24.3,0.5c4,0.9,5-0.4,6.2-3.8c15.3-43,45.2-70.1,89.6-80
		c58.8-13.2,119.3,21.7,138.3,79.1c1.6,4.8,3,6.6,8.8,5.8c40.5-5.8,79.4,23.9,85.3,64.6c5,34.4-11.7,67.2-42,81.7
		c-8.5,4.1-17.3,6.5-27.1,6.4C394.7,849.5,348,849.7,301.4,849.7z M353.2,753.5c-9.3,9.7-18.2,19-27.2,28.5c-1.5,1.6-3.3,2-5.4,1.9
		c-10,0-20-0.1-30,0c-2.8,0-4.4-0.9-5.9-3.4c-4-6.7-11.7-9.5-19-7.4c-7.3,2.1-12.3,8.7-12.3,16.4c0,7.7,4.7,14.1,12.2,16.4
		c7.1,2.2,15.1-0.6,19.1-7.3c1.6-2.7,3.5-3.4,6.5-3.4c11.2,0.1,22.3-0.1,33.5,0.1c3.3,0.1,5.7-1,7.8-3.4
		c9.5-10.3,19.5-20.1,28.4-30.8c6-7.2,12.7-9.8,21.7-8.7c2.6,0.3,4,0.8,5.1,3.5c4.3,10.7,12.5,16.8,24,17.4
		c13.3,0.7,25.5-9.5,27.5-22.7c2-13.2-6.2-26.3-18.7-30c-13.4-3.9-27.4,2.5-32.5,15.4c-1.4,3.6-3.2,4.7-6.9,4.5
		c-6.3-0.3-12.7-0.2-19,0c-2.5,0.1-4.4-0.7-6.2-2.5c-13.4-12.9-27-25.7-40.5-38.7c-2.6-2.5-5.2-3.7-8.8-3.6c-14.3,0.2-28.7,0-43,0.1
		c-2.8,0-4.5-0.8-6.1-3.2c-4.5-7-12-9.7-19.5-7.3c-7.2,2.3-11.8,8.6-11.8,16.2c0,8,4.6,14.3,12,16.5c7.5,2.2,14.9-0.5,19.4-7.6
		c1.5-2.3,3-3.1,5.6-3.1c13.7,0.1,27.3,0.1,41,0c2.6,0,4.4,0.9,6.2,2.6c9,8.7,18.1,17.2,27.1,25.9c1.1,1.1,3.3,2.1,2.6,3.8
		c-0.7,1.8-3,0.8-4.5,0.8c-38.7,0-77.3,0-116,0.1c-3.9,0-6.6-0.5-9.1-4.2c-4.5-6.5-12.1-8.2-19.1-5.5c-6.9,2.6-11.2,9.3-11,16.8
		c0.3,7.1,5.3,13.7,12,15.6c7.5,2.1,15-0.4,19.1-7.2c1.8-2.9,3.8-3.5,6.8-3.5c43.3,0.1,86.6,0,130,0.1
		C349.8,752.8,351.3,752.3,353.2,753.5z"/>
	<path fill="#FFFFFF" d="M818.3,849.7c-14.7,0-29.3,0.1-44,0c-9.1-0.1-13.5-7.2-9.3-14.4c1.7-2.9,4.5-3.8,7.3-4.8
		c6.8-2.6,8.1-4.1,8.1-11.3c0.1-25.5,0-51,0.1-76.5c0-3.1-0.9-4-4-3.9c-6.8,0.2-13.7,0-20.5,0.1c-2.5,0-3.4-0.7-3.6-3.4
		c-0.7-13.7-0.8-13.7,12.7-13.7c3.7,0,7.4-0.2,11,0.1c3.7,0.3,4.4-1.2,4.4-4.6c-0.1-23.3,0-46.7-0.1-70c0-8.2-1.1-9.5-8.9-12.1
		c-5.8-1.9-8.5-5.6-7.9-10.5c0.6-4.8,4-7.7,10.1-7.7c30-0.1,60-0.1,90,0c6.1,0,9.6,2.9,10.3,7.5c0.8,4.9-1.8,8.5-7.8,10.6
		c-8.4,3-9.7,4.8-9.7,13.9c0,56,0,112,0,168c0,9,1.5,11.1,9.6,14c5.9,2.1,8.7,6.1,7.9,11.1c-0.7,4.8-4.3,7.7-10.7,7.8
		C848.3,849.8,833.3,849.7,818.3,849.7z"/>
	<path fill="#FFFFFF" d="M700.3,849.7c-14.7,0-29.3,0.1-44,0c-8-0.1-11.9-4.2-11.1-10.7c0.6-4.5,3.7-6.4,7.5-7.8
		c8.7-3.2,9.6-4.5,9.6-13.8c0-56.2,0-112.3,0-168.5c0-9.4-1-10.8-10-14.1c-5.6-2.1-7.7-5.1-7.1-10.4c0.6-5.2,4.5-6.6,8.7-7.4
		c1.8-0.4,3.7-0.2,5.5-0.2c27.3,0,54.7,0,82,0c0.3,0,0.7,0,1,0c8.2,0.1,11.8,2.3,12.7,7.7c0.8,5.5-2,9.1-9.6,11.2
		c-4.6,1.3-6.4,4.3-7,8.6c-0.2,1.5-0.1,3-0.1,4.5c0,56.2,0,112.3,0,168.5c0,9.8,0.8,10.9,9.7,14.3c5.2,1.9,7.7,5.8,6.9,10.7
		c-0.8,4.6-4,7.4-9.7,7.5c-9.3,0.2-18.7,0.1-28,0.1C711.6,849.7,706,849.7,700.3,849.7z"/>
	<path fill="#FFFFFF" d="M1235.6,733.2c0,37-0.1,74,0.1,111c0,4.2-0.7,5.7-5.4,5.7c-24.8-0.3-49.6-0.1-74.5-0.1
		c-2.7,0-5.3-0.1-7.9-1.1c-3.2-1.3-5.3-3.5-5.6-7c-0.3-3.8,0.8-6.9,4.2-8.9c0.9-0.5,1.8-1,2.7-1.2c10.8-2.7,10.3-7.1,10.3-15.4
		c0-55.3,0-110.6,0-165.9c0-1.5-0.1-3-0.1-4.5c-0.1-5.3-2.1-8.9-7.7-10.1c-1.9-0.4-3.8-1.3-5.5-2.3c-3.2-1.9-4.3-4.9-4-8.6
		c0.3-3.6,2.5-5.7,5.6-6.9c2.4-1,4.8-1.1,7.4-1.1c25.2,0,50.3,0.1,75.5-0.1c4.2,0,4.8,1.5,4.8,5.2
		C1235.5,658.9,1235.6,696.1,1235.6,733.2z"/>
	<path fill="#FFFFFF" d="M947.6,616.7c13.5,0,27,0,40.5,0c3,0,6,0,8.9,0.9c3.5,1.1,5.8,3.4,6.3,7c0.5,3.8-1.1,6.8-4.3,8.9
		c-0.7,0.4-1.5,0.8-2.2,1.1c-10.5,4.4-10.9,5-11,16.5c0,19.8,0,39.6,0,59.5c0,24.2,0,48.3,0,72.5c0,10.1-0.1,20.3,1.5,30.4
		c1.4,8.7,5.7,15.2,14.8,17.4c2.5,0.6,3.5,1.9,3.4,4.6c-0.2,5.3-0.1,10.7,0,16c0,1.9-0.4,3.2-2.7,3.2c-27.9-0.1-54.4-4.6-76.2-24.1
		c-10.5-9.4-14.7-21.5-15.9-35c-0.6-7-0.8-14-0.8-21c-0.1-41,0-81.9,0-122.9c0-2.3-0.1-4.7-0.1-7c-0.1-4.5-2.2-7.3-6.7-8.8
		c-8.5-2.8-11.3-6.2-10.3-11.7c0.9-5,5.3-7.4,13.6-7.4C919.9,616.7,933.7,616.7,947.6,616.7z"/>
	<path fill="#FFFFFF" d="M1069.5,616.7c13.7,0,27.3,0,41,0c2.1,0,4.4,0.1,6.4,0.6c4,1,7,3.1,7.3,7.7c0.3,4.6-1.9,7.6-6,9.4
		c-1.7,0.7-3.4,1.3-5.2,1.8c-3.7,1.1-5.4,3.7-5.8,7.3c-0.2,2.7-0.3,5.3-0.3,8c0,42.1,0,84.3-0.1,126.4c0,7-0.6,14-1.2,20.9
		c-1.7,19.6-13,32.6-29.4,41.9c-14.1,8-29.4,12.2-45.6,13.1c-5.1,0.3-10.3,0.4-15.5,0.8c-2.7,0.2-4-0.5-3.9-3.6
		c0.2-5.3,0.1-10.7,0-16c-0.1-2.2,0.6-3.5,2.7-4c12.6-3.1,15.7-12.8,16.2-23.9c1.2-24.5,0.6-48.9,0.7-73.4c0.1-27,0-54,0-80.9
		c0-2.7-0.4-5.3-0.5-8c-0.1-5-2.6-8-7.6-9.1c-1.6-0.4-3.2-1.1-4.6-1.8c-3.7-1.9-5.4-5-4.9-9c0.5-3.9,2.9-6.2,6.6-7.2
		c2.8-0.8,5.6-0.8,8.4-0.8C1042.2,616.7,1055.9,616.7,1069.5,616.7z"/>
	<path fill="#FFFFFF" d="M1291.9,728.5c7.3,2.3,14.8,3.9,21.9,6.4c44.6,15.7,44.6,67.3,25.2,90.1c-12.4,14.6-28.8,21.5-47.5,23.6
		c-12.6,1.4-25.3,0.7-37.9,1.1c-3.3,0.1-4.6-1-4.1-4.2c0.1-1,0-2,0-3c0.1-3.3-0.9-7.2,0.5-9.8c1.4-2.6,5.7-1.5,8.7-2.5
		c8.5-2.7,13-9,13.6-17.4c1.2-18.6,1.1-37.3,0-55.9c-0.5-9.4-7.4-16.3-17.1-18.3c-3.7-0.8-5.7-2.1-4.9-6.1c0.1-0.5,0-1,0-1.5
		c0-3.3-0.8-7,0.3-9.9c1.3-3.5,5.8-1.9,8.8-3.1c8.1-3,12.7-9.1,13.1-17.2c0.6-14.5,0.5-29-0.1-43.5c-0.5-11.8-6.8-18.6-18.4-21
		c-3.8-0.8-4.8-2.3-4.6-5.9c0.3-3.6,0.1-7.3,0.1-11c0-1.7,0.3-2.9,2.4-2.9c21-0.1,42.1-0.9,62,7.5c14.8,6.2,26.1,15.9,31.4,31.5
		c9,26.3-3.5,54-29.1,64.9C1308.3,723.9,1300.1,725.9,1291.9,728.5z"/>
	<path fill="#FFFFFF" d="M549.6,766.2c0-19.8-0.1-39.6,0.1-59.5c0-5.4-1.1-9.4-7.1-10.8c-3.6-0.9-5.6-3.5-5.1-7.5
		c0.5-4.1,3.5-5.7,7.1-5.7c21.7-0.1,43.3-0.1,65,0c3.3,0,6.3,1.4,6.9,5.3c0.6,4.1-1.3,7-5.2,7.9c-5.7,1.4-7,5-7,10.3
		c0.1,40.1,0.1,80.3,0,120.4c0,5.2,1.6,8.6,6.9,9.9c4,0.9,5.8,3.7,5.2,7.8c-0.6,3.9-3.7,5.1-7,5.1c-21.7,0.1-43.3,0.1-65,0
		c-3.6,0-6.6-1.7-6.9-5.8c-0.4-4,1.7-6.4,5.4-7.2c5.4-1.2,6.9-4.8,6.8-9.9C549.5,806.5,549.6,786.4,549.6,766.2z"/>
	<path fill="#FFFFFF" d="M618.4,627.2c0,23-18.5,41.6-41.6,41.5c-23,0-41.5-18.6-41.4-41.7c0.1-22.8,18.5-41.2,41.3-41.3
		C599.8,585.7,618.3,604.1,618.4,627.2z"/>
	<path fill="#3E98D3" d="M353.2,753.5c-1.9-1.2-3.4-0.8-4.8-0.8c-43.3,0-86.6,0-130-0.1c-3.1,0-5.1,0.6-6.8,3.5
		c-4.1,6.8-11.6,9.4-19.1,7.2c-6.7-1.9-11.7-8.5-12-15.6c-0.3-7.5,4.1-14.2,11-16.8c7-2.7,14.7-0.9,19.1,5.5
		c2.5,3.7,5.3,4.2,9.1,4.2c38.7-0.1,77.3,0,116-0.1c1.6,0,3.8,1,4.5-0.8c0.7-1.7-1.5-2.7-2.6-3.8c-9-8.7-18.1-17.2-27.1-25.9
		c-1.8-1.7-3.6-2.6-6.2-2.6c-13.7,0.1-27.3,0.1-41,0c-2.6,0-4.2,0.8-5.6,3.1c-4.5,7.1-11.9,9.8-19.4,7.6c-7.5-2.2-12-8.5-12-16.5
		c0-7.6,4.6-13.9,11.8-16.2c7.4-2.4,15,0.3,19.5,7.3c1.6,2.5,3.3,3.2,6.1,3.2c14.3-0.1,28.7,0,43-0.1c3.6,0,6.3,1.1,8.8,3.6
		c13.4,13,27,25.7,40.5,38.7c1.8,1.8,3.7,2.5,6.2,2.5c6.3-0.1,12.7-0.3,19,0c3.7,0.2,5.5-0.9,6.9-4.5c5.1-12.9,19-19.3,32.5-15.4
		c12.5,3.6,20.7,16.8,18.7,30c-2,13.2-14.2,23.5-27.5,22.7c-11.5-0.6-19.7-6.7-24-17.4c-1.1-2.7-2.4-3.2-5.1-3.5
		c-9-1.1-15.7,1.6-21.7,8.7c-8.9,10.7-19,20.5-28.4,30.8c-2.2,2.4-4.5,3.4-7.8,3.4c-11.2-0.2-22.3,0-33.5-0.1
		c-2.9,0-4.8,0.7-6.5,3.4c-4,6.7-12,9.5-19.1,7.3c-7.5-2.3-12.2-8.7-12.2-16.4c0-7.7,5-14.3,12.3-16.4c7.4-2.1,15,0.7,19,7.4
		c1.5,2.5,3.1,3.4,5.9,3.4c10-0.2,20-0.1,30,0c2.1,0,3.9-0.3,5.4-1.9C334.9,772.6,343.9,763.2,353.2,753.5z M394.7,734.3
		c8.6-1.5,16.7-1,23.7,4.6c7,5.6,9.8,13.2,10.3,22.4c7.8-11.3,5.3-25-5.1-31.9C413.9,723,400.6,725.1,394.7,734.3z"/>
	<path fill="#FFFFFF" d="M394.7,734.3c5.9-9.1,19.2-11.2,28.9-4.8c10.4,6.9,12.9,20.5,5.1,31.9c-0.5-9.3-3.3-16.8-10.3-22.4
		C411.3,733.2,403.3,732.7,394.7,734.3z"/>
</g>
<rect x="1520" fill="#3E98D3" width="1500" height="1500"/>
<g>
	<path fill="#FFFFFF" d="M2249.2,689.2c-46,0-92-0.3-138,0.2c-16.9,0.2-31.2-5.6-43.5-16c-25-21.2-34.5-48.4-26.3-80.2
		c8.1-31.6,29.5-50.5,61.3-57.5c9.2-2,18.6-2.1,27.8,0c4,0.9,5-0.4,6.2-3.8c15.3-43,45.2-70.1,89.6-80
		c58.8-13.2,119.3,21.7,138.3,79.1c1.6,4.9,3,6.6,8.8,5.8c40.4-5.8,79.3,23.9,85.3,64.6c4.8,33.2-9.9,63.8-38.9,80
		c-9.1,5.1-18.8,8.1-29.7,8.1C2343.2,689,2296.2,689.2,2249.2,689.2z M2301.5,593c-9.4,9.8-18.7,19.5-28,29.2
		c-1.3,1.4-3,1.2-4.7,1.2c-10,0-20-0.1-30,0c-2.6,0-4.2-0.6-5.6-3c-4.2-7.1-11.8-9.9-19.3-7.7c-7.3,2.1-12.2,8.8-12.2,16.5
		c0,7.6,5,14.1,12.3,16.4c7.1,2.1,14.9-0.7,19-7.4c1.5-2.5,3.2-3.3,6-3.3c11.5,0.1,23,0,34.5,0.1c2.7,0,4.7-0.7,6.6-2.7
		c8.3-9.1,16.7-18.1,25.1-27.1c6.7-7.2,12.6-15.6,24.8-13.2c3.4,0.7,5.1,1.4,6.4,4.6c4.8,11.5,17.1,18.3,28.6,16.1
		c13.4-2.5,22.6-13.3,22.6-26.6c0-13.1-9.1-24.1-22-26.6c-12.5-2.4-24.9,4.6-29.8,17.3c-1.1,2.7-2.4,3.5-5.1,3.4
		c-6.8-0.2-13.7-0.2-20.5,0c-2.6,0.1-4.3-0.9-6.1-2.6c-13.5-12.9-27-25.7-40.5-38.7c-2.6-2.5-5.3-3.5-8.9-3.5
		c-14.2,0.1-28.3,0-42.5,0.1c-3,0-4.8-0.7-6.5-3.4c-4.3-6.8-11.8-9.4-19.1-7.3c-7.4,2.2-12.1,8.7-12.1,16.5
		c0,7.6,4.6,13.9,11.8,16.2c7.5,2.4,15.1-0.3,19.5-7.3c1.5-2.5,3.2-3.3,6-3.3c13.5,0.1,27,0.1,40.5,0c2.7,0,4.7,0.9,6.6,2.8
		c8,7.8,16.2,15.4,24.1,23.2c2.1,2.1,5.4,3.2,6.3,6.6c-1.7,1.1-3.4,0.6-5,0.6c-38.2,0-76.3,0-114.5,0.1c-4.7,0-8.4-0.3-11.9-4.9
		c-6.1-8.1-17.8-7.9-24.6-0.7c-6.9,7.3-6.1,19,1.7,25.3c7.6,6.1,19.2,4.5,24.5-3.9c1.9-2.9,3.8-3.9,7.1-3.9
		c43.2,0.1,86.3,0.1,129.5,0.1C2297.8,592.2,2299.5,591.7,2301.5,593z"/>
	<path fill="#FFFFFF" d="M2124.2,720.1c13.5,0,27,0,40.5,0c1,0,2,0,3,0c7.2,0.2,11,2.8,11.7,7.8c0.7,5.1-2.1,8.5-8.9,10.8
		c-7,2.4-8.6,4.8-8.7,13.1c0,32,0,64,0,96c0,23.8,0,47.7,0,71.5c0,10,1.1,11.5,10.2,15.1c5.3,2,7.9,5.8,7.3,10.6
		c-0.5,4.6-3.6,7.3-9.4,8c-0.8,0.1-1.7,0.1-2.5,0.1c-29.2,0-58.3,0.1-87.5,0c-9.1,0-13.4-6.2-10.1-13.7c1.4-3.2,4.4-4.3,7.4-5.5
		c7.4-2.7,8.4-4.1,8.4-12.1c0.1-25.2,0-50.3,0.1-75.5c0-3.2-0.8-4.4-4.1-4.3c-6.5,0.2-13-0.1-19.5,0.1c-3,0.1-4.4-0.5-4.4-4
		c-0.2-13.1-0.3-13,12.9-13.1c4.9-0.1,11.5,2.2,14.3-1.1c2.4-2.8,0.8-9.2,0.8-14c0-19.5,0-39,0-58.5c0-9.1-0.8-10.1-9.1-13
		c-5.8-2-8.5-5.7-7.7-10.7c0.7-4.8,4.1-7.5,10.2-7.6C2094.2,720.1,2109.2,720.2,2124.2,720.1
		C2124.2,720.2,2124.2,720.1,2124.2,720.1z"/>
	<path fill="#FFFFFF" d="M2005.7,953.1c-14.7,0-29.3,0.1-44,0c-8-0.1-11.9-4.1-11.1-10.7c0.6-4.5,3.7-6.4,7.5-7.8
		c8.7-3.2,9.7-4.6,9.7-13.8c0-56.2,0-112.3,0-168.5c0-9.4-1-10.8-10-14.1c-5.7-2.1-7.7-5.1-7.2-10.4c0.4-4.2,3.7-6.9,9.2-7.6
		c1.6-0.2,3.3-0.2,5-0.2c27.3,0,54.7,0,82,0c0.5,0,1,0,1.5,0c7.8,0.1,11.4,2.4,12.2,7.6c0.8,5.4-1.9,8.8-9.1,11.1
		c-6.1,2-7.6,4.2-7.6,11.7c0,29,0,58,0,87c0,28,0,56,0,84c0,8.6,1.2,10.2,9.2,13.1c5.6,2,8.3,5.9,7.4,10.8
		c-0.8,4.8-4.1,7.5-10.2,7.6C2035.3,953.2,2020.5,953.1,2005.7,953.1z"/>
	<path fill="#FFFFFF" d="M2540.9,836.6c0,37-0.1,74,0.1,111c0,4.8-1.5,5.7-5.9,5.7c-24.7-0.2-49.3-0.1-74-0.1
		c-2.9,0-5.7-0.1-8.3-1.3c-3.1-1.4-5.1-3.7-5.2-7.3c-0.1-3.6,1-6.6,4.3-8.4c1.4-0.8,3-1.4,4.6-2c7.1-2.5,8.3-3.9,8.3-11.6
		c0.1-57.5,0.1-115,0-172.4c0-7.6-1.2-8.8-8.6-11.4c-1.7-0.6-3.5-1.3-4.9-2.3c-3.1-2.1-4-5.2-3.6-8.8c0.4-3.3,2.5-5.3,5.5-6.5
		c2.5-1,5.2-1.1,7.9-1.1c25,0,50,0.1,75-0.1c4.2,0,4.8,1.5,4.8,5.2C2540.9,762.3,2540.9,799.5,2540.9,836.6z"/>
	<path fill="#FFFFFF" d="M2215,821.7c0-26.2,0-47.7,0-69.2c0-10.9-1.8-11.7-9.6-14.2c-5.8-1.8-8.2-5.5-7.6-10.2
		c0.5-4.3,3.9-7.1,9.7-7.8c2.3-0.3,4.7-0.2,7-0.2c26.2,0,52.3,0,78.5,0c3.2,0,6.3,0,9.4,1c3.5,1.1,5.7,3.4,6.2,7.1
		c0.5,3.8-1.1,6.8-4.4,8.8c-0.7,0.4-1.5,0.8-2.3,1c-9.1,2.5-10.8,2.9-10.8,16c-0.2,47-0.2,94,0,141c0,7.4-0.1,15,1.4,22.4
		c1.7,8.3,5.8,14.5,14.5,16.7c2.6,0.7,3.8,1.9,3.7,4.9c-0.3,5.2-0.1,10.3-0.1,15.5c0,2.2-0.5,3.5-3,3.5
		c-24.7-0.1-48.4-3.8-69.2-18.6c-14.9-10.6-21.8-25-22.7-42.9C2214.4,870,2215.4,843.5,2215,821.7z"/>
	<path fill="#FFFFFF" d="M2374.4,720.1c13,0,26,0,39,0c1.7,0,3.3,0,5,0c6.6,0.3,10.6,3.1,11.2,7.8c0.7,5-2,8.4-8.4,10.7
		c-8,2.9-8.8,3.9-8.8,13.3c0,42.3,0,84.7,0,127c0,7.8-0.5,15.6-1.2,23.4c-1.9,19.6-13.2,32.5-29.6,41.8c-14.2,8-29.4,12.2-45.7,13
		c-5,0.3-10,0.4-15,0.8c-2.9,0.2-4.3-0.7-4.2-3.9c0.2-5.2,0.2-10.3,0-15.5c-0.1-2.5,0.9-3.7,3.1-4.3c12-3.1,15.4-12.4,15.8-23.2
		c1.6-42.1,0.5-84.3,0.7-126.5c0.1-12,0.5-24-0.3-36c-0.3-5.1-2.4-8.5-7.6-9.7c-1.6-0.4-3.2-1-4.6-1.8c-3.7-1.9-5.4-4.9-4.9-9
		c0.4-3.9,2.9-6.2,6.6-7.3c2.8-0.8,5.6-0.8,8.4-0.8C2347.4,720.1,2360.9,720.1,2374.4,720.1z"/>
	<path fill="#FFFFFF" d="M2595.7,831.9c7.9,2.1,14.4,3.6,20.6,5.6c21.1,6.9,35.4,20.5,39.1,43c6.5,39.7-18.6,64.4-51.9,70.6
		c-15,2.8-30.2,1.9-45.3,2.1c-2.5,0-3.9-0.6-3.5-3.3c0.1-0.5,0-1,0-1.5c0-3.8-0.9-8,0.3-11.4c1.5-4,6.6-2.3,10-3.6
		c8.2-3.2,11.9-9.6,12.6-17.7c1.5-18.3,1.3-36.6,0-54.9c-0.7-9.6-7.5-16.9-17.2-18.7c-3.8-0.7-5.6-2.2-4.9-6.2c0.2-0.8,0-1.7,0-2.5
		c0.1-3.2-0.8-6.8,0.5-9.3c1.3-2.6,5.4-1.6,8.2-2.5c8.2-2.7,13.9-10.2,14.1-20.4c0.2-12.8,0.6-25.6-0.4-38.5
		c-1.1-13.8-6.4-20.3-19.7-23.3c-2.5-0.6-3.8-1.2-3.6-4.1c0.2-4.2,0.1-8.3,0-12.5c0-1.8,0.4-2.8,2.5-2.8c20-0.1,40.1-0.9,59.2,6.4
		c20.1,7.7,33.6,21,36.5,43.3c3,23.1-9.6,44.9-31.5,54.2C2613.6,827.4,2605.3,829.3,2595.7,831.9z"/>
	<path fill="#FFFFFF" d="M1882.4,953.2c-10.5,0-21,0.1-31.5,0c-5.8-0.1-8.9-3.2-8.1-7.7c0.6-3.2,2.8-4.8,5.8-5.5
		c4.9-1.2,6.4-4.4,6.4-9.2c-0.1-40.6-0.1-81.3,0-121.9c0-4.8-1.5-7.9-6.5-9.2c-3.9-1-6.5-3.6-5.7-8.1c0.8-4.3,4.3-5.4,7.9-5.4
		c21.1-0.1,42.3-0.1,63.4,0c3.5,0,6.7,1.1,7.5,5.2c0.8,4.4-1.4,7.2-5.5,8.2c-5.3,1.3-6.6,4.6-6.6,9.6c0.1,40.5,0.1,80.9,0,121.4
		c0,5,1.7,8.3,6.8,9.5c4,0.9,6,3.6,5.4,7.7c-0.6,4.2-3.9,5.3-7.3,5.3C1903.7,953.2,1893,953.1,1882.4,953.2
		C1882.4,953.1,1882.4,953.1,1882.4,953.2z"/>
	<path fill="#FFFFFF" d="M1923.7,730.7c0,23-18.6,41.5-41.6,41.5c-23,0-41.5-18.7-41.4-41.8c0.1-22.7,18.6-41.2,41.4-41.2
		C1905.1,689.1,1923.7,707.7,1923.7,730.7z"/>
	<path fill="#3E98D3" d="M2301.5,593c-2-1.3-3.7-0.8-5.3-0.8c-43.2,0-86.3,0-129.5-0.1c-3.4,0-5.3,1-7.1,3.9
		c-5.4,8.4-17,10-24.5,3.9c-7.8-6.3-8.6-18-1.7-25.3c6.8-7.2,18.6-7.4,24.6,0.7c3.5,4.6,7.1,4.9,11.9,4.9c38.2-0.1,76.3,0,114.5-0.1
		c1.6,0,3.3,0.5,5-0.6c-0.9-3.4-4.2-4.5-6.3-6.6c-8-7.8-16.1-15.4-24.1-23.2c-1.9-1.9-3.9-2.8-6.6-2.8c-13.5,0.1-27,0.1-40.5,0
		c-2.8,0-4.4,0.8-6,3.3c-4.4,7-12,9.6-19.5,7.3c-7.2-2.2-11.7-8.5-11.8-16.2c0-7.8,4.7-14.3,12.1-16.5c7.3-2.2,14.8,0.5,19.1,7.3
		c1.7,2.7,3.5,3.4,6.5,3.4c14.2-0.1,28.3,0,42.5-0.1c3.6,0,6.3,0.9,8.9,3.5c13.4,13,27,25.7,40.5,38.7c1.8,1.7,3.6,2.7,6.1,2.6
		c6.8-0.2,13.7-0.2,20.5,0c2.7,0.1,4-0.7,5.1-3.4c5-12.6,17.4-19.7,29.8-17.3c12.9,2.5,22,13.5,22,26.6c0,13.3-9.2,24.1-22.6,26.6
		c-11.5,2.2-23.9-4.6-28.6-16.1c-1.3-3.2-3-3.9-6.4-4.6c-12.2-2.5-18.1,5.9-24.8,13.2c-8.4,9-16.8,18-25.1,27.1
		c-1.8,2-3.9,2.8-6.6,2.7c-11.5-0.1-23,0-34.5-0.1c-2.8,0-4.5,0.7-6,3.3c-4.1,6.7-11.9,9.6-19,7.4c-7.4-2.2-12.3-8.8-12.3-16.4
		c0-7.7,4.9-14.3,12.2-16.5c7.5-2.2,15.1,0.6,19.3,7.7c1.4,2.4,3.1,3,5.6,3c10-0.1,20,0,30,0c1.7,0,3.4,0.2,4.7-1.2
		C2282.8,612.5,2292.1,602.8,2301.5,593z M2342.6,573.8c9.2-1.8,17.3-1.1,24.3,4.6c6.9,5.6,9.8,13,10,22c8.6-10.1,4.5-24.2-3.1-30.2
		C2364.1,562.5,2350.5,563.7,2342.6,573.8z"/>
	<path fill="#FFFFFF" d="M2342.6,573.8c7.9-10.1,21.5-11.3,31.2-3.6c7.6,6,11.7,20.1,3.1,30.2c-0.2-9-3.2-16.4-10-22
		C2359.8,572.7,2351.8,572.1,2342.6,573.8z"/>
</g>
</svg>
