<?xml version="1.0" encoding="utf-8"?>
<!-- Generator: Adobe Illustrator 18.0.0, SVG Export Plug-In . SVG Version: 6.00 Build 0)  -->
<!DOCTYPE svg PUBLIC "-//W3C//DTD SVG 1.1//EN" "http://www.w3.org/Graphics/SVG/1.1/DTD/svg11.dtd">
<svg version="1.1" xmlns="http://www.w3.org/2000/svg" xmlns:xlink="http://www.w3.org/1999/xlink" x="0px" y="0px"
	 viewBox="0 0 66.8 77.7" enable-background="new 0 0 66.8 77.7" xml:space="preserve">
<g id="Layer_1">
	<g>
		<g>
			<path fill="#FFEFCF" d="M5.1,44.3c0,1.4-1.2,2.6-2.6,2.6c-1.4,0-2.6-1.2-2.6-2.6c0-1.4,1.2-2.6,2.6-2.6C4,41.8,5.1,42.9,5.1,44.3
				"/>
			<path fill="#FFEFCF" d="M12.9,44.3c0,1.4-1.2,2.6-2.6,2.6c-1.4,0-2.6-1.2-2.6-2.6c0-1.4,1.2-2.6,2.6-2.6
				C11.7,41.8,12.9,42.9,12.9,44.3"/>
			<path fill="#FFEFCF" d="M20.6,44.3c0,1.4-1.2,2.6-2.6,2.6c-1.4,0-2.6-1.2-2.6-2.6c0-1.4,1.2-2.6,2.6-2.6
				C19.4,41.8,20.6,42.9,20.6,44.3"/>
			<path fill="#FFEFCF" d="M28.3,44.3c0,1.4-1.2,2.6-2.6,2.6c-1.4,0-2.6-1.2-2.6-2.6c0-1.4,1.2-2.6,2.6-2.6
				C27.1,41.8,28.3,42.9,28.3,44.3"/>
			<path fill="#FFEFCF" d="M9,52c0,1.4-1.2,2.6-2.6,2.6c-1.4,0-2.6-1.2-2.6-2.6c0-1.4,1.2-2.6,2.6-2.6C7.8,49.5,9,50.6,9,52"/>
			<path fill="#FFEFCF" d="M16.7,52c0,1.4-1.2,2.6-2.6,2.6c-1.4,0-2.6-1.2-2.6-2.6c0-1.4,1.2-2.6,2.6-2.6
				C15.6,49.5,16.7,50.6,16.7,52"/>
			<path fill="#FFEFCF" d="M24.4,52c0,1.4-1.2,2.6-2.6,2.6c-1.4,0-2.6-1.2-2.6-2.6c0-1.4,1.2-2.6,2.6-2.6
				C23.3,49.5,24.4,50.6,24.4,52"/>
			<path fill="#FFEFCF" d="M32.1,52c0,1.4-1.2,2.6-2.6,2.6c-1.4,0-2.6-1.2-2.6-2.6c0-1.4,1.2-2.6,2.6-2.6C31,49.5,32.1,50.6,32.1,52
				"/>
			<path fill="#FFEFCF" d="M12.9,59.7c0,1.4-1.2,2.6-2.6,2.6c-1.4,0-2.6-1.2-2.6-2.6c0-1.4,1.2-2.6,2.6-2.6
				C11.7,57.2,12.9,58.3,12.9,59.7"/>
			<path fill="#FFEFCF" d="M20.6,59.7c0,1.4-1.2,2.6-2.6,2.6c-1.4,0-2.6-1.2-2.6-2.6c0-1.4,1.2-2.6,2.6-2.6
				C19.4,57.2,20.6,58.3,20.6,59.7"/>
			<path fill="#FFEFCF" d="M28.3,59.7c0,1.4-1.2,2.6-2.6,2.6c-1.4,0-2.6-1.2-2.6-2.6c0-1.4,1.2-2.6,2.6-2.6
				C27.1,57.2,28.3,58.3,28.3,59.7"/>
			<path fill="#FFEFCF" d="M24.4,67.5c0,1.4-1.2,2.6-2.6,2.6c-1.4,0-2.6-1.2-2.6-2.6c0-1.4,1.2-2.6,2.6-2.6
				C23.3,64.9,24.4,66,24.4,67.5"/>
			<path fill="#FFEFCF" d="M20.6,75.2c0,1.4-1.2,2.6-2.6,2.6c-1.4,0-2.6-1.2-2.6-2.6c0-1.4,1.2-2.6,2.6-2.6
				C19.4,72.6,20.6,73.7,20.6,75.2"/>
			<path fill="#FFEFCF" d="M16.7,67.5c0,1.4-1.2,2.6-2.6,2.6c-1.4,0-2.6-1.2-2.6-2.6c0-1.4,1.2-2.6,2.6-2.6
				C15.6,64.9,16.7,66,16.7,67.5"/>
			<path fill="#FFEFCF" d="M36,44.3c0,1.4-1.2,2.6-2.6,2.6c-1.4,0-2.6-1.2-2.6-2.6c0-1.4,1.2-2.6,2.6-2.6C34.8,41.8,36,42.9,36,44.3
				"/>
			<path fill="#FFEFCF" d="M43.7,44.3c0,1.4-1.2,2.6-2.6,2.6c-1.4,0-2.6-1.2-2.6-2.6c0-1.4,1.2-2.6,2.6-2.6
				C42.5,41.8,43.7,42.9,43.7,44.3"/>
			<path fill="#FFEFCF" d="M51.4,44.3c0,1.4-1.2,2.6-2.6,2.6c-1.4,0-2.6-1.2-2.6-2.6c0-1.4,1.2-2.6,2.6-2.6
				C50.3,41.8,51.4,42.9,51.4,44.3"/>
			<path fill="#FFEFCF" d="M59.1,44.3c0,1.4-1.2,2.6-2.6,2.6c-1.4,0-2.6-1.2-2.6-2.6c0-1.4,1.2-2.6,2.6-2.6
				C58,41.8,59.1,42.9,59.1,44.3"/>
			<path fill="#FFEFCF" d="M66.8,44.3c0,1.4-1.2,2.6-2.6,2.6c-1.4,0-2.6-1.2-2.6-2.6c0-1.4,1.2-2.6,2.6-2.6
				C65.7,41.8,66.8,42.9,66.8,44.3"/>
			<path fill="#FFEFCF" d="M39.8,52c0,1.4-1.2,2.6-2.6,2.6c-1.4,0-2.6-1.2-2.6-2.6c0-1.4,1.2-2.6,2.6-2.6
				C38.7,49.5,39.8,50.6,39.8,52"/>
			<path fill="#FFEFCF" d="M47.5,52c0,1.4-1.2,2.6-2.6,2.6c-1.4,0-2.6-1.2-2.6-2.6c0-1.4,1.2-2.6,2.6-2.6
				C46.4,49.5,47.5,50.6,47.5,52"/>
			<path fill="#FFEFCF" d="M55.3,52c0,1.4-1.2,2.6-2.6,2.6c-1.4,0-2.6-1.2-2.6-2.6c0-1.4,1.2-2.6,2.6-2.6
				C54.1,49.5,55.3,50.6,55.3,52"/>
			<path fill="#FFEFCF" d="M63,52c0,1.4-1.2,2.6-2.6,2.6c-1.4,0-2.6-1.2-2.6-2.6c0-1.4,1.2-2.6,2.6-2.6C61.8,49.5,63,50.6,63,52"/>
			<path fill="#FFEFCF" d="M43.7,59.7c0,1.4-1.2,2.6-2.6,2.6c-1.4,0-2.6-1.2-2.6-2.6c0-1.4,1.2-2.6,2.6-2.6
				C42.5,57.2,43.7,58.3,43.7,59.7"/>
			<path fill="#FFEFCF" d="M51.4,59.7c0,1.4-1.2,2.6-2.6,2.6c-1.4,0-2.6-1.2-2.6-2.6c0-1.4,1.2-2.6,2.6-2.6
				C50.3,57.2,51.4,58.3,51.4,59.7"/>
			<path fill="#FFEFCF" d="M59.1,59.7c0,1.4-1.2,2.6-2.6,2.6c-1.4,0-2.6-1.2-2.6-2.6c0-1.4,1.2-2.6,2.6-2.6
				C58,57.2,59.1,58.3,59.1,59.7"/>
			<path fill="#FFEFCF" d="M55.3,67.5c0,1.4-1.2,2.6-2.6,2.6c-1.4,0-2.6-1.2-2.6-2.6c0-1.4,1.2-2.6,2.6-2.6
				C54.1,64.9,55.3,66,55.3,67.5"/>
			<path fill="#FFEFCF" d="M51.4,75.2c0,1.4-1.2,2.6-2.6,2.6c-1.4,0-2.6-1.2-2.6-2.6c0-1.4,1.2-2.6,2.6-2.6
				C50.3,72.6,51.4,73.7,51.4,75.2"/>
			<path fill="#FFEFCF" d="M47.5,67.5c0,1.4-1.2,2.6-2.6,2.6c-1.4,0-2.6-1.2-2.6-2.6c0-1.4,1.2-2.6,2.6-2.6
				C46.4,64.9,47.5,66,47.5,67.5"/>
			<path fill="#FFEFCF" d="M33.4,28.4c-10.9,0-21.8-1-32.4-2.9c-0.7-0.1-1.1-0.7-1-1.4c0.1-0.7,0.8-1.1,1.4-1
				c20.9,3.7,43,3.7,63.9,0c0.6-0.1,1.3,0.3,1.4,1c0.1,0.7-0.3,1.3-1,1.4C55.1,27.5,44.2,28.4,33.4,28.4"/>
			<path fill="#FFEFCF" d="M48.8,37.1c-0.7,0-1.2-0.6-1.2-1.2v-9.2c0-0.7,0.6-1.2,1.2-1.2c0.7,0,1.2,0.6,1.2,1.2v9.2
				C50.1,36.6,49.5,37.1,48.8,37.1"/>
			<path fill="#FFEFCF" d="M18,37.1c-0.7,0-1.2-0.6-1.2-1.2v-9.2c0-0.7,0.6-1.2,1.2-1.2c0.7,0,1.2,0.6,1.2,1.2v9.2
				C19.2,36.6,18.7,37.1,18,37.1"/>
			<g>
				<path fill="#FFEFCF" d="M5.6,2.6c0-0.8-0.1-1.6-0.1-2.3c0.2,0,0.4,0,0.7,0.1c0.2,0,0.5,0,0.8,0s0.6,0,0.8,0c0.2,0,0.5,0,0.7-0.1
					c0,0.8-0.1,1.6-0.1,2.3c0,0.8,0,1.7,0,2.7v2.4c0,1,0,1.9,0,2.7c0,0.8,0.1,1.5,0.1,2.3c-0.2,0-0.4,0-0.7,0c-0.2,0-0.5,0-0.8,0
					s-0.6,0-0.8,0c-0.2,0-0.5,0-0.7,0c0-0.7,0.1-1.5,0.1-2.3c0-0.8,0-1.7,0-2.7V5.2C5.6,4.2,5.6,3.3,5.6,2.6z"/>
				<path fill="#FFEFCF" d="M14,10.4c0,0.9,0.1,1.7,0.1,2.2c-0.2,0-0.4,0-0.7,0s-0.5,0-0.8,0c-0.3,0-0.6,0-0.8,0s-0.5,0-0.7,0
					c0-0.7,0.1-1.5,0.1-2.3c0-0.8,0-1.7,0-2.7V5.2c0-1,0-1.9,0-2.7c0-0.8-0.1-1.6-0.1-2.3c0.2,0,0.4,0,0.7,0.1c0.2,0,0.5,0,0.8,0
					c0.3,0,0.6,0,0.8,0c0.2,0,0.5,0,0.7-0.1c-0.1,0.4-0.1,0.9-0.1,1.6c0,0.7,0,1.5,0,2.4V6c0.4-0.5,0.8-1,1.3-1.6
					c0.5-0.6,0.9-1.1,1.3-1.7c0.4-0.5,0.8-1,1.2-1.5c0.3-0.4,0.6-0.8,0.8-1c0.2,0,0.3,0,0.5,0.1c0.2,0,0.3,0,0.5,0s0.3,0,0.5,0
					c0.2,0,0.4,0,0.6-0.1c-0.2,0.2-0.5,0.5-0.9,1s-0.9,0.9-1.3,1.5c-0.5,0.5-0.9,1-1.4,1.5c-0.4,0.5-0.8,0.9-1,1.2
					c0.4,0.6,0.8,1.2,1.3,1.9s0.9,1.4,1.4,2.1s0.9,1.3,1.3,1.9c0.4,0.6,0.7,1,1,1.3c-0.3,0-0.7,0-0.9,0c-0.3,0-0.5,0-0.8,0
					s-0.5,0-0.8,0c-0.3,0-0.5,0-0.8,0c-0.6-0.9-1.2-1.8-1.8-2.8c-0.6-0.9-1.2-1.9-1.8-2.8h0C14,8.3,14,9.4,14,10.4z"/>
				<path fill="#FFEFCF" d="M32.7,12.6c-0.3,0-0.6,0-0.8,0c-0.3,0-0.5,0-0.8,0s-0.5,0-0.8,0c-0.3,0-0.5,0-0.8,0
					c-0.2-0.6-0.4-1.2-0.6-1.8c-0.2-0.6-0.4-1.2-0.6-1.8c-0.4,0-0.8,0-1.2,0c-0.4,0-0.8,0-1.2,0c-0.3,0-0.6,0-0.9,0
					c-0.3,0-0.6,0-0.9,0c-0.2,0.6-0.5,1.2-0.7,1.8c-0.2,0.6-0.4,1.2-0.6,1.8c-0.1,0-0.3,0-0.4,0c-0.1,0-0.3,0-0.4,0
					c-0.1,0-0.3,0-0.4,0c-0.1,0-0.3,0-0.5,0c0.1-0.3,0.3-0.7,0.6-1.3s0.5-1.2,0.8-1.9s0.6-1.4,0.9-2.2s0.7-1.6,1-2.4s0.7-1.6,1-2.4
					s0.6-1.5,0.9-2.2c0.1,0,0.2,0,0.3,0.1c0.1,0,0.2,0,0.3,0c0.1,0,0.2,0,0.3,0c0.1,0,0.2,0,0.3-0.1c0.4,1,0.8,2.1,1.2,3.3
					c0.4,1.2,0.9,2.3,1.3,3.4C30.7,8,31.1,9,31.5,10C31.9,11.1,32.3,11.9,32.7,12.6z M26.3,3.6C26,4.3,25.7,5,25.4,5.8
					c-0.3,0.7-0.5,1.4-0.8,2.2h3.3c-0.3-0.7-0.5-1.4-0.8-2.2C26.9,5,26.6,4.3,26.3,3.6z"/>
				<path fill="#FFEFCF" d="M34.7,1.7c0-0.6,0-1.1-0.1-1.5c0.3,0.1,0.6,0.1,0.8,0.1c0.2,0,0.5,0,0.8-0.1c1.3,1.5,2.6,2.9,3.9,4.3
					s2.6,2.8,3.9,4.3V7.2V5.5c0-0.6,0-1.2,0-1.7c0-0.6,0-1.1,0-1.6c0-0.5,0-0.9,0-1.2s0-0.6-0.1-0.7c0.3,0.1,0.6,0.1,0.8,0.1
					s0.5,0,0.8-0.1c-0.1,1.1-0.1,2.1-0.1,3s-0.1,1.7-0.1,2.5c0,0.8,0,1.6,0,2.3c0,0.8,0,1.6,0,2.4v2.2c-0.2,0-0.5,0-0.7,0
					c-0.3,0-0.5,0-0.7,0c-2.5-2.9-5.1-5.8-7.9-8.7c0,0.3,0,0.7,0,1c0,0.3,0,0.7,0,1.1v2.1c0,0.7,0,1.3,0,1.8c0,0.5,0,0.9,0,1.3
					c0,0.3,0,0.6,0,0.9c0,0.2,0,0.4,0,0.5c-0.1,0-0.3,0-0.4,0c-0.1,0-0.3,0-0.4,0c-0.3,0-0.6,0-0.8,0c0-0.1,0.1-0.4,0.1-1
					s0.1-1.3,0.1-2.2c0-0.8,0.1-1.8,0.1-2.8c0-1,0-1.9,0-2.9C34.7,3,34.7,2.3,34.7,1.7z"/>
				<path fill="#FFEFCF" d="M48.1,3.9c0.3-0.8,0.8-1.5,1.4-2.1c0.6-0.6,1.3-1,2.2-1.4C52.5,0.2,53.4,0,54.5,0c1,0,1.9,0.1,2.7,0.4
					c0.8,0.3,1.5,0.7,2.2,1.2c0.6,0.5,1.1,1.2,1.4,2c0.4,0.8,0.5,1.8,0.5,2.8c0,0.9-0.2,1.7-0.5,2.5c-0.3,0.8-0.8,1.5-1.4,2
					c-0.6,0.6-1.3,1-2.2,1.4s-1.8,0.5-2.8,0.5c-0.9,0-1.8-0.1-2.7-0.4c-0.8-0.2-1.6-0.6-2.2-1.1c-0.6-0.5-1.1-1.2-1.5-2
					c-0.4-0.8-0.5-1.8-0.5-2.9C47.6,5.6,47.7,4.7,48.1,3.9z M58.1,4c-0.2-0.6-0.5-1.1-0.8-1.6c-0.3-0.4-0.8-0.8-1.2-1
					C55.5,1.1,55,1,54.4,1c-0.6,0-1.2,0.1-1.6,0.4c-0.5,0.3-0.9,0.7-1.2,1.2c-0.3,0.5-0.6,1.1-0.8,1.8s-0.3,1.4-0.3,2.2
					c0,1,0.1,1.8,0.3,2.4c0.2,0.7,0.5,1.2,0.8,1.6c0.3,0.4,0.8,0.7,1.2,0.9c0.5,0.2,0.9,0.3,1.4,0.3c0.5,0,1.1-0.1,1.5-0.3
					s0.9-0.6,1.3-1c0.4-0.5,0.7-1.1,0.9-1.8C58.2,7.9,58.3,7,58.3,6C58.3,5.3,58.2,4.6,58.1,4z"/>
			</g>
		</g>
	</g>
</g>
<g id="Layer_2" display="none">
</g>
</svg>
