<?xml version="1.0" encoding="UTF-8" standalone="no"?>
<!DOCTYPE svg PUBLIC "-//W3C//DTD SVG 1.1//EN"
"http://www.w3.org/Graphics/SVG/1.1/DTD/svg11.dtd">


<!-- Page 1 -->
<svg x="0" y="0" width="1286" height="909" version="1.1" xmlns="http://www.w3.org/2000/svg" xmlns:xlink="http://www.w3.org/1999/xlink"
style="display: block;margin-left: auto;margin-right: auto;">
<defs>

<style type="text/css"><![CDATA[

.g3_1{
fill: #FFF101;
}
.g2_1{
fill: #33C204;
}
.g1_1{
fill: #330F03;
}
.g5_1{
fill: #EE1D23;
}
.g4_1{
fill: #FFFFFF;
}
.g6_1{
fill: #00AEEF;
}


]]></style>

</defs>
<path d="M0,0
L0,909
L1286,909
L1286,0 Z " 
fill="#FFFFFF" stroke="none" />
<path d="M136.3,567.6c0,4.4,-0.7,8.8,-2.2,13c-1.5,4.2,-3.6,7.9,-6.2,11.2c-2.6,3.2,-5.6,5.9,-9.1,7.9c-3.5,2,-7.2,3,-11.1,3c-0.9,0,-1.9,-0.3,-2.9,-0.8c-1,-0.6,-2,-1.2,-3.1,-1.8l-0.6,-0.4c-0.1,2,-0.3,4.4,-0.5,7.2c-0.2,2.8,-0.3,5.9,-0.3,9.3c0,0.6,0,1.1,0,1.5c0,0.4,0,0.8,0,1.1c0.1,0.3,0.1,0.6,0.1,1c0,0.3,0,0.7,0,1.3c0,0.9,0.2,1.8,0.7,2.7c0.4,0.9,0.6,1.4,0.6,1.6c0,0.7,-0.4,1.2,-1.4,1.3c-1,0.1,-1.6,0.2,-1.9,0.2c-2.1,0,-3.7,-0.4,-4.9,-1c-1.2,-0.7,-2.1,-2.1,-2.6,-4.2c-0.6,-2.1,-1,-5.2,-1.1,-9.2c-0.1,-4,-0.2,-9.4,-0.2,-16.1c0,-5.6,0.2,-11,0.4,-16.2c0.2,-5.3,0.6,-10,0.9,-14.3c0.4,-4.3,0.8,-8,1.1,-11.1c0.4,-3.2,0.7,-5.5,0.9,-7c-0.9,0.1,-2.2,0.5,-3.8,1c-1.6,0.5,-3.3,1.2,-5.1,1.9c-1.8,0.7,-3.6,1.6,-5.5,2.6c-1.9,0.9,-3.6,2,-5.1,3c-1.5,1.1,-2.7,2.2,-3.6,3.3c-1,1.1,-1.4,2.1,-1.4,3.2l2,6.8c0,0.7,-0.1,1.5,-0.3,2.5c-0.3,1.1,-1,1.6,-2.1,1.6c-1.6,0,-3,-0.3,-4.2,-0.9c-1.2,-0.7,-2.2,-1.4,-3,-2.4c-0.7,-0.9,-1.3,-1.9,-1.7,-3c-0.4,-1,-0.6,-2,-0.6,-2.9c0,-2.5,0.8,-4.9,2.6,-7.1c1.7,-2.2,4,-4.2,6.8,-6c2.8,-1.8,6,-3.4,9.6,-4.9c3.6,-1.4,7.2,-2.7,10.9,-3.6c3.7,-1,7.2,-1.8,10.6,-2.3c3.4,-0.5,6.3,-0.8,8.7,-0.8c2.9,0,5.7,0.2,8.5,0.6c2.8,0.3,5.6,1.2,8.4,2.6c2.9,1.5,5.2,3.5,6.8,6.1c1.6,2.6,2.7,5.2,3.5,7.8c0.7,2.6,1.1,5,1.3,7c0.1,2,0.1,3.3,0.1,3.7Zm-8.5,-5.3c0,-3.8,-0.9,-6.8,-2.6,-9c-1.8,-2.1,-4,-3.8,-6.5,-4.8c-2.6,-1.1,-5.3,-1.7,-8.2,-1.9c-2.8,-0.2,-5.4,-0.3,-7.7,-0.3c-0.4,0,-1.3,0,-2.5,0.2c-1.1,0.1,-2.7,0.3,-4.5,0.6c2.6,0.7,4.6,1.6,5.7,2.7c1.1,1.2,1.7,2.2,1.6,3.1l-1.4,34.6c0,2.8,0.3,5,0.8,6.3c0.5,1.4,1.9,2.1,4.1,2.1c2.2,0,4.6,-1.2,7.1,-3.6c2.5,-2.4,4.7,-5.3,6.8,-8.8c2.1,-3.4,3.8,-7.1,5.2,-11c1.4,-3.9,2.1,-7.3,2.1,-10.2ZM195.4,603c0,0.6,-0.1,2,-0.5,4.1c-0.4,2.2,-1,4.5,-2,6.9c-0.9,2.4,-2.2,4.5,-3.8,6.4c-1.5,1.9,-3.6,2.8,-6,2.8c-2.6,0,-4.7,-0.9,-6.2,-2.8c-1.6,-1.8,-2.8,-4,-3.6,-6.6c-0.8,-2.5,-1.3,-5.2,-1.6,-8c-0.2,-2.8,-0.3,-5.2,-0.3,-7.1c0,-2.1,0.1,-4.2,0.3,-6.4c0.3,-2.1,0.4,-4.3,0.5,-6.4c0,-0.6,-0.3,-1.1,-1,-1.2c-0.6,-0.2,-1.2,-0.3,-1.8,-0.3c-1,0,-1.6,0.2,-1.8,0.4c-0.3,0.2,-0.4,0.5,-0.5,0.9l-0.5,3.9c-0.3,2.6,-0.7,5.1,-1.1,7.5c-0.3,2.4,-0.7,4.5,-1.2,6.3c-0.4,1.9,-1,3.3,-1.6,4.4c-0.6,1.2,-1.3,1.7,-2.1,1.7l-0.1,0c-0.4,0,-0.7,-0.1,-0.9,-0.2c-0.3,-0.2,-0.5,-0.6,-0.5,-1.3c0,-0.3,0.1,-0.8,0.3,-1.4c0.6,-2.9,1,-5.3,1.2,-7.1c0.2,-1.9,0.3,-3.6,0.4,-5l0,-0.9c0,-0.4,0,-0.9,0,-1.5c0.1,-0.5,0.1,-1.2,0.1,-2l0,-3.2c0,-0.9,0,-1.9,0,-2.8c0,-1,-0.1,-2.1,-0.3,-3.2l-0.3,-7.2c0,-0.5,0.2,-1,0.6,-1.4c0.4,-0.4,0.9,-0.7,1.6,-1.1c0.6,-0.3,1.3,-0.5,2.1,-0.7c0.7,-0.2,1.3,-0.2,1.9,-0.2c1.4,0,2.1,0.8,2.1,2.6l0,0.7l-0.1,2.6l0,0.8c0,0.5,0.1,0.9,0.3,1c0.3,0.1,0.8,0.3,1.5,0.4l0.4,0c0.6,0.1,1.7,0.2,3.1,0.3c1.5,0.1,3,0.2,4.4,0.5c1.5,0.2,2.8,0.6,3.9,1.1c1.1,0.6,1.6,1.3,1.6,2.3c0,0.3,0,0.8,-0.2,1.4c-0.2,0.6,-0.4,1.2,-0.6,1.8c-0.3,0.7,-0.5,1.2,-0.6,1.7c-0.2,0.5,-0.3,0.8,-0.3,1c-1.4,5.6,-2.2,11.5,-2.2,17.6c0,0.5,0.1,1.4,0.2,2.7c0,1.3,0.2,2.6,0.4,4c0.3,1.4,0.7,2.6,1.1,3.7c0.5,1,1.1,1.6,1.9,1.6c1.2,0,2.3,-0.8,3.3,-2.3c1,-1.5,1.8,-3.3,2.6,-5.3c0.7,-2,1.3,-4,1.7,-6c0.5,-2.1,0.8,-3.6,0.9,-4.5c0.2,-0.9,0.5,-1.5,0.8,-1.7c0.4,-0.2,0.7,-0.3,1.1,-0.3c1.1,0,1.7,0.7,1.7,2.2c0,0.2,0,0.6,-0.1,1.3c0,0.7,-0.1,1.2,-0.2,1.5Zm32.5,-39.4c0,0.6,-0.3,1.1,-0.9,1.5c-0.5,0.3,-1.2,0.6,-1.9,0.8c-0.7,0.1,-1.3,0.2,-2,0.3c-0.6,0.1,-1,0.1,-1.2,0.1c-1.7,0,-3.4,-0.4,-5.1,-1.4c-1.7,-1,-3.2,-2.6,-4.6,-4.7c-0.1,-0.2,-0.4,-0.5,-0.7,-1c-0.3,-0.4,-0.5,-0.6,-0.5,-0.8c0,-0.4,0.3,-0.8,0.9,-1.1c0.6,-0.3,1.3,-0.7,2.1,-1c0.8,-0.3,1.5,-0.6,2.2,-0.7c0.7,-0.2,1.2,-0.3,1.4,-0.3c1.6,0,3.3,0.4,4.8,1.3c1.6,0.8,2.9,2.3,3.9,4.5c0.2,0.2,0.5,0.7,0.9,1.3c0.5,0.6,0.7,1,0.7,1.2Zm12.5,37.1c-0.3,2,-0.7,4,-1.4,6.1c-0.6,2.1,-1.6,4.1,-2.7,5.9c-1.2,1.9,-2.7,3.4,-4.5,4.6c-1.8,1.1,-4,1.7,-6.6,1.7c-2,0,-4.1,-0.7,-6.2,-2c-2.2,-1.5,-3.6,-3.4,-4.4,-5.8c-0.8,-2.4,-1.1,-4.6,-1.1,-6.8c0,-0.7,0,-1.7,0.1,-3c0.1,-1.3,0.1,-2.9,0.1,-4.7l0,-13.5c0,-0.6,0,-1.3,-0.1,-2.1c0,-0.7,-0.1,-1.4,-0.3,-2c0,-0.4,-0.2,-0.7,-0.4,-1.1c-0.2,-0.5,-0.3,-0.7,-0.3,-0.9c0,-0.3,0.2,-0.6,0.6,-0.8c0.4,-0.2,0.9,-0.3,1.4,-0.4c0.4,-0.1,0.9,-0.1,1.4,-0.1c0.4,0,0.6,0,0.6,0c0.3,0,0.8,0,1.7,0c0.9,0.1,1.9,0.2,2.9,0.4c0.9,0.3,1.8,0.7,2.6,1.2c0.8,0.5,1.1,1.3,1.1,2.3c0.1,0.2,0,0.7,-0.4,1.3c-0.3,0.7,-0.7,1.8,-1,3.4c-0.1,0.7,-0.2,1.3,-0.3,1.8c0,0.5,-0.1,1.1,-0.2,1.8c-0.1,0.6,-0.2,1.4,-0.3,2.4c0,0.9,-0.1,2.1,-0.2,3.6l0,7.3c0,1.3,0,2.6,0.1,4c0.1,1.3,0.3,2.5,0.6,3.7c0.3,1,0.7,1.9,1.4,2.6c0.6,0.7,1.5,1.1,2.5,1.1c1.6,0,2.8,-0.5,3.7,-1.4c0.9,-0.9,1.6,-1.6,2.1,-2.3c0.9,-1.2,1.6,-2.7,2.1,-4.6c0.5,-1.8,0.9,-3.7,1.3,-5.7l0.3,-1.2c0.2,-1.2,0.9,-1.8,2.2,-1.8c1.2,0,1.8,0.8,1.8,2.6l0,0.6Zm34.7,-7.1c-1.2,1.7,-2.2,3.6,-3,5.7c-0.8,2.1,-1.4,4.2,-2,6.5c-0.6,2.2,-1,4.5,-1.4,6.7c-0.4,2.2,-0.8,4.4,-1.2,6.4c-0.1,0.5,-0.8,0.8,-1.9,1c-1.1,0.2,-1.9,0.2,-2.3,0.2c-1.5,0,-2.7,0,-3.6,-0.2c-1,-0.2,-1.7,-0.6,-2.2,-1.2c-0.5,-0.6,-0.8,-1.5,-1.1,-2.8c-0.2,-1.2,-0.4,-2.9,-0.6,-5.1l1.6,-36.3c0,-1,0.6,-1.6,1.7,-1.6c0.4,0,1,0.1,1.7,0.2c0.7,0.1,1.5,0.3,2.3,0.6c0.9,0.2,1.5,0.5,2.1,0.9c0.6,0.4,0.9,0.8,0.9,1.3l0,24.8c0.1,-0.1,0.2,-0.4,0.3,-1c0.6,-1.4,1.3,-3.3,2.1,-5.4c0.8,-2.2,1.7,-4.2,2.7,-6.2c1,-2,2,-3.6,3.1,-5c1.1,-1.4,2.2,-2.1,3.4,-2.1c1.5,0,2.6,0.4,3.3,1.1c0.8,0.6,1.4,1.5,1.8,2.6c0.4,1,0.7,2.2,0.8,3.4c0,1.2,0.1,2.4,0.1,3.5c0,0.9,-0.1,2.2,-0.3,4.1c-0.1,1.9,-0.2,4.7,-0.2,8.4c0,2.1,0.2,4.1,0.6,5.8c0.4,1.7,1.2,2.5,2.4,2.5c0.9,0,1.8,-0.4,2.5,-1.2c0.7,-0.8,1.4,-1.8,2,-3c0.6,-1.3,1.1,-2.6,1.5,-4c0.4,-1.3,0.7,-2.6,0.8,-3.9c0.1,-1.5,0.7,-2.3,1.8,-2.3c0.7,0,1.2,0.3,1.5,0.7c0.2,0.5,0.3,1.1,0.3,1.8l0,0.2c0,1.6,-0.4,3.5,-0.9,5.5c-0.5,2,-1.3,4,-2.3,5.7c-1,1.8,-2.3,3.3,-4,4.6c-1.6,1.2,-3.6,1.8,-6,1.8c-3.6,0,-6,-1.3,-7,-4c-1,-2.6,-1.5,-6.6,-1.5,-11.8Zm36.4,4.5c0.1,-4.1,0.2,-8.4,0.3,-12.7c0.2,-4.3,0.4,-8.3,0.5,-12c0,-0.6,-0.6,-1.1,-1.9,-1.3c-1.3,-0.3,-2.8,-0.5,-4.4,-0.7c-1.7,-0.3,-3.1,-0.7,-4.4,-1.2c-1.3,-0.5,-2,-1.4,-2,-2.6c0,-1.1,1.1,-1.7,3.2,-1.9c2.1,-0.1,5.3,-0.2,9.4,-0.2c0.3,0,0.6,-0.5,0.7,-1.5c0.1,-1,0.2,-2.2,0.2,-3.7c0.1,-1.5,0.1,-3.1,0.1,-4.8c0.1,-1.8,0.1,-3.4,0.2,-4.9c0.1,-1.5,0.3,-2.7,0.5,-3.7c0.2,-1,0.4,-1.5,0.8,-1.5c0.4,0,1.1,0.1,2.2,0.3c1,0.1,2.1,0.4,3.3,0.6c1.1,0.3,2.1,0.7,3,1.1c0.8,0.4,1.2,0.8,1.2,1.3l-1.3,15.9c0,0.5,0.4,0.9,1.3,1.1c0.8,0.2,1.9,0.3,3.3,0.3c1.3,0.1,2.7,0.1,4.3,0.1c1.5,0,2.9,0.1,4.2,0.4c1.4,0.2,2.5,0.6,3.3,1.1c0.9,0.6,1.3,1.3,1.3,2.4c0,0.2,-0.1,0.4,-0.2,0.8c-0.2,0.4,-0.4,0.6,-0.6,0.6c-0.2,0,-0.4,-0.2,-0.7,-0.4c-0.3,-0.3,-1,-0.4,-2.3,-0.4c-0.3,0,-1.2,0.1,-2.7,0.1c-1.4,0.1,-3,0.2,-4.6,0.4c-1.6,0.2,-3.1,0.4,-4.5,0.6c-1.3,0.2,-2.1,0.4,-2.2,0.8c-0.1,0.1,-0.2,1.1,-0.3,2.8c-0.2,1.8,-0.3,4.1,-0.4,6.9c-0.1,2.9,-0.2,6.2,-0.3,9.9c-0.1,3.7,-0.1,7.6,-0.1,11.7c0,1.5,0,3,0.2,4.5c0.2,1.4,0.4,2.8,0.7,3.9c0.4,1.2,0.8,2.2,1.3,2.9c0.6,0.8,1.2,1.1,1.9,1.1c1.1,0,2.1,-0.4,3,-1.3c0.9,-0.9,1.7,-2.1,2.4,-3.7c0.7,-1.5,1.4,-3.3,2,-5.2c0.5,-2,1,-4,1.4,-6c0.3,-1.3,0.6,-2.1,0.9,-2.7c0.3,-0.5,0.8,-0.8,1.4,-0.8c0.6,0,1.1,0.2,1.6,0.6c0.4,0.4,0.6,1.2,0.6,2.5c0,0.8,0,1.3,-0.1,1.6c-0.2,1.5,-0.7,3.5,-1.4,6c-0.7,2.6,-1.6,5.1,-2.8,7.6c-1.2,2.5,-2.6,4.7,-4.3,6.6c-1.7,1.8,-3.7,2.8,-6,2.8c-2.2,0,-4.1,-0.7,-5.8,-1.9c-1.6,-1.3,-3,-3,-4.1,-5.3c-1.1,-2.2,-1.9,-4.9,-2.5,-7.9c-0.5,-3.1,-0.8,-6.4,-0.8,-9.9Zm106.1,21.4c0,0.7,-0.1,1.1,-0.4,1.4c-0.4,0.2,-0.7,0.4,-1.1,0.5c-0.5,0,-0.9,0.1,-1.3,0.1c-0.5,0.1,-0.8,0.2,-0.9,0.5l0,19.4c0,1.6,-0.1,3.3,-0.1,5.1c0,1.8,-0.2,3.6,-0.6,5.4c-0.3,1.8,-0.8,3.5,-1.5,5c-0.7,1.6,-1.7,2.9,-3,3.8c-0.1,0.1,-0.3,0.3,-0.8,0.6c-0.4,0.3,-0.9,0.6,-1.5,1c-0.5,0.3,-1,0.7,-1.5,1c-0.5,0.3,-0.8,0.5,-1,0.6c-1.1,0.7,-2,1.6,-2.8,2.6c-0.7,1,-1.5,1.4,-2.6,1.4c-0.4,0,-0.7,0,-0.9,0c-0.2,-0.1,-0.4,-0.1,-0.6,-0.2c-0.2,-0.1,-0.5,-0.2,-0.9,-0.3c-0.4,-0.1,-0.9,-0.3,-1.5,-0.4c-3.7,-0.8,-6.3,-1.8,-7.7,-3.3c-1.4,-1.4,-2.1,-3.7,-2.1,-6.9c0,-3.2,0.4,-6.6,1.4,-10.1c1,-3.5,2.3,-6.9,4.1,-10.2c1.7,-3.2,3.7,-6.3,6.1,-9.1c2.3,-2.8,4.9,-5.2,7.7,-7.1l0,-15.7c-0.4,1.6,-0.9,3.4,-1.5,5.4c-0.6,2,-1.3,3.9,-2.1,5.7c-0.9,1.8,-1.9,3.3,-3,4.6c-1.2,1.2,-2.5,1.8,-4.1,1.8c-1.4,0,-2.9,-0.5,-4.5,-1.5c-1.6,-1,-3.1,-1.9,-4.4,-2.9c-1,-0.8,-1.7,-2.1,-2.3,-3.9c-0.6,-1.7,-1,-3.6,-1.3,-5.5c-0.3,-2,-0.5,-3.9,-0.5,-5.6c-0.1,-1.8,-0.2,-3.1,-0.2,-4c0,-3.1,0.1,-6.5,0.2,-9.9c0,-3.5,0.2,-6.7,0.6,-9.6c0.3,-3,0.8,-5.4,1.4,-7.3c0.7,-1.9,1.6,-2.9,2.7,-2.9c0.3,0,1,0.1,1.9,0.3c1,0.1,2.1,0.4,3.1,0.8c1.1,0.3,2,0.8,2.8,1.4c0.9,0.6,1.3,1.4,1.3,2.3c0,0.2,-0.1,0.4,-0.3,0.5c-0.2,0.2,-0.4,0.3,-0.6,0.5c-0.5,0.3,-0.9,0.9,-1.3,1.9c-0.4,0.9,-0.8,2.3,-1.1,4c-0.3,1.8,-0.5,4,-0.6,6.9c-0.2,2.8,-0.3,6.2,-0.3,10.3c0,6.1,0.2,10.5,0.7,13.1c0.4,2.6,1.3,3.9,2.7,3.9c1.5,0,2.8,-1.1,4,-3.3c1.2,-2.2,2.3,-5.1,3.2,-8.7c1,-3.6,1.9,-7.7,2.7,-12.2c0.9,-4.6,1.6,-9.2,2.2,-13.8c0.9,0,1.8,0,2.8,0.1c1,0.1,2,0.2,2.9,0.5c1,0.2,1.8,0.5,2.4,0.9c0.7,0.3,1,0.9,1,1.5c0,0.4,-0.3,0.7,-0.7,0.9l0,36.2c0.8,0,1.7,0.2,2.5,0.5c0.8,0.3,1.2,1,1.2,2Zm-13.5,6c-2,1.6,-3.7,3.6,-5.3,6c-1.5,2.5,-2.9,5,-4,7.8c-1.1,2.7,-1.9,5.4,-2.5,8.1c-0.5,2.7,-0.8,5,-0.8,7c0,0.4,0,1.1,0,2c0.1,0.9,0.3,1.8,0.6,2.7c0.3,0.9,0.8,1.7,1.4,2.4c0.6,0.7,1.5,1.1,2.7,1.1c1.8,0,3.2,-1,4.3,-2.9c1,-1.9,1.8,-4.2,2.3,-6.7c0.5,-2.6,0.9,-5.2,1,-7.7c0.2,-2.6,0.3,-4.5,0.3,-5.7l0,-0.5Zm76.2,-40.1c0.3,-0.6,0.9,-0.9,1.7,-0.9c0.4,0,0.7,0.3,0.9,0.8c0.1,0.4,0.2,0.8,0.2,1.2c-0.1,2.5,-0.6,4.7,-1.7,6.7c-1,2,-2.1,3.8,-3.2,5.2c-0.6,0.9,-1.4,1.7,-2.1,2.5c-0.8,0.7,-1.6,1.4,-2.4,2c-0.1,1.4,-0.2,2.4,-0.2,2.9c0,0.5,-0.1,1,-0.2,1.3c-0.1,1.2,-0.6,2.7,-1.2,4.6c-0.7,1.9,-1.6,3.7,-2.8,5.5c-1.1,1.8,-2.6,3.3,-4.2,4.6c-1.7,1.3,-3.6,1.9,-5.8,1.9c-0.8,0,-1.6,-0.1,-2.5,-0.3c-1,-0.1,-1.9,-0.3,-2.9,-0.6c-1,-0.3,-1.9,-0.6,-2.8,-1c-0.9,-0.4,-1.7,-0.8,-2.4,-1.2c-2,-1.1,-3.7,-2.4,-5,-4c-1.3,-1.5,-2.3,-3.2,-3,-4.9c-0.7,-1.8,-1.1,-3.6,-1.4,-5.4C439.1,604.5,439,602.7,439,601c0,-2.9,0.3,-5.9,0.9,-8.9c0.6,-3,1.3,-5.9,2.2,-8.7c0.9,-2.7,2,-5.2,3.1,-7.4c1.1,-2.2,2.2,-3.9,3.3,-5.1c1.1,-1.2,2.2,-2,3.5,-2.4c1.3,-0.5,2.5,-0.7,3.6,-0.7c1.3,0,2.6,0.3,3.9,1c1.3,0.6,2.6,1.5,3.8,2.4c1.2,1,2.4,2.1,3.6,3.4c1.2,1.2,2.3,2.5,3.4,3.7c0.8,0.9,1.4,2.3,1.8,4.3c0.4,2,0.7,4,1,6.1c0.1,1.1,0.3,2.3,0.3,3.6c0.1,1.3,0.2,2.7,0.2,4.1c1.2,-1,2.2,-2.1,2.9,-3.2c0.7,-1.1,1.3,-2.1,1.8,-3.1c0.4,-0.9,0.8,-1.9,1.1,-2.7c0.3,-0.9,0.6,-1.5,0.9,-2Zm-13.8,10.4c0,-0.3,0,-1.1,-0.1,-2.2c0,-1.1,-0.1,-2.5,-0.2,-4c-0.2,-1.6,-0.4,-3.2,-0.6,-4.9c-0.3,-1.6,-0.7,-3.2,-1.3,-4.5c-0.5,-1.4,-1.2,-2.6,-2,-3.5c-0.8,-1,-1.8,-1.4,-3,-1.4c-1.3,0,-2.4,0.5,-3.6,1.4c-1.1,1,-2.1,2.3,-3,3.8c-0.9,1.6,-1.7,3.3,-2.2,5.3c-0.5,1.9,-0.8,3.9,-0.8,5.7c0,3.3,0.7,5.7,2,7.2c1.3,1.5,3.5,2.2,6.7,2.2c2.4,0,4.3,-0.3,5.8,-1.1c1.5,-0.7,2.3,-1.3,2.3,-1.7Zm-0.6,10c-1,0.7,-2.4,1.2,-4.1,1.5c-1.7,0.3,-3.1,0.5,-4.3,0.5c-2.2,0,-3.8,-0.2,-5,-0.5c-1.2,-0.3,-2.5,-1,-3.9,-2l-0.1,2.6c0,0.9,0.1,1.8,0.4,2.8c0.2,1,0.6,1.9,1.1,2.7c0.6,0.8,1.3,1.5,2.3,2c1,0.6,2.2,0.8,3.7,0.8c1.7,0,3.3,-0.3,4.5,-1c1.3,-0.7,2.3,-1.6,3.1,-2.6c0.8,-1.1,1.3,-2.2,1.7,-3.5c0.4,-1.2,0.6,-2.3,0.6,-3.3Zm62.8,8.8c-1.6,-1.6,-2.9,-4.1,-4,-7.4c-0.2,0.5,-0.5,1.5,-0.9,3.2c-0.4,1.6,-0.9,3.3,-1.7,5c-0.7,1.8,-1.6,3.4,-2.8,4.8c-1.2,1.4,-2.7,2.1,-4.5,2.1c-5.2,0,-8.8,-1.5,-10.8,-4.5c-1.9,-3,-3,-7.4,-3.4,-13.3l0,-29.5c0.2,-0.6,0.3,-1,0.3,-1.2c0.1,-0.2,0.4,-0.4,1.1,-0.4c0.4,0,1.1,0.1,2.1,0.3c1,0.1,2.1,0.4,3.1,0.6c1.1,0.3,2,0.7,2.9,1.2c0.9,0.5,1.3,1.1,1.3,1.7l0,21.7c0,1.4,0,3.1,0,4.9c0.1,1.7,0.2,3.4,0.4,4.9c0.2,1.5,0.6,2.8,1.1,3.8c0.4,1,1.1,1.5,2,1.5c2.4,0,4.2,-2.4,5.5,-7.1c1.3,-4.8,2.1,-12.3,2.2,-22.6c0,-0.6,-0.1,-1.3,-0.5,-1.9c-0.3,-0.7,-0.4,-1.5,-0.4,-2.4c0.1,-0.6,0.8,-1,2,-1.2c1.2,-0.2,2.2,-0.2,3.2,-0.2c2.5,0,4.3,0.2,5.4,0.7c1.1,0.5,1.7,2,1.7,4.4c-0.2,1.5,-0.3,2.6,-0.4,3.5c-0.1,0.8,-0.2,1.6,-0.3,2.3c0,0.7,-0.1,1.4,-0.1,2.2c0,0.8,-0.1,1.9,-0.1,3.4c0,1.8,0.1,3.8,0.3,5.8c0.2,2.1,0.4,4,0.8,5.7c0.5,1.7,1,3.1,1.6,4.2c0.6,1.1,1.4,1.6,2.4,1.6c0.9,0,1.6,-0.2,2,-0.8c0.5,-0.5,1,-1.1,1.4,-1.7c0.4,-0.7,0.8,-1.3,1.2,-1.8c0.4,-0.5,1,-0.8,1.7,-0.8c0.7,0,1.2,0.2,1.5,0.7c0.3,0.4,0.5,0.8,0.5,1.3c0,1.5,-0.4,2.8,-1.2,3.9c-0.8,1,-1.7,1.9,-2.8,2.5c-1.1,0.7,-2.2,1.2,-3.4,1.4c-1.1,0.3,-2,0.5,-2.8,0.5c-1.4,0,-2.5,-0.2,-3.5,-0.5c-1,-0.3,-2,-0.8,-3,-1.5Zm72,-11.6c0,0.6,-0.2,2,-0.6,4.1c-0.3,2.2,-1,4.5,-1.9,6.9c-1,2.4,-2.2,4.5,-3.8,6.4c-1.6,1.9,-3.6,2.8,-6.1,2.8c-2.6,0,-4.7,-0.9,-6.2,-2.8c-1.6,-1.8,-2.7,-4,-3.6,-6.6c-0.8,-2.5,-1.3,-5.2,-1.5,-8c-0.3,-2.8,-0.4,-5.2,-0.4,-7.1c0,-2.1,0.1,-4.2,0.4,-6.4c0.2,-2.1,0.4,-4.3,0.5,-6.4c0,-0.6,-0.4,-1.1,-1,-1.2c-0.7,-0.2,-1.3,-0.3,-1.9,-0.3c-0.9,0,-1.6,0.2,-1.8,0.4c-0.2,0.2,-0.4,0.5,-0.5,0.9l-0.5,3.9c-0.3,2.6,-0.6,5.1,-1,7.5c-0.4,2.4,-0.8,4.5,-1.2,6.3c-0.5,1.9,-1,3.3,-1.6,4.4c-0.6,1.2,-1.4,1.7,-2.2,1.7l-0.1,0c-0.3,0,-0.6,-0.1,-0.9,-0.2c-0.3,-0.2,-0.4,-0.6,-0.4,-1.3c0,-0.3,0,-0.8,0.2,-1.4c0.7,-2.9,1.1,-5.3,1.2,-7.1c0.2,-1.9,0.3,-3.6,0.4,-5l0,-0.9c0,-0.4,0,-0.9,0.1,-1.5c0,-0.5,0,-1.2,0,-2l0,-3.2c0,-0.9,0,-1.9,0,-2.8c0,-1,-0.1,-2.1,-0.2,-3.2l-0.4,-7.2c0,-0.5,0.2,-1,0.6,-1.4c0.4,-0.4,1,-0.7,1.6,-1.1c0.7,-0.3,1.4,-0.5,2.1,-0.7c0.7,-0.2,1.4,-0.2,1.9,-0.2c1.4,0,2.1,0.8,2.1,2.6l0,0.7l-0.1,2.6l0,0.8c0,0.5,0.1,0.9,0.4,1c0.2,0.1,0.7,0.3,1.4,0.4l0.4,0c0.7,0.1,1.7,0.2,3.2,0.3c1.4,0.1,2.9,0.2,4.4,0.5c1.5,0.2,2.7,0.6,3.8,1.1c1.1,0.6,1.7,1.3,1.7,2.3c0,0.3,-0.1,0.8,-0.3,1.4c-0.1,0.6,-0.3,1.2,-0.6,1.8c-0.2,0.7,-0.4,1.2,-0.6,1.7c-0.1,0.5,-0.2,0.8,-0.2,1c-1.5,5.6,-2.2,11.5,-2.2,17.6c0,0.5,0,1.4,0.1,2.7c0.1,1.3,0.2,2.6,0.5,4c0.2,1.4,0.6,2.6,1.1,3.7c0.5,1,1.1,1.6,1.8,1.6c1.2,0,2.3,-0.8,3.3,-2.3c1,-1.5,1.9,-3.3,2.6,-5.3c0.7,-2,1.3,-4,1.8,-6c0.4,-2.1,0.7,-3.6,0.9,-4.5c0.1,-0.9,0.4,-1.5,0.8,-1.7c0.3,-0.2,0.7,-0.3,1,-0.3c1.2,0,1.7,0.7,1.7,2.2c0,0.2,0,0.6,0,1.3c-0.1,0.7,-0.1,1.2,-0.2,1.5Zm82.6,-12.8c-1.2,2.2,-2.2,4.5,-3.2,7c-1,2.4,-1.7,4.3,-2.2,5.7c-0.1,0.4,-0.3,1.3,-0.7,2.6c-0.4,1.3,-0.8,2.7,-1.2,4.3c-0.5,1.6,-0.9,3.2,-1.2,4.7c-0.3,1.6,-0.5,2.8,-0.5,3.8c0,0.4,-0.3,0.8,-1.1,1.1c-0.7,0.3,-1.6,0.5,-2.8,0.5c-1.8,0,-3.2,-0.3,-4.3,-0.7c-1,-0.5,-1.8,-1.3,-2.4,-2.4c-0.5,-1.1,-0.8,-2.6,-0.9,-4.4c-0.1,-1.8,-0.2,-3.9,-0.2,-6.4l0,-9.2c0,-0.7,0,-1.3,-0.1,-2c0,-0.6,-0.2,-1,-0.4,-1.2c-0.4,0.2,-0.9,1.2,-1.5,3.2c-0.6,1.9,-1.2,4.3,-1.7,7.1c-0.6,2.8,-1,5.8,-1.4,8.9c-0.5,3.1,-0.7,5.9,-0.7,8.3c0,0.9,-0.4,1.4,-1.4,1.6c-0.9,0.2,-1.9,0.2,-3.1,0.2c-0.3,0,-0.9,0,-1.6,-0.1c-0.8,-0.2,-1.6,-0.3,-2.4,-0.5c-0.7,-0.1,-1.4,-0.4,-2.1,-0.6c-0.6,-0.3,-1.1,-0.7,-1.2,-1.1c-0.4,-1,-0.7,-2.8,-0.9,-5.2c-0.2,-2.5,-0.3,-6.3,-0.3,-11.4c0,-3,0,-6.5,0.1,-10.5c0.2,-4,0.3,-8.7,0.5,-14.1c0,-0.7,-0.1,-1.7,-0.2,-2.9c0,-1.1,-0.1,-1.8,-0.1,-2c0,-0.6,0.3,-1,0.8,-1.1c0.6,-0.2,0.9,-0.2,1.2,-0.2c0.6,0,1.2,0,2,0.2c0.8,0.1,1.6,0.2,2.3,0.4c0.8,0.2,1.5,0.3,2.2,0.5c0.6,0.3,1.1,0.4,1.3,0.6l0,29.5c0.4,-1.7,0.9,-3.6,1.4,-5.7c0.5,-2.2,1.2,-4.3,1.8,-6.4c0.7,-2.2,1.5,-4.1,2.3,-5.9c0.8,-1.8,1.7,-3.1,2.6,-3.9c0.3,-0.3,0.9,-0.4,1.8,-0.6c0.9,-0.1,1.6,-0.2,2.2,-0.2c0.4,0,0.9,0.1,1.5,0.2c0.7,0.2,1.2,0.3,1.8,0.6c0.6,0.2,1.1,0.5,1.5,0.9c0.5,0.4,0.8,0.8,0.8,1.3l0,19.8l0,1.1c0,0.5,0.1,0.7,0.3,0.7c0.1,0,0.6,-1.1,1.4,-3.3c0.7,-2.2,1.7,-4.8,2.7,-7.8c1.1,-3,2.2,-6.1,3.4,-9.3c1.2,-3.2,2.3,-5.7,3.3,-7.6c0.2,-0.3,0.7,-0.5,1.6,-0.5c1,-0.1,1.8,-0.1,2.5,-0.1c0.6,0,1.4,0.2,2.3,0.6c1,0.3,2,0.8,2.9,1.5c0.9,0.6,1.7,1.4,2.4,2.2c0.7,0.8,1.1,1.7,1.1,2.6c0,0.1,-0.3,0.6,-0.8,1.4c-0.4,0.7,-0.8,1.5,-0.9,2.3c-0.6,2.3,-1,4.6,-1.2,6.8c-0.2,2.2,-0.3,5,-0.3,8.4c0,1.5,0.1,2.9,0.2,4.4c0.1,1.5,0.3,2.8,0.6,4c0.3,1.2,0.7,2.1,1.2,2.9c0.4,0.7,1.1,1.1,1.9,1.1c1.2,0,2.2,-0.4,3.1,-1.2c0.9,-0.8,1.6,-1.8,2.3,-3.1c0.6,-1.3,1.2,-2.9,1.7,-4.6c0.5,-1.8,0.9,-3.6,1.2,-5.4c0.4,-2,1.2,-3,2.2,-3c0.7,0,1.1,0.2,1.3,0.5c0.2,0.3,0.3,1.1,0.3,2.2c0,0.7,0,1.1,-0.1,1.4c-0.1,1,-0.4,2.7,-1,4.9c-0.7,2.2,-1.5,4.5,-2.6,6.7c-1.1,2.3,-2.5,4.2,-4.1,5.9c-1.6,1.7,-3.5,2.5,-5.6,2.5c-2.5,0,-4.6,-0.6,-6.2,-1.8c-1.6,-1.2,-2.9,-2.7,-3.8,-4.7c-0.9,-2,-1.5,-4.3,-1.8,-6.9c-0.4,-2.7,-0.6,-5.4,-0.6,-8.2l0,-0.9Zm77.9,11.2c0,2.1,-0.4,4.4,-1.1,6.9c-0.8,2.5,-1.9,4.8,-3.4,7c-1.6,2.2,-3.6,4,-6,5.4c-2.4,1.5,-5.3,2.2,-8.6,2.2c-3.2,0,-5.9,-0.5,-8.1,-1.7c-2.2,-1.1,-4,-2.7,-5.4,-4.6c-1.4,-2,-2.5,-4.3,-3.1,-6.9c-0.6,-2.7,-0.9,-5.5,-0.9,-8.4c0,-2.8,0.3,-6,1,-9.4c0.7,-3.4,1.7,-6.6,3.1,-9.6c1.3,-3,3.1,-5.5,5.2,-7.5c2.1,-2,4.7,-3,7.7,-3c1.5,0,2.9,0.3,4.2,1c1.3,0.6,2.4,1.4,3.4,2.3c1,1,1.7,2.2,2.3,3.5c0.6,1.3,0.9,2.6,1,4l0.1,1.7c0,2,-0.3,4.1,-1,6.4c-0.6,2.4,-1.5,4.5,-2.8,6.5c-1.2,2,-2.7,3.7,-4.5,5c-1.8,1.4,-3.8,2,-6.1,2c-0.4,0,-0.9,0,-1.5,-0.1c-0.6,-0.1,-1.2,-0.2,-1.8,-0.3l0,3.5c0,0.6,0.2,1.4,0.5,2.4c0.4,1.1,1,2.1,1.7,3.2c0.7,1,1.7,1.9,2.9,2.7c1.1,0.7,2.6,1.1,4.3,1.1c2.4,0,4.3,-0.5,5.8,-1.4c1.5,-0.9,2.8,-2.1,3.7,-3.6c1,-1.5,1.8,-3.1,2.3,-5c0.5,-1.8,1,-3.6,1.3,-5.3c0.2,-1.1,0.5,-1.9,0.7,-2.3c0.3,-0.4,0.7,-0.6,1.2,-0.6c1.3,0,1.9,0.7,1.9,2.1ZM746.8,582.5c0,-0.7,-0.2,-1.4,-0.6,-2.1c-0.4,-0.7,-1,-1.1,-2,-1.1c-1.5,0,-2.7,0.8,-3.8,2.3c-1.1,1.6,-1.9,3.3,-2.6,5.3c-0.7,2,-1.2,4,-1.6,5.8c-0.3,1.8,-0.5,3,-0.5,3.6l0,0.4c0,0.7,0.1,1.3,0.2,1.7c0.2,0.5,0.6,0.7,1.3,0.7l0.6,0c1.7,0,3,-0.6,4.2,-1.8c1.1,-1.2,2,-2.7,2.7,-4.4c0.7,-1.7,1.2,-3.5,1.6,-5.3c0.3,-1.8,0.5,-3.2,0.5,-4.4Zm70.2,7.7c-1.2,2.2,-2.2,4.5,-3.2,7c-1,2.4,-1.7,4.3,-2.2,5.7c-0.1,0.4,-0.3,1.3,-0.7,2.6c-0.3,1.3,-0.8,2.7,-1.2,4.3c-0.4,1.6,-0.8,3.2,-1.2,4.7c-0.3,1.6,-0.5,2.8,-0.5,3.8c0,0.4,-0.3,0.8,-1.1,1.1c-0.7,0.3,-1.6,0.5,-2.8,0.5c-1.8,0,-3.2,-0.3,-4.2,-0.7c-1.1,-0.5,-1.9,-1.3,-2.4,-2.4c-0.6,-1.1,-0.9,-2.6,-1,-4.4c-0.1,-1.8,-0.2,-3.9,-0.2,-6.4l0,-9.2c0,-0.7,0,-1.3,0,-2c-0.1,-0.6,-0.2,-1,-0.5,-1.2c-0.4,0.2,-0.9,1.2,-1.5,3.2c-0.6,1.9,-1.2,4.3,-1.7,7.1c-0.5,2.8,-1,5.8,-1.4,8.9c-0.4,3.1,-0.6,5.9,-0.6,8.3c0,0.9,-0.5,1.4,-1.4,1.6c-1,0.2,-2,0.2,-3.2,0.2c-0.3,0,-0.8,0,-1.6,-0.1c-0.8,-0.2,-1.6,-0.3,-2.3,-0.5c-0.8,-0.1,-1.5,-0.4,-2.2,-0.6c-0.6,-0.3,-1,-0.7,-1.2,-1.1c-0.4,-1,-0.7,-2.8,-0.9,-5.2c-0.2,-2.5,-0.3,-6.3,-0.3,-11.4c0,-3,0,-6.5,0.2,-10.5c0.1,-4,0.2,-8.7,0.4,-14.1c0,-0.7,0,-1.7,-0.1,-2.9c-0.1,-1.1,-0.2,-1.8,-0.2,-2c0,-0.6,0.3,-1,0.8,-1.1c0.6,-0.2,1,-0.2,1.2,-0.2c0.6,0,1.2,0,2,0.2c0.8,0.1,1.6,0.2,2.3,0.4c0.8,0.2,1.5,0.3,2.2,0.5c0.6,0.3,1.1,0.4,1.3,0.6l0,29.5c0.4,-1.7,0.9,-3.6,1.4,-5.7c0.6,-2.2,1.2,-4.3,1.9,-6.4c0.7,-2.2,1.4,-4.1,2.2,-5.9c0.8,-1.8,1.7,-3.1,2.6,-3.9c0.3,-0.3,0.9,-0.4,1.8,-0.6c0.9,-0.1,1.7,-0.2,2.2,-0.2c0.4,0,1,0.1,1.6,0.2c0.6,0.2,1.2,0.3,1.7,0.6c0.6,0.2,1.1,0.5,1.6,0.9c0.4,0.4,0.7,0.8,0.8,1.3l0,19.8l0,1.1c0,0.5,0,0.7,0.2,0.7c0.2,0,0.6,-1.1,1.4,-3.3c0.8,-2.2,1.7,-4.8,2.7,-7.8c1.1,-3,2.2,-6.1,3.4,-9.3c1.2,-3.2,2.3,-5.7,3.3,-7.6c0.2,-0.3,0.7,-0.5,1.7,-0.5c0.9,-0.1,1.7,-0.1,2.5,-0.1c0.5,0,1.3,0.2,2.3,0.6c0.9,0.3,1.9,0.8,2.8,1.5c1,0.6,1.8,1.4,2.5,2.2c0.7,0.8,1,1.7,1,2.6c0,0.1,-0.2,0.6,-0.7,1.4c-0.5,0.7,-0.8,1.5,-1,2.3c-0.6,2.3,-1,4.6,-1.2,6.8c-0.2,2.2,-0.3,5,-0.3,8.4c0,1.5,0.1,2.9,0.2,4.4c0.1,1.5,0.3,2.8,0.6,4c0.3,1.2,0.7,2.1,1.2,2.9c0.5,0.7,1.1,1.1,1.9,1.1c1.2,0,2.2,-0.4,3.1,-1.2c0.9,-0.8,1.7,-1.8,2.3,-3.1c0.7,-1.3,1.2,-2.9,1.7,-4.6c0.5,-1.8,0.9,-3.6,1.2,-5.4c0.5,-2,1.2,-3,2.2,-3c0.7,0,1.1,0.2,1.3,0.5c0.2,0.3,0.3,1.1,0.3,2.2c0,0.7,0,1.1,-0.1,1.4c-0.1,1,-0.4,2.7,-1,4.9c-0.6,2.2,-1.5,4.5,-2.6,6.7c-1.1,2.3,-2.5,4.2,-4.1,5.9c-1.6,1.7,-3.5,2.5,-5.6,2.5c-2.5,0,-4.6,-0.6,-6.2,-1.8c-1.6,-1.2,-2.9,-2.7,-3.7,-4.7c-0.9,-2,-1.6,-4.3,-1.9,-6.9c-0.4,-2.7,-0.6,-5.4,-0.6,-8.2l0,-0.9Zm82.4,-4.8c0.4,-0.6,0.9,-0.9,1.7,-0.9c0.4,0,0.7,0.3,0.9,0.8c0.2,0.4,0.2,0.8,0.2,1.2c0,2.5,-0.6,4.7,-1.6,6.7c-1,2,-2.1,3.8,-3.3,5.2c-0.6,0.9,-1.3,1.7,-2.1,2.5c-0.8,0.7,-1.6,1.4,-2.4,2c-0.1,1.4,-0.1,2.4,-0.2,2.9c0,0.5,-0.1,1,-0.1,1.3c-0.2,1.2,-0.6,2.7,-1.3,4.6c-0.6,1.9,-1.5,3.7,-2.7,5.5c-1.2,1.8,-2.6,3.3,-4.3,4.6c-1.7,1.3,-3.6,1.9,-5.8,1.9c-0.7,0,-1.6,-0.1,-2.5,-0.3c-1,-0.1,-1.9,-0.3,-2.9,-0.6c-1,-0.3,-1.9,-0.6,-2.8,-1c-0.9,-0.4,-1.7,-0.8,-2.3,-1.2c-2.1,-1.1,-3.7,-2.4,-5,-4c-1.3,-1.5,-2.3,-3.2,-3,-4.9c-0.7,-1.8,-1.2,-3.6,-1.4,-5.4c-0.3,-1.8,-0.4,-3.6,-0.4,-5.3c0,-2.9,0.3,-5.9,0.9,-8.9c0.6,-3,1.4,-5.9,2.3,-8.7c0.9,-2.7,1.9,-5.2,3,-7.4c1.2,-2.2,2.3,-3.9,3.3,-5.1c1.1,-1.2,2.3,-2,3.6,-2.4c1.3,-0.5,2.5,-0.7,3.5,-0.7c1.3,0,2.6,0.3,3.9,1c1.3,0.6,2.6,1.5,3.8,2.4c1.3,1,2.5,2.1,3.6,3.4c1.2,1.2,2.3,2.5,3.4,3.7c0.8,0.9,1.4,2.3,1.8,4.3c0.4,2,0.8,4,1,6.1c0.2,1.1,0.3,2.3,0.4,3.6c0.1,1.3,0.1,2.7,0.1,4.1c1.2,-1,2.2,-2.1,2.9,-3.2c0.8,-1.1,1.4,-2.1,1.8,-3.1c0.5,-0.9,0.8,-1.9,1.1,-2.7c0.3,-0.9,0.6,-1.5,0.9,-2Zm-13.8,10.4c0,-0.3,0,-1.1,-0.1,-2.2c0,-1.1,-0.1,-2.5,-0.2,-4c-0.1,-1.6,-0.3,-3.2,-0.6,-4.9c-0.3,-1.6,-0.7,-3.2,-1.2,-4.5c-0.6,-1.4,-1.2,-2.6,-2,-3.5c-0.9,-1,-1.9,-1.4,-3.1,-1.4c-1.2,0,-2.4,0.5,-3.6,1.4c-1.1,1,-2.1,2.3,-3,3.8c-0.9,1.6,-1.6,3.3,-2.1,5.3c-0.6,1.9,-0.8,3.9,-0.8,5.7c0,3.3,0.6,5.7,1.9,7.2c1.3,1.5,3.6,2.2,6.7,2.2c2.4,0,4.3,-0.3,5.8,-1.1c1.6,-0.7,2.3,-1.3,2.3,-1.7Zm-0.6,10c-1,0.7,-2.3,1.2,-4,1.5c-1.7,0.3,-3.2,0.5,-4.3,0.5c-2.2,0,-3.9,-0.2,-5.1,-0.5c-1.2,-0.3,-2.5,-1,-3.8,-2l-0.2,2.6c0,0.9,0.2,1.8,0.4,2.8c0.2,1,0.6,1.9,1.2,2.7c0.5,0.8,1.2,1.5,2.2,2c1,0.6,2.2,0.8,3.7,0.8c1.8,0,3.3,-0.3,4.6,-1c1.2,-0.7,2.3,-1.6,3,-2.6c0.8,-1.1,1.4,-2.2,1.7,-3.5c0.4,-1.2,0.6,-2.3,0.6,-3.3ZM952.6,603c0,0.6,-0.1,2,-0.5,4.1c-0.4,2.2,-1,4.5,-2,6.9c-0.9,2.4,-2.2,4.5,-3.7,6.4c-1.6,1.9,-3.7,2.8,-6.1,2.8c-2.6,0,-4.7,-0.9,-6.2,-2.8c-1.6,-1.8,-2.8,-4,-3.6,-6.6c-0.8,-2.5,-1.3,-5.2,-1.6,-8c-0.2,-2.8,-0.3,-5.2,-0.3,-7.1c0,-2.1,0.1,-4.2,0.3,-6.4c0.3,-2.1,0.4,-4.3,0.5,-6.4c0,-0.6,-0.3,-1.1,-1,-1.2c-0.6,-0.2,-1.2,-0.3,-1.8,-0.3c-1,0,-1.6,0.2,-1.8,0.4c-0.3,0.2,-0.4,0.5,-0.5,0.9l-0.5,3.9c-0.3,2.6,-0.7,5.1,-1,7.5c-0.4,2.4,-0.8,4.5,-1.3,6.3c-0.4,1.9,-0.9,3.3,-1.6,4.4c-0.6,1.2,-1.3,1.7,-2.1,1.7l-0.1,0c-0.3,0,-0.6,-0.1,-0.9,-0.2c-0.3,-0.2,-0.5,-0.6,-0.5,-1.3c0,-0.3,0.1,-0.8,0.3,-1.4c0.6,-2.9,1,-5.3,1.2,-7.1c0.2,-1.9,0.3,-3.6,0.4,-5l0,-0.9c0,-0.4,0,-0.9,0,-1.5c0.1,-0.5,0.1,-1.2,0.1,-2l0,-3.2c0,-0.9,0,-1.9,0,-2.8c0,-1,-0.1,-2.1,-0.3,-3.2l-0.3,-7.2c0,-0.5,0.2,-1,0.6,-1.4c0.4,-0.4,0.9,-0.7,1.6,-1.1c0.6,-0.3,1.3,-0.5,2.1,-0.7c0.7,-0.2,1.3,-0.2,1.9,-0.2c1.4,0,2.1,0.8,2.1,2.6l0,0.7l-0.1,2.6l0,0.8c0,0.5,0.1,0.9,0.3,1c0.3,0.1,0.8,0.3,1.5,0.4l0.4,0c0.6,0.1,1.7,0.2,3.2,0.3c1.4,0.1,2.9,0.2,4.4,0.5c1.4,0.2,2.7,0.6,3.8,1.1c1.1,0.6,1.7,1.3,1.7,2.3c0,0.3,-0.1,0.8,-0.3,1.4c-0.1,0.6,-0.4,1.2,-0.6,1.8c-0.2,0.7,-0.4,1.2,-0.6,1.7c-0.2,0.5,-0.3,0.8,-0.3,1c-1.4,5.6,-2.2,11.5,-2.2,17.6c0,0.5,0.1,1.4,0.2,2.7c0.1,1.3,0.2,2.6,0.5,4c0.2,1.4,0.6,2.6,1.1,3.7c0.4,1,1.1,1.6,1.8,1.6c1.2,0,2.3,-0.8,3.3,-2.3c1,-1.5,1.8,-3.3,2.6,-5.3c0.7,-2,1.3,-4,1.7,-6c0.5,-2.1,0.8,-3.6,0.9,-4.5c0.2,-0.9,0.5,-1.5,0.8,-1.7c0.4,-0.2,0.8,-0.3,1.1,-0.3c1.1,0,1.7,0.7,1.7,2.2c0,0.2,0,0.6,-0.1,1.3c0,0.7,-0.1,1.2,-0.2,1.5Zm32.5,-39.4c0,0.6,-0.3,1.1,-0.9,1.5c-0.5,0.3,-1.2,0.6,-1.9,0.8c-0.7,0.1,-1.3,0.2,-2,0.3c-0.6,0.1,-1,0.1,-1.2,0.1c-1.7,0,-3.4,-0.4,-5.1,-1.4c-1.6,-1,-3.2,-2.6,-4.6,-4.7c-0.1,-0.2,-0.4,-0.5,-0.7,-1c-0.3,-0.4,-0.5,-0.6,-0.5,-0.8c0,-0.4,0.3,-0.8,0.9,-1.1c0.6,-0.3,1.3,-0.7,2.1,-1c0.8,-0.3,1.5,-0.6,2.2,-0.7c0.7,-0.2,1.2,-0.3,1.4,-0.3c1.7,0,3.3,0.4,4.9,1.3c1.5,0.8,2.8,2.3,3.8,4.5c0.2,0.2,0.5,0.7,0.9,1.3c0.5,0.6,0.7,1,0.7,1.2Zm12.5,37.1c-0.3,2,-0.7,4,-1.4,6.1c-0.6,2.1,-1.6,4.1,-2.7,5.9c-1.2,1.9,-2.7,3.4,-4.5,4.6c-1.8,1.1,-4,1.7,-6.6,1.7c-2,0,-4.1,-0.7,-6.2,-2c-2.2,-1.5,-3.6,-3.4,-4.4,-5.8c-0.7,-2.4,-1.1,-4.6,-1.1,-6.8c0,-0.7,0,-1.7,0.1,-3c0.1,-1.3,0.1,-2.9,0.1,-4.7l0,-13.5c0,-0.6,0,-1.3,-0.1,-2.1c0,-0.7,-0.1,-1.4,-0.3,-2c0,-0.4,-0.2,-0.7,-0.4,-1.1c-0.2,-0.5,-0.3,-0.7,-0.3,-0.9c0,-0.3,0.2,-0.6,0.6,-0.8c0.4,-0.2,0.9,-0.3,1.4,-0.4c0.5,-0.1,0.9,-0.1,1.4,-0.1c0.4,0,0.6,0,0.6,0c0.3,0,0.9,0,1.8,0c0.9,0.1,1.8,0.2,2.8,0.4c0.9,0.3,1.8,0.7,2.6,1.2c0.8,0.5,1.2,1.3,1.2,2.3c0,0.2,-0.1,0.7,-0.5,1.3c-0.3,0.7,-0.7,1.8,-1,3.4c-0.1,0.7,-0.2,1.3,-0.3,1.8c0,0.5,-0.1,1.1,-0.2,1.8c-0.1,0.6,-0.2,1.4,-0.2,2.4c-0.1,0.9,-0.2,2.1,-0.3,3.6l0,7.3c0,1.3,0.1,2.6,0.1,4c0.1,1.3,0.3,2.5,0.6,3.7c0.3,1,0.7,1.9,1.4,2.6c0.6,0.7,1.5,1.1,2.6,1.1c1.5,0,2.7,-0.5,3.6,-1.4c0.9,-0.9,1.6,-1.6,2.1,-2.3c0.9,-1.2,1.6,-2.7,2.1,-4.6c0.5,-1.8,0.9,-3.7,1.3,-5.7l0.3,-1.2c0.2,-1.2,1,-1.8,2.2,-1.8c1.2,0,1.8,0.8,1.8,2.6l0,0.6Zm52,0.7c0,2.1,-0.4,4.4,-1.1,6.9c-0.8,2.5,-1.9,4.8,-3.5,7c-1.5,2.2,-3.5,4,-5.9,5.4c-2.4,1.5,-5.3,2.2,-8.6,2.2c-3.2,0,-5.9,-0.5,-8.1,-1.7c-2.2,-1.1,-4,-2.7,-5.4,-4.6c-1.4,-2,-2.5,-4.3,-3.1,-6.9c-0.6,-2.7,-0.9,-5.5,-0.9,-8.4c0,-2.8,0.3,-6,1,-9.4c0.6,-3.4,1.7,-6.6,3,-9.6c1.4,-3,3.2,-5.5,5.3,-7.5c2.1,-2,4.7,-3,7.7,-3c1.5,0,2.9,0.3,4.2,1c1.3,0.6,2.4,1.4,3.4,2.3c1,1,1.7,2.2,2.3,3.5c0.6,1.3,0.9,2.6,1,4l0.1,1.7c0,2,-0.3,4.1,-1,6.4c-0.6,2.4,-1.6,4.5,-2.8,6.5c-1.2,2,-2.7,3.7,-4.5,5c-1.8,1.4,-3.8,2,-6.1,2c-0.4,0,-0.9,0,-1.5,-0.1c-0.7,-0.1,-1.2,-0.2,-1.8,-0.3l0,3.5c0,0.6,0.2,1.4,0.5,2.4c0.4,1.1,0.9,2.1,1.7,3.2c0.7,1,1.7,1.9,2.9,2.7c1.1,0.7,2.6,1.1,4.3,1.1c2.4,0,4.3,-0.5,5.8,-1.4c1.5,-0.9,2.8,-2.1,3.7,-3.6c1,-1.5,1.8,-3.1,2.3,-5c0.5,-1.8,1,-3.6,1.3,-5.3c0.2,-1.1,0.5,-1.9,0.7,-2.3c0.3,-0.4,0.7,-0.6,1.2,-0.6c1.3,0,1.9,0.7,1.9,2.1Zm-14.5,-18.9c0,-0.7,-0.1,-1.4,-0.5,-2.1c-0.4,-0.7,-1,-1.1,-2,-1.1c-1.5,0,-2.8,0.8,-3.8,2.3c-1.1,1.6,-2,3.3,-2.6,5.3c-0.7,2,-1.2,4,-1.6,5.8c-0.3,1.8,-0.5,3,-0.5,3.6l0,0.4c0,0.7,0.1,1.3,0.2,1.7c0.1,0.5,0.6,0.7,1.3,0.7l0.6,0c1.6,0,3,-0.6,4.2,-1.8c1.1,-1.2,2,-2.7,2.7,-4.4c0.7,-1.7,1.2,-3.5,1.6,-5.3c0.3,-1.8,0.4,-3.2,0.4,-4.4Zm60.2,30.2c0,1.9,-0.6,3.4,-1.9,4.5c-1.3,1.1,-2.8,1.8,-4.5,2.3c-1.7,0.5,-3.3,0.8,-5,0.9c-1.7,0.2,-2.9,0.2,-3.6,0.2c-1.1,0,-2.5,-0.1,-4.2,-0.3c-1.7,-0.3,-3.3,-0.7,-4.9,-1.2c-1.6,-0.5,-2.9,-1.3,-4,-2.3c-1.1,-0.9,-1.7,-2.2,-1.7,-3.6c0,-0.9,0.4,-1.6,1,-1.9c0.7,-0.4,1.4,-0.6,2.1,-0.6c0.9,0,1.7,0.3,2.6,1c0.8,0.7,1.7,1.3,2.7,2.1c0.9,0.7,2,1.4,3.1,2.1c1.1,0.6,2.4,0.9,3.9,0.9c0.7,0,1.5,-0.2,2.6,-0.6c1.1,-0.5,1.7,-1.3,1.7,-2.4c0,-1.2,-0.5,-2.3,-1.4,-3.3c-1,-1.1,-2.1,-2.2,-3.6,-3.3c-1.4,-1.2,-2.9,-2.3,-4.5,-3.6c-1.7,-1.2,-3.2,-2.5,-4.6,-3.9c-1.5,-1.5,-2.6,-3,-3.6,-4.8c-0.9,-1.7,-1.4,-3.5,-1.4,-5.6c0,-2.8,0.9,-5.2,2.8,-7.2c1.8,-1.9,4,-3.5,6.4,-4.6c2.5,-1.2,5.1,-2,7.7,-2.5c2.6,-0.5,4.6,-0.7,6.1,-0.7c1.4,0,2.8,0.3,4.2,0.8c1.3,0.6,2,1.7,2,3.3c0,0.5,-0.1,1.2,-0.3,2.2c-0.2,0.9,-0.5,1.8,-0.9,2.7c-0.5,0.9,-1.1,1.7,-1.8,2.4c-0.8,0.7,-1.7,1.1,-2.8,1.1c-0.4,0,-0.7,-0.2,-1,-0.5c-0.3,-0.3,-0.7,-0.6,-1.1,-0.9c-0.4,-0.4,-0.8,-0.7,-1.3,-1c-0.4,-0.3,-1,-0.5,-1.5,-0.5c-2.9,0,-4.9,0.9,-6,2.6c-1.2,1.6,-1.7,3.4,-1.7,5.3c0,1.6,0.9,3.3,2.8,5.1c2,1.8,4.1,3.6,6.4,5.4c2.3,1.8,4.4,3.6,6.4,5.3c1.9,1.8,2.8,3.4,2.8,5.1Zm45.6,3.4c0,0.5,-0.5,1,-1.4,1.7c-1,0.6,-2.1,1.1,-3.3,1.7c-1.2,0.5,-2.4,0.9,-3.5,1.2c-1.2,0.4,-2,0.5,-2.5,0.5c-1.8,0,-3.4,-0.3,-4.8,-1.1c-1.4,-0.8,-2.9,-1.5,-4.5,-2.2c0.3,-0.2,0.4,-0.5,0.4,-0.9c0,-0.4,-0.2,-0.6,-0.7,-0.8l0,-0.6c0,-1,0.4,-1.9,1.2,-2.7c0.9,-0.8,1.9,-1.5,3.1,-2.1c1.2,-0.5,2.4,-1,3.7,-1.2c1.2,-0.3,2.3,-0.5,3.1,-0.5c0.7,0,1.6,0.2,2.6,0.6c1,0.5,2,1,3,1.7c1,0.7,1.8,1.4,2.5,2.3c0.7,0.8,1.1,1.6,1.1,2.4Zm43.4,0c0,0.5,-0.5,1,-1.4,1.7c-0.9,0.6,-2,1.1,-3.2,1.7c-1.3,0.5,-2.4,0.9,-3.6,1.2c-1.1,0.4,-1.9,0.5,-2.4,0.5c-1.8,0,-3.4,-0.3,-4.9,-1.1c-1.4,-0.8,-2.9,-1.5,-4.4,-2.2c0.2,-0.2,0.3,-0.5,0.3,-0.9c0,-0.4,-0.2,-0.6,-0.7,-0.8l0,-0.6c0,-1,0.4,-1.9,1.3,-2.7c0.8,-0.8,1.9,-1.5,3.1,-2.1c1.1,-0.5,2.4,-1,3.6,-1.2c1.3,-0.3,2.3,-0.5,3.1,-0.5c0.8,0,1.6,0.2,2.7,0.6c1,0.5,2,1,3,1.7c0.9,0.7,1.8,1.4,2.5,2.3c0.7,0.8,1,1.6,1,2.4Zm43.5,0c0,0.5,-0.5,1,-1.5,1.7c-0.9,0.6,-2,1.1,-3.2,1.7c-1.2,0.5,-2.4,0.9,-3.5,1.2c-1.2,0.4,-2,0.5,-2.5,0.5c-1.8,0,-3.4,-0.3,-4.8,-1.1c-1.4,-0.8,-2.9,-1.5,-4.5,-2.2c0.3,-0.2,0.4,-0.5,0.4,-0.9c0,-0.4,-0.3,-0.6,-0.7,-0.8l0,-0.6c0,-1,0.4,-1.9,1.2,-2.7c0.9,-0.8,1.9,-1.5,3.1,-2.1c1.2,-0.5,2.4,-1,3.7,-1.2c1.2,-0.3,2.3,-0.5,3.1,-0.5c0.7,0,1.6,0.2,2.6,0.6c1,0.5,2,1,3,1.7c1,0.7,1.8,1.4,2.5,2.3c0.7,0.8,1.1,1.6,1.1,2.4Z" class="g1_1" />
<path fill-rule="evenodd" d="M825.8,345.3L730,509L591,427.6L686.8,264Z" class="g2_1" />
<path fill-rule="evenodd" d="M628.1,279.3L663,465.6L504.7,495.3L469.8,308.9Z" class="g3_1" />
<path fill-rule="evenodd" d="M615,288.9l33.1,135.6l-135.6,33L479.4,321.9Z" class="g1_1" />
<path d="M582.4,390.4c-1.7,1,-4,1.7,-6.8,2.1c-2.9,0.4,-5.3,0.6,-7.1,0.5c-3.7,-0.2,-6.5,-0.6,-8.4,-1.2c-1.9,-0.7,-4,-1.9,-6.2,-3.6l-0.4,4.3c-0.1,1.4,0,3,0.4,4.6c0.3,1.7,0.8,3.2,1.7,4.6c0.8,1.4,2,2.5,3.5,3.5c1.6,1,3.6,1.5,6,1.6c3,0.2,5.6,-0.3,7.7,-1.3c2.2,-1.1,3.9,-2.4,5.3,-4.1c1.3,-1.7,2.4,-3.6,3.1,-5.6c0.7,-1.9,1.1,-3.8,1.2,-5.4Zm1.8,-16.5c0,-0.5,0,-1.8,0.1,-3.7c0,-1.8,0,-4.1,-0.1,-6.6c-0.1,-2.6,-0.3,-5.3,-0.6,-8.1c-0.4,-2.8,-0.9,-5.3,-1.7,-7.7c-0.7,-2.3,-1.7,-4.3,-3,-5.9c-1.3,-1.6,-2.9,-2.5,-5,-2.6c-2,-0.1,-4,0.6,-6,2.2c-1.9,1.5,-3.7,3.5,-5.3,6c-1.6,2.5,-2.9,5.3,-4,8.5c-1,3.2,-1.6,6.3,-1.8,9.4c-0.2,5.4,0.7,9.4,2.7,12c2,2.6,5.7,4.1,10.9,4.3c3.9,0.2,7.2,-0.2,9.7,-1.3c2.6,-1.1,3.9,-2,3.9,-2.7Zm23.7,-16.1c0.6,-1,1.6,-1.4,2.9,-1.3c0.7,0,1.1,0.4,1.4,1.3c0.2,0.8,0.3,1.5,0.3,2c-0.4,4.2,-1.5,7.8,-3.3,11.1c-1.9,3.2,-3.8,6,-5.8,8.3c-1.1,1.4,-2.4,2.7,-3.7,3.8c-1.4,1.2,-2.7,2.3,-4.1,3.3c-0.3,2.3,-0.5,3.8,-0.6,4.7c-0.1,0.9,-0.2,1.6,-0.4,2.1c-0.4,2,-1.2,4.5,-2.4,7.6c-1.2,3,-2.9,6,-5,8.9c-2.1,2.8,-4.6,5.2,-7.4,7.2c-2.9,1.9,-6.2,2.8,-9.8,2.6c-1.2,0,-2.6,-0.2,-4.1,-0.6c-1.6,-0.3,-3.1,-0.8,-4.7,-1.3c-1.6,-0.6,-3.2,-1.2,-4.6,-1.9c-1.5,-0.7,-2.7,-1.4,-3.8,-2.1c-3.2,-2,-5.9,-4.4,-7.9,-7c-2.1,-2.7,-3.6,-5.5,-4.6,-8.5c-1,-2.9,-1.6,-5.9,-1.9,-9c-0.2,-3,-0.3,-6,-0.1,-8.8c0.2,-4.8,0.9,-9.7,2.2,-14.6c1.3,-5,2.7,-9.7,4.5,-14.2c1.7,-4.5,3.5,-8.5,5.6,-12c2.1,-3.6,4,-6.3,5.9,-8.2c1.8,-1.8,3.9,-3.1,6.1,-3.7c2.1,-0.6,4.1,-0.9,5.9,-0.8c2.1,0.1,4.3,0.7,6.4,1.9c2.1,1.2,4.1,2.7,6,4.4c2,1.7,3.9,3.6,5.7,5.8c1.9,2.2,3.6,4.3,5.3,6.4c1.3,1.6,2.2,4,2.7,7.3c0.5,3.4,0.9,6.7,1.1,10.1c0.2,1.9,0.3,3.9,0.3,6.1c0,2.2,0,4.4,-0.1,6.7c2.1,-1.5,3.8,-3.2,5.1,-4.9c1.3,-1.8,2.4,-3.4,3.2,-5c0.8,-1.6,1.5,-3.1,2,-4.5c0.6,-1.4,1.1,-2.5,1.7,-3.2Z" class="g4_1" />
<path fill-rule="evenodd" d="M530,312L487.8,496.8L330.9,461L373.1,276.2Z" class="g3_1" />
<path fill-rule="evenodd" d="M517.2,320l-31,136.1L350.1,425L381.2,289Z" class="g1_1" />
<path fill-rule="evenodd" d="M320.9,266.7l79.3,172.2L254,506.3L174.7,334.1Z" class="g5_1" />
<path fill-rule="evenodd" d="M245.8,300.4L226.6,489L66.4,472.6L85.7,284Z" class="g5_1" />
<path fill-rule="evenodd" d="M211.5,316.4L197.3,455.3L58.5,441.1L72.6,302.3Z" class="g1_1" />
<path fill-rule="evenodd" d="M332.5,296.6L366.6,432L231.2,466l-34,-135.3Z" class="g1_1" />
<path d="M276.4,345.9c-0.5,-1,-1.4,-2,-2.5,-3c-1.2,-0.9,-2.6,-1,-4.2,-0.3c-2.4,1.2,-3.9,3.4,-4.4,6.7c-0.6,3.4,-0.7,7,-0.3,10.8c0.4,3.8,1,7.3,1.8,10.6c0.9,3.3,1.5,5.4,2,6.3l0.2,0.6c0.6,1.2,1.2,2.1,1.7,2.8c0.5,0.6,1.4,0.7,2.6,0.1l1,-0.5c2.7,-1.2,4.5,-3.3,5.5,-6.1c0.9,-2.9,1.3,-6,1.1,-9.4c-0.1,-3.3,-0.6,-6.6,-1.4,-9.8c-0.9,-3.2,-1.7,-5.7,-2.6,-7.6Zm38.1,20.2c1.5,3.4,2.7,7.4,3.4,12.1c0.7,4.7,0.6,9.5,-0.3,14.2c-0.9,4.7,-2.8,9.2,-5.6,13.4c-2.9,4.3,-7,7.7,-12.5,10.2c-5.3,2.4,-10.1,3.5,-14.6,3.3c-4.5,-0.2,-8.6,-1.4,-12.5,-3.5c-3.8,-2.1,-7.2,-5.1,-10.3,-9c-3,-3.9,-5.6,-8.3,-7.8,-13.1c-2.2,-4.7,-4,-10.1,-5.6,-16.2c-1.5,-6.2,-2.2,-12.2,-2.2,-18.1c0,-6,1,-11.4,3,-16.3c1.9,-4.9,5.4,-8.5,10.4,-10.8c2.4,-1.1,4.9,-1.6,7.5,-1.6c2.6,0,5.1,0.4,7.4,1.3c2.4,0.9,4.5,2.2,6.4,3.9c2,1.7,3.5,3.6,4.7,5.9l1.5,2.7c1.5,3.2,2.6,7,3.3,11.3c0.7,4.3,0.8,8.6,0.3,12.8c-0.5,4.2,-1.7,8.1,-3.7,11.6c-1.9,3.6,-4.7,6.3,-8.5,8c-0.6,0.3,-1.5,0.6,-2.6,1c-1,0.3,-2.1,0.5,-3.2,0.7l2.7,5.8c0.5,1,1.4,2.2,2.8,3.6c1.4,1.5,3.1,2.8,5.1,3.9c1.9,1.1,4.2,1.9,6.7,2.3c2.6,0.3,5.2,-0.1,8,-1.4c3.9,-1.8,6.8,-4.1,8.5,-6.8c1.8,-2.6,2.9,-5.6,3.4,-8.7c0.5,-3.2,0.5,-6.5,0,-9.9c-0.5,-3.4,-1.2,-6.6,-1.9,-9.7c-0.5,-2.1,-0.7,-3.5,-0.6,-4.4c0.1,-0.8,0.6,-1.5,1.5,-1.9c2,-0.9,3.6,-0.3,4.6,2Z" class="g4_1" />
<path d="M172.4,359c-2.6,3.9,-4.9,8,-7.2,12.3c-2.3,4.4,-4,7.8,-5.2,10.2c-0.2,0.8,-0.8,2.3,-1.7,4.7c-0.9,2.3,-1.9,4.9,-3.1,7.8c-1.1,2.8,-2.1,5.7,-3,8.5c-0.9,2.8,-1.4,5.1,-1.6,6.9c-0.1,0.7,-0.8,1.3,-2.3,1.8c-1.4,0.5,-3.1,0.6,-5.2,0.4c-3.4,-0.3,-6,-1.1,-7.8,-2.2c-1.9,-1.1,-3.2,-2.7,-4,-4.8c-0.8,-2.2,-1.1,-4.9,-1,-8.2c0.1,-3.4,0.4,-7.4,0.9,-12.1l1.7,-16.9c0.1,-1.2,0.2,-2.5,0.2,-3.7c0.1,-1.2,-0.1,-2,-0.5,-2.3c-0.8,0.2,-1.9,2.1,-3.4,5.6c-1.5,3.5,-3,7.8,-4.5,12.9c-1.5,5.1,-3,10.5,-4.3,16.1c-1.3,5.7,-2.2,10.8,-2.7,15.3c-0.2,1.7,-1.1,2.6,-2.9,2.7c-1.8,0.1,-3.7,0.1,-5.8,-0.1c-0.6,-0.1,-1.6,-0.3,-3,-0.7c-1.4,-0.4,-2.8,-0.8,-4.2,-1.2c-1.4,-0.5,-2.7,-1,-3.9,-1.7c-1.1,-0.6,-1.8,-1.3,-2,-2.1c-0.6,-2,-0.8,-5.3,-0.8,-9.9c0.1,-4.6,0.6,-11.6,1.6,-21.1C97.3,371.6,98,365.1,99,357.8c1,-7.4,2.1,-16,3.4,-26c0.2,-1.3,0.3,-3.1,0.3,-5.3c0.1,-2.2,0.2,-3.5,0.2,-3.8c0.1,-1.2,0.7,-1.8,1.7,-2c1,-0.1,1.7,-0.1,2.2,-0.1c1,0.1,2.3,0.4,3.7,0.7c1.4,0.4,2.8,0.8,4.2,1.3c1.4,0.4,2.7,0.9,3.8,1.4c1.2,0.5,2,0.9,2.4,1.2l-5.5,54.6c1.1,-3,2.3,-6.4,3.7,-10.3c1.4,-3.9,2.9,-7.7,4.6,-11.5c1.7,-3.8,3.4,-7.3,5.3,-10.5c1.8,-3.1,3.6,-5.4,5.4,-6.7c0.7,-0.4,1.9,-0.6,3.5,-0.7c1.7,-0.1,3.1,0,4.1,0.1c0.8,0.1,1.7,0.3,2.8,0.6c1.1,0.3,2.2,0.8,3.2,1.4c1,0.5,1.9,1.2,2.7,1.9c0.7,0.8,1.1,1.6,1.2,2.6l-3.7,36.6l-0.2,2.1c-0.1,0.9,0,1.3,0.3,1.4c0.3,0,1.4,-2,3.2,-5.9c1.8,-3.9,4,-8.6,6.5,-14c2.5,-5.3,5.2,-10.9,8.1,-16.5c2.8,-5.7,5.3,-10.1,7.5,-13.4c0.3,-0.6,1.4,-0.8,3.1,-0.7c1.7,0.1,3.3,0.2,4.6,0.3c1.1,0.1,2.5,0.6,4.2,1.5c1.7,0.8,3.4,1.9,5,3.3c1.6,1.4,3,2.9,4.1,4.5c1.1,1.7,1.6,3.3,1.4,5c0,0.3,-0.5,1.1,-1.6,2.5c-1,1.3,-1.8,2.7,-2.2,4.2c-1.5,4.1,-2.6,8.2,-3.4,12.2c-0.8,4,-1.5,9.2,-2.2,15.6c-0.3,2.7,-0.4,5.4,-0.5,8.1c0,2.8,0.1,5.3,0.4,7.5c0.3,2.3,0.9,4.1,1.6,5.6c0.8,1.4,1.9,2.2,3.4,2.4c2.2,0.2,4.1,-0.4,5.9,-1.6c1.8,-1.3,3.5,-3.1,4.9,-5.4c1.5,-2.3,2.8,-5,4,-8.1c1.3,-3.2,2.4,-6.5,3.3,-9.9c1.1,-3.5,2.7,-5.2,4.6,-5c1.2,0.1,2,0.5,2.3,1.2c0.3,0.6,0.4,2,0.2,4.1c-0.2,1.2,-0.3,2,-0.5,2.5c-0.4,1.9,-1.3,4.9,-2.9,8.9c-1.5,4.1,-3.5,8.1,-6,12c-2.4,3.9,-5.3,7.3,-8.6,10.1c-3.4,2.8,-7,4,-10.9,3.6c-4.7,-0.5,-8.4,-2,-11.2,-4.5c-2.7,-2.5,-4.7,-5.6,-6,-9.5c-1.2,-3.9,-2,-8.2,-2.1,-13.1c-0.2,-4.9,-0.1,-10,0.5,-15.3l0.1,-1.6Z" class="g4_1" />
<path d="M450,361.1c-3,3.5,-5.8,7.3,-8.6,11.3c-2.8,4,-4.9,7.2,-6.4,9.5c-0.3,0.7,-1.1,2.2,-2.3,4.4c-1.2,2.2,-2.5,4.7,-4,7.4c-1.4,2.7,-2.8,5.4,-4,8c-1.3,2.7,-2.1,4.9,-2.5,6.7c-0.1,0.7,-1,1.3,-2.4,1.5c-1.5,0.3,-3.3,0.2,-5.3,-0.2c-3.3,-0.8,-5.8,-1.8,-7.5,-3.1c-1.7,-1.4,-2.8,-3.1,-3.3,-5.3c-0.5,-2.3,-0.5,-5,0,-8.3c0.5,-3.3,1.3,-7.3,2.3,-11.8l3.8,-16.7c0.3,-1.2,0.5,-2.3,0.7,-3.5c0.2,-1.2,0.1,-2,-0.3,-2.4c-0.8,0.1,-2.1,1.8,-4,5.1c-2,3.3,-4,7.4,-6.1,12.3c-2.1,4.8,-4.2,10,-6.2,15.5c-2,5.4,-3.5,10.4,-4.5,14.8c-0.4,1.6,-1.5,2.4,-3.3,2.3c-1.7,-0.1,-3.6,-0.4,-5.7,-0.9c-0.6,-0.1,-1.6,-0.4,-2.9,-1c-1.4,-0.5,-2.7,-1.1,-4.1,-1.7c-1.3,-0.6,-2.5,-1.3,-3.6,-2.1c-1,-0.8,-1.6,-1.6,-1.8,-2.4c-0.3,-2.1,-0.1,-5.4,0.6,-9.9c0.6,-4.5,2,-11.4,4.1,-20.8c1.2,-5.4,2.8,-11.8,4.7,-19c1.8,-7.1,4,-15.6,6.5,-25.3c0.3,-1.3,0.7,-3.1,1,-5.2c0.3,-2.2,0.5,-3.5,0.6,-3.7c0.3,-1.2,0.9,-1.8,1.9,-1.8c1,0,1.8,0,2.2,0.1c1,0.3,2.2,0.6,3.6,1.2c1.3,0.5,2.7,1.1,4,1.7c1.4,0.6,2.6,1.3,3.7,1.9c1.1,0.6,1.8,1.2,2.2,1.6l-12.2,53.4c1.5,-2.8,3.1,-6,4.9,-9.7c1.9,-3.7,3.9,-7.4,6,-10.9c2.1,-3.6,4.3,-6.8,6.5,-9.7c2.3,-2.9,4.3,-5,6.3,-6.1c0.7,-0.3,1.9,-0.4,3.6,-0.2c1.6,0.1,3,0.3,4,0.6c0.8,0.1,1.7,0.5,2.7,0.9c1.1,0.5,2.1,1.1,3,1.8c0.9,0.6,1.7,1.4,2.4,2.2c0.7,0.9,1,1.8,0.9,2.7L423,382.2l-0.4,2c-0.2,0.9,-0.2,1.4,0.1,1.5c0.3,0,1.6,-1.8,3.9,-5.5c2.3,-3.6,5.1,-8,8.2,-13c3.2,-5.1,6.5,-10.2,10,-15.5c3.5,-5.2,6.6,-9.4,9.1,-12.4c0.4,-0.5,1.5,-0.6,3.2,-0.3c1.7,0.3,3.2,0.6,4.6,0.9c1,0.3,2.3,0.9,3.9,2c1.6,1.1,3.1,2.4,4.6,3.9c1.4,1.6,2.6,3.3,3.5,5c0.9,1.8,1.2,3.5,0.8,5.1c-0.1,0.3,-0.7,1.1,-1.9,2.3c-1.2,1.2,-2.1,2.5,-2.8,3.9c-1.9,3.9,-3.6,7.8,-4.8,11.7c-1.3,3.9,-2.7,9,-4.1,15.2c-0.6,2.6,-1.1,5.3,-1.5,8c-0.3,2.7,-0.5,5.2,-0.5,7.5c0,2.3,0.3,4.2,0.9,5.7c0.6,1.5,1.6,2.5,3.1,2.8c2.1,0.5,4.1,0.2,6.1,-0.9c1.9,-1,3.7,-2.6,5.4,-4.7c1.8,-2,3.4,-4.6,5,-7.6c1.7,-2.9,3.1,-6.1,4.5,-9.3c1.6,-3.4,3.3,-4.9,5.2,-4.4c1.2,0.2,1.9,0.7,2.1,1.4c0.3,0.7,0.2,2,-0.3,4.1c-0.3,1.2,-0.5,2,-0.8,2.4c-0.6,1.9,-1.9,4.7,-3.9,8.5c-2.1,3.8,-4.5,7.6,-7.5,11.2c-2.9,3.6,-6.2,6.6,-9.8,8.9c-3.6,2.4,-7.4,3.1,-11.2,2.3c-4.6,-1.1,-8.1,-3,-10.5,-5.8c-2.5,-2.8,-4.1,-6.2,-4.8,-10.2c-0.8,-4,-1,-8.4,-0.6,-13.3c0.4,-4.9,1.2,-9.9,2.4,-15.1l0.3,-1.5Z" class="g4_1" />
<path fill-rule="evenodd" d="M808.3,340.3L749.5,466.9L622.9,408L681.8,281.4Z" class="g1_1" />
<path d="M706.1,378.1c-2.4,0.9,-4.9,2.3,-7.3,4.4c-2.5,2,-4.8,4.4,-6.9,7c-2.2,2.6,-4,5.3,-5.6,8.2c-1.6,2.8,-2.7,5.5,-3.3,7.9c-0.3,0.9,-0.4,1.9,-0.5,3c-0.1,1.1,-0.1,2.1,0,3.2c0.2,1,0.6,1.9,1.1,2.7c0.6,0.8,1.4,1.4,2.5,1.7c1.8,0.5,3.6,0.1,5.2,-1.1c1.6,-1.2,3,-2.8,4.2,-4.7c1.2,-1.9,2.3,-3.9,3.1,-6.1c0.8,-2.1,1.3,-3.8,1.7,-5.1c0.1,-0.3,0.2,-0.7,0.3,-1.2c0.2,-0.5,0.4,-1.5,0.9,-3c0.4,-1.5,1,-3.5,1.7,-6.2c0.7,-2.7,1.7,-6.2,2.9,-10.7Zm12.7,-45.3c0.3,-0.9,0.5,-2,0.7,-3.3c0.1,-1.3,0.1,-2.5,0,-3.7c-0.2,-1.2,-0.6,-2.3,-1.2,-3.3c-0.6,-1,-1.6,-1.6,-2.8,-2c-1.7,-0.4,-3.4,-0.2,-5.2,0.8c-1.8,0.9,-3.6,2.4,-5.3,4.5c-1.8,2.1,-3.4,4.8,-5,8.1c-1.6,3.2,-3,7.1,-4.2,11.4c-0.5,1.9,-0.9,3.8,-1.3,5.8c-0.4,2,-0.7,3.8,-0.8,5.4c-0.1,1.7,0,3.1,0.4,4.4c0.4,1.2,1.1,1.9,2.1,2.2c1.9,0.5,3.7,0.2,5.5,-1c1.8,-1.2,3.5,-2.9,5,-4.9c1.6,-2.1,2.9,-4.3,4.1,-6.7c1.1,-2.3,2,-4.4,2.6,-6.2c0.7,-2.5,1.4,-4.2,1.8,-5.1c0.4,-0.8,0.8,-1.4,1,-1.6c0.8,-0.6,1.3,-1.3,1.7,-2.2c0.4,-0.9,0.7,-1.8,0.9,-2.6Zm5.8,45c-0.2,0.8,-0.8,1.4,-1.7,1.5c-0.9,0.1,-1.6,0.1,-2.3,-0.1l-2.6,-1c-0.4,-0.1,-0.7,0.1,-0.9,0.7l-0.5,1.5c-0.6,2.4,-1.3,5.4,-2.3,8.9c-0.9,3.6,-1.9,7.1,-2.8,10.4c-0.9,3.5,-1.9,6.9,-3.1,10.2c-1.1,3.3,-2.4,6.2,-3.9,8.6c-1.5,2.5,-3.2,4.3,-5.1,5.5c-1.8,1.3,-4,1.5,-6.6,0.9c-2.2,-0.6,-4.4,-1.4,-6.8,-2.2c-2.3,-0.9,-4.3,-2,-6.1,-3.4c-1.7,-1.4,-3,-3.1,-3.8,-5.2c-0.8,-2,-0.8,-4.5,0,-7.4c0.8,-2.9,1.9,-5.7,3.3,-8.6c1.5,-2.8,3.2,-5.5,5.2,-8c2,-2.5,4.2,-4.8,6.6,-6.9c2.4,-2.1,4.9,-3.9,7.5,-5.4c1.3,-0.7,2.8,-1.5,4.3,-2.2c1.6,-0.8,3,-1.4,4.1,-1.8l0.1,-0.2c0.6,-1.7,1.3,-3.5,1.8,-5.3c0.6,-1.9,1.2,-3.7,1.7,-5.6c-0.7,0.6,-1.5,1.6,-2.5,2.7c-0.9,1.2,-2,2.3,-3.2,3.3c-1.1,1,-2.4,1.8,-3.7,2.5c-1.3,0.6,-2.6,0.7,-3.9,0.4c-0.7,-0.2,-1.3,-0.5,-1.7,-0.9c-0.5,-0.4,-1.2,-0.7,-2.2,-1c-2.4,-0.8,-4.2,-2,-5.6,-3.6c-1.3,-1.6,-2.1,-3.5,-2.5,-5.7c-0.4,-2.3,-0.4,-4.9,0,-7.7c0.4,-2.8,1.1,-6,2,-9.4c1.1,-4.1,2.4,-8.3,4.1,-12.5c1.7,-4.2,3.6,-8,5.8,-11.3c2.2,-3.3,4.6,-5.8,7.3,-7.6c2.7,-1.7,5.6,-2.2,8.8,-1.3c0.3,0.1,0.8,0.3,1.2,0.7c0.5,0.4,1.1,0.9,1.7,1.4c0.5,0.5,1.1,0.9,1.7,1.4c0.6,0.5,1,0.8,1.3,1c1.7,0.8,3.2,1.7,4.6,2.6c1.3,1,2.4,2,3.2,3.1c0.9,1.1,1.4,2.4,1.6,3.9c0.3,1.6,0.1,3.3,-0.4,5.3c-0.4,1.4,-0.8,2.7,-1.3,3.7c-0.6,1.1,-1.1,2.5,-1.5,4.3c-0.2,0.7,-0.1,1.2,0.3,1.6c0.4,0.4,1,0.8,1.5,1.1c0.6,0.4,1.2,0.7,1.6,1.1c0.5,0.3,0.6,0.9,0.4,1.6c0,0.2,-0.3,0.5,-0.9,1.1c-0.5,0.5,-0.9,0.9,-1,1c-0.5,0.6,-1,1.7,-1.6,3.2c-0.6,1.5,-1.1,3.1,-1.7,4.8c-0.6,1.8,-1.1,3.6,-1.7,5.5c-0.5,1.9,-1,3.5,-1.4,5c-0.3,1.2,-0.7,2.7,-1.2,4.5c-0.5,1.9,-0.9,3.5,-1.1,4.7l0.5,0.2c0.2,0,0.3,0,0.5,0c0.2,0,0.3,0.1,0.4,0.1c0.8,0.2,1.8,0.7,3,1.6c1.3,0.8,1.8,1.7,1.5,2.7Z" class="g4_1" />
<path fill-rule="evenodd" d="M1049.3,283.8l19.9,188.5L909.1,489.2L889.2,300.6Z" class="g6_1" />
<path fill-rule="evenodd" d="M1039.8,295.5l14.6,138.9L915.6,449L901,310.2Z" class="g1_1" />
<path d="M986.2,358.5c0.3,-1.4,0.5,-3.1,0.7,-5.1c0.2,-2,0.1,-3.9,-0.2,-5.7c-0.2,-1.8,-0.9,-3.4,-1.9,-4.9c-1.1,-1.4,-2.7,-2.4,-4.9,-2.8c-3.6,-0.8,-6.9,0.2,-9.8,3c-3,2.8,-5.6,6.3,-7.9,10.4c-2.2,4.2,-4.1,8.6,-5.5,13.2c-1.4,4.6,-2.4,8.3,-3,11c-0.4,2.1,-0.9,4.6,-1.3,7.5c-0.4,2.9,-0.7,5.8,-0.7,8.4c-0.1,2.7,0.2,5.1,0.8,7.1c0.6,2,1.6,3.2,3.2,3.5c3.7,0.8,6.9,0,9.5,-2.5c2.6,-2.4,4.9,-5.7,6.9,-9.8c2,-4.1,3.7,-8.6,5.2,-13.4c1.6,-4.9,3,-9.3,4.3,-13.4c0.7,-2.1,1.6,-3.4,2.6,-3.8c1,-0.3,1.6,-0.7,1.6,-0.9Zm29,39.1c-0.7,1.8,-1.8,3.7,-3.4,6c-1.5,2.2,-3.3,4.3,-5.4,6.2c-2.1,1.9,-4.4,3.4,-6.9,4.4c-2.4,1.1,-5,1.4,-7.5,0.8c-3.9,-0.8,-7,-3,-9.2,-6.6c-2.3,-3.6,-3.1,-8.2,-2.6,-13.7c-1.2,1.9,-2.7,4,-4.3,6.5c-1.6,2.5,-3.4,4.7,-5.5,6.7c-2,2,-4.2,3.6,-6.6,4.8c-2.3,1.1,-4.8,1.4,-7.5,0.9c-0.8,-0.2,-1.4,-0.4,-1.7,-0.6c-0.4,-0.2,-0.8,-0.5,-1.2,-0.8c-0.4,-0.3,-0.9,-0.5,-1.4,-0.8c-0.6,-0.2,-1.4,-0.5,-2.4,-0.7c-3.1,-0.7,-5.5,-2.2,-7.2,-4.7c-1.7,-2.5,-2.8,-5.4,-3.5,-8.7c-0.6,-3.4,-0.8,-7,-0.6,-10.8c0.3,-3.8,0.7,-7.3,1.4,-10.5c1.7,-7.8,3.7,-15,6.1,-21.8c2.3,-6.8,5,-12.6,8.1,-17.5c3.1,-5,6.5,-8.7,10.3,-11.2c3.8,-2.5,7.9,-3.2,12.3,-2.3c2.5,0.6,4.5,1.2,5.7,2c1.3,0.7,2.4,1.5,3.4,2.3c1.1,0.9,2.2,1.8,3.4,2.7c1.2,0.9,3,1.9,5.4,2.8c2.4,2.1,3.9,4.4,4.5,6.7c0.6,2.4,0.8,4.8,0.6,7.4c-0.2,2.5,-0.6,5,-1.3,7.7c-0.7,2.6,-1.2,5.2,-1.4,7.9c0,0.1,0.3,0.3,0.8,0.7c0.5,0.4,1.1,0.9,1.8,1.3c0.7,0.5,1.3,1.1,1.8,1.8c0.4,0.7,0.5,1.5,0.4,2.4l-0.2,0.8c-2,3.1,-3.4,5.9,-4.3,8.4c-0.8,2.5,-1.6,5.6,-2.4,9.2c-0.4,1.8,-0.7,3.8,-1,6c-0.2,2.1,-0.3,4.2,-0.3,6.2c0.1,1.9,0.4,3.6,1,5c0.7,1.5,1.7,2.3,3.1,2.6c1.6,0.4,3.1,-0.1,4.7,-1.4c1.5,-1.3,3,-2.8,4.2,-4.6c1.3,-1.8,2.4,-3.7,3.5,-5.7c1,-1.9,1.7,-3.4,2,-4.4c0.6,-1.5,1.4,-2.1,2.5,-1.9c0.6,0.2,1.2,0.7,1.6,1.5c0.4,0.8,0.4,2.1,0,4c-0.1,0.5,-0.2,1,-0.3,1.4c-0.1,0.5,-0.3,1,-0.5,1.6Z" class="g4_1" />
<path fill-rule="evenodd" d="M935.5,322.5L874.8,502.1L722.3,450.5L783,270.9Z" class="g2_1" />
<path fill-rule="evenodd" d="M923,331L868.7,481L737.4,433.7l54.3,-150Z" class="g1_1" />
<path d="M850.1,398.7c-0.3,0.9,-1.3,2.9,-3,6.1c-1.7,3.1,-3.9,6.3,-6.6,9.6c-2.7,3.2,-5.8,5.9,-9.2,8c-3.5,2,-7.1,2.4,-10.9,1.2c-4,-1.4,-6.8,-3.9,-8.2,-7.6c-1.5,-3.6,-2.1,-7.7,-2.1,-12.1c0.1,-4.4,0.7,-8.8,1.8,-13.3c1.1,-4.5,2.1,-8.2,3.1,-11.1c1.1,-3.3,2.4,-6.6,3.9,-9.8c1.5,-3.2,2.9,-6.4,4.1,-9.7c0.4,-1,0.1,-1.8,-0.8,-2.4c-1,-0.6,-1.9,-1,-2.8,-1.3c-1.5,-0.6,-2.5,-0.7,-3,-0.4c-0.5,0.2,-0.9,0.6,-1.2,1l-2.8,5.9c-1.9,3.8,-3.7,7.5,-5.6,11.1c-1.8,3.5,-3.5,6.6,-5.2,9.2c-1.6,2.6,-3.2,4.6,-4.7,6c-1.6,1.4,-3,1.9,-4.2,1.5l-0.2,-0.1c-0.5,-0.2,-1,-0.5,-1.3,-0.9c-0.4,-0.4,-0.4,-1.1,0,-2.1c0.1,-0.5,0.5,-1.2,1.1,-2.1c2.5,-4.1,4.4,-7.6,5.6,-10.4c1.3,-2.8,2.3,-5.4,3.2,-7.6l0.5,-1.3c0.2,-0.7,0.5,-1.4,0.8,-2.3c0.4,-0.8,0.8,-1.9,1.2,-3.2l1.7,-4.9c0.4,-1.4,0.9,-2.8,1.4,-4.4c0.5,-1.5,1,-3.2,1.3,-5l3.2,-11.4c0.3,-0.8,0.8,-1.4,1.7,-1.8c0.8,-0.4,1.8,-0.7,3,-0.8c1.2,-0.2,2.4,-0.2,3.6,-0.1c1.2,0.1,2.3,0.3,3.2,0.6c2.1,0.8,2.7,2.5,1.8,5.3l-0.3,1l-1.6,4.1l-0.4,1.1c-0.3,0.9,-0.3,1.5,0,1.8c0.3,0.3,1,0.8,2.1,1.4l0.6,0.2c0.9,0.5,2.5,1.2,4.8,2.1c2.2,0.9,4.4,1.9,6.5,3c2.2,1.2,4,2.5,5.4,3.8c1.4,1.4,1.9,2.9,1.4,4.4c-0.2,0.5,-0.6,1.2,-1.1,2.1c-0.6,0.8,-1.2,1.7,-1.9,2.5c-0.7,0.8,-1.3,1.6,-1.9,2.2c-0.5,0.7,-0.8,1.2,-0.8,1.4c-5.3,8,-9.5,16.7,-12.7,26.2c-0.2,0.8,-0.6,2.2,-1.2,4.2c-0.5,2.1,-1,4.3,-1.3,6.6c-0.4,2.2,-0.4,4.3,-0.2,6.2c0.2,1.9,0.8,3.1,2,3.5c1.9,0.6,4,0,6.3,-1.8c2.3,-1.9,4.5,-4.1,6.7,-6.8c2.2,-2.8,4.2,-5.6,5.9,-8.5c1.8,-2.9,3.1,-5.1,3.8,-6.6c0.7,-1.3,1.4,-2,2.1,-2.1c0.7,-0.1,1.3,-0.1,1.8,0.1c1.8,0.6,2.3,2,1.5,4.3c-0.1,0.2,-0.4,0.9,-0.8,1.9c-0.4,1.1,-0.8,1.9,-1.1,2.3Z" class="g4_1" />
<path fill-rule="evenodd" d="M1227.8,313.2l-44.5,184.3L1026.8,459.8l44.5,-184.3Z" class="g6_1" />
<path fill-rule="evenodd" d="M1212.6,317.5l-26.9,137l-137,-26.9l26.9,-136.9Z" class="g1_1" />
<path d="M1120.9,363.4c-3,3.5,-6,7.2,-8.8,11.2c-2.8,4,-5,7.2,-6.5,9.5c-0.3,0.7,-1.1,2.1,-2.3,4.3c-1.2,2.2,-2.6,4.7,-4.1,7.3c-1.5,2.7,-2.9,5.4,-4.1,8c-1.3,2.7,-2.1,4.9,-2.6,6.7c-0.1,0.7,-1,1.2,-2.4,1.5c-1.5,0.3,-3.3,0.2,-5.3,-0.3c-3.3,-0.8,-5.7,-1.9,-7.4,-3.2c-1.8,-1.4,-2.8,-3.1,-3.3,-5.4c-0.5,-2.2,-0.5,-4.9,0.1,-8.2c0.5,-3.3,1.4,-7.3,2.5,-11.8l4,-16.6c0.2,-1.2,0.5,-2.4,0.7,-3.6c0.2,-1.2,0.1,-2,-0.3,-2.4c-0.8,0.1,-2.1,1.8,-4.1,5.1c-2,3.3,-4,7.3,-6.2,12.2c-2.2,4.8,-4.3,10,-6.4,15.4c-2.1,5.4,-3.6,10.4,-4.7,14.8c-0.4,1.6,-1.5,2.4,-3.2,2.2c-1.8,-0.1,-3.7,-0.4,-5.8,-0.9c-0.6,-0.1,-1.5,-0.5,-2.9,-1c-1.3,-0.6,-2.7,-1.2,-4,-1.8c-1.3,-0.6,-2.5,-1.3,-3.6,-2.1c-1,-0.8,-1.6,-1.6,-1.7,-2.4c-0.3,-2.1,-0.1,-5.4,0.6,-10c0.7,-4.5,2.1,-11.4,4.4,-20.7c1.3,-5.4,2.9,-11.7,4.9,-18.9c1.9,-7.2,4.2,-15.6,6.8,-25.2c0.4,-1.4,0.7,-3.1,1.1,-5.3c0.3,-2.2,0.5,-3.4,0.6,-3.7c0.3,-1.2,1,-1.8,2,-1.7c1,0,1.7,0,2.1,0.1c1.1,0.3,2.3,0.7,3.6,1.2c1.4,0.6,2.7,1.2,4,1.8c1.4,0.6,2.6,1.3,3.7,1.9c1,0.7,1.8,1.2,2.2,1.6l-12.8,53.3c1.4,-2.8,3.1,-6,5,-9.7c1.9,-3.6,3.9,-7.2,6.1,-10.8c2.1,-3.5,4.4,-6.7,6.6,-9.6c2.3,-2.9,4.4,-4.9,6.4,-6c0.7,-0.3,1.8,-0.3,3.5,-0.2c1.7,0.2,3,0.4,4.1,0.7c0.7,0.1,1.6,0.5,2.7,1c1,0.4,2,1,2.9,1.7c1,0.7,1.7,1.5,2.4,2.3c0.6,0.9,0.9,1.8,0.9,2.7l-8.6,35.8l-0.5,2c-0.2,0.9,-0.2,1.4,0.1,1.5c0.3,0,1.6,-1.8,4,-5.4c2.3,-3.7,5.1,-8,8.3,-13c3.2,-5,6.6,-10.1,10.2,-15.3c3.6,-5.2,6.7,-9.3,9.2,-12.3c0.5,-0.5,1.6,-0.6,3.2,-0.3c1.7,0.4,3.3,0.7,4.6,1c1,0.2,2.3,0.9,3.9,2c1.6,1.1,3.1,2.4,4.5,4c1.4,1.6,2.6,3.3,3.5,5c0.9,1.8,1.1,3.5,0.7,5.1c0,0.3,-0.7,1.1,-1.9,2.3c-1.2,1.1,-2.1,2.4,-2.8,3.8c-2,3.9,-3.7,7.8,-5,11.7c-1.3,3.9,-2.7,8.9,-4.2,15.1c-0.7,2.7,-1.2,5.4,-1.6,8.1c-0.4,2.7,-0.6,5.2,-0.6,7.4c0,2.3,0.3,4.2,0.8,5.7c0.6,1.6,1.6,2.5,3.1,2.9c2,0.5,4.1,0.2,6,-0.8c2,-1,3.8,-2.6,5.6,-4.6c1.7,-2.1,3.4,-4.6,5.1,-7.6c1.6,-2.9,3.1,-6,4.5,-9.3c1.6,-3.4,3.4,-4.8,5.3,-4.3c1.2,0.2,1.9,0.7,2.1,1.4c0.2,0.7,0.1,2,-0.4,4.1c-0.3,1.2,-0.6,2,-0.8,2.4c-0.6,1.9,-2,4.7,-4,8.5c-2.1,3.8,-4.6,7.5,-7.6,11c-3,3.6,-6.3,6.6,-10,8.9c-3.6,2.3,-7.4,3,-11.2,2.1c-4.6,-1.1,-8.1,-3.1,-10.5,-5.9c-2.4,-2.9,-3.9,-6.3,-4.6,-10.3c-0.8,-4,-0.9,-8.4,-0.4,-13.3c0.4,-4.9,1.3,-9.9,2.5,-15l0.4,-1.6Z" class="g4_1" />
<path d="M638,375.3l-14.5,32.5l25,12l-0.4,0.8L622.7,408.4l-0.3,-0.2l0.1,-0.4L637.3,375Z" class="g3_1" />
<path d="M211.4,326l-4.7,44.5l-0.8,-0.1l4.6,-44.5Z" class="g5_1" />
<path d="M232.5,321.8l1.7,-9.6L95.2,293.7l-3.8,10.5l-2.6,-0.3l1.3,-21.6l150.8,25.6l-3.8,12.7Z" class="g4_1" />
<path d="M79.9,443.3l-1.6,19.8l125.5,5.6l12.7,-61.3l1.7,6.9L208,472.9l-0.1,0.8l-0.8,0L77.3,464.8l-0.9,0l0,-0.9l1.7,-20.7Z" class="g4_1" />
<path d="M251.3,461l10.1,15.3L372.5,431.6L358.5,400l-4.9,-19.5l24.5,52.8L257.9,491.9l-1.1,0.5l-0.2,-1.2L245.2,462.5Z" class="g4_1" />
<path d="M308.3,302.7l-5.2,-9.4l-60.7,21.4l0.9,-3.7l64.5,-27.6l9.4,17Z" class="g4_1" />
<path d="M367.5,454l110.9,22.9L520.5,316.6L377.3,285.2l-14,73.7l-3.1,-6.8l15.9,-69.5l147.1,29.2L484.4,488.5l-0.2,1l-0.9,-0.3L365,455.1Z" class="g4_1" />
<path d="M639.6,372l-20,-84.6L514.4,307.9l-8,-1.3L626.1,281.5l15,87.4Z" class="g4_1" />
<path d="M501.3,434.5l14.3,48L650.1,446.4L648.9,421l1.7,0.8l8,30.9L513.9,486.2l-14,-42.1Z" class="g4_1" />
<path d="M767.1,318.7L683.3,277.8l-40.8,78.8l-1.1,-6.3l44.1,-80.1l82.1,46.6Z" class="g4_1" />
<path d="M657.4,435.9L723,483.3l15.9,-21.4l1.4,0.7l-12.1,33.6L658.1,439.7Z" class="g4_1" />
<path d="M917.6,329.1l1.7,-5L781.8,286.9L750.2,398.5l-4.3,11.9l30.8,-133l145.7,45.2L920,330Z" class="g4_1" />
<path d="M744,436l-1.8,10.1l132.3,40.4l28.3,-99.2l9.3,-26L882.2,491L735.9,450l3.9,-15.4Z" class="g4_1" />
<path d="M1048,353.6l-3.5,-60.9L895.8,309l-4,-1.3l155.9,-22l2.4,60.2Z" class="g4_1" />
<path d="M906.7,407.9L920,471.1l134.4,-4.7l5.8,1.4L917.5,481L905.6,411Z" class="g4_1" />
<path d="M1064.6,317.7l8,-39.3l148,36.4l0.9,0.2l-0.2,0.9l-31.7,176.2L1038.5,445l7.3,-37.7l2.4,1l-7.6,35.4l143.5,26.7l35.3,-154L1076.8,284.1l-9,35Z" class="g4_1" />

<path d="M0,909
L0,0
L1286,0
L1286,909 z "
fill="none"
stroke-width="1.0"
stroke-linecap="butt"
stroke-linejoin="miter"
stroke="#000000" />
<title>Backup_of_memogram LOGO.cdr Page1</title>
</svg>
