<?xml version="1.0" encoding="UTF-8" standalone="no"?>
<!DOCTYPE svg PUBLIC "-//W3C//DTD SVG 1.1//EN"
"http://www.w3.org/Graphics/SVG/1.1/DTD/svg11.dtd">


<!-- Page 1 -->
<svg x="0" y="0" width="1607" height="1216" version="1.1" xmlns="http://www.w3.org/2000/svg" xmlns:xlink="http://www.w3.org/1999/xlink"
style="display: block;margin-left: auto;margin-right: auto;">
<defs>

<style type="text/css"><![CDATA[

.g2_1{
fill: #FFFFFF;
}
.g1_1{
fill: #231F20;
}


]]></style>

</defs>
<path d="M0,0
L0,1216
L1607,1216
L1607,0 Z " 
fill="#FFFFFF" stroke="none" />
<path d="M0,1216l1607,0L1607,0L0,0L0,1216Z" class="g1_1" />
<path d="M603.4,585.8c0,-0.2,0,-0.4,0,-0.5c-0.1,-0.5,-0.4,-0.7,-0.9,-0.6c-0.9,0.1,-1.4,0.5,-1.3,1.2c0.3,0.1,0.5,0.2,0.6,0.4c0.2,0.1,0.4,0.1,0.6,0.1c0.3,0,0.4,-0.1,0.5,-0.3c0.1,-0.2,0.3,-0.3,0.5,-0.3M593.2,520.4c-0.1,-0.5,-0.5,-0.7,-1.3,-0.5c-0.5,0,-0.7,0.2,-0.6,0.5c0,0.5,0.5,0.7,1.4,0.6c0.1,-0.1,0.3,-0.2,0.5,-0.6m-7.8,-38.5c-0.1,0,-0.3,0,-0.4,-0.1c-0.2,0,-0.4,0,-0.6,0c-0.7,0.1,-1,0.4,-1.1,0.9c0.3,0.3,0.5,0.4,0.7,0.4c0.2,0,0.5,-0.2,0.7,-0.5c0.2,-0.3,0.4,-0.5,0.7,-0.7m-3.2,-8.8c0,0,0,-0.1,0,-0.2c0,-0.3,-0.2,-0.5,-0.5,-0.4c0.1,0.6,0.2,0.9,0.4,0.9c0,-0.2,0,-0.2,0.1,-0.3m18.9,95c-0.2,0,-0.3,0.1,-0.4,0.2c0,0.1,-0.1,0.1,-0.3,0.2c-0.3,0,-0.6,0,-0.9,-0.1c-0.3,-0.2,-0.6,-0.2,-1,-0.1c-0.2,0,-0.4,0.1,-0.4,0.1c-0.1,0.1,-0.1,0.2,-0.3,0.2c0,0.1,-0.1,0.2,-0.1,0.3c-0.1,0,-0.3,0,-0.4,-0.1c-0.1,0,-0.3,-0.1,-0.4,-0.1c-0.3,0.6,-0.4,0.9,-0.4,1.1c0.1,0.6,0.4,0.9,0.8,0.8c0.4,0,0.8,-0.1,1.2,-0.1c0.6,-0.1,1.2,-0.3,1.7,-0.4c0.6,-0.2,0.9,-0.3,1.2,-0.3c0.3,-0.1,0.6,-0.1,0.9,-0.2c-0.1,-0.6,-0.3,-0.9,-0.6,-0.9c-0.3,0.1,-0.5,-0.1,-0.6,-0.6m-17.4,-75c-0.1,-0.5,-0.3,-0.6,-0.8,-0.5c-0.5,0.2,-0.9,0.2,-1.2,0.1c-0.2,0.4,-0.5,0.7,-0.8,1.1c-0.4,0.4,-0.5,0.8,-0.4,1.3c0,0.5,0.3,0.7,0.8,0.6c1.2,-0.2,1.8,-0.6,1.9,-1.2c0,-0.5,0.2,-1,0.5,-1.4m10.4,80.2c-0.2,-0.1,-0.4,-0.3,-0.6,-0.5c-0.2,-0.2,-0.4,-0.3,-0.7,-0.3c-0.5,0.1,-0.6,0.8,-0.4,2.1c0.1,0.6,0.4,0.9,0.9,0.8c0.2,-0.2,0.4,-0.5,0.6,-0.8c0.2,-0.4,0.2,-0.8,0.2,-1.3m4.4,23.5c-0.4,-0.5,-0.8,-0.7,-1.4,-0.6l-0.9,0.2c-0.2,0,-0.4,0,-0.6,0.1c0.1,0,0.1,0.1,0.1,0.2c0,0.3,0.1,0.5,0.3,0.6c0.1,0,0.3,0.2,0.6,0.5c0.1,0,0.2,-0.1,0.4,-0.1c0.3,0,0.6,-0.1,0.9,-0.1c0.4,-0.1,0.6,-0.3,0.6,-0.6c0,-0.1,0,-0.2,0,-0.2M587.6,535.9c-0.4,-0.5,-1,-0.6,-1.8,-0.5c-0.3,0.1,-0.5,0.3,-0.4,0.8c0,0.3,0.1,0.6,0.3,0.9c0.1,0,0.3,0,0.4,0l0.7,-0.1c0.7,-0.1,0.9,-0.5,0.8,-1.1m3.4,34.5c0,-0.1,0,-0.2,-0.1,-0.2c0,-0.4,-0.2,-0.4,-0.5,-0.3c-0.3,0.1,-0.5,0.1,-0.6,0c0,0.4,0.2,0.7,0.4,0.6c0.3,0,0.5,-0.1,0.8,-0.1m1.9,26c-0.8,-0.7,-1.5,-1,-2.2,-0.9c-0.5,0.1,-0.7,0.4,-0.6,0.9c0.1,0.3,0.2,0.5,0.4,0.5c0.2,0.1,0.3,0.2,0.5,0.5c0.1,0,0.2,0,0.4,0c0.2,-0.1,0.4,-0.1,0.7,-0.1c0.5,-0.1,0.7,-0.4,0.8,-0.9M582.2,540.1c0.1,-0.1,0.1,-0.4,0,-0.7c0,-0.5,-0.3,-0.7,-0.6,-0.6c-0.7,0.1,-1.1,0.3,-1.3,0.7c0.2,0.3,0.3,0.6,0.2,1.1c0,0.5,0.2,0.7,0.7,0.7c0.2,-0.1,0.4,-0.2,0.5,-0.5c0.1,-0.2,0.2,-0.5,0.5,-0.7m5.5,34.2c-0.4,-0.4,-0.8,-0.6,-1.2,-0.5c-0.3,0,-0.6,0.2,-1,0.4c-0.4,0.2,-0.6,0.5,-0.5,0.8c0.1,0.7,0.3,1,0.7,1.1c0.3,0.1,0.5,0.3,0.8,0.4c0.5,-0.1,0.8,-0.4,0.8,-0.9c0,-0.5,0.2,-0.9,0.4,-1.3m-3,-22.1c-0.1,-0.5,-0.3,-0.7,-0.7,-0.7l-1.1,0.2c-0.1,0,-0.1,0,-0.2,0c-0.2,0.6,-0.4,1,-0.8,1.3c-0.3,0.3,-0.4,0.7,-0.3,1.4c0.1,0.8,0.5,1.1,1,1.1c0.6,0,1.2,0,1.8,-0.1c0.1,-0.4,0.2,-0.8,0.3,-1.3c0.1,-0.5,0.1,-1,0,-1.5c0,-0.1,0,-0.3,0,-0.4m2.9,36.5c-0.4,-0.4,-0.9,-0.6,-1.6,-0.4c-0.4,0,-0.8,0.3,-1.2,0.6c0.4,0.6,0.8,0.9,1.4,0.8c0.2,0,0.2,-0.1,0.3,-0.2c0,-0.1,0.1,-0.1,0.2,-0.1c0.2,-0.1,0.4,-0.1,0.6,-0.1c0.2,-0.1,0.3,-0.2,0.3,-0.6m-6.8,-41.5c-0.4,-0.9,-1.2,-1.3,-2.3,-1.1c-0.7,0.1,-1.2,0.4,-1.5,1c0,0.1,0,0.3,0,0.4c0.1,0.4,0.2,0.8,0.2,1.2c0.1,0.4,0.4,0.6,1,0.8c0.6,0.3,1.3,0.3,1.9,0.2c0.7,-0.1,1.1,-0.4,1,-0.9c-0.1,-0.4,-0.2,-0.9,-0.3,-1.4c0,-0.1,0,-0.1,0,-0.2m6.9,32.2c-0.7,-0.5,-1.5,-0.7,-2.3,-0.5c-0.5,0,-1.1,0.3,-1.9,0.8c-0.8,0.4,-1.2,0.9,-1.1,1.4c0.1,0.6,0.5,1,1.1,1.1c0.7,0.1,1.4,0.2,2.1,0.2c0.7,-0.1,1.4,-0.1,2,-0.1c0.6,0,1,0,1,0.2c0.3,0.1,0.6,0.1,1.1,0c1.1,-0.1,1.9,-1,2.2,-2.5c-0.2,-0.6,-0.8,-0.9,-1.8,-0.7l-1.2,0.2c-0.5,0.1,-0.9,0.1,-1.2,-0.1m-7.4,5.7c-0.2,-0.3,-0.4,-0.5,-0.7,-0.4c-0.2,0,-0.5,0.1,-0.7,0.1c0.1,0.5,0.2,0.7,0.5,0.7c0.2,-0.1,0.4,-0.2,0.5,-0.3c0.1,0,0.2,-0.1,0.4,-0.1m-4.3,-32c-0.5,-0.7,-1.1,-1,-1.8,-0.9c-0.5,0.1,-0.7,0.4,-0.6,1c0,0.2,0.2,0.6,0.6,1.2c0.3,0.6,0.7,0.8,1.2,0.7c0.7,-0.1,0.9,-0.6,0.7,-1.5c0,-0.2,0,-0.4,-0.1,-0.5m4.5,22.4c0,-0.4,-0.1,-0.8,-0.2,-1.2c0,-0.5,-0.1,-0.7,-0.3,-0.7c-0.2,0.1,-0.5,0.4,-0.9,0.9c-0.3,0.6,-0.7,0.9,-1,0.9c-0.1,0,-0.1,0,-0.2,0.1c-0.1,0.3,-0.3,0.5,-0.6,0.5c-0.3,0.1,-0.4,0.4,-0.3,0.8c0.1,0.8,0.7,1.1,1.7,1c0.2,-0.1,0.5,-0.2,1,-0.6c0.4,-0.3,0.7,-0.9,0.8,-1.7m10.7,-20.2c0,-0.2,0,-0.3,-0.1,-0.3c0,0,-0.1,0,-0.1,-0.2c0,-0.1,0,-0.1,-0.1,-0.2c-0.5,-0.3,-1,-0.4,-1.3,-0.3c-0.9,0.1,-1.5,0.3,-1.8,0.5c-0.4,0.3,-0.7,1,-1,2.4c0,0.1,0.1,0.3,0.2,0.3c0,0.1,0.1,0.2,0.1,0.4c0.1,0.8,-0.2,1.3,-0.9,1.7c-0.7,0.3,-1.1,0.5,-1.4,0.6c-0.6,0.1,-1.6,-0.1,-2.9,-0.5c-0.8,-1.2,-2,-1.7,-3.4,-1.4c-1.4,0.2,-2.5,-0.1,-3.4,-0.9c-0.3,0,-0.6,0.1,-1,0c-0.4,0,-0.8,0,-1.1,0.1c-1.3,0.2,-1.8,0.8,-1.6,1.7c0,0.4,0.2,0.5,0.4,0.4c0.1,0,0.1,0,0.2,0c0,0.1,0,0.2,0,0.3c1,-0.5,1.6,-0.8,2,-0.9c0.5,0,1.2,0.1,2.1,0.4c0.8,0.4,1.7,0.8,2.5,1.4c0.8,0.6,1.5,1.2,2.1,1.9c0.6,0.6,0.9,1.1,1,1.4c0.1,0.8,0,1.4,-0.2,1.9c-0.2,0.4,-0.6,0.7,-1.1,1c-0.4,0.2,-0.8,0.5,-1.2,0.8c-0.4,0.3,-0.6,0.8,-0.6,1.5c0.3,0.4,0.5,0.8,0.6,1.3c0.2,0.5,0.6,0.6,1.2,0.5c0.8,-0.8,1.9,-1.2,3.1,-1.4c1.2,-0.2,2.3,-0.6,3.2,-1.1c-0.2,-0.7,-0.6,-1.3,-1.3,-1.6c-0.6,-0.3,-1,-0.9,-1.1,-1.9c-0.1,-0.8,0.2,-1.2,1.1,-1.4c0.7,-0.1,1.5,-0.1,2.2,-0.1c0.8,0.1,1.2,0.2,1.3,0.6c0.2,-0.4,0.4,-0.5,0.7,-0.4c0.2,0.1,0.4,-0.1,0.4,-0.6c0.8,0.4,1.8,0.5,2.9,0.3c0.9,-0.1,1.5,-0.5,1.9,-1c0.4,-0.6,0.8,-0.9,1,-0.9c0.2,0,0.4,0,0.6,-0.1c0.1,0,0.2,-0.1,0.1,-0.2c0,-0.4,-0.2,-0.5,-0.4,-0.3c-0.2,0.1,-0.5,0.2,-0.7,0.2c-0.6,0.1,-1.2,0.3,-1.8,0.6c-0.6,0.4,-1.3,0.6,-2.2,0.7c-0.7,0.2,-1.4,-0.1,-2.1,-0.6c-0.8,-0.5,-1.2,-1.2,-1.3,-2c-0.1,-0.6,0,-1.1,0.4,-1.4c0.4,-0.3,0.8,-0.5,1.3,-0.7c0.4,-0.1,0.8,-0.3,1.2,-0.5c0.4,-0.3,0.6,-0.7,0.5,-1.3c-0.1,-0.3,-0.1,-0.5,-0.2,-0.7m-21.9,-2.5c-0.3,-0.5,-0.7,-0.7,-1,-0.6c-0.4,0.1,-0.8,0.2,-1.1,0.6c-0.3,0.3,-0.5,0.6,-0.4,0.9c0,0.3,0.2,0.5,0.4,0.6c0.2,0.2,0.5,0.4,0.8,0.6c0.3,-0.3,0.6,-0.6,1,-0.7c0.3,-0.2,0.4,-0.7,0.3,-1.4m2.2,12.8c-0.5,0,-0.9,0,-1.3,-0.3c-0.3,-0.3,-0.8,-0.3,-1.4,-0.2c-0.5,0,-0.7,0.3,-0.7,0.8c0.1,0.3,0.4,0.5,0.9,0.7c0.6,0.2,1.1,0.3,1.8,0.4c0.7,0.2,1.2,0.3,1.8,0.5c0.5,0.1,0.8,0.3,0.8,0.4c0.5,-0.1,0.9,-0.5,1.1,-1.4c-0.7,-0.2,-1.1,-0.4,-1.4,-0.7c-0.3,-0.3,-0.9,-0.4,-1.6,-0.2m0.2,7.7c-0.5,-0.2,-1.2,-0.2,-1.9,-0.1c-0.9,0.1,-1.3,0.5,-1.3,1.2c0.1,0.8,0.5,1.1,1.1,1c0.3,0,0.5,-0.1,0.7,-0.2c0.3,-0.2,0.5,-0.2,0.7,-0.3c0.2,0,0.3,0,0.4,0c0.3,-0.3,0.5,-0.6,0.4,-1.1c0,-0.1,-0.1,-0.3,-0.1,-0.5m-6.9,-12.2c-0.4,-0.4,-0.8,-0.6,-1,-0.5c-0.4,0,-0.5,0.3,-0.4,0.8c0,0,0.1,-0.1,0.1,-0.1c0.3,0,0.5,0.1,0.6,0.3c0.1,0.2,0.2,0.3,0.5,0.3c0.2,-0.1,0.3,-0.2,0.3,-0.6c-0.1,-0.3,-0.1,-0.4,-0.1,-0.2m-47,-55c-0.4,-0.6,-0.9,-1.1,-1.5,-1.5c-0.6,-0.3,-1.3,-0.4,-2.1,-0.3c-0.7,0.2,-1.1,0.3,-1.1,0.5c0.1,0.2,0.1,0.9,0.1,2.2c0.7,0.7,1.7,0.9,3.1,0.6c0.3,-0.1,0.6,-0.1,1.1,-0.2c0.4,-0.1,0.6,-0.4,0.5,-0.9c0,-0.1,-0.1,-0.3,-0.1,-0.4M510,495.6c-0.8,-0.7,-1.9,-0.8,-3.3,-0.5c-0.4,0,-0.8,0.1,-1.2,0.2c0.8,0.8,1.7,1.2,2.8,1.1c1.1,0,1.6,0,1.5,0c0.3,-0.1,0.4,-0.2,0.3,-0.3c0,-0.2,0,-0.3,-0.1,-0.5m6.4,28.9c-0.3,0.1,-0.5,0.1,-0.8,0.2c-1,0.2,-2,0.3,-2.8,0.2c-0.9,-0.1,-1.8,-0.1,-2.7,-0.1c0,0.2,0,0.3,0,0.4c-0.1,0.1,-0.1,0.2,0,0.4c0.1,0.4,0.5,0.7,1.2,0.8c0.8,0.1,1.3,0.1,1.7,0c0.6,-0.1,1.4,-0.2,2.3,-0.4c0.9,-0.2,1.2,-0.7,1.1,-1.5m-1.3,-8.3c-1.1,0.2,-2.1,0.1,-3.3,-0.2c-1.1,-0.3,-2.2,-0.4,-3.2,-0.2c-0.6,0.1,-1.3,0.4,-2.1,0.8c-0.8,0.4,-1.1,1.2,-0.8,2.3c0.1,0.4,0.4,0.7,1.1,0.9c0.6,0.1,1.3,0.1,2,0c0.8,-0.1,1.6,-0.2,2.4,-0.4c0.7,-0.1,1.4,-0.2,1.9,-0.3c0.6,-0.2,1.1,-0.4,1.4,-0.6c0.4,-0.2,0.7,-0.5,1,-0.9c-0.1,-0.7,-0.3,-1.1,-0.4,-1.4m-4.9,30.7c-0.4,-0.7,-0.8,-1,-1.2,-0.9c-0.5,0.1,-1,0.2,-1.5,0.3c-0.4,0.4,-0.8,0.7,-1.2,1c-0.4,0.2,-0.7,0.6,-0.8,1.1c0.1,0.5,0.3,0.7,0.7,0.7c0.4,0,0.8,0.2,1.1,0.4c0.7,-0.1,1.2,-0.5,1.5,-1c0.3,-0.6,0.7,-1.1,1.4,-1.6m-4.6,-41.5c-0.6,0.1,-1.2,0.3,-1.9,0.5c-0.6,0.2,-1.2,0.4,-1.9,0.5c-1.4,0.3,-2.3,0.3,-2.7,0.1c-0.4,-0.3,-0.9,-0.3,-1.5,-0.2c-0.8,0.2,-1.1,0.5,-1,1c0.4,0.9,1.1,1.5,1.9,1.8c0.8,0.3,1.6,0.8,2.4,1.4c0,-0.6,0.3,-1.1,0.8,-1.4c0.5,-0.2,1.1,-0.4,1.8,-0.5c0.7,0,1.2,-0.1,1.7,-0.3c0.5,-0.2,0.8,-0.7,0.9,-1.6c-0.1,-0.6,-0.3,-1,-0.5,-1.3M493.4,491.5c-0.1,-0.2,-0.1,-0.3,-0.1,-0.5c-0.1,-0.3,-0.3,-0.4,-0.7,-0.3c-1.2,0.2,-1.7,0.6,-1.6,1.1c0,0.1,0.2,0.1,0.6,0.1c0.3,0.4,0.6,0.6,1,0.5c-0.1,-0.1,-0.1,-0.2,-0.1,-0.2c0.1,-0.4,0.4,-0.6,0.9,-0.7m7.6,40.9c-0.5,-0.2,-1.1,-0.2,-1.6,-0.1c-0.7,0.1,-1,0.8,-0.8,1.9c0.1,0.3,0.3,0.4,0.6,0.3c0.3,0,0.6,0.1,1,0.3c0.8,-0.5,1.1,-1.1,0.9,-1.9c0,-0.2,0,-0.3,-0.1,-0.5m1.9,-20.1c-0.8,-0.6,-1.5,-0.9,-2.2,-0.7c0.1,-0.1,-0.2,0.2,-0.9,0.8c-0.8,0.5,-1.6,1.2,-2.5,2c-0.9,0.8,-1.7,1.6,-2.5,2.4c-0.7,0.8,-1.1,1.4,-1,1.7c0.2,0.6,0.5,1,1.1,1.1c0.5,0.1,1.1,0.2,1.8,0.1c0.6,-0.1,1.2,0,1.8,0.2c0.6,0.2,1,0.6,1.1,1.3c0.2,0.7,-0.1,1.3,-0.7,1.6c-0.6,0.3,-1,0.5,-1.2,0.7c-0.7,-0.1,-1.4,-0.2,-2,0c-0.6,0.1,-1.2,-0.1,-1.7,-0.6c-0.1,0,-0.3,0,-0.4,0.1c-0.4,0,-0.8,0.1,-1.1,0.2c-0.7,0.2,-0.9,0.5,-0.8,1.2c0.4,0.7,1,1,1.6,0.8c0.5,0.3,1.1,0.9,1.9,1.8c0.8,1,1.2,1.3,1.1,1c0.1,0,0.1,0,0.2,0c0.4,-0.1,0.8,-0.2,1.1,-0.3c0.4,0,0.6,-0.2,0.7,-0.4c1.2,-0.2,2.2,-0.2,3,0c0.9,0.2,1.6,0.3,2.2,0.2c0.7,-0.2,1.2,-0.6,1.6,-1.4c0.5,-0.7,1,-1.3,1.5,-1.8c-0.2,-0.9,-0.4,-1.5,-0.8,-1.8c0,-0.3,0,-0.5,0,-0.7c0,-0.2,0,-0.3,0,-0.5c-0.2,-0.8,-0.5,-1.2,-0.9,-1.4c-0.4,-0.2,-0.9,-0.2,-1.4,-0.2c-0.6,0,-1.1,0,-1.7,-0.1c-0.5,-0.2,-0.9,-0.5,-1.2,-1.1c-0.2,-1.1,-0.2,-1.9,0.1,-2.4c0.3,-0.4,0.6,-0.8,0.9,-1.2c0.4,-0.3,0.7,-0.6,1.1,-0.8c0.3,-0.2,0.4,-0.7,0.3,-1.3c0,-0.2,-0.1,-0.3,-0.1,-0.5m-6.7,25.1c-0.3,-0.2,-0.6,-0.4,-0.7,-0.6c-0.2,-0.1,-0.5,-0.1,-0.8,0c-0.3,0,-0.5,0.2,-0.8,0.6c-0.2,0.4,-0.3,0.8,-0.2,1.1c0,0.3,0.3,0.6,0.7,0.8c0.5,0.2,0.8,0.3,1.1,0.2c0.6,-0.1,0.9,-0.4,0.9,-0.8c0,-0.4,-0.1,-0.8,-0.2,-1.3m5.1,-42.2c-0.2,-0.1,-0.5,-0.1,-0.8,-0.1c-0.7,0.2,-1.2,0.7,-1.4,1.6c-0.3,0.8,-1.2,1.5,-2.8,1.8c-1,0.2,-1.8,0.2,-2.4,0c-0.8,0.5,-1.5,1.1,-1.9,1.8c-0.4,0.6,-1,1.2,-2,1.5c-1,0.1,-1.8,0.2,-2.4,0.3c-0.6,0.2,-1.3,0.1,-2,0c-0.6,0.4,-1.1,0.7,-1.6,0.9c-0.5,0.2,-0.8,0.7,-1,1.4c0.4,0.5,1.1,1,1.9,1.5c0.8,0.5,1.5,0.7,1.8,0.6c0.6,-0.1,1.1,-0.3,1.5,-0.6c0.5,-0.3,1.1,-0.5,1.7,-0.6c0.7,-0.2,1.3,-0.1,2,0c0.7,0.2,1.4,0.2,2.1,0.1c0.4,-0.1,0.6,-0.2,0.7,-0.4c-0.1,-1.6,0.5,-2.7,1.7,-3.1c1.3,-0.4,2.4,-0.9,3.4,-1.4c0.2,-0.9,0.4,-1.8,0.5,-2.6c0.2,-0.9,0.5,-1.8,1,-2.7m-7.5,13.9c-0.3,0.1,-0.5,0.1,-0.6,0c-0.2,0,-0.4,0,-0.6,0c-1.1,0.3,-1.9,0.7,-2.7,1.4c-0.7,0.6,-1.6,1.1,-2.6,1.3c-0.4,0.1,-0.8,0,-1.4,-0.1c-0.6,-0.1,-1,-0.1,-1.2,-0.1c-0.3,0.1,-0.6,0.3,-1.1,0.8c-0.4,0.4,-0.6,0.7,-0.6,0.8c0.1,0.4,0.2,0.8,0.3,1.2c0,0.1,0,0.2,0,0.2c0.7,0.2,1.6,0.3,2.5,0.2c0.9,0,1.8,-0.1,2.7,-0.3c0.9,-0.2,2.2,-0.7,3.8,-1.5c1.7,-0.8,2.4,-1.7,2.1,-2.8c0,-0.1,-0.1,-0.2,-0.2,-0.2c-0.1,0,-0.2,0,-0.2,0.1c-0.1,-0.1,-0.2,-0.2,-0.3,-0.2c0,-0.2,0,-0.3,0.1,-0.4c0,-0.1,0,-0.2,0,-0.4m9.5,84.7c-0.5,-0.2,-0.9,-0.3,-1.2,-0.3c-0.5,0.1,-1,0.4,-1.7,0.9c-0.6,0.5,-0.9,1,-0.8,1.4c0.1,0.3,0.2,0.6,0.5,0.7c0.3,0.1,0.6,0.1,0.8,0c0.4,-0.1,0.7,-0.3,1.1,-0.6c0.4,-0.3,0.8,-0.5,1.3,-0.6c0,0,0.1,0.1,0.2,0.1c0.1,0,0.1,-0.1,0.1,-0.5L503.4,594c-0.1,-0.1,-0.1,-0.2,-0.1,-0.2M478.5,492.5c-0.2,-0.2,-0.5,-0.4,-1.1,-0.3c-0.5,0,-0.6,0,-0.4,-0.1c-0.2,0.1,-0.4,0.2,-0.4,0.3c-0.1,0.1,-0.2,0.1,-0.5,0.2c-0.1,0,-0.1,0,-0.2,0c0,0.1,0.1,0.2,0.1,0.3c0.1,0.8,0.4,1.1,0.8,1c0.4,-0.1,0.5,-0.1,0.4,-0.1c0.5,-0.1,1,-0.5,1.3,-1.3m12.8,39.6c-0.4,-0.3,-0.7,-0.5,-1.1,-0.9c-0.4,-0.3,-0.9,-0.4,-1.4,-0.3c-0.1,0,-0.1,0.1,-0.2,0.1c-0.2,0,-0.5,0,-0.8,0c-0.2,0,-0.5,0,-0.7,0.1c-1.6,0.3,-2.4,1.1,-2.7,2.3c0.6,0.4,1.3,0.6,2.1,0.8c0.7,0.1,1.4,0.2,2,0.2c0.6,0.1,1.1,0.1,1.5,0.1c0.4,0,0.5,0,0.2,0.1c0.1,-0.1,0.1,-0.1,0.2,-0.1c0,-0.1,0,-0.1,0,-0.2l0.1,-0.3c0.1,0,0.2,0,0.3,0.1c0.1,0,0.2,0,0.3,0c0.3,-0.5,0.3,-1.2,0.2,-2M480.8,504.4c-0.3,-0.3,-0.7,-0.4,-1.1,-0.3c-0.2,0.1,-0.5,0.3,-0.8,0.6c-0.4,0.3,-0.7,0.6,-0.9,0.8c0.2,0.3,0.3,0.7,0.3,1.3c0,0.6,0.3,0.8,1,0.6c0.4,-0.1,0.6,-0.4,0.6,-0.9c0,-0.5,0.2,-0.7,0.6,-0.8c0.1,0,0.1,-0.1,0.2,-0.1c0.2,0,0.4,-0.1,0.3,-0.3c0,-0.2,-0.1,-0.5,-0.1,-0.7c-0.1,-0.1,-0.1,-0.2,-0.1,-0.2m-2.6,-41.9c0.5,-0.2,1.3,-0.5,2.3,-0.7c1.2,-0.3,2.4,-0.4,3.7,-0.5c1.2,0,2.4,-0.1,3.4,-0.3c0.8,-0.2,1.5,-0.4,2.2,-0.6c0.6,-0.2,1.3,-0.4,1.9,-0.6c1.1,-0.2,1.9,-0.2,2.5,0.1c0.7,0.3,1.2,0.7,1.8,1.3c0.5,0.5,1,1,1.4,1.5c0.5,0.5,1,0.7,1.7,0.8c1.3,1.3,2.5,2.8,3.7,4.2c1.2,1.5,2.6,2.7,4.1,3.7c0.9,1.2,1.8,2.5,2.7,4c0.8,1.6,1.9,2.6,3,3c0.7,0.8,1.8,2,3.3,3.5c1.4,1.5,2.2,2.4,2.2,2.7c1.3,2.2,2.9,4,4.8,5.2c1.9,1.3,3.4,3.2,4.4,5.8c1.3,1.7,3,3.2,5,4.6c2.1,1.3,3.6,3.2,4.6,5.8c0.6,1.5,1.4,2.8,2.6,3.7c1.2,0.9,2.1,2.1,2.9,3.6c0.3,0.8,0.9,1.5,1.9,2.2c1,0.7,1.8,1.4,2.5,2.1c0,0.2,0.1,0.4,0.1,0.5c0,0.2,0.3,0.7,0.8,1.5c0.6,0.8,1.3,1.7,2.2,2.7c0.9,1.1,1.8,2.1,2.8,3.1c1,0.9,1.9,1.7,2.7,2.2c0.3,1.4,0.9,2.7,1.8,3.9c0.9,1.3,1.9,2.4,2.9,3.4c1.1,1.1,2.1,2.1,3,3.2c1,1,1.7,2,2.1,2.9c0.9,1.2,1.8,2.5,2.5,4.1c0.7,1.6,2,2.2,3.7,1.9c1,-0.1,1.5,-0.7,1.6,-1.6c0.1,-0.9,0.5,-1.6,1,-2.2c-0.8,-1.2,-1.4,-3,-1.7,-5.3c-0.4,-2.4,-0.7,-4.4,-0.9,-6c-0.2,-0.8,-0.3,-1.5,-0.4,-2.2c-0.1,-0.8,-0.2,-1.5,-0.2,-2.3c-0.2,-0.6,-0.4,-1.3,-0.6,-2.1c-0.1,-0.8,-0.2,-1.6,-0.4,-2.4c-0.1,-0.8,-0.2,-1.5,-0.3,-2.1c-0.1,-0.7,-0.2,-1.3,-0.1,-2c-0.1,-0.3,-0.2,-0.6,-0.3,-0.8c-0.1,-0.2,-0.2,-0.5,-0.2,-0.8c-0.1,-0.8,-0.2,-1.6,-0.3,-2.3c0,-0.7,-0.1,-1.5,-0.3,-2.2c-0.2,-1.3,-0.6,-2.3,-1.1,-3.2c-0.5,-0.8,-0.9,-2,-1.2,-3.5c-0.5,-3.2,-1,-6.4,-1.6,-9.5c-0.5,-3.2,-0.9,-6.3,-1.1,-9.3c-1.1,-1.5,-1.8,-3.5,-2.2,-6c-0.4,-2.2,-0.8,-4.6,-1,-7.2c-0.3,-2.5,-0.5,-4.7,-0.5,-6.5c-0.7,-1.3,-1.1,-2.8,-1.4,-4.4c-0.3,-1.7,-0.5,-3.5,-0.6,-5.3c-0.1,-1.7,-0.3,-3.5,-0.5,-5.2c-0.2,-0.2,-0.3,-0.4,-0.4,-0.7c-0.1,-1,0.1,-1.9,0.8,-2.7c0.7,-0.8,1.6,-1.5,2.7,-2c1.2,-0.6,2.5,-1,3.9,-1.4c1.5,-0.4,2.8,-0.7,4,-0.9c2.6,-0.4,5.1,-0.6,7.5,-0.4c0.7,-0.5,1.5,-0.8,2.4,-0.9c0.9,-0.1,1.8,-0.3,2.7,-0.4c2.2,-0.3,4.4,-0.7,6.6,-1c0.6,-0.1,1.2,-0.2,1.8,-0.3c0.9,0.6,2,0.6,3.2,0.3c1.3,-0.3,2.3,-0.2,3.1,0.5c0.2,1,0.9,1.8,2.1,2.4c1.2,0.7,2,2.2,2.3,4.5c0.1,1,0.2,2,0.2,2.9c0,1,0,1.6,0,1.7c0.1,0.4,0.2,0.8,0.4,1.4c0.2,0.7,0.4,1.4,0.5,2.2c0.1,0.6,0.1,1.2,0.1,1.9c-0.1,0.6,0,1.2,0,1.7c0.2,0.3,0.4,0.7,0.6,1.1c0.4,0.9,0.6,1.7,0.7,2.3c0.2,1.3,0.3,2.6,0.3,4c0,1.4,0,2.7,0.2,4c0.2,1.1,0.4,2.2,0.6,3.3c0.2,1.1,0.4,2.2,0.5,3.3c0.2,0.8,0.3,1.6,0.4,2.4c0.1,0.8,0.1,1.6,-0.1,2.5c0.3,0.4,0.6,1.2,0.7,2.3c0.1,0.6,0.2,1.3,0.1,2c0,0.8,0,1.5,0.2,2.3c0,0.7,0.2,1.3,0.4,1.9c0.2,0.6,0.4,1.4,0.5,2.4c0.3,1.7,0.3,2.8,0.1,3.4c0.3,0.4,0.6,1.1,0.7,2c0.1,0.8,0.2,1.6,0.1,2.2c0,0.7,0,1.3,0.1,2c0.2,1.7,0.6,3.6,1,5.5c0.4,2,0.7,3.9,0.9,5.6c0.3,1.6,0.5,3.1,0.7,4.6c0.2,1.6,0.3,3,0.2,4.3c0.3,0.6,0.5,1.2,0.6,1.8c0.1,0.7,0.2,1.4,0.3,2.2c0.2,0.9,0.3,1.8,0.3,2.6c0.1,0.8,0.1,1.6,0.2,2.4c0.2,0.8,0.3,1.6,0.5,2.5c0.2,0.9,0.3,1.7,0.4,2.5c0.1,0.5,0.2,0.9,0.2,1.4c0.4,2.9,0.9,5.9,1.3,8.8c0.2,1.5,0.4,2.9,0.6,4.3c0.3,0.6,0.5,1.4,0.7,2.3c0.2,1.5,0.3,2.8,0.3,4.1c-0.1,1.3,0,2.7,0.2,4.1c0.3,1.9,0.6,3.8,0.9,5.6c0.3,1.8,0.6,3.7,0.9,5.6c0.1,1.1,0.2,2.2,0.3,3.2c0,1.1,0,2,0.2,2.8c0.1,0.8,0.2,1.5,0.4,2.1c0.2,0.7,0.4,1.4,0.5,2.1c0.1,0.8,0,1.6,-0.2,2.3c0,0.3,0.1,0.6,0.2,1c0.1,0.4,0.2,0.8,0.3,1.1c0.1,1.3,0.2,2.5,0.2,3.8c0,1.3,0.1,2.6,0.3,3.9c0.1,0.9,0.3,1.7,0.5,2.1c-0.1,0.7,0,1.5,0.1,2.4c0.2,1.3,0.4,2.4,0.6,3.5c0.2,1,0.4,2.1,0.5,3.2c0.3,1.7,0,3.5,-0.7,5.4c-0.8,1.9,-1.8,3.4,-3.1,4.4l-1.3,0.1c-1.1,0.2,-2.2,0.4,-3.3,0.5c-1.3,0.2,-2.6,0.2,-3.8,0.1c-1.2,-0.1,-2.5,-0.1,-3.8,0.1c-1.7,0.2,-3.3,0.6,-4.8,1.1c-1.6,0.5,-3.2,0.9,-4.8,1.1c-1,0.2,-2.1,0.2,-3.4,0.2c-1.4,0,-2.7,-0.2,-4,-0.7c-1.4,-0.4,-2.6,-1,-3.8,-1.8c-1.2,-0.8,-2.1,-1.8,-2.8,-3.2c-0.7,-1.1,-1.5,-2,-2.3,-2.6c-0.8,-0.6,-1.5,-1.6,-2,-3c-2.8,-2.6,-5,-5.2,-6.8,-7.8c-1.7,-2.7,-3.1,-4.7,-4.1,-6.1c-1,-0.4,-1.7,-1,-2.3,-1.8c-0.6,-0.9,-1.1,-1.8,-1.6,-2.7c-0.5,-0.9,-1,-1.7,-1.7,-2.5c-0.6,-0.8,-1.4,-1.3,-2.3,-1.6c-1.1,-0.8,-1.8,-1.9,-2.1,-3.3c-0.4,-1.4,-1.3,-2.4,-2.7,-3c-0.5,-1.5,-1.3,-2.5,-2.2,-3.1c-1,-0.5,-1.8,-1.5,-2.3,-2.9c-0.3,-0.9,-0.8,-1.6,-1.5,-2.3c-0.6,-0.6,-1.4,-1.2,-2.1,-1.8c-0.8,-0.5,-1.4,-1.1,-2.1,-1.8c-0.6,-0.6,-1,-1.4,-1.2,-2.3c-0.7,-1.2,-1.6,-2,-2.6,-2.6c-1,-0.5,-1.7,-1.5,-2.3,-2.8c-0.5,-0.2,-0.8,-0.7,-1,-1.3c-0.1,-0.6,-0.5,-1,-1.2,-1.2c-0.8,-0.9,-1.6,-1.7,-2.5,-2.5c-0.8,-0.8,-1.6,-1.8,-2.2,-3c-0.6,-0.8,-1.3,-1.5,-2.1,-2c-0.8,-0.5,-1.4,-1.1,-1.8,-1.9c-0.4,-1.9,-1.6,-3.2,-3.7,-4.1c-0.6,-0.4,-1.1,-0.9,-1.4,-1.6c-0.4,-0.6,-0.7,-1.3,-1.1,-2c-0.4,-0.6,-0.8,-1.2,-1.2,-1.7c-0.5,-0.5,-1.1,-0.7,-1.9,-0.7c-0.3,-0.6,-0.7,-1.1,-0.9,-1.7c-0.2,-0.5,-0.5,-1,-0.7,-1.6c0.1,-0.7,0.5,-1.2,1.1,-1.4c0.6,-0.2,0.9,-0.7,0.8,-1.5c-0.1,-0.5,-0.4,-0.7,-1,-0.8c-0.6,0,-1.3,0,-2.1,0c-0.8,0,-1.6,-0.1,-2.4,-0.2c-0.8,0,-1.4,-0.3,-1.9,-0.7c-0.5,-0.5,-1.1,-1,-1.9,-1.3c-0.6,0.6,-0.8,1.6,-0.4,2.8c0.3,1.3,0,2.1,-1,2.7c-0.2,0,-0.5,0.1,-0.7,0.1c-0.6,0.2,-1.5,0.6,-2.5,1.4c-1,0.8,-1.6,1.9,-1.8,3.3c-0.3,0,-0.5,0.1,-0.8,0.1c-1.1,0.3,-1.9,0.9,-2.5,2c0.2,0.8,0.5,1.3,0.9,1.6c0.5,0.2,0.8,0.3,1.1,0.2c0.6,-0.1,1,-0.7,1.3,-1.6c0.2,-1,0.7,-1.5,1.5,-1.7c1.2,-0.6,2.3,-1.2,3.5,-2c1.1,-0.7,1.8,-1.8,2,-3.4c0.3,0,0.5,-0.1,0.8,-0.1c0.4,-0.1,0.9,-0.2,1.3,-0.3c0.6,-0.1,1.1,0,1.5,0.4c0,1.3,-0.2,2.4,-0.4,3.3c-0.3,0.9,-0.4,2.1,-0.2,3.5c0.1,0.1,0.2,0.3,0.3,0.4c0.3,0.8,0.5,1.6,0.7,2.6c0.2,0.9,0.4,1.8,0.6,2.6c0.2,0.9,0.4,1.8,0.5,2.6c0.2,0.7,0.3,1.5,0.3,2.3c0.4,1.1,0.7,2.2,0.9,3.3c0.2,1.1,0.5,2.2,0.7,3.3c0.3,1.3,0.5,2.4,0.7,3.4c0.2,1,0.4,2,0.5,3c0.7,1.6,1.3,3.3,1.7,5c0.4,1.8,0.9,3.7,1.3,5.9c0.3,0.3,0.6,1,0.8,2.1c0.3,1.2,0.3,2.2,0.2,2.9c-0.2,0.7,-0.2,1.4,0,2.2c0.2,0.9,0.5,1.9,0.9,2.9c0.5,0.9,0.9,2,1.1,3.3c0.2,0.9,0.2,1.9,0.1,2.9c-0.2,1.1,-0.1,2.3,0.2,3.7l0.7,3.3c0,0.4,0.1,0.8,0.2,1.2c0.3,0.2,0.5,0.6,0.6,1.1c0.1,0.3,0.1,0.6,0.2,0.9c0.1,0.5,0.3,0.9,0.5,1.4c0.2,0.4,0.4,0.9,0.5,1.4c0.2,1.2,0.4,2.4,0.4,3.5c0.1,1.2,0.2,2.4,0.5,3.6c0.3,0.8,0.6,1.9,0.9,3.3c0.1,0.8,0.3,1.6,0.4,2.6c0.2,0.9,0.3,1.8,0.5,2.6c0.2,0.8,0.4,1.6,0.7,2.3c0.2,0.8,0.5,1.6,0.6,2.3c0.3,1.3,0.1,2.4,-0.4,3.5c-0.6,1,-1.1,1.9,-1.4,2.8c-0.9,0.6,-2,1,-3.1,1.4c-1,0.4,-2.1,1,-3.2,1.7c-3.1,0.3,-6.4,1,-9.8,1.9c-3.5,1,-6.8,1.6,-9.9,2c-0.4,0.2,-0.9,0.4,-1.4,0.7c-0.4,0.4,-0.9,0.6,-1.4,0.7c-1.3,0.3,-2.6,-0.4,-4.1,-2.1c-1.4,-1.7,-2.4,-3.4,-3,-5.1c0.1,-0.3,0.1,-0.7,0.1,-1.1c0.1,-0.4,0,-0.9,-0.1,-1.3c-0.1,-0.4,-0.2,-0.6,-0.4,-0.8c-0.1,-0.2,-0.3,-0.5,-0.3,-0.8c-0.1,-0.3,-0.1,-0.5,-0.1,-0.6c0,-0.1,0,-0.3,0,-0.6c-0.2,-0.8,-0.5,-1.5,-0.9,-2.3c-0.3,-0.7,-0.6,-1.5,-0.8,-2.3c-0.5,-2,-0.8,-4,-1,-5.9c-0.1,-2,-0.4,-4,-1,-6.2c-0.3,-1.3,-0.7,-2.4,-1.3,-3.5c-0.6,-1.1,-1,-2.3,-1.3,-3.5c-0.3,-1.5,-0.5,-2.9,-0.6,-4.3c-0.1,-1.5,-0.3,-2.9,-0.6,-4.1c-0.6,-1.7,-1.1,-3.5,-1.6,-5.6c-0.6,-2,-1.1,-3.8,-1.4,-5.3c0.2,-0.6,0.3,-1.2,0.1,-1.8c-0.3,-1.2,-0.7,-2.2,-1.4,-3c-0.6,-0.8,-1.1,-1.8,-1.4,-3.2c-0.4,-1.6,-0.6,-2.8,-0.7,-3.6c-0.3,-0.4,-0.6,-1,-0.8,-1.8c-0.2,-0.9,-0.3,-1.8,-0.2,-2.6c0,-0.9,0,-1.7,-0.2,-2.5c-0.2,-0.6,-0.4,-1.1,-0.8,-1.6c-0.4,-0.5,-0.7,-1.1,-0.8,-1.7c-0.2,-0.6,-0.3,-1.3,-0.3,-1.9c0,-0.7,-0.1,-1.4,-0.3,-2.2c-0.1,-0.4,-0.3,-0.9,-0.5,-1.4c-0.3,-0.6,-0.5,-1.1,-0.6,-1.5c-0.2,-1,-0.3,-1.8,-0.3,-2.4c0.1,-0.7,0,-1.4,-0.2,-2.2c-0.2,-0.9,-0.5,-1.6,-0.9,-2c-0.4,-1.9,-0.9,-4,-1.4,-6.5c-0.6,-2.4,-0.9,-4.7,-1.2,-7c-0.5,-0.9,-0.8,-1.5,-0.8,-1.8c-0.5,-1.8,-0.8,-3.8,-1,-5.8c-0.1,-2,-0.4,-4,-0.8,-5.9c-0.6,-2.1,-1.2,-4.3,-1.9,-6.3c-0.7,-2.1,-1.3,-4.2,-1.8,-6.4c-0.5,-2.2,-0.7,-3.5,-0.7,-4c0.1,-0.6,0.1,-1.2,-0.1,-2c-0.4,-1.5,-0.8,-2.8,-1.3,-3.9c-0.4,-1,-0.8,-2.2,-1.1,-3.4c-0.5,-2.1,-0.8,-4.2,-0.9,-6.5c-0.4,-0.2,-0.5,-0.4,-0.6,-0.6c-0.1,-0.3,-0.1,-0.5,0,-0.6c0,-0.1,0,-0.2,0,-0.4c-0.1,-0.3,-0.2,-0.7,-0.5,-1.1c-0.2,-0.4,-0.4,-0.8,-0.5,-1.1c-0.1,-0.8,-0.2,-1.6,-0.2,-2.3c0,-0.8,-0.1,-1.5,-0.2,-2.3c-0.3,-1,-0.6,-1.7,-1,-2.3c-0.4,-0.5,-0.7,-1.3,-0.9,-2.2c-0.7,-2.7,-0.4,-5.1,0.8,-7.4c1.2,-2.2,3.5,-3.8,6.9,-4.6c1.5,-0.3,2.9,-0.7,4.4,-1c0.3,-0.5,0.9,-0.9,1.8,-1.1c1.2,-0.3,2.4,-0.5,3.5,-0.5c1.2,0,2.4,-0.1,3.6,-0.4c1,-0.2,1.8,-0.5,2.3,-0.8Z" class="g2_1" />
<path d="M679.6,568.9c-0.3,-0.3,-0.7,-0.4,-1.3,-0.2c-0.6,0.1,-1,0.1,-1.3,0c0,0.3,0,0.5,-0.1,0.5c-0.1,0,-0.2,0.2,-0.2,0.5c0,0.1,0.1,0.1,0.1,0.2c0.2,0,0.4,0.3,0.4,0.8c0.1,0.6,0.4,0.8,1,0.8c0.2,0,0.6,-0.2,1.1,-0.6c0.4,-0.4,0.6,-0.8,0.6,-1.3c0,-0.1,-0.1,-0.3,-0.2,-0.3c0,-0.1,-0.1,-0.2,-0.1,-0.4m-9.3,-96.7C669.6,471.4,669,471,668.6,471c-0.4,-0.1,-0.7,-0.1,-0.8,-0.1c-0.4,0.1,-0.6,0.4,-0.5,1.1c0,0.1,0.1,0.4,0.2,0.8c0.1,0.4,0.2,0.6,0.3,0.6c0.2,-0.1,0.3,-0.1,0.4,-0.3c0.1,0.1,0.2,0.3,0.2,0.4c0.1,0,0.2,0,0.2,0c0.4,0,0.8,-0.1,1.2,-0.1c0.4,0,0.6,-0.2,0.6,-0.5c-0.1,-0.3,-0.1,-0.5,-0.1,-0.7m2.4,65.5c0,-0.3,0,-0.5,-0.1,-0.7c-0.1,0.1,-0.3,0.2,-0.5,0.3c-0.3,0,-0.5,0,-0.7,-0.1c-0.2,-0.1,-0.4,-0.1,-0.6,-0.1c-0.2,0.1,-0.3,0.2,-0.4,0.3c-0.1,0,-0.1,0,-0.2,0c0,0.2,0.2,0.4,0.5,0.7c0.1,0,0.2,0,0.3,0c0.4,-0.1,0.8,-0.1,1.2,-0.1c0.3,-0.1,0.5,-0.2,0.5,-0.3m-3.3,-32.1c-0.2,-0.3,-0.4,-0.4,-0.6,-0.4c-0.4,0,-0.8,0.1,-1.2,0.1c0,0,-0.1,0,-0.2,0c0.1,0.3,0,0.5,-0.1,0.5c-0.1,0,-0.2,0.1,-0.2,0.3c0,0,0,0.1,0,0.2c0.2,0,0.3,0,0.4,0c0.3,-0.1,0.7,-0.1,1,-0.1c0.5,-0.1,0.8,-0.3,0.9,-0.6m-9.2,-31.2c-0.3,-0.3,-0.6,-0.6,-1,-0.9c-0.3,-0.3,-0.9,-0.4,-1.7,-0.3c-0.2,0,-0.7,0.1,-1.5,0.3c-0.8,0.1,-1.2,0.4,-1.1,0.9c0,0.5,0.5,0.9,1.3,1.1l1.2,0.4c0.1,-0.1,0.3,-0.1,0.4,-0.1c0.3,0,0.4,0,0.5,0.2c0.1,0.2,0.3,0.2,0.5,0.2c0.2,0,0.2,-0.1,0.2,-0.3c0,-0.1,0,-0.1,0,-0.2c0.1,0,0.2,0,0.4,0.1c0.1,0,0.3,0.1,0.4,0c0.1,-0.3,0.2,-0.5,0.3,-0.7c0.1,-0.2,0.2,-0.4,0.1,-0.7m9.7,95c0,-0.2,-0.1,-0.2,-0.2,-0.2c-0.2,0,-0.2,-0.1,-0.2,-0.2c-0.1,-0.1,-0.1,-0.2,-0.1,-0.3c-0.9,0.1,-1.9,0.3,-2.8,0.4c-0.9,0.2,-1.5,0.9,-1.9,2c0,0.4,0.3,0.6,1,0.7c0.6,0.1,1,0.1,1.1,0.1c0.5,-0.1,0.9,-0.3,1.3,-0.6c0.4,-0.4,0.9,-0.6,1.3,-0.7c0.2,0.2,0.3,0.3,0.4,0.2c0.1,0,0.1,-0.1,0.2,-0.2c0,-0.2,-0.1,-0.3,-0.1,-0.4c-0.1,0,-0.2,-0.1,-0.2,-0.3c0,-0.3,0,-0.5,0.2,-0.5M659,556.5c0,-0.3,-0.2,-0.5,-0.6,-0.4c-0.3,0,-0.5,0.1,-0.5,0.3c0,0.3,0.2,0.4,0.6,0.4c0.4,0,0.5,-0.1,0.5,-0.3m-4.4,-40.9c0,-0.1,0,-0.2,0,-0.2c0,-0.2,-0.2,-0.3,-0.4,-0.2c-0.5,0,-0.8,0.2,-0.7,0.5c0,0.2,0,0.2,0.2,0.2c0.1,0,0.2,0,0.3,-0.1c0.2,-0.1,0.3,-0.2,0.4,-0.2c0.1,0,0.1,0,0.2,0m-2.4,-25.9c0,-0.1,0,-0.1,0,-0.2c0,-0.1,0,-0.2,-0.1,-0.3c-0.2,0.1,-0.5,0.1,-0.7,0.1c-0.1,0,-0.2,0,-0.2,0c0,0.4,-0.1,0.5,-0.3,0.5c-0.2,0.1,-0.2,0.2,-0.2,0.3c0,0.1,0,0.2,0,0.3c0.1,0.1,0.3,0.2,0.4,0.2c0.5,-0.1,0.9,-0.4,1.1,-0.9m3.9,41.7c0,-0.1,0,-0.2,0,-0.2c0,-0.4,-0.2,-0.5,-0.4,-0.5c-0.2,0,-0.3,0.1,-0.4,0.1c-0.1,0,-0.1,0,-0.2,0c0,0.1,0,0.2,-0.1,0.2c0,0,-0.1,0.1,0,0.3c0,0.1,0.1,0.2,0.4,0.2l0.5,-0.1c0.1,0,0.2,0,0.2,0m2.3,-97.5c1.1,0.2,1.9,0.3,2.6,0.2c1.1,-0.1,2.1,-0.3,3.1,-0.5c1,-0.3,2,-0.4,2.9,-0.5c1.3,-0.2,2.4,-0.1,3.1,0.2c0.2,-0.1,0.5,-0.1,0.8,-0.1c1.8,-0.2,3.4,0.4,4.7,1.9c1.3,1.4,2,3,2.1,5c0.1,1.1,0.2,2.2,0.1,3.2c0,1.1,0,2,0.1,2.8c0.3,0.8,0.6,1.7,0.8,2.8c0.2,1.1,0.4,2.2,0.5,3.4c0.2,1.6,0,2.9,-0.4,4.1c0,0.3,0,0.6,0.1,1c0,0.6,0,1.2,-0.1,1.8c-0.1,0.6,-0.1,1.2,0,1.8c0.1,0.8,0.4,1.7,1,2.7c0.6,1,1,2.1,1.1,3.4c0.1,1.4,0.2,3,0.1,4.8c0,1.8,0.1,3.6,0.2,5.5c0.3,3.1,0.7,5.5,1.3,7.4c-0.3,0.2,-0.4,0.7,-0.5,1.6c0,0.9,-0.1,1.5,0,1.8c0.1,1,0.3,1.9,0.7,2.8c0.4,0.8,0.6,1.6,0.7,2.4c0,0.5,0,1.1,-0.3,1.6c-0.2,0.6,-0.3,1.1,-0.2,1.4c0,0.8,0.2,1.5,0.5,2.1c0.4,0.6,0.6,1.3,0.6,2.1c0.1,1.3,0.1,2.2,-0.2,2.8c-0.3,0.6,-0.4,1.3,-0.3,2.1c0.1,1,0.2,1.9,0.4,2.7c0.2,0.9,0.4,1.7,0.4,2.5c0.1,1.2,0.1,2,0,2.5c0.4,0.9,0.6,1.8,0.7,2.8c0.1,1,0,1.8,-0.1,2.4c-0.1,0.7,-0.2,1.4,-0.1,2.2c0.1,1,0.3,1.9,0.5,2.7c0.3,0.9,0.5,1.7,0.5,2.5c0.1,0.5,0,1.2,-0.2,2.2c0.3,1.8,0.6,3.8,1,6.2c0.3,2.4,0.5,4.2,0.6,5.5c0.1,0.8,0.1,1.7,0,2.6c-0.1,0.9,-0.2,1.7,-0.1,2.5c0.1,0.5,0.2,1,0.4,1.4c0.2,0.5,0.4,1,0.4,1.7c0.1,0.8,0.1,1.6,0,2.5c-0.1,0.9,-0.1,1.8,0,2.8c0,0.6,0.1,1.2,0.4,1.6c0.2,0.5,0.3,1.1,0.4,1.7c0.1,1.3,0.1,2.6,0.1,4.1c-0.1,1.5,0,3,0.1,4.6c0.1,1.4,0.3,2.9,0.6,4.5c0.2,1.6,0.5,3.3,0.6,5c0.2,2.3,0.2,4,-0.1,5.1c0.3,0.3,0.5,1.3,0.7,3c0.2,1.6,0.4,3,0.5,4.2c0.1,1.2,0.1,2.3,0.1,3.1c-0.1,0.8,-0.1,1.8,0,2.9c0.1,1.1,0.3,2.2,0.5,3.2c0.2,1,0.4,2.1,0.5,3.2c0.1,1.6,0.1,2.9,-0.1,3.9c-0.1,1,-0.4,1.8,-0.7,2.5c-0.4,0.7,-0.8,1.3,-1.3,1.8c-0.5,0.5,-1,1.1,-1.4,1.8c-0.1,0,-0.2,0,-0.3,0c-0.3,0,-0.5,0.2,-0.6,0.4c-0.2,0.3,-0.5,0.4,-1,0.5c-1.5,0.3,-3.2,0.5,-5.1,0.6c-1.9,0.1,-3.5,0.3,-4.8,0.6c-0.2,0,-0.4,0,-0.4,-0.1c-0.1,-0.1,-0.3,-0.1,-0.5,-0.1c-2,0.2,-4.1,0.6,-6.2,1.1c-2.1,0.6,-4.2,1,-6.3,1.2c-1.2,0.1,-2.3,0.2,-3.5,0.3c-1.1,0,-2.2,0,-3.3,0c-1,-0.2,-1.7,-0.8,-2,-1.8c-0.4,-1.1,-1,-1.8,-1.9,-2.4c0,-0.1,0,-0.3,-0.1,-0.4c0,-0.4,-0.1,-0.6,-0.2,-0.7c-0.2,-0.2,-0.2,-0.3,-0.3,-0.5c0,-0.2,0,-0.5,0.1,-1c0.1,-0.5,0.1,-0.9,0,-1.2c-0.1,-1.1,-0.3,-2.2,-0.7,-3.3c-0.4,-1.1,-0.6,-2.2,-0.8,-3.3c0,-0.6,0,-1.3,0,-1.9c0,-0.7,0,-1.3,0,-2c-0.1,-0.8,-0.2,-1.4,-0.4,-2c-0.1,-0.5,-0.2,-1.1,-0.3,-1.8c-0.1,-0.8,0,-1.7,0.3,-2.7c-0.6,-1.4,-1,-3.1,-1.2,-5.2c-0.1,-0.6,-0.1,-1.2,-0.2,-1.9C649,581.2,649,580.6,649,579.9c-0.2,-0.6,-0.3,-1.2,-0.4,-1.8c-0.2,-0.5,-0.3,-1.2,-0.4,-2c-0.1,-1.1,-0.1,-1.9,-0.1,-2.4c0,-3.2,-0.1,-6.5,-0.5,-9.7c-0.3,-3.3,-0.6,-6.4,-0.8,-9.3c-0.2,-0.8,-0.3,-1.5,-0.4,-2.1c-0.1,-0.6,-0.1,-1.3,-0.2,-1.9c-0.2,-1.1,-0.2,-2.2,-0.3,-3.1c0,-1,-0.1,-2,-0.3,-3.2c-0.1,-1.1,-0.3,-2.2,-0.6,-3.3c-0.3,-1.1,-0.6,-2.2,-0.7,-3.3c-0.1,-1.1,-0.2,-2.2,-0.1,-3.2c0.1,-1.1,0,-2.1,-0.1,-3.1c-0.2,-0.6,-0.3,-1.2,-0.4,-1.9c-0.1,-0.6,-0.1,-1.3,-0.2,-2.1c-0.1,-0.6,-0.2,-1.3,-0.3,-1.9c0,-0.7,0,-1.3,0,-1.9c-0.2,-0.5,-0.3,-1.2,-0.4,-2.2c-0.1,-0.9,-0.2,-1.9,-0.2,-2.9c0,-0.9,0,-1.8,-0.1,-2.6c-0.1,-0.8,-0.3,-1.6,-0.7,-2.4c-0.3,-0.7,-0.5,-1.5,-0.6,-2.3c-0.1,-1.1,-0.1,-2.2,0,-3.3c0.1,-1,0.1,-2.1,0,-3.3c0,-0.2,-0.1,-0.4,-0.1,-0.7l-0.2,-0.4c-0.2,-0.6,-0.4,-1.3,-0.4,-1.9c-0.1,-0.7,-0.2,-1.4,-0.3,-2.2c-0.1,-1.1,-0.2,-2.1,-0.3,-3.1c0,-1,0,-1.8,0,-2.6c-0.5,-2.1,-0.9,-4.4,-1.3,-7c-0.4,-2.7,-0.6,-4.7,-0.8,-6.1c-0.1,-0.8,-0.1,-1.6,0,-2.3c0.1,-0.8,0.2,-1.5,0.1,-2.1c-0.1,-0.8,-0.3,-1.5,-0.6,-2c-0.4,-0.5,-0.6,-1.2,-0.7,-2c-0.1,-1.1,-0.1,-2.1,0,-3c0.1,-0.9,0.1,-1.8,-0.1,-2.8c-0.1,-0.4,-0.3,-1.1,-0.4,-1.9C636,463.8,636,463,636,462.1c0.1,-0.9,0,-1.7,-0.1,-2.5c0,-0.7,-0.2,-1.3,-0.6,-1.9c-0.2,-0.3,-0.3,-0.6,-0.5,-0.9c0,-0.2,0,-0.3,0.1,-0.4c0,-0.1,0,-0.2,0,-0.3c0.1,0,0.2,-0.1,0.2,-0.1c0,-0.3,0,-0.6,0,-0.8c0.1,-0.3,0.1,-0.5,0,-0.9c-0.1,-0.9,-0.3,-1.8,-0.6,-2.6c-0.3,-0.7,-0.5,-1.5,-0.6,-2.3c0,-0.2,0,-0.9,0,-2.1c0,-1.2,0.1,-2.2,0.3,-3c-0.4,-0.3,-0.5,-0.8,-0.5,-1.5c0,-0.8,-0.2,-1.4,-0.3,-1.8c1,-0.6,1.8,-1.6,2.4,-3c0.5,-1.3,1.5,-2.5,2.9,-3.5c1.9,1,3.8,1.3,5.8,1.1c1.5,-0.2,3,-0.5,4.6,-1c1.6,-0.5,3.2,-0.8,4.8,-1c1.4,-0.1,2.9,0,4.5,0.3Z" class="g2_1" />
<path d="M840.2,540.4c0,-0.2,0,-0.3,0,-0.5c0,-0.5,0,-0.7,-0.2,-0.7c-0.2,0,-0.6,0.1,-1.1,0.3c-0.5,0.2,-0.7,0.5,-0.8,0.8c0,0.4,0.5,0.5,1.3,0.5c0.4,0,0.7,-0.1,0.8,-0.4m-1.9,-9c0,-0.4,-0.2,-0.7,-0.5,-0.7c-0.4,0,-0.7,0.2,-0.9,0.6c-0.2,0.4,-0.6,0.7,-1.2,0.8c0.1,0.2,0.3,0.3,0.7,0.3c0.5,0,1.2,-0.3,1.9,-1m-3.9,29.8c0.1,-0.2,0.1,-0.5,0.1,-0.7c0,-0.3,-0.2,-0.5,-0.6,-0.5c-0.1,0,-0.2,0,-0.4,0.1c-0.1,0.1,-0.2,0.1,-0.3,0.1c-0.3,0,-0.5,-0.1,-0.6,-0.2c0,0.3,-0.1,0.5,-0.4,0.7c-0.2,0.1,-0.3,0.3,-0.3,0.5c0,0.1,0.1,0.2,0.3,0.2c1,0,1.8,0,2.2,-0.2m-2.2,-8.9c0,-0.4,-0.3,-0.5,-0.7,-0.5c-0.7,0,-1,0.1,-1,0.4c0.3,0.4,0.4,0.5,0.6,0.5c0.2,0,0.4,0,0.5,-0.2c0.2,-0.2,0.3,-0.2,0.6,-0.2m-0.8,-9.7c-0.1,-0.1,-0.3,-0.2,-0.4,-0.2c-0.2,0,-0.4,0.1,-0.5,0.3c-0.2,0.3,-0.4,0.5,-0.6,0.6c0.2,0.2,0.4,0.4,0.5,0.6c0.2,0.3,0.4,0.4,0.6,0.4c0.1,0,0.1,0,0.2,0c0,0.2,0,0.3,0.2,0.3c0,-0.1,0,-0.2,0,-0.3c0,-0.1,0,-0.3,0.2,-0.5c0.1,0.2,0.2,0.3,0.3,0.3c0.2,0,0.2,-0.1,0.1,-0.4c0,-0.2,0,-0.5,0.1,-0.8c-0.1,0,-0.2,0,-0.3,0c-0.3,0,-0.4,-0.1,-0.4,-0.3m-5,13.7c0,-0.1,0,-0.2,0,-0.3c0,0,0,-0.1,0,-0.2c-0.2,0,-0.4,0,-0.5,0c-0.1,0,-0.2,0,-0.2,0c-0.2,0.2,-0.3,0.3,-0.6,0.5c-0.2,0.1,-0.4,0.4,-0.4,0.9c0.6,0,1.2,-0.3,1.7,-0.9m-4.1,9.1c0,-0.2,0,-0.3,0,-0.5c0,-0.3,-0.2,-0.5,-0.6,-0.6c-0.3,-0.1,-0.6,-0.1,-0.9,-0.1c-0.1,0.6,-0.4,0.9,-0.7,0.8c-0.4,-0.1,-0.6,0.2,-0.6,0.9c0.2,0,0.4,0,0.6,0c0.3,0,0.7,0,1.1,0c0.5,0,0.8,-0.2,1.1,-0.5m-5.5,0.7c-0.3,-0.3,-0.6,-0.5,-1.1,-0.5c-0.3,0,-0.6,0,-1,0c0,0.3,-0.1,0.5,-0.3,0.5c-0.3,0,-0.4,0.3,-0.4,0.9c0,0.4,0.2,0.5,0.6,0.5c1.3,0,2,-0.5,2.2,-1.4M780.1,442.5l0,-0.3c0,-0.3,-0.1,-0.4,-0.3,-0.3c-0.2,0.1,-0.4,0,-0.7,-0.1c0,0.5,0.2,0.7,0.6,0.7Zm-12.3,23.4c-0.4,-0.2,-0.8,-0.4,-1.1,-0.8c-0.3,-0.4,-0.8,-0.6,-1.3,-0.6c-0.5,0,-0.8,0.3,-0.8,0.8c0,0.3,0.2,0.7,0.4,1.3c0.2,0.5,0.6,0.8,1.3,0.8c0.2,0,0.6,-0.1,1,-0.2c0.3,-0.1,0.5,-0.3,0.5,-0.6c0,-0.2,0,-0.5,0,-0.7m-1,114.9c0,-0.4,-0.5,-0.5,-1.5,-0.5c-0.3,0,-0.5,0.1,-0.5,0.3c0,0.3,0.1,0.5,0.4,0.7c0,0,0.1,0,0.2,0c0.2,0,0.4,0,0.7,0c0.4,-0.1,0.6,-0.2,0.7,-0.5M762.6,450.9c0,-0.2,0,-0.3,0,-0.5c0,-0.5,-0.2,-0.7,-0.6,-0.7c-0.3,0,-0.5,0.1,-0.5,0.1c-0.1,0.1,-0.3,0.2,-0.5,0.2c-0.3,0,-0.5,-0.1,-0.6,-0.2c-0.3,0.1,-0.4,0.4,-0.4,0.9c0,0.5,0.2,0.7,0.4,0.7c1.1,0,1.8,-0.2,2.2,-0.5m-2.1,112.5c-0.2,-0.2,-0.3,-0.3,-0.4,-0.5c0,-0.1,0,-0.2,-0.1,-0.2c0,0.2,-0.1,0.2,-0.2,0.2c-0.1,0,-0.3,0,-0.4,-0.1c-0.1,0,-0.2,-0.1,-0.4,-0.1c-0.2,0,-0.7,0.2,-1.5,0.4c-0.8,0.3,-1.2,0.6,-1.2,0.9c0.1,0.7,0.4,1,1,1c0.6,-0.1,1.3,-0.2,2,-0.4c0.7,-0.1,1.1,-0.6,1.2,-1.2M757,467.2c0,0,-0.1,0,-0.2,0c-0.2,0,-0.4,-0.1,-0.4,-0.3c0,-0.3,-0.1,-0.4,-0.4,-0.4l-0.2,0c-0.5,-0.3,-0.9,-0.4,-1.2,-0.4c-0.2,0,-0.8,0.1,-1.5,0.3c-0.8,0.2,-1.2,0.4,-1.2,0.8c0,0.8,0.5,1.2,1.4,1.3c1,0.2,1.7,0.5,2.2,0.9c0.4,-0.1,0.8,-0.4,1.2,-0.6c0.4,-0.3,0.6,-0.6,0.6,-0.9c-0.2,0,-0.2,-0.1,-0.3,-0.5c0,0,0,-0.1,0,-0.2m-5.9,82.6c0,-0.5,-0.3,-0.7,-0.8,-0.7c-0.2,0,-0.6,0.1,-1.1,0.2c-0.5,0.1,-0.7,0.2,-0.7,0.4c0.1,0.1,0.3,0.3,0.4,0.4l0.4,0c0.4,0,0.8,0,1.3,0c0.3,-0.1,0.5,-0.1,0.5,-0.3m-1.9,-68.3c-0.5,0.3,-1.4,0.4,-2.5,0.3c-1.2,-0.1,-1.8,0,-1.8,0.3c0,0.4,0.5,0.7,1.4,1.2c0.2,0.1,0.4,0.2,0.8,0.2c0.5,0,1,-0.4,1.5,-1l0.4,0.2c0.2,0,0.2,-0.1,0.2,-0.3c0,-0.2,0,-0.4,0,-0.7c0,-0.1,0,-0.1,0,-0.2m-8.9,-13.6c-0.5,-0.3,-0.9,-0.4,-1.2,-0.4c-0.3,0,-0.8,0.1,-1.4,0.4c-0.6,0.3,-0.9,0.7,-0.8,1.1c0,0.4,0,0.5,0.2,0.5c0.1,0,0.2,-0.1,0.4,-0.2c0,0.3,0.1,0.4,0.4,0.4c0.2,0,0.7,-0.2,1.4,-0.7c0.7,-0.4,1.1,-0.8,1,-1.1m4.6,96.4c-0.1,-0.3,-0.3,-0.4,-0.4,-0.3c-0.2,0,-0.4,-0.1,-0.5,-0.4l-0.4,0c-0.5,0.1,-1,0.1,-1.5,0.1c-0.6,0,-0.9,0.3,-0.8,0.8c0.1,0.3,0.4,0.5,1,0.8c0.6,0.2,1,0.3,1.2,0.3c0.3,-0.1,0.6,-0.2,0.9,-0.4c0.4,-0.3,0.5,-0.5,0.5,-0.7c0,-0.1,0,-0.1,0,-0.2M733.6,500.8c-0.4,-0.5,-0.8,-0.7,-1.4,-0.7c-0.6,0.1,-0.9,0.3,-0.9,0.8c0,0.2,0.1,0.2,0.1,0.2c0.1,0,0.1,0.1,0.1,0.3c0.2,0,0.3,-0.1,0.4,-0.1c0.4,0,0.7,0,1,0c0.4,0,0.6,-0.2,0.7,-0.5m1.7,32.2c0,-0.3,0,-0.5,0,-0.8c-0.1,0.2,-0.3,0.3,-0.5,0.3c-0.3,0,-0.5,0,-0.8,-0.1c-0.3,0,-0.5,-0.1,-0.8,0c-0.2,0,-0.3,0.1,-0.3,0.2c0,0.3,0.1,0.6,0.4,0.7c0.1,0,0.1,0,0.2,0c0.4,0,0.9,0,1.3,-0.1c0.2,0,0.4,-0.1,0.5,-0.2M789.2,422.3c0.8,0,1.7,0,2.6,-0.1c1,-0.1,1.9,-0.2,2.8,-0.2c3.1,0,6.6,0.4,10.4,1.2c3.7,0.7,7.2,1.6,10.3,2.6c1,0.3,1.9,0.7,2.6,1.1c0.6,0.4,1.4,0.8,2.2,1.1c0.9,0.6,1.9,1.1,2.9,1.4c1,0.4,1.9,0.9,2.7,1.5c1.2,0.2,2.2,0.6,2.9,1.2c0.7,0.7,1.4,1.5,2.1,2.3c0.6,0.9,1.3,1.8,2.1,2.5c0.7,0.7,1.6,1.3,2.6,1.6c0.4,0.2,0.8,0.5,1.1,1.1c0.3,0.6,0.8,0.8,1.5,0.9c0.9,0.4,1.7,1.2,2.4,2c0.6,0.9,1.2,1.9,1.7,2.8c1,1.3,2.2,2.5,3.4,3.5c1.3,1,2.1,2.4,2.6,4.1c0.5,0.4,1,0.9,1.6,1.5c0.5,0.7,0.8,1.4,1.1,2.2c0.1,1.3,0.5,2.3,1.3,3.1c0.8,0.7,1.1,1.7,1.1,3c0,0.6,-0.3,1.4,-0.9,2.1c0,0.4,0,0.7,0,1c0,0.5,-0.3,1.1,-0.8,1.8c-0.6,0.7,-1.2,1.4,-1.8,2c-0.7,0.6,-1.4,1.1,-2,1.5c-0.7,0.4,-1.2,0.6,-1.4,0.6c-1.3,0.6,-2.7,1,-4.2,1.2c-1.4,0.2,-2.5,1,-3.1,2.2c-2.3,1.3,-4.2,2.4,-5.8,3.4c-1.7,1,-3.4,1.9,-5.2,2.7c-1.2,1.1,-2.7,2,-4.6,2.7c-1.9,0.8,-3.4,1.1,-4.4,1.1c-0.6,0,-1.5,-0.4,-2.5,-1.3c-1.1,-0.9,-2,-1.9,-3,-2.9c-1,-1.1,-1.9,-2.1,-2.6,-3c-0.8,-1,-1.2,-1.6,-1.2,-1.7c-0.9,-2.1,-2,-3.3,-3.3,-3.5c-1.2,-0.2,-2.7,-0.9,-4.6,-2c-1.3,-0.2,-2.3,-0.6,-3.1,-1.3c-0.8,-0.7,-1.9,-1.1,-3.2,-1.1l-0.9,0c-0.2,-0.4,-0.4,-0.6,-0.8,-0.6c-0.4,0.1,-0.8,0.1,-1.2,-0.1c-0.1,0.5,-0.4,0.7,-0.8,0.5c-0.4,-0.1,-0.7,0,-1,0.3c-0.4,-0.3,-1.1,-0.5,-2.1,-0.5c-0.7,0,-1.2,0.1,-1.5,0.3c-0.3,0.2,-0.8,0.2,-1.5,0.3c-0.9,0,-1.6,-0.2,-2.1,-0.7c-1.2,0.3,-2.2,0.6,-3.2,0.9c-0.9,0.2,-2,0.4,-3.3,0.4c-1,0,-1.9,0.4,-2.6,1.2c-0.7,0.7,-1.4,1.4,-2.2,2.1c-0.1,0,-0.1,0,-0.2,0c-1,1,-2.2,1.8,-3.5,2.4c-1.2,0.6,-2.3,1.5,-3,2.8c-0.2,1.6,-0.8,2.8,-1.8,3.4c-1.1,0.7,-1.8,1.7,-2.3,3c-1.1,2.3,-2.1,4.7,-3.1,7.1c-1,2.4,-1.5,5.3,-1.3,8.5c-0.4,1.1,-0.7,1.8,-1.1,2.1c-0.4,0.2,-0.6,1.1,-0.5,2.7c0.1,2.8,0.1,5.5,0,8.4c0,2.8,0,5.5,0.1,8.3c0,0.8,0.1,1.6,0.2,2.5c0.1,0.9,0.1,1.7,0.2,2.5c0,0.6,-0.1,1.2,-0.3,1.6c-0.1,0.4,-0.2,0.9,-0.2,1.5c0.1,1,0.4,1.9,1,2.8c0.6,0.8,0.9,1.8,0.9,3c0.1,0.9,0,1.7,-0.1,2.4c0.3,0.8,0.6,1.6,1,2.5c0.3,0.8,0.6,1.9,0.7,3.2c0.7,0.6,1.2,1.4,1.5,2.3c0.4,1,0.7,2,1.2,3c0.4,1,0.8,2,1.3,2.8c0.4,0.9,1.1,1.6,2,2c0,0.1,0,0.2,0,0.3c0,0.4,0.1,0.7,0.3,0.8c0.2,0.1,0.3,0.3,0.3,0.6c1.1,1.2,2.3,2.4,3.5,3.5c1.2,1.1,2,2.6,2.5,4.5c3.2,1,6.1,2.4,8.7,4c2.6,1.6,5.7,2.4,9.2,2.3c1,0,1.7,-0.1,2.2,-0.2c0.2,0.1,0.6,0.2,1.1,0.2c1,0,1.8,-0.2,2.6,-0.6c0.8,-0.5,1.8,-0.7,2.9,-0.7c0.4,0,0.8,0,1.2,0c1.4,-0.8,2.7,-1.6,4.1,-2.3c1.3,-0.7,2.6,-1.5,4,-2.3c1.6,-0.5,2.9,-1.4,4,-2.8c1.1,-1.3,2.4,-2.6,3.7,-3.7c1.4,-1.8,2.6,-3.6,3.7,-5.4c1.2,-1.8,1.7,-4,1.8,-6.6c0,-1,-0.3,-1.8,-0.9,-2.5c-0.5,-0.8,-1.2,-1.3,-1.9,-1.6c-0.4,0,-0.7,0,-1,0.1c-0.4,0.1,-0.6,0.1,-0.9,0.1c-1.6,0,-3.2,-0.2,-4.7,-0.5c-1.6,-0.3,-3.1,-0.5,-4.4,-0.4c-1.8,0,-3.3,0.3,-4.6,1.1c-1.3,0.7,-2.6,1.1,-4,1.1c-1.5,0,-3,-0.3,-4.4,-0.8c-1.4,-0.6,-2.8,-0.8,-4,-0.8c-1.8,-0.9,-3,-2.2,-3.7,-3.8c-0.8,-1.6,-1.1,-4,-1.2,-7.2c0,-1.8,0,-3.5,0,-5.2c0,-1.7,0,-3.4,0,-5.1c0,-1,0,-2,-0.1,-2.9c0.2,-0.2,0.2,-0.4,0.2,-0.8c0,-0.4,0,-0.8,0,-1.2c0,-0.1,0,-0.3,0,-0.4c-0.3,-0.7,-0.4,-1.3,-0.4,-2c0,-1.2,0.1,-2.7,0.3,-4.3c0.2,-1.6,0.7,-3.1,1.4,-4.4c0.1,-0.9,0.6,-1.7,1.5,-2.4c0.9,-0.6,1.9,-1.1,2.9,-1.4c1,-0.2,2,-0.4,3,-0.5c0.9,-0.1,1.5,-0.1,1.8,-0.1c3.1,0,6,0.3,8.7,0.9c2.8,0.6,5.8,0.9,9,0.9c0.6,0,1.3,0,2,0c0.7,0,1.4,0,2.2,-0.2c0.5,0,1,0.1,1.5,0.4c0.5,0.2,1,0.3,1.5,0.3c0.4,0,0.9,-0.2,1.6,-0.7c1.9,-0.1,3.8,-0.4,5.7,-0.8c1.8,-0.3,3.6,-0.5,5.4,-0.5c1.1,0,2,0.2,2.8,0.5c0.8,0.4,1.8,0.5,2.8,0.6c1,-0.3,1.9,-0.7,2.7,-1c0.8,-0.3,1.7,-0.4,2.7,-0.4c0.6,0,1.3,0.1,1.8,0.3c0.6,0.2,1.2,0.3,1.8,0.3c0.4,0,0.8,0,1.3,-0.1c0.4,-0.1,0.9,-0.1,1.4,-0.1c0.7,0,1.3,0.1,1.9,0.2c0.5,0.1,1.1,0.1,1.8,0.2c0.2,0,0.5,0,0.8,0c0.1,0.5,0.4,0.7,1,0.7c0.6,0.1,1.2,0.1,1.9,0.2c0.7,0.1,1.4,0.3,2.1,0.6c0.7,0.2,1.2,0.8,1.6,1.6c0.4,3,0.7,5.6,0.9,7.7c0.1,2.1,0.2,4.4,0.1,6.8c-0.1,2.5,-0.4,4.8,-1,6.7c-0.4,0.4,-0.6,0.8,-0.6,1.2c0,0.6,0.1,1.4,0.3,2.2c0.2,0.9,0.3,1.8,0.3,2.6c0,0.9,-0.3,1.8,-0.8,2.6c-0.4,0.8,-0.7,1.7,-0.7,2.6c0.1,0.5,0.1,1.2,0.1,2.2c0,1.4,-0.3,3.2,-0.8,5.4c-0.5,2.1,-1.1,3.9,-1.8,5.4c0,1.7,-0.5,3.2,-1.3,4.4c-0.9,1.1,-1.5,2.6,-1.7,4.4c-0.4,1.7,-0.7,3.2,-1,4.5c-0.4,1.3,-1.1,2.4,-2.2,3.3c-0.5,1,-0.9,2.3,-1,4.1c-0.1,1.7,-0.7,2.6,-2,2.6c-0.1,0.5,-0.3,0.9,-0.5,1.3c-0.3,0.4,-0.4,0.9,-0.4,1.5c-0.2,1,-0.5,1.8,-0.9,2.3c-0.5,0.6,-0.9,1.1,-1.4,1.7c-0.5,0.5,-1,1.1,-1.5,1.6c-0.5,0.6,-0.8,1.3,-1,2.3c-1.1,0.7,-1.9,1.9,-2.5,3.4c-0.6,1.5,-1.4,2.7,-2.3,3.7c-1.5,0.6,-2.7,1.4,-3.7,2.3c-1,1,-1.9,2,-2.9,3c-1,1,-2,2,-3.1,3c-1.1,0.9,-2.3,1.6,-3.8,2.1c-1.3,0.5,-2.5,1.2,-3.7,2.1c-1.1,1,-2.3,1.8,-3.6,2.4c-1.7,0.8,-3.5,1.4,-5.4,1.9c-1.9,0.5,-3.8,0.9,-5.7,1.2c-0.6,0.7,-1.6,1,-3,1c-0.2,0,-0.5,0,-0.8,-0.1C802,608,801.7,608,801.5,608c-0.7,0,-1.3,0.1,-1.9,0.5c-0.5,0.3,-1.1,0.5,-1.8,0.5c-1,0,-1.6,-0.2,-2,-0.7c-1.1,0.6,-2.5,1,-4.3,1.1c-1.9,0.1,-3.2,0.2,-4,0.2c-0.9,0,-1.3,-0.4,-1.5,-1.2c-1.6,0.1,-3.2,-0.1,-4.7,-0.4c-1.5,-0.3,-3.1,-0.4,-4.7,-0.3c-0.6,-0.8,-1.6,-1.1,-2.8,-0.8c-1.2,0.3,-2.2,0.1,-2.8,-0.5c-1,-0.5,-2,-0.8,-3,-1c-1.1,-0.2,-2.2,-0.4,-3.3,-0.6c-1.1,-0.2,-2,-0.6,-2.9,-1c-0.8,-0.5,-1.4,-1.1,-1.8,-1.9c-0.9,-0.1,-1.6,-0.3,-2.2,-0.7c-0.6,-0.4,-1.3,-0.7,-2,-1c-2.2,-0.4,-3.9,-1.5,-5,-3.4c-0.7,-0.3,-1.5,-0.6,-2.2,-1c-0.8,-0.4,-1.4,-0.9,-2.1,-1.5c-0.3,-1.1,-0.7,-2.1,-1.4,-2.9c-0.6,-0.9,-1.3,-1.7,-2.2,-2.6c-0.8,-0.8,-1.6,-1.6,-2.4,-2.2c-0.9,-0.7,-1.5,-1.4,-2,-2c-0.3,-1.1,-0.8,-2,-1.6,-2.7c-0.7,-0.7,-1.4,-1.3,-2.1,-1.8c-0.8,-0.5,-1.5,-1.1,-2.2,-1.9c-0.6,-0.8,-1,-1.8,-1.2,-3.1c-0.3,-1.2,-0.9,-2.3,-1.7,-3c-0.7,-0.8,-1.5,-1.5,-2.1,-2.3c-0.5,-1.7,-1,-3.3,-1.6,-4.6c-0.6,-1.3,-1.1,-2.5,-1.7,-3.6c-0.6,-1.1,-1.1,-2.2,-1.7,-3.3c-0.5,-1.1,-1,-2.4,-1.3,-3.8c-0.4,-2.7,-1,-4.7,-1.6,-6.1C719,547,718.5,544.9,718,542.2c-0.2,-1.3,-0.5,-2.5,-0.9,-3.6c-0.5,-1.1,-0.8,-2.5,-0.9,-4.2c-0.5,-2.1,-0.9,-4.3,-1.2,-6.6c-0.3,-2.3,-0.5,-4.7,-0.7,-7.3c0.4,-0.2,0.5,-0.5,0.4,-1c-0.2,-0.5,-0.1,-0.9,0.3,-1.2c-0.2,-1.1,-0.5,-2.2,-0.7,-3.1c-0.3,-1,-0.4,-2,-0.5,-3.1c-0.3,-3.4,-0.1,-7,0.5,-11c0.6,-4,0.9,-7.7,0.9,-11c0.1,-1.3,0.4,-2.4,1.1,-3.3c0.6,-0.8,0.9,-1.9,0.8,-3.1c0,-2.3,0.3,-4.2,0.7,-5.8c0.5,-1.5,1.3,-3,2.2,-4.3c0,-0.1,0,-0.2,0,-0.2c0,-0.4,0.1,-0.5,0.3,-0.4c0.2,0,0.3,-0.1,0.3,-0.4c1.6,-6.7,4.1,-12.6,7.4,-17.6c1.4,-1.3,2.6,-2.5,3.6,-3.5c1,-1,1.8,-2.6,2.4,-4.7c0.6,-0.5,1.2,-1.1,1.9,-1.7c0.6,-0.6,1.2,-1.2,1.9,-1.9c1.2,-0.4,2,-1.2,2.6,-2.4c0.5,-1.2,1.4,-2,2.6,-2.4c1.2,-0.9,2.4,-1.9,3.5,-3.2c1.1,-1.2,2.3,-1.9,3.7,-1.9c1.4,-0.6,2.7,-1.3,3.8,-2.2c1.1,-0.9,2.7,-1.8,4.6,-2.7c1.5,-0.1,2.7,-0.4,3.5,-1.1c0.9,-0.7,2,-1.2,3.5,-1.5c1.9,-0.4,3.9,-0.8,5.9,-1.2c2.1,-0.3,4,-1.1,5.6,-2.3c0.4,-0.1,1,-0.2,2,-0.3c1.3,0,2.6,0.2,3.7,0.6c1.2,0.4,2.3,0.5,3.4,0.5c0.9,0,1.9,-0.3,3,-0.8Z" class="g2_1" />
<path d="M1012.2,492.3c0.1,-0.5,-0.2,-0.8,-0.9,-0.8c-0.5,-0.1,-0.8,0.1,-0.8,0.6c-0.1,0.1,0,0.2,0,0.2c0.1,0,0.1,0.1,0.1,0.3c0,0,0.1,0,0.2,0c0.2,0,0.5,0.1,0.8,0.1c0.2,0,0.4,-0.1,0.6,-0.4m-9.7,71.5c0,-0.4,-0.1,-0.7,-0.5,-0.8c-0.2,0,-0.5,0,-0.7,0.1c-0.1,0,-0.4,0,-0.6,0c-0.1,1,0,1.5,0.5,1.5c0.3,0.1,0.5,-0.1,0.7,-0.4c0.1,-0.3,0.3,-0.4,0.6,-0.4m-1.6,-24.9c0.4,-0.2,0.6,-0.4,0.7,-0.7c0,-0.3,-0.1,-0.5,-0.3,-0.5c-0.4,-0.1,-0.6,0.2,-0.7,0.6c0,0.4,0,0.5,0.1,0.5c0.1,0,0.1,0,0.2,0.1m3.9,-22.3c-0.1,-0.7,-0.5,-1.1,-1.2,-1.2c-0.4,0,-0.8,0.2,-1.2,0.6c0.3,0.4,0.6,0.6,0.9,0.7c0.2,0.1,0.5,0.4,0.8,0.7c0.1,-0.4,0.2,-0.6,0.4,-0.4c0.1,0.2,0.3,0.1,0.3,-0.2c0,-0.1,0,-0.2,0,-0.2m-11.2,60.6c0,-0.3,-0.1,-0.5,-0.5,-0.5c-0.1,0,-0.3,0.1,-0.4,0.2c0,0.1,0.3,0.2,0.9,0.3m2.9,-9.1c-0.2,-0.3,-0.4,-0.7,-0.6,-1c-0.2,-0.4,-0.5,-0.6,-0.9,-0.6c-0.2,-0.1,-0.5,0,-0.7,0c-0.3,0,-0.5,0.2,-0.5,0.5c0,0.4,0.1,0.8,0.5,1.2c0.4,0.5,0.8,0.7,1.3,0.8c0.5,0,0.8,-0.2,0.9,-0.9M1008,485.7c-0.5,-0.4,-0.8,-0.6,-1,-0.6c-0.3,-0.1,-0.9,0.1,-1.6,0.5c-0.7,0.4,-1.1,0.8,-1.2,1.3c0,0.3,0.1,0.5,0.4,0.5c0.6,-0.1,1.3,-0.2,1.9,-0.2c0.6,-0.1,1.1,-0.6,1.5,-1.5m-10.3,66.1c-0.2,-0.5,-0.5,-0.8,-0.9,-0.9c-0.9,-0.1,-1.6,0.1,-1.9,0.5c-0.3,0.5,-0.4,0.5,-0.4,0.2c0,0.3,0.1,0.6,0.6,0.7c0.4,0.1,0.8,0.2,1.2,0.3c0.7,0.1,1.2,-0.2,1.4,-0.8m5.2,-50.1c-0.2,-0.5,-0.4,-0.7,-0.7,-0.8c-0.2,0,-0.5,0.1,-0.8,0.3c-0.3,0.2,-0.6,0.4,-0.8,0.5c0.1,0,0.2,0,0.3,0c0.5,0.1,0.9,0.1,1.4,0.2c0.4,0.1,0.6,0,0.6,-0.2M1001,510c-0.2,0,-0.4,-0.1,-0.6,-0.2c-0.2,-0.1,-0.4,-0.2,-0.7,-0.2c-0.5,-0.1,-0.8,0,-0.8,0.4c0,0.3,-0.1,0.6,-0.1,0.9c0,0.1,0,0.2,0,0.3c0.1,0,0.2,0,0.3,0c0.3,0,0.5,0.1,0.7,0.2c0.2,0.1,0.4,0.2,0.6,0.2c0.4,0.1,0.6,-0.2,0.7,-0.6c0,-0.2,0,-0.3,0,-0.4c-0.1,-0.1,-0.1,-0.3,-0.1,-0.6m-3.9,33.2c0.1,-0.6,0,-1,-0.3,-1c0,0,-0.1,0,-0.1,0c-0.1,-0.2,-0.2,-0.4,-0.2,-0.5c-1.8,-0.3,-3.3,0.6,-4.3,2.6c0.8,-0.2,1.6,-0.3,2.5,-0.2c0.9,0.1,1.7,-0.2,2.4,-0.9m-8.2,29c0,-0.2,0,-0.4,0,-0.7c0.1,-0.3,-0.1,-0.5,-0.4,-0.5c-0.3,-0.1,-0.5,-0.1,-0.8,-0.1c0,0,-0.1,0,-0.2,0c-0.2,0.2,-0.4,0.7,-0.5,1.3c0.1,0.1,0.2,0.1,0.4,0.1c0.3,0,0.6,0.1,0.9,0.1c0.2,0,0.4,0,0.6,-0.2m11.7,-90.9c-0.3,-0.8,-0.8,-1.3,-1.6,-1.4c-0.3,0.1,-0.4,0.3,-0.5,0.7c0,0.4,0.1,0.7,0.3,0.7c0.1,0,0.2,0,0.2,0.1c0.4,0,0.8,0.1,1.2,0.1c0.2,0,0.4,0,0.4,-0.2M998.4,530c-0.5,-0.7,-1.2,-1.1,-2.1,-1.2c-0.5,-0.1,-1.2,-0.1,-2,0c-0.9,0,-1.7,0.2,-2.5,0.4c-0.8,0.2,-1.4,0.5,-2,0.7c-0.5,0.3,-0.8,0.6,-0.8,0.9c-0.1,0.6,-0.1,1.2,0.1,1.8c0.2,0.6,0.4,1.2,0.5,1.9c1,-1.3,2.4,-1.9,4.3,-1.7c0.3,0.1,0.6,0.1,0.9,0.2c0.7,-0.4,1.4,-0.7,2.2,-0.8c0.8,-0.2,1.3,-0.9,1.4,-2.2m-3.8,-10.4c-0.5,-0.1,-1,-0.2,-1.5,-0.5c-0.5,-0.4,-1,-0.7,-1.6,-1.1c-0.3,0.4,-0.7,0.8,-1.1,1c-0.4,0.1,-0.6,0.6,-0.7,1.4c-0.2,1.2,0.6,1.9,2.4,2.4c1.7,0.5,3.1,0.8,4.3,0.9c0.2,0,0.8,0,1.6,0c0.8,-0.1,1.3,-0.3,1.3,-0.6c0.1,-0.8,-0.2,-1.6,-1,-2.4c-0.8,-0.9,-1.5,-1.3,-2.1,-1.4c-0.3,0,-0.8,0.1,-1.6,0.3m0,-14.1c-0.1,-0.3,-0.2,-0.5,-0.3,-0.5c-1,-0.1,-2,-0.1,-2.8,0.2c-0.8,0.2,-1.7,0.6,-2.6,1.1c0,0.1,0,0.4,0.3,0.7c0.6,-0.2,1.4,-0.4,2.4,-0.6c0.9,-0.2,1.6,-0.3,2.1,-0.2c0.2,0,0.4,0,0.6,0c0.2,-0.1,0.3,-0.3,0.3,-0.4c0,-0.1,0,-0.2,0,-0.3m-7.2,19.3c-0.2,-0.7,-1,-1.1,-2.3,-1.3c-0.5,0.6,-0.8,1.5,-1,2.8c0,0.5,0.2,0.8,0.7,0.8c0.3,0.1,0.6,0.1,1,0.1l0.3,0.1c0.2,-0.3,0.4,-0.5,0.8,-0.7c0.3,-0.1,0.5,-0.4,0.6,-0.9c0,-0.1,0,-0.2,-0.1,-0.3c0,-0.1,0,-0.3,0,-0.6m-5.8,6.5c-0.2,-0.5,-0.4,-0.7,-0.6,-0.8c-0.1,0,-0.2,0,-0.2,0c-0.1,0.8,-0.1,1.4,0,1.7c0.5,0.1,0.7,-0.1,0.8,-0.4c0,-0.1,0,-0.3,0,-0.5m1.6,-13.6c-0.2,-0.5,-0.4,-0.8,-0.6,-0.8c-0.2,0,-0.3,0.1,-0.6,0.4c-0.2,0.3,-0.3,0.6,-0.3,0.7c0.2,0.2,0.3,0.4,0.4,0.6c0,0.1,0.2,0.2,0.4,0.3c0.4,0,0.6,-0.2,0.7,-0.7c0,-0.2,0,-0.3,0,-0.5m-58.4,16.5c-0.3,-0.2,-0.6,-0.3,-0.9,-0.3c-0.7,-0.1,-1.3,-0.1,-1.9,-0.2c-0.2,0,-0.4,0,-0.6,0c-0.1,0.3,-0.3,0.5,-0.6,0.4c-0.2,0,-0.4,0.2,-0.4,0.7c0,0.5,0.2,0.9,0.9,1.2c0.6,0.3,1,0.4,1.2,0.4c0.4,0.1,0.9,0,1.6,-0.2c0.6,-0.2,1,-0.6,1,-1.3c0,-0.1,-0.1,-0.4,-0.3,-0.7M930,504.7c-0.2,0,-0.4,0,-0.6,-0.1c-1,0,-1.6,-0.5,-1.7,-1.3c-0.1,-0.8,-0.9,-1.3,-2.3,-1.4c-1.7,-0.1,-2.5,0.3,-2.6,1.3c0.5,0.8,1.3,1.3,2.6,1.4c0.4,0,0.9,0,1.3,0.1c1.7,0.1,2.6,0.8,2.8,2.1c0.1,0,0.2,0,0.3,0c0.4,0.1,0.7,0.1,1,0.1c0.2,0,0.4,0,0.6,-0.2c-0.2,-0.3,-0.4,-0.7,-0.6,-1.2c-0.1,-0.5,-0.4,-0.8,-0.8,-0.8M924.5,519c-0.4,-0.9,-1,-1.3,-2,-1.4c-0.3,0,-0.5,0.1,-0.8,0.3c-0.3,0.2,-0.4,0.5,-0.5,0.8c0,0.3,0.1,0.6,0.3,0.8c0.1,0.1,0.3,0.4,0.4,0.7c1.3,0.1,2.1,-0.3,2.6,-1.2m-0.3,7.7c-0.7,-0.1,-1.4,-0.3,-2.1,-0.6c-0.7,-0.2,-1.3,-0.4,-2,-0.5c-0.3,0,-0.9,0.2,-1.5,0.5c-0.7,0.4,-1,1,-1.1,1.8c0,0.4,0.2,0.7,0.7,0.7c1,0.1,2,-0.1,3,-0.7c1,-0.6,2,-1,3,-1.2m-7.6,13.4c0,-0.3,0,-0.5,-0.1,-0.5c-0.2,0,-0.3,0,-0.4,0c0,0.3,0.1,0.5,0.5,0.5m3.5,-42.7c0,-0.5,-0.4,-0.7,-0.9,-0.7c-0.5,0.1,-0.9,0,-1.1,-0.2c0,0.4,-0.3,0.5,-0.8,0.5c-0.1,0.3,0,0.5,0.1,0.6c0.1,0.1,0.2,0.3,0.2,0.6c0.1,0,0.2,0,0.4,0c0.3,0,0.6,0.1,0.9,0.1c0.8,0,1.2,-0.3,1.2,-0.9m-7.2,59.8c-0.2,-0.3,-0.5,-0.5,-0.8,-0.5c-0.1,0.2,-0.1,0.4,-0.1,0.7c0,0.1,0,0.3,0,0.5c0.1,0,0.2,-0.1,0.4,-0.3c0.3,0.1,0.5,-0.1,0.5,-0.4m7.2,-48.7c-0.9,-0.4,-1.6,-1,-2.1,-1.7c-0.5,-0.8,-1.2,-1.3,-1.9,-1.5c-0.2,0.3,-0.3,0.5,-0.3,0.5c-0.1,0,-0.1,0.1,-0.2,0.4c0,0.4,0.2,0.8,0.7,1.4c0.5,0.6,1,1.2,1.6,1.8c0.6,0.6,1.2,1.2,1.7,1.6c0.6,0.4,0.9,0.7,1,0.7c0.4,0,0.8,0,1.1,-0.2c0.3,-0.1,0.7,-0.2,1.1,-0.1c0.7,0,1.4,0.3,1.9,0.8c0.5,0.6,1,1.1,1.3,1.6c0.1,0,0.1,0,0.2,0c0.2,0,0.4,0,0.6,0c0.4,0.1,0.6,-0.1,0.8,-0.4c-0.3,-0.3,-0.4,-0.7,-0.6,-1.1c-0.2,-0.4,-0.4,-0.6,-0.8,-0.7c-0.3,0.2,-0.7,0.2,-1.2,0.2c-1,-0.1,-1.9,-0.6,-2.6,-1.4c-0.7,-0.9,-1.4,-1.5,-2.3,-1.9m-4,21.2c-0.1,-0.4,-0.3,-0.5,-0.4,-0.5c-0.2,0,-0.6,0.1,-1.2,0.5c-0.5,0.4,-0.8,0.6,-0.8,0.8c0,0.6,0.2,1,0.7,1c0.3,0,0.6,-0.1,1,-0.3c0.4,-0.2,0.6,-0.7,0.7,-1.5m-1,36.1c-0.2,-0.3,-0.6,-0.5,-1.1,-0.6c-0.4,0,-0.8,0,-1.3,-0.1c-0.1,0,-0.2,0,-0.3,0c0,0.3,-0.2,0.5,-0.4,0.5l-0.4,-0.1c-0.3,0.3,-0.6,0.5,-0.9,0.5c-0.3,-0.1,-0.4,0.3,-0.5,0.9c0,0.6,0.3,1,0.9,1c0.3,0,0.7,0,1.1,-0.1c0.4,-0.2,0.7,-0.2,1.1,-0.2c0.2,0,0.4,0,0.6,0c0.1,-0.3,0.4,-0.5,0.7,-0.5c0.4,-0.1,0.6,-0.3,0.6,-0.8c-0.1,-0.2,-0.1,-0.3,-0.1,-0.5m7.4,-95c-0.2,-0.7,-0.7,-1.1,-1.4,-1.3c-0.7,-0.2,-1.2,-0.3,-1.6,-0.4c-0.4,0,-0.8,0.1,-1,0.2c-0.3,0.1,-0.6,0.2,-1,0.2c-0.3,-0.1,-0.5,-0.1,-0.6,-0.3c-0.1,0.8,0.4,1.4,1.3,1.9c1,0.5,1.3,0.7,1.1,0.7c0.2,0,0.4,0,0.6,0c0.2,0,0.4,0.1,0.4,0.3c0.1,0.2,0.2,0.2,0.5,0.3c0.1,0,0.2,-0.1,0.2,-0.3c0,-0.1,0.1,-0.2,0.2,-0.2c0.2,0,0.3,0.1,0.3,0.2c0.1,0,0.2,0.1,0.3,0.1c0.2,-0.3,0.3,-0.5,0.4,-0.6c0.2,0,0.3,-0.2,0.3,-0.6c0,0,0,-0.1,0,-0.2M913,522c-0.1,-0.1,-0.1,-0.2,-0.2,-0.3c-0.4,0,-0.6,0.1,-0.6,0.5c0.5,0,0.8,-0.1,0.8,-0.2m-5.1,29.8c-0.5,-0.9,-1.3,-1.3,-2.3,-1.4c0,0.3,-0.1,0.5,-0.3,0.5c-0.2,0,-0.3,0,-0.3,0.2c0,0.3,0.2,0.6,0.6,0.8c0.4,0.2,0.7,0.3,0.8,0.3c0.3,0,0.5,0,0.7,-0.1c0.2,-0.1,0.4,-0.2,0.8,-0.3M909.8,535c-0.3,-0.6,-0.9,-1,-1.8,-1.1c-0.6,0,-1.2,0.1,-1.6,0.3c-0.5,0.2,-0.7,0.5,-0.7,0.8c0,0.5,0.4,0.8,1.2,0.9c0.9,0.2,1.6,0.2,2.1,0.3c0.1,-0.2,0.3,-0.3,0.5,-0.4c0.2,0,0.3,-0.2,0.3,-0.5c0,-0.1,0,-0.2,0,-0.3m0.7,-9.3c-0.5,-0.7,-1,-1.1,-1.7,-1.1c-0.2,0,-0.7,0,-1.4,0.1c-0.7,0.1,-1.1,0.3,-1.1,0.4c0,0.8,0.2,1.3,0.6,1.3c0.4,0,0.8,0.2,1,0.5c1.4,0.1,2.2,-0.3,2.6,-1.2m1.7,-24.8c-0.5,-0.8,-1,-1.2,-1.7,-1.3c-0.4,0,-0.9,0,-1.5,0.2c-0.7,0.1,-1,0.5,-1.1,1.1c0.3,0.2,0.4,0.3,0.3,0.5c-0.1,0.1,0,0.2,0.3,0.3c0.1,0,0.2,0,0.3,0c0.3,0.2,0.7,0.3,1.4,0.3c0.9,0.1,1.5,-0.3,2,-1.1m0.1,9.7c0,-0.6,-0.3,-1.1,-0.9,-1.3c-0.6,-0.2,-1.1,-0.3,-1.5,-0.3c-0.5,-0.1,-1.1,0,-1.8,0.1c-0.6,0.1,-0.9,0.6,-1,1.4c0,0.3,0,0.5,0.2,0.5c0,-0.2,0,-0.3,0.2,-0.2c0.4,0.6,0.9,1,1.4,1c0.7,0.1,1.2,-0.1,1.8,-0.4c0.5,-0.2,1,-0.5,1.6,-0.8m1.2,-26.5c0,-0.1,-0.1,-0.3,-0.2,-0.4c0.1,-0.1,0.1,-0.2,0.1,-0.3c-0.3,0.2,-0.8,0.2,-1.6,0.1c-0.8,0,-1.6,-0.1,-2.3,-0.1c-0.7,0,-1,0.1,-1,0.4c-0.1,0.5,0.2,0.9,0.7,1.1c0.5,0.3,0.8,0.5,1.1,0.5c1.7,0.1,2.8,-0.3,3.2,-1.3m-14.6,81.6c-0.4,-0.4,-0.7,-0.6,-0.9,-0.8c-0.2,-0.2,-0.5,-0.3,-0.9,-0.3c-0.5,0,-0.7,0.1,-0.8,0.4c0,0.2,0.2,0.3,0.6,0.4c0.3,0.1,0.5,0.3,0.5,0.6c0,0.1,0.1,0.1,0.2,0.1c0.2,0,0.5,0,0.7,0c0.2,0,0.4,-0.1,0.6,-0.4m6.2,-96.1c0,-0.5,-0.3,-0.7,-0.8,-0.8c-0.5,0,-1,0.1,-1.5,0.2c-0.4,0.1,-0.7,0.3,-0.7,0.7c0,0.3,0.2,0.5,0.8,0.5c0.7,0,1.5,-0.2,2.2,-0.6m12.8,-40.1c0.7,-0.2,1.5,-0.2,2.6,-0.1c1.8,0.1,3.4,0.4,4.9,1c1.5,0.5,3.1,0.8,4.7,0.9c0.9,0.1,1.9,0,2.9,-0.4c1.1,-0.3,2.1,-0.4,3,-0.3c1.8,0.1,3.1,1.3,4,3.6c0.9,2.2,1.2,4.5,1,6.7c-0.1,0.8,-0.3,1.6,-0.6,2.4c-0.3,0.7,-0.5,1.5,-0.6,2.3c-0.1,1.3,-0.1,2.4,0.1,3.3c0.2,0.9,0.3,1.9,0.2,3c-0.1,0.8,-0.3,1.6,-0.6,2.3c-0.3,0.7,-0.5,1.4,-0.6,2.2c-0.1,0.8,0,1.6,0.1,2.3c0.1,0.7,0.2,1.5,0.1,2.3c-0.1,0.8,-0.2,1.5,-0.5,2c-0.2,0.6,-0.4,1.2,-0.4,1.8c-0.1,0.8,-0.1,1.6,0,2.4c0,0.8,0,1.6,0,2.4c-0.1,0.8,-0.3,1.5,-0.6,2c-0.3,0.6,-0.5,1.2,-0.5,2c-0.1,1.2,0,2.3,0.3,3.3c0.3,1.1,0.4,2.2,0.3,3.3c-0.1,0.8,-0.3,1.8,-0.6,2.9c-0.2,1.1,-0.5,2.2,-0.8,3.4c-0.3,1.2,-0.6,2.2,-0.9,3.2c-0.3,0.9,-0.4,1.6,-0.5,2.1c-0.2,2.4,0.7,4.3,2.6,5.8c1.8,1.4,3.9,2.2,6,2.4c1.2,0.2,2.4,0.1,3.6,-0.1c1.1,-0.2,2.2,-0.3,3.3,-0.2c1.6,0.2,3.2,0.5,4.6,1.1c1.4,0.5,2.9,0.9,4.5,1c1.1,0.1,2.3,0,3.6,-0.5c1.3,-0.4,2.7,-0.5,4.2,-0.4c1.4,0.2,2.9,0.4,4.3,0.9c1.5,0.3,2.9,0.7,4.3,1c1.3,-0.3,2.7,-0.7,4.1,-1.1c1.4,-0.4,2.3,-1.6,2.8,-3.6c0.2,-1.6,0.4,-3.1,0.6,-4.6c0.2,-2.1,0.4,-3.5,0.7,-4.3c-0.4,-0.6,-0.5,-1.4,-0.5,-2.3c-0.1,-0.9,0,-1.8,0.1,-2.8c0.1,-0.8,0.2,-1.5,0.3,-2.1c0.2,-0.7,0.3,-1.3,0.3,-1.9c0.2,-1.3,0.2,-2.2,0.2,-2.7c0.3,-0.3,0.4,-0.8,0.5,-1.5c0.1,-0.7,0.2,-1.2,0.2,-1.6c0.2,-1.2,0.2,-2.5,0,-3.7c-0.1,-1.2,-0.1,-2.4,0.1,-3.5c0.1,-1.1,0.5,-2.2,1.1,-3.3c0,-0.8,-0.1,-1.5,-0.2,-2.2c-0.1,-0.6,-0.2,-1.4,-0.1,-2.2c0.1,-0.6,0.3,-1.3,0.6,-2c0.3,-0.7,0.5,-1.5,0.8,-2.4l-0.2,-0.3c-0.1,-0.5,-0.1,-1.2,0,-2.2c0.2,-1.1,0.4,-2.1,0.6,-3c0.2,-1,0.4,-2,0.6,-3.1c0,-0.8,0,-1.6,-0.1,-2.3c-0.1,-0.8,-0.1,-1.5,0,-2.3c0.2,-1.6,0.9,-2.8,2.1,-3.4c1.2,-0.7,2.7,-1.1,4.3,-1.2c1.7,-0.1,3.3,-0.1,4.9,0.1c1.6,0.2,2.9,0.4,3.8,0.5c3.1,0.4,6.2,0.8,9.4,1.4c3.2,0.6,6.4,1.1,9.6,1.6c0.8,0.1,1.6,0.1,2.4,0.2c0.8,0,1.7,0.1,2.6,0.2c0.6,0.4,1.2,0.9,1.6,1.5c0.5,0.4,1,0.8,1.4,1.1c0.4,0.4,0.8,0.7,1.2,0.9c0,0.3,-0.1,0.5,-0.1,0.8c0,0.3,0,0.4,0.1,0.5c0,2.9,-0.3,6.1,-0.8,9.6c-0.1,1.2,-0.4,2.5,-0.6,3.6c-0.2,1.2,-0.4,2.5,-0.6,3.7c-0.2,1,-0.3,1.9,-0.3,2.9c-0.1,1,-0.2,1.8,-0.3,2.6c-0.1,0.5,-0.2,0.9,-0.4,1.2c-0.2,0.3,-0.3,0.7,-0.4,1.2c-0.1,0.9,-0.2,2.1,-0.2,3.6c0,1.4,-0.1,2.9,-0.3,4.3c-0.4,2.7,-0.9,4.8,-1.5,6.3c0.2,1.1,0.2,2.3,0,3.7c-0.1,0.8,-0.3,1.5,-0.5,2.1c-0.2,0.6,-0.4,1.3,-0.5,2.1c-0.1,0.7,0,1.4,0.3,2.3c0.3,0.8,0.3,1.9,0.1,3.4c-0.1,0.8,-0.3,1.5,-0.4,2.1c-0.2,0.6,-0.3,1.2,-0.4,1.7c-0.1,0.8,-0.2,1.6,-0.2,2.4c-0.1,0.8,-0.1,1.6,-0.3,2.3c-0.1,0.8,-0.2,1.6,-0.4,2.3c-0.2,0.7,-0.3,1.4,-0.4,2c0.1,0.7,0,1.3,0,1.8c-0.1,0.6,-0.2,1.1,-0.3,1.6c-0.2,1.4,-0.5,2.8,-0.8,4.2c-0.3,1.4,-0.6,2.9,-0.8,4.3c-0.1,0.9,-0.2,1.9,-0.1,2.9c0,1,0,2,-0.2,3.1c-0.2,1.4,-0.5,2.9,-0.9,4.4c-0.4,1.5,-0.8,3.1,-1,4.8c-0.2,1.3,-0.3,2.5,-0.4,3.7c0,1.3,-0.1,2.4,-0.3,3.5c-0.4,2.6,-0.9,5.2,-1.7,8c-0.8,2.8,-1.4,5.6,-1.8,8.3c-0.1,0.8,-0.1,1.4,-0.1,1.9c-0.2,0.5,-0.3,1.3,-0.5,2.4c-0.2,1.1,-0.3,2.1,-0.3,3.1c0,1,-0.1,1.9,-0.2,2.9c-0.2,1.1,-0.5,2.1,-1,3c0.1,0.8,0.1,1.8,0.1,2.8c-0.1,1,-0.2,2,-0.4,3c-0.2,1.6,-0.5,3.1,-0.8,4.5c-0.4,1.4,-0.6,2.9,-0.9,4.5c0.3,1,0.3,2.2,0.1,3.6c-0.2,1.3,-0.5,2.6,-1,3.8c0.1,0.5,0,1.3,-0.1,2.4c-0.2,1.1,-0.4,2,-0.6,2.7c-0.2,0.7,-0.4,1.6,-0.6,2.7c-0.2,1.8,-0.5,3.5,-0.7,5.3c-0.8,5.5,-4.1,7.9,-9.7,7.1c-0.9,-0.1,-1.6,-0.3,-2.2,-0.5c-0.6,-0.3,-1.3,-0.5,-2,-0.6c-1.4,-0.1,-2.8,-0.2,-4.2,0c-1.3,0.1,-2.7,0.1,-4.3,-0.1c-0.4,-0.1,-0.9,-0.2,-1.3,-0.5c-0.5,-0.3,-0.8,-0.5,-1.1,-0.5c-1.4,0.3,-3.1,0.2,-4.9,-0.2c-1.8,-0.4,-3.4,-0.5,-4.7,-0.3c-1.2,-1,-2.3,-2.1,-3.3,-3.4c-1,-1.4,-1.4,-3.1,-1.3,-5.1c0.1,-0.2,0.2,-0.5,0.3,-1c0,-0.3,0.1,-0.6,0.1,-0.9c0,-0.3,0.1,-0.6,0.2,-0.9c0.1,-0.2,0.1,-0.5,0.2,-0.8c0.1,-1.1,0.2,-2.2,0.2,-3.2c0,-1.1,0,-2.1,0.1,-3c0.2,-1.3,0.5,-2.6,1,-3.8l-0.1,-0.3c-0.1,-0.5,-0.1,-1.3,0.1,-2.4c0.1,-0.9,0.2,-1.9,0.5,-2.8c0.2,-1,0.4,-1.9,0.5,-2.9c0.1,-0.8,0.1,-1.5,0,-2.3c-0.1,-0.7,-0.1,-1.5,0,-2.3c0.1,-1.1,0.3,-2.1,0.7,-3c0.4,-1,0.6,-1.9,0.7,-2.9c0.1,-0.8,0.1,-1.5,-0.1,-2.3c-0.2,-0.7,-0.2,-1.5,-0.1,-2.3c0.1,-0.8,0.2,-1.6,0.5,-2.4c0.2,-0.7,0.3,-1.6,0.4,-2.6c0.1,-0.3,0.1,-0.6,0.1,-1.1c0,-0.4,0,-0.7,0,-1c0.7,-0.9,1.2,-2.3,1.4,-4.2c0.2,-1.3,0.3,-2.6,0.3,-3.9c0,-1.3,0.1,-2.5,0.3,-3.8c0,-0.6,0.1,-1.1,0.1,-1.7c-0.4,-1.5,-1.1,-2.8,-2,-4c-1,-1.1,-2.3,-1.8,-3.9,-2c-1.2,-0.1,-2.4,-0.1,-3.5,0.2c-1.1,0.3,-2.3,0.4,-3.5,0.2c-1.1,-0.1,-2.5,-0.2,-4,-0.4c-1.6,-0.1,-3.1,-0.4,-4.5,-0.7c-1.4,-0.3,-2.7,-0.6,-3.7,-1c-1.1,-0.3,-1.9,-0.7,-2.2,-1c-0.5,0.1,-1,0.3,-1.4,0.7c-0.4,0.4,-0.9,0.6,-1.4,0.7c-2.1,-0.3,-4.3,-0.8,-6.5,-1.2c-2.2,-0.4,-4.4,-0.7,-6.5,-0.9c-0.1,0,-0.4,0.3,-0.8,1.1c-0.5,0.8,-0.9,1.6,-1.4,2.5c-0.4,1,-0.8,1.8,-1.1,2.6c-0.3,0.8,-0.5,1.3,-0.5,1.4c-0.1,0.7,0,1.4,0.2,2.2c0.1,0.8,0.2,1.6,0.1,2.4c0,0.8,-0.2,1.6,-0.3,2.4c-0.2,0.8,-0.4,1.6,-0.4,2.4c-0.1,0.8,0,1.6,0.2,2.4c0.3,0.9,0.3,1.8,0.3,2.7c-0.1,1,-0.3,1.9,-0.6,2.9c-0.2,0.9,-0.4,1.9,-0.5,2.8c0.2,0.5,0.3,1.3,0.2,2.5c-0.1,0.8,-0.2,1.6,-0.4,2.5c-0.2,0.8,-0.3,1.7,-0.4,2.5c-0.1,0.8,0,1.4,0.1,2c0.1,0.6,0.2,1.2,0.1,1.8c0,1,-0.2,1.9,-0.5,2.9c-0.2,0.9,-0.5,1.8,-0.7,2.6c0.4,0.3,0.5,1.2,0.5,2.7c-0.1,1.4,-0.2,2.6,-0.3,3.6c0,0.8,-0.1,1.5,-0.2,2c-0.1,0.6,-0.2,1.1,-0.2,1.6c0.1,0.9,0.2,2,0.3,3.1c0.1,1.2,0.1,2.2,0,3.2c-0.1,1.7,-0.7,3.4,-1.7,4.9c-1.1,1.5,-2.1,2.6,-3.1,3.4c-1.2,-0.3,-2.4,-0.4,-3.6,-0.4c-1.3,-0.1,-2.4,-0.3,-3.3,-0.7c-0.6,0.5,-1.7,0.7,-3.1,0.7c-1.4,-0.1,-2.4,-0.1,-3,-0.1c-1.3,-0.1,-2.6,-0.4,-3.8,-0.8c-1.2,-0.4,-2.5,-0.7,-3.8,-0.7c-1,-0.1,-1.9,0,-2.9,0.4c-1,0.3,-1.9,0.5,-2.9,0.4c-1.8,-0.1,-3.2,-0.6,-4.4,-1.4c-1.1,-0.7,-2,-1.6,-2.5,-2.6c-0.5,-1,-0.9,-1.9,-1.1,-2.7c-0.2,-0.9,-0.3,-1.3,-0.3,-1.5c0.4,-0.7,0.8,-1.4,1.2,-2.1c-0.6,-2.1,-0.8,-4.5,-0.7,-7c0.1,-1.6,0.4,-3.2,0.8,-4.6c0.5,-1.4,0.7,-2.8,0.8,-4.3c-0.3,-1.4,-0.4,-2.8,-0.3,-4.1c0.1,-1.4,0.2,-2.8,0.5,-4.2c0.3,-1.3,0.4,-2.6,0.5,-3.9c0.1,-1.5,0,-2.9,-0.3,-4.4c-0.1,-4.3,-0.1,-8.7,0.2,-13.2c0,-1,0.1,-1.9,0.1,-2.9c0.1,-1,0.2,-1.8,0.4,-2.6c-0.1,-0.4,-0.2,-1.2,-0.1,-2.4c0.1,-1.2,0.2,-1.9,0.5,-2.2c-0.1,-1.6,-0.2,-3.1,-0.1,-4.6c0,-0.8,0.1,-1.5,0.3,-2.2c0.2,-0.8,0.4,-1.4,0.7,-1.8c-0.2,-0.7,-0.5,-1.3,-0.7,-2c-0.2,-0.6,-0.3,-1.4,-0.2,-2.2c0,-0.8,0.2,-1.6,0.5,-2.3c0.3,-0.8,0.5,-1.6,0.5,-2.4c0.1,-1.5,0,-3.1,-0.2,-4.9C892,517,891.9,515.2,892,513.4c0,-0.8,0.1,-1.5,0.1,-2.1c0.1,-0.7,0.2,-1.3,0.3,-1.9c-0.3,-1,-0.4,-2.1,-0.4,-3.2c0.1,-1.1,0.2,-2.3,0.5,-3.5c0.3,-1.2,0.4,-2.4,0.5,-3.7c-0.4,-0.5,-0.5,-1.3,-0.4,-2.4c0,-0.5,0.1,-0.9,0.2,-1.3c0.2,-0.4,0.3,-0.8,0.3,-1.1c0,-0.6,-0.1,-1.2,-0.2,-1.8c-0.2,-0.6,-0.2,-1.3,-0.2,-2.1c0.1,-1.2,0.4,-2.2,0.9,-2.8c0,-1.6,0,-3.1,0,-4.3c0,-1.3,0,-2.7,0.1,-4.1c0.1,-0.8,0.1,-1.6,0.1,-2.2c0.1,-0.6,0.2,-1.4,0.3,-2.2c-0.2,-0.4,-0.3,-1.3,-0.2,-2.4c0,-1.1,0.2,-2,0.4,-2.7c0.3,-0.7,0.4,-1.6,0.5,-2.8c0.1,-1.4,0,-2.9,-0.2,-4.6c-0.1,-1.6,-0.2,-3.3,-0.1,-5c0.1,-1.3,0.2,-2.5,0.4,-3.5c0.2,-1,0.4,-1.9,0.8,-2.7c-0.3,-0.4,-0.4,-0.6,-0.4,-0.8c0,-0.3,0.1,-0.5,0.1,-0.6c0.1,0,0.1,-0.2,0.2,-0.3c0,-0.3,-0.1,-0.7,-0.2,-1.2c-0.1,-0.5,-0.1,-1,-0.1,-1.5c0.1,-1.3,0.2,-2.4,0.5,-3.5c0.2,-1,0.4,-2.1,0.5,-3.2c0,-0.8,0,-1.4,-0.2,-1.9c-0.2,-0.5,-0.4,-1.2,-0.6,-2c0.1,-1.3,0.5,-2.4,1.3,-3.4c0.8,-1,1.7,-1.8,2.8,-2.5c1.2,-0.6,2.3,-1.1,3.6,-1.4c1.2,-0.2,2.3,-0.3,3.2,-0.2c1.8,0.1,3.2,0.3,4.3,0.7c1.1,0.4,2.4,0.7,3.9,0.8c1.1,0,2.2,-0.1,3.3,-0.5Z" class="g2_1" />
<path d="M1132.4,494c0,-0.2,0,-0.3,0.1,-0.5c0.1,-0.3,0,-0.5,-0.3,-0.5c-0.3,-0.1,-0.5,-0.1,-0.6,0c-0.2,0,-0.4,0,-0.6,0c-0.3,-0.1,-0.4,-0.2,-0.4,-0.4c-0.9,0.5,-1.4,0.9,-1.4,1.2c0.1,0.2,0.1,0.3,0.1,0.5c0.3,-0.3,0.8,-0.3,1.4,-0.2c0.7,0.2,1.2,0.1,1.7,-0.1m-10.7,10c0,-0.3,-0.2,-0.5,-0.4,-0.6c-0.4,-0.1,-0.6,0,-0.7,0.1c-0.1,0.7,0,1,0.2,1.1c0.5,0.1,0.8,-0.1,0.9,-0.6m4.7,-30.5c0,-0.1,0,-0.1,0,-0.2c0.1,-0.5,0,-0.8,-0.4,-0.9c-0.2,0,-0.3,0.2,-0.3,0.5c-0.1,0.4,-0.1,0.7,0.2,0.8c0.1,0,0.3,-0.1,0.5,-0.2M1099.8,595c-0.2,0,-0.3,-0.1,-0.2,-0.4c0.1,-0.2,0,-0.3,-0.2,-0.4c-0.2,0,-0.4,0.1,-0.5,0.4c-0.2,0.3,-0.3,0.6,-0.3,0.9c0.1,0.1,0.2,0.1,0.3,0.1c0.2,0,0.4,0.1,0.6,0.1c0.1,0,0.2,0,0.2,-0.2c0,-0.1,0.1,-0.3,0.1,-0.5m9.5,-43.2c-0.1,-0.3,-0.2,-0.5,-0.5,-0.6c-0.3,-0.1,-0.6,-0.1,-0.9,-0.2c-0.2,0.8,-0.1,1.2,0.3,1.3c0.4,0.1,0.7,-0.1,1.1,-0.5m-7.6,34.3c0.1,-0.1,0.2,-0.4,0.3,-0.7c0.1,-0.3,-0.1,-0.5,-0.4,-0.6c-0.3,0,-0.6,-0.1,-0.9,-0.1c-0.1,-0.1,-0.2,-0.1,-0.2,-0.1c-0.2,0.3,-0.4,0.8,-0.5,1.4c0.1,0,0.1,0,0.2,0c0.3,0.1,0.6,0.2,0.9,0.2c0.2,0.1,0.4,0,0.6,-0.1m21.9,-99.4c0.1,-0.5,-0.1,-0.8,-0.5,-0.8c-0.3,-0.1,-0.9,-0.1,-1.5,-0.1c-0.6,0,-1,0.4,-1.1,1c-0.2,0.8,0.2,1.3,1.1,1.4c0.8,0.2,1.4,-0.3,2,-1.5m-3.3,6.7c-0.2,-0.2,-0.6,-0.4,-1.1,-0.5c-0.6,-0.1,-1.2,-0.1,-1.7,0.1c-0.5,0.3,-0.9,0.7,-1,1.3c0,0.2,0.2,0.5,0.7,1.1c0.5,0.6,1,1,1.5,1.1c0.6,0.1,1.1,0,1.3,-0.5c0.2,-0.4,0.5,-0.9,0.9,-1.5c-0.2,-0.1,-0.3,-0.2,-0.1,-0.5c0.2,-0.3,0.2,-0.5,-0.1,-0.5c-0.1,-0.1,-0.2,-0.1,-0.4,-0.1M1098.2,563c0,-0.2,-0.1,-0.3,-0.2,-0.5c-0.3,-0.1,-0.5,0,-0.7,0.2c-0.1,0.2,-0.3,0.4,-0.4,0.5c-0.1,0.2,0,0.3,0.3,0.3c0.1,0.1,0.1,0.2,0.1,0.3c0.1,0,0.1,0,0.2,0.1c0.2,-0.3,0.3,-0.4,0.4,-0.3c0.1,0.1,0.2,0,0.3,-0.3c0,-0.1,0,-0.2,0,-0.3m-7.1,33c0,-0.4,-0.3,-0.7,-0.7,-0.9c-0.5,-0.3,-0.6,-0.4,-0.3,-0.3c-0.5,-0.1,-1.1,0.1,-1.7,0.6c0.3,0.1,0.5,0.2,0.6,0.5c0.1,0.3,0.3,0.4,0.6,0.5c0.6,0.1,1.1,0,1.5,-0.4m13.8,-64.8c-0.1,-0.5,-0.5,-0.8,-1.1,-0.9c-0.4,-0.1,-0.8,-0.1,-1.2,0c-0.4,0,-0.9,0.1,-1.3,0.2c0,0.3,0,0.5,0.2,0.5c0.2,0.1,0.3,0.3,0.2,0.6c0.2,0,0.4,0,0.6,0.1c0.5,0.1,1,0.2,1.5,0.3c0.6,0.1,1,-0.1,1.1,-0.8m-1.8,16.4c0.5,-0.1,0.7,-0.3,0.8,-0.6c0,-0.2,-0.2,-0.3,-0.6,-0.4c-0.3,0,-0.6,-0.1,-0.8,0c-0.2,0,-0.5,0,-0.9,-0.1c-0.5,-0.1,-1.1,-0.2,-1.7,-0.3c-0.3,-0.1,-0.8,-0.1,-1.3,0c-0.6,0,-0.9,0.2,-0.9,0.5c-0.1,0.5,0,0.8,0.3,0.9c0.3,0.2,0.5,0.3,0.8,0.3c1,0.2,1.7,0.2,2.3,-0.1c0.5,-0.3,1.2,-0.4,2,-0.2m7.5,-49.1c-0.9,-0.2,-1.7,-0.5,-2.4,-0.9c-0.8,-0.3,-1.5,-0.6,-2.3,-0.8c-0.4,-0.1,-0.9,0,-1.7,0c-0.8,0.1,-1.2,0.6,-1.4,1.4c-0.1,0.8,0.2,1.3,1,1.6c0.8,0.4,1.5,0.7,2.1,1c0.9,-0.2,1.9,-0.1,3.2,0.3c1.2,0.5,2.4,0.6,3.5,0.5c0,-0.1,0,-0.1,0,-0.2c0.2,0,0.2,0.1,0.2,0.1c0,0.1,0,0.2,0.2,0.2c0.1,0,0.2,-0.1,0.3,-0.4c0,-0.3,0.1,-0.5,0.1,-0.7c0,-0.1,0,-0.2,0.1,-0.3c-0.5,-0.9,-1.5,-1.5,-2.9,-1.8m-5.4,-6.2c0.2,-0.2,0.3,-0.4,0.4,-0.7c0,-0.3,-0.1,-0.5,-0.5,-0.6c-0.3,0,-0.5,0,-0.6,0c-0.2,0.1,-0.3,0.1,-0.5,0.1c-0.1,0.9,0,1.4,0.5,1.5c0.1,-0.1,0.1,-0.1,0.1,-0.2l0.2,-0.2c0.2,0,0.3,0,0.4,0.1m-4.5,24.8c-0.9,0.2,-1.8,0.4,-2.9,0.6c-1.1,0.1,-1.9,0.8,-2.4,2.1c0.7,0.4,1.4,0.7,2,0.8c0.9,0.2,1.7,0.1,2.4,-0.3c0.8,-0.5,1.3,-1.1,1.4,-2.1c0.1,-0.1,0.1,-0.3,0.1,-0.5c-0.1,0,-0.2,0,-0.3,0c-0.3,-0.1,-0.4,-0.3,-0.3,-0.6m9.3,-8.7c0.1,-0.6,-0.2,-1.1,-1,-1.6c-0.7,-0.5,-1.3,-0.8,-1.5,-0.8c-0.8,-0.2,-1.5,0,-2.1,0.7c-0.5,0.6,-1.3,0.8,-2.2,0.6c-0.5,-0.1,-1,-0.4,-1.6,-0.9c-0.6,-0.5,-0.9,-1,-1.1,-1.3c-0.3,0.1,-0.7,0,-1.3,-0.2c-0.6,-0.2,-0.9,0,-1,0.5c0.2,0.3,0.3,0.8,0.3,1.4c0.1,0.5,0.3,0.9,0.8,1l1.8,0.3c0.6,0.2,1.1,0.4,1.3,0.8c0.3,0.4,0.7,0.6,1.4,0.7c1,0.2,2,0.2,3.2,0c1.1,-0.3,2.1,-0.7,3,-1.2m0.2,-30.1c-0.2,-0.2,-0.4,-0.3,-0.6,-0.3c-0.2,0.1,-0.3,-0.1,-0.2,-0.4c-1.2,-0.2,-2.3,-0.2,-3.2,0.1c-1,0.3,-2,0.6,-3.1,0.7c0.1,0.8,0.8,1.3,1.9,1.6c1.2,0.2,2.3,0.3,3.4,0.3c1.1,-0.1,1.7,-0.5,1.9,-1.3c-0.1,0,-0.2,-0.1,-0.1,-0.5c0,0,0,-0.1,0,-0.2m-13.9,22.5c0,-0.5,-0.2,-0.8,-0.4,-0.8c-0.3,-0.1,-0.6,-0.1,-1,-0.2c-0.1,0.3,-0.1,0.5,-0.2,0.5c-0.1,-0.1,-0.1,0,-0.1,0.2c-0.1,0.3,0.3,0.5,1,0.7c0.2,0,0.4,-0.1,0.7,-0.4m3.5,-8.4c-0.4,-0.4,-0.7,-0.8,-1,-1.4c-0.3,-0.5,-0.8,-0.9,-1.4,-1c-0.3,-0.1,-0.7,0.2,-1.2,0.7c-0.6,0.6,-0.9,1,-1,1.3c0.1,0.2,0.1,0.4,0.1,0.5c0,0.1,0,0.2,0,0.3c0.3,0.5,0.8,0.9,1.6,1c0.6,0.1,1.2,0.2,1.7,0.2c0.6,0.1,0.9,-0.5,1.2,-1.6m-5.4,-8.6c0.1,-0.2,0.2,-0.4,0.3,-0.7c0,-0.2,-0.1,-0.3,-0.4,-0.3c-0.2,-0.1,-0.5,-0.1,-0.7,-0.2c-0.4,0,-0.6,-0.2,-0.5,-0.5c-1,0.1,-1.5,0.4,-1.6,0.9c-0.1,0.3,0.1,0.6,0.4,0.8c1.1,0.2,1.9,0.2,2.5,0m-1.9,8.9c-0.2,-0.8,-0.6,-1.3,-1.5,-1.5c-0.8,-0.1,-1.6,-0.4,-2.4,-0.7c-0.6,0.1,-1.1,0.9,-1.4,2.5c0,0.6,0.4,1,1.2,1.2c0.3,0,0.6,0.1,0.9,0.1c0.2,0.1,0.4,0.1,0.6,0.1c0.7,0.2,1.2,0,1.5,-0.5c0.4,-0.5,0.7,-0.9,1.1,-1.2m-13.1,-3.1c-0.1,-0.2,-0.4,-0.4,-0.9,-0.5c-0.6,0,-0.9,0.1,-0.9,0.6c-0.1,0.3,0.1,0.5,0.5,0.6c0.7,0.1,1.2,-0.1,1.3,-0.7m23.8,-34.8c1.7,0.5,3.2,1.1,4.7,1.7c1.5,0.6,3.1,1.1,4.8,1.4c1,0.2,2.1,0.4,3.3,0.5c1.2,0,2.3,0.2,3.5,0.4c0.7,0.2,1.3,0.3,1.8,0.5c0.5,0.2,1.1,0.4,1.7,0.7c0.8,-0.1,1.6,-0.1,2.3,0c0.5,0.1,1,0.2,1.6,0.3c0.9,0.2,1.8,0.3,2.6,0.3c0.8,0.1,1.7,0.2,2.8,0.4c1.1,0.2,2,0.6,2.9,1c0.9,0.4,1.8,0.7,2.7,0.9c0.9,0.2,1.9,0.4,2.8,0.4c1,0.1,1.9,0.2,2.6,0.3c0.7,0.2,1.3,0.4,1.9,0.8c0.7,0.4,1.3,0.7,1.9,0.8c1.9,0.4,3.7,0.7,5.6,0.8c1.8,0.1,3.8,0.3,5.7,0.8l1.4,0.3c0.4,0.8,1,1.3,1.8,1.6c0.9,0.2,1.7,0.5,2.7,0.8c0.9,0.3,1.6,0.7,2.3,1.2c0.6,0.5,1,1.3,1,2.4c0.2,0.9,0.1,1.8,-0.3,2.8c-0.4,1,-0.4,2,0,2.9c0,0.3,-0.1,0.9,-0.2,1.6c-0.2,0.8,-0.5,1.5,-0.8,2.2c-0.3,0.7,-0.5,1.4,-0.7,2.2c-0.2,0.8,-0.2,1.8,-0.2,2.9c0.1,1.2,-0.1,2.6,-0.5,4.3c-0.3,1.3,-0.7,2.6,-1.1,4c-0.5,1.4,-0.9,2.7,-1.3,4.1c-0.2,1,-0.3,2,-0.5,3c-0.1,1.1,0,2,0.4,2.9c-0.7,0.4,-1.4,1.2,-2.3,2.3c-0.9,1.2,-1.5,2,-1.7,2.2c-1.3,0.6,-2.4,1,-3.3,1.4c-0.9,0.3,-2.2,0.3,-4,-0.1c-1.2,-0.3,-2.2,-0.8,-2.9,-1.4c-0.8,-0.1,-1.7,-0.1,-2.7,-0.2c-1,0,-2,-0.2,-2.9,-0.4c-1.3,-0.3,-2.3,-0.8,-3.2,-1.5c-0.8,-0.8,-1.7,-1.3,-2.6,-1.5c-2.8,-0.6,-5.1,-0.1,-6.9,1.5c-1.9,1.7,-3.2,4.3,-4,7.9c-0.1,0.7,-0.1,1.4,0.2,2.2c0.2,0.7,0.2,1.5,0.1,2.3c-0.2,0.8,-0.5,1.4,-0.9,1.9c-0.3,0.5,-0.6,1.2,-0.8,1.9c-0.2,1.1,-0.2,2.1,0,2.9c0.2,0.8,0.3,1.6,0,2.6c-0.2,0.9,-0.5,2,-1,3.2c-0.4,1.2,-0.7,2.2,-0.9,3c-0.2,1.1,-0.3,2.1,-0.1,3.1c0.2,0.9,0.2,2,-0.1,3.3c-0.2,0.7,-0.4,1.6,-0.8,2.5c-0.3,0.9,-0.5,1.8,-0.7,2.5c-0.3,1.5,-0.6,2.9,-0.7,4.3c-0.2,1.5,-0.5,2.9,-0.8,4.3c-0.1,0.6,-0.3,1.2,-0.5,1.7c-0.3,0.5,-0.5,1,-0.6,1.5c0,0.3,-0.1,0.8,-0.1,1.4c0,0.7,-0.1,1.3,-0.2,2c-0.2,0.8,-0.4,1.5,-0.7,2.2c-0.3,0.6,-0.5,1.4,-0.7,2.2c-0.2,0.9,-0.3,1.8,-0.4,2.7c0,0.9,-0.1,1.7,-0.3,2.5c-0.2,0.8,-0.4,1.4,-0.6,1.8c-0.3,1.3,-0.5,2.5,-0.7,3.7c-0.2,1.2,-0.4,2.4,-0.7,3.7c-0.3,0.2,-0.6,0.9,-0.8,2c-0.2,1,-0.4,1.8,-0.4,2.6c-0.1,0.9,-0.2,1.8,-0.5,2.9c-0.1,0.8,-0.4,1.6,-0.9,2.5c0,1.3,-0.2,2.5,-0.4,3.6c-0.3,1.3,-0.6,2.4,-0.9,3.4c-0.4,1,-0.7,2,-0.9,3.1c-0.3,1.6,-0.6,3.1,-0.8,4.5c-0.2,1.5,-0.4,3,-0.8,4.5c-0.3,1.3,-0.6,2.1,-1.1,2.5c-0.4,0.4,-0.8,1.2,-1.1,2.5c-0.2,1.2,-0.4,2.4,-0.5,3.4c-0.1,1.1,-0.3,2.1,-0.6,3.2c-0.2,1.3,-0.5,2.4,-0.9,3.4c-0.3,1,-0.6,2,-0.8,3.1c-0.3,1.1,-0.4,1.9,-0.4,2.4c-0.1,0.8,-0.5,1.1,-1.1,1c-0.9,0.6,-1.7,1.4,-2.5,2.3c-0.8,0.9,-1.7,1.2,-2.6,1c-0.6,-0.1,-1,-0.3,-1.3,-0.7c-1.2,-0.1,-2.4,-0.3,-3.6,-0.4c-1.2,-0.2,-2.4,-0.4,-3.5,-0.6c-3.6,-0.8,-7,-1.6,-10.4,-2.5c-3.4,-0.9,-6.8,-1.7,-10.2,-2.4c-0.8,-0.9,-1.5,-2.1,-2.1,-3.4c-0.6,-1.4,-1,-2.8,-1.2,-4.3c0.5,-1.5,1,-3.2,1.5,-5c0.4,-1.8,0.8,-3.6,1.2,-5.5c1.5,-7.9,2.7,-15.3,3.6,-22.2c0.9,-6.9,2.1,-14.2,3.5,-21.8c0.3,-1.5,0.6,-3,1,-4.4c0.4,-1.4,0.8,-2.9,1,-4.5c0.2,-0.9,0.3,-1.9,0.4,-3c0.1,-1,0.2,-2.1,0.4,-3.2c0.3,-1.2,0.6,-2.5,0.9,-3.9c0.4,-1.3,0.7,-2.6,1,-3.8c0.2,-1.1,0.3,-2,0.3,-2.7c0.2,-0.4,0.3,-0.8,0.5,-1.2c0.1,-0.4,0.2,-0.8,0.3,-1.3c0.1,-0.6,0.2,-1.2,0.1,-1.8c-0.1,-0.6,-0.1,-1.3,0.1,-2.1c0.1,-0.8,0.3,-1.6,0.6,-2.5c0.3,-1,0.6,-1.9,0.8,-2.9c0.1,-0.6,0.1,-1.6,0.1,-2.9c0.6,0.2,1.2,-0.7,1.7,-2.6c0.5,-1.9,0.9,-3.6,1.1,-5.2c0.3,-1.1,0.4,-2.1,0.5,-3c0.1,-1,0.3,-1.9,0.4,-2.7c0.4,-0.4,0.7,-0.9,1,-1.4c0.3,-0.5,0.5,-1.1,0.6,-1.7c0.2,-1.1,0.3,-2.3,0.4,-3.7c0.1,-1.4,0,-2.7,-0.2,-4c-0.3,-1.2,-0.7,-2.3,-1.2,-3.3c-0.6,-0.9,-1.4,-1.4,-2.4,-1.6c-1.6,-0.3,-3.3,-0.6,-5.4,-0.8c-2,-0.2,-4,-0.4,-5.9,-0.8c-1.2,-0.2,-2.6,-0.4,-4.2,-0.7c-1.6,-0.3,-3.1,-0.6,-4.5,-0.9c-1.4,-0.3,-2.6,-0.7,-3.7,-1.2c-1,-0.5,-1.5,-1.2,-1.5,-2c-0.2,-2,-0.2,-4.5,-0.1,-7.5c0.2,-2.9,0.5,-5.5,1,-7.7c0.3,-1.9,0.8,-3.7,1.5,-5.4c-0.2,-0.7,-0.1,-1.6,0.1,-2.9c0.1,-0.8,0.3,-1.7,0.5,-2.6c0.2,-0.9,0.4,-1.8,0.5,-2.6c0.1,-0.6,0.1,-1.2,0,-1.7c-0.1,-0.5,-0.1,-1.1,0,-1.7c0.2,-1.3,0.6,-2.2,1.2,-2.9c0.6,-0.6,1,-1.5,1.2,-2.8c0,-0.4,0.1,-0.8,0.2,-1.2c0.9,-1.3,1.9,-2.1,3.2,-2.3c1.3,-0.2,2.6,-0.1,4.1,0.1c1.5,0.3,3,0.5,4.6,0.8c1.3,0.2,2.3,0.3,3,0.3c0.3,0,0.4,0.1,0.5,0.2c0,0.1,0.2,0.2,0.5,0.2c0.9,0.2,1.8,0.1,2.6,-0.1c0.8,-0.3,1.6,-0.4,2.6,-0.2c0.6,0.1,1.3,0.3,2.1,0.6c0.8,0.4,1.5,0.6,2.1,0.7c1.8,0.3,3.5,0.5,5.1,0.4c1.7,0,3.2,0.1,4.7,0.4c1.6,0.3,3,0.9,4.4,1.8Z" class="g2_1" />
<path d="M356.5,565.7c0.4,0,0.9,-0.3,1.7,-0.8c0.1,-0.4,0.2,-0.7,0.2,-1c0,-0.9,-0.5,-1.6,-1.3,-2l-0.4,0c-0.5,0,-0.7,0.1,-0.7,0.4c-0.2,0.3,-0.3,0.8,-0.3,1.4c0,1,0.3,1.6,0.8,2m4.7,-3.4c0.2,0.7,0.3,1.2,0.3,1.6c0,1.6,-1.2,2.8,-3.7,3.8l0,0.1c0.7,1.1,1.5,1.6,2.6,1.6c1.4,0,3,-1.1,4.6,-3.4c1,-1.2,1.8,-1.7,2.3,-1.7l0.1,0l0.1,0.1l0,0.5l-0.1,0.2c0.1,0,0.1,0.1,0.2,0.1c0.2,0,0.4,-0.1,0.4,-0.5l0.1,0l0,0.1c0,0.5,-0.4,1.4,-1.4,2.6c-0.1,0.3,-0.3,0.6,-0.3,1c-0.5,0.1,-0.7,0.3,-0.7,0.5c-0.9,1.5,-2.2,2.5,-3.9,3.1c-0.6,0.2,-1.1,0.2,-1.4,0.2l-0.5,0c-2.4,0,-4.7,-1.7,-6.9,-5.1l-0.3,-3.8l0,-0.4c0,-1.6,0.5,-2.6,1.6,-2.9c1.1,-0.7,2,-1,2.9,-1c1.6,0,3,1.1,4,3.3Z" class="g2_1" />
<path d="M375.5,560c1.2,0,1.9,0.3,2,0.8c0.2,0.6,0.3,0.9,0.3,1.1c-0.2,0.3,-0.7,0.6,-1.5,0.8c-2.3,0.3,-3.4,0.7,-3.4,0.9c0.3,0.6,1.2,1,2.6,1.4c2.3,0.6,4.1,1.1,5.2,1.6c1,0.7,1.4,1.5,1.4,2.4c0,1.7,-1.4,2.8,-4.3,3.3c-0.9,0.2,-1.7,0.3,-2.4,0.3c-3,-0.2,-4.4,-0.6,-4.4,-1.1c-0.4,-0.3,-0.5,-0.7,-0.5,-1.1l0,-0.3c0,-0.6,0.3,-1.1,1,-1.6c1.6,0.8,3,1.2,4.1,1.2c1,0,1.7,-0.3,2.3,-0.8l0,-0.1c-0.9,-0.4,-2.5,-1,-4.9,-1.6c-2.5,-0.7,-3.7,-1.5,-3.7,-2.6l0,-0.1c0,-1.7,1.1,-2.9,3.1,-3.8c1,-0.5,1.9,-0.7,2.8,-0.7Z" class="g2_1" />
<path d="M390.9,549.6c0.8,0,1.3,0.4,1.6,1.1c-0.6,4,-1,7.1,-1,9.3l0,2.1l0.7,0c1.4,0,3,-0.2,4.7,-0.6l0.8,-0.1c0.7,0,1.1,0.4,1.1,1.1c0,1,-0.7,1.6,-2.1,1.8c-0.6,0.2,-2.2,0.4,-4.8,0.6c0,0,-0.1,0.1,-0.4,0.1l0.3,3.1c0,0.5,-0.1,0.8,-0.3,1.2c0.3,0.3,0.4,0.6,0.4,1.1l0,0.5c0,1.1,-0.1,1.7,-0.4,1.8l-1.2,-0.1c-0.2,0,-0.3,0.1,-0.5,0.3c-0.9,-0.3,-1.3,-1.7,-1.3,-4.1c0,-2.2,-0.1,-3.3,-0.4,-3.3c-0.3,-0.3,-1.3,-0.4,-3,-0.4c-0.8,0,-1.3,-0.5,-1.7,-1.3l0,-0.1c0.4,-0.9,1.3,-1.3,2.7,-1.3c0.7,0,1.1,0,1.1,0.1c0.2,0,0.4,-0.2,0.5,-0.6l0.2,-0.1l0.4,0l-0.1,-0.6c0,-2.8,0.3,-6.4,0.9,-10.8c0.4,-0.5,1,-0.8,1.6,-0.8Z" class="g2_1" />
<path d="M413.2,565.4c0.2,1.2,0.7,1.8,1.6,1.8l0.2,0c0.3,-0.2,0.5,-0.5,0.5,-1c-0.1,-1.3,-0.3,-2,-0.5,-2l-0.6,0c-0.8,0,-1.2,0.4,-1.2,1.2m1.5,-3.9l0.7,0c0.2,0,0.6,0.4,1.3,1.3c0.8,0.8,1.2,1.6,1.2,2.3l0,0.2c0,1.2,-0.4,2.4,-1.2,3.5c-0.6,0.5,-1.4,0.8,-2.2,0.8l-0.3,0c-1.6,0,-2.7,-0.7,-3.4,-2.1c-0.1,-0.2,-0.2,-0.5,-0.2,-0.8l0,-0.2c0,-0.3,0.2,-1.2,0.5,-2.8l0,-0.5c1.2,-1.2,2.4,-1.7,3.6,-1.7Z" class="g2_1" />
<path d="M426,564l0.7,0c1.9,0,5.6,0.2,10.9,0.6c0.3,0.4,0.4,0.8,0.4,1.2c0,0.8,-0.4,1.5,-1.2,2.1l-9.5,-0.4l-3,0.1l-0.5,0c-0.9,0,-1.3,-0.3,-1.3,-1l0,-0.2c0,-0.8,0.4,-1.5,1.3,-2.1c0.6,-0.2,1.3,-0.3,2.2,-0.3Z" class="g2_1" />
<path d="M1157.8,564l0.8,0c1.8,0,5.5,0.2,10.9,0.6c0.2,0.4,0.3,0.8,0.3,1.2c0,0.8,-0.4,1.5,-1.2,2.1l-9.5,-0.4l-3,0.1l-0.5,0c-0.8,0,-1.3,-0.3,-1.3,-1l0,-0.2c0,-0.8,0.5,-1.5,1.3,-2.1c0.6,-0.2,1.3,-0.3,2.2,-0.3Z" class="g2_1" />
<path d="M1176.9,565.4c0.2,1.2,0.7,1.8,1.6,1.8l0.2,0c0.3,-0.2,0.5,-0.5,0.5,-1c-0.1,-1.3,-0.2,-2,-0.5,-2l-0.6,0c-0.8,0,-1.2,0.4,-1.2,1.2m1.5,-3.9l0.7,0c0.2,0,0.6,0.4,1.3,1.3c0.9,0.8,1.3,1.6,1.3,2.3l0,0.2c0,1.2,-0.4,2.4,-1.2,3.5c-0.7,0.5,-1.4,0.8,-2.3,0.8l-0.3,0c-1.6,0,-2.7,-0.7,-3.4,-2.1c-0.1,-0.2,-0.1,-0.5,-0.1,-0.8l0,-0.2c0,-0.3,0.1,-1.2,0.5,-2.8l0,-0.5c1.1,-1.2,2.3,-1.7,3.5,-1.7Z" class="g2_1" />
<path d="M1203.4,554c1.8,0,3.1,0.8,3.8,2.3c0.2,0.5,0.3,0.9,0.3,1.4l0,0.3c0,1.9,-1,3.9,-3,5.9c-1.4,1.4,-2.8,2.6,-4,3.4c-0.7,0.7,-1.2,1.2,-1.6,1.6c3,0.3,5,0.5,6.3,0.5c0.5,0,1.5,-0.1,3,-0.3c0.8,0,1.1,0.3,1.1,0.8l0,0.3c-0.1,0.9,-0.2,1.3,-0.4,1.3c-1.1,0.7,-2.9,1,-5.4,1c-5.3,-0.2,-8,-0.3,-8,-0.5c-1.3,-0.3,-2,-0.6,-2,-1l0,-0.5c0,-0.4,0.2,-1,0.7,-1.9c2,-1.3,4.2,-3.1,6.7,-5.4c1.7,-1.8,2.8,-3.1,3.3,-4.1l0,-0.2l0,-1.1c0,-0.3,-0.3,-0.5,-0.8,-0.6c-0.2,-0.1,-0.6,-0.1,-1,-0.1c-1.6,0,-3,0.8,-4.2,2.6c-0.3,0.7,-0.5,1,-0.6,1c-0.3,0.3,-0.7,0.4,-1.2,0.4c-0.7,-0.1,-1.1,-0.3,-1.1,-0.5c0,-1.1,0.6,-2.3,1.7,-3.7c1.8,-1.9,3.8,-2.9,6,-2.9Z" class="g2_1" />
<path d="M1218.1,555.2c0,0.2,-0.1,0.3,-0.3,0.3c-1.9,1,-2.9,3.5,-2.9,7.5c0,1.5,0.2,2.8,0.8,3.7c0.4,1.6,0.9,2.4,1.2,2.4c0.7,0.6,1.4,0.9,2.1,0.9c0.8,0,1.7,-0.8,2.8,-2.5c0.7,-1.6,1.1,-2.9,1.1,-4.1l0,-0.5c0,-1.7,-1.1,-3.9,-3.3,-6.6c-0.5,-0.6,-1,-1,-1.3,-1Zm-0.2,-2.6c1.6,0,3,0.9,4.2,2.5l1.8,2.7c1,1.8,1.5,3.6,1.5,5.2c0,2.3,-0.8,4.7,-2.4,7.2c-1.2,1.5,-2.6,2.3,-4.3,2.3l-0.5,0c-2.1,0,-3.8,-1.3,-5,-3.9c-0.6,-1.6,-0.9,-3.4,-0.9,-5.3l0,-0.6c0,-1.4,0.3,-3.1,0.9,-5.4c0.3,-0.8,0.8,-1.6,1.6,-2.4l0.3,-0.3c-0.1,-0.1,-0.2,-0.3,-0.2,-0.5c0.8,-1,1.7,-1.5,2.8,-1.5Z" class="g2_1" />
<path d="M1234.2,552.4c0.3,0,0.5,0.4,0.6,1.1c0.1,0.1,0.2,0.2,0.2,0.2c0,0.3,-0.5,2.9,-1.3,7.7c-0.1,0.8,-0.2,1.5,-0.2,2.3l0.3,5.3c0,2.1,-0.5,3.4,-1.4,4c0,-0.3,-0.3,-0.5,-1,-0.6c-0.3,-1.1,-0.5,-3,-0.5,-5.6l0,-0.3c0,-2.5,0.1,-4.4,0.3,-5.7l0,-0.1c0,-0.3,-0.3,-0.8,-0.9,-1.5l-0.1,-0.2l0,-0.2c0,-0.2,0.4,-0.9,1.2,-2.1c0.3,-0.7,0.8,-1.9,1.4,-3.7c0,-0.1,0.4,-0.3,1.1,-0.6Z" class="g2_1" />
<path d="M1253.7,553.4c0,0.1,0.3,0.3,0.7,0.4c0.2,0.1,0.3,0.3,0.3,0.5c0,2,-1.5,3,-4.5,3l-2.6,-0.2c-0.5,0,-0.9,0,-1.3,0c-1.5,0,-2.2,0.1,-2.2,0.3c-0.2,0.5,-0.4,1.1,-0.4,1.5l0,0.3l0,0.1c2.4,-0.4,4.4,-0.6,5.9,-0.6c2.3,0,3.8,0.6,4.5,1.8c0.6,0.5,0.9,1.3,0.9,2.4c0,0.3,0,0.6,0,0.9c0,1.2,-0.3,2.5,-1,3.8c-1,1.8,-2.2,3.1,-3.7,4c-1.8,1,-3.4,1.6,-4.8,1.6l-0.4,0c-1.7,0,-3.5,-0.9,-5.3,-2.5l0.2,-1l-0.3,-0.3l0,-0.1c0.1,-0.1,0.3,-0.2,0.7,-0.4c0.6,-0.3,1,-0.5,1.3,-0.5c0.3,0,0.6,0.4,1.1,1.1c1.1,0.5,2,0.7,2.6,0.7c2.6,-0.4,4.5,-1.5,5.5,-3.2c0.9,-0.9,1.3,-2,1.3,-3.1c0,-0.2,0,-0.5,0,-0.7l-0.5,-1.4c-0.3,-0.4,-1.2,-0.6,-2.7,-0.6c-0.9,0,-2.5,0.4,-4.6,1.1c-0.5,0.2,-1,0.2,-1.3,0.2l-0.5,0c-0.6,0,-1.1,-0.2,-1.6,-0.6c-0.1,-0.6,-0.2,-1.2,-0.2,-1.7l0,-0.3c0,-1.2,0.4,-2.8,1.2,-4.6c1,-0.5,1.5,-0.7,1.5,-0.7c0.3,0,0.7,0.1,1.3,0.4c2.3,-0.5,4.1,-0.8,5.4,-0.8Z" class="g2_1" />
<path fill-rule="evenodd" d="M702.5,716.8c4.1,-1.9,7.9,-2.3,11.8,-1c5,1.6,8.7,-0.3,10,-5.6c0.3,-1.3,0.6,-2.6,0.4,-3.9c-0.4,-4.9,1.5,-9.1,3.6,-13.3c2,-3.9,4.2,-7.7,6.2,-11.6c0.7,-1.5,1.1,-3.1,1.5,-4.7c0.4,-1.1,-0.3,-1.6,-1.3,-1.7c-1.1,-0.1,-2.2,-0.3,-3.2,-0.2c-9,1,-18,2.1,-27,3c-14.5,1.5,-29,2.9,-43.5,4.4c-1.8,0.2,-3.5,0.5,-5.2,0.7c-0.1,-0.2,-0.2,-0.4,-0.3,-0.6c0.7,-0.4,1.4,-1,2.2,-1.2c7.3,-1.6,14.6,-3.1,21.9,-4.5c11.7,-2.4,23.3,-4.7,35,-7c3.8,-0.7,7.5,-1.3,11.3,-2.3c-8,0.3,-16,0.7,-24.3,1c0.4,-0.7,0.8,-1.3,1.2,-1.8c2.4,-3.5,4,-7.2,4.8,-11.4c0.2,-1,0.9,-2.1,1.6,-2.7c0.7,-0.6,2.1,-0.9,2.6,-0.5c0.7,0.4,1.2,1.7,1,2.6c-0.5,3.3,-2.3,6.1,-4.6,8.5c-0.5,0.6,-1,1.1,-1.6,1.7c4.4,0,5.9,-3,6.7,-6.4c0.6,-2.5,1.7,-3.7,4.4,-4c3.1,-0.4,6.1,-1.6,9.1,-2.5c0.8,-0.2,1.7,-0.7,2.5,-0.6c0.8,0,2,0.4,2.4,1c0.4,0.7,0.3,2,-0.1,2.7c-0.7,1.1,-1.9,1.8,-2.6,2.8c-1.1,1.3,-2.3,2.7,-2.7,4.3c-0.6,2.1,0.8,3.4,3,3.2c4.1,-0.4,8.2,-0.8,12.3,-1.4c2.9,-0.5,5.6,-1.7,8.4,-1.9c2.7,-0.2,5.5,0.4,8.3,0.8c1.2,0.2,2.4,0.8,3.6,1.2c1.2,0.4,2.3,1.1,1.6,2.5c-0.5,1.4,-1.8,1.7,-3,1.1c-1.2,-0.6,-2.3,-1.5,-3.3,-2.3c-2.4,-2.2,-7.8,-2.3,-10.1,0.1c2.9,-0.4,5.4,0.3,7.8,1.7c2.4,1.5,2.9,2.7,1.7,5.3c-0.9,2.2,-2.1,4.3,-3.4,6.2c-6.5,9.2,-12.2,18.8,-15.4,29.6c-1.2,4.4,-1.6,9,-2.2,13.5c-0.5,4.9,-2.2,7.3,-7,8.3c-3.2,0.7,-6.6,0.9,-9.9,1.1c-5.7,0.1,-11,1.7,-16,4.2c-3.2,1.5,-5.2,4.2,-6.1,7.8c-0.9,4.3,-3.4,7.9,-6.9,10.4c-3,2.1,-4.6,5,-5.9,8c-2,4.5,-3.7,9.1,-5.5,13.6c-0.4,0.9,-0.9,1.7,-1.5,2.5c-1.2,1.3,-2,1.3,-3.5,-0.4c-2,4.2,-3.9,8.2,-5.8,12.3c-0.3,0.5,-0.4,1.1,-0.8,1.6c-0.6,0.9,-1.3,1.2,-2.3,0.5c-1.9,-1.2,-3.5,-1,-5.1,0.5c-0.6,0.6,-1,1.4,-1.7,1.9c-0.5,0.4,-1.2,0.5,-1.9,0.7c0,-0.7,-0.4,-1.6,0,-2.2c1.1,-2,2.7,-3.8,3.7,-5.8c2.6,-5.2,4.9,-10.6,7.4,-15.8c9.2,-18.7,16.8,-38.2,24.8,-57.5c1.8,-4.2,3.7,-8.4,3.7,-13.1c0.1,-1.7,0.1,-3.3,-0.1,-5c-0.1,-1.7,0.2,-3.1,1.8,-3.8c1.7,-0.7,3.4,-1.6,5.1,-1.7c2.7,-0.1,4,1.2,3.1,4.6c-1.2,3.9,-2.7,7.7,-4.1,11.5c-0.2,0.5,-0.3,0.9,-0.2,1.5c0.5,-0.9,1,-1.8,1.4,-2.8c2.4,-5.4,4.7,-10.8,7.1,-16.2c1.4,-3.2,6.1,-5.8,9.5,-5.5c1.4,0.1,2.5,1.4,1.9,2.9c-0.7,1.7,-1.7,3.3,-2.8,4.8c-2.4,3.2,-5.3,6.2,-7.5,9.6c-2.5,3.8,-4.4,8,-6.5,12.1c-0.7,1.4,-1,3,-1.5,4.6Z" class="g2_1" />
<path fill-rule="evenodd" d="M814.1,701.4c-2.5,0.9,-4.9,1.8,-7.3,2.6c0,0.2,0.1,0.4,0.1,0.6c1.5,-0.2,2.9,-0.4,4.4,-0.6c1.5,-0.1,3,-0.3,4.5,-0.3c1.1,0,1.7,0.8,1.2,1.7c-0.9,1.6,-1.7,3.3,-3,4.4c-2.6,2.3,-5.8,3.3,-9.3,3.4c-3.3,0.1,-6.6,0.1,-9.9,0.5c-1.8,0.2,-3.6,1,-5.3,1.7c-3.1,1.1,-6.1,2.7,-9.6,2.7c-2.9,0.1,-5.7,0.8,-8.6,1.2c-0.6,0,-1.2,0.1,-2.1,0.2c0.7,-2.2,1.7,-3.8,3.4,-4.9c3.4,-2.2,6.4,-4.9,8.6,-8.4c0.9,-1.4,1.6,-2.9,2.5,-4.4c1.3,-2.1,2.6,-4.2,4,-6.3c0.1,-0.2,0.4,-0.4,0.6,-0.7c3.4,-5.4,6.8,-11,10.3,-16.4c1.4,-2.1,3.1,-4,4.6,-6c0.6,-0.7,1.2,-1.2,1.6,-2.2c-0.9,0.2,-1.8,0.6,-2.7,0.7c-2.2,0.5,-4.4,1,-6.6,1.2c-2.9,0.3,-5.1,1.6,-7,3.8c-0.7,0.7,-2.2,1.7,-2.7,1.4c-1.4,-0.7,-0.5,-2.1,0,-3.2c1.6,-3.5,3.6,-6.6,6.4,-9.2c0.9,-0.9,1.7,-2,2.4,-3.1c1.1,-1.7,2.5,-2.4,4.5,-2.1c2.9,0.3,5.9,0.6,8.9,1c4.3,0.5,8.4,-0.3,12.2,-2.3c0.5,-0.2,1,-0.6,1.5,-0.6c0.7,0,1.4,0,1.9,0.4c0.2,0.2,0,1.2,-0.3,1.6c-1.7,2.6,-3.7,5,-5.4,7.6c-1.4,2.2,-2.6,4.6,-4,6.9c-1.4,2.3,-2.6,4.8,-4.2,7c-2.6,3.8,-5.5,7.4,-6.5,12.1c-0.3,1.2,-0.8,3.3,-2.6,2.6c-1.8,-0.7,-0.3,-2.3,0.3,-3.4c2.7,-5.4,5.6,-10.8,8.4,-16.2c0.2,-0.4,0.3,-0.8,0.1,-1.5c-1.2,1.7,-2.5,3.3,-3.8,5c-2,2.7,-3.9,5.5,-6,8c-4.4,5.2,-7.3,11.2,-10.5,17c-0.2,0.3,-0.1,1,0,1.1c0.5,0.1,1.1,0.2,1.6,0c1.7,-0.7,3.3,-1.6,5,-2.1c4.9,-1.4,9.9,-2.6,14.9,-3.9c1.4,-0.4,2.6,0.2,3.5,1.4Z" class="g2_1" />
<path fill-rule="evenodd" d="M843.1,698.8c4.5,-1.4,9.1,-2.9,12.8,-6.2c0.6,-0.5,1.1,-1.2,1.8,-1.5c0.8,-0.2,2.1,-0.4,2.6,0.1c0.5,0.4,0.5,1.8,0.2,2.5c-0.6,1.3,-1.8,2.2,-2.5,3.4c-0.5,0.9,-1.1,2.1,-0.9,3.1c0.4,2.9,-0.6,4.9,-3.5,5.5c-2.3,0.4,-4.6,0.4,-6.9,0.7c-4.4,0.5,-8.8,1,-13.1,1.8c-2.2,0.5,-4.3,1.8,-6.6,2.4c-1.4,0.3,-3.1,0.6,-4.3,0.1c-1.6,-0.8,-1.9,-2.8,-1.4,-4.6c0.7,-2.8,2,-5.4,4.7,-6.9c1.6,-0.9,2.5,-2.2,2.7,-3.9c0.4,-3.1,1.8,-5.8,4,-8c0.2,-0.2,0.4,-0.4,0.5,-0.6c0.9,-3.6,4,-5.6,6.2,-8.2c0.6,-0.7,1.2,-1.3,1.6,-2c2.1,-4.3,4.6,-8.2,8.4,-12.1c-1.4,0,-2.3,-0.3,-3.1,-0.1c-4,1.1,-8.3,1.5,-12,3.9c-0.9,0.6,-1.7,1.3,-2.6,1.9c-0.8,0.5,-1.5,1,-2.4,1.3c-0.4,0.1,-1.3,-0.1,-1.6,-0.5c-0.3,-0.4,-0.2,-1.2,0,-1.7c1,-2.3,2,-4.6,3.3,-6.8c0.4,-0.7,1.6,-1,2.5,-1.2c1.2,-0.3,2.5,-0.3,3.8,-0.7c-0.8,-0.5,-1.6,-1,-2.4,-1.4C834,658.5,834,657.8,834.6,657c1.3,-1.6,2.9,-2.1,4.8,-1.7c2.6,0.5,5.3,1.1,8,1.8c5,1.4,9.9,1.2,14.6,-1c0.5,-0.3,1.2,-0.1,1.8,-0.2c0,0.7,0.3,1.6,-0.1,2.1c-3.4,4.9,-6.7,9.8,-10.4,14.4c-2.6,3.3,-6,5.8,-8.6,9c-2.7,3.2,-5.4,6.4,-6.4,10.7c-0.5,1.9,-2,3.5,-3,5.3c-0.2,0.4,-0.2,1,-0.2,1.5c0.5,0,1.2,0.3,1.6,0c1.9,-1.1,3.7,-2.4,5.6,-3.5c1.2,-0.6,2.5,-1,3.9,-1.3c0.4,-0.1,0.9,0.4,1.3,0.7c-0.2,0.4,-0.3,1,-0.7,1.3c-1.3,0.8,-2.6,1.4,-4,2.2c0.1,0.1,0.2,0.3,0.3,0.5Z" class="g2_1" />
<path fill-rule="evenodd" d="M889.6,662.8c-0.5,0.8,-0.7,1.1,-0.8,1.4c-2.9,5.4,-5.7,10.8,-8.4,16.2c-0.6,1.2,-0.7,2.7,-1.2,4.5c3.7,-1.6,6.9,-3.1,10,-4.5c0.4,-0.2,0.7,-0.7,0.8,-1.1c1.4,-5.4,0.6,-10.6,-0.4,-16.5m44,9.1c-0.8,0.4,-1.7,1,-2.6,1.3c-9.5,3.2,-19,6.3,-28.4,9.5c-3.3,1.1,-6.6,2.2,-9.8,3.5c-4.1,1.7,-8,3.9,-11,7.1c-1.3,1.4,-2.1,3.2,-3.1,4.9c-0.5,0.8,-0.7,1.8,-1.3,2.6c-1.9,2.8,-2.8,4.4,-7.4,3c-2.3,-0.7,-3.7,0,-5.1,1.8c-0.3,0.3,-0.8,0.4,-1.1,0.7c-0.3,-0.5,-0.7,-1,-0.7,-1.4c0,-0.8,0.2,-1.6,0.5,-2.3c5.2,-11.1,10.5,-22.2,15.7,-33.3c0.8,-1.7,1.6,-3.4,2.3,-5.2c0.6,-1.7,0.6,-3.4,-0.6,-4.9c-1.7,-2.1,-0.4,-4.7,2.4,-5.3c0.8,-0.2,1.8,-0.1,2.7,-0.1c1.7,0.2,3.2,-0.1,4.6,-1.3c1.3,-1.3,2.5,-1,3,0.8c1.4,5,2.8,10.1,4,15.3c0.6,2.3,0.5,4.8,0.8,7c3.4,0.1,6.8,0.4,10.2,0.4c1.7,-0.1,3.5,-0.5,5.1,-1.1c3.7,-1.4,7.1,-3.5,11.3,-2.8c1.7,0.3,3.6,-0.4,5.4,-0.7c1,-0.1,2,-0.1,2.9,-0.2c0.1,0.2,0.2,0.5,0.2,0.7Z" class="g2_1" />
<path fill-rule="evenodd" d="M767,678.9c-4.5,4.9,-8.6,10.1,-11.2,16.3c-0.6,1.2,-0.5,2.7,-0.9,4c-0.2,0.7,-0.7,1.4,-1.2,1.9c-0.1,0.2,-1.2,-0.1,-1.2,-0.3c-0.1,-0.8,-0.2,-1.7,0.1,-2.3c4.4,-8.1,9,-16,13.1,-24.1c1.6,-3.4,2.1,-7.4,3.1,-11c0.4,-1.2,0.8,-2.3,1.6,-3.2c0.8,-1.1,1.9,-1.4,3.3,-0.2c1.1,1,2.7,1.3,4,2.2c1,0.7,2,1.9,2.7,3c0.3,0.6,0.2,1.9,-0.2,2.4c-2.6,2.6,-3.4,6.2,-4.8,9.4c-2.2,5.3,-4.1,10.7,-6.4,15.9c-1.8,3.9,-4,7.5,-5.7,11.5c-1.7,3.8,-2.3,7.9,-1.5,12.1c0.4,2.3,-0.6,4,-2.5,5.3c-1.2,0.8,-2,2.1,-2.9,3.2c-0.5,0.8,-0.7,2,-1.3,2.8c-0.4,0.6,-1.2,1.3,-1.8,1.2c-0.6,-0.1,-1.5,-0.8,-1.7,-1.5c-1.1,-3.5,-1.4,-7.3,0,-10.7c2.3,-5.4,5.1,-10.6,7.3,-16c3,-7.2,5.7,-14.5,8.6,-21.7Z" class="g2_1" />
<path fill-rule="evenodd" d="M782.8,651.5c-1.4,0.4,-2.8,0.8,-4.2,1.4c-1.5,0.6,-3.1,1.4,-4.4,0.1c-1.3,-1.3,-0.5,-2.9,0.2,-4.3c2,-3.8,3.8,-7.6,5.9,-11.3c2,-3.7,4.1,-4,7.5,-1.7c0.6,0.3,1.3,0.5,1.9,0.5c0.7,0.1,1.5,-0.1,2.2,0.1c0.8,0.3,1.9,0.8,2.1,1.4c0.2,0.7,-0.3,1.7,-0.7,2.4c-0.6,0.8,-1.4,1.4,-2.3,1.9c-2.2,1.4,-3.4,3.4,-3.7,6.1c-0.3,3,-1.5,3.8,-4.5,3.4Z" class="g2_1" />
<path fill-rule="evenodd" d="M689.4,693.9c-0.3,0.8,-0.5,1.6,-0.8,2.3c-6.1,14.6,-12.2,29.1,-18.1,43.6c-2.4,5.9,-4.3,12,-6.5,17.9c-0.6,1.4,-1.4,2.8,-2.2,4c-0.8,1.4,-2.2,1.7,-3.4,0.9c-1.3,-0.8,-1.4,-1.9,-0.4,-3.5c4.9,-7.9,9.3,-16.2,12.8,-24.8c5.4,-13,11,-25.8,16.5,-38.6c0.3,-0.8,0.9,-1.4,1.4,-2.1c0.2,0.1,0.5,0.2,0.7,0.3Z" class="g2_1" />
<path fill-rule="evenodd" d="M891.4,699.3c-2.2,-0.1,-3.2,-1.8,-2.2,-3.4c1.8,-2.8,4,-5.2,7.4,-6.2c0.5,-0.1,1.1,0.2,1.7,0.3c-0.2,0.5,-0.3,1,-0.4,1.5c-0.3,1.3,-0.8,2.6,-0.7,3.9c0,1.3,-0.3,1.9,-1.4,2.2c-1.6,0.7,-3.2,1.3,-4.4,1.7Z" class="g2_1" />
<path fill-rule="evenodd" d="M656.6,767.8c-0.7,2.9,-1.3,5.8,-2.2,8.6c-0.5,1.3,-1.3,2.6,-2.3,3.7c-0.3,0.5,-1.4,0.7,-2,0.5c-0.4,-0.2,-0.6,-1.2,-0.7,-1.9c0,-0.4,0.2,-0.8,0.4,-1.2c2.1,-3.1,4.1,-6.1,6.2,-9.2c0.2,-0.2,0.4,-0.4,0.6,-0.5Z" class="g2_1" />
<path fill-rule="evenodd" d="M941,670.9c-1,-0.4,-2.1,-0.6,-3.1,-1.1c-0.4,-0.2,-1,-0.9,-0.9,-1.3c0,-0.5,0.7,-1,1.2,-1.2c0.6,-0.4,1.5,-0.5,2.1,-0.9c1.5,-0.8,2.9,-1,4.1,0.1c0.5,0.5,0.6,2,0.2,2.5c-0.8,0.9,-2.1,1.5,-3.2,2.2c-0.2,-0.1,-0.3,-0.2,-0.4,-0.3Z" class="g2_1" />

<path d="M0,1216
L0,0
L1607,0
L1607,1216 z "
fill="none"
stroke-width="1.0"
stroke-linecap="butt"
stroke-linejoin="miter"
stroke="#000000" />
<title>NIGHT PIZZA_LOGO_SUPPLEMENTARY Page1</title>
</svg>
