<?xml version="1.0" encoding="utf-8"?>
<!-- Generator: Adobe Illustrator 19.0.0, SVG Export Plug-In . SVG Version: 6.00 Build 0)  -->
<svg version="1.1" id="Layer_1" xmlns="http://www.w3.org/2000/svg" xmlns:xlink="http://www.w3.org/1999/xlink" x="0px" y="0px"
	 viewBox="-148.2 122.5 535 303.6" style="enable-background:new -148.2 122.5 535 303.6;" xml:space="preserve">
<style type="text/css">
	.st0{fill:#0C1D4C;}
</style>
<polygon id="XMLID_12_" class="st0" points="95.1,265.1 117.5,242.6 139.9,265.1 117.5,296.8 "/>
<path id="XMLID_11_" class="st0" d="M-16.5,122.5c-2.4,0-4.8,0.1-7.2,0.3l0,0h-124.5l16.7,35.7h38.9H-21h5.8l0,0
	c34,0.7,61.5,28.6,61.5,62.7c0,34.6-28.2,62.8-62.8,62.8s-62.8-28.2-62.8-62.8c0-15.7,5.8-30.1,15.4-41.1h-42.3
	c-5.8,12.5-9,26.5-9,41.1c0,54.5,44.3,98.8,98.8,98.8s98.8-44.3,98.8-98.8S38,122.5-16.5,122.5z"/>
<path id="XMLID_9_" class="st0" d="M-16.5,320c54.5,0,98.8-44.3,98.8-98.8"/>
<path id="XMLID_5_" class="st0" d="M255.1,122.5c2.4,0,4.8,0.1,7.2,0.3l0,0h124.5l-16.7,35.7h-38.9h-71.7h-5.8l0,0
	c-34,0.7-61.5,28.6-61.5,62.7c0,34.6,28.2,62.8,62.8,62.8s62.8-28.2,62.8-62.8c0-15.7-5.8-30.1-15.4-41.1h42.4
	c5.8,12.5,9,26.5,9,41.1c0,54.5-44.3,98.8-98.8,98.8s-98.8-44.3-98.8-98.8S200.6,122.5,255.1,122.5z"/>
<g id="XMLID_2_">
	<path id="XMLID_20_" class="st0" d="M-85,399c-4.9-2.6-8.7-6.1-11.6-10.6c-2.9-4.5-4.3-9.6-4.3-15.1c0-4.2,0.8-8.1,2.5-11.7
		s4-6.7,6.9-9.4c3-2.7,6.4-4.7,10.1-6.2c3.9-1.4,7.8-2.1,11.9-2.1c4.1,0,8,0.7,11.9,2.1c3.8,1.4,7.1,3.4,10.1,6.1s5.3,5.9,6.9,9.4
		c1.7,3.6,2.5,7.5,2.5,11.7c0,4.3-0.8,8.2-2.5,11.7c-1.6,3.6-4,6.7-7,9.5c-3,2.7-6.4,4.8-10.1,6.2c-3.8,1.5-7.7,2.2-11.9,2.2
		C-75,402.8-80.1,401.5-85,399z M-79.5,383.1c2.8,2.8,6.2,4.1,10,4.1c3.9,0,7.3-1.4,10.1-4.1c2.9-2.8,4.3-6,4.3-9.9
		c0-2.5-0.7-4.8-2-6.9s-3.1-3.8-5.3-5c-2.2-1.3-4.5-1.9-7.1-1.9c-2.5,0-4.8,0.6-7,1.9s-4,2.9-5.3,5s-2,4.4-2,6.9
		C-83.8,377.1-82.4,380.4-79.5,383.1z"/>
	<path id="XMLID_23_" class="st0" d="M-1.7,379.4v-33.3h17.2v33.3c0.3,5,2.5,7.6,6.5,7.8h1c4.4-0.1,6.5-3.2,6.5-9.1v-32h17.2v32
		c0,15.6-7.9,23.8-23.7,24.6h-1c-6.3-0.4-11.3-1.9-15.1-4.5c-3.8,2.6-8.8,4.2-15.1,4.5h-1c-15.8-0.9-23.7-9.1-23.7-24.6v-32h17.2v32
		c0,5.9,2.2,8.9,6.5,9.1h1C-4.2,387.1-2,384.5-1.7,379.4z"/>
	<path id="XMLID_25_" class="st0" d="M51.6,324.9l17.1-0.1v76.1l-17.1,0.2V324.9z"/>
</g>
<g id="XMLID_28_">
	<path id="XMLID_3_" class="st0" d="M120.8,348h3c6.4,0,12.3,2.8,17.8,8.4c4.3,5.2,6.4,10.5,6.4,15.9v2.6c0,0.9-0.1,2.1-0.3,3.5
		c0.2,0.8,0.3,1.4,0.3,2v21.1c0,7.5-3.5,14.2-10.6,20c-4.9,3.1-9.5,4.6-13.7,4.6h-1c-3.4-0.4-5.1-2.1-5.1-5.1c0-2.1,1.1-3.6,3.3-4.5
		c0.9-0.3,2.9-0.6,5.9-1c3.3-1.2,5.8-2.9,7.3-5c2.5-2.8,3.8-5.9,3.8-9.4V394c-4.8,3.4-9.5,5.1-14.2,5.1h-2.6
		c-6.6,0-12.8-3.1-18.7-9.3c-3.7-5.3-5.6-10.2-5.6-14.9v-3c0-5.8,2.6-11.5,7.8-17.2C110.2,350.3,115.6,348,120.8,348z M106.8,373.6
		c0,4.8,2.1,8.9,6.3,12.4c2.8,2.1,5.7,3.1,8.8,3.1h1.3c5.6,0,10-2.9,13.4-8.8c1-2,1.5-4.2,1.5-6.4v-0.7c0-5.7-2.8-10.2-8.4-13.5
		c-2.6-1.2-4.9-1.8-7.1-1.8c-5.3,0-9.8,2.5-13.4,7.6C107.6,368.4,106.8,371.1,106.8,373.6z"/>
	<path id="XMLID_7_" class="st0" d="M175.2,347.1h1.3c3.4,0.4,5.1,2.1,5.1,5.1c0,2.1-1.1,3.6-3.3,4.5l-6.4,1.2
		c-4.2,1.6-7.2,4.3-9.3,8.3c-0.9,2.2-1.3,4.2-1.3,5.9v18.5c0,3.5-0.7,5.6-2.1,6.4c-0.9,0.7-2,1-3.1,1c-2.8,0-4.4-1.7-4.8-5.1v-21.6
		c0-5.8,2.6-11.5,7.8-17.2C164.5,349.4,169.9,347.1,175.2,347.1z"/>
	<path id="XMLID_10_" class="st0" d="M208.5,346.8h3c6.4,0,12.3,2.8,17.8,8.4c4.3,5.2,6.4,10.5,6.4,15.9v2.6
		c0,6.3-2.8,12.3-8.4,17.8c-5.3,4.3-10.5,6.4-15.9,6.4h-2.6c-6.6,0-12.8-3.1-18.7-9.3c-3.7-5.3-5.6-10.2-5.6-14.9v-3
		c0-5.8,2.6-11.5,7.8-17.2C197.9,349.1,203.3,346.8,208.5,346.8z M194.5,372.4c0,4.8,2.1,8.9,6.3,12.4c2.8,2.1,5.7,3.1,8.8,3.1h1.3
		c5.6,0,10-2.9,13.4-8.8c1-2,1.5-4.2,1.5-6.4V372c0-5.7-2.8-10.2-8.4-13.5c-2.6-1.2-4.9-1.8-7.1-1.8c-5.3,0-9.8,2.5-13.4,7.6
		C195.3,367.2,194.5,369.9,194.5,372.4z"/>
	<path id="XMLID_15_" class="st0" d="M249.8,393.2c-1.6-1.4-2.5-2.1-2.6-2.1c-5.4-6.1-8.1-12.4-8.1-18.7v-21.6c0.9-2.6,2.3-4,4.1-4
		h2.1c2.4,0.9,3.6,2.5,3.6,5v16.8c0,4.9,0.8,8.7,2.5,11.4c3.6,5.5,8,8.3,13.2,8.3c3.9,0,7.5-1.7,10.7-5c3.3-3.1,5-8.3,5-15.5v-15.9
		c0.4-3.4,2-5.1,4.8-5.1h1c2.6,0.9,4,2.3,4,4.1v22.8c0,2.1-0.6,4.5-1.7,7.3c-0.9,3.3-3.4,7-7.4,11.1c-5.1,4-9.6,5.9-13.4,5.9h-5.9
		C257.8,397.8,253.9,396.2,249.8,393.2z"/>
	<path id="XMLID_17_" class="st0" d="M319.7,346.5h3c6.4,0,12.3,2.8,17.8,8.4c4.3,5.2,6.4,10.5,6.4,15.9v2.6
		c0,6.3-2.8,12.3-8.4,17.8c-5.3,4.3-10.5,6.4-15.9,6.4H320c-4.7,0-9.4-1.7-14.2-5.1h-0.2v21.3c-0.4,3.4-2.1,5.1-5.1,5.1
		c-2.1,0-3.6-1.1-4.5-3.3c-0.3-0.7-0.5-2.6-0.5-5.8v-33.2c0-7.3,0.7-12.2,2.1-14.7c2.4-5.9,6.8-10.4,13.2-13.5
		C314.6,347.2,317.5,346.5,319.7,346.5z M305.6,372.2c0,4.8,2.1,8.9,6.3,12.4c2.8,2.1,5.7,3.1,8.8,3.1h1.3c5.6,0,10-2.9,13.4-8.8
		c1-2,1.5-4.2,1.5-6.4v-0.7c0-5.7-2.8-10.2-8.4-13.5c-2.6-1.2-4.9-1.8-7.1-1.8c-5.3,0-9.8,2.5-13.4,7.6
		C306.4,367,305.6,369.7,305.6,372.2z"/>
</g>
</svg>
