<?xml version="1.0" encoding="UTF-8"?>
<svg xmlns="http://www.w3.org/2000/svg" xmlns:xlink="http://www.w3.org/1999/xlink" width="595.2756pt" height="841.8898pt" viewBox="0 0 595.2756 841.8898" version="1.1">
<defs>
<clipPath id="clip1">
  <path d="M 82 190 L 177 190 L 177 218 L 82 218 Z M 82 190 "/>
</clipPath>
<clipPath id="clip2">
  <path d="M 171.238281 217.761719 C 146.371094 217.761719 88.453125 217.761719 85.671875 217.761719 C 81.878906 217.761719 80.832031 216.851562 87.332031 214.742188 C 96.867188 211.332031 109.746094 204.785156 124.113281 193.578125 C 127.53125 190.929688 129.570312 190.152344 134.359375 191.265625 C 149.742188 195.492188 164.015625 204.46875 172.78125 210.796875 C 176.660156 213.664062 177.390625 214.933594 176.734375 216.335938 C 176.335938 217.210938 175.074219 217.761719 171.238281 217.761719 "/>
</clipPath>
<linearGradient id="linear0" gradientUnits="userSpaceOnUse" x1="0.298471" y1="0" x2="1.003215" y2="0" gradientTransform="matrix(-137.01543,0,0,79.68416,218.2864,138.0787)">
<stop offset="0" style="stop-color:rgb(35.456848%,79.241943%,95.951843%);stop-opacity:1;"/>
<stop offset="0.0078125" style="stop-color:rgb(35.279846%,79.185486%,95.941162%);stop-opacity:1;"/>
<stop offset="0.015625" style="stop-color:rgb(34.925842%,79.071045%,95.9198%);stop-opacity:1;"/>
<stop offset="0.0234375" style="stop-color:rgb(34.571838%,78.95813%,95.896912%);stop-opacity:1;"/>
<stop offset="0.03125" style="stop-color:rgb(34.217834%,78.843689%,95.874023%);stop-opacity:1;"/>
<stop offset="0.0390625" style="stop-color:rgb(33.863831%,78.729248%,95.852661%);stop-opacity:1;"/>
<stop offset="0.046875" style="stop-color:rgb(33.509827%,78.616333%,95.829773%);stop-opacity:1;"/>
<stop offset="0.0546875" style="stop-color:rgb(33.155823%,78.501892%,95.808411%);stop-opacity:1;"/>
<stop offset="0.0625" style="stop-color:rgb(32.801819%,78.388977%,95.785522%);stop-opacity:1;"/>
<stop offset="0.0703125" style="stop-color:rgb(32.447815%,78.274536%,95.76416%);stop-opacity:1;"/>
<stop offset="0.078125" style="stop-color:rgb(32.093811%,78.160095%,95.741272%);stop-opacity:1;"/>
<stop offset="0.0859375" style="stop-color:rgb(31.739807%,78.04718%,95.71991%);stop-opacity:1;"/>
<stop offset="0.09375" style="stop-color:rgb(31.385803%,77.932739%,95.697021%);stop-opacity:1;"/>
<stop offset="0.101562" style="stop-color:rgb(31.031799%,77.819824%,95.675659%);stop-opacity:1;"/>
<stop offset="0.109375" style="stop-color:rgb(30.677795%,77.705383%,95.652771%);stop-opacity:1;"/>
<stop offset="0.117187" style="stop-color:rgb(30.323792%,77.590942%,95.629883%);stop-opacity:1;"/>
<stop offset="0.125" style="stop-color:rgb(29.969788%,77.478027%,95.608521%);stop-opacity:1;"/>
<stop offset="0.132812" style="stop-color:rgb(29.615784%,77.363586%,95.585632%);stop-opacity:1;"/>
<stop offset="0.140625" style="stop-color:rgb(29.26178%,77.249146%,95.56427%);stop-opacity:1;"/>
<stop offset="0.148437" style="stop-color:rgb(28.907776%,77.13623%,95.541382%);stop-opacity:1;"/>
<stop offset="0.15625" style="stop-color:rgb(28.553772%,77.02179%,95.52002%);stop-opacity:1;"/>
<stop offset="0.164062" style="stop-color:rgb(28.199768%,76.908875%,95.497131%);stop-opacity:1;"/>
<stop offset="0.171875" style="stop-color:rgb(27.845764%,76.794434%,95.475769%);stop-opacity:1;"/>
<stop offset="0.179687" style="stop-color:rgb(27.49176%,76.679993%,95.452881%);stop-opacity:1;"/>
<stop offset="0.1875" style="stop-color:rgb(27.139282%,76.567078%,95.431519%);stop-opacity:1;"/>
<stop offset="0.195312" style="stop-color:rgb(26.785278%,76.452637%,95.40863%);stop-opacity:1;"/>
<stop offset="0.203125" style="stop-color:rgb(26.431274%,76.339722%,95.385742%);stop-opacity:1;"/>
<stop offset="0.210938" style="stop-color:rgb(26.077271%,76.225281%,95.36438%);stop-opacity:1;"/>
<stop offset="0.21875" style="stop-color:rgb(25.723267%,76.112366%,95.341492%);stop-opacity:1;"/>
<stop offset="0.226562" style="stop-color:rgb(25.369263%,75.997925%,95.320129%);stop-opacity:1;"/>
<stop offset="0.234375" style="stop-color:rgb(25.015259%,75.883484%,95.297241%);stop-opacity:1;"/>
<stop offset="0.242188" style="stop-color:rgb(24.661255%,75.770569%,95.275879%);stop-opacity:1;"/>
<stop offset="0.25" style="stop-color:rgb(24.307251%,75.656128%,95.252991%);stop-opacity:1;"/>
<stop offset="0.257812" style="stop-color:rgb(23.953247%,75.543213%,95.231628%);stop-opacity:1;"/>
<stop offset="0.265625" style="stop-color:rgb(23.599243%,75.428772%,95.20874%);stop-opacity:1;"/>
<stop offset="0.273438" style="stop-color:rgb(23.245239%,75.314331%,95.187378%);stop-opacity:1;"/>
<stop offset="0.28125" style="stop-color:rgb(22.891235%,75.201416%,95.16449%);stop-opacity:1;"/>
<stop offset="0.289062" style="stop-color:rgb(22.537231%,75.086975%,95.141602%);stop-opacity:1;"/>
<stop offset="0.296875" style="stop-color:rgb(22.183228%,74.97406%,95.120239%);stop-opacity:1;"/>
<stop offset="0.304687" style="stop-color:rgb(21.829224%,74.859619%,95.097351%);stop-opacity:1;"/>
<stop offset="0.3125" style="stop-color:rgb(21.47522%,74.745178%,95.075989%);stop-opacity:1;"/>
<stop offset="0.320312" style="stop-color:rgb(21.121216%,74.632263%,95.053101%);stop-opacity:1;"/>
<stop offset="0.328125" style="stop-color:rgb(20.767212%,74.517822%,95.031738%);stop-opacity:1;"/>
<stop offset="0.335938" style="stop-color:rgb(20.413208%,74.403381%,95.00885%);stop-opacity:1;"/>
<stop offset="0.34375" style="stop-color:rgb(20.059204%,74.290466%,94.987488%);stop-opacity:1;"/>
<stop offset="0.351562" style="stop-color:rgb(19.7052%,74.176025%,94.9646%);stop-opacity:1;"/>
<stop offset="0.359375" style="stop-color:rgb(19.351196%,74.06311%,94.943237%);stop-opacity:1;"/>
<stop offset="0.367188" style="stop-color:rgb(18.997192%,73.948669%,94.920349%);stop-opacity:1;"/>
<stop offset="0.375" style="stop-color:rgb(18.643188%,73.834229%,94.897461%);stop-opacity:1;"/>
<stop offset="0.382813" style="stop-color:rgb(18.289185%,73.721313%,94.876099%);stop-opacity:1;"/>
<stop offset="0.390625" style="stop-color:rgb(17.936707%,73.608398%,94.85321%);stop-opacity:1;"/>
<stop offset="0.398437" style="stop-color:rgb(17.582703%,73.493958%,94.831848%);stop-opacity:1;"/>
<stop offset="0.40625" style="stop-color:rgb(17.228699%,73.379517%,94.80896%);stop-opacity:1;"/>
<stop offset="0.414062" style="stop-color:rgb(16.874695%,73.266602%,94.787598%);stop-opacity:1;"/>
<stop offset="0.421875" style="stop-color:rgb(16.520691%,73.152161%,94.764709%);stop-opacity:1;"/>
<stop offset="0.429688" style="stop-color:rgb(16.166687%,73.03772%,94.743347%);stop-opacity:1;"/>
<stop offset="0.4375" style="stop-color:rgb(15.812683%,72.924805%,94.720459%);stop-opacity:1;"/>
<stop offset="0.445312" style="stop-color:rgb(15.458679%,72.810364%,94.699097%);stop-opacity:1;"/>
<stop offset="0.453125" style="stop-color:rgb(15.104675%,72.697449%,94.676208%);stop-opacity:1;"/>
<stop offset="0.460938" style="stop-color:rgb(14.750671%,72.583008%,94.654846%);stop-opacity:1;"/>
<stop offset="0.46875" style="stop-color:rgb(14.396667%,72.468567%,94.631958%);stop-opacity:1;"/>
<stop offset="0.476563" style="stop-color:rgb(14.042664%,72.355652%,94.60907%);stop-opacity:1;"/>
<stop offset="0.484375" style="stop-color:rgb(13.68866%,72.241211%,94.587708%);stop-opacity:1;"/>
<stop offset="0.492187" style="stop-color:rgb(13.334656%,72.128296%,94.564819%);stop-opacity:1;"/>
<stop offset="0.5" style="stop-color:rgb(12.980652%,72.013855%,94.543457%);stop-opacity:1;"/>
<stop offset="0.507812" style="stop-color:rgb(12.626648%,71.899414%,94.520569%);stop-opacity:1;"/>
<stop offset="0.515625" style="stop-color:rgb(12.272644%,71.786499%,94.499207%);stop-opacity:1;"/>
<stop offset="0.523437" style="stop-color:rgb(11.91864%,71.672058%,94.476318%);stop-opacity:1;"/>
<stop offset="0.53125" style="stop-color:rgb(11.564636%,71.559143%,94.454956%);stop-opacity:1;"/>
<stop offset="0.539062" style="stop-color:rgb(11.210632%,71.444702%,94.432068%);stop-opacity:1;"/>
<stop offset="0.546875" style="stop-color:rgb(10.856628%,71.330261%,94.410706%);stop-opacity:1;"/>
<stop offset="0.554688" style="stop-color:rgb(10.502625%,71.217346%,94.387817%);stop-opacity:1;"/>
<stop offset="0.5625" style="stop-color:rgb(10.148621%,71.102905%,94.364929%);stop-opacity:1;"/>
<stop offset="0.570312" style="stop-color:rgb(9.794617%,70.988464%,94.343567%);stop-opacity:1;"/>
<stop offset="0.578125" style="stop-color:rgb(9.440613%,70.875549%,94.320679%);stop-opacity:1;"/>
<stop offset="0.585938" style="stop-color:rgb(9.086609%,70.761108%,94.299316%);stop-opacity:1;"/>
<stop offset="0.59375" style="stop-color:rgb(8.734131%,70.648193%,94.276428%);stop-opacity:1;"/>
<stop offset="0.601562" style="stop-color:rgb(8.380127%,70.533752%,94.255066%);stop-opacity:1;"/>
<stop offset="0.609375" style="stop-color:rgb(8.026123%,70.420837%,94.232178%);stop-opacity:1;"/>
<stop offset="0.617187" style="stop-color:rgb(7.672119%,70.306396%,94.210815%);stop-opacity:1;"/>
<stop offset="0.625" style="stop-color:rgb(7.318115%,70.193481%,94.187927%);stop-opacity:1;"/>
<stop offset="0.632812" style="stop-color:rgb(6.964111%,70.079041%,94.166565%);stop-opacity:1;"/>
<stop offset="0.640625" style="stop-color:rgb(6.610107%,69.9646%,94.143677%);stop-opacity:1;"/>
<stop offset="0.648438" style="stop-color:rgb(6.256104%,69.851685%,94.120789%);stop-opacity:1;"/>
<stop offset="0.65625" style="stop-color:rgb(5.9021%,69.737244%,94.099426%);stop-opacity:1;"/>
<stop offset="0.664062" style="stop-color:rgb(5.548096%,69.622803%,94.076538%);stop-opacity:1;"/>
<stop offset="0.671875" style="stop-color:rgb(5.194092%,69.509888%,94.055176%);stop-opacity:1;"/>
<stop offset="0.679688" style="stop-color:rgb(4.840088%,69.395447%,94.032288%);stop-opacity:1;"/>
<stop offset="0.6875" style="stop-color:rgb(4.486084%,69.282532%,94.010925%);stop-opacity:1;"/>
<stop offset="0.695313" style="stop-color:rgb(4.13208%,69.168091%,93.988037%);stop-opacity:1;"/>
<stop offset="0.703125" style="stop-color:rgb(3.778076%,69.05365%,93.966675%);stop-opacity:1;"/>
<stop offset="0.710937" style="stop-color:rgb(3.424072%,68.940735%,93.943787%);stop-opacity:1;"/>
<stop offset="0.71875" style="stop-color:rgb(3.070068%,68.826294%,93.922424%);stop-opacity:1;"/>
<stop offset="0.726562" style="stop-color:rgb(2.716064%,68.713379%,93.899536%);stop-opacity:1;"/>
<stop offset="0.734375" style="stop-color:rgb(2.362061%,68.598938%,93.876648%);stop-opacity:1;"/>
<stop offset="0.742188" style="stop-color:rgb(2.008057%,68.484497%,93.855286%);stop-opacity:1;"/>
<stop offset="0.75" style="stop-color:rgb(1.654053%,68.371582%,93.832397%);stop-opacity:1;"/>
<stop offset="0.757812" style="stop-color:rgb(1.300049%,68.257141%,93.811035%);stop-opacity:1;"/>
<stop offset="0.765625" style="stop-color:rgb(0.946045%,68.144226%,93.788147%);stop-opacity:1;"/>
<stop offset="0.773438" style="stop-color:rgb(0.592041%,68.029785%,93.766785%);stop-opacity:1;"/>
<stop offset="0.78125" style="stop-color:rgb(0.238037%,67.915344%,93.743896%);stop-opacity:1;"/>
<stop offset="0.8125" style="stop-color:rgb(0.0305176%,67.849731%,93.731689%);stop-opacity:1;"/>
<stop offset="0.875" style="stop-color:rgb(0%,67.83905%,93.728638%);stop-opacity:1;"/>
<stop offset="1" style="stop-color:rgb(0%,67.83905%,93.728638%);stop-opacity:1;"/>
</linearGradient>
<clipPath id="clip3">
  <path d="M 126 130 L 179 130 L 179 213 L 126 213 Z M 126 130 "/>
</clipPath>
<clipPath id="clip4">
  <path d="M 129.125 130.175781 C 130.234375 129.671875 131.546875 130.945312 132.878906 133.242188 C 133.546875 134.40625 175.359375 206.863281 176.726562 209.183594 C 179.71875 214.265625 177.707031 212.644531 173.828125 209.546875 C 166.089844 202.957031 153.222656 194.488281 136.074219 187.601562 C 131.535156 185.726562 130.542969 184.125 129.339844 180.25 C 124.992188 163.816406 125.976562 145.71875 127.191406 135.074219 C 127.5 132.3125 127.984375 130.683594 129.125 130.175781 "/>
</clipPath>
<linearGradient id="linear1" gradientUnits="userSpaceOnUse" x1="0.269752" y1="0" x2="0.878265" y2="0" gradientTransform="matrix(82.62356,143.23744,129.88629,-74.92223,67.0992,111.5708)">
<stop offset="0" style="stop-color:rgb(33.073425%,78.475952%,95.802307%);stop-opacity:1;"/>
<stop offset="0.0078125" style="stop-color:rgb(32.965088%,78.440857%,95.796204%);stop-opacity:1;"/>
<stop offset="0.015625" style="stop-color:rgb(32.746887%,78.370667%,95.782471%);stop-opacity:1;"/>
<stop offset="0.0234375" style="stop-color:rgb(32.528687%,78.300476%,95.768738%);stop-opacity:1;"/>
<stop offset="0.03125" style="stop-color:rgb(32.310486%,78.230286%,95.755005%);stop-opacity:1;"/>
<stop offset="0.0390625" style="stop-color:rgb(32.092285%,78.160095%,95.741272%);stop-opacity:1;"/>
<stop offset="0.046875" style="stop-color:rgb(31.874084%,78.089905%,95.727539%);stop-opacity:1;"/>
<stop offset="0.0546875" style="stop-color:rgb(31.655884%,78.019714%,95.713806%);stop-opacity:1;"/>
<stop offset="0.0625" style="stop-color:rgb(31.436157%,77.949524%,95.700073%);stop-opacity:1;"/>
<stop offset="0.0703125" style="stop-color:rgb(31.217957%,77.879333%,95.68634%);stop-opacity:1;"/>
<stop offset="0.078125" style="stop-color:rgb(30.999756%,77.809143%,95.672607%);stop-opacity:1;"/>
<stop offset="0.0859375" style="stop-color:rgb(30.781555%,77.738953%,95.658875%);stop-opacity:1;"/>
<stop offset="0.09375" style="stop-color:rgb(30.563354%,77.668762%,95.645142%);stop-opacity:1;"/>
<stop offset="0.101562" style="stop-color:rgb(30.345154%,77.598572%,95.631409%);stop-opacity:1;"/>
<stop offset="0.109375" style="stop-color:rgb(30.126953%,77.528381%,95.617676%);stop-opacity:1;"/>
<stop offset="0.117188" style="stop-color:rgb(29.908752%,77.458191%,95.603943%);stop-opacity:1;"/>
<stop offset="0.125" style="stop-color:rgb(29.690552%,77.388%,95.59021%);stop-opacity:1;"/>
<stop offset="0.132812" style="stop-color:rgb(29.472351%,77.31781%,95.576477%);stop-opacity:1;"/>
<stop offset="0.140625" style="stop-color:rgb(29.25415%,77.24762%,95.562744%);stop-opacity:1;"/>
<stop offset="0.148438" style="stop-color:rgb(29.03595%,77.177429%,95.550537%);stop-opacity:1;"/>
<stop offset="0.15625" style="stop-color:rgb(28.817749%,77.107239%,95.536804%);stop-opacity:1;"/>
<stop offset="0.164062" style="stop-color:rgb(28.599548%,77.037048%,95.523071%);stop-opacity:1;"/>
<stop offset="0.171875" style="stop-color:rgb(28.381348%,76.966858%,95.509338%);stop-opacity:1;"/>
<stop offset="0.179687" style="stop-color:rgb(28.163147%,76.896667%,95.495605%);stop-opacity:1;"/>
<stop offset="0.1875" style="stop-color:rgb(27.94342%,76.826477%,95.481873%);stop-opacity:1;"/>
<stop offset="0.195313" style="stop-color:rgb(27.72522%,76.756287%,95.46814%);stop-opacity:1;"/>
<stop offset="0.203125" style="stop-color:rgb(27.507019%,76.686096%,95.454407%);stop-opacity:1;"/>
<stop offset="0.210937" style="stop-color:rgb(27.288818%,76.615906%,95.440674%);stop-opacity:1;"/>
<stop offset="0.21875" style="stop-color:rgb(27.070618%,76.545715%,95.426941%);stop-opacity:1;"/>
<stop offset="0.226562" style="stop-color:rgb(26.852417%,76.475525%,95.413208%);stop-opacity:1;"/>
<stop offset="0.234375" style="stop-color:rgb(26.634216%,76.405334%,95.399475%);stop-opacity:1;"/>
<stop offset="0.242188" style="stop-color:rgb(26.416016%,76.335144%,95.385742%);stop-opacity:1;"/>
<stop offset="0.25" style="stop-color:rgb(26.197815%,76.264954%,95.372009%);stop-opacity:1;"/>
<stop offset="0.257812" style="stop-color:rgb(25.979614%,76.194763%,95.358276%);stop-opacity:1;"/>
<stop offset="0.265625" style="stop-color:rgb(25.761414%,76.124573%,95.344543%);stop-opacity:1;"/>
<stop offset="0.273438" style="stop-color:rgb(25.543213%,76.054382%,95.330811%);stop-opacity:1;"/>
<stop offset="0.28125" style="stop-color:rgb(25.325012%,75.984192%,95.317078%);stop-opacity:1;"/>
<stop offset="0.289062" style="stop-color:rgb(25.106812%,75.914001%,95.303345%);stop-opacity:1;"/>
<stop offset="0.296875" style="stop-color:rgb(24.888611%,75.843811%,95.289612%);stop-opacity:1;"/>
<stop offset="0.304687" style="stop-color:rgb(24.67041%,75.773621%,95.275879%);stop-opacity:1;"/>
<stop offset="0.3125" style="stop-color:rgb(24.450684%,75.701904%,95.262146%);stop-opacity:1;"/>
<stop offset="0.320312" style="stop-color:rgb(24.232483%,75.631714%,95.248413%);stop-opacity:1;"/>
<stop offset="0.328125" style="stop-color:rgb(24.014282%,75.561523%,95.23468%);stop-opacity:1;"/>
<stop offset="0.335937" style="stop-color:rgb(23.796082%,75.491333%,95.220947%);stop-opacity:1;"/>
<stop offset="0.34375" style="stop-color:rgb(23.577881%,75.421143%,95.207214%);stop-opacity:1;"/>
<stop offset="0.351562" style="stop-color:rgb(23.35968%,75.350952%,95.193481%);stop-opacity:1;"/>
<stop offset="0.359375" style="stop-color:rgb(23.141479%,75.282288%,95.179749%);stop-opacity:1;"/>
<stop offset="0.367187" style="stop-color:rgb(22.923279%,75.212097%,95.166016%);stop-opacity:1;"/>
<stop offset="0.375" style="stop-color:rgb(22.705078%,75.141907%,95.152283%);stop-opacity:1;"/>
<stop offset="0.382812" style="stop-color:rgb(22.486877%,75.071716%,95.13855%);stop-opacity:1;"/>
<stop offset="0.390625" style="stop-color:rgb(22.268677%,75.001526%,95.124817%);stop-opacity:1;"/>
<stop offset="0.398438" style="stop-color:rgb(22.050476%,74.931335%,95.111084%);stop-opacity:1;"/>
<stop offset="0.40625" style="stop-color:rgb(21.832275%,74.861145%,95.098877%);stop-opacity:1;"/>
<stop offset="0.414062" style="stop-color:rgb(21.614075%,74.790955%,95.085144%);stop-opacity:1;"/>
<stop offset="0.421875" style="stop-color:rgb(21.395874%,74.720764%,95.071411%);stop-opacity:1;"/>
<stop offset="0.429687" style="stop-color:rgb(21.177673%,74.650574%,95.057678%);stop-opacity:1;"/>
<stop offset="0.4375" style="stop-color:rgb(20.957947%,74.578857%,95.043945%);stop-opacity:1;"/>
<stop offset="0.445312" style="stop-color:rgb(20.739746%,74.508667%,95.030212%);stop-opacity:1;"/>
<stop offset="0.453125" style="stop-color:rgb(20.521545%,74.438477%,95.016479%);stop-opacity:1;"/>
<stop offset="0.460937" style="stop-color:rgb(20.303345%,74.368286%,95.002747%);stop-opacity:1;"/>
<stop offset="0.46875" style="stop-color:rgb(20.085144%,74.298096%,94.989014%);stop-opacity:1;"/>
<stop offset="0.476562" style="stop-color:rgb(19.866943%,74.227905%,94.975281%);stop-opacity:1;"/>
<stop offset="0.484375" style="stop-color:rgb(19.648743%,74.157715%,94.961548%);stop-opacity:1;"/>
<stop offset="0.492187" style="stop-color:rgb(19.430542%,74.087524%,94.947815%);stop-opacity:1;"/>
<stop offset="0.5" style="stop-color:rgb(19.212341%,74.017334%,94.934082%);stop-opacity:1;"/>
<stop offset="0.507812" style="stop-color:rgb(18.994141%,73.947144%,94.920349%);stop-opacity:1;"/>
<stop offset="0.515625" style="stop-color:rgb(18.77594%,73.876953%,94.906616%);stop-opacity:1;"/>
<stop offset="0.523438" style="stop-color:rgb(18.557739%,73.806763%,94.892883%);stop-opacity:1;"/>
<stop offset="0.53125" style="stop-color:rgb(18.339539%,73.736572%,94.87915%);stop-opacity:1;"/>
<stop offset="0.539062" style="stop-color:rgb(18.121338%,73.666382%,94.865417%);stop-opacity:1;"/>
<stop offset="0.546875" style="stop-color:rgb(17.903137%,73.596191%,94.851685%);stop-opacity:1;"/>
<stop offset="0.554688" style="stop-color:rgb(17.684937%,73.526001%,94.837952%);stop-opacity:1;"/>
<stop offset="0.5625" style="stop-color:rgb(17.46521%,73.455811%,94.824219%);stop-opacity:1;"/>
<stop offset="0.570312" style="stop-color:rgb(17.247009%,73.38562%,94.810486%);stop-opacity:1;"/>
<stop offset="0.578125" style="stop-color:rgb(17.028809%,73.31543%,94.796753%);stop-opacity:1;"/>
<stop offset="0.585937" style="stop-color:rgb(16.810608%,73.245239%,94.78302%);stop-opacity:1;"/>
<stop offset="0.59375" style="stop-color:rgb(16.592407%,73.175049%,94.769287%);stop-opacity:1;"/>
<stop offset="0.601562" style="stop-color:rgb(16.374207%,73.104858%,94.755554%);stop-opacity:1;"/>
<stop offset="0.609375" style="stop-color:rgb(16.156006%,73.034668%,94.741821%);stop-opacity:1;"/>
<stop offset="0.617187" style="stop-color:rgb(15.937805%,72.964478%,94.728088%);stop-opacity:1;"/>
<stop offset="0.625" style="stop-color:rgb(15.719604%,72.894287%,94.714355%);stop-opacity:1;"/>
<stop offset="0.632812" style="stop-color:rgb(15.501404%,72.824097%,94.700623%);stop-opacity:1;"/>
<stop offset="0.640625" style="stop-color:rgb(15.283203%,72.753906%,94.68689%);stop-opacity:1;"/>
<stop offset="0.648438" style="stop-color:rgb(15.065002%,72.683716%,94.673157%);stop-opacity:1;"/>
<stop offset="0.65625" style="stop-color:rgb(14.846802%,72.613525%,94.659424%);stop-opacity:1;"/>
<stop offset="0.664062" style="stop-color:rgb(14.628601%,72.543335%,94.645691%);stop-opacity:1;"/>
<stop offset="0.671875" style="stop-color:rgb(14.4104%,72.473145%,94.633484%);stop-opacity:1;"/>
<stop offset="0.679687" style="stop-color:rgb(14.1922%,72.402954%,94.619751%);stop-opacity:1;"/>
<stop offset="0.6875" style="stop-color:rgb(13.972473%,72.332764%,94.606018%);stop-opacity:1;"/>
<stop offset="0.695312" style="stop-color:rgb(13.754272%,72.262573%,94.592285%);stop-opacity:1;"/>
<stop offset="0.703125" style="stop-color:rgb(13.536072%,72.192383%,94.578552%);stop-opacity:1;"/>
<stop offset="0.710937" style="stop-color:rgb(13.317871%,72.122192%,94.564819%);stop-opacity:1;"/>
<stop offset="0.71875" style="stop-color:rgb(13.09967%,72.052002%,94.551086%);stop-opacity:1;"/>
<stop offset="0.726562" style="stop-color:rgb(12.88147%,71.981812%,94.537354%);stop-opacity:1;"/>
<stop offset="0.734375" style="stop-color:rgb(12.663269%,71.911621%,94.523621%);stop-opacity:1;"/>
<stop offset="0.742187" style="stop-color:rgb(12.445068%,71.841431%,94.509888%);stop-opacity:1;"/>
<stop offset="0.75" style="stop-color:rgb(12.226868%,71.77124%,94.496155%);stop-opacity:1;"/>
<stop offset="0.757812" style="stop-color:rgb(12.008667%,71.70105%,94.482422%);stop-opacity:1;"/>
<stop offset="0.765625" style="stop-color:rgb(11.790466%,71.630859%,94.468689%);stop-opacity:1;"/>
<stop offset="0.773437" style="stop-color:rgb(11.572266%,71.560669%,94.454956%);stop-opacity:1;"/>
<stop offset="0.78125" style="stop-color:rgb(11.354065%,71.490479%,94.441223%);stop-opacity:1;"/>
<stop offset="0.789062" style="stop-color:rgb(11.135864%,71.420288%,94.42749%);stop-opacity:1;"/>
<stop offset="0.796875" style="stop-color:rgb(10.917664%,71.350098%,94.413757%);stop-opacity:1;"/>
<stop offset="0.804688" style="stop-color:rgb(10.699463%,71.279907%,94.400024%);stop-opacity:1;"/>
<stop offset="0.8125" style="stop-color:rgb(10.479736%,71.209717%,94.386292%);stop-opacity:1;"/>
<stop offset="0.820312" style="stop-color:rgb(10.261536%,71.139526%,94.372559%);stop-opacity:1;"/>
<stop offset="0.828125" style="stop-color:rgb(10.043335%,71.069336%,94.358826%);stop-opacity:1;"/>
<stop offset="0.835938" style="stop-color:rgb(9.825134%,70.999146%,94.345093%);stop-opacity:1;"/>
<stop offset="0.84375" style="stop-color:rgb(9.606934%,70.928955%,94.33136%);stop-opacity:1;"/>
<stop offset="0.851562" style="stop-color:rgb(9.388733%,70.858765%,94.317627%);stop-opacity:1;"/>
<stop offset="0.859375" style="stop-color:rgb(9.170532%,70.788574%,94.303894%);stop-opacity:1;"/>
<stop offset="0.867188" style="stop-color:rgb(8.952332%,70.718384%,94.290161%);stop-opacity:1;"/>
<stop offset="0.875" style="stop-color:rgb(8.734131%,70.648193%,94.276428%);stop-opacity:1;"/>
<stop offset="0.882812" style="stop-color:rgb(8.51593%,70.578003%,94.262695%);stop-opacity:1;"/>
<stop offset="0.890625" style="stop-color:rgb(8.297729%,70.507812%,94.248962%);stop-opacity:1;"/>
<stop offset="0.898438" style="stop-color:rgb(8.079529%,70.437622%,94.235229%);stop-opacity:1;"/>
<stop offset="0.90625" style="stop-color:rgb(7.861328%,70.367432%,94.221497%);stop-opacity:1;"/>
<stop offset="0.914062" style="stop-color:rgb(7.643127%,70.297241%,94.207764%);stop-opacity:1;"/>
<stop offset="0.921875" style="stop-color:rgb(7.424927%,70.227051%,94.194031%);stop-opacity:1;"/>
<stop offset="0.929688" style="stop-color:rgb(7.206726%,70.15686%,94.181824%);stop-opacity:1;"/>
<stop offset="0.9375" style="stop-color:rgb(6.987%,70.08667%,94.166565%);stop-opacity:1;"/>
<stop offset="0.945313" style="stop-color:rgb(6.768799%,70.016479%,94.154358%);stop-opacity:1;"/>
<stop offset="0.953125" style="stop-color:rgb(6.550598%,69.946289%,94.140625%);stop-opacity:1;"/>
<stop offset="0.960938" style="stop-color:rgb(6.332397%,69.876099%,94.126892%);stop-opacity:1;"/>
<stop offset="0.96875" style="stop-color:rgb(6.114197%,69.805908%,94.113159%);stop-opacity:1;"/>
<stop offset="0.976562" style="stop-color:rgb(5.895996%,69.735718%,94.099426%);stop-opacity:1;"/>
<stop offset="0.984375" style="stop-color:rgb(5.677795%,69.665527%,94.085693%);stop-opacity:1;"/>
<stop offset="0.992188" style="stop-color:rgb(5.459595%,69.595337%,94.07196%);stop-opacity:1;"/>
<stop offset="1" style="stop-color:rgb(5.241394%,69.525146%,94.058228%);stop-opacity:1;"/>
</linearGradient>
<clipPath id="clip5">
  <path d="M 78 130 L 127 130 L 127 216 L 78 216 Z M 78 130 "/>
</clipPath>
<clipPath id="clip6">
  <path d="M 80.164062 209.609375 C 92.078125 188.984375 122.582031 136.152344 124.007812 133.675781 C 127.828125 127.050781 126.015625 133.507812 125.519531 136.199219 C 123.703125 146.132812 122.644531 161.847656 125.191406 180.019531 C 125.878906 184.675781 125.234375 186.542969 122.085938 190.035156 C 109.957031 201.988281 93.792969 210.15625 84.023438 214.390625 C 81.222656 215.621094 79.742188 215.503906 79.085938 214.742188 C 78.441406 213.988281 78.492188 212.492188 80.164062 209.609375 "/>
</clipPath>
<linearGradient id="linear2" gradientUnits="userSpaceOnUse" x1="0.00148153" y1="0" x2="0.607841" y2="0" gradientTransform="matrix(84.46934,-144.30145,-129.13146,-75.58932,145.3745,255.0884)">
<stop offset="0" style="stop-color:rgb(44.934082%,82.290649%,96.546936%);stop-opacity:1;"/>
<stop offset="0.0078125" style="stop-color:rgb(44.827271%,82.255554%,96.539307%);stop-opacity:1;"/>
<stop offset="0.015625" style="stop-color:rgb(44.615173%,82.18689%,96.5271%);stop-opacity:1;"/>
<stop offset="0.0234375" style="stop-color:rgb(44.40155%,82.118225%,96.513367%);stop-opacity:1;"/>
<stop offset="0.03125" style="stop-color:rgb(44.187927%,82.049561%,96.499634%);stop-opacity:1;"/>
<stop offset="0.0390625" style="stop-color:rgb(43.974304%,81.980896%,96.485901%);stop-opacity:1;"/>
<stop offset="0.046875" style="stop-color:rgb(43.762207%,81.913757%,96.473694%);stop-opacity:1;"/>
<stop offset="0.0546875" style="stop-color:rgb(43.548584%,81.845093%,96.459961%);stop-opacity:1;"/>
<stop offset="0.0625" style="stop-color:rgb(43.334961%,81.776428%,96.446228%);stop-opacity:1;"/>
<stop offset="0.0703125" style="stop-color:rgb(43.122864%,81.707764%,96.432495%);stop-opacity:1;"/>
<stop offset="0.078125" style="stop-color:rgb(42.909241%,81.639099%,96.420288%);stop-opacity:1;"/>
<stop offset="0.0859375" style="stop-color:rgb(42.695618%,81.570435%,96.406555%);stop-opacity:1;"/>
<stop offset="0.09375" style="stop-color:rgb(42.483521%,81.50177%,96.392822%);stop-opacity:1;"/>
<stop offset="0.101563" style="stop-color:rgb(42.269897%,81.433105%,96.379089%);stop-opacity:1;"/>
<stop offset="0.109375" style="stop-color:rgb(42.056274%,81.364441%,96.366882%);stop-opacity:1;"/>
<stop offset="0.117188" style="stop-color:rgb(41.842651%,81.295776%,96.353149%);stop-opacity:1;"/>
<stop offset="0.125" style="stop-color:rgb(41.630554%,81.227112%,96.339417%);stop-opacity:1;"/>
<stop offset="0.132812" style="stop-color:rgb(41.416931%,81.158447%,96.325684%);stop-opacity:1;"/>
<stop offset="0.140625" style="stop-color:rgb(41.203308%,81.089783%,96.311951%);stop-opacity:1;"/>
<stop offset="0.148438" style="stop-color:rgb(40.991211%,81.022644%,96.299744%);stop-opacity:1;"/>
<stop offset="0.15625" style="stop-color:rgb(40.777588%,80.953979%,96.286011%);stop-opacity:1;"/>
<stop offset="0.164062" style="stop-color:rgb(40.563965%,80.885315%,96.272278%);stop-opacity:1;"/>
<stop offset="0.171875" style="stop-color:rgb(40.350342%,80.81665%,96.258545%);stop-opacity:1;"/>
<stop offset="0.179688" style="stop-color:rgb(40.138245%,80.747986%,96.246338%);stop-opacity:1;"/>
<stop offset="0.1875" style="stop-color:rgb(39.924622%,80.679321%,96.232605%);stop-opacity:1;"/>
<stop offset="0.195312" style="stop-color:rgb(39.710999%,80.610657%,96.218872%);stop-opacity:1;"/>
<stop offset="0.203125" style="stop-color:rgb(39.498901%,80.541992%,96.205139%);stop-opacity:1;"/>
<stop offset="0.210938" style="stop-color:rgb(39.285278%,80.473328%,96.192932%);stop-opacity:1;"/>
<stop offset="0.21875" style="stop-color:rgb(39.071655%,80.404663%,96.179199%);stop-opacity:1;"/>
<stop offset="0.226562" style="stop-color:rgb(38.859558%,80.335999%,96.165466%);stop-opacity:1;"/>
<stop offset="0.234375" style="stop-color:rgb(38.645935%,80.267334%,96.151733%);stop-opacity:1;"/>
<stop offset="0.242188" style="stop-color:rgb(38.432312%,80.198669%,96.139526%);stop-opacity:1;"/>
<stop offset="0.25" style="stop-color:rgb(38.218689%,80.130005%,96.125793%);stop-opacity:1;"/>
<stop offset="0.257812" style="stop-color:rgb(38.006592%,80.062866%,96.112061%);stop-opacity:1;"/>
<stop offset="0.265625" style="stop-color:rgb(37.792969%,79.994202%,96.098328%);stop-opacity:1;"/>
<stop offset="0.273438" style="stop-color:rgb(37.579346%,79.924011%,96.086121%);stop-opacity:1;"/>
<stop offset="0.28125" style="stop-color:rgb(37.367249%,79.856873%,96.072388%);stop-opacity:1;"/>
<stop offset="0.289062" style="stop-color:rgb(37.153625%,79.788208%,96.058655%);stop-opacity:1;"/>
<stop offset="0.296875" style="stop-color:rgb(36.940002%,79.719543%,96.044922%);stop-opacity:1;"/>
<stop offset="0.304688" style="stop-color:rgb(36.727905%,79.650879%,96.032715%);stop-opacity:1;"/>
<stop offset="0.3125" style="stop-color:rgb(36.514282%,79.582214%,96.018982%);stop-opacity:1;"/>
<stop offset="0.320312" style="stop-color:rgb(36.300659%,79.51355%,96.005249%);stop-opacity:1;"/>
<stop offset="0.328125" style="stop-color:rgb(36.087036%,79.444885%,95.991516%);stop-opacity:1;"/>
<stop offset="0.335938" style="stop-color:rgb(35.874939%,79.376221%,95.979309%);stop-opacity:1;"/>
<stop offset="0.34375" style="stop-color:rgb(35.661316%,79.307556%,95.965576%);stop-opacity:1;"/>
<stop offset="0.351562" style="stop-color:rgb(35.447693%,79.238892%,95.951843%);stop-opacity:1;"/>
<stop offset="0.359375" style="stop-color:rgb(35.235596%,79.171753%,95.93811%);stop-opacity:1;"/>
<stop offset="0.367188" style="stop-color:rgb(35.021973%,79.101562%,95.924377%);stop-opacity:1;"/>
<stop offset="0.375" style="stop-color:rgb(34.80835%,79.032898%,95.91217%);stop-opacity:1;"/>
<stop offset="0.382812" style="stop-color:rgb(34.594727%,78.964233%,95.898438%);stop-opacity:1;"/>
<stop offset="0.390625" style="stop-color:rgb(34.382629%,78.897095%,95.884705%);stop-opacity:1;"/>
<stop offset="0.398438" style="stop-color:rgb(34.169006%,78.82843%,95.870972%);stop-opacity:1;"/>
<stop offset="0.40625" style="stop-color:rgb(33.955383%,78.759766%,95.858765%);stop-opacity:1;"/>
<stop offset="0.414062" style="stop-color:rgb(33.743286%,78.691101%,95.845032%);stop-opacity:1;"/>
<stop offset="0.421875" style="stop-color:rgb(33.529663%,78.622437%,95.831299%);stop-opacity:1;"/>
<stop offset="0.429688" style="stop-color:rgb(33.31604%,78.553772%,95.817566%);stop-opacity:1;"/>
<stop offset="0.4375" style="stop-color:rgb(33.103943%,78.485107%,95.805359%);stop-opacity:1;"/>
<stop offset="0.445312" style="stop-color:rgb(32.89032%,78.416443%,95.791626%);stop-opacity:1;"/>
<stop offset="0.453125" style="stop-color:rgb(32.676697%,78.347778%,95.777893%);stop-opacity:1;"/>
<stop offset="0.460938" style="stop-color:rgb(32.463074%,78.279114%,95.76416%);stop-opacity:1;"/>
<stop offset="0.46875" style="stop-color:rgb(32.250977%,78.210449%,95.751953%);stop-opacity:1;"/>
<stop offset="0.476562" style="stop-color:rgb(32.037354%,78.141785%,95.73822%);stop-opacity:1;"/>
<stop offset="0.484375" style="stop-color:rgb(31.82373%,78.07312%,95.724487%);stop-opacity:1;"/>
<stop offset="0.492188" style="stop-color:rgb(31.611633%,78.005981%,95.710754%);stop-opacity:1;"/>
<stop offset="0.5" style="stop-color:rgb(31.39801%,77.937317%,95.698547%);stop-opacity:1;"/>
<stop offset="0.507812" style="stop-color:rgb(31.184387%,77.868652%,95.684814%);stop-opacity:1;"/>
<stop offset="0.515625" style="stop-color:rgb(30.970764%,77.799988%,95.671082%);stop-opacity:1;"/>
<stop offset="0.523438" style="stop-color:rgb(30.758667%,77.731323%,95.657349%);stop-opacity:1;"/>
<stop offset="0.53125" style="stop-color:rgb(30.545044%,77.662659%,95.645142%);stop-opacity:1;"/>
<stop offset="0.539062" style="stop-color:rgb(30.331421%,77.593994%,95.631409%);stop-opacity:1;"/>
<stop offset="0.546875" style="stop-color:rgb(30.119324%,77.52533%,95.617676%);stop-opacity:1;"/>
<stop offset="0.554688" style="stop-color:rgb(29.905701%,77.456665%,95.603943%);stop-opacity:1;"/>
<stop offset="0.5625" style="stop-color:rgb(29.692078%,77.388%,95.59021%);stop-opacity:1;"/>
<stop offset="0.570312" style="stop-color:rgb(29.47998%,77.319336%,95.578003%);stop-opacity:1;"/>
<stop offset="0.578125" style="stop-color:rgb(29.266357%,77.250671%,95.56427%);stop-opacity:1;"/>
<stop offset="0.585938" style="stop-color:rgb(29.052734%,77.182007%,95.550537%);stop-opacity:1;"/>
<stop offset="0.59375" style="stop-color:rgb(28.839111%,77.113342%,95.536804%);stop-opacity:1;"/>
<stop offset="0.601562" style="stop-color:rgb(28.627014%,77.046204%,95.524597%);stop-opacity:1;"/>
<stop offset="0.609375" style="stop-color:rgb(28.413391%,76.977539%,95.510864%);stop-opacity:1;"/>
<stop offset="0.617188" style="stop-color:rgb(28.199768%,76.908875%,95.497131%);stop-opacity:1;"/>
<stop offset="0.625" style="stop-color:rgb(27.987671%,76.84021%,95.483398%);stop-opacity:1;"/>
<stop offset="0.632812" style="stop-color:rgb(27.774048%,76.771545%,95.471191%);stop-opacity:1;"/>
<stop offset="0.640625" style="stop-color:rgb(27.560425%,76.702881%,95.457458%);stop-opacity:1;"/>
<stop offset="0.648438" style="stop-color:rgb(27.346802%,76.634216%,95.443726%);stop-opacity:1;"/>
<stop offset="0.65625" style="stop-color:rgb(27.134705%,76.565552%,95.429993%);stop-opacity:1;"/>
<stop offset="0.664062" style="stop-color:rgb(26.921082%,76.496887%,95.417786%);stop-opacity:1;"/>
<stop offset="0.671875" style="stop-color:rgb(26.707458%,76.428223%,95.404053%);stop-opacity:1;"/>
<stop offset="0.679688" style="stop-color:rgb(26.495361%,76.359558%,95.39032%);stop-opacity:1;"/>
<stop offset="0.6875" style="stop-color:rgb(26.281738%,76.290894%,95.376587%);stop-opacity:1;"/>
<stop offset="0.695312" style="stop-color:rgb(26.068115%,76.222229%,95.36438%);stop-opacity:1;"/>
<stop offset="0.703125" style="stop-color:rgb(25.856018%,76.15509%,95.350647%);stop-opacity:1;"/>
<stop offset="0.710938" style="stop-color:rgb(25.642395%,76.086426%,95.336914%);stop-opacity:1;"/>
<stop offset="0.71875" style="stop-color:rgb(25.428772%,76.017761%,95.323181%);stop-opacity:1;"/>
<stop offset="0.726562" style="stop-color:rgb(25.215149%,75.949097%,95.310974%);stop-opacity:1;"/>
<stop offset="0.734375" style="stop-color:rgb(25.003052%,75.880432%,95.297241%);stop-opacity:1;"/>
<stop offset="0.742188" style="stop-color:rgb(24.789429%,75.811768%,95.283508%);stop-opacity:1;"/>
<stop offset="0.75" style="stop-color:rgb(24.575806%,75.743103%,95.269775%);stop-opacity:1;"/>
<stop offset="0.757812" style="stop-color:rgb(24.363708%,75.674438%,95.257568%);stop-opacity:1;"/>
<stop offset="0.765625" style="stop-color:rgb(24.150085%,75.605774%,95.243835%);stop-opacity:1;"/>
<stop offset="0.773438" style="stop-color:rgb(23.936462%,75.537109%,95.230103%);stop-opacity:1;"/>
<stop offset="0.78125" style="stop-color:rgb(23.722839%,75.468445%,95.21637%);stop-opacity:1;"/>
<stop offset="0.789062" style="stop-color:rgb(23.510742%,75.39978%,95.202637%);stop-opacity:1;"/>
<stop offset="0.796875" style="stop-color:rgb(23.297119%,75.331116%,95.19043%);stop-opacity:1;"/>
<stop offset="0.804688" style="stop-color:rgb(23.083496%,75.262451%,95.176697%);stop-opacity:1;"/>
<stop offset="0.8125" style="stop-color:rgb(22.871399%,75.195312%,95.162964%);stop-opacity:1;"/>
<stop offset="0.820312" style="stop-color:rgb(22.657776%,75.126648%,95.149231%);stop-opacity:1;"/>
<stop offset="0.828125" style="stop-color:rgb(22.444153%,75.057983%,95.137024%);stop-opacity:1;"/>
<stop offset="0.835938" style="stop-color:rgb(22.232056%,74.989319%,95.123291%);stop-opacity:1;"/>
<stop offset="0.84375" style="stop-color:rgb(22.018433%,74.920654%,95.109558%);stop-opacity:1;"/>
<stop offset="0.851563" style="stop-color:rgb(21.80481%,74.85199%,95.095825%);stop-opacity:1;"/>
<stop offset="0.859375" style="stop-color:rgb(21.591187%,74.783325%,95.083618%);stop-opacity:1;"/>
<stop offset="0.867188" style="stop-color:rgb(21.379089%,74.714661%,95.069885%);stop-opacity:1;"/>
<stop offset="0.875" style="stop-color:rgb(21.165466%,74.645996%,95.056152%);stop-opacity:1;"/>
<stop offset="0.882813" style="stop-color:rgb(20.951843%,74.577332%,95.042419%);stop-opacity:1;"/>
<stop offset="0.890625" style="stop-color:rgb(20.739746%,74.508667%,95.030212%);stop-opacity:1;"/>
<stop offset="0.898437" style="stop-color:rgb(20.526123%,74.440002%,95.016479%);stop-opacity:1;"/>
<stop offset="0.90625" style="stop-color:rgb(20.3125%,74.371338%,95.002747%);stop-opacity:1;"/>
<stop offset="0.914062" style="stop-color:rgb(20.098877%,74.302673%,94.989014%);stop-opacity:1;"/>
<stop offset="0.921875" style="stop-color:rgb(19.88678%,74.235535%,94.976807%);stop-opacity:1;"/>
<stop offset="0.929688" style="stop-color:rgb(19.673157%,74.16687%,94.963074%);stop-opacity:1;"/>
<stop offset="0.9375" style="stop-color:rgb(19.459534%,74.09668%,94.949341%);stop-opacity:1;"/>
<stop offset="0.945312" style="stop-color:rgb(19.247437%,74.029541%,94.935608%);stop-opacity:1;"/>
<stop offset="0.953125" style="stop-color:rgb(19.033813%,73.960876%,94.923401%);stop-opacity:1;"/>
<stop offset="0.960938" style="stop-color:rgb(18.82019%,73.892212%,94.909668%);stop-opacity:1;"/>
<stop offset="0.96875" style="stop-color:rgb(18.608093%,73.823547%,94.895935%);stop-opacity:1;"/>
<stop offset="0.976563" style="stop-color:rgb(18.39447%,73.754883%,94.882202%);stop-opacity:1;"/>
<stop offset="0.984375" style="stop-color:rgb(18.180847%,73.686218%,94.868469%);stop-opacity:1;"/>
<stop offset="0.992187" style="stop-color:rgb(17.967224%,73.617554%,94.856262%);stop-opacity:1;"/>
<stop offset="1" style="stop-color:rgb(17.755127%,73.548889%,94.842529%);stop-opacity:1;"/>
</linearGradient>
</defs>
<g id="surface1">
<path style=" stroke:none;fill-rule:nonzero;fill:rgb(0%,67.83905%,93.728638%);fill-opacity:1;" d="M 314.644531 141.183594 C 313.796875 141.183594 313.109375 141.871094 313.109375 142.722656 L 313.109375 165.019531 C 313.109375 167.839844 314.097656 170.070312 316.050781 171.671875 C 317.847656 173.183594 320.160156 173.957031 322.949219 173.957031 C 327.132812 173.957031 330.066406 172.480469 331.664062 169.570312 C 332.40625 168.195312 332.789062 166.664062 332.789062 165.019531 C 332.789062 159.980469 329.585938 158.601562 329.285156 157.648438 C 329.222656 157.449219 329.398438 157.023438 329.398438 157.023438 C 329.550781 156.515625 329.503906 156.070312 329.257812 155.734375 C 329.027344 155.417969 328.632812 155.226562 328.210938 155.226562 L 326.546875 155.226562 C 325.753906 155.226562 325.121094 155.695312 324.773438 156.527344 C 324.273438 157.6875 324.777344 159.113281 325.644531 160.050781 C 326.546875 160.972656 328.046875 162.203125 328.046875 165.019531 C 328.046875 166.855469 327.660156 168.167969 326.890625 168.902344 C 326.117188 169.667969 324.785156 170.046875 322.949219 170.046875 C 319.460938 170.046875 317.847656 168.453125 317.847656 165.019531 L 317.847656 142.722656 C 317.847656 141.871094 317.144531 141.183594 316.292969 141.183594 Z M 339.679688 146.429688 C 338.71875 148.675781 338.230469 152.128906 338.230469 156.679688 C 338.230469 159.582031 338.488281 162.527344 338.980469 165.429688 L 339.722656 168.902344 C 340.328125 171.136719 340.847656 172.050781 341.191406 172.652344 C 341.6875 173.484375 342.390625 173.945312 343.160156 173.945312 L 344.800781 173.945312 C 345.246094 173.945312 345.617188 173.761719 345.832031 173.421875 C 346.035156 173.058594 346.035156 172.585938 345.816406 172.140625 C 345.792969 172.089844 344.886719 170.492188 344.289062 168.433594 C 343.410156 165.429688 342.96875 161.488281 342.96875 156.679688 C 342.96875 153.359375 343.257812 150.75 343.847656 148.914062 C 344.6875 146.351562 346.371094 145.097656 348.9375 145.097656 C 351.515625 145.097656 353.1875 146.351562 354.03125 148.925781 C 354.59375 150.628906 354.878906 153.238281 354.878906 156.679688 C 354.878906 161.265625 354.40625 165.128906 353.453125 168.542969 C 352.894531 170.527344 352.078125 172.109375 352.066406 172.128906 C 351.839844 172.585938 351.839844 173.058594 352.058594 173.421875 C 352.261719 173.761719 352.632812 173.945312 353.074219 173.945312 L 354.726562 173.945312 C 355.492188 173.945312 356.066406 173.578125 356.617188 172.753906 C 357.171875 171.929688 357.824219 170.121094 358.113281 169.152344 L 358.8125 165.921875 C 359.347656 162.800781 359.613281 159.703125 359.613281 156.679688 C 359.613281 152.046875 359.132812 148.578125 358.203125 146.382812 C 356.738281 142.9375 353.636719 141.207031 348.9375 141.207031 C 344.273438 141.207031 341.148438 142.960938 339.679688 146.429688 Z M 287.726562 146.429688 C 286.769531 148.683594 286.28125 152.128906 286.28125 156.679688 C 286.28125 159.578125 286.539062 162.511719 287.027344 165.429688 L 287.792969 168.902344 C 288.378906 171.144531 288.914062 172.050781 289.242188 172.65625 C 289.71875 173.484375 290.449219 173.945312 291.199219 173.945312 L 292.847656 173.945312 C 293.292969 173.945312 293.65625 173.761719 293.871094 173.421875 C 294.09375 173.066406 294.09375 172.585938 293.882812 172.140625 C 293.84375 172.089844 292.9375 170.492188 292.328125 168.433594 C 291.460938 165.425781 291.011719 161.46875 291.011719 156.679688 C 291.011719 153.359375 291.304688 150.734375 291.902344 148.914062 C 292.738281 146.351562 294.40625 145.097656 296.984375 145.097656 C 299.5625 145.097656 301.234375 146.351562 302.070312 148.925781 C 302.636719 150.628906 302.933594 153.238281 302.933594 156.679688 C 302.933594 161.265625 302.457031 165.128906 301.511719 168.542969 C 300.949219 170.527344 300.121094 172.109375 300.113281 172.128906 C 299.882812 172.585938 299.882812 173.066406 300.109375 173.421875 C 300.308594 173.761719 300.675781 173.945312 301.125 173.945312 L 302.785156 173.945312 C 303.535156 173.945312 304.105469 173.597656 304.667969 172.753906 C 305.207031 171.957031 305.875 170.152344 306.148438 169.152344 L 306.867188 165.921875 C 307.398438 162.828125 307.664062 159.722656 307.664062 156.679688 C 307.664062 151.976562 307.195312 148.605469 306.253906 146.382812 C 304.792969 142.9375 301.671875 141.207031 296.988281 141.207031 C 292.316406 141.207031 289.207031 142.960938 287.726562 146.429688 Z M 234.070312 146.429688 C 233.113281 148.6875 232.632812 152.132812 232.632812 156.679688 C 232.632812 159.578125 232.871094 162.519531 233.378906 165.429688 L 234.125 168.902344 C 234.722656 171.160156 235.25 172.066406 235.605469 172.65625 C 236.058594 173.484375 236.800781 173.945312 237.539062 173.945312 L 239.199219 173.945312 C 239.636719 173.945312 240.011719 173.761719 240.226562 173.421875 C 240.441406 173.066406 240.441406 172.585938 240.226562 172.140625 C 240.191406 172.089844 239.273438 170.492188 238.679688 168.433594 C 237.792969 165.429688 237.34375 161.472656 237.34375 156.679688 C 237.34375 153.359375 237.652344 150.734375 238.25 148.914062 C 239.082031 146.351562 240.761719 145.097656 243.332031 145.097656 C 245.90625 145.097656 247.578125 146.351562 248.421875 148.925781 C 248.988281 150.628906 249.265625 153.238281 249.265625 156.679688 C 249.265625 161.265625 248.808594 165.140625 247.84375 168.542969 C 247.285156 170.527344 246.457031 172.109375 246.457031 172.128906 C 246.234375 172.585938 246.234375 173.058594 246.457031 173.421875 C 246.660156 173.761719 247.027344 173.945312 247.46875 173.945312 L 249.132812 173.945312 C 249.886719 173.945312 250.453125 173.597656 251.011719 172.753906 C 251.558594 171.957031 252.21875 170.144531 252.503906 169.152344 L 253.207031 165.921875 C 253.734375 162.828125 253.996094 159.722656 253.996094 156.679688 C 253.996094 151.976562 253.546875 148.617188 252.605469 146.382812 C 251.128906 142.9375 248.015625 141.207031 243.34375 141.207031 C 238.667969 141.207031 235.542969 142.960938 234.070312 146.429688 Z M 200.796875 168.433594 C 199.691406 167.347656 199.164062 166.105469 199.164062 164.628906 L 199.164062 150.703125 C 199.164062 148.71875 200.105469 147.160156 202.0625 145.933594 C 202.933594 145.367188 203.792969 145.097656 204.703125 145.097656 C 206.175781 145.097656 207.433594 145.628906 208.558594 146.714844 C 209.671875 147.796875 210.203125 149.042969 210.203125 150.515625 L 210.203125 164.628906 C 210.203125 166.691406 209.296875 168.214844 207.40625 169.304688 C 206.539062 169.804688 205.652344 170.046875 204.703125 170.046875 C 203.1875 170.046875 201.921875 169.523438 200.796875 168.433594 Z M 212.261719 144.589844 C 211.382812 143.660156 210.371094 142.855469 209.148438 142.269531 C 207.695312 141.566406 206.191406 141.207031 204.703125 141.207031 C 203.007812 141.207031 201.355469 141.636719 199.785156 142.496094 C 198.210938 143.371094 196.917969 144.519531 195.949219 145.933594 C 194.945312 147.363281 194.433594 148.976562 194.433594 150.703125 L 194.433594 164.628906 C 194.433594 168.109375 196.246094 170.8125 199.828125 172.703125 C 201.394531 173.523438 203.035156 173.945312 204.703125 173.945312 C 206.402344 173.945312 208.066406 173.523438 209.601562 172.703125 C 211.160156 171.875 212.4375 170.734375 213.429688 169.335938 C 214.433594 167.914062 214.941406 166.324219 214.941406 164.628906 L 214.941406 150.601562 C 214.941406 149.117188 215.222656 147.855469 215.816406 146.84375 C 216.496094 145.667969 217.429688 145.097656 218.691406 145.097656 C 220.03125 145.097656 221.085938 145.75 221.941406 147.089844 C 222.269531 147.636719 222.457031 148.199219 222.457031 148.816406 L 222.457031 166.339844 C 222.457031 167.515625 222.335938 168.464844 222.023438 169.625 C 221.773438 170.660156 220.824219 172.050781 220.808594 172.066406 C 220.511719 172.566406 220.472656 173.035156 220.679688 173.417969 C 220.863281 173.761719 221.226562 173.945312 221.671875 173.945312 L 223.335938 173.945312 C 224.0625 173.945312 224.914062 173.421875 225.34375 172.730469 C 225.359375 172.703125 226.148438 171.503906 226.53125 170.375 C 226.929688 169.234375 227.1875 167.644531 227.1875 166.339844 L 227.1875 148.816406 C 227.1875 145.949219 225.664062 143.730469 222.683594 142.191406 C 221.40625 141.527344 220.070312 141.207031 218.691406 141.207031 C 216.078125 141.207031 213.917969 142.371094 212.261719 144.589844 Z M 266.035156 168.425781 C 264.777344 167.34375 264.175781 166.105469 264.175781 164.652344 C 264.175781 162.609375 265.207031 161.0625 267.300781 159.910156 C 268.28125 159.378906 269.242188 159.105469 270.15625 159.105469 C 272.257812 159.105469 273.914062 160.050781 275.234375 161.976562 C 275.800781 162.832031 276.09375 163.734375 276.09375 164.652344 C 276.09375 166.632812 275.058594 168.152344 272.925781 169.304688 C 271.972656 169.804688 271.050781 170.050781 270.15625 170.050781 C 268.640625 170.050781 267.28125 169.527344 266.035156 168.425781 Z M 261.957031 141.183594 C 261.109375 141.183594 260.417969 141.871094 260.417969 142.722656 L 260.417969 144.125 L 260.621094 145.933594 C 260.894531 146.835938 261.742188 147.398438 263.136719 147.566406 L 265.800781 147.609375 L 269.117188 147.609375 L 269.117188 155.285156 C 267.601562 155.382812 266.144531 155.734375 264.761719 156.464844 C 263.195312 157.296875 261.910156 158.4375 260.9375 159.863281 C 259.957031 161.285156 259.449219 162.894531 259.449219 164.628906 C 259.449219 167.285156 260.621094 169.570312 262.914062 171.414062 C 265.058594 173.101562 267.488281 173.957031 270.164062 173.957031 C 272.863281 173.957031 275.292969 173.09375 277.417969 171.414062 C 279.683594 169.605469 280.835938 167.316406 280.835938 164.628906 C 280.835938 162.511719 280.085938 160.539062 278.597656 158.757812 C 277.316406 157.222656 275.695312 156.148438 273.835938 155.453125 L 273.835938 144.347656 C 273.835938 144.003906 273.5625 143.730469 273.21875 143.730469 L 265.140625 143.730469 L 265.140625 142.722656 C 265.140625 141.871094 264.445312 141.183594 263.609375 141.183594 Z M 479.210938 142.730469 L 479.210938 144.503906 C 479.210938 145.335938 479.851562 145.691406 480.339844 145.941406 C 480.789062 146.191406 481.242188 146.773438 481.570312 147.527344 C 481.765625 147.988281 481.867188 148.429688 481.867188 148.816406 C 481.867188 150.214844 481.566406 151.324219 480.933594 152.171875 C 480.417969 152.847656 479.398438 153.449219 478.929688 153.449219 C 478.09375 153.449219 477.359375 154.191406 477.359375 155.019531 L 477.359375 155.808594 C 477.359375 156.691406 478.0625 157.394531 478.929688 157.394531 C 479.484375 157.394531 480.621094 158.214844 481.308594 159.339844 C 481.683594 159.945312 481.867188 160.539062 481.867188 161.152344 L 481.867188 165.480469 C 481.867188 166.933594 481.402344 168.027344 480.480469 168.832031 C 479.507812 169.648438 478.265625 170.050781 476.761719 170.050781 C 475.210938 170.050781 474 169.5625 473.074219 168.542969 C 472.128906 167.492188 471.65625 166.210938 471.65625 164.640625 C 471.65625 163.328125 472.027344 161.832031 472.234375 161.027344 C 472.234375 161.027344 472.324219 160.640625 472.390625 160.328125 C 472.554688 159.402344 472.21875 158.734375 471.136719 158.734375 L 469.488281 158.734375 C 468.648438 158.734375 467.859375 159.34375 467.664062 160.113281 L 467.574219 160.433594 C 467.375 161.191406 466.925781 162.789062 466.925781 164.636719 C 466.925781 167.515625 467.878906 169.824219 469.753906 171.527344 C 471.519531 173.140625 473.890625 173.957031 476.769531 173.957031 C 479.328125 173.957031 481.566406 173.207031 483.449219 171.722656 C 485.546875 170.09375 486.605469 167.996094 486.605469 165.46875 L 486.605469 161.140625 C 486.605469 158.792969 485.457031 156.875 483.316406 155.382812 C 485.457031 153.667969 486.605469 151.472656 486.605469 148.816406 C 486.605469 146.957031 485.953125 145.222656 484.65625 143.644531 C 483.679688 142.460938 481.878906 141.207031 480.742188 141.207031 C 479.929688 141.207031 479.210938 141.917969 479.210938 142.730469 Z M 421.941406 141.183594 C 421.105469 141.183594 420.410156 141.871094 420.410156 142.722656 L 420.410156 145.3125 C 420.410156 147.386719 420.984375 149.097656 422.082031 150.429688 C 422.792969 151.304688 424.238281 152.398438 426.476562 153.785156 C 428.398438 154.96875 429.726562 156.101562 430.433594 157.195312 C 431.292969 158.511719 431.722656 160.257812 431.722656 162.40625 C 431.722656 164.496094 431.292969 166.25 430.460938 167.644531 C 429.496094 169.257812 428.117188 170.046875 426.21875 170.046875 C 424.207031 170.046875 422.648438 169.023438 421.484375 166.90625 C 420.949219 165.953125 420.6875 165.035156 420.6875 164.195312 C 420.6875 162.242188 421.078125 160.84375 421.191406 160.449219 C 421.332031 160.007812 421.269531 159.578125 421.035156 159.246094 C 420.796875 158.917969 420.402344 158.734375 419.964844 158.734375 L 418.320312 158.734375 C 417.5625 158.734375 416.851562 159.25 416.535156 160.027344 C 416.265625 160.714844 415.957031 162.589844 415.957031 164.195312 C 415.957031 166.90625 417.003906 169.246094 419.0625 171.125 C 421.109375 173 423.519531 173.957031 426.21875 173.957031 C 429.433594 173.957031 432.007812 172.753906 433.875 170.398438 C 435.609375 168.25 436.460938 165.53125 436.460938 162.316406 C 436.460938 159.765625 435.925781 157.582031 434.886719 155.804688 C 433.941406 154.164062 432.375 152.566406 430.230469 151.082031 C 428.175781 149.65625 426.960938 148.753906 426.625 148.425781 C 425.628906 147.425781 425.136719 146.273438 425.136719 144.921875 L 425.136719 142.722656 C 425.136719 141.871094 424.460938 141.183594 423.597656 141.183594 Z M 493.453125 146.429688 C 492.496094 148.683594 492.003906 152.128906 492.003906 156.679688 C 492.003906 159.566406 492.265625 162.511719 492.757812 165.429688 L 493.503906 168.902344 C 494.101562 171.132812 494.613281 172.042969 494.957031 172.640625 C 495.441406 173.484375 496.15625 173.945312 496.921875 173.945312 L 498.570312 173.945312 C 499.015625 173.945312 499.382812 173.761719 499.601562 173.421875 C 499.820312 173.058594 499.820312 172.585938 499.601562 172.140625 C 499.570312 172.089844 498.664062 170.492188 498.054688 168.433594 C 497.183594 165.425781 496.738281 161.46875 496.738281 156.679688 C 496.738281 153.359375 497.035156 150.75 497.613281 148.914062 C 498.464844 146.351562 500.136719 145.097656 502.714844 145.097656 C 505.277344 145.097656 506.953125 146.351562 507.808594 148.925781 C 508.363281 150.628906 508.644531 153.238281 508.644531 156.679688 C 508.644531 161.269531 508.183594 165.140625 507.226562 168.542969 C 506.660156 170.527344 505.851562 172.109375 505.84375 172.128906 C 505.609375 172.601562 505.609375 173.074219 505.835938 173.429688 C 506.035156 173.761719 506.398438 173.945312 506.855469 173.945312 L 508.492188 173.945312 C 509.273438 173.945312 509.835938 173.597656 510.398438 172.753906 C 510.9375 171.957031 511.589844 170.152344 511.871094 169.152344 L 512.582031 165.921875 C 513.113281 162.800781 513.390625 159.703125 513.390625 156.679688 C 513.390625 152.050781 512.914062 148.589844 511.984375 146.382812 C 510.515625 142.9375 507.394531 141.207031 502.71875 141.207031 C 498.039062 141.207031 494.917969 142.960938 493.453125 146.429688 Z M 447.867188 168.554688 C 447.011719 167.628906 446.578125 166.316406 446.578125 164.652344 C 446.578125 162.671875 446.972656 161.234375 447.757812 160.355469 C 448.515625 159.527344 449.851562 159.105469 451.683594 159.105469 C 454.113281 159.105469 455.625 159.847656 456.28125 161.363281 C 456.621094 162.144531 456.792969 163.25 456.792969 164.652344 C 456.792969 168.34375 455.171875 170.050781 451.683594 170.050781 C 450.03125 170.050781 448.757812 169.570312 447.867188 168.554688 Z M 442.730469 143.984375 C 442.140625 144.871094 441.855469 145.867188 441.855469 146.953125 L 441.855469 165.808594 C 441.855469 169.097656 443.585938 171.515625 446.988281 172.992188 C 448.5 173.628906 450.078125 173.957031 451.683594 173.957031 C 455.699219 173.957031 458.582031 172.511719 460.277344 169.675781 C 461.101562 168.273438 461.523438 166.582031 461.523438 164.640625 C 461.523438 161.828125 460.578125 159.519531 458.707031 157.8125 C 456.824219 156.101562 454.476562 155.238281 451.683594 155.238281 C 449.515625 155.238281 447.800781 155.621094 446.578125 156.363281 L 446.578125 146.953125 C 446.578125 145.933594 446.867188 144.902344 449.03125 144.902344 C 449.636719 144.902344 450.550781 145.234375 451.722656 145.691406 L 451.890625 145.75 C 453.398438 146.324219 454.671875 146.589844 455.914062 146.589844 C 458.804688 146.589844 460.546875 145.511719 460.546875 143.703125 L 460.546875 142.460938 C 460.546875 142.003906 460.359375 141.636719 460.035156 141.421875 C 459.839844 141.289062 459.402344 141.101562 458.761719 141.363281 C 457.386719 141.941406 456.074219 142.125 454.503906 141.964844 C 454.355469 141.945312 452.578125 141.679688 452.578125 141.679688 C 451.488281 141.390625 450.253906 141.136719 448.628906 141.136719 C 446.011719 141.136719 444.035156 142.09375 442.730469 143.984375 Z M 395.738281 168.425781 C 394.507812 167.34375 393.898438 166.105469 393.898438 164.652344 C 393.898438 162.609375 394.925781 161.0625 397.03125 159.910156 C 398.015625 159.378906 398.972656 159.105469 399.886719 159.105469 C 401.984375 159.105469 403.648438 160.050781 404.96875 161.976562 C 405.527344 162.832031 405.8125 163.734375 405.8125 164.652344 C 405.8125 166.632812 404.78125 168.152344 402.652344 169.304688 C 401.703125 169.804688 400.761719 170.050781 399.886719 170.050781 C 398.355469 170.050781 397.003906 169.527344 395.738281 168.425781 Z M 391.660156 141.183594 C 390.816406 141.183594 390.140625 141.871094 390.140625 142.722656 L 390.140625 144.125 L 390.347656 145.933594 C 390.617188 146.835938 391.476562 147.398438 392.851562 147.566406 L 395.511719 147.609375 L 398.84375 147.609375 L 398.84375 155.285156 C 397.324219 155.382812 395.871094 155.734375 394.488281 156.464844 C 392.921875 157.296875 391.636719 158.4375 390.664062 159.863281 C 389.675781 161.285156 389.171875 162.894531 389.171875 164.628906 C 389.171875 167.296875 390.347656 169.570312 392.640625 171.414062 C 394.785156 173.101562 397.21875 173.957031 399.886719 173.957031 C 402.585938 173.957031 405.027344 173.09375 407.128906 171.414062 C 409.402344 169.613281 410.5625 167.316406 410.5625 164.628906 C 410.5625 162.511719 409.800781 160.539062 408.328125 158.761719 C 407.042969 157.222656 405.421875 156.148438 403.570312 155.453125 L 403.570312 144.347656 C 403.570312 144.003906 403.289062 143.730469 402.949219 143.730469 L 394.867188 143.730469 L 394.867188 142.722656 C 394.867188 141.871094 394.171875 141.183594 393.332031 141.183594 Z M 391.660156 141.183594 "/>
<path style=" stroke:none;fill-rule:nonzero;fill:rgb(0%,67.83905%,93.728638%);fill-opacity:1;" d="M 405.035156 211.359375 C 404.175781 211.359375 403.8125 210.738281 404.25 209.988281 L 407.90625 203.679688 C 408.328125 202.914062 409.039062 202.914062 409.472656 203.679688 L 413.121094 209.988281 C 413.566406 210.738281 413.199219 211.359375 412.339844 211.359375 Z M 407.261719 184.925781 C 406.839844 184.925781 406.082031 185.117188 405.625 186.421875 L 395.539062 216.085938 C 395.417969 216.457031 395.457031 216.808594 395.660156 217.09375 C 395.886719 217.417969 396.296875 217.609375 396.753906 217.609375 L 398.777344 217.609375 C 399.5625 217.609375 400.039062 217.230469 400.304688 216.394531 L 401.339844 213.136719 C 403.296875 206.867188 407.609375 193.207031 408.707031 189.78125 C 409.8125 193.191406 414.171875 206.773438 416.179688 212.996094 L 417.257812 216.359375 C 417.523438 217.164062 418.019531 217.609375 418.675781 217.609375 L 420.703125 217.609375 C 421.441406 217.609375 421.789062 217.324219 421.964844 217.09375 C 422.1875 216.789062 422.226562 216.371094 422.082031 215.902344 L 412.015625 186.316406 C 411.609375 185.164062 410.917969 184.925781 410.402344 184.925781 Z M 508.636719 184.925781 C 507.957031 184.925781 507 185.433594 506.484375 186.101562 L 497.511719 197.085938 C 497.511719 197.09375 495.585938 199.667969 495.351562 199.996094 L 495.351562 186.363281 C 495.351562 185.570312 494.695312 184.925781 493.90625 184.925781 L 492.074219 184.925781 C 491.269531 184.925781 490.628906 185.570312 490.628906 186.363281 L 490.628906 216.164062 C 490.628906 216.957031 491.269531 217.609375 492.074219 217.609375 L 493.90625 217.609375 C 494.695312 217.609375 495.351562 216.957031 495.351562 216.164062 L 495.351562 205.644531 C 495.351562 205.398438 495.492188 205.019531 495.660156 204.839844 C 495.660156 204.835938 497.996094 202.160156 497.996094 202.160156 C 498.15625 202.101562 498.199219 202.125 498.230469 202.179688 L 507.75 216.457031 C 508.15625 217.097656 508.984375 217.609375 509.644531 217.609375 L 512.445312 217.609375 C 512.808594 217.609375 513.105469 217.457031 513.253906 217.175781 C 513.390625 216.886719 513.324219 216.5 513.066406 216.144531 C 512.734375 215.707031 501.726562 199.308594 501.617188 199.140625 C 501.511719 198.988281 501.515625 198.71875 501.636719 198.585938 L 512.03125 186.460938 C 512.496094 185.890625 512.46875 185.53125 512.367188 185.316406 C 512.285156 185.164062 512.105469 184.925781 511.589844 184.925781 Z M 465.703125 184.925781 C 464.917969 184.925781 464.269531 185.570312 464.269531 186.363281 C 464.269531 186.363281 464.519531 206.039062 464.585938 210.839844 C 463.574219 209.160156 449.605469 185.78125 449.605469 185.78125 C 449.257812 185.214844 448.8125 184.925781 448.292969 184.925781 L 445.507812 184.925781 C 444.714844 184.925781 444.070312 185.570312 444.070312 186.363281 L 444.070312 216.164062 C 444.070312 216.957031 444.714844 217.609375 445.507812 217.609375 L 447.089844 217.609375 C 447.882812 217.609375 448.539062 216.957031 448.539062 216.164062 C 448.539062 216.144531 448.40625 196.121094 448.390625 191.339844 C 451.394531 196.367188 463.527344 216.652344 463.707031 216.894531 C 463.960938 217.238281 464.433594 217.609375 464.925781 217.609375 L 467.285156 217.609375 C 468.082031 217.609375 468.742188 216.957031 468.742188 216.164062 L 468.742188 186.363281 C 468.742188 185.570312 468.082031 184.925781 467.285156 184.925781 Z M 357.761719 213.964844 C 357.761719 213.964844 357.480469 213.925781 357.480469 213.664062 L 357.480469 202.488281 C 357.480469 202.335938 357.613281 202.203125 357.761719 202.203125 L 360.605469 202.203125 C 365.632812 202.203125 368.628906 204.429688 368.628906 208.125 C 368.628906 213.3125 363.640625 214.089844 360.683594 214.089844 Z M 357.480469 198.269531 L 357.480469 189.007812 C 357.480469 188.84375 357.636719 188.65625 357.804688 188.648438 C 357.804688 188.648438 358.460938 188.433594 360.863281 188.441406 C 364.988281 188.464844 367.570312 190.117188 367.570312 193.40625 C 367.570312 196.667969 364.953125 198.542969 360.386719 198.542969 L 357.761719 198.542969 C 357.613281 198.542969 357.480469 198.421875 357.480469 198.269531 Z M 354.167969 185.203125 C 353.285156 185.320312 352.753906 185.863281 352.753906 186.640625 L 352.753906 216.171875 C 352.753906 216.921875 353.292969 217.503906 354.089844 217.613281 C 354.769531 217.710938 357.410156 217.890625 359.480469 217.890625 C 364.839844 217.890625 368.507812 216.886719 370.714844 214.808594 C 372.621094 213.03125 373.574219 210.792969 373.574219 208.179688 C 373.574219 203.980469 370.609375 201.125 367.734375 200.089844 C 370.800781 198.613281 372.390625 196.238281 372.390625 192.96875 C 372.390625 190.488281 371.554688 188.722656 369.554688 187.078125 C 367.566406 185.433594 364.796875 184.691406 360.605469 184.691406 C 359.226562 184.691406 356.808594 184.820312 354.167969 185.203125 Z M 196.214844 184.925781 C 195.417969 184.925781 194.761719 185.570312 194.761719 186.363281 L 194.761719 187.566406 C 194.761719 188.355469 195.417969 189.015625 196.214844 189.015625 L 204.253906 189.015625 C 204.40625 189.015625 204.527344 189.140625 204.527344 189.296875 L 204.527344 216.164062 C 204.527344 216.957031 205.1875 217.609375 205.980469 217.609375 L 207.855469 217.609375 C 208.648438 217.609375 209.296875 216.957031 209.296875 216.164062 L 209.296875 189.296875 C 209.296875 189.140625 209.441406 189.015625 209.570312 189.015625 L 217.660156 189.015625 C 218.46875 189.015625 219.101562 188.355469 219.101562 187.566406 L 219.101562 186.363281 C 219.101562 185.570312 218.46875 184.925781 217.660156 184.925781 Z M 245.980469 213.964844 C 245.980469 213.964844 245.691406 213.925781 245.691406 213.664062 L 245.691406 202.488281 C 245.691406 202.335938 245.828125 202.203125 245.972656 202.203125 L 248.824219 202.203125 C 253.851562 202.203125 256.851562 204.429688 256.851562 208.125 C 256.851562 213.3125 251.863281 214.089844 248.886719 214.089844 Z M 245.691406 198.269531 L 245.691406 189.007812 C 245.691406 188.84375 245.84375 188.65625 246.011719 188.648438 C 246.011719 188.648438 247.152344 188.464844 249.078125 188.441406 C 251.820312 188.417969 255.796875 189.308594 255.796875 193.40625 C 255.796875 196.667969 253.167969 198.542969 248.597656 198.542969 L 245.972656 198.542969 C 245.828125 198.542969 245.691406 198.421875 245.691406 198.269531 Z M 242.375 185.203125 C 241.503906 185.320312 240.980469 185.863281 240.980469 186.640625 L 240.980469 216.171875 C 240.980469 216.921875 241.507812 217.503906 242.304688 217.613281 C 243 217.710938 245.640625 217.890625 247.6875 217.890625 C 253.058594 217.890625 256.726562 216.886719 258.941406 214.808594 C 260.828125 213.035156 261.792969 210.804688 261.792969 208.179688 C 261.792969 203.980469 258.828125 201.125 255.953125 200.089844 C 259.015625 198.613281 260.585938 196.238281 260.585938 192.96875 C 260.585938 190.488281 259.625 188.441406 257.773438 187.078125 C 255.789062 185.425781 253.015625 184.691406 248.824219 184.691406 C 247.445312 184.691406 245.035156 184.820312 242.375 185.203125 Z M 283.65625 201.546875 C 283.65625 211.617188 289.964844 218.125 299.761719 218.125 C 302.972656 218.125 305.796875 217.457031 307.1875 217.0625 C 308 216.835938 308.445312 216.101562 308.242188 215.316406 L 307.976562 214.167969 C 307.882812 213.738281 307.636719 213.40625 307.328125 213.214844 C 306.996094 213.019531 306.621094 212.976562 306.226562 213.085938 L 305.878906 213.183594 C 304.949219 213.460938 302.988281 214.035156 300.628906 214.035156 C 293.101562 214.035156 288.613281 209.3125 288.613281 201.402344 C 288.613281 193.410156 293.300781 188.441406 300.851562 188.441406 C 302.972656 188.441406 304.929688 188.984375 306.078125 189.308594 C 306.851562 189.515625 307.664062 189.113281 307.894531 188.398438 L 308.292969 187.261719 C 308.414062 186.882812 308.382812 186.492188 308.203125 186.140625 C 308.019531 185.796875 307.730469 185.542969 307.378906 185.425781 C 305.820312 184.929688 303.085938 184.402344 300.710938 184.402344 C 290.515625 184.402344 283.65625 191.296875 283.65625 201.546875 "/>
<g clip-path="url(#clip1)" clip-rule="nonzero">
<g clip-path="url(#clip2)" clip-rule="nonzero">
<path style=" stroke:none;fill-rule:nonzero;fill:url(#linear0);" d="M 177.390625 190.152344 L 177.390625 217.761719 L 80.832031 217.761719 L 80.832031 190.152344 Z M 177.390625 190.152344 "/>
</g>
</g>
<g clip-path="url(#clip3)" clip-rule="nonzero">
<g clip-path="url(#clip4)" clip-rule="nonzero">
<path style=" stroke:none;fill-rule:nonzero;fill:url(#linear1);" d="M 88.378906 150.792969 L 166.054688 105.984375 L 216.332031 193.148438 L 138.65625 237.953125 Z M 88.378906 150.792969 "/>
</g>
</g>
<g clip-path="url(#clip5)" clip-rule="nonzero">
<g clip-path="url(#clip6)" clip-rule="nonzero">
<path style=" stroke:none;fill-rule:nonzero;fill:url(#linear2);" d="M 115.222656 237.152344 L 39.824219 193.015625 L 91.042969 105.519531 L 166.441406 149.652344 Z M 115.222656 237.152344 "/>
</g>
</g>
</g>
</svg>
