<?xml version="1.0" encoding="UTF-8" standalone="no"?>
<!DOCTYPE svg PUBLIC "-//W3C//DTD SVG 1.1//EN"
"http://www.w3.org/Graphics/SVG/1.1/DTD/svg11.dtd">


<!-- Page 1 -->
<svg x="0" y="0" width="909" height="1286" version="1.1" xmlns="http://www.w3.org/2000/svg" xmlns:xlink="http://www.w3.org/1999/xlink"
style="display: block;margin-left: auto;margin-right: auto;">
<defs>

<style type="text/css"><![CDATA[

.g1_1{
fill: #00AEEF;
}


]]></style>

</defs>
<path d="M0,0
L0,1286
L909,1286
L909,0 Z " 
fill="#FFFFFF" stroke="none" />
<path d="M480.7,215.7c-1.3,0,-2.3,1,-2.3,2.4l0,34c0,4.3,1.5,7.7,4.5,10.2c2.7,2.3,6.2,3.5,10.5,3.5c6.4,0,10.9,-2.3,13.3,-6.7c1.1,-2.1,1.7,-4.5,1.7,-7c0,-7.7,-4.9,-9.8,-5.3,-11.2c-0.1,-0.4,0.1,-1,0.1,-1c0.3,-0.8,0.2,-1.5,-0.2,-2c-0.3,-0.5,-0.9,-0.7,-1.6,-0.7l-2.5,0c-1.2,0,-2.2,0.7,-2.7,1.9c-0.8,1.8,0,4,1.3,5.4c1.4,1.4,3.7,3.3,3.7,7.6c0,2.8,-0.6,4.8,-1.8,5.9c-1.2,1.2,-3.2,1.8,-6,1.8c-5.3,0,-7.8,-2.4,-7.8,-7.7l0,-34c0,-1.4,-1.1,-2.4,-2.4,-2.4Zm38.3,8c-1.5,3.4,-2.3,8.7,-2.3,15.7c0,4.4,0.4,8.9,1.2,13.3L519,258c0.9,3.5,1.7,4.9,2.3,5.8c0.7,1.2,1.8,2,3,2l2.5,0c0.7,0,1.2,-0.3,1.6,-0.8c0.3,-0.6,0.3,-1.3,-0.1,-2c0,-0.1,-1.4,-2.5,-2.3,-5.7c-1.3,-4.6,-2,-10.6,-2,-17.9c0,-5.1,0.4,-9.1,1.3,-11.9c1.3,-3.9,3.9,-5.8,7.8,-5.8c3.9,0,6.5,1.9,7.8,5.8c0.8,2.6,1.3,6.6,1.3,11.9c0,7,-0.7,12.9,-2.2,18.1c-0.9,3,-2.1,5.4,-2.1,5.5c-0.4,0.7,-0.4,1.4,0,2c0.3,0.5,0.8,0.8,1.5,0.8l2.5,0c1.2,0,2.1,-0.6,2.9,-1.9c0.9,-1.2,1.9,-4,2.3,-5.5l1.1,-4.9c0.8,-4.8,1.2,-9.5,1.2,-14.1c0,-7.1,-0.7,-12.4,-2.1,-15.8c-2.3,-5.2,-7,-7.9,-14.2,-7.9c-7.1,0,-11.9,2.7,-14.1,8Zm-79.4,0c-1.5,3.5,-2.2,8.7,-2.2,15.7c0,4.4,0.4,8.9,1.1,13.3l1.2,5.3c0.9,3.5,1.7,4.9,2.2,5.8c0.7,1.2,1.8,2,3,2l2.5,0c0.7,0,1.2,-0.3,1.6,-0.8c0.3,-0.6,0.3,-1.3,0,-2c-0.1,-0.1,-1.5,-2.5,-2.4,-5.7c-1.3,-4.6,-2,-10.6,-2,-17.9c0,-5.1,0.4,-9.1,1.4,-11.9c1.2,-3.9,3.8,-5.8,7.7,-5.8c4,0,6.5,1.9,7.8,5.8c0.9,2.6,1.3,6.6,1.3,11.9c0,7,-0.7,12.9,-2.2,18.1c-0.8,3,-2.1,5.4,-2.1,5.5c-0.3,0.7,-0.3,1.4,0,2c0.3,0.5,0.9,0.8,1.6,0.8l2.5,0c1.1,0,2,-0.6,2.9,-1.9c0.8,-1.2,1.8,-3.9,2.2,-5.5l1.1,-4.9c0.8,-4.7,1.2,-9.5,1.2,-14.1c0,-7.2,-0.7,-12.4,-2.1,-15.8c-2.2,-5.2,-7,-7.9,-14.2,-7.9c-7.1,0,-11.9,2.7,-14.1,8Zm-82,0c-1.5,3.5,-2.2,8.7,-2.2,15.7c0,4.4,0.4,8.9,1.1,13.3l1.2,5.3c0.9,3.5,1.7,4.9,2.2,5.8c0.7,1.2,1.9,2,3,2l2.5,0c0.7,0,1.3,-0.3,1.6,-0.8c0.3,-0.6,0.3,-1.3,0,-2c0,-0.1,-1.4,-2.5,-2.4,-5.7c-1.3,-4.6,-2,-10.6,-2,-17.9c0,-5.1,0.5,-9.1,1.4,-11.9c1.3,-3.9,3.8,-5.8,7.8,-5.8c3.9,0,6.4,1.9,7.7,5.8c0.9,2.6,1.3,6.6,1.3,11.9c0,7,-0.7,12.9,-2.1,18.1c-0.9,3,-2.2,5.4,-2.2,5.5c-0.3,0.7,-0.3,1.4,0,2c0.3,0.5,0.9,0.8,1.6,0.8l2.5,0c1.2,0,2,-0.6,2.9,-1.9c0.8,-1.2,1.8,-4,2.3,-5.5l1,-4.9c0.9,-4.7,1.3,-9.5,1.3,-14.1c0,-7.2,-0.7,-12.3,-2.2,-15.8c-2.2,-5.2,-7,-7.9,-14.1,-7.9c-7.2,0,-11.9,2.7,-14.2,8Zm-50.8,33.6c-1.7,-1.6,-2.5,-3.5,-2.5,-5.8l0,-21.3c0,-3,1.4,-5.4,4.4,-7.2c1.3,-0.9,2.7,-1.3,4,-1.3c2.3,0,4.2,0.8,5.9,2.4c1.7,1.7,2.5,3.6,2.5,5.9l0,21.5c0,3.2,-1.3,5.5,-4.2,7.2c-1.4,0.7,-2.7,1.1,-4.2,1.1c-2.3,0,-4.2,-0.8,-5.9,-2.5Zm17.5,-36.4c-1.4,-1.4,-2.9,-2.6,-4.8,-3.5c-2.2,-1.1,-4.5,-1.7,-6.8,-1.7c-2.5,0,-5.1,0.7,-7.5,2c-2.4,1.3,-4.4,3.1,-5.8,5.3c-1.6,2.1,-2.4,4.6,-2.4,7.2l0,21.3c0,5.3,2.8,9.5,8.3,12.4c2.4,1.2,4.9,1.9,7.4,1.9c2.6,0,5.2,-0.7,7.5,-1.9c2.4,-1.3,4.4,-3.1,5.9,-5.2c1.5,-2.2,2.3,-4.6,2.3,-7.2l0,-21.4c0,-2.3,0.4,-4.2,1.3,-5.8c1.1,-1.8,2.5,-2.6,4.4,-2.6c2.1,0,3.7,1,5,3c0.5,0.9,0.8,1.7,0.8,2.7l0,26.7c0,1.8,-0.2,3.3,-0.7,5c-0.4,1.6,-1.8,3.8,-1.9,3.8c-0.4,0.7,-0.5,1.5,-0.2,2c0.3,0.6,0.9,0.9,1.6,0.9l2.5,0c1.1,0,2.4,-0.8,3.1,-1.9c0,0,1.2,-1.9,1.8,-3.6c0.6,-1.7,1,-4.2,1,-6.2l0,-26.7c0,-4.4,-2.3,-7.8,-6.9,-10.2c-1.9,-1,-4,-1.5,-6.1,-1.5c-4,0,-7.3,1.8,-9.8,5.2Zm82.1,36.4c-1.9,-1.6,-2.8,-3.5,-2.8,-5.8c0,-3.1,1.6,-5.4,4.8,-7.2c1.5,-0.8,2.9,-1.2,4.3,-1.2c3.3,0,5.8,1.4,7.8,4.4c0.9,1.3,1.3,2.7,1.3,4c0,3.1,-1.6,5.4,-4.8,7.2c-1.5,0.7,-2.9,1.1,-4.3,1.1c-2.3,0,-4.4,-0.8,-6.3,-2.5Zm-6.2,-41.6c-1.3,0,-2.3,1,-2.3,2.4l0,2.1l0.3,2.8c0.4,1.3,1.7,2.2,3.8,2.4l4.1,0.1l5.1,0l0,11.7c-2.4,0.2,-4.6,0.7,-6.7,1.8c-2.4,1.3,-4.4,3.1,-5.8,5.2c-1.5,2.2,-2.3,4.7,-2.3,7.3c0,4.1,1.8,7.6,5.3,10.4c3.3,2.6,7,3.9,11,3.9c4.2,0,7.9,-1.4,11.1,-3.9c3.5,-2.8,5.3,-6.3,5.3,-10.4c0,-3.2,-1.2,-6.2,-3.5,-9c-1.9,-2.3,-4.4,-3.9,-7.2,-5l0,-17c0,-0.5,-0.5,-0.9,-1,-0.9l-12.3,0l0,-1.5c0,-1.4,-1.1,-2.4,-2.4,-2.4Zm331.9,2.4l0,2.7c0,1.2,1,1.8,1.8,2.2c0.6,0.3,1.3,1.2,1.8,2.4c0.3,0.7,0.5,1.4,0.5,2c0,2.1,-0.5,3.8,-1.4,5.1c-0.8,1,-2.4,1.9,-3.1,1.9c-1.3,0,-2.4,1.2,-2.4,2.4l0,1.2c0,1.4,1.1,2.5,2.4,2.5c0.8,0,2.6,1.2,3.6,2.9c0.6,1,0.9,1.9,0.9,2.8l0,6.6c0,2.2,-0.7,3.9,-2.1,5.1c-1.5,1.3,-3.4,1.9,-5.7,1.9c-2.4,0,-4.2,-0.7,-5.7,-2.3c-1.4,-1.6,-2.1,-3.6,-2.1,-6c0,-2,0.6,-4.3,0.9,-5.5c0,0,0.1,-0.6,0.2,-1.1c0.3,-1.4,-0.3,-2.4,-1.9,-2.4l-2.5,0c-1.3,0,-2.5,0.9,-2.8,2.1l-0.1,0.5c-0.4,1.2,-1,3.6,-1,6.4c0,4.4,1.4,8,4.3,10.6c2.7,2.4,6.3,3.7,10.7,3.7c3.9,0,7.3,-1.2,10.2,-3.4c3.2,-2.5,4.8,-5.7,4.8,-9.6l0,-6.6c0,-3.6,-1.7,-6.5,-5,-8.8c3.3,-2.6,5,-6,5,-10c0,-2.9,-1,-5.5,-3,-7.9c-1.4,-1.9,-4.2,-3.8,-5.9,-3.8c-1.3,0,-2.4,1.1,-2.4,2.4Zm-87.5,-2.4c-1.2,0,-2.3,1,-2.3,2.4l0,3.9c0,3.2,0.9,5.8,2.5,7.8c1.1,1.4,3.3,3,6.8,5.2c2.9,1.8,4.9,3.5,6,5.2c1.3,2,2,4.6,2,7.9c0,3.2,-0.7,5.9,-2,8c-1.4,2.5,-3.5,3.7,-6.4,3.7c-3.1,0,-5.5,-1.6,-7.3,-4.8c-0.8,-1.5,-1.2,-2.9,-1.2,-4.1c0,-3,0.6,-5.2,0.8,-5.8c0.2,-0.6,0.1,-1.3,-0.3,-1.8c-0.3,-0.5,-0.9,-0.8,-1.6,-0.8l-2.5,0c-1.2,0,-2.2,0.8,-2.7,2c-0.4,1,-0.9,3.9,-0.9,6.4c0,4.1,1.6,7.7,4.7,10.5c3.2,2.9,6.8,4.4,11,4.4c4.9,0,8.8,-1.9,11.7,-5.5c2.6,-3.2,3.9,-7.4,3.9,-12.3c0,-3.9,-0.8,-7.3,-2.4,-10c-1.4,-2.5,-3.8,-4.9,-7.1,-7.2c-3.1,-2.2,-5,-3.5,-5.5,-4c-1.5,-1.6,-2.3,-3.3,-2.3,-5.4l0,-3.3c0,-1.4,-1,-2.4,-2.3,-2.4Zm109.3,8c-1.5,3.5,-2.2,8.7,-2.2,15.7c0,4.4,0.4,8.9,1.1,13.3L754,258c0.9,3.5,1.7,4.8,2.2,5.8c0.7,1.2,1.8,2,3,2l2.5,0c0.7,0,1.2,-0.3,1.6,-0.8c0.3,-0.6,0.3,-1.3,0,-2c-0.1,-0.1,-1.5,-2.5,-2.4,-5.7c-1.3,-4.6,-2,-10.6,-2,-17.9c0,-5.1,0.5,-9.1,1.3,-11.9c1.3,-3.9,3.9,-5.8,7.8,-5.8c4,0,6.5,1.9,7.8,5.8c0.9,2.6,1.3,6.6,1.3,11.9c0,7,-0.7,12.9,-2.2,18.1c-0.8,3,-2.1,5.4,-2.1,5.5c-0.3,0.7,-0.3,1.4,0,2c0.3,0.5,0.9,0.8,1.6,0.8l2.5,0c1.2,0,2,-0.6,2.9,-1.9c0.8,-1.2,1.8,-3.9,2.2,-5.5l1.1,-4.9c0.8,-4.8,1.2,-9.5,1.2,-14.1c0,-7.1,-0.7,-12.4,-2.1,-15.8c-2.2,-5.2,-7,-7.9,-14.2,-7.9c-7.1,0,-11.9,2.7,-14.1,8Zm-69.7,33.8c-1.3,-1.4,-1.9,-3.4,-1.9,-6c0,-3,0.6,-5.2,1.8,-6.5c1.1,-1.3,3.2,-1.9,6,-1.9c3.7,0,6,1.1,7,3.4c0.5,1.2,0.8,2.9,0.8,5c0,5.7,-2.5,8.3,-7.8,8.3c-2.6,0,-4.5,-0.7,-5.9,-2.3ZM676.4,220c-0.9,1.3,-1.3,2.9,-1.3,4.5l0,28.8c0,5,2.6,8.7,7.8,11c2.3,1,4.7,1.5,7.2,1.5c6.1,0,10.5,-2.2,13.1,-6.6c1.3,-2.1,1.9,-4.7,1.9,-7.7c0,-4.3,-1.4,-7.8,-4.3,-10.4c-2.9,-2.6,-6.5,-3.9,-10.7,-3.9c-3.3,0,-6,0.6,-7.8,1.7l0,-14.4c0,-1.5,0.4,-3.1,3.7,-3.1c0.9,0,2.3,0.5,4.1,1.2l0.3,0.1c2.3,0.9,4.2,1.3,6.1,1.3c4.5,0,7.1,-1.7,7.1,-4.5l0,-1.9c0,-0.6,-0.3,-1.2,-0.8,-1.5c-0.3,-0.2,-0.9,-0.5,-1.9,-0.1c-2.1,0.9,-4.1,1.1,-6.5,0.9c-0.2,0,-3,-0.4,-3,-0.4c-1.6,-0.5,-3.5,-0.9,-6,-0.9c-4,0,-7,1.5,-9,4.4Zm-71.8,37.3c-1.9,-1.6,-2.8,-3.5,-2.8,-5.8c0,-3.1,1.6,-5.4,4.8,-7.2c1.5,-0.8,2.9,-1.2,4.3,-1.2c3.2,0,5.8,1.4,7.8,4.4c0.9,1.3,1.3,2.7,1.3,4c0,3.1,-1.6,5.4,-4.8,7.2c-1.5,0.7,-2.9,1.1,-4.3,1.1c-2.3,0,-4.4,-0.8,-6.3,-2.5Zm-6.2,-41.6c-1.3,0,-2.3,1,-2.3,2.4l0,2.1l0.3,2.8c0.4,1.3,1.7,2.2,3.8,2.4l4.1,0.1l5,0l0,11.7c-2.3,0.2,-4.5,0.7,-6.6,1.8c-2.4,1.3,-4.4,3.1,-5.9,5.2c-1.5,2.2,-2.2,4.7,-2.2,7.3c0,4.1,1.8,7.6,5.3,10.4c3.2,2.6,7,3.9,11,3.9c4.2,0,7.9,-1.4,11.1,-3.9c3.5,-2.8,5.2,-6.3,5.2,-10.4c0,-3.2,-1.1,-6.2,-3.4,-8.9c-1.9,-2.4,-4.4,-4,-7.2,-5.1l0,-17c0,-0.5,-0.5,-0.9,-1,-0.9l-12.3,0l0,-1.5c0,-1.4,-1.1,-2.4,-2.4,-2.4Z" class="g1_1" />
<path d="M618.8,322.9c-1.3,0,-1.9,-0.9,-1.2,-2.1l5.6,-9.6c0.6,-1.2,1.7,-1.2,2.4,0l5.6,9.6c0.6,1.2,0.1,2.1,-1.2,2.1Zm3.4,-40.4c-0.6,0,-1.8,0.3,-2.5,2.3l-15.4,45.3c-0.2,0.6,-0.1,1.1,0.2,1.6c0.3,0.5,1,0.8,1.7,0.8l3,0c1.2,0,2,-0.6,2.4,-1.9l1.6,-5c2.9,-9.6,9.5,-30.4,11.2,-35.7c1.7,5.3,8.4,26,11.4,35.5l1.7,5.1c0.4,1.3,1.1,2,2.1,2l3.1,0c1.2,0,1.7,-0.5,2,-0.8c0.3,-0.5,0.4,-1.1,0.1,-1.8L629.5,284.6c-0.7,-1.7,-1.7,-2.1,-2.5,-2.1Zm154.9,0c-1.1,0,-2.5,0.8,-3.3,1.8l-13.7,16.8c0,0,-3,4,-3.3,4.4l0,-20.8c0,-1.2,-1,-2.2,-2.2,-2.2l-2.8,0c-1.2,0,-2.2,1,-2.2,2.2l0,45.5c0,1.3,1,2.3,2.2,2.3l2.8,0c1.2,0,2.2,-1,2.2,-2.3l0,-16c0,-0.4,0.2,-1,0.5,-1.2c0,-0.1,3.5,-4.1,3.5,-4.1c0.3,-0.1,0.3,-0.1,0.4,0l14.5,21.8c0.6,1,1.9,1.8,2.9,1.8l4.3,0c0.6,0,1,-0.3,1.2,-0.7c0.2,-0.4,0.1,-1,-0.2,-1.6c-0.6,-0.6,-17.4,-25.7,-17.5,-26c-0.2,-0.2,-0.2,-0.6,0,-0.8l15.9,-18.5c0.7,-0.9,0.6,-1.4,0.5,-1.8c-0.1,-0.2,-0.4,-0.6,-1.2,-0.6Zm-65.6,0c-1.2,0,-2.2,1,-2.2,2.2c0,0,0.4,30.1,0.5,37.4c-1.6,-2.6,-22.9,-38.3,-22.9,-38.3c-0.5,-0.8,-1.2,-1.3,-2,-1.3l-4.3,0c-1.2,0,-2.2,1,-2.2,2.2l0,45.5c0,1.3,1,2.3,2.2,2.3l2.5,0c1.2,0,2.2,-1,2.2,-2.3c0,0,-0.2,-30.6,-0.3,-37.9c4.6,7.7,23.2,38.7,23.4,39.1c0.4,0.5,1.2,1.1,1.9,1.1l3.6,0c1.2,0,2.2,-1,2.2,-2.3l0,-45.5c0,-1.2,-1,-2.2,-2.2,-2.2ZM546.6,326.9c0,0,-0.4,-0.1,-0.4,-0.5l0,-17c0,-0.3,0.2,-0.5,0.4,-0.5l4.3,0c7.7,0,12.3,3.4,12.3,9.1c0,7.9,-7.6,9.1,-12.2,9.1Zm-0.4,-24l0,-14.1c0,-0.3,0.2,-0.6,0.4,-0.6c0,0,1,-0.3,4.7,-0.3c6.3,0,10.3,2.6,10.3,7.6c0,5,-4,7.8,-11,7.8l-4,0c-0.2,0,-0.4,-0.2,-0.4,-0.4Zm-5.1,-20c-1.4,0.2,-2.2,1.1,-2.2,2.2l0,45.2c0,1.1,0.9,2,2.1,2.2c1,0.1,5,0.4,8.2,0.4c8.2,0,13.8,-1.5,17.2,-4.7c2.9,-2.7,4.3,-6.2,4.3,-10.1c0,-6.5,-4.5,-10.8,-8.9,-12.4c4.7,-2.3,7.1,-5.9,7.1,-10.9c0,-3.8,-1.2,-6.5,-4.3,-9c-3,-2.5,-7.3,-3.6,-13.7,-3.6c-2.1,0,-5.8,0.2,-9.8,0.7ZM299.8,282.5c-1.2,0,-2.2,1,-2.2,2.2l0,1.9c0,1.2,1,2.2,2.2,2.2l12.3,0c0.2,0,0.4,0.2,0.4,0.4l0,41c0,1.3,1,2.3,2.2,2.3l2.9,0c1.2,0,2.2,-1,2.2,-2.3l0,-41c0,-0.2,0.2,-0.4,0.4,-0.4l12.3,0c1.3,0,2.2,-1,2.2,-2.2l0,-1.9c0,-1.2,-0.9,-2.2,-2.2,-2.2Zm76,44.4c0,0,-0.4,-0.1,-0.4,-0.5l0,-17c0,-0.3,0.2,-0.5,0.4,-0.5l4.3,0c7.7,0,12.3,3.4,12.3,9.1c0,7.9,-7.6,9.1,-12.2,9.1Zm-0.4,-24l0,-14.1c0,-0.3,0.2,-0.6,0.5,-0.6c0,0,1.7,-0.3,4.6,-0.3c4.2,0,10.3,1.3,10.3,7.6c0,5,-4,7.8,-11,7.8l-4,0c-0.2,0,-0.4,-0.2,-0.4,-0.4Zm-5.1,-20c-1.3,0.2,-2.1,1.1,-2.1,2.2l0,45.2c0,1.1,0.8,2,2,2.2c1,0.1,5.1,0.4,8.2,0.4c8.2,0,13.8,-1.5,17.2,-4.7c2.9,-2.7,4.4,-6.1,4.4,-10.1c0,-6.5,-4.6,-10.8,-9,-12.4c4.7,-2.3,7.1,-5.9,7.1,-10.9c0,-3.8,-1.4,-6.9,-4.3,-9c-3,-2.5,-7.2,-3.6,-13.7,-3.6c-2.1,0,-5.7,0.2,-9.8,0.7Zm63.1,25c0,15.4,9.6,25.3,24.6,25.3c4.9,0,9.2,-1,11.3,-1.6c1.3,-0.3,1.9,-1.4,1.6,-2.6l-0.4,-1.8c-0.1,-0.7,-0.5,-1.2,-1,-1.5c-0.5,-0.3,-1.1,-0.3,-1.7,-0.2l-0.5,0.2c-1.4,0.4,-4.4,1.3,-8,1.3c-11.5,0,-18.4,-7.2,-18.4,-19.3c0,-12.2,7.2,-19.8,18.7,-19.8c3.3,0,6.3,0.8,8,1.3c1.2,0.3,2.4,-0.3,2.8,-1.4l0.6,-1.7c0.2,-0.6,0.1,-1.2,-0.1,-1.7c-0.3,-0.5,-0.8,-0.9,-1.3,-1.1c-2.4,-0.8,-6.6,-1.6,-10.2,-1.6c-15.6,0,-26,10.6,-26,26.2Z" class="g1_1" />
<image x="125" y="290" width="146" height="44" xlink:href="1/shade/1.png" />
<image x="191" y="197" width="82" height="129" xlink:href="1/shade/2.png" />
<image x="119" y="199" width="75" height="132" xlink:href="1/shade/3.png" />

<path d="M0,1286
L0,0
L909,0
L909,1286 z "
fill="none"
stroke-width="1.0"
stroke-linecap="butt"
stroke-linejoin="miter"
stroke="#000000" />
<title>Untitled-1 Page1</title>
</svg>
