<?xml version="1.0" encoding="utf-8"?>
<!-- Generator: Adobe Illustrator 19.0.0, SVG Export Plug-In . SVG Version: 6.00 Build 0)  -->
<svg version="1.1" id="Layer_1" xmlns="http://www.w3.org/2000/svg" xmlns:xlink="http://www.w3.org/1999/xlink" x="0px" y="0px"
	 viewBox="219 235 168.5 106.5" style="enable-background:new 219 235 168.5 106.5;" xml:space="preserve">
<style type="text/css">
	.st0{fill:none;}
	.st1{fill:#474749;}
	.st2{font-family:'ArialMT';}
	.st3{font-size:53.3027px;}
	.st4{fill:#EC174F;}
	.st5{opacity:0.43;clip-path:url(#SVGID_2_);fill:#4AA848;enable-background:new    ;}
	.st6{fill:#FFC325;}
	.st7{fill:#0079C0;}
	.st8{fill:#48A842;}
	.st9{fill:#F5BA38;}
	.st10{fill:#FFFFFF;}
</style>
<g id="XMLID_63_">
	<rect id="XMLID_80_" x="270" y="238.6" class="st0" width="121.8" height="42.7"/>
	<text id="XMLID_50_" transform="matrix(1 0 0 1 269.9815 279.128)" class="st1 st2 st3">GBG</text>
	<g id="XMLID_41_">
		<path id="XMLID_49_" class="st4" d="M235.8,273.1L235.8,273.1c1.6,0,3.2-0.6,4.4-1.8l5.5,5.5l0,0c5.5-5.5,5.5-14.3,0-19.8
			l-5.5,5.5l0,0c2.4,2.4,2.4,6.3,0,8.7C238.9,272.5,237.4,273.1,235.8,273.1z"/>
		<g id="XMLID_46_">
			<g>
				<defs>
					<path id="SVGID_1_" d="M235.8,281v-7.8c1.6,0,3.1-0.6,4.4-1.8l0,0c2.4-2.4,2.4-6.3,0-8.7l0,0l0,0l5.5-5.5
						c5.5,5.5,5.5,14.3,0,19.8l0,0C242.9,279.6,239.3,281,235.8,281L235.8,281z"/>
				</defs>
				<clipPath id="SVGID_2_">
					<use xlink:href="#SVGID_1_"  style="overflow:visible;"/>
				</clipPath>
				<path id="XMLID_48_" class="st5" d="M264.7,258.7l-7.5-2.4c-0.5,1.5-1.5,2.8-3.1,3.6l0,0c-3,1.5-6.7,0.3-8.3-2.7l0,0l0,0l-7,3.6
					c4.1,8.1,11.2,10,18.8,6.1l0,0C261.2,265.1,263.6,262.1,264.7,258.7L264.7,258.7z"/>
			</g>
		</g>
		<path id="XMLID_45_" class="st6" d="M259.9,242.8c-5.5-5.5-14.3-5.5-19.8,0l0,0l5.5,5.6c2.4-2.4,6.3-2.4,8.7,0l0,0
			c1.2,1.2,1.8,2.8,1.8,4.4l0,0l0,0h7.8C264,249.1,262.7,245.5,259.9,242.8L259.9,242.8z"/>
		<path id="XMLID_44_" class="st7" d="M225.9,276.9c5.5,5.5,14.3,5.5,19.8,0l0,0l-5.5-5.5c-2.4,2.4-6.3,2.4-8.7,0l0,0
			c-1.2-1.2-1.8-2.8-1.8-4.4l0,0l0,0h-7.8C221.8,270.5,223.2,274.1,225.9,276.9L225.9,276.9z"/>
		<path id="XMLID_43_" class="st8" d="M256.2,252.8c0,1.6-0.6,3.1-1.8,4.3c-2.4,2.4-6.3,2.4-8.7,0l0,0c-5.4-5.5-14.3-5.5-19.8-0.1
			c-2.7,2.7-4.1,6.3-4.1,9.9h7.8c0-1.6,0.6-3.1,1.8-4.4c2.4-2.4,6.3-2.4,8.7,0l0,0l0,0c5.4,5.5,14.3,5.5,19.8,0.1
			c2.7-2.7,4.1-6.3,4.1-9.9L256.2,252.8z"/>
		<path id="XMLID_42_" class="st4" d="M245.7,257.1L245.7,257.1c-2.4-2.4-2.4-6.3,0-8.7l-5.5-5.6c-2.8,2.8-4.2,6.5-4.1,10.2
			C239.5,253,243,254.4,245.7,257.1z"/>
	</g>
	<g id="XMLID_2_">
		<g id="XMLID_39_">
			<path id="XMLID_40_" class="st9" d="M383.3,334.8c0,2.2-1.8,4-4,4h-153c-2.2,0-4-1.8-4-4v-39c0-2.2,1.8-4,4-4h153
				c2.2,0,4,1.8,4,4V334.8z"/>
		</g>
		<g id="XMLID_37_">
			<path id="XMLID_38_" class="st9" d="M252.1,295.9c-0.3-0.3-0.6-0.6-0.7-0.9c-0.9-2.9,5-2.2,6.4-2.9c3-1.4,3.4-5.1,1.9-7.8
				c-2.3-4.1,0.5-4.9,4.1-3.6c2.1,0.8,4.1,2,5.8,3.5c2.1,1.7,3.7,4,6.1,5.4s5,2.4,7.8,2.8c1.4,0.2,2.7,0.2,4,0.2
				c1,0,2.2,0.2,2.4,1.4c0.3,1.7-2.2,2.9-3.5,3.3c-0.6,0.2-1.4,0.3-2.1,0.3c-1.2,0.1-2.1,0.3-3.2-0.1c-1.3-0.6-2.8-0.6-4.2-0.7
				c-3.5-0.1-7-0.2-10.6-0.2c-3.4-0.1-6.8-0.1-10.3-0.2c-0.4,0-1-0.1-1.3,0c-0.2,0-0.4,0.2-0.5,0.3c-0.4,0.1-0.6,0.1-1,0
				C252.9,296.4,252.5,296.2,252.1,295.9z"/>
		</g>
		<g id="XMLID_4_">
			<path id="XMLID_5_" class="st10" d="M259.5,327.8h-1.7v-22.5H250v-1.6h17.4v1.6h-7.8v22.5H259.5z"/>
			<path id="XMLID_7_" class="st10" d="M270.9,303.7h6.6c3,0,5.2,0.5,6.6,1.5s2.1,2.5,2.1,4.6c0,1.4-0.4,2.6-1.3,3.5
				s-2.1,1.5-3.7,1.8v0.1c1.9,0.3,3.3,0.9,4.2,1.8c0.9,0.9,1.4,2.2,1.4,3.9c0,2.2-0.7,3.9-2.2,5.1s-3.6,1.8-6.3,1.8h-7.4
				L270.9,303.7L270.9,303.7z M272.6,314.4h5.3c2.3,0,3.9-0.4,4.9-1.1c1-0.8,1.5-1.9,1.5-3.5s-0.6-2.8-1.7-3.5
				c-1.2-0.7-2.9-1.1-5.2-1.1h-4.9v9.2H272.6z M272.6,315.9v10.4h5.7c4.5,0,6.7-1.8,6.7-5.4c0-3.3-2.4-5-7.1-5H272.6z"/>
			<path id="XMLID_11_" class="st10" d="M292.1,327.8v-24.1h1.7v24.1H292.1z"/>
			<path id="XMLID_13_" class="st10" d="M300.6,327.8v-24.1h1.7v22.5h11.5v1.6H300.6z"/>
			<path id="XMLID_15_" class="st10" d="M317.9,327.8v-24.1h1.7v24.1H317.9z"/>
			<path id="XMLID_17_" class="st10" d="M339.7,321.6c0,2-0.7,3.6-2.2,4.8c-1.5,1.2-3.4,1.8-5.9,1.8c-2.9,0-5.2-0.3-6.8-1v-1.7
				c1.7,0.7,4,1.1,6.6,1.1c2,0,3.5-0.5,4.7-1.4s1.7-2.1,1.7-3.6c0-0.9-0.2-1.7-0.6-2.3s-1-1.1-1.9-1.6s-2.1-1-3.8-1.6
				c-2.5-0.8-4.2-1.8-5.1-2.7c-0.9-1-1.4-2.3-1.4-3.9c0-1.8,0.7-3.3,2.1-4.4s3.2-1.7,5.5-1.7s4.4,0.4,6.4,1.3l-0.6,1.5
				c-2-0.8-3.9-1.3-5.7-1.3c-1.8,0-3.2,0.4-4.3,1.2c-1.1,0.8-1.6,1.9-1.6,3.4c0,0.9,0.2,1.6,0.5,2.2s0.9,1.1,1.6,1.5s2,1,3.8,1.6
				c1.9,0.6,3.3,1.3,4.2,1.9c0.9,0.6,1.6,1.3,2.1,2.1C339.5,319.6,339.7,320.5,339.7,321.6z"/>
			<path id="XMLID_19_" class="st10" d="M344.8,327.8v-24.1h1.7v24.1H344.8z"/>
		</g>
	</g>
</g>
</svg>
