<svg id="Layer_1" data-name="Layer 1" xmlns="http://www.w3.org/2000/svg" xmlns:xlink="http://www.w3.org/1999/xlink" width="185" height="188" viewBox="0 0 185 188"><defs><style>.cls-1{fill:#4285f4;}.cls-2{fill:#0f9d58;}.cls-3{fill:#ea4335;}.cls-4{fill:#fbbc04;}.cls-5{fill:#565656;}.cls-6{fill:#4e4e4e;}.cls-7{fill:url(#radial-gradient);}.cls-8{fill:url(#radial-gradient-2);}.cls-9{fill:url(#radial-gradient-3);}.cls-10{fill:url(#radial-gradient-4);}.cls-11{fill:#e6e6e5;}</style><radialGradient id="radial-gradient" cx="11.28" cy="984.99" r="8.21" gradientTransform="translate(0 -890)" gradientUnits="userSpaceOnUse"><stop offset="0" stop-color="#848484"/><stop offset="1" stop-color="#838383"/></radialGradient><radialGradient id="radial-gradient-2" cx="35.09" cy="978.09" r="8.21" gradientTransform="translate(0 -890)" gradientUnits="userSpaceOnUse"><stop offset="0" stop-color="#626262"/><stop offset="1" stop-color="#474747"/></radialGradient><radialGradient id="radial-gradient-3" cx="13.21" cy="976.16" r="6.3" gradientTransform="translate(0 -890)" gradientUnits="userSpaceOnUse"><stop offset="0" stop-color="#a0a0a0"/><stop offset="1" stop-color="#868686"/></radialGradient><radialGradient id="radial-gradient-4" cx="33.14" cy="986.94" r="6.3" gradientTransform="translate(0 -890)" gradientUnits="userSpaceOnUse"><stop offset="0" stop-color="#ccc"/><stop offset="1" stop-color="silver"/></radialGradient></defs><title>logos_2019</title><path class="cls-1" d="M20.22,35.44a3.5,3.5,0,0,1-2.95,1.69,3.38,3.38,0,0,1-1.68-.42l-12-6.95a3.44,3.44,0,0,1-1.27-4.63,3.49,3.49,0,0,1,3-1.68A3.38,3.38,0,0,1,7,23.87l12,7A3.43,3.43,0,0,1,20.22,35.44Z"/><path class="cls-2" d="M26.21,18.27a3.5,3.5,0,0,1,2.95-1.69,3.38,3.38,0,0,1,1.68.42l12,7a3.43,3.43,0,0,1,1.27,4.62,3.48,3.48,0,0,1-3,1.69,3.38,3.38,0,0,1-1.68-.42l-12-6.95a3.33,3.33,0,0,1-1.31-4.54A.59.59,0,0,1,26.21,18.27Z"/><path class="cls-3" d="M19,22.93,13,26.4,7.49,23.24a3.16,3.16,0,0,0-1.68-.52L15.59,17a3.29,3.29,0,0,1,1.68-.43,3.5,3.5,0,0,1,2.95,1.69A3.44,3.44,0,0,1,19,22.93Z"/><path class="cls-4" d="M27.37,30.82l6-3.48,5.47,3.16a3.24,3.24,0,0,0,1.68.53l-9.78,5.68a3.44,3.44,0,0,1-1.69.42,3.49,3.49,0,0,1-2.94-1.69A3.53,3.53,0,0,1,27.37,30.82Z"/><path class="cls-5" d="M50.94,46.91V45.75l1.48-1.47C56,40.91,57.57,39.13,57.57,37a2.47,2.47,0,0,0-2.2-2.73,2.35,2.35,0,0,0-.53,0,4.7,4.7,0,0,0-3,1.15l-.63-1.36a5.78,5.78,0,0,1,3.89-1.37,3.87,3.87,0,0,1,4.2,3.49,4.34,4.34,0,0,1,0,.51c0,2.52-1.89,4.62-4.73,7.36l-1.16,1h6.2v1.55H50.94Z"/><path class="cls-5" d="M71.45,39.86c0,4.74-1.79,7.26-4.84,7.26-2.74,0-4.53-2.52-4.53-7s2-7.15,4.84-7.15S71.45,35.44,71.45,39.86ZM64,40.07c0,3.58,1.05,5.68,2.84,5.68s2.84-2.21,2.84-5.78c0-3.37-.84-5.68-2.84-5.68C65.13,34.39,64,36.39,64,40.07Z"/><path class="cls-5" d="M77.65,34.92h0l-2.42,1.23-.31-1.47,3-1.58h1.58V46.88H77.76v-12Z"/><path class="cls-5" d="M86.07,45.62a8.09,8.09,0,0,0,1.47-.11,4.82,4.82,0,0,0,2.84-1.37,5.57,5.57,0,0,0,1.79-3.68h-.11a4.21,4.21,0,0,1-7.36-2.73,4.76,4.76,0,0,1,4.58-4.94h.15c2.84,0,4.53,2.32,4.53,5.79a8.89,8.89,0,0,1-2.42,6.52,7.12,7.12,0,0,1-4,1.89,10.54,10.54,0,0,1-1.68.11V45.62Zm.63-8a2.7,2.7,0,0,0,2.43,2.94h.2a3.15,3.15,0,0,0,2.73-1.48,1.39,1.39,0,0,0,.21-.63c0-2.31-.84-4.2-2.84-4.2-1.57,0-2.72,1.5-2.72,3.39Z"/><path class="cls-5" d="M104.37,44.81a6.2,6.2,0,0,0,3.16.94c1.78,0,2.84-.94,2.84-2.31s-.74-2-2.63-2.74c-2.21-.84-3.68-2-3.68-3.89,0-2.1,1.78-3.79,4.41-3.79a7,7,0,0,1,3,.64L111,35.13a5.89,5.89,0,0,0-2.63-.63c-1.9,0-2.63,1.15-2.63,2.1,0,1.26.84,1.89,2.73,2.63,2.32,1,3.58,2,3.58,4.1s-1.58,4-4.84,4a8.11,8.11,0,0,1-3.58-.84Z"/><path class="cls-5" d="M116.26,42.28a3.14,3.14,0,0,0,2.81,3.46,2.54,2.54,0,0,0,.55,0,5.88,5.88,0,0,0,2.74-.52l.31,1.26a7.3,7.3,0,0,1-3.26.63c-3,0-4.84-2-4.84-5s1.79-5.36,4.63-5.36c3.26,0,4.11,2.84,4.11,4.62a1.89,1.89,0,0,1-.11.85h-6.94ZM121.52,41c0-1.16-.42-3-2.53-3a3,3,0,0,0-2.73,3Z"/><path class="cls-5" d="M131.41,46.91l-.11-1.26h-.11a3.71,3.71,0,0,1-3.05,1.47,2.82,2.82,0,0,1-3-2.58c0-.09,0-.17,0-.26,0-2.42,2.11-3.68,6-3.68v-.24a2,2,0,0,0-1.72-2.31,2.66,2.66,0,0,0-.49,0,5.43,5.43,0,0,0-2.63.74l-.42-1.16a6.32,6.32,0,0,1,3.26-.84c3,0,3.79,2.1,3.79,4.1v3.68a8.91,8.91,0,0,0,.21,2.42h-1.68Zm-.22-5c-2,0-4.2.32-4.2,2.21a1.54,1.54,0,0,0,1.39,1.68h.29a2.56,2.56,0,0,0,2.42-1.68,1.07,1.07,0,0,0,.1-.53Z"/><path class="cls-5" d="M136,45.12a5.08,5.08,0,0,0,2.42.74c1.27,0,1.9-.63,1.9-1.47s-.53-1.37-1.9-1.79c-1.79-.63-2.63-1.58-2.63-2.84,0-1.58,1.27-2.95,3.47-2.95a4.75,4.75,0,0,1,2.42.63l-.42,1.26a4.61,4.61,0,0,0-2-.52c-1,0-1.68.63-1.68,1.37s.63,1.15,1.9,1.68c1.68.63,2.62,1.47,2.62,2.94,0,1.79-1.36,2.95-3.68,2.95a7.52,7.52,0,0,1-2.84-.63Z"/><path class="cls-5" d="M153.71,41.86c0,3.68-2.53,5.26-5,5.26-2.73,0-4.73-2-4.73-5.15,0-3.37,2.21-5.26,4.94-5.26a4.82,4.82,0,0,1,4.75,4.89C153.72,41.68,153.71,41.77,153.71,41.86Zm-7.79.11c0,2.2,1.26,3.78,3.05,3.78S152,44.17,152,41.86c0-1.68-.84-3.79-2.94-3.79-2.32.11-3.16,2-3.16,3.9Z"/><path class="cls-5" d="M156.44,39.76a22.74,22.74,0,0,0-.1-2.74h1.57L158,38.7h0a3.75,3.75,0,0,1,3.26-1.89c1.37,0,3.47.84,3.47,4.21v5.89H163V41.23c0-1.58-.63-2.95-2.31-2.95a2.59,2.59,0,0,0-2.42,1.9,2.16,2.16,0,0,0-.11.84v6h-1.78V39.76Z"/><g id="svg_70" data-name="svg 70"><g id="svg_71" data-name="svg 71"><g id="Layer0_0_MEMBER_0_MEMBER_0_MEMBER_0_FILL" data-name="Layer0 0 MEMBER 0 MEMBER 0 MEMBER 0 FILL"><path id="svg_1" data-name="svg 1" class="cls-6" d="M116.73,14.14c0-2.52-.63-4.31-2-5.47a8.42,8.42,0,0,0-5.78-2h-5.41V22.35h4.94a8.93,8.93,0,0,0,6.1-2.11,8.57,8.57,0,0,0,2.11-6.1M111.43,11a4.83,4.83,0,0,1,.84,3.26,6,6,0,0,1-.84,3.47,3.5,3.5,0,0,1-2.84,1.05h-1V9.93h1.26A3.17,3.17,0,0,1,111.47,11Z"/></g></g></g><g id="svg_72" data-name="svg 72"><g id="svg_73" data-name="svg 73"><g id="Layer0_0_MEMBER_0_MEMBER_0_MEMBER_1_FILL" data-name="Layer0 0 MEMBER 0 MEMBER 0 MEMBER 1 FILL"><path id="svg_2" data-name="svg 2" class="cls-6" d="M127.57,11.3a5.83,5.83,0,0,0-4.21-1.47,6,6,0,0,0-4.42,1.68,6.46,6.46,0,0,0-1.58,4.74,6.08,6.08,0,0,0,1.69,4.62,7.11,7.11,0,0,0,4.73,1.58,14.14,14.14,0,0,0,2.52-.1,13.2,13.2,0,0,0,2.11-.74V18.56a13.37,13.37,0,0,1-2,.74,10.63,10.63,0,0,1-2.11.21,3,3,0,0,1-1.89-.63,2,2,0,0,1-.84-1.58H129V15.4a5.5,5.5,0,0,0-1.47-4.1m-5.26,1.9a2.16,2.16,0,0,1,1.26-.53,2,2,0,0,1,1.79,2h-3.58A1.9,1.9,0,0,1,122.31,13.2Z"/></g></g></g><g id="svg_74" data-name="svg 74"><g id="svg_75" data-name="svg 75"><g id="Layer0_0_MEMBER_0_MEMBER_0_MEMBER_2_FILL" data-name="Layer0 0 MEMBER 0 MEMBER 0 MEMBER 2 FILL"><path id="svg_3" data-name="svg 3" class="cls-6" d="M142.08,10h-4.31l-2.1,7.26a7.63,7.63,0,0,0-.21,1.16h-.11v-.85c-.11,0-.11-.1-.11-.31v-.09l-2.1-7.15h-4.35l4.52,12.1h4.1L142,10.06Z"/></g></g></g><g id="svg_76" data-name="svg 76"><g id="svg_77" data-name="svg 77"><g id="Layer0_0_MEMBER_0_MEMBER_0_MEMBER_3_FILL" data-name="Layer0 0 MEMBER 0 MEMBER 0 MEMBER 3 FILL"><path id="svg_4" data-name="svg 4" class="cls-6" d="M151.65,6.57h-9.19V22.24h4.1V16.46h4.74V13h-4.74V10h5.05Z"/></g></g></g><g id="svg_78" data-name="svg 78"><g id="svg_79" data-name="svg 79"><g id="Layer0_0_MEMBER_0_MEMBER_0_MEMBER_4_FILL" data-name="Layer0 0 MEMBER 0 MEMBER 0 MEMBER 4 FILL"><path id="svg_5" data-name="svg 5" class="cls-6" d="M162.17,11.3A5.79,5.79,0,0,0,158,9.83a5.93,5.93,0,0,0-4.42,1.68A6.46,6.46,0,0,0,152,16.25a6.31,6.31,0,0,0,1.68,4.62,7.15,7.15,0,0,0,4.74,1.58,12.23,12.23,0,0,0,2.42-.1,13.09,13.09,0,0,0,2.1-.74V18.56a12.6,12.6,0,0,1-2,.74,10.61,10.61,0,0,1-2.1.21,3,3,0,0,1-1.9-.63,1.68,1.68,0,0,1-.73-1.58h7.47V15.4a5.51,5.51,0,0,0-1.48-4.1M157,13.2a2.19,2.19,0,0,1,1.26-.53,1.28,1.28,0,0,1,1.26.63,1.84,1.84,0,0,1,.53,1.37h-3.58A1.9,1.9,0,0,1,157,13.2Z"/></g></g></g><g id="svg_80" data-name="svg 80"><g id="svg_81" data-name="svg 81"><g id="Layer0_0_MEMBER_0_MEMBER_0_MEMBER_5_FILL" data-name="Layer0 0 MEMBER 0 MEMBER 0 MEMBER 5 FILL"><path id="svg_6" data-name="svg 6" class="cls-6" d="M174,18.56a2.7,2.7,0,0,0-.42-1.68,3.46,3.46,0,0,0-.84-1.16,6.54,6.54,0,0,0-1.9-1.05,13.53,13.53,0,0,1-2.1-.84c-.21-.11-.42-.21-.42-.53s.31-.53.95-.53a5,5,0,0,1,1.47.32,10.72,10.72,0,0,1,1.79.74l1.15-2.74a9.73,9.73,0,0,0-2.1-.75,8.24,8.24,0,0,0-2.21-.3,6.45,6.45,0,0,0-3.68,1,2.92,2.92,0,0,0-1.26,2.63,3.35,3.35,0,0,0,.73,2.21,7.21,7.21,0,0,0,2.32,1.57c1.15.53,1.89.83,2.1,1A.87.87,0,0,1,170,19c0,.42-.42.63-1.37.63a11.55,11.55,0,0,1-4.2-1.05v3.26a10.1,10.1,0,0,0,2.1.53,12.77,12.77,0,0,0,2.31.1,6.32,6.32,0,0,0,3.79-.94,3.78,3.78,0,0,0,1.37-3Z"/></g></g></g><g id="svg_82" data-name="svg 82"><g id="svg_83" data-name="svg 83"><g id="Layer0_0_MEMBER_0_MEMBER_0_MEMBER_6_FILL" data-name="Layer0 0 MEMBER 0 MEMBER 0 MEMBER 6 FILL"><path id="svg_7" data-name="svg 7" class="cls-6" d="M174.38,11.62V13.3h1.47v5a5.54,5.54,0,0,0,.84,3.26,3.71,3.71,0,0,0,3.05,1,13.45,13.45,0,0,0,1.79-.21,8.15,8.15,0,0,0,1.58-.53V18.79a8.4,8.4,0,0,1-2.11.42c-.84,0-1.15-.42-.94-1.15V13.32H183V10.17h-2.94V7.75h-2.74l-1,2.52-1.89,1.37Z"/></g></g></g><g id="svg_102" data-name="svg 102"><g id="svg_103" data-name="svg 103"><g id="Layer0_0_MEMBER_0_MEMBER_2_MEMBER_0_FILL" data-name="Layer0 0 MEMBER 0 MEMBER 2 MEMBER 0 FILL"><path id="svg_17" data-name="svg 17" class="cls-6" d="M53.05,8.67c-1.48,1.37-2.11,3.26-2.11,5.89a8.45,8.45,0,0,0,2,6,7.29,7.29,0,0,0,5.58,2.1,19.72,19.72,0,0,0,6.1-.94V13.3H57.89v3.26h2.84V19a13.64,13.64,0,0,1-1.79.21A3.14,3.14,0,0,1,56.31,18a5.13,5.13,0,0,1-.84-3.36,5.41,5.41,0,0,1,.94-3.47A3.71,3.71,0,0,1,59.25,10a9,9,0,0,1,3.69.84L64.3,7.52a15.5,15.5,0,0,0-2.21-.74,11.3,11.3,0,0,0-2.84-.32A9.66,9.66,0,0,0,53.05,8.67Z"/></g></g></g><g id="svg_104" data-name="svg 104"><g id="svg_105" data-name="svg 105"><g id="Layer0_0_MEMBER_0_MEMBER_2_MEMBER_1_FILL" data-name="Layer0 0 MEMBER 0 MEMBER 2 MEMBER 1 FILL"><path id="svg_18" data-name="svg 18" class="cls-6" d="M79.81,13.93a7.47,7.47,0,0,0-2-5.47,8.44,8.44,0,0,0-5.89-2H66.45V22.14h5A9.4,9.4,0,0,0,77.6,20a8.23,8.23,0,0,0,2.21-6.1M74.44,11c.63.63.85,1.68.85,3.26a5.49,5.49,0,0,1-1,3.47,3.16,3.16,0,0,1-2.74,1.05h-.94V9.85h1.26A3.14,3.14,0,0,1,74.44,11Z"/></g></g></g><g id="svg_106" data-name="svg 106"><g id="svg_107" data-name="svg 107"><g id="Layer0_0_MEMBER_0_MEMBER_2_MEMBER_2_FILL" data-name="Layer0 0 MEMBER 0 MEMBER 2 MEMBER 2 FILL"><path id="svg_19" data-name="svg 19" class="cls-6" d="M94.32,21.61V13.2H87.59v3.26h2.84v2.42a17.83,17.83,0,0,1-1.79.21A3.17,3.17,0,0,1,86,17.93a6.13,6.13,0,0,1-.84-3.37,5.49,5.49,0,0,1,1-3.47,3.71,3.71,0,0,1,2.73-1.16,9.19,9.19,0,0,1,3.79.85L94,7.41c-.53-.22-1.26-.42-2.21-.75A13.49,13.49,0,0,0,89,6.36a8.51,8.51,0,0,0-6,2.1c-1.47,1.36-2.1,3.26-2.1,5.89a8.4,8.4,0,0,0,2,6,7.27,7.27,0,0,0,5.57,2.1A15.91,15.91,0,0,0,94.32,21.61Z"/></g></g></g><path class="cls-7" d="M20.22,100.14a3.49,3.49,0,0,1-2.95,1.68,3.28,3.28,0,0,1-1.68-.42l-12-6.94A3.44,3.44,0,0,1,2.33,89.8a3.5,3.5,0,0,1,3-1.69A3.38,3.38,0,0,1,7,88.53l12,7A3.44,3.44,0,0,1,20.22,100.14Z"/><path class="cls-8" d="M26.21,83a3.49,3.49,0,0,1,2.95-1.68,3.28,3.28,0,0,1,1.68.42l12,6.94A3.44,3.44,0,0,1,44.1,93.3a3.49,3.49,0,0,1-3,1.68,3.28,3.28,0,0,1-1.68-.42l-12-6.94a3.34,3.34,0,0,1-1.31-4.55A.59.59,0,0,0,26.21,83Z"/><path class="cls-9" d="M19,87.62l-6,3.47L7.49,87.93a3.16,3.16,0,0,0-1.68-.52l9.78-5.68a3.28,3.28,0,0,1,1.68-.42A3.49,3.49,0,0,1,20.22,83,3.44,3.44,0,0,1,19,87.62Z"/><path class="cls-10" d="M27.37,95.51l6-3.47,5.47,3.15a3.15,3.15,0,0,0,1.68.53l-9.78,5.68a3.34,3.34,0,0,1-1.69.42,3.48,3.48,0,0,1-2.94-1.68A3.54,3.54,0,0,1,27.37,95.51Z"/><path class="cls-5" d="M50.94,111.6v-1.15L52.42,109c3.57-3.36,5.15-5.15,5.15-7.25A2.48,2.48,0,0,0,55.37,99a2.35,2.35,0,0,0-.53,0,4.77,4.77,0,0,0-3,1.16l-.63-1.37a5.83,5.83,0,0,1,3.89-1.37,3.87,3.87,0,0,1,4.2,3.5,4.13,4.13,0,0,1,0,.5c0,2.52-1.89,4.63-4.73,7.36l-1.16,1h6.2v1.58H50.94Z"/><path class="cls-5" d="M71.45,104.52c0,4.74-1.79,7.26-4.84,7.26-2.74,0-4.53-2.52-4.53-7s2-7.15,4.84-7.15S71.45,100.14,71.45,104.52Zm-7.47.21c0,3.58,1.05,5.68,2.84,5.68s2.84-2.2,2.84-5.78c0-3.37-.84-5.68-2.84-5.68-1.69.14-2.84,2.13-2.84,5.82Z"/><path class="cls-5" d="M77.65,99.61h0l-2.42,1.26-.31-1.47,3-1.58h1.58V111.6H77.76v-12Z"/><path class="cls-5" d="M86.07,110.34a8.08,8.08,0,0,0,1.47-.1,4.88,4.88,0,0,0,2.84-1.37,5.6,5.6,0,0,0,1.79-3.68h-.11a4.21,4.21,0,0,1-7.36-2.74,4.76,4.76,0,0,1,4.58-4.94h.15c2.84,0,4.53,2.31,4.53,5.78a8.87,8.87,0,0,1-2.42,6.52,7.07,7.07,0,0,1-4,1.9,10.53,10.53,0,0,1-1.68.1v-1.47Zm.63-8a2.69,2.69,0,0,0,2.43,2.93h.2a3.14,3.14,0,0,0,2.73-1.47,1.43,1.43,0,0,0,.21-.63c0-2.32-.84-4.21-2.84-4.21-1.57,0-2.72,1.47-2.72,3.37Z"/><path class="cls-5" d="M104.37,109.5a6.31,6.31,0,0,0,3.16,1c1.78,0,2.84-1,2.84-2.32s-.74-2-2.63-2.73c-2.21-.84-3.68-2-3.68-3.9,0-2.1,1.78-3.78,4.41-3.78a7,7,0,0,1,3,.63L111,99.82a5.89,5.89,0,0,0-2.63-.63c-1.9,0-2.63,1.16-2.63,2.1,0,1.27.84,1.9,2.73,2.63,2.32,1,3.58,2,3.58,4.11s-1.58,4-4.84,4a8.11,8.11,0,0,1-3.58-.84Z"/><path class="cls-5" d="M116.26,107a3.16,3.16,0,0,0,2.81,3.47,3.39,3.39,0,0,0,.55,0,6,6,0,0,0,2.74-.53l.31,1.26a7.3,7.3,0,0,1-3.26.63c-3,0-4.84-2-4.84-5s1.79-5.36,4.63-5.36c3.26,0,4.11,2.84,4.11,4.63a1.86,1.86,0,0,1-.11.84h-6.94Zm5.26-1.26c0-1.15-.42-2.94-2.53-2.94a3,3,0,0,0-2.73,2.94Z"/><path class="cls-5" d="M131.41,111.6l-.11-1.26h-.11a3.71,3.71,0,0,1-3.05,1.47,2.81,2.81,0,0,1-3-2.57c0-.09,0-.18,0-.27,0-2.42,2.11-3.68,6-3.68v-.21a2,2,0,0,0-1.72-2.3,1.6,1.6,0,0,0-.49,0,5.53,5.53,0,0,0-2.63.73l-.42-1.15a6.23,6.23,0,0,1,3.26-.85c3,0,3.79,2.11,3.79,4.11v3.68a8.94,8.94,0,0,0,.21,2.42h-1.68Zm-.22-5c-2,0-4.2.32-4.2,2.21a1.55,1.55,0,0,0,1.39,1.69h.29a2.57,2.57,0,0,0,2.42-1.69,1,1,0,0,0,.1-.52Z"/><path class="cls-5" d="M136,109.78a5.08,5.08,0,0,0,2.42.74c1.27,0,1.9-.63,1.9-1.47s-.53-1.37-1.9-1.79c-1.79-.63-2.63-1.58-2.63-2.84,0-1.58,1.27-3,3.47-3a4.75,4.75,0,0,1,2.42.63l-.42,1.27a4.48,4.48,0,0,0-2-.53c-1,0-1.68.63-1.68,1.37s.63,1.16,1.9,1.68c1.68.63,2.62,1.47,2.62,3,0,1.78-1.36,2.94-3.68,2.94a7.52,7.52,0,0,1-2.84-.63Z"/><path class="cls-5" d="M153.71,106.55c0,3.69-2.53,5.26-5,5.26-2.73,0-4.73-2-4.73-5.15,0-3.37,2.21-5.26,4.94-5.26a4.82,4.82,0,0,1,4.75,4.89C153.72,106.38,153.71,106.47,153.71,106.55Zm-7.79.11c0,2.21,1.26,3.79,3.05,3.79s3.05-1.58,3.05-3.9c0-1.68-.84-3.78-2.94-3.78-2.32.1-3.16,2-3.16,3.86Z"/><path class="cls-5" d="M156.44,104.45a22.58,22.58,0,0,0-.1-2.73h1.57l.11,1.68h0a3.76,3.76,0,0,1,3.26-1.9c1.37,0,3.47.85,3.47,4.21v5.89H163v-5.68c0-1.58-.63-2.94-2.31-2.94a2.58,2.58,0,0,0-2.42,1.89,2.19,2.19,0,0,0-.11.84v6h-1.78v-7.26Z"/><g id="svg_70-2" data-name="svg 70-2"><g id="svg_71-2" data-name="svg 71-2"><g id="Layer0_0_MEMBER_0_MEMBER_0_MEMBER_0_FILL-2" data-name="Layer0 0 MEMBER 0 MEMBER 0 MEMBER 0 FILL-2"><path id="svg_1-2" data-name="svg 1-2" class="cls-6" d="M116.73,78.84c0-2.53-.63-4.32-2-5.47a8.37,8.37,0,0,0-5.78-2h-5.41V87h4.94a9,9,0,0,0,6.1-2.1,8.59,8.59,0,0,0,2.11-6.1m-5.26-3.16a4.84,4.84,0,0,1,.84,3.26,5.94,5.94,0,0,1-.84,3.47,3.5,3.5,0,0,1-2.84,1h-1V74.63h1.26a3.13,3.13,0,0,1,2.57,1.05Z"/></g></g></g><g id="svg_72-2" data-name="svg 72-2"><g id="svg_73-2" data-name="svg 73-2"><g id="Layer0_0_MEMBER_0_MEMBER_0_MEMBER_1_FILL-2" data-name="Layer0 0 MEMBER 0 MEMBER 0 MEMBER 1 FILL-2"><path id="svg_2-2" data-name="svg 2-2" class="cls-6" d="M127.57,76a5.88,5.88,0,0,0-4.21-1.48,6,6,0,0,0-4.42,1.69,6.43,6.43,0,0,0-1.58,4.73,6.12,6.12,0,0,0,1.69,4.63,7.11,7.11,0,0,0,4.73,1.58A14.14,14.14,0,0,0,126.3,87a12.29,12.29,0,0,0,2.11-.74v-3a12.35,12.35,0,0,1-2,.74,10.63,10.63,0,0,1-2.11.21,3,3,0,0,1-1.89-.63,2,2,0,0,1-.84-1.58H129V80.1a5.49,5.49,0,0,0-1.47-4.1m-5.26,1.89a2.16,2.16,0,0,1,1.26-.53,2,2,0,0,1,1.79,2h-3.58A1.91,1.91,0,0,1,122.31,77.89Z"/></g></g></g><g id="svg_74-2" data-name="svg 74-2"><g id="svg_75-2" data-name="svg 75-2"><g id="Layer0_0_MEMBER_0_MEMBER_0_MEMBER_2_FILL-2" data-name="Layer0 0 MEMBER 0 MEMBER 0 MEMBER 2 FILL-2"><path id="svg_3-2" data-name="svg 3-2" class="cls-6" d="M142.08,74.73h-4.31L135.67,82a7.63,7.63,0,0,0-.21,1.16h-.11v-.84c-.11,0-.11-.11-.11-.32v-.21l-2.1-7.15h-4.35l4.52,12.1h4.1l4.63-12Z"/></g></g></g><g id="svg_76-2" data-name="svg 76-2"><g id="svg_77-2" data-name="svg 77-2"><g id="Layer0_0_MEMBER_0_MEMBER_0_MEMBER_3_FILL-2" data-name="Layer0 0 MEMBER 0 MEMBER 0 MEMBER 3 FILL-2"><path id="svg_4-2" data-name="svg 4-2" class="cls-6" d="M151.65,71.26h-9.19V86.94h4.1V81.15h4.74V77.68h-4.74V74.63h5.05Z"/></g></g></g><g id="svg_78-2" data-name="svg 78-2"><g id="svg_79-2" data-name="svg 79-2"><g id="Layer0_0_MEMBER_0_MEMBER_0_MEMBER_4_FILL-2" data-name="Layer0 0 MEMBER 0 MEMBER 0 MEMBER 4 FILL-2"><path id="svg_5-2" data-name="svg 5-2" class="cls-6" d="M162.17,76a5.84,5.84,0,0,0-4.2-1.48,5.94,5.94,0,0,0-4.42,1.69A6.43,6.43,0,0,0,152,80.94a6.32,6.32,0,0,0,1.68,4.63,7.15,7.15,0,0,0,4.74,1.58,8,8,0,0,0,4.52-.85v-3a11.69,11.69,0,0,1-2,.74,10.61,10.61,0,0,1-2.1.21,3,3,0,0,1-1.9-.63,1.68,1.68,0,0,1-.73-1.58h7.47V80.1a5.49,5.49,0,0,0-1.48-4.1M157,77.89a2.19,2.19,0,0,1,1.26-.53,1.28,1.28,0,0,1,1.26.63,1.85,1.85,0,0,1,.53,1.37h-3.58a1.91,1.91,0,0,1,.53-1.47Z"/></g></g></g><g id="svg_80-2" data-name="svg 80-2"><g id="svg_81-2" data-name="svg 81-2"><g id="Layer0_0_MEMBER_0_MEMBER_0_MEMBER_5_FILL-2" data-name="Layer0 0 MEMBER 0 MEMBER 0 MEMBER 5 FILL-2"><path id="svg_6-2" data-name="svg 6-2" class="cls-6" d="M174,83.25a2.7,2.7,0,0,0-.42-1.68,3.56,3.56,0,0,0-.84-1.16,6.78,6.78,0,0,0-1.9-1,13.53,13.53,0,0,1-2.1-.84c-.21-.1-.42-.21-.42-.53s.31-.52.95-.52a4.65,4.65,0,0,1,1.47.31,10.72,10.72,0,0,1,1.79.74l1.15-2.73a8.77,8.77,0,0,0-2.1-.75,7.87,7.87,0,0,0-2.21-.31,6.61,6.61,0,0,0-3.68,1,2.92,2.92,0,0,0-1.26,2.63,3.33,3.33,0,0,0,.73,2.21,7.24,7.24,0,0,0,2.32,1.58c1.15.52,1.89.83,2.1.94a.87.87,0,0,1,.42.63c0,.43-.42.64-1.37.64a11.56,11.56,0,0,1-4.2-1.06v3.26a10.1,10.1,0,0,0,2.1.53,12.77,12.77,0,0,0,2.31.11,6.33,6.33,0,0,0,3.79-1,3.77,3.77,0,0,0,1.37-3Z"/></g></g></g><g id="svg_82-2" data-name="svg 82-2"><g id="svg_83-2" data-name="svg 83-2"><g id="Layer0_0_MEMBER_0_MEMBER_0_MEMBER_6_FILL-2" data-name="Layer0 0 MEMBER 0 MEMBER 0 MEMBER 6 FILL-2"><path id="svg_7-2" data-name="svg 7-2" class="cls-6" d="M174.38,76.31V78h1.47v5a5.5,5.5,0,0,0,.84,3.26,3.68,3.68,0,0,0,3.05,1,10.79,10.79,0,0,0,1.79-.21,8.15,8.15,0,0,0,1.58-.53v-3a8.4,8.4,0,0,1-2.11.42c-.84,0-1.15-.42-.94-1.16V78H183V74.86h-2.94V72.44h-2.74l-1,2.52-1.89,1.37Z"/></g></g></g><g id="svg_102-2" data-name="svg 102-2"><g id="svg_103-2" data-name="svg 103-2"><g id="Layer0_0_MEMBER_0_MEMBER_2_MEMBER_0_FILL-2" data-name="Layer0 0 MEMBER 0 MEMBER 2 MEMBER 0 FILL-2"><path id="svg_17-2" data-name="svg 17-2" class="cls-6" d="M53.05,73.37c-1.48,1.36-2.11,3.26-2.11,5.89a8.44,8.44,0,0,0,2,6,7.3,7.3,0,0,0,5.58,2.11,19.44,19.44,0,0,0,6.1-1V78H57.89v3.27h2.84v2.41a15.62,15.62,0,0,1-1.79.22,3.2,3.2,0,0,1-2.63-1.16,5.14,5.14,0,0,1-.84-3.37,5.42,5.42,0,0,1,.94-3.47,3.71,3.71,0,0,1,2.84-1.16,9.21,9.21,0,0,1,3.69.84l1.36-3.36a16.86,16.86,0,0,0-2.21-.74,11.29,11.29,0,0,0-2.84-.31A9.55,9.55,0,0,0,53.05,73.37Z"/></g></g></g><g id="svg_104-2" data-name="svg 104-2"><g id="svg_105-2" data-name="svg 105-2"><g id="Layer0_0_MEMBER_0_MEMBER_2_MEMBER_1_FILL-2" data-name="Layer0 0 MEMBER 0 MEMBER 2 MEMBER 1 FILL-2"><path id="svg_18-2" data-name="svg 18-2" class="cls-6" d="M79.81,78.63a7.46,7.46,0,0,0-2-5.47,8.39,8.39,0,0,0-5.89-2H66.45V86.83h5a9.39,9.39,0,0,0,6.1-2.1,8.24,8.24,0,0,0,2.21-6.1m-5.37-2.95c.63.63.85,1.68.85,3.26a5.48,5.48,0,0,1-1,3.47,3.16,3.16,0,0,1-2.74,1h-.94V74.63h1.26a2.81,2.81,0,0,1,2.52,1.05Z"/></g></g></g><g id="svg_106-2" data-name="svg 106-2"><g id="svg_107-2" data-name="svg 107-2"><g id="Layer0_0_MEMBER_0_MEMBER_2_MEMBER_2_FILL-2" data-name="Layer0 0 MEMBER 0 MEMBER 2 MEMBER 2 FILL-2"><path id="svg_19-2" data-name="svg 19-2" class="cls-6" d="M94.32,86.3V77.89H87.59v3.26h2.84v2.42a17.83,17.83,0,0,1-1.79.21A3.14,3.14,0,0,1,86,82.62a6.08,6.08,0,0,1-.84-3.36,5.48,5.48,0,0,1,1-3.47,3.64,3.64,0,0,1,2.73-1.16,9,9,0,0,1,3.79.84L94,72.1c-.53-.22-1.26-.42-2.21-.74A12.87,12.87,0,0,0,89,71.05a8.48,8.48,0,0,0-6,2.11c-1.47,1.35-2.1,3.26-2.1,5.89a8.39,8.39,0,0,0,2,6,7.28,7.28,0,0,0,5.57,2.11A15.92,15.92,0,0,0,94.32,86.3Z"/></g></g></g><path class="cls-1" d="M20.22,169.74a3.5,3.5,0,0,1-2.95,1.69,3.38,3.38,0,0,1-1.68-.42l-12-6.81a3.44,3.44,0,0,1-1.27-4.63,3.49,3.49,0,0,1,3-1.68,3.28,3.28,0,0,1,1.68.42l12,6.94a3.3,3.3,0,0,1,1.26,4.49Z"/><path class="cls-2" d="M26.21,152.63A3.47,3.47,0,0,1,29.16,151a3.18,3.18,0,0,1,1.68.42l12,6.94a3.44,3.44,0,0,1,1.27,4.63,3.49,3.49,0,0,1-3,1.68,3.28,3.28,0,0,1-1.68-.42l-12-6.94a3.34,3.34,0,0,1-1.31-4.55Z"/><path class="cls-3" d="M19,157.26l-6,3.47-5.47-3.16a3.16,3.16,0,0,0-1.68-.52l9.78-5.68a3.18,3.18,0,0,1,1.68-.42A3.37,3.37,0,0,1,19,157.26Z"/><path class="cls-4" d="M27.37,165.15l6-3.48,5.47,3.16a3.24,3.24,0,0,0,1.68.53L30.74,171a3.47,3.47,0,0,1-4.63-1.27A3.53,3.53,0,0,1,27.37,165.15Z"/><path class="cls-11" d="M50.94,181.31v-1.15l1.48-1.48c3.57-3.36,5.15-5.15,5.15-7.25a2.48,2.48,0,0,0-2.2-2.74,2.35,2.35,0,0,0-.53,0,4.77,4.77,0,0,0-3,1.16l-.63-1.37a5.88,5.88,0,0,1,3.89-1.37,3.87,3.87,0,0,1,4.2,3.5,4.17,4.17,0,0,1,0,.5c0,2.53-1.89,4.63-4.73,7.36l-1.16,1.06h6.2v1.57H50.94Z"/><path class="cls-11" d="M71.45,174.3c0,4.73-1.79,7.26-4.84,7.26-2.74,0-4.53-2.53-4.53-7.05s2-7.15,4.84-7.15S71.45,169.88,71.45,174.3Zm-7.47.21c0,3.57,1.05,5.68,2.84,5.68s2.84-2.21,2.84-5.79c0-3.36-.84-5.68-2.84-5.68C65.13,168.69,64,170.72,64,174.51Z"/><path class="cls-11" d="M77.65,169.25h0l-2.42,1.26L74.92,169l3-1.58h1.58v13.85H77.76V169.22Z"/><path class="cls-11" d="M86.07,180a8.09,8.09,0,0,0,1.47-.11,4.81,4.81,0,0,0,2.84-1.36,5.62,5.62,0,0,0,1.79-3.69h-.11a4.2,4.2,0,0,1-7.36-2.74,4.75,4.75,0,0,1,4.57-4.93h.16c2.84,0,4.53,2.31,4.53,5.79a8.87,8.87,0,0,1-2.42,6.51,7.15,7.15,0,0,1-4,1.91,10.53,10.53,0,0,1-1.68.1V180Zm.63-7.89A2.69,2.69,0,0,0,89.13,175h.2a3.12,3.12,0,0,0,2.73-1.47,1.43,1.43,0,0,0,.21-.63c0-2.31-.84-4.21-2.84-4.21-1.57,0-2.72,1.37-2.72,3.37Z"/><path class="cls-11" d="M104.37,179.14a6.2,6.2,0,0,0,3.16.94c1.78,0,2.84-.94,2.84-2.31s-.74-2-2.63-2.74c-2.21-.85-3.68-2-3.68-3.89,0-2.1,1.78-3.8,4.41-3.8a6.94,6.94,0,0,1,3,.65l-.52,1.46a6,6,0,0,0-2.63-.63c-1.9,0-2.63,1.15-2.63,2.1,0,1.26.84,1.89,2.73,2.63,2.32.95,3.58,2,3.58,4.1s-1.58,4-4.84,4a8.11,8.11,0,0,1-3.58-.84Z"/><path class="cls-11" d="M116.26,176.72a3.15,3.15,0,0,0,2.81,3.46,3.39,3.39,0,0,0,.55,0,6,6,0,0,0,2.74-.53l.31,1.27a7.44,7.44,0,0,1-3.26.63c-3,0-4.84-2-4.84-5.05s1.79-5.37,4.63-5.37c3.26,0,4.11,2.84,4.11,4.63a1.84,1.84,0,0,1-.11.84h-6.94Zm5.26-1.37c0-1.16-.42-2.95-2.53-2.95a3,3,0,0,0-2.73,2.95Z"/><path class="cls-11" d="M131.41,181.31l-.11-1.26h-.11a3.68,3.68,0,0,1-3.05,1.47,2.81,2.81,0,0,1-3-2.57c0-.09,0-.18,0-.27,0-2.41,2.11-3.68,6-3.68v-.21a2,2,0,0,0-1.72-2.3,2,2,0,0,0-.49,0,5.53,5.53,0,0,0-2.63.73l-.42-1.15a6.13,6.13,0,0,1,3.26-.84c3,0,3.79,2.1,3.79,4.1V179a8.94,8.94,0,0,0,.21,2.42h-1.68Zm-.22-5.15c-2,0-4.2.32-4.2,2.21a1.54,1.54,0,0,0,1.39,1.68h.29a2.56,2.56,0,0,0,2.42-1.68,1.09,1.09,0,0,0,.1-.53Z"/><path class="cls-11" d="M136,179.45a5.08,5.08,0,0,0,2.42.74c1.27,0,1.9-.63,1.9-1.47s-.53-1.37-1.9-1.79c-1.79-.63-2.63-1.58-2.63-2.84,0-1.58,1.27-3,3.47-3a4.75,4.75,0,0,1,2.42.63l-.42,1.27a4.48,4.48,0,0,0-2-.53c-1,0-1.68.63-1.68,1.37s.63,1.15,1.9,1.68c1.68.63,2.62,1.47,2.62,2.95,0,1.78-1.36,2.94-3.68,2.94a7.52,7.52,0,0,1-2.84-.63Z"/><path class="cls-11" d="M153.71,176.3c0,3.68-2.53,5.26-5,5.26-2.73,0-4.73-2-4.73-5.16,0-3.36,2.21-5.26,4.94-5.26S153.71,173.25,153.71,176.3Zm-7.79.1c0,2.21,1.26,3.79,3.05,3.79s3.05-1.58,3.05-3.89c0-1.69-.84-3.79-2.94-3.79-2.32,0-3.16,2-3.16,3.89Z"/><path class="cls-11" d="M156.44,174.09a22.74,22.74,0,0,0-.1-2.74h1.57L158,173h0a3.74,3.74,0,0,1,3.26-1.9c1.37,0,3.47.84,3.47,4.21v5.89H163v-5.68c0-1.58-.63-2.95-2.31-2.95a2.6,2.6,0,0,0-2.42,1.9,2.19,2.19,0,0,0-.11.84v6h-1.78v-7.25Z"/><g id="svg_70-3" data-name="svg 70-3"><g id="svg_71-3" data-name="svg 71-3"><g id="Layer0_0_MEMBER_0_MEMBER_0_MEMBER_0_FILL-3" data-name="Layer0 0 MEMBER 0 MEMBER 0 MEMBER 0 FILL-3"><path id="svg_1-3" data-name="svg 1-3" class="cls-11" d="M116.73,148.47c0-2.52-.63-4.31-2-5.47a8.35,8.35,0,0,0-5.78-2h-5.41v15.68h4.94a9,9,0,0,0,6.1-2.11,8.57,8.57,0,0,0,2.11-6.1m-5.26-3.15a4.84,4.84,0,0,1,.84,3.26,6,6,0,0,1-.84,3.47,3.5,3.5,0,0,1-2.84,1h-1v-8.83h1.26a3.13,3.13,0,0,1,2.57,1Z"/></g></g></g><g id="svg_72-3" data-name="svg 72-3"><g id="svg_73-3" data-name="svg 73-3"><g id="Layer0_0_MEMBER_0_MEMBER_0_MEMBER_1_FILL-3" data-name="Layer0 0 MEMBER 0 MEMBER 0 MEMBER 1 FILL-3"><path id="svg_2-3" data-name="svg 2-3" class="cls-11" d="M127.57,145.74a5.83,5.83,0,0,0-4.21-1.47,5.92,5.92,0,0,0-4.42,1.68,6.45,6.45,0,0,0-1.58,4.73,6.12,6.12,0,0,0,1.69,4.63,7.11,7.11,0,0,0,4.73,1.58,14.14,14.14,0,0,0,2.52-.11,13.16,13.16,0,0,0,2.11-.73v-3.16a13.37,13.37,0,0,1-2,.74,10.63,10.63,0,0,1-2.11.21,3,3,0,0,1-1.89-.63,2,2,0,0,1-.84-1.58H129v-1.87a5.08,5.08,0,0,0-1.47-4m-5.26,1.89a2.15,2.15,0,0,1,1.26-.52,2,2,0,0,1,1.79,2h-3.58A1.77,1.77,0,0,1,122.31,147.65Z"/></g></g></g><g id="svg_74-3" data-name="svg 74-3"><g id="svg_75-3" data-name="svg 75-3"><g id="Layer0_0_MEMBER_0_MEMBER_0_MEMBER_2_FILL-3" data-name="Layer0 0 MEMBER 0 MEMBER 0 MEMBER 2 FILL-3"><path id="svg_3-3" data-name="svg 3-3" class="cls-11" d="M142.08,144.37h-4.31l-2.1,7.26a7.63,7.63,0,0,0-.21,1.16h-.11v-.85c-.11,0-.11-.1-.11-.31v-.21l-2.1-7.15h-4.35l4.52,12.09h4.1l4.63-12Z"/></g></g></g><g id="svg_76-3" data-name="svg 76-3"><g id="svg_77-3" data-name="svg 77-3"><g id="Layer0_0_MEMBER_0_MEMBER_0_MEMBER_3_FILL-3" data-name="Layer0 0 MEMBER 0 MEMBER 0 MEMBER 3 FILL-3"><path id="svg_4-3" data-name="svg 4-3" class="cls-11" d="M151.65,140.9h-9.19v15.67h4.1v-5.76h4.74v-3.47h-4.74v-3.05h5.05Z"/></g></g></g><g id="svg_78-3" data-name="svg 78-3"><g id="svg_79-3" data-name="svg 79-3"><g id="Layer0_0_MEMBER_0_MEMBER_0_MEMBER_4_FILL-3" data-name="Layer0 0 MEMBER 0 MEMBER 0 MEMBER 4 FILL-3"><path id="svg_5-3" data-name="svg 5-3" class="cls-11" d="M162.17,145.74a5.79,5.79,0,0,0-4.2-1.47,5.89,5.89,0,0,0-4.42,1.68,6.45,6.45,0,0,0-1.58,4.73,6.32,6.32,0,0,0,1.68,4.63,7.15,7.15,0,0,0,4.74,1.58,12.23,12.23,0,0,0,2.42-.11,13.05,13.05,0,0,0,2.1-.73v-3.16a12.6,12.6,0,0,1-2,.74,10.61,10.61,0,0,1-2.1.21,3,3,0,0,1-1.9-.63,1.68,1.68,0,0,1-.73-1.58h7.47v-1.87a5.09,5.09,0,0,0-1.48-4M157,147.65a2.18,2.18,0,0,1,1.26-.52,1.25,1.25,0,0,1,1.26.63,1.84,1.84,0,0,1,.53,1.37h-3.58a1.77,1.77,0,0,1,.53-1.48Z"/></g></g></g><g id="svg_80-3" data-name="svg 80-3"><g id="svg_81-3" data-name="svg 81-3"><g id="Layer0_0_MEMBER_0_MEMBER_0_MEMBER_5_FILL-3" data-name="Layer0 0 MEMBER 0 MEMBER 0 MEMBER 5 FILL-3"><path id="svg_6-3" data-name="svg 6-3" class="cls-11" d="M174,152.91a2.7,2.7,0,0,0-.42-1.68,3.71,3.71,0,0,0-.84-1.16,7.36,7.36,0,0,0-1.9-1,13.14,13.14,0,0,1-2.1-.84c-.21-.11-.42-.21-.42-.53s.31-.52.95-.52a4.65,4.65,0,0,1,1.47.31,10.72,10.72,0,0,1,1.79.74l1.15-2.74a9.17,9.17,0,0,0-2.1-.73,7.53,7.53,0,0,0-2.21-.32,6.63,6.63,0,0,0-3.68,1,2.92,2.92,0,0,0-1.26,2.63,3.35,3.35,0,0,0,.73,2.21,7.41,7.41,0,0,0,2.32,1.58l2.1.94c.21.21.42.42.42.63,0,.42-.42.63-1.37.63a11.35,11.35,0,0,1-4.2-1.05v3.26a10.1,10.1,0,0,0,2.1.53,12.77,12.77,0,0,0,2.31.1,6.25,6.25,0,0,0,3.79-.94A3.78,3.78,0,0,0,174,152.91Z"/></g></g></g><g id="svg_82-3" data-name="svg 82-3"><g id="svg_83-3" data-name="svg 83-3"><g id="Layer0_0_MEMBER_0_MEMBER_0_MEMBER_6_FILL-3" data-name="Layer0 0 MEMBER 0 MEMBER 0 MEMBER 6 FILL-3"><path id="svg_7-3" data-name="svg 7-3" class="cls-11" d="M174.38,146v1.7h1.47v4.95a5.5,5.5,0,0,0,.84,3.26,3.71,3.71,0,0,0,3.05,1,10.79,10.79,0,0,0,1.79-.21,8.15,8.15,0,0,0,1.58-.53v-3a8,8,0,0,1-2.11.42c-.84,0-1.15-.42-.94-1.15v-4.74H183V144.5h-2.94v-2.42h-2.74l-1,2.52L174.38,146Z"/></g></g></g><g id="svg_102-3" data-name="svg 102-3"><g id="svg_103-3" data-name="svg 103-3"><g id="Layer0_0_MEMBER_0_MEMBER_2_MEMBER_0_FILL-3" data-name="Layer0 0 MEMBER 0 MEMBER 2 MEMBER 0 FILL-3"><path id="svg_17-3" data-name="svg 17-3" class="cls-11" d="M53.05,143c-1.48,1.37-2.11,3.26-2.11,5.89a8.31,8.31,0,0,0,2,6,7.29,7.29,0,0,0,5.58,2.1,19.41,19.41,0,0,0,6.1-.92v-8.42H57.89v3.26h2.84v2.42a13.64,13.64,0,0,1-1.79.21,3.16,3.16,0,0,1-2.63-1.15,5.14,5.14,0,0,1-.84-3.37,5.42,5.42,0,0,1,.94-3.47,3.71,3.71,0,0,1,2.84-1.16,9,9,0,0,1,3.69.84l1.36-3.36a16.86,16.86,0,0,0-2.21-.74,11.29,11.29,0,0,0-2.84-.31A9.6,9.6,0,0,0,53.05,143Z"/></g></g></g><g id="svg_104-3" data-name="svg 104-3"><g id="svg_105-3" data-name="svg 105-3"><g id="Layer0_0_MEMBER_0_MEMBER_2_MEMBER_1_FILL-3" data-name="Layer0 0 MEMBER 0 MEMBER 2 MEMBER 1 FILL-3"><path id="svg_18-3" data-name="svg 18-3" class="cls-11" d="M79.81,148.26a7.47,7.47,0,0,0-2-5.47,8.5,8.5,0,0,0-5.89-2H66.45v15.68h5a9.34,9.34,0,0,0,6.1-2.11,8,8,0,0,0,2.21-6.1m-5.37-2.94c.63.63.85,1.68.85,3.26a5.49,5.49,0,0,1-1,3.47,3.16,3.16,0,0,1-2.74,1h-.94v-8.83h1.26a3.09,3.09,0,0,1,2.52,1Z"/></g></g></g><g id="svg_106-3" data-name="svg 106-3"><g id="svg_107-3" data-name="svg 107-3"><g id="Layer0_0_MEMBER_0_MEMBER_2_MEMBER_2_FILL-3" data-name="Layer0 0 MEMBER 0 MEMBER 2 MEMBER 2 FILL-3"><path id="svg_19-3" data-name="svg 19-3" class="cls-11" d="M94.32,155.94v-8.41H87.59v3.28h2.84v2.42a17.83,17.83,0,0,1-1.79.21A3.14,3.14,0,0,1,86,152.28a6.12,6.12,0,0,1-.84-3.36,5.5,5.5,0,0,1,1-3.48,3.66,3.66,0,0,1,2.73-1.15,9,9,0,0,1,3.79.84L94,141.75c-.53-.21-1.26-.42-2.21-.73A12.88,12.88,0,0,0,89,140.7a8.58,8.58,0,0,0-6,2.1c-1.47,1.37-2.1,3.26-2.1,5.89a8.34,8.34,0,0,0,2,6,7.32,7.32,0,0,0,5.57,2.1A15.72,15.72,0,0,0,94.32,155.94Z"/></g></g></g></svg>