<svg id="Layer_1" data-name="Layer 1" xmlns="http://www.w3.org/2000/svg" xmlns:xlink="http://www.w3.org/1999/xlink" viewBox="0 0 185 188"><defs><style>.cls-1{fill:none;}.cls-2{fill:#4285f4;}.cls-3{fill:#0f9d58;}.cls-4{fill:#ea4335;}.cls-5{fill:#fbbc04;}.cls-6{fill:#565656;}.cls-7{fill:#4e4e4e;}.cls-8{fill:url(#radial-gradient);}.cls-9{fill:url(#radial-gradient-2);}.cls-10{fill:url(#radial-gradient-3);}.cls-11{fill:url(#radial-gradient-4);}.cls-12{fill:#e6e6e5;}</style><radialGradient id="radial-gradient" cx="15.29" cy="95.06" r="7.8" gradientTransform="matrix(1, 0, 0, -1, 0, 190)" gradientUnits="userSpaceOnUse"><stop offset="0" stop-color="#848484"/><stop offset="1" stop-color="#838383"/></radialGradient><radialGradient id="radial-gradient-2" cx="37.93" cy="101.62" r="7.8" gradientTransform="matrix(1, 0, 0, -1, 0, 190)" gradientUnits="userSpaceOnUse"><stop offset="0" stop-color="#626262"/><stop offset="1" stop-color="#474747"/></radialGradient><radialGradient id="radial-gradient-3" cx="17.13" cy="103.46" r="5.99" gradientTransform="matrix(1, 0, 0, -1, 0, 190)" gradientUnits="userSpaceOnUse"><stop offset="0" stop-color="#a0a0a0"/><stop offset="1" stop-color="#868686"/></radialGradient><radialGradient id="radial-gradient-4" cx="36.08" cy="93.21" r="5.99" gradientTransform="matrix(1, 0, 0, -1, 0, 190)" gradientUnits="userSpaceOnUse"><stop offset="0" stop-color="#ccc"/><stop offset="1" stop-color="silver"/></radialGradient></defs><title>logos-2019</title><rect id="canvas_background" data-name="canvas background" class="cls-1" x="-206" y="-1" width="582" height="402"/><rect id="canvas_background-2" data-name="canvas background" class="cls-1" x="92.3" y="6.6" width="582" height="402"/><path class="cls-2" d="M23.79,38.33a3.31,3.31,0,0,1-2.8,1.6,3.17,3.17,0,0,1-1.6-.4L8,32.93a3.27,3.27,0,0,1-1.2-4.4,3.31,3.31,0,0,1,2.8-1.6,3.17,3.17,0,0,1,1.6.4l11.4,6.6A3.27,3.27,0,0,1,23.79,38.33Z"/><path class="cls-3" d="M29.49,22a3.31,3.31,0,0,1,2.8-1.6,3.17,3.17,0,0,1,1.6.4l11.4,6.6a3.27,3.27,0,0,1,1.2,4.4,3.31,3.31,0,0,1-2.8,1.6,3.17,3.17,0,0,1-1.6-.4l-11.4-6.6A3.18,3.18,0,0,1,29.49,22Z"/><path class="cls-4" d="M22.59,26.43l-5.7,3.3-5.2-3a3,3,0,0,0-1.6-.5l9.3-5.4a3.17,3.17,0,0,1,1.6-.4,3.31,3.31,0,0,1,2.8,1.6A3.27,3.27,0,0,1,22.59,26.43Z"/><path class="cls-5" d="M30.59,33.93l5.7-3.3,5.2,3a3,3,0,0,0,1.6.5l-9.3,5.4a3.17,3.17,0,0,1-1.6.4,3.31,3.31,0,0,1-2.8-1.6A3.36,3.36,0,0,1,30.59,33.93Z"/><path class="cls-6" d="M53,49.23v-1.1l1.4-1.4c3.4-3.2,4.9-4.9,4.9-6.9a2.36,2.36,0,0,0-2.6-2.6,4.5,4.5,0,0,0-2.8,1.1l-.6-1.3a5.54,5.54,0,0,1,3.7-1.3,3.67,3.67,0,0,1,4,3.8c0,2.4-1.8,4.4-4.5,7l-1.1,1h5.9V49H53Z"/><path class="cls-6" d="M72.49,42.53c0,4.5-1.7,6.9-4.6,6.9-2.6,0-4.3-2.4-4.3-6.7s1.9-6.8,4.6-6.8S72.49,38.33,72.49,42.53Zm-7.1.2c0,3.4,1,5.4,2.7,5.4s2.7-2.1,2.7-5.5c0-3.2-.8-5.4-2.7-5.4C66.49,37.33,65.39,39.23,65.39,42.73Z"/><path class="cls-6" d="M78.39,37.83h0L76.09,39l-.3-1.4,2.9-1.5h1.5v13.1h-1.7V37.83Z"/><path class="cls-6" d="M86.39,48a7.6,7.6,0,0,0,1.4-.1,4.59,4.59,0,0,0,2.7-1.3,5.31,5.31,0,0,0,1.7-3.5h-.1a4,4,0,0,1-7-2.6,4.53,4.53,0,0,1,4.5-4.7c2.7,0,4.3,2.2,4.3,5.5a8.44,8.44,0,0,1-2.3,6.2,6.76,6.76,0,0,1-3.8,1.8,9.74,9.74,0,0,1-1.6.1V48Zm.6-7.6a2.56,2.56,0,0,0,2.5,2.8,3,3,0,0,0,2.6-1.4,1.42,1.42,0,0,0,.2-.6c0-2.2-.8-4-2.7-4C88.09,37.23,87,38.63,87,40.43Z"/><path class="cls-6" d="M103.79,47.23a5.89,5.89,0,0,0,3,.9c1.7,0,2.7-.9,2.7-2.2s-.7-1.9-2.5-2.6c-2.1-.8-3.5-1.9-3.5-3.7,0-2,1.7-3.6,4.2-3.6a6.63,6.63,0,0,1,2.9.6l-.5,1.4a5.6,5.6,0,0,0-2.5-.6c-1.8,0-2.5,1.1-2.5,2,0,1.2.8,1.8,2.6,2.5,2.2.9,3.4,1.9,3.4,3.9s-1.5,3.8-4.6,3.8a7.73,7.73,0,0,1-3.4-.8Z"/><path class="cls-6" d="M115.09,44.83a3,3,0,0,0,3.2,3.3,5.68,5.68,0,0,0,2.6-.5l.3,1.2a7,7,0,0,1-3.1.6c-2.9,0-4.6-1.9-4.6-4.8s1.7-5.1,4.4-5.1c3.1,0,3.9,2.7,3.9,4.4a1.72,1.72,0,0,1-.1.8h-6.6Zm5-1.2c0-1.1-.4-2.8-2.4-2.8a2.82,2.82,0,0,0-2.6,2.8Z"/><path class="cls-6" d="M129.49,49.23l-.1-1.2h-.1a3.53,3.53,0,0,1-2.9,1.4,2.68,2.68,0,0,1-2.9-2.7c0-2.3,2-3.5,5.7-3.5V43a1.93,1.93,0,0,0-2.1-2.2,5.2,5.2,0,0,0-2.5.7l-.4-1.1a5.94,5.94,0,0,1,3.1-.8c2.9,0,3.6,2,3.6,3.9V47a8.58,8.58,0,0,0,.2,2.3h-1.6Zm-.2-4.8c-1.9,0-4,.3-4,2.1a1.47,1.47,0,0,0,1.6,1.6,2.44,2.44,0,0,0,2.3-1.6,1.09,1.09,0,0,0,.1-.5Z"/><path class="cls-6" d="M133.89,47.53a4.81,4.81,0,0,0,2.3.7c1.2,0,1.8-.6,1.8-1.4s-.5-1.3-1.8-1.7c-1.7-.6-2.5-1.5-2.5-2.7,0-1.5,1.2-2.8,3.3-2.8a4.53,4.53,0,0,1,2.3.6l-.4,1.2a4.34,4.34,0,0,0-1.9-.5c-1,0-1.6.6-1.6,1.3s.6,1.1,1.8,1.6c1.6.6,2.5,1.4,2.5,2.8,0,1.7-1.3,2.8-3.5,2.8a7.16,7.16,0,0,1-2.7-.6Z"/><path class="cls-6" d="M150.69,44.43c0,3.5-2.4,5-4.7,5-2.6,0-4.5-1.9-4.5-4.9,0-3.2,2.1-5,4.7-5A4.58,4.58,0,0,1,150.69,44.43Zm-7.4.1c0,2.1,1.2,3.6,2.9,3.6s2.9-1.5,2.9-3.7c0-1.6-.8-3.6-2.8-3.6C144.09,40.93,143.29,42.73,143.29,44.53Z"/><path class="cls-6" d="M153.29,42.43a20.92,20.92,0,0,0-.1-2.6h1.5l.1,1.6h0a3.56,3.56,0,0,1,3.1-1.8c1.3,0,3.3.8,3.3,4v5.6h-1.7v-5.4c0-1.5-.6-2.8-2.2-2.8a2.46,2.46,0,0,0-2.3,1.8,2,2,0,0,0-.1.8v5.7h-1.7v-6.9Z"/><g id="svg_70" data-name="svg 70"><g id="svg_71" data-name="svg 71"><g id="Layer0_0_MEMBER_0_MEMBER_0_MEMBER_0_FILL" data-name="Layer0 0 MEMBER 0 MEMBER 0 MEMBER 0 FILL"><path id="svg_1" data-name="svg 1" class="cls-7" d="M115.54,18.08c0-2.4-.6-4.1-1.9-5.2a8,8,0,0,0-5.5-1.9H103v14.9h4.7a8.51,8.51,0,0,0,5.8-2,8.16,8.16,0,0,0,2-5.8m-5-3a4.6,4.6,0,0,1,.8,3.1,5.71,5.71,0,0,1-.8,3.3,3.34,3.34,0,0,1-2.7,1h-.9v-8.4h1.2A3,3,0,0,1,110.54,15.08Z"/></g></g></g><g id="svg_72" data-name="svg 72"><g id="svg_73" data-name="svg 73"><g id="Layer0_0_MEMBER_0_MEMBER_0_MEMBER_1_FILL" data-name="Layer0 0 MEMBER 0 MEMBER 0 MEMBER 1 FILL"><path id="svg_2" data-name="svg 2" class="cls-7" d="M125.84,15.38a5.55,5.55,0,0,0-4-1.4,5.65,5.65,0,0,0-4.2,1.6,6.11,6.11,0,0,0-1.5,4.5,5.82,5.82,0,0,0,1.6,4.4,6.79,6.79,0,0,0,4.5,1.5,13.58,13.58,0,0,0,2.4-.1,12.19,12.19,0,0,0,2-.7v-2.9a12,12,0,0,1-1.9.7,10.26,10.26,0,0,1-2,.2,2.79,2.79,0,0,1-1.8-.6,1.9,1.9,0,0,1-.8-1.5h7.1v-1.8a5.21,5.21,0,0,0-1.4-3.9m-5,1.8a2.08,2.08,0,0,1,1.2-.5,1.89,1.89,0,0,1,1.7,1.9h-3.4A1.81,1.81,0,0,1,120.84,17.18Z"/></g></g></g><g id="svg_74" data-name="svg 74"><g id="svg_75" data-name="svg 75"><g id="Layer0_0_MEMBER_0_MEMBER_0_MEMBER_2_FILL" data-name="Layer0 0 MEMBER 0 MEMBER 0 MEMBER 2 FILL"><path id="svg_3" data-name="svg 3" class="cls-7" d="M139.64,14.18h-4.1l-2,6.9a8.92,8.92,0,0,0-.2,1.1h-.1v-.8c-.1,0-.1-.1-.1-.3V21l-2-6.8H127l4.3,11.5h3.9l4.4-11.5Z"/></g></g></g><g id="svg_76" data-name="svg 76"><g id="svg_77" data-name="svg 77"><g id="Layer0_0_MEMBER_0_MEMBER_0_MEMBER_3_FILL" data-name="Layer0 0 MEMBER 0 MEMBER 0 MEMBER 3 FILL"><path id="svg_4" data-name="svg 4" class="cls-7" d="M148.74,10.88H140v14.9h3.9v-5.5h4.5V17h-4.5v-2.9h4.8Z"/></g></g></g><g id="svg_78" data-name="svg 78"><g id="svg_79" data-name="svg 79"><g id="Layer0_0_MEMBER_0_MEMBER_0_MEMBER_4_FILL" data-name="Layer0 0 MEMBER 0 MEMBER 0 MEMBER 4 FILL"><path id="svg_5" data-name="svg 5" class="cls-7" d="M158.74,15.38a5.55,5.55,0,0,0-4-1.4,5.65,5.65,0,0,0-4.2,1.6,6.11,6.11,0,0,0-1.5,4.5,6,6,0,0,0,1.6,4.4,6.79,6.79,0,0,0,4.5,1.5,11.66,11.66,0,0,0,2.3-.1,12.19,12.19,0,0,0,2-.7v-2.9a12,12,0,0,1-1.9.7,10.26,10.26,0,0,1-2,.2,2.79,2.79,0,0,1-1.8-.6,1.58,1.58,0,0,1-.7-1.5h7.1v-1.8a5.21,5.21,0,0,0-1.4-3.9m-4.9,1.8a2.08,2.08,0,0,1,1.2-.5,1.21,1.21,0,0,1,1.2.6,1.73,1.73,0,0,1,.5,1.3h-3.4A1.81,1.81,0,0,1,153.84,17.18Z"/></g></g></g><g id="svg_80" data-name="svg 80"><g id="svg_81" data-name="svg 81"><g id="Layer0_0_MEMBER_0_MEMBER_0_MEMBER_5_FILL" data-name="Layer0 0 MEMBER 0 MEMBER 0 MEMBER 5 FILL"><path id="svg_6" data-name="svg 6" class="cls-7" d="M170,22.28a2.54,2.54,0,0,0-.4-1.6,3.23,3.23,0,0,0-.8-1.1,6.4,6.4,0,0,0-1.8-1,12.83,12.83,0,0,1-2-.8c-.2-.1-.4-.2-.4-.5s.3-.5.9-.5a4.41,4.41,0,0,1,1.4.3,9.76,9.76,0,0,1,1.7.7l1.1-2.6a8.76,8.76,0,0,0-2-.71,7.6,7.6,0,0,0-2.1-.29,6.19,6.19,0,0,0-3.5.9,2.78,2.78,0,0,0-1.2,2.5,3.16,3.16,0,0,0,.7,2.1,6.92,6.92,0,0,0,2.2,1.5c1.1.5,1.8.79,2,.9s.4.39.4.6c0,.4-.4.6-1.3.6a11,11,0,0,1-4-1v3.1a9.73,9.73,0,0,0,2,.5,12.22,12.22,0,0,0,2.2.1,6,6,0,0,0,3.6-.9,3.57,3.57,0,0,0,1.3-2.8Z"/></g></g></g><g id="svg_82" data-name="svg 82"><g id="svg_83" data-name="svg 83"><g id="Layer0_0_MEMBER_0_MEMBER_0_MEMBER_6_FILL" data-name="Layer0 0 MEMBER 0 MEMBER 0 MEMBER 6 FILL"><path id="svg_7" data-name="svg 7" class="cls-7" d="M170.34,15.68v1.6h1.4V22a5.22,5.22,0,0,0,.8,3.1,3.52,3.52,0,0,0,2.9,1,11.14,11.14,0,0,0,1.7-.2,7.93,7.93,0,0,0,1.5-.5v-2.9a7.87,7.87,0,0,1-2,.4c-.8,0-1.1-.4-.9-1.1v-4.5h2.8v-3h-2.8V12h-2.6l-1,2.4-1.8,1.3Z"/></g></g></g><g id="svg_102" data-name="svg 102"><g id="svg_103" data-name="svg 103"><g id="Layer0_0_MEMBER_0_MEMBER_2_MEMBER_0_FILL" data-name="Layer0 0 MEMBER 0 MEMBER 2 MEMBER 0 FILL"><path id="svg_17" data-name="svg 17" class="cls-7" d="M55,12.88c-1.4,1.3-2,3.1-2,5.6a8,8,0,0,0,1.9,5.7,6.93,6.93,0,0,0,5.3,2,18.53,18.53,0,0,0,5.8-.9v-8h-6.4v3.1h2.7v2.3a14.93,14.93,0,0,1-1.7.2,3,3,0,0,1-2.5-1.1,4.9,4.9,0,0,1-.8-3.2,5.19,5.19,0,0,1,.9-3.3,3.53,3.53,0,0,1,2.7-1.1,8.53,8.53,0,0,1,3.5.8l1.3-3.2a16.52,16.52,0,0,0-2.1-.7,10.68,10.68,0,0,0-2.7-.3A9.16,9.16,0,0,0,55,12.88Z"/></g></g></g><g id="svg_104" data-name="svg 104"><g id="svg_105" data-name="svg 105"><g id="Layer0_0_MEMBER_0_MEMBER_2_MEMBER_1_FILL" data-name="Layer0 0 MEMBER 0 MEMBER 2 MEMBER 1 FILL"><path id="svg_18" data-name="svg 18" class="cls-7" d="M80.44,17.88a7.1,7.1,0,0,0-1.9-5.2,8,8,0,0,0-5.6-1.9h-5.2v14.9h4.8a8.93,8.93,0,0,0,5.8-2,7.79,7.79,0,0,0,2.1-5.8m-5.1-2.8c.6.6.8,1.6.8,3.1a5.19,5.19,0,0,1-.9,3.3,3,3,0,0,1-2.6,1h-.9V14h1.2A3,3,0,0,1,75.34,15.08Z"/></g></g></g><g id="svg_106" data-name="svg 106"><g id="svg_107" data-name="svg 107"><g id="Layer0_0_MEMBER_0_MEMBER_2_MEMBER_2_FILL" data-name="Layer0 0 MEMBER 0 MEMBER 2 MEMBER 2 FILL"><path id="svg_19" data-name="svg 19" class="cls-7" d="M94.24,25.18v-8h-6.4v3.1h2.7v2.3a14.93,14.93,0,0,1-1.7.2,3,3,0,0,1-2.5-1.1,5.81,5.81,0,0,1-.8-3.2,5.19,5.19,0,0,1,.9-3.3,3.47,3.47,0,0,1,2.6-1.1,8.63,8.63,0,0,1,3.6.8l1.3-3.2c-.5-.21-1.2-.4-2.1-.71a12.4,12.4,0,0,0-2.7-.29,8.07,8.07,0,0,0-5.7,2c-1.4,1.29-2,3.1-2,5.6a8,8,0,0,0,1.9,5.7,6.93,6.93,0,0,0,5.3,2A15.22,15.22,0,0,0,94.24,25.18Z"/></g></g></g><path class="cls-8" d="M23.79,99.83a3.31,3.31,0,0,1-2.8,1.6,3.17,3.17,0,0,1-1.6-.4L8,94.43A3.27,3.27,0,0,1,6.79,90a3.31,3.31,0,0,1,2.8-1.6,3.17,3.17,0,0,1,1.6.4l11.4,6.6A3.27,3.27,0,0,1,23.79,99.83Z"/><path class="cls-9" d="M29.49,83.53a3.31,3.31,0,0,1,2.8-1.6,3.17,3.17,0,0,1,1.6.4l11.4,6.6a3.27,3.27,0,0,1,1.2,4.4,3.31,3.31,0,0,1-2.8,1.6,3.17,3.17,0,0,1-1.6-.4l-11.4-6.6A3.18,3.18,0,0,1,29.49,83.53Z"/><path class="cls-10" d="M22.59,87.93l-5.7,3.3-5.2-3a3,3,0,0,0-1.6-.5l9.3-5.4a3.17,3.17,0,0,1,1.6-.4,3.31,3.31,0,0,1,2.8,1.6A3.27,3.27,0,0,1,22.59,87.93Z"/><path class="cls-11" d="M30.59,95.43l5.7-3.3,5.2,3a3,3,0,0,0,1.6.5l-9.3,5.4a3.17,3.17,0,0,1-1.6.4,3.31,3.31,0,0,1-2.8-1.6A3.36,3.36,0,0,1,30.59,95.43Z"/><path class="cls-6" d="M53,110.73v-1.1l1.4-1.4c3.4-3.2,4.9-4.9,4.9-6.9a2.36,2.36,0,0,0-2.6-2.6,4.5,4.5,0,0,0-2.8,1.1l-.6-1.3a5.54,5.54,0,0,1,3.7-1.3,3.67,3.67,0,0,1,4,3.8c0,2.4-1.8,4.4-4.5,7l-1.1,1h5.9v1.5H53Z"/><path class="cls-6" d="M72.49,104c0,4.5-1.7,6.9-4.6,6.9-2.6,0-4.3-2.4-4.3-6.7s1.9-6.8,4.6-6.8S72.49,99.83,72.49,104Zm-7.1.2c0,3.4,1,5.4,2.7,5.4s2.7-2.1,2.7-5.5c0-3.2-.8-5.4-2.7-5.4C66.49,98.83,65.39,100.73,65.39,104.23Z"/><path class="cls-6" d="M78.39,99.33h0l-2.3,1.2-.3-1.4,2.9-1.5h1.5v13.1h-1.7V99.33Z"/><path class="cls-6" d="M86.39,109.53a7.6,7.6,0,0,0,1.4-.1,4.59,4.59,0,0,0,2.7-1.3,5.31,5.31,0,0,0,1.7-3.5h-.1a4,4,0,0,1-7-2.6,4.53,4.53,0,0,1,4.5-4.7c2.7,0,4.3,2.2,4.3,5.5a8.44,8.44,0,0,1-2.3,6.2,6.76,6.76,0,0,1-3.8,1.8,9.74,9.74,0,0,1-1.6.1v-1.4Zm.6-7.6a2.56,2.56,0,0,0,2.5,2.8,3,3,0,0,0,2.6-1.4,1.42,1.42,0,0,0,.2-.6c0-2.2-.8-4-2.7-4C88.09,98.73,87,100.13,87,101.93Z"/><path class="cls-6" d="M103.79,108.73a5.89,5.89,0,0,0,3,.9c1.7,0,2.7-.9,2.7-2.2s-.7-1.9-2.5-2.6c-2.1-.8-3.5-1.9-3.5-3.7,0-2,1.7-3.6,4.2-3.6a6.63,6.63,0,0,1,2.9.6l-.5,1.4a5.6,5.6,0,0,0-2.5-.6c-1.8,0-2.5,1.1-2.5,2,0,1.2.8,1.8,2.6,2.5,2.2.9,3.4,1.9,3.4,3.9s-1.5,3.8-4.6,3.8a7.73,7.73,0,0,1-3.4-.8Z"/><path class="cls-6" d="M115.09,106.33a3,3,0,0,0,3.2,3.3,5.68,5.68,0,0,0,2.6-.5l.3,1.2a7,7,0,0,1-3.1.6c-2.9,0-4.6-1.9-4.6-4.8s1.7-5.1,4.4-5.1c3.1,0,3.9,2.7,3.9,4.4a1.72,1.72,0,0,1-.1.8h-6.6Zm5-1.2c0-1.1-.4-2.8-2.4-2.8a2.82,2.82,0,0,0-2.6,2.8Z"/><path class="cls-6" d="M129.49,110.73l-.1-1.2h-.1a3.53,3.53,0,0,1-2.9,1.4,2.68,2.68,0,0,1-2.9-2.7c0-2.3,2-3.5,5.7-3.5v-.2a1.93,1.93,0,0,0-2.1-2.2,5.2,5.2,0,0,0-2.5.7l-.4-1.1a5.94,5.94,0,0,1,3.1-.8c2.9,0,3.6,2,3.6,3.9v3.5a8.58,8.58,0,0,0,.2,2.3h-1.6Zm-.2-4.8c-1.9,0-4,.3-4,2.1a1.47,1.47,0,0,0,1.6,1.6,2.44,2.44,0,0,0,2.3-1.6,1.09,1.09,0,0,0,.1-.5Z"/><path class="cls-6" d="M133.89,109a4.81,4.81,0,0,0,2.3.7c1.2,0,1.8-.6,1.8-1.4s-.5-1.3-1.8-1.7c-1.7-.6-2.5-1.5-2.5-2.7,0-1.5,1.2-2.8,3.3-2.8a4.53,4.53,0,0,1,2.3.6l-.4,1.2a4.34,4.34,0,0,0-1.9-.5c-1,0-1.6.6-1.6,1.3s.6,1.1,1.8,1.6c1.6.6,2.5,1.4,2.5,2.8,0,1.7-1.3,2.8-3.5,2.8a7.16,7.16,0,0,1-2.7-.6Z"/><path class="cls-6" d="M150.69,105.93c0,3.5-2.4,5-4.7,5-2.6,0-4.5-1.9-4.5-4.9,0-3.2,2.1-5,4.7-5A4.58,4.58,0,0,1,150.69,105.93Zm-7.4.1c0,2.1,1.2,3.6,2.9,3.6s2.9-1.5,2.9-3.7c0-1.6-.8-3.6-2.8-3.6C144.09,102.43,143.29,104.23,143.29,106Z"/><path class="cls-6" d="M153.29,103.93a20.92,20.92,0,0,0-.1-2.6h1.5l.1,1.6h0a3.56,3.56,0,0,1,3.1-1.8c1.3,0,3.3.8,3.3,4v5.6h-1.7v-5.4c0-1.5-.6-2.8-2.2-2.8a2.46,2.46,0,0,0-2.3,1.8,2,2,0,0,0-.1.8v5.7h-1.7v-6.9Z"/><g id="svg_70-2" data-name="svg 70"><g id="svg_71-2" data-name="svg 71"><g id="Layer0_0_MEMBER_0_MEMBER_0_MEMBER_0_FILL-2" data-name="Layer0 0 MEMBER 0 MEMBER 0 MEMBER 0 FILL"><path id="svg_1-2" data-name="svg 1" class="cls-7" d="M115.54,79.58c0-2.4-.6-4.1-1.9-5.2a8,8,0,0,0-5.5-1.9H103v14.9h4.7a8.51,8.51,0,0,0,5.8-2,8.16,8.16,0,0,0,2-5.8m-5-3a4.6,4.6,0,0,1,.8,3.1,5.71,5.71,0,0,1-.8,3.3,3.34,3.34,0,0,1-2.7,1h-.9v-8.4h1.2A3,3,0,0,1,110.54,76.58Z"/></g></g></g><g id="svg_72-2" data-name="svg 72"><g id="svg_73-2" data-name="svg 73"><g id="Layer0_0_MEMBER_0_MEMBER_0_MEMBER_1_FILL-2" data-name="Layer0 0 MEMBER 0 MEMBER 0 MEMBER 1 FILL"><path id="svg_2-2" data-name="svg 2" class="cls-7" d="M125.84,76.88a5.55,5.55,0,0,0-4-1.4,5.65,5.65,0,0,0-4.2,1.6,6.11,6.11,0,0,0-1.5,4.5,5.82,5.82,0,0,0,1.6,4.4,6.79,6.79,0,0,0,4.5,1.5,13.58,13.58,0,0,0,2.4-.1,12.19,12.19,0,0,0,2-.7v-2.9a12,12,0,0,1-1.9.7,10.26,10.26,0,0,1-2,.2,2.79,2.79,0,0,1-1.8-.6,1.9,1.9,0,0,1-.8-1.5h7.1v-1.8a5.21,5.21,0,0,0-1.4-3.9m-5,1.8a2.08,2.08,0,0,1,1.2-.5,1.89,1.89,0,0,1,1.7,1.9h-3.4A1.81,1.81,0,0,1,120.84,78.68Z"/></g></g></g><g id="svg_74-2" data-name="svg 74"><g id="svg_75-2" data-name="svg 75"><g id="Layer0_0_MEMBER_0_MEMBER_0_MEMBER_2_FILL-2" data-name="Layer0 0 MEMBER 0 MEMBER 0 MEMBER 2 FILL"><path id="svg_3-2" data-name="svg 3" class="cls-7" d="M139.64,75.68h-4.1l-2,6.9a8.92,8.92,0,0,0-.2,1.1h-.1v-.8c-.1,0-.1-.1-.1-.3v-.2l-2-6.8H127l4.3,11.5h3.9l4.4-11.4Z"/></g></g></g><g id="svg_76-2" data-name="svg 76"><g id="svg_77-2" data-name="svg 77"><g id="Layer0_0_MEMBER_0_MEMBER_0_MEMBER_3_FILL-2" data-name="Layer0 0 MEMBER 0 MEMBER 0 MEMBER 3 FILL"><path id="svg_4-2" data-name="svg 4" class="cls-7" d="M148.74,72.38H140v14.9h3.9v-5.5h4.5v-3.3h-4.5v-2.9h4.8Z"/></g></g></g><g id="svg_78-2" data-name="svg 78"><g id="svg_79-2" data-name="svg 79"><g id="Layer0_0_MEMBER_0_MEMBER_0_MEMBER_4_FILL-2" data-name="Layer0 0 MEMBER 0 MEMBER 0 MEMBER 4 FILL"><path id="svg_5-2" data-name="svg 5" class="cls-7" d="M158.74,76.88a5.55,5.55,0,0,0-4-1.4,5.65,5.65,0,0,0-4.2,1.6,6.11,6.11,0,0,0-1.5,4.5,6,6,0,0,0,1.6,4.4,6.79,6.79,0,0,0,4.5,1.5,11.66,11.66,0,0,0,2.3-.1,12.19,12.19,0,0,0,2-.7v-2.9a12,12,0,0,1-1.9.7,10.26,10.26,0,0,1-2,.2,2.79,2.79,0,0,1-1.8-.6,1.58,1.58,0,0,1-.7-1.5h7.1v-1.8a5.21,5.21,0,0,0-1.4-3.9m-4.9,1.8a2.08,2.08,0,0,1,1.2-.5,1.21,1.21,0,0,1,1.2.6,1.73,1.73,0,0,1,.5,1.3h-3.4A1.81,1.81,0,0,1,153.84,78.68Z"/></g></g></g><g id="svg_80-2" data-name="svg 80"><g id="svg_81-2" data-name="svg 81"><g id="Layer0_0_MEMBER_0_MEMBER_0_MEMBER_5_FILL-2" data-name="Layer0 0 MEMBER 0 MEMBER 0 MEMBER 5 FILL"><path id="svg_6-2" data-name="svg 6" class="cls-7" d="M170,83.78a2.54,2.54,0,0,0-.4-1.6,3.23,3.23,0,0,0-.8-1.1,6.4,6.4,0,0,0-1.8-1,12.83,12.83,0,0,1-2-.8c-.2-.1-.4-.2-.4-.5s.3-.5.9-.5a4.41,4.41,0,0,1,1.4.3,9.76,9.76,0,0,1,1.7.7l1.1-2.6a8.76,8.76,0,0,0-2-.71,7.6,7.6,0,0,0-2.1-.29,6.19,6.19,0,0,0-3.5.9,2.78,2.78,0,0,0-1.2,2.5,3.16,3.16,0,0,0,.7,2.1,6.92,6.92,0,0,0,2.2,1.5c1.1.5,1.8.79,2,.9s.4.39.4.6c0,.4-.4.6-1.3.6a11,11,0,0,1-4-1v3.1a9.73,9.73,0,0,0,2,.5,12.22,12.22,0,0,0,2.2.1,6,6,0,0,0,3.6-.9,3.57,3.57,0,0,0,1.3-2.8Z"/></g></g></g><g id="svg_82-2" data-name="svg 82"><g id="svg_83-2" data-name="svg 83"><g id="Layer0_0_MEMBER_0_MEMBER_0_MEMBER_6_FILL-2" data-name="Layer0 0 MEMBER 0 MEMBER 0 MEMBER 6 FILL"><path id="svg_7-2" data-name="svg 7" class="cls-7" d="M170.34,77.18v1.6h1.4v4.7a5.22,5.22,0,0,0,.8,3.1,3.52,3.52,0,0,0,2.9,1,11.14,11.14,0,0,0,1.7-.2,7.93,7.93,0,0,0,1.5-.5V84a7.87,7.87,0,0,1-2,.4c-.8,0-1.1-.4-.9-1.1v-4.5h2.8v-3h-2.8v-2.3h-2.6l-1,2.4-1.8,1.3Z"/></g></g></g><g id="svg_102-2" data-name="svg 102"><g id="svg_103-2" data-name="svg 103"><g id="Layer0_0_MEMBER_0_MEMBER_2_MEMBER_0_FILL-2" data-name="Layer0 0 MEMBER 0 MEMBER 2 MEMBER 0 FILL"><path id="svg_17-2" data-name="svg 17" class="cls-7" d="M55,74.38c-1.4,1.3-2,3.1-2,5.6a8,8,0,0,0,1.9,5.7,6.93,6.93,0,0,0,5.3,2,18.53,18.53,0,0,0,5.8-.9v-8h-6.4v3.1h2.7v2.3a14.93,14.93,0,0,1-1.7.2,3,3,0,0,1-2.5-1.1,4.9,4.9,0,0,1-.8-3.2,5.19,5.19,0,0,1,.9-3.3,3.53,3.53,0,0,1,2.7-1.1,8.53,8.53,0,0,1,3.5.8l1.3-3.2a16.52,16.52,0,0,0-2.1-.7,10.68,10.68,0,0,0-2.7-.3A9.16,9.16,0,0,0,55,74.38Z"/></g></g></g><g id="svg_104-2" data-name="svg 104"><g id="svg_105-2" data-name="svg 105"><g id="Layer0_0_MEMBER_0_MEMBER_2_MEMBER_1_FILL-2" data-name="Layer0 0 MEMBER 0 MEMBER 2 MEMBER 1 FILL"><path id="svg_18-2" data-name="svg 18" class="cls-7" d="M80.44,79.38a7.1,7.1,0,0,0-1.9-5.2,8,8,0,0,0-5.6-1.9h-5.2v14.9h4.8a8.93,8.93,0,0,0,5.8-2,7.79,7.79,0,0,0,2.1-5.8m-5.1-2.8c.6.6.8,1.6.8,3.1a5.19,5.19,0,0,1-.9,3.3,3,3,0,0,1-2.6,1h-.9v-8.4h1.2A2.69,2.69,0,0,1,75.34,76.58Z"/></g></g></g><g id="svg_106-2" data-name="svg 106"><g id="svg_107-2" data-name="svg 107"><g id="Layer0_0_MEMBER_0_MEMBER_2_MEMBER_2_FILL-2" data-name="Layer0 0 MEMBER 0 MEMBER 2 MEMBER 2 FILL"><path id="svg_19-2" data-name="svg 19" class="cls-7" d="M94.24,86.68v-8h-6.4v3.1h2.7v2.3a14.93,14.93,0,0,1-1.7.2,3,3,0,0,1-2.5-1.1,5.81,5.81,0,0,1-.8-3.2,5.19,5.19,0,0,1,.9-3.3,3.47,3.47,0,0,1,2.6-1.1,8.63,8.63,0,0,1,3.6.8l1.3-3.2c-.5-.21-1.2-.4-2.1-.71a12.4,12.4,0,0,0-2.7-.29,8.07,8.07,0,0,0-5.7,2c-1.4,1.29-2,3.1-2,5.6a8,8,0,0,0,1.9,5.7,6.93,6.93,0,0,0,5.3,2A15.22,15.22,0,0,0,94.24,86.68Z"/></g></g></g><path class="cls-2" d="M23.79,166a3.31,3.31,0,0,1-2.8,1.6,3.17,3.17,0,0,1-1.6-.4L8,160.73a3.27,3.27,0,0,1-1.2-4.4,3.31,3.31,0,0,1,2.8-1.6,3.17,3.17,0,0,1,1.6.4l11.4,6.6A3.13,3.13,0,0,1,23.79,166Z"/><path class="cls-3" d="M29.49,149.73a3.31,3.31,0,0,1,2.8-1.6,3.17,3.17,0,0,1,1.6.4l11.4,6.6a3.27,3.27,0,0,1,1.2,4.4,3.31,3.31,0,0,1-2.8,1.6,3.17,3.17,0,0,1-1.6-.4l-11.4-6.6A3.18,3.18,0,0,1,29.49,149.73Z"/><path class="cls-4" d="M22.59,154.13l-5.7,3.3-5.2-3a3,3,0,0,0-1.6-.5l9.3-5.4a3.17,3.17,0,0,1,1.6-.4,3.31,3.31,0,0,1,2.8,1.6A3.27,3.27,0,0,1,22.59,154.13Z"/><path class="cls-5" d="M30.59,161.63l5.7-3.3,5.2,3a3,3,0,0,0,1.6.5l-9.3,5.4a3.17,3.17,0,0,1-1.6.4,3.31,3.31,0,0,1-2.8-1.6A3.36,3.36,0,0,1,30.59,161.63Z"/><path class="cls-12" d="M53,177v-1.1l1.4-1.4c3.4-3.2,4.9-4.9,4.9-6.9a2.36,2.36,0,0,0-2.6-2.6,4.5,4.5,0,0,0-2.8,1.1l-.6-1.3a5.54,5.54,0,0,1,3.7-1.3,3.67,3.67,0,0,1,4,3.8c0,2.4-1.8,4.4-4.5,7l-1.1,1h5.9v1.5H53Z"/><path class="cls-12" d="M72.49,170.33c0,4.5-1.7,6.9-4.6,6.9-2.6,0-4.3-2.4-4.3-6.7s1.9-6.8,4.6-6.8S72.49,166.13,72.49,170.33Zm-7.1.2c0,3.4,1,5.4,2.7,5.4s2.7-2.1,2.7-5.5c0-3.2-.8-5.4-2.7-5.4C66.49,165,65.39,166.93,65.39,170.53Z"/><path class="cls-12" d="M78.39,165.53h0l-2.3,1.2-.3-1.4,2.9-1.5h1.5V177h-1.7v-11.5Z"/><path class="cls-12" d="M86.39,175.73a7.6,7.6,0,0,0,1.4-.1,4.59,4.59,0,0,0,2.7-1.3,5.31,5.31,0,0,0,1.7-3.5h-.1a4,4,0,0,1-7-2.61,4.52,4.52,0,0,1,4.5-4.69c2.7,0,4.3,2.19,4.3,5.5a8.43,8.43,0,0,1-2.3,6.19,6.77,6.77,0,0,1-3.8,1.81,9.74,9.74,0,0,1-1.6.1v-1.4Zm.6-7.5a2.56,2.56,0,0,0,2.5,2.8,3,3,0,0,0,2.6-1.4,1.42,1.42,0,0,0,.2-.6c0-2.2-.8-4-2.7-4C88.09,165,87,166.33,87,168.23Z"/><path class="cls-12" d="M103.79,174.93a5.89,5.89,0,0,0,3,.9c1.7,0,2.7-.9,2.7-2.2s-.7-1.9-2.5-2.6c-2.1-.81-3.5-1.9-3.5-3.7,0-2,1.7-3.61,4.2-3.61a6.61,6.61,0,0,1,2.9.61l-.5,1.39a5.74,5.74,0,0,0-2.5-.6c-1.8,0-2.5,1.1-2.5,2,0,1.2.8,1.8,2.6,2.5,2.2.9,3.4,1.9,3.4,3.9s-1.5,3.8-4.6,3.8a7.73,7.73,0,0,1-3.4-.8Z"/><path class="cls-12" d="M115.09,172.63a3,3,0,0,0,3.2,3.3,5.68,5.68,0,0,0,2.6-.5l.3,1.2a7,7,0,0,1-3.1.6c-2.9,0-4.6-1.9-4.6-4.8s1.7-5.1,4.4-5.1c3.1,0,3.9,2.7,3.9,4.4a1.72,1.72,0,0,1-.1.8h-6.6Zm5-1.3c0-1.1-.4-2.8-2.4-2.8a2.82,2.82,0,0,0-2.6,2.8Z"/><path class="cls-12" d="M129.49,177l-.1-1.2h-.1a3.53,3.53,0,0,1-2.9,1.4,2.68,2.68,0,0,1-2.9-2.7c0-2.3,2-3.5,5.7-3.5v-.2a1.93,1.93,0,0,0-2.1-2.2,5.2,5.2,0,0,0-2.5.7l-.4-1.1a5.94,5.94,0,0,1,3.1-.8c2.9,0,3.6,2,3.6,3.9v3.5a8.58,8.58,0,0,0,.2,2.3h-1.6Zm-.2-4.9c-1.9,0-4,.3-4,2.1a1.47,1.47,0,0,0,1.6,1.6,2.44,2.44,0,0,0,2.3-1.6,1.09,1.09,0,0,0,.1-.5Z"/><path class="cls-12" d="M133.89,175.23a4.81,4.81,0,0,0,2.3.7c1.2,0,1.8-.6,1.8-1.4s-.5-1.3-1.8-1.7c-1.7-.6-2.5-1.5-2.5-2.7,0-1.5,1.2-2.8,3.3-2.8a4.53,4.53,0,0,1,2.3.6l-.4,1.2a4.34,4.34,0,0,0-1.9-.5c-1,0-1.6.6-1.6,1.3s.6,1.1,1.8,1.6c1.6.6,2.5,1.4,2.5,2.8,0,1.7-1.3,2.8-3.5,2.8a7.16,7.16,0,0,1-2.7-.6Z"/><path class="cls-12" d="M150.69,172.23c0,3.5-2.4,5-4.7,5-2.6,0-4.5-1.9-4.5-4.9,0-3.2,2.1-5,4.7-5S150.69,169.33,150.69,172.23Zm-7.4.1c0,2.1,1.2,3.6,2.9,3.6s2.9-1.5,2.9-3.7c0-1.6-.8-3.6-2.8-3.6C144.09,168.63,143.29,170.53,143.29,172.33Z"/><path class="cls-12" d="M153.29,170.13a20.92,20.92,0,0,0-.1-2.6h1.5l.1,1.6h0a3.56,3.56,0,0,1,3.1-1.8c1.3,0,3.3.8,3.3,4v5.6h-1.7v-5.4c0-1.5-.6-2.8-2.2-2.8a2.46,2.46,0,0,0-2.3,1.8,2,2,0,0,0-.1.8V177h-1.7v-6.9Z"/><g id="svg_70-3" data-name="svg 70"><g id="svg_71-3" data-name="svg 71"><g id="Layer0_0_MEMBER_0_MEMBER_0_MEMBER_0_FILL-3" data-name="Layer0 0 MEMBER 0 MEMBER 0 MEMBER 0 FILL"><path id="svg_1-3" data-name="svg 1" class="cls-12" d="M115.54,145.78c0-2.4-.6-4.1-1.9-5.2a7.92,7.92,0,0,0-5.5-1.9H103v14.9h4.7a8.56,8.56,0,0,0,5.8-2,8.16,8.16,0,0,0,2-5.8m-5-3a4.6,4.6,0,0,1,.8,3.1,5.71,5.71,0,0,1-.8,3.3,3.34,3.34,0,0,1-2.7,1h-.9v-8.4h1.2A3,3,0,0,1,110.54,142.78Z"/></g></g></g><g id="svg_72-3" data-name="svg 72"><g id="svg_73-3" data-name="svg 73"><g id="Layer0_0_MEMBER_0_MEMBER_0_MEMBER_1_FILL-3" data-name="Layer0 0 MEMBER 0 MEMBER 0 MEMBER 1 FILL"><path id="svg_2-3" data-name="svg 2" class="cls-12" d="M125.84,143.18a5.55,5.55,0,0,0-4-1.4,5.65,5.65,0,0,0-4.2,1.6,6.11,6.11,0,0,0-1.5,4.5,5.82,5.82,0,0,0,1.6,4.4,6.79,6.79,0,0,0,4.5,1.5,13.58,13.58,0,0,0,2.4-.1,12.19,12.19,0,0,0,2-.7v-3a12,12,0,0,1-1.9.7,10.26,10.26,0,0,1-2,.2,2.79,2.79,0,0,1-1.8-.6,1.9,1.9,0,0,1-.8-1.5h7.1V147a4.84,4.84,0,0,0-1.4-3.8m-5,1.8a2.08,2.08,0,0,1,1.2-.5,1.89,1.89,0,0,1,1.7,1.9h-3.4A1.67,1.67,0,0,1,120.84,145Z"/></g></g></g><g id="svg_74-3" data-name="svg 74"><g id="svg_75-3" data-name="svg 75"><g id="Layer0_0_MEMBER_0_MEMBER_0_MEMBER_2_FILL-3" data-name="Layer0 0 MEMBER 0 MEMBER 0 MEMBER 2 FILL"><path id="svg_3-3" data-name="svg 3" class="cls-12" d="M139.64,141.88h-4.1l-2,6.9a8.92,8.92,0,0,0-.2,1.1h-.1v-.8c-.1,0-.1-.1-.1-.3v-.2l-2-6.8H127l4.3,11.5h3.9l4.4-11.4Z"/></g></g></g><g id="svg_76-3" data-name="svg 76"><g id="svg_77-3" data-name="svg 77"><g id="Layer0_0_MEMBER_0_MEMBER_0_MEMBER_3_FILL-3" data-name="Layer0 0 MEMBER 0 MEMBER 0 MEMBER 3 FILL"><path id="svg_4-3" data-name="svg 4" class="cls-12" d="M148.74,138.58H140v14.9h3.9V148h4.5v-3.3h-4.5v-2.9h4.8Z"/></g></g></g><g id="svg_78-3" data-name="svg 78"><g id="svg_79-3" data-name="svg 79"><g id="Layer0_0_MEMBER_0_MEMBER_0_MEMBER_4_FILL-3" data-name="Layer0 0 MEMBER 0 MEMBER 0 MEMBER 4 FILL"><path id="svg_5-3" data-name="svg 5" class="cls-12" d="M158.74,143.18a5.55,5.55,0,0,0-4-1.4,5.65,5.65,0,0,0-4.2,1.6,6.11,6.11,0,0,0-1.5,4.5,6,6,0,0,0,1.6,4.4,6.79,6.79,0,0,0,4.5,1.5,11.66,11.66,0,0,0,2.3-.1,12.19,12.19,0,0,0,2-.7v-3a12,12,0,0,1-1.9.7,10.26,10.26,0,0,1-2,.2,2.79,2.79,0,0,1-1.8-.6,1.58,1.58,0,0,1-.7-1.5h7.1V147a4.84,4.84,0,0,0-1.4-3.8m-4.9,1.8a2.08,2.08,0,0,1,1.2-.5,1.21,1.21,0,0,1,1.2.6,1.73,1.73,0,0,1,.5,1.3h-3.4A1.67,1.67,0,0,1,153.84,145Z"/></g></g></g><g id="svg_80-3" data-name="svg 80"><g id="svg_81-3" data-name="svg 81"><g id="Layer0_0_MEMBER_0_MEMBER_0_MEMBER_5_FILL-3" data-name="Layer0 0 MEMBER 0 MEMBER 0 MEMBER 5 FILL"><path id="svg_6-3" data-name="svg 6" class="cls-12" d="M170,150a2.54,2.54,0,0,0-.4-1.6,3.32,3.32,0,0,0-.8-1.1,6.67,6.67,0,0,0-1.8-1,11.92,11.92,0,0,1-2-.8c-.2-.1-.4-.2-.4-.5s.3-.5.9-.5a4.41,4.41,0,0,1,1.4.3,9.76,9.76,0,0,1,1.7.7l1.1-2.6a8.84,8.84,0,0,0-2-.7,7.25,7.25,0,0,0-2.1-.3,6.27,6.27,0,0,0-3.5.9,2.79,2.79,0,0,0-1.2,2.5,3.14,3.14,0,0,0,.7,2.1,6.92,6.92,0,0,0,2.2,1.5l2,.9c.2.2.4.4.4.6,0,.4-.4.6-1.3.6a11,11,0,0,1-4-1v3.1a9.73,9.73,0,0,0,2,.5,12.22,12.22,0,0,0,2.2.1,6,6,0,0,0,3.6-.9A3.57,3.57,0,0,0,170,150Z"/></g></g></g><g id="svg_82-3" data-name="svg 82"><g id="svg_83-3" data-name="svg 83"><g id="Layer0_0_MEMBER_0_MEMBER_0_MEMBER_6_FILL-3" data-name="Layer0 0 MEMBER 0 MEMBER 0 MEMBER 6 FILL"><path id="svg_7-3" data-name="svg 7" class="cls-12" d="M170.34,143.38V145h1.4v4.7a5.22,5.22,0,0,0,.8,3.1,3.52,3.52,0,0,0,2.9,1,11.14,11.14,0,0,0,1.7-.2,7.93,7.93,0,0,0,1.5-.5v-2.9a7.87,7.87,0,0,1-2,.4c-.8,0-1.1-.4-.9-1.1V145h2.8v-3h-2.8v-2.3h-2.6l-1,2.4-1.8,1.3Z"/></g></g></g><g id="svg_102-3" data-name="svg 102"><g id="svg_103-3" data-name="svg 103"><g id="Layer0_0_MEMBER_0_MEMBER_2_MEMBER_0_FILL-3" data-name="Layer0 0 MEMBER 0 MEMBER 2 MEMBER 0 FILL"><path id="svg_17-3" data-name="svg 17" class="cls-12" d="M55,140.58c-1.4,1.3-2,3.1-2,5.6a7.86,7.86,0,0,0,1.9,5.7,6.93,6.93,0,0,0,5.3,2A18.53,18.53,0,0,0,66,153v-8h-6.4v3.1h2.7v2.3a14.93,14.93,0,0,1-1.7.2,3,3,0,0,1-2.5-1.1,4.9,4.9,0,0,1-.8-3.2,5.19,5.19,0,0,1,.9-3.3,3.53,3.53,0,0,1,2.7-1.1,8.53,8.53,0,0,1,3.5.8l1.3-3.2a16.52,16.52,0,0,0-2.1-.7,11.15,11.15,0,0,0-2.7-.3A9.16,9.16,0,0,0,55,140.58Z"/></g></g></g><g id="svg_104-3" data-name="svg 104"><g id="svg_105-3" data-name="svg 105"><g id="Layer0_0_MEMBER_0_MEMBER_2_MEMBER_1_FILL-3" data-name="Layer0 0 MEMBER 0 MEMBER 2 MEMBER 1 FILL"><path id="svg_18-3" data-name="svg 18" class="cls-12" d="M80.44,145.58a7.1,7.1,0,0,0-1.9-5.2,8.05,8.05,0,0,0-5.6-1.9h-5.2v14.9h4.8a8.88,8.88,0,0,0,5.8-2,7.63,7.63,0,0,0,2.1-5.8m-5.1-2.8c.6.6.8,1.6.8,3.1a5.19,5.19,0,0,1-.9,3.3,3,3,0,0,1-2.6,1h-.9v-8.4h1.2A3,3,0,0,1,75.34,142.78Z"/></g></g></g><g id="svg_106-3" data-name="svg 106"><g id="svg_107-3" data-name="svg 107"><g id="Layer0_0_MEMBER_0_MEMBER_2_MEMBER_2_FILL-3" data-name="Layer0 0 MEMBER 0 MEMBER 2 MEMBER 2 FILL"><path id="svg_19-3" data-name="svg 19" class="cls-12" d="M94.24,152.88v-8h-6.4V148h2.7v2.3a14.93,14.93,0,0,1-1.7.2,3,3,0,0,1-2.5-1.1,5.81,5.81,0,0,1-.8-3.2,5.19,5.19,0,0,1,.9-3.3,3.47,3.47,0,0,1,2.6-1.1,8.63,8.63,0,0,1,3.6.8l1.3-3.21c-.5-.2-1.2-.4-2.1-.7a12.41,12.41,0,0,0-2.7-.3,8.12,8.12,0,0,0-5.7,2c-1.4,1.3-2,3.1-2,5.6a7.9,7.9,0,0,0,1.9,5.71,7,7,0,0,0,5.3,2A15.22,15.22,0,0,0,94.24,152.88Z"/></g></g></g></svg>