<?xml version="1.0" encoding="utf-8"?>
<!-- Generator: Adobe Illustrator 19.0.0, SVG Export Plug-In . SVG Version: 6.00 Build 0)  -->
<svg version="1.1" id="Layer_1" xmlns="http://www.w3.org/2000/svg" xmlns:xlink="http://www.w3.org/1999/xlink" x="0px" y="0px"
	 viewBox="0 0 1200 900" style="enable-background:new 0 0 1200 900;" xml:space="preserve">
<style type="text/css">
	.st0{fill:#4E4E4E;}
	.st1{fill:url(#XMLID_266_);}
	.st2{fill:url(#XMLID_267_);}
	.st3{fill:url(#XMLID_268_);}
	.st4{fill:url(#XMLID_269_);}
	.st5{fill:url(#XMLID_270_);}
	.st6{fill:url(#XMLID_271_);}
	.st7{fill:url(#XMLID_272_);}
	.st8{fill:url(#XMLID_273_);}
	.st9{fill:#E6E6E5;}
	.st10{fill:url(#XMLID_274_);}
	.st11{fill:url(#XMLID_275_);}
	.st12{fill:url(#XMLID_276_);}
	.st13{fill:url(#XMLID_277_);}
	.st14{font-family:'Arial-BoldMT';}
	.st15{font-size:23.1546px;}
</style>
<g id="XMLID_261_" transform="matrix( 1, 0, 0, 1, 213.55,-303.05) ">
	<g id="XMLID_262_">
		<g id="Layer0_0_MEMBER_0_MEMBER_0_MEMBER_0_FILL">
			<path id="XMLID_263_" class="st0" d="M-67.8,337c0-2.6-0.7-4.4-2-5.6c-1.4-1.3-3.4-2-5.9-2h-5.5v16.1h5.1c2.6,0,4.6-0.7,6.2-2.2
				C-68.5,341.8-67.8,339.7-67.8,337 M-73.2,333.7c0.6,0.7,0.9,1.8,0.9,3.3c0,1.6-0.3,2.8-0.9,3.5c-0.6,0.7-1.6,1.1-2.9,1.1h-1v-9
				h1.3C-74.7,332.6-73.8,333-73.2,333.7z"/>
		</g>
	</g>
</g>
<g id="XMLID_256_" transform="matrix( 1, 0, 0, 1, 213.55,-303.05) ">
	<g id="XMLID_257_">
		<g id="Layer0_0_MEMBER_0_MEMBER_0_MEMBER_1_FILL">
			<path id="XMLID_258_" class="st0" d="M-56.6,334.1c-1-1-2.4-1.5-4.3-1.5c-1.9,0-3.4,0.6-4.5,1.7c-1.1,1.1-1.6,2.7-1.6,4.8
				c0,2,0.6,3.6,1.7,4.7c1.3,1.1,2.9,1.6,4.8,1.6c1.3,0,2.1,0,2.5-0.1c0.5-0.1,1.2-0.3,2.1-0.7v-3.1c-0.9,0.4-1.6,0.6-2,0.7
				c-1.2,0.2-1.9,0.3-2.1,0.3c-0.7,0-1.4-0.2-1.9-0.6c-0.6-0.4-0.8-0.9-0.8-1.6h7.6v-1.9C-55.1,336.6-55.6,335.2-56.6,334.1
				 M-62.1,336.1c0.4-0.3,0.9-0.5,1.3-0.5c0.5,0,0.9,0.2,1.3,0.6c0.3,0.3,0.5,0.8,0.5,1.4h-3.7C-62.6,336.9-62.4,336.4-62.1,336.1z"
				/>
		</g>
	</g>
</g>
<g id="XMLID_253_" transform="matrix( 1, 0, 0, 1, 213.55,-303.05) ">
	<g id="XMLID_254_">
		<g id="Layer0_0_MEMBER_0_MEMBER_0_MEMBER_2_FILL">
			<path id="XMLID_255_" class="st0" d="M-41.8,332.8h-4.4l-2.2,7.4c-0.1,0.5-0.2,0.9-0.2,1.2h-0.1V341v-0.4c-0.1,0-0.1-0.1-0.1-0.3
				v-0.2l-2.1-7.3h-4.4l4.7,12.5h4.2L-41.8,332.8z"/>
		</g>
	</g>
</g>
<g id="XMLID_250_" transform="matrix( 1, 0, 0, 1, 213.55,-303.05) ">
	<g id="XMLID_251_">
		<g id="Layer0_0_MEMBER_0_MEMBER_0_MEMBER_3_FILL">
			<path id="XMLID_252_" class="st0" d="M-31.9,329.2h-9.4v16.1h4.2v-5.9h4.8v-3.5h-4.8v-3.1h5.2V329.2z"/>
		</g>
	</g>
</g>
<g id="XMLID_245_" transform="matrix( 1, 0, 0, 1, 213.55,-303.05) ">
	<g id="XMLID_246_">
		<g id="Layer0_0_MEMBER_0_MEMBER_0_MEMBER_4_FILL">
			<path id="XMLID_247_" class="st0" d="M-21.1,334.1c-1-1-2.4-1.5-4.3-1.5c-1.9,0-3.4,0.6-4.5,1.7c-1.1,1.1-1.6,2.7-1.6,4.8
				c0,1.9,0.6,3.5,1.7,4.7c1.3,1.1,2.9,1.6,4.8,1.6c1.3,0,2.1,0,2.5-0.1c0.5-0.1,1.2-0.3,2.1-0.7v-3.1c-1,0.4-1.6,0.6-2,0.7
				c-1.2,0.2-1.9,0.3-2.1,0.3c-0.7,0-1.4-0.2-1.9-0.6c-0.5-0.4-0.8-0.9-0.8-1.6h7.6v-1.9C-19.6,336.6-20.1,335.2-21.1,334.1
				 M-26.4,336.1c0.4-0.3,0.8-0.5,1.3-0.5c0.6,0,1,0.2,1.3,0.6c0.3,0.3,0.5,0.8,0.5,1.4H-27C-26.9,336.9-26.8,336.4-26.4,336.1z"/>
		</g>
	</g>
</g>
<g id="XMLID_242_" transform="matrix( 1, 0, 0, 1, 213.55,-303.05) ">
	<g id="XMLID_243_">
		<g id="Layer0_0_MEMBER_0_MEMBER_0_MEMBER_5_FILL">
			<path id="XMLID_244_" class="st0" d="M-8.9,341.5c0-0.7-0.1-1.3-0.4-1.8c-0.1-0.3-0.4-0.7-0.9-1.2c-0.3-0.3-0.9-0.7-1.9-1.1
				c-0.8-0.3-1.5-0.6-2.1-0.9c-0.3-0.1-0.4-0.3-0.4-0.5c0-0.3,0.3-0.5,1-0.5c0.4,0,0.9,0.1,1.5,0.3c0.8,0.3,1.4,0.5,1.8,0.7l1.2-2.8
				c-0.4-0.2-1.1-0.5-2.2-0.8c-0.7-0.2-1.5-0.3-2.3-0.3c-1.5,0-2.8,0.3-3.8,1c-0.9,0.6-1.3,1.5-1.3,2.7c0,0.8,0.2,1.6,0.7,2.3
				c0.5,0.5,1.3,1.1,2.4,1.6c1.2,0.5,2,0.9,2.2,1c0.3,0.2,0.4,0.4,0.4,0.6c0,0.4-0.5,0.6-1.4,0.6c-0.6,0-1.3-0.1-2.1-0.3
				c-0.5-0.1-1.3-0.4-2.2-0.7v3.4c0.6,0.2,1.3,0.4,2.1,0.5c0.5,0.1,1.3,0.1,2.4,0.1c1.7,0,3-0.3,3.9-1
				C-9.4,343.8-8.9,342.8-8.9,341.5z"/>
		</g>
	</g>
</g>
<g id="XMLID_239_" transform="matrix( 1, 0, 0, 1, 213.55,-303.05) ">
	<g id="XMLID_240_">
		<g id="Layer0_0_MEMBER_0_MEMBER_0_MEMBER_6_FILL">
			<path id="XMLID_241_" class="st0" d="M-8.5,334.3v1.7H-7v5.1c0,1.5,0.3,2.6,0.9,3.3c0.6,0.7,1.7,1.1,3.1,1.1
				c0.5,0,1.1-0.1,1.8-0.2c0.2,0,0.7-0.2,1.6-0.5v-3.1c-0.8,0.3-1.5,0.4-2.1,0.4c-0.8,0-1.2-0.4-1-1.2v-4.8h3v-3.2h-3v-2.5h-2.8
				l-1.1,2.6L-8.5,334.3z"/>
		</g>
	</g>
</g>
<g id="XMLID_236_" transform="matrix( 1, 0, 0, 1, 213.55,-303.05) ">
	<g id="XMLID_237_">
		<g id="Layer0_0_MEMBER_0_MEMBER_1_MEMBER_0_FILL">
			<path id="XMLID_238_" class="st0" d="M-134,365.1v1.9h10.3l0.1-2.2h-7.2v-0.1l2.6-2.5c1.5-1.5,2.3-2.4,2.5-2.6
				c0.6-0.9,1-1.5,1.1-1.9c0.3-0.5,0.4-1.2,0.4-1.9c0-1.2-0.4-2.2-1.3-3c-0.9-0.7-2.1-1.1-3.4-1.1c-1,0-1.8,0.1-2.5,0.4
				c-0.9,0.3-1.7,0.8-2.5,1.5l1.3,1.6c0.6-0.5,1.2-0.9,1.9-1.3c0.7-0.2,1.2-0.3,1.7-0.3c0.7,0,1.3,0.2,1.7,0.6
				c0.4,0.4,0.6,0.9,0.6,1.6c0,0.1-0.1,0.6-0.3,1.4c-0.1,0.4-0.4,0.9-0.8,1.4L-134,365.1z"/>
		</g>
	</g>
</g>
<g id="XMLID_231_" transform="matrix( 1, 0, 0, 1, 213.55,-303.05) ">
	<g id="XMLID_232_">
		<g id="Layer0_0_MEMBER_0_MEMBER_1_MEMBER_1_FILL">
			<path id="XMLID_233_" class="st0" d="M-112.8,359.4c0-2.7-0.4-4.6-1.3-5.8c-0.8-1.3-2.1-2-3.8-2c-1.8,0-3.1,0.6-3.9,1.9
				c-0.9,1.3-1.3,3.2-1.3,5.9c0,2.5,0.4,4.5,1.3,5.8c0.8,1.3,2.1,2,3.8,2c1.8,0,3.1-0.6,3.9-1.9
				C-113.2,364.1-112.8,362.1-112.8,359.4 M-120.6,359.4c0-1.9,0.2-3.4,0.6-4.5c0.4-0.8,1-1.3,2-1.3c1,0,1.6,0.5,2,1.4
				c0.4,0.9,0.7,2.3,0.7,4.4c0,2-0.2,3.4-0.7,4.4c-0.3,0.9-1,1.3-2,1.3c-0.9,0-1.6-0.4-2-1.3C-120.4,362.9-120.6,361.4-120.6,359.4z
				"/>
		</g>
	</g>
</g>
<g id="XMLID_228_" transform="matrix( 1, 0, 0, 1, 213.55,-303.05) ">
	<g id="XMLID_229_">
		<g id="Layer0_0_MEMBER_0_MEMBER_1_MEMBER_2_FILL">
			<path id="XMLID_230_" class="st0" d="M-105.1,351.7h-2l-4.4,3.5l1.2,1.5c1.4-1.1,2.2-1.8,2.3-1.9l0.7-0.5
				c-0.1,0.5-0.2,1.4-0.2,2.8v9.8h2.4V351.7z"/>
		</g>
	</g>
</g>
<g id="XMLID_225_" transform="matrix( 1, 0, 0, 1, 213.55,-303.05) ">
	<g id="XMLID_226_">
		<g id="Layer0_0_MEMBER_0_MEMBER_1_MEMBER_3_FILL">
			<path id="XMLID_227_" class="st0" d="M-82.4,357.6c-0.5-0.4-0.7-0.6-0.8-0.8c-0.1-0.4-0.2-0.7-0.2-1c0-0.6,0.2-1.1,0.6-1.4
				c0.5-0.3,1.1-0.5,1.8-0.5c1.2,0,2.4,0.3,3.6,0.8l0.8-2c-1.3-0.7-2.8-1-4.3-1s-2.7,0.4-3.6,1.1c-0.9,0.7-1.3,1.7-1.3,3
				c0,1.1,0.3,2,0.8,2.6c0.5,0.6,1.4,1.3,2.9,1.9c1.3,0.5,2.2,1,2.6,1.4c0.4,0.4,0.6,0.9,0.6,1.4c0,0.6-0.2,1.1-0.7,1.5
				c-0.5,0.4-1.2,0.6-2.2,0.6c-0.8,0-1.5-0.1-2.1-0.3c-0.1,0-0.9-0.3-2.2-0.8v2.3c1.2,0.5,2.6,0.8,4.2,0.8c1.7,0,3-0.4,4-1.1
				c1-0.8,1.5-1.9,1.5-3.3c0-0.8-0.2-1.3-0.5-1.6c-0.2-0.5-0.6-1-1.1-1.4c-0.4-0.3-1.2-0.8-2.4-1.3L-82.4,357.6z"/>
		</g>
	</g>
</g>
<g id="XMLID_220_" transform="matrix( 1, 0, 0, 1, 213.55,-303.05) ">
	<g id="XMLID_221_">
		<g id="Layer0_0_MEMBER_0_MEMBER_1_MEMBER_4_FILL">
			<path id="XMLID_222_" class="st0" d="M-74.3,356.8c-0.9,1.1-1.4,2.6-1.4,4.4c0,1.9,0.5,3.3,1.5,4.3c1,1.1,2.4,1.6,4.2,1.6
				l2.1-0.2c0.6-0.1,1.2-0.3,1.8-0.6v-2c-0.7,0.3-1.4,0.5-1.9,0.6c-0.8,0.1-1.4,0.2-1.9,0.2c-1,0-1.8-0.3-2.4-0.9
				c-0.6-0.6-0.9-1.5-0.9-2.6h7.6v-1.3c0-1.6-0.4-2.9-1.3-3.8c-0.9-0.9-2.1-1.4-3.6-1.4C-72.1,355.2-73.4,355.7-74.3,356.8
				 M-73.1,360c0.2-1,0.4-1.7,0.8-2.1c0.5-0.5,1.1-0.7,2-0.7c0.6,0,1.2,0.2,1.8,0.7c0.5,0.4,0.7,1.1,0.7,2.1H-73.1z"/>
		</g>
	</g>
</g>
<g id="XMLID_215_" transform="matrix( 1, 0, 0, 1, 213.55,-303.05) ">
	<g id="XMLID_216_">
		<g id="Layer0_0_MEMBER_0_MEMBER_1_MEMBER_5_FILL">
			<path id="XMLID_217_" class="st0" d="M-63.8,356.3l0.8,1.7l1.6-0.6c0.6-0.2,1.2-0.3,1.7-0.3c0.8,0,1.4,0.2,1.6,0.5
				c0.3,0.3,0.5,0.9,0.5,1.6v0.6l-2,0.1c-1.8,0.1-3.2,0.4-4,1c-0.9,0.6-1.3,1.5-1.3,2.7c0,1.1,0.3,2,0.9,2.6
				c0.6,0.6,1.5,0.9,2.6,0.9c0.9,0,1.7-0.1,2.2-0.4c0.5-0.1,1.1-0.6,1.7-1.4h0.1l0.5,1.6l1.6,0.1v-7.7c0-1.4-0.4-2.4-1.1-3
				c-0.7-0.7-1.8-1-3.3-1c-0.7,0-1.4,0.1-2.1,0.3C-62.3,355.6-63,355.9-63.8,356.3 M-57.5,361.5v1c0,0.9-0.3,1.6-0.8,2.1
				c-0.5,0.5-1.2,0.7-2.1,0.7c-0.7,0-1.1-0.1-1.4-0.3c-0.3-0.3-0.5-0.7-0.5-1.2c0-0.6,0.3-1.2,0.8-1.6c0.5-0.4,1.3-0.6,2.5-0.6
				L-57.5,361.5z"/>
		</g>
	</g>
</g>
<g id="XMLID_212_" transform="matrix( 1, 0, 0, 1, 213.55,-303.05) ">
	<g id="XMLID_213_">
		<g id="Layer0_0_MEMBER_0_MEMBER_1_MEMBER_6_FILL">
			<path id="XMLID_214_" class="st0" d="M-52.4,356c-0.8,0.6-1.2,1.4-1.2,2.3c0,0.9,0.2,1.5,0.7,2c0.5,0.5,1.4,1,2.7,1.5l1.6,0.7
				c0.3,0.1,0.5,0.3,0.8,0.6c0.1,0.3,0.2,0.5,0.2,0.7c0,0.9-0.7,1.4-2.2,1.4c-1.2,0-2.5-0.3-3.8-0.9v2.1c1,0.5,2.2,0.8,3.7,0.8
				c1.5,0,2.7-0.3,3.5-0.9c0.8-0.6,1.2-1.5,1.2-2.6c0-0.4,0-0.6,0-0.8c0-0.3-0.1-0.6-0.2-0.8c-0.6-0.7-0.9-1-1-1.1
				c-0.3-0.2-1-0.5-2.1-1c-1-0.4-1.8-0.7-2.2-1c-0.3-0.2-0.5-0.5-0.5-0.9c0-0.7,0.6-1.1,1.9-1.1c0.8,0,1.8,0.3,3.1,0.8l0.8-1.8
				c-1.3-0.5-2.5-0.8-3.8-0.8C-50.5,355.2-51.5,355.4-52.4,356z"/>
		</g>
	</g>
</g>
<g id="XMLID_207_" transform="matrix( 1, 0, 0, 1, 213.55,-303.05) ">
	<g id="XMLID_208_">
		<g id="Layer0_0_MEMBER_0_MEMBER_1_MEMBER_7_FILL">
			<path id="XMLID_209_" class="st0" d="M-33.6,361.2c0-1.6-0.5-3-1.5-4.3c-0.9-1.1-2.2-1.6-3.9-1.6c-1.6,0-2.9,0.5-4,1.6
				c-0.9,1-1.4,2.5-1.4,4.3c0,1,0.2,2.1,0.7,3.1c0.4,0.8,1,1.5,1.9,2.1c0.8,0.5,1.7,0.8,2.8,0.8c1.8,0,3.1-0.5,4-1.6
				C-34.1,364.4-33.6,362.9-33.6,361.2 M-42.1,361.2c0-1.1,0.3-2.1,0.8-2.9c0.3-0.7,1.1-1,2.2-1c2,0,3,1.3,3,3.9c0,2.7-1,4-3,4
				C-41.1,365.2-42.1,363.9-42.1,361.2z"/>
		</g>
	</g>
</g>
<g id="XMLID_204_" transform="matrix( 1, 0, 0, 1, 213.55,-303.05) ">
	<g id="XMLID_205_">
		<g id="Layer0_0_MEMBER_0_MEMBER_1_MEMBER_8_FILL">
			<path id="XMLID_206_" class="st0" d="M-29,358.1c0.5-0.6,1.3-0.9,2.3-0.9c0.6,0,1.2,0.2,1.7,0.7c0.3,0.6,0.5,1.2,0.5,2v7h2.4
				v-7.4c0-2.8-1.4-4.2-4.1-4.2c-0.9,0-1.6,0.1-2.1,0.4c-0.6,0.3-1.1,0.7-1.5,1.3h-0.1l-0.3-1.5h-1.9v11.5h2.4v-5.7
				C-29.7,359.8-29.5,358.7-29,358.1z"/>
		</g>
	</g>
</g>
<g id="XMLID_201_" transform="matrix( 1, 0, 0, 1, 213.55,-303.05) ">
	<g id="XMLID_202_">
		<g id="Layer0_0_MEMBER_0_MEMBER_2_MEMBER_0_FILL">
			<path id="XMLID_203_" class="st0" d="M-133.2,331.6c-1.5,1.4-2.2,3.4-2.2,6s0.7,4.7,2,6.1c1.3,1.4,3.2,2.1,5.7,2.1
				c2.2,0,4.3-0.3,6.2-1v-8.6h-6.9v3.3h2.9v2.5c-0.8,0.1-1.4,0.2-1.8,0.2c-1.2,0-2.1-0.4-2.7-1.2c-0.6-0.8-0.9-1.9-0.9-3.4
				c0-1.6,0.3-2.7,1-3.5s1.7-1.2,2.9-1.2c1.3,0,2.6,0.3,3.8,0.9l1.4-3.4c-0.5-0.2-1.2-0.5-2.3-0.7c-0.9-0.2-1.9-0.3-2.9-0.3
				C-129.6,329.4-131.6,330.1-133.2,331.6z"/>
		</g>
	</g>
</g>
<g id="XMLID_196_" transform="matrix( 1, 0, 0, 1, 213.55,-303.05) ">
	<g id="XMLID_197_">
		<g id="Layer0_0_MEMBER_0_MEMBER_2_MEMBER_1_FILL">
			<path id="XMLID_198_" class="st0" d="M-105.8,337.3c0-2.3-0.7-4.1-2-5.5c-1.4-1.3-3.4-2-6-2h-5.6v16.1h5.2c2.5,0,4.6-0.7,6.2-2.2
				C-106.6,342-105.8,340-105.8,337.3 M-111.3,334.1c0.6,0.7,0.9,1.8,0.9,3.3c0,1.6-0.3,2.7-1,3.5c-0.6,0.7-1.5,1.1-2.8,1.1h-1v-9
				h1.3C-112.8,333-111.9,333.4-111.3,334.1z"/>
		</g>
	</g>
</g>
<g id="XMLID_193_" transform="matrix( 1, 0, 0, 1, 213.55,-303.05) ">
	<g id="XMLID_194_">
		<g id="Layer0_0_MEMBER_0_MEMBER_2_MEMBER_2_FILL">
			<path id="XMLID_195_" class="st0" d="M-90.9,344.9v-8.6h-6.9v3.3h2.9v2.5c-0.8,0.1-1.4,0.2-1.8,0.2c-1.2,0-2.1-0.4-2.7-1.2
				c-0.6-0.8-0.8-2-0.8-3.4c0-1.6,0.3-2.7,1-3.5c0.7-0.8,1.6-1.2,2.8-1.2c1.4,0,2.7,0.3,3.8,0.9l1.4-3.4c-0.5-0.2-1.3-0.5-2.3-0.7
				c-0.9-0.2-1.9-0.3-3-0.3c-2.5,0-4.6,0.7-6.1,2.2c-1.5,1.4-2.2,3.4-2.2,6s0.7,4.7,2,6.1c1.3,1.4,3.2,2.1,5.7,2.1
				C-94.9,345.9-92.8,345.5-90.9,344.9z"/>
		</g>
	</g>
</g>
<g id="XMLID_190_" transform="matrix( 1, 0, 0, 1, 213.55,-303.05) ">
	<g id="XMLID_191_">
		<g id="Layer0_0_MEMBER_0_MEMBER_3_FILL">
			
				<radialGradient id="XMLID_266_" cx="-398.3319" cy="-572.8958" r="10.0454" gradientTransform="matrix(1 0 0 1 231.9 941.8)" gradientUnits="userSpaceOnUse">
				<stop  offset="0" style="stop-color:#FECE5B"/>
				<stop  offset="1" style="stop-color:#F3C146"/>
			</radialGradient>
			<path id="XMLID_192_" class="st1" d="M-157.8,365.7c0-0.9-0.2-1.7-0.6-2.4l-3.4-5.6l-13.5,22.5h6.9c0.8,0,1.6-0.3,2.5-0.8
				c0.9-0.5,1.5-1.1,1.8-1.8l5.7-9.5C-157.9,367.4-157.8,366.6-157.8,365.7z"/>
		</g>
	</g>
</g>
<g id="XMLID_187_" transform="matrix( 1, 0, 0, 1, 213.55,-303.05) ">
	<g id="XMLID_188_">
		<g id="Layer0_0_MEMBER_0_MEMBER_4_FILL">
			
				<radialGradient id="XMLID_267_" cx="-398.3592" cy="-572.944" r="13.8225" gradientTransform="matrix(1 0 0 1 225.9 936.7)" gradientUnits="userSpaceOnUse">
				<stop  offset="0" style="stop-color:#1CA863"/>
				<stop  offset="1" style="stop-color:#17904E"/>
			</radialGradient>
			<path id="XMLID_189_" class="st2" d="M-161.8,357.7l-6-10.2c0.4,0.7,0.6,1.6,0.6,2.5c0,1-0.2,1.9-0.6,2.5l-15.3,25.3
				c-0.3,0.6-0.3,1.1,0,1.5c0.3,0.4,0.8,0.7,1.5,0.7h6.3L-161.8,357.7z"/>
		</g>
	</g>
</g>
<g id="XMLID_184_" transform="matrix( 1, 0, 0, 1, 213.55,-303.05) ">
	<g id="XMLID_185_">
		<g id="Layer0_0_MEMBER_0_MEMBER_5_FILL">
			
				<radialGradient id="XMLID_268_" cx="-398.361" cy="-573.0085" r="20.3132" gradientTransform="matrix(1 0 0 1 230.55 916.95)" gradientUnits="userSpaceOnUse">
				<stop  offset="0" style="stop-color:#5880BE"/>
				<stop  offset="1" style="stop-color:#5780BE"/>
			</radialGradient>
			<path id="XMLID_186_" class="st3" d="M-175.3,319.9h-6.3c-0.8,0-1.4,0.3-1.7,0.8c-0.3,0.5-0.2,1.1,0.3,1.8l24.6,40.9
				c0.4,0.6,0.6,1.4,0.6,2.3c0,0.9-0.1,1.7-0.5,2.4l6-9.9L-175.3,319.9z"/>
		</g>
	</g>
</g>
<g id="XMLID_181_" transform="matrix( 1, 0, 0, 1, 213.55,-303.05) ">
	<g id="XMLID_182_">
		<g id="Layer0_0_MEMBER_0_MEMBER_6_FILL">
			
				<radialGradient id="XMLID_269_" cx="-398.3106" cy="-573.0311" r="16.5498" gradientTransform="matrix(1 0 0 1 236.6 912.0001)" gradientUnits="userSpaceOnUse">
				<stop  offset="0" style="stop-color:#DF4D45"/>
				<stop  offset="1" style="stop-color:#CB3A33"/>
			</radialGradient>
			<path id="XMLID_183_" class="st4" d="M-165.9,320.7c-0.8-0.5-1.6-0.8-2.4-0.8h-6.9l23,38.2l3.3-5.5c0.4-0.7,0.6-1.5,0.6-2.5
				s-0.2-1.8-0.6-2.5l-15.1-25.1C-164.4,321.7-165,321.1-165.9,320.7z"/>
		</g>
	</g>
</g>
<g id="XMLID_176_" transform="matrix( 1, 0, 0, 1, 213.55,-303.05) ">
	<g id="XMLID_177_">
		<g id="Layer0_0_MEMBER_1_MEMBER_0_MEMBER_0_FILL">
			<path id="XMLID_178_" class="st0" d="M-75.8,392.6h-5.5v16.1h5.1c2.6,0,4.6-0.7,6.2-2.2c1.4-1.4,2.2-3.5,2.2-6.2
				c0-2.6-0.7-4.4-2-5.6C-71.3,393.3-73.3,392.6-75.8,392.6 M-77.1,395.9h1.3c1.1,0,2,0.4,2.6,1.1c0.6,0.7,0.9,1.8,0.9,3.3
				c0,1.6-0.3,2.8-0.9,3.5c-0.6,0.7-1.6,1.1-2.9,1.1h-1L-77.1,395.9L-77.1,395.9z"/>
		</g>
	</g>
</g>
<g id="XMLID_171_" transform="matrix( 1, 0, 0, 1, 213.55,-303.05) ">
	<g id="XMLID_172_">
		<g id="Layer0_0_MEMBER_1_MEMBER_0_MEMBER_1_FILL">
			<path id="XMLID_173_" class="st0" d="M-56.6,397.2c-1-1-2.4-1.5-4.3-1.5c-1.9,0-3.4,0.6-4.5,1.7c-1.1,1.1-1.6,2.7-1.6,4.8
				c0,2,0.6,3.6,1.7,4.7c1.3,1.2,2.9,1.8,4.8,1.8c1.3,0,2.1-0.1,2.5-0.3c0.5-0.1,1.2-0.3,2.1-0.7v-3.1c-0.9,0.4-1.6,0.6-2,0.7
				c-0.9,0.1-1.6,0.2-2.1,0.2c-0.8,0-1.4-0.2-1.9-0.6c-0.6-0.5-0.8-1-0.8-1.6h7.6v-1.9C-55.1,399.7-55.6,398.2-56.6,397.2
				 M-60.8,398.8c0.5,0,0.9,0.2,1.3,0.6c0.3,0.3,0.5,0.8,0.5,1.4h-3.7c0.1-0.7,0.3-1.2,0.6-1.5C-61.7,399-61.2,398.8-60.8,398.8z"/>
		</g>
	</g>
</g>
<g id="XMLID_168_" transform="matrix( 1, 0, 0, 1, 213.55,-303.05) ">
	<g id="XMLID_169_">
		<g id="Layer0_0_MEMBER_1_MEMBER_0_MEMBER_2_FILL">
			<path id="XMLID_170_" class="st0" d="M-41.8,396.1h-4.4l-2.2,7.4c-0.1,0.5-0.2,0.9-0.2,1.2h-0.1v-0.5v-0.4
				c-0.1,0-0.1-0.1-0.1-0.3v-0.2l-2.1-7.3h-4.4l4.7,12.5h4.2L-41.8,396.1z"/>
		</g>
	</g>
</g>
<g id="XMLID_165_" transform="matrix( 1, 0, 0, 1, 213.55,-303.05) ">
	<g id="XMLID_166_">
		<g id="Layer0_0_MEMBER_1_MEMBER_0_MEMBER_3_FILL">
			<path id="XMLID_167_" class="st0" d="M-32.3,399.1h-4.8V396h5.2v-3.5h-9.4v16.1h4.2v-5.9h4.8V399.1z"/>
		</g>
	</g>
</g>
<g id="XMLID_160_" transform="matrix( 1, 0, 0, 1, 213.55,-303.05) ">
	<g id="XMLID_161_">
		<g id="Layer0_0_MEMBER_1_MEMBER_0_MEMBER_4_FILL">
			<path id="XMLID_162_" class="st0" d="M-25.4,395.7c-1.9,0-3.4,0.6-4.5,1.7c-1.1,1.1-1.6,2.7-1.6,4.8c0,1.9,0.6,3.5,1.7,4.7
				c1.3,1.2,2.9,1.8,4.8,1.8c1.3,0,2.1-0.1,2.5-0.3c0.5-0.1,1.2-0.3,2.1-0.7v-3.1c-0.9,0.4-1.6,0.6-2,0.7c-0.9,0.1-1.6,0.2-2.1,0.2
				c-0.8,0-1.4-0.2-1.9-0.6c-0.5-0.4-0.8-1-0.8-1.6h7.6v-1.9c0-1.8-0.5-3.2-1.5-4.2C-22.1,396.2-23.5,395.7-25.4,395.7 M-25.1,398.8
				c0.6,0,1,0.2,1.3,0.6c0.3,0.3,0.5,0.8,0.5,1.4H-27c0.1-0.7,0.3-1.2,0.6-1.5C-26.1,399-25.6,398.8-25.1,398.8z"/>
		</g>
	</g>
</g>
<g id="XMLID_157_" transform="matrix( 1, 0, 0, 1, 213.55,-303.05) ">
	<g id="XMLID_158_">
		<g id="Layer0_0_MEMBER_1_MEMBER_0_MEMBER_5_FILL">
			<path id="XMLID_159_" class="st0" d="M-14.2,399.7c-0.3-0.1-0.4-0.3-0.4-0.5c0-0.3,0.3-0.5,1-0.5c0.4,0,0.9,0.1,1.5,0.3
				c0.8,0.3,1.4,0.5,1.8,0.7l1.2-2.8c-0.4-0.2-1.1-0.5-2.2-0.8c-0.7-0.2-1.5-0.3-2.3-0.3c-1.5,0-2.8,0.3-3.8,1
				c-0.9,0.6-1.3,1.5-1.3,2.7c0,0.8,0.2,1.6,0.7,2.3c0.5,0.5,1.3,1.1,2.4,1.6c1.2,0.5,2,0.9,2.2,1c0.3,0.2,0.4,0.4,0.4,0.6
				c0,0.4-0.5,0.6-1.4,0.6c-0.6,0-1.3-0.1-2.1-0.3c-0.5-0.1-1.3-0.4-2.2-0.7v3.4c0.9,0.3,1.6,0.5,2.1,0.5c1,0.1,1.8,0.1,2.4,0.1
				c1.7,0,3-0.3,3.9-1s1.4-1.7,1.4-3c0-0.7-0.1-1.3-0.4-1.8c-0.2-0.5-0.5-0.9-0.9-1.2c-0.3-0.3-0.9-0.7-1.9-1.1
				C-12.7,400.5-13.4,400.2-14.2,399.7z"/>
		</g>
	</g>
</g>
<g id="XMLID_154_" transform="matrix( 1, 0, 0, 1, 213.55,-303.05) ">
	<g id="XMLID_155_">
		<g id="Layer0_0_MEMBER_1_MEMBER_0_MEMBER_6_FILL">
			<path id="XMLID_156_" class="st0" d="M0.2,399.3v-3.2h-3v-2.5h-2.8l-1.1,2.6l-1.9,1.4v1.7h1.5v5.1c0,1.5,0.3,2.6,0.9,3.3
				c0.6,0.7,1.7,1.1,3.1,1.1c0.5,0,1.1-0.1,1.8-0.2c0.2,0,0.7-0.2,1.6-0.5v-3.1c-0.8,0.3-1.5,0.4-2.1,0.4c-0.8,0-1.2-0.4-1-1.3v-4.8
				H0.2z"/>
		</g>
	</g>
</g>
<g id="XMLID_151_" transform="matrix( 1, 0, 0, 1, 213.55,-303.05) ">
	<g id="XMLID_152_">
		<g id="Layer0_0_MEMBER_1_MEMBER_1_MEMBER_0_FILL">
			<path id="XMLID_153_" class="st0" d="M-130.7,417.2c0.7-0.2,1.2-0.3,1.7-0.3c0.7,0,1.3,0.2,1.7,0.6c0.4,0.4,0.6,0.9,0.6,1.6
				c0,0.5-0.1,1-0.3,1.4c-0.1,0.4-0.4,0.9-0.8,1.4l-6.2,6.4v1.9h10.3l0.1-2.2h-7.2V428l2.6-2.5c1.4-1.4,2.3-2.3,2.5-2.6
				c0.6-0.9,1-1.5,1.1-1.9c0.3-0.5,0.4-1.2,0.4-1.9c0-1.2-0.4-2.2-1.3-3c-0.9-0.7-2.1-1.1-3.4-1.1c-1,0-1.8,0.1-2.5,0.4
				c-0.9,0.3-1.7,0.8-2.5,1.5l1.3,1.6C-132,417.9-131.4,417.5-130.7,417.2z"/>
		</g>
	</g>
</g>
<g id="XMLID_146_" transform="matrix( 1, 0, 0, 1, 213.55,-303.05) ">
	<g id="XMLID_147_">
		<g id="Layer0_0_MEMBER_1_MEMBER_1_MEMBER_1_FILL">
			<path id="XMLID_148_" class="st0" d="M-112.8,422.6c0-2.7-0.4-4.6-1.3-5.8c-0.8-1.3-2.1-2-3.8-2c-1.8,0-3.1,0.6-3.9,1.9
				c-0.9,1.3-1.3,3.2-1.3,5.9c0,2.5,0.4,4.5,1.3,5.8c0.8,1.3,2.1,2,3.8,2c1.8,0,3.1-0.6,3.9-1.9
				C-113.2,427.4-112.8,425.4-112.8,422.6 M-120.6,422.6c0-1.9,0.2-3.4,0.6-4.5c0.4-0.8,1-1.3,2-1.3c1,0,1.6,0.5,2,1.4
				s0.7,2.3,0.7,4.4c0,2-0.2,3.4-0.7,4.4c-0.3,0.9-1,1.3-2,1.3c-0.9,0-1.6-0.4-2-1.3C-120.4,426.2-120.6,424.7-120.6,422.6z"/>
		</g>
	</g>
</g>
<g id="XMLID_143_" transform="matrix( 1, 0, 0, 1, 213.55,-303.05) ">
	<g id="XMLID_144_">
		<g id="Layer0_0_MEMBER_1_MEMBER_1_MEMBER_2_FILL">
			<path id="XMLID_145_" class="st0" d="M-105.1,415h-2l-4.4,3.5l1.2,1.5c1.4-1.1,2.2-1.8,2.3-1.9l0.7-0.5c-0.1,0.5-0.2,1.4-0.2,2.8
				v9.8h2.4V415z"/>
		</g>
	</g>
</g>
<g id="XMLID_140_" transform="matrix( 1, 0, 0, 1, 213.55,-303.05) ">
	<g id="XMLID_141_">
		<g id="Layer0_0_MEMBER_1_MEMBER_1_MEMBER_3_FILL">
			<path id="XMLID_142_" class="st0" d="M-76.8,424.6c-0.2-0.5-0.6-1-1.1-1.4c-0.4-0.3-1.2-0.8-2.4-1.3l-2-1
				c-0.4-0.3-0.6-0.5-0.8-0.8c-0.1-0.4-0.2-0.7-0.2-1c0-0.6,0.2-1.1,0.6-1.4c0.5-0.3,1.1-0.5,1.8-0.5c1.2,0,2.4,0.3,3.6,0.8l0.8-2
				c-1.3-0.7-2.8-1-4.3-1s-2.7,0.4-3.6,1.1c-0.9,0.7-1.3,1.7-1.3,3c0,1.1,0.3,2,0.8,2.6c0.5,0.6,1.4,1.3,2.9,1.9
				c1.3,0.5,2.2,1,2.6,1.4c0.4,0.4,0.6,0.9,0.6,1.4c0,0.6-0.2,1.1-0.7,1.5c-0.5,0.4-1.2,0.6-2.2,0.6c-0.8,0-1.5-0.1-2.1-0.3
				c-0.1,0-0.9-0.3-2.2-0.8v2.3c1.2,0.5,2.6,0.8,4.2,0.8c1.7,0,3-0.4,4-1.1c1-0.8,1.5-1.9,1.5-3.3
				C-76.3,425.4-76.5,424.9-76.8,424.6z"/>
		</g>
	</g>
</g>
<g id="XMLID_135_" transform="matrix( 1, 0, 0, 1, 213.55,-303.05) ">
	<g id="XMLID_136_">
		<g id="Layer0_0_MEMBER_1_MEMBER_1_MEMBER_4_FILL">
			<path id="XMLID_137_" class="st0" d="M-66.8,419.9c-0.9-0.9-2.1-1.4-3.6-1.4c-1.7,0-2.9,0.5-3.8,1.6c-0.9,1.1-1.4,2.6-1.4,4.4
				c0,1.9,0.5,3.3,1.5,4.3c1,1.1,2.4,1.6,4.2,1.6l2.1-0.2c0.6-0.1,1.2-0.3,1.8-0.6v-2c-0.7,0.3-1.4,0.5-1.9,0.6
				c-0.8,0.1-1.4,0.2-1.9,0.2c-1,0-1.8-0.3-2.4-0.9c-0.6-0.6-0.9-1.5-0.9-2.6h7.6v-1.3C-65.6,422-66,420.8-66.8,419.9 M-70.3,420.4
				c0.9,0,1.5,0.2,1.8,0.7c0.5,0.4,0.7,1.1,0.7,2.1H-73c0.2-1,0.4-1.7,0.8-2.1C-71.8,420.6-71.2,420.4-70.3,420.4z"/>
		</g>
	</g>
</g>
<g id="XMLID_130_" transform="matrix( 1, 0, 0, 1, 213.55,-303.05) ">
	<g id="XMLID_131_">
		<g id="Layer0_0_MEMBER_1_MEMBER_1_MEMBER_5_FILL">
			<path id="XMLID_132_" class="st0" d="M-55.2,422.6c0-1.4-0.4-2.4-1.1-3c-0.7-0.7-1.8-1-3.3-1l-2.1,0.3c-0.6,0.1-1.2,0.3-2,0.7
				l0.8,1.7l1.6-0.6c0.6-0.2,1.2-0.3,1.7-0.3c0.8,0,1.4,0.2,1.6,0.5c0.3,0.3,0.5,0.9,0.5,1.6v0.6l-2,0.1c-1.8,0.1-3.2,0.4-4,1
				c-0.9,0.6-1.3,1.5-1.3,2.7c0,1.1,0.3,2,0.9,2.6c0.6,0.6,1.5,0.9,2.6,0.9c0.9,0,1.7-0.1,2.2-0.4c0.5-0.1,1.1-0.6,1.7-1.4h0.1
				l0.5,1.6l1.6,0.1V422.6 M-58.2,427.9c-0.5,0.5-1.2,0.7-2.1,0.7c-0.7,0-1.1-0.1-1.4-0.3c-0.3-0.3-0.5-0.7-0.5-1.2
				c0-0.8,0.3-1.3,0.8-1.6c0.5-0.4,1.3-0.6,2.5-0.6l1.5-0.1v1C-57.5,426.7-57.7,427.4-58.2,427.9z"/>
		</g>
	</g>
</g>
<g id="XMLID_127_" transform="matrix( 1, 0, 0, 1, 213.55,-303.05) ">
	<g id="XMLID_128_">
		<g id="Layer0_0_MEMBER_1_MEMBER_1_MEMBER_6_FILL">
			<path id="XMLID_129_" class="st0" d="M-46.4,424.4c-0.3-0.2-1-0.5-2.1-1c-1-0.4-1.8-0.7-2.2-1c-0.3-0.2-0.5-0.5-0.5-0.9
				c0-0.7,0.6-1.1,1.9-1.1c0.8,0,1.8,0.3,3.1,0.8l0.8-1.8c-1.3-0.5-2.5-0.8-3.8-0.8c-1.3,0-2.3,0.3-3.2,0.8
				c-0.8,0.6-1.2,1.4-1.2,2.3c0,0.9,0.2,1.5,0.7,2c0.5,0.5,1.4,1,2.7,1.5l1.6,0.7c0.3,0.1,0.5,0.3,0.8,0.6c0.1,0.3,0.2,0.5,0.2,0.7
				c0,0.9-0.7,1.4-2.2,1.4c-1.2,0-2.5-0.3-3.8-0.9v2.1c1,0.5,2.2,0.8,3.7,0.8c1.5,0,2.7-0.3,3.5-0.9c0.8-0.6,1.2-1.5,1.2-2.6
				c0-0.4,0-0.7,0-0.9c0-0.4-0.1-0.6-0.2-0.8C-45.7,424.9-46.1,424.6-46.4,424.4z"/>
		</g>
	</g>
</g>
<g id="XMLID_122_" transform="matrix( 1, 0, 0, 1, 213.55,-303.05) ">
	<g id="XMLID_123_">
		<g id="Layer0_0_MEMBER_1_MEMBER_1_MEMBER_7_FILL">
			<path id="XMLID_124_" class="st0" d="M-33.6,424.5c0-1.6-0.5-3-1.5-4.3c-0.9-1.1-2.2-1.6-3.9-1.6c-1.6,0-2.9,0.5-4,1.6
				c-0.9,1-1.4,2.5-1.4,4.3c0,1,0.2,2.1,0.7,3.1c0.4,0.8,1,1.5,1.9,2.1c0.8,0.5,1.7,0.8,2.8,0.8c1.6,0,2.9-0.5,4-1.6
				C-34.1,427.7-33.6,426.2-33.6,424.5 M-41.4,421.5c0.3-0.7,1.1-1,2.2-1c2,0,3,1.3,3,3.9c0,2.7-1,4-3,4c-1.9,0-2.9-1.3-2.9-4
				C-42.1,423.4-41.9,422.3-41.4,421.5z"/>
		</g>
	</g>
</g>
<g id="XMLID_119_" transform="matrix( 1, 0, 0, 1, 213.55,-303.05) ">
	<g id="XMLID_120_">
		<g id="Layer0_0_MEMBER_1_MEMBER_1_MEMBER_8_FILL">
			<path id="XMLID_121_" class="st0" d="M-29.8,420.3L-29.8,420.3l-0.4-1.5h-1.9v11.5h2.4v-5.7c0-1.5,0.2-2.5,0.7-3.1
				c0.5-0.6,1.3-0.9,2.3-0.9c0.6,0,1.2,0.2,1.7,0.7c0.3,0.6,0.5,1.2,0.5,2v7h2.4v-7.4c0-2.8-1.4-4.2-4.1-4.2c-0.9,0-1.6,0.1-2.1,0.4
				C-28.9,419.3-29.4,419.7-29.8,420.3z"/>
		</g>
	</g>
</g>
<g id="XMLID_116_" transform="matrix( 1, 0, 0, 1, 213.55,-303.05) ">
	<g id="XMLID_117_">
		<g id="Layer0_0_MEMBER_1_MEMBER_2_MEMBER_0_FILL">
			<path id="XMLID_118_" class="st0" d="M-133.2,394.9c-1.5,1.4-2.2,3.4-2.2,6c0,2.6,0.7,4.7,2,6.1c1.3,1.4,3.2,2.1,5.7,2.1
				c2.2,0,4.3-0.3,6.2-1v-8.6h-6.9v3.3h2.9v2.5c-0.8,0.1-1.4,0.2-1.8,0.2c-1.2,0-2.1-0.4-2.7-1.2c-0.6-0.8-0.9-1.9-0.9-3.4
				c0-1.6,0.3-2.7,1-3.5s1.7-1.2,2.9-1.2c1.3,0,2.6,0.3,3.8,0.9l1.4-3.4c-0.5-0.2-1.2-0.5-2.3-0.7c-0.9-0.2-1.9-0.3-2.9-0.3
				C-129.6,392.7-131.6,393.4-133.2,394.9z"/>
		</g>
	</g>
</g>
<g id="XMLID_111_" transform="matrix( 1, 0, 0, 1, 213.55,-303.05) ">
	<g id="XMLID_112_">
		<g id="Layer0_0_MEMBER_1_MEMBER_2_MEMBER_1_FILL">
			<path id="XMLID_113_" class="st0" d="M-113.8,392.9h-5.6V409h5.2c2.5,0,4.6-0.7,6.2-2.2c1.5-1.5,2.2-3.5,2.2-6.3
				c0-2.3-0.7-4.1-2-5.5C-109.3,393.6-111.3,392.9-113.8,392.9 M-115.1,396.3h1.3c1.1,0,2,0.4,2.6,1.1c0.6,0.7,0.9,1.8,0.9,3.3
				c0,1.6-0.3,2.7-1,3.5c-0.6,0.7-1.5,1.1-2.8,1.1h-1V396.3z"/>
		</g>
	</g>
</g>
<g id="XMLID_108_" transform="matrix( 1, 0, 0, 1, 213.55,-303.05) ">
	<g id="XMLID_109_">
		<g id="Layer0_0_MEMBER_1_MEMBER_2_MEMBER_2_FILL">
			<path id="XMLID_110_" class="st0" d="M-99.2,397.4c0.7-0.8,1.6-1.2,2.8-1.2c1.4,0,2.7,0.3,3.8,0.9l1.4-3.4
				c-0.5-0.2-1.3-0.5-2.3-0.7c-0.9-0.2-1.9-0.3-3-0.3c-2.5,0-4.6,0.7-6.1,2.2c-1.5,1.4-2.2,3.4-2.2,6c0,2.6,0.7,4.7,2,6.1
				c1.3,1.4,3.2,2.1,5.7,2.1c2.2,0,4.2-0.3,6.2-1v-8.6h-6.9v3.3h2.9v2.5c-0.8,0.1-1.4,0.2-1.8,0.2c-1.2,0-2.1-0.4-2.7-1.2
				c-0.6-0.8-0.8-2-0.8-3.4C-100.2,399.3-99.9,398.1-99.2,397.4z"/>
		</g>
	</g>
</g>
<g id="XMLID_105_" transform="matrix( 1, 0, 0, 1, 213.55,-303.05) ">
	<g id="XMLID_106_">
		<g id="Layer0_0_MEMBER_1_MEMBER_3_FILL">
			
				<radialGradient id="XMLID_270_" cx="-398.3319" cy="-572.6099" r="10.0454" gradientTransform="matrix(1 0 0 1 231.9 1004.8)" gradientUnits="userSpaceOnUse">
				<stop  offset="0" style="stop-color:#CCCCCC"/>
				<stop  offset="1" style="stop-color:#C0C0C0"/>
			</radialGradient>
			<path id="XMLID_107_" class="st5" d="M-158.4,426.7l-3.4-5.6l-13.5,22.4h6.9c0.8,0,1.6-0.3,2.5-0.8c0.9-0.5,1.5-1.1,1.8-1.8
				l5.7-9.5c0.4-0.7,0.5-1.5,0.5-2.4C-157.8,428.1-158,427.3-158.4,426.7z"/>
		</g>
	</g>
</g>
<g id="XMLID_102_" transform="matrix( 1, 0, 0, 1, 213.55,-303.05) ">
	<g id="XMLID_103_">
		<g id="Layer0_0_MEMBER_1_MEMBER_4_FILL">
			
				<radialGradient id="XMLID_271_" cx="-398.3592" cy="-572.6832" r="13.8375" gradientTransform="matrix(1 0 0 1 225.9 999.7)" gradientUnits="userSpaceOnUse">
				<stop  offset="0" style="stop-color:#A0A0A0"/>
				<stop  offset="1" style="stop-color:#7B7B7B"/>
			</radialGradient>
			<path id="XMLID_104_" class="st6" d="M-167.2,413.3c0,1-0.2,1.9-0.6,2.5l-15.3,25.3c-0.3,0.6-0.3,1.1,0,1.5
				c0.3,0.4,0.8,0.7,1.5,0.7h6.3l13.5-22.4l-6-10.2C-167.5,411.5-167.2,412.3-167.2,413.3z"/>
		</g>
	</g>
</g>
<g id="XMLID_99_" transform="matrix( 1, 0, 0, 1, 213.55,-303.05) ">
	<g id="XMLID_100_">
		<g id="Layer0_0_MEMBER_1_MEMBER_5_FILL">
			
				<radialGradient id="XMLID_272_" cx="-398.361" cy="-572.7227" r="20.3132" gradientTransform="matrix(1 0 0 1 230.55 979.95)" gradientUnits="userSpaceOnUse">
				<stop  offset="0" style="stop-color:#848484"/>
				<stop  offset="1" style="stop-color:#838383"/>
			</radialGradient>
			<path id="XMLID_101_" class="st7" d="M-175.3,383.2h-6.3c-0.8,0-1.4,0.3-1.7,0.8c-0.3,0.5-0.2,1.1,0.3,1.8l24.6,40.9
				c0.4,0.6,0.6,1.4,0.6,2.3c0,0.9-0.1,1.7-0.5,2.4l6-9.9L-175.3,383.2z"/>
		</g>
	</g>
</g>
<g id="XMLID_96_" transform="matrix( 1, 0, 0, 1, 213.55,-303.05) ">
	<g id="XMLID_97_">
		<g id="Layer0_0_MEMBER_1_MEMBER_6_FILL">
			
				<radialGradient id="XMLID_273_" cx="-398.3106" cy="-572.7452" r="16.5498" gradientTransform="matrix(1 0 0 1 236.6 975.0001)" gradientUnits="userSpaceOnUse">
				<stop  offset="0" style="stop-color:#626262"/>
				<stop  offset="1" style="stop-color:#474747"/>
			</radialGradient>
			<path id="XMLID_98_" class="st8" d="M-165.9,384c-0.8-0.5-1.6-0.8-2.4-0.8h-6.9l23,38.2l3.3-5.5c0.4-0.7,0.6-1.5,0.6-2.5
				c0-1-0.2-1.8-0.6-2.5l-15.1-25.1C-164.4,385-165,384.4-165.9,384z"/>
		</g>
	</g>
</g>
<g id="XMLID_91_" transform="matrix( 1, 0, 0, 1, 213.55,-303.05) ">
	<g id="XMLID_92_">
		<g id="Layer0_0_MEMBER_2_MEMBER_0_MEMBER_0_FILL">
			<path id="XMLID_93_" class="st9" d="M-69.6,457.9c-1.4-1.3-3.4-2-5.9-2H-81V472h5.1c2.6,0,4.7-0.7,6.2-2.2
				c1.5-1.5,2.2-3.5,2.2-6.2C-67.6,461-68.3,459.1-69.6,457.9 M-76.9,459.2h1.3c1.1,0,2,0.4,2.6,1.1c0.6,0.7,0.9,1.8,0.9,3.3
				c0,1.6-0.3,2.8-0.9,3.5c-0.6,0.7-1.6,1.1-2.9,1.1h-1L-76.9,459.2L-76.9,459.2z"/>
		</g>
	</g>
</g>
<g id="XMLID_86_" transform="matrix( 1, 0, 0, 1, 213.55,-303.05) ">
	<g id="XMLID_87_">
		<g id="Layer0_0_MEMBER_2_MEMBER_0_MEMBER_1_FILL">
			<path id="XMLID_88_" class="st9" d="M-56.4,460.5c-1-1-2.4-1.5-4.3-1.5c-1.9,0-3.4,0.6-4.5,1.7c-1,1.1-1.5,2.7-1.5,4.8
				c0,2.1,0.5,3.7,1.6,4.7c1.3,1.2,3,1.8,4.9,1.8c1.2,0,2-0.1,2.5-0.3c0.5-0.1,1.2-0.3,2.1-0.7V468c-0.9,0.4-1.6,0.6-2,0.7
				c-0.9,0.1-1.6,0.2-2.1,0.2c-0.8,0-1.4-0.2-1.9-0.6c-0.5-0.4-0.8-1-0.8-1.6h7.6v-1.9C-54.9,463-55.4,461.5-56.4,460.5
				 M-59.3,462.7c0.3,0.3,0.5,0.8,0.5,1.4h-3.7c0.1-0.7,0.3-1.2,0.6-1.5c0.4-0.3,0.9-0.5,1.3-0.5C-60.1,462.1-59.6,462.3-59.3,462.7
				z"/>
		</g>
	</g>
</g>
<g id="XMLID_83_" transform="matrix( 1, 0, 0, 1, 213.55,-303.05) ">
	<g id="XMLID_84_">
		<g id="Layer0_0_MEMBER_2_MEMBER_0_MEMBER_2_FILL">
			<path id="XMLID_85_" class="st9" d="M-41.7,459.4h-4.4l-2.2,7.4c-0.1,0.5-0.2,0.9-0.2,1.2h-0.1v-0.5c-0.1-0.1-0.1-0.3-0.1-0.4
				v-0.3v-0.2l-2.1-7.3h-4.4l4.6,12.5h4.2L-41.7,459.4z"/>
		</g>
	</g>
</g>
<g id="XMLID_80_" transform="matrix( 1, 0, 0, 1, 213.55,-303.05) ">
	<g id="XMLID_81_">
		<g id="Layer0_0_MEMBER_2_MEMBER_0_MEMBER_3_FILL">
			<path id="XMLID_82_" class="st9" d="M-36.9,459.3h5.2v-3.5h-9.4v16.1h4.1l0.1-5.9h4.8v-3.5h-4.8L-36.9,459.3L-36.9,459.3z"/>
		</g>
	</g>
</g>
<g id="XMLID_75_" transform="matrix( 1, 0, 0, 1, 213.55,-303.05) ">
	<g id="XMLID_76_">
		<g id="Layer0_0_MEMBER_2_MEMBER_0_MEMBER_4_FILL">
			<path id="XMLID_77_" class="st9" d="M-20.9,460.5c-1-1-2.4-1.5-4.3-1.5c-1.9,0-3.4,0.6-4.5,1.7c-1.1,1.1-1.6,2.7-1.6,4.8
				c0,2.1,0.6,3.7,1.7,4.7c1.3,1.2,2.9,1.8,4.8,1.8c1.2,0,2-0.1,2.5-0.3c0.5-0.1,1.2-0.3,2.1-0.7V468c-1,0.4-1.6,0.6-2,0.7
				c-0.9,0.1-1.6,0.2-2.1,0.2c-0.8,0-1.4-0.2-1.9-0.6c-0.5-0.4-0.8-1-0.8-1.6h7.6v-1.9C-19.4,463-19.9,461.5-20.9,460.5
				 M-23.8,462.7c0.3,0.3,0.5,0.8,0.5,1.4H-27c0.1-0.7,0.3-1.2,0.6-1.5c0.4-0.3,0.8-0.5,1.3-0.5C-24.5,462.1-24.1,462.3-23.8,462.7z
				"/>
		</g>
	</g>
</g>
<g id="XMLID_72_" transform="matrix( 1, 0, 0, 1, 213.55,-303.05) ">
	<g id="XMLID_73_">
		<g id="Layer0_0_MEMBER_2_MEMBER_0_MEMBER_5_FILL">
			<path id="XMLID_74_" class="st9" d="M-11.1,459.5c-0.7-0.2-1.5-0.3-2.3-0.3c-1.5,0-2.8,0.3-3.8,1c-0.9,0.6-1.3,1.5-1.3,2.7
				c0,0.8,0.2,1.6,0.7,2.3c0.5,0.5,1.3,1.1,2.4,1.6c1.2,0.5,2,0.9,2.2,1c0.3,0.2,0.4,0.4,0.4,0.6c0,0.4-0.5,0.6-1.4,0.6
				c-0.6,0-1.3-0.1-2.1-0.3c-0.5-0.1-1.3-0.4-2.2-0.7v3.4c0.6,0.2,1.3,0.4,2.1,0.5c0.5,0.1,1.3,0.1,2.4,0.1c1.7,0,3-0.3,3.9-1
				s1.4-1.7,1.4-3c0-0.8-0.1-1.4-0.4-1.8c-0.2-0.5-0.5-0.9-0.9-1.2c-0.3-0.3-0.9-0.7-1.9-1.1c-0.6-0.2-1.3-0.5-2.1-0.9
				c-0.3-0.1-0.4-0.3-0.4-0.5c0-0.3,0.3-0.5,1-0.5c0.4,0,0.9,0.1,1.5,0.3c0.8,0.3,1.4,0.5,1.8,0.7l1.2-2.8
				C-9.3,460-10,459.8-11.1,459.5z"/>
		</g>
	</g>
</g>
<g id="XMLID_69_" transform="matrix( 1, 0, 0, 1, 213.55,-303.05) ">
	<g id="XMLID_70_">
		<g id="Layer0_0_MEMBER_2_MEMBER_0_MEMBER_6_FILL">
			<path id="XMLID_71_" class="st9" d="M0.4,459.5h-3V457h-2.8l-1.1,2.6l-1.9,1.3v1.7h1.5v5.1c0,1.4,0.3,2.5,0.9,3.3
				c0.6,0.7,1.7,1.1,3.1,1.1c0.5,0,1.1-0.1,1.8-0.2c0.2,0,0.7-0.2,1.6-0.5v-3.1c-0.7,0.3-1.4,0.4-2.1,0.4c-0.8,0-1.2-0.4-1-1.2v-4.8
				h3V459.5z"/>
		</g>
	</g>
</g>
<g id="XMLID_66_" transform="matrix( 1, 0, 0, 1, 213.55,-303.05) ">
	<g id="XMLID_67_">
		<g id="Layer0_0_MEMBER_2_MEMBER_1_MEMBER_0_FILL">
			<path id="XMLID_68_" class="st9" d="M-130.6,480.5c0.7-0.2,1.2-0.3,1.7-0.3c0.7,0,1.3,0.2,1.7,0.6c0.4,0.4,0.6,0.9,0.6,1.6
				c0,0.5-0.1,1-0.3,1.4c-0.1,0.4-0.4,0.9-0.8,1.4l-6.2,6.4v1.9h10.3l0.1-2.2h-7.2v-0.1l2.6-2.5c1.4-1.3,2.2-2.2,2.5-2.6
				c0.6-0.9,1-1.5,1.2-1.9c0.2-0.6,0.3-1.2,0.3-1.9c0-1.2-0.4-2.2-1.3-3c-0.9-0.7-2-1.1-3.3-1.1c-1,0-1.8,0.1-2.5,0.4
				c-0.9,0.3-1.7,0.8-2.5,1.5l1.3,1.6C-131.9,481.2-131.2,480.8-130.6,480.5z"/>
		</g>
	</g>
</g>
<g id="XMLID_61_" transform="matrix( 1, 0, 0, 1, 213.55,-303.05) ">
	<g id="XMLID_62_">
		<g id="Layer0_0_MEMBER_2_MEMBER_1_MEMBER_1_FILL">
			<path id="XMLID_63_" class="st9" d="M-113.9,480.1c-0.8-1.3-2.1-2-3.8-2c-1.8,0-3.1,0.6-3.9,1.9c-0.9,1.3-1.3,3.2-1.3,5.9
				c0,2.6,0.4,4.5,1.3,5.8c0.8,1.3,2.1,2,3.8,2c1.8,0,3.1-0.6,3.9-1.9c0.9-1.3,1.3-3.2,1.3-5.9C-112.6,483.4-113,481.5-113.9,480.1
				 M-115.8,481.5c0.4,0.9,0.6,2.4,0.6,4.4s-0.2,3.5-0.6,4.4c-0.4,0.9-1.1,1.3-2,1.3c-0.9,0-1.6-0.4-2-1.3c-0.4-0.9-0.6-2.4-0.6-4.4
				s0.2-3.5,0.6-4.5c0.4-0.8,1-1.3,2-1.3C-116.8,480.1-116.2,480.6-115.8,481.5z"/>
		</g>
	</g>
</g>
<g id="XMLID_58_" transform="matrix( 1, 0, 0, 1, 213.55,-303.05) ">
	<g id="XMLID_59_">
		<g id="Layer0_0_MEMBER_2_MEMBER_1_MEMBER_2_FILL">
			<path id="XMLID_60_" class="st9" d="M-110,483.3l2.9-2.4c-0.1,0.5-0.1,1.4-0.1,2.8v9.8h2.4v-15.3h-2l-4.4,3.5L-110,483.3z"/>
		</g>
	</g>
</g>
<g id="XMLID_55_" transform="matrix( 1, 0, 0, 1, 213.55,-303.05) ">
	<g id="XMLID_56_">
		<g id="Layer0_0_MEMBER_2_MEMBER_1_MEMBER_3_FILL">
			<path id="XMLID_57_" class="st9" d="M-83,483.3c-0.1-0.4-0.2-0.7-0.2-1c0-0.6,0.2-1.1,0.6-1.4c0.5-0.3,1.1-0.5,1.8-0.5
				c1.2,0,2.4,0.3,3.6,0.8l0.8-2c-1.3-0.7-2.8-1-4.3-1s-2.7,0.4-3.6,1.1c-0.9,0.7-1.3,1.7-1.3,3c0,1.1,0.3,2,0.8,2.6
				c0.5,0.6,1.4,1.3,2.9,1.9c1.3,0.5,2.2,1,2.6,1.4c0.4,0.4,0.6,0.9,0.6,1.4c0,0.6-0.2,1.1-0.7,1.5c-0.5,0.4-1.2,0.6-2.2,0.6
				c-0.8,0-1.5-0.1-2.2-0.3c-0.3-0.1-1-0.3-2.1-0.8v2.3c1.1,0.5,2.5,0.8,4.1,0.8c1.7,0,3-0.4,4-1.1c1-0.8,1.5-1.9,1.5-3.3
				c0-0.8-0.1-1.3-0.4-1.6c-0.2-0.5-0.6-1-1.1-1.4c-0.4-0.3-1.2-0.8-2.4-1.3l-2-1C-82.7,483.7-82.9,483.4-83,483.3z"/>
		</g>
	</g>
</g>
<g id="XMLID_50_" transform="matrix( 1, 0, 0, 1, 213.55,-303.05) ">
	<g id="XMLID_51_">
		<g id="Layer0_0_MEMBER_2_MEMBER_1_MEMBER_4_FILL">
			<path id="XMLID_52_" class="st9" d="M-66.6,483.2c-0.9-0.9-2.1-1.4-3.6-1.4c-1.7,0-2.9,0.5-3.8,1.6c-0.9,1.1-1.4,2.6-1.4,4.4
				c0,1.9,0.5,3.3,1.5,4.3c1,1.1,2.4,1.6,4.2,1.6l2.2-0.2c0.6-0.1,1.2-0.3,1.8-0.6v-2c-0.7,0.3-1.4,0.5-1.9,0.6
				c-0.8,0.1-1.4,0.2-1.9,0.2c-1,0-1.8-0.3-2.4-0.9c-0.6-0.6-0.9-1.5-0.9-2.6h7.6v-1.3C-65.3,485.3-65.8,484.1-66.6,483.2
				 M-68.5,484.4c0.5,0.4,0.7,1.1,0.7,2.1H-73c0.2-1,0.4-1.7,0.8-2.1c0.5-0.5,1.1-0.7,1.9-0.7C-69.7,483.7-69.1,483.9-68.5,484.4z"
				/>
		</g>
	</g>
</g>
<g id="XMLID_45_" transform="matrix( 1, 0, 0, 1, 213.55,-303.05) ">
	<g id="XMLID_46_">
		<g id="Layer0_0_MEMBER_2_MEMBER_1_MEMBER_5_FILL">
			<path id="XMLID_47_" class="st9" d="M-63.6,482.9l0.8,1.7l1.6-0.6c0.6-0.2,1.2-0.3,1.7-0.3c0.8,0,1.4,0.2,1.6,0.5
				c0.3,0.3,0.5,0.9,0.5,1.6v0.6l-2,0.1c-1.8,0.1-3.2,0.4-4,1c-0.9,0.6-1.3,1.5-1.3,2.7c0,1.1,0.3,2,0.9,2.6
				c0.6,0.6,1.5,0.9,2.6,0.9c0.9,0,1.7-0.1,2.2-0.4c0.5-0.1,1.1-0.6,1.7-1.4h0.1l0.5,1.6l1.7,0.1v-7.7c0-1.4-0.4-2.4-1.1-3
				c-0.7-0.7-1.8-1-3.3-1l-2.1,0.3C-62.1,482.2-62.8,482.5-63.6,482.9 M-58.1,491.2c-0.5,0.5-1.2,0.7-2.1,0.7c-0.6,0-1-0.1-1.4-0.3
				c-0.3-0.3-0.5-0.7-0.5-1.2c0-0.8,0.3-1.3,0.9-1.6c0.5-0.4,1.3-0.6,2.5-0.6l1.5-0.1v1C-57.2,489.9-57.5,490.6-58.1,491.2z"/>
		</g>
	</g>
</g>
<g id="XMLID_42_" transform="matrix( 1, 0, 0, 1, 213.55,-303.05) ">
	<g id="XMLID_43_">
		<g id="Layer0_0_MEMBER_2_MEMBER_1_MEMBER_6_FILL">
			<path id="XMLID_44_" class="st9" d="M-48.4,486.6c-1-0.4-1.8-0.7-2.2-1c-0.3-0.2-0.5-0.5-0.5-0.9c0-0.7,0.6-1.1,1.9-1.1
				c0.8,0,1.8,0.3,3.1,0.8l0.8-1.8c-1.3-0.5-2.5-0.8-3.8-0.8c-1.3,0-2.3,0.3-3.2,0.8c-0.8,0.6-1.2,1.4-1.2,2.3c0,0.9,0.2,1.5,0.7,2
				c0.5,0.5,1.4,1,2.7,1.5l1.6,0.7c0.3,0.1,0.5,0.3,0.8,0.6c0.1,0.3,0.2,0.5,0.2,0.7c0,0.9-0.7,1.4-2.2,1.4c-1.2,0-2.5-0.3-3.8-0.9
				v2.1c1,0.5,2.2,0.8,3.7,0.8c1.5,0,2.7-0.3,3.5-0.9c0.8-0.6,1.1-1.5,1.1-2.6c0-0.4,0.1-0.6,0.1-0.8c0-0.3-0.1-0.6-0.2-0.8
				c-0.6-0.7-0.9-1-1-1.1C-46.5,487.4-47.2,487.1-48.4,486.6z"/>
		</g>
	</g>
</g>
<g id="XMLID_37_" transform="matrix( 1, 0, 0, 1, 213.55,-303.05) ">
	<g id="XMLID_38_">
		<g id="Layer0_0_MEMBER_2_MEMBER_1_MEMBER_7_FILL">
			<path id="XMLID_39_" class="st9" d="M-35,483.5c-0.9-1.1-2.2-1.6-3.9-1.6c-1.6,0-2.9,0.5-4,1.6c-0.9,1-1.4,2.5-1.4,4.3
				c0,1,0.2,2.1,0.7,3.1c0.4,0.8,1,1.5,1.9,2.1c0.8,0.5,1.7,0.8,2.8,0.8c1.6,0,2.9-0.5,4-1.6c0.9-1.2,1.4-2.7,1.4-4.4
				C-33.5,486.1-34,484.7-35,483.5 M-41.2,484.8c0.4-0.7,1.1-1,2.2-1c1.9,0,2.9,1.3,2.9,3.9c0,2.7-1,4-2.9,4c-1.9,0-2.9-1.3-2.9-4
				C-41.9,486.3-41.6,485.4-41.2,484.8z"/>
		</g>
	</g>
</g>
<g id="XMLID_34_" transform="matrix( 1, 0, 0, 1, 213.55,-303.05) ">
	<g id="XMLID_35_">
		<g id="Layer0_0_MEMBER_2_MEMBER_1_MEMBER_8_FILL">
			<path id="XMLID_36_" class="st9" d="M-21.9,486.1c0-2.8-1.4-4.2-4.1-4.2c-0.9,0-1.6,0.1-2.1,0.4c-0.6,0.3-1.1,0.7-1.5,1.3h-0.1
				l-0.3-1.5h-1.9v11.5h2.4v-5.7c0-1.5,0.2-2.5,0.7-3.1c0.5-0.6,1.3-0.9,2.3-0.9c0.6,0,1.2,0.2,1.7,0.7c0.3,0.6,0.5,1.2,0.5,2v7h2.5
				L-21.9,486.1z"/>
		</g>
	</g>
</g>
<g id="XMLID_31_" transform="matrix( 1, 0, 0, 1, 213.55,-303.05) ">
	<g id="XMLID_32_">
		<g id="Layer0_0_MEMBER_2_MEMBER_2_MEMBER_0_FILL">
			<path id="XMLID_33_" class="st9" d="M-129.7,460.7c0.7-0.8,1.6-1.2,2.8-1.2c1.4,0,2.7,0.3,3.8,0.9l1.4-3.4
				c-0.5-0.2-1.2-0.5-2.3-0.7c-0.9-0.2-1.9-0.3-2.9-0.3c-2.6,0-4.6,0.7-6.2,2.2c-1.4,1.3-2.1,3.3-2.1,6c0,2.7,0.7,4.7,2,6.1
				c1.3,1.4,3.2,2.1,5.6,2.1c2.2,0,4.3-0.3,6.2-1v-8.6h-6.8v3.3h2.8v2.5c-0.8,0.1-1.4,0.2-1.8,0.2c-1.2,0-2.1-0.4-2.7-1.2
				c-0.6-0.8-0.8-2-0.8-3.4C-130.7,462.6-130.4,461.4-129.7,460.7z"/>
		</g>
	</g>
</g>
<g id="XMLID_26_" transform="matrix( 1, 0, 0, 1, 213.55,-303.05) ">
	<g id="XMLID_27_">
		<g id="Layer0_0_MEMBER_2_MEMBER_2_MEMBER_1_FILL">
			<path id="XMLID_28_" class="st9" d="M-107.6,458.2c-1.4-1.3-3.4-2-6-2h-5.6v16.1h5.2c2.5,0,4.6-0.7,6.2-2.2
				c1.5-1.5,2.2-3.5,2.2-6.3C-105.6,461.4-106.3,459.5-107.6,458.2 M-115,459.6h1.4c1.1,0,2,0.4,2.6,1.1c0.6,0.7,0.9,1.8,0.9,3.3
				s-0.3,2.7-1,3.5c-0.6,0.7-1.5,1.1-2.9,1.1h-1V459.6z"/>
		</g>
	</g>
</g>
<g id="XMLID_23_" transform="matrix( 1, 0, 0, 1, 213.55,-303.05) ">
	<g id="XMLID_24_">
		<g id="Layer0_0_MEMBER_2_MEMBER_2_MEMBER_2_FILL">
			<path id="XMLID_25_" class="st9" d="M-92.4,460.4l1.5-3.4c-0.5-0.2-1.3-0.5-2.4-0.7c-0.9-0.2-1.9-0.3-2.9-0.3
				c-2.6,0-4.6,0.7-6.2,2.2c-1.4,1.3-2.1,3.3-2.1,6c0,2.7,0.7,4.7,2,6.1c1.3,1.4,3.2,2.1,5.7,2.1c2.2,0,4.3-0.3,6.2-1v-8.6h-6.9v3.3
				h2.9v2.5c-0.8,0.1-1.4,0.2-1.8,0.2c-1.2,0-2.1-0.4-2.7-1.2c-0.6-0.8-0.8-2-0.8-3.4c0-1.6,0.3-2.7,1-3.5c0.7-0.8,1.6-1.2,2.8-1.2
				C-94.8,459.5-93.5,459.8-92.4,460.4z"/>
		</g>
	</g>
</g>
<g id="XMLID_20_" transform="matrix( 1, 0, 0, 1, 213.55,-303.05) ">
	<g id="XMLID_21_">
		<g id="Layer0_0_MEMBER_2_MEMBER_3_FILL">
			
				<radialGradient id="XMLID_274_" cx="-398.3313" cy="-572.324" r="10.052" gradientTransform="matrix(1 0 0 1 232.05 1067.8)" gradientUnits="userSpaceOnUse">
				<stop  offset="0" style="stop-color:#FECE5B"/>
				<stop  offset="1" style="stop-color:#F3C146"/>
			</radialGradient>
			<path id="XMLID_22_" class="st10" d="M-158.2,490l-3.4-5.6l-13.5,22.4h6.8c0.8,0,1.7-0.3,2.5-0.8c0.9-0.5,1.5-1.1,1.9-1.8
				l5.7-9.5c0.4-0.7,0.5-1.5,0.5-2.4C-157.6,491.4-157.8,490.6-158.2,490z"/>
		</g>
	</g>
</g>
<g id="XMLID_17_" transform="matrix( 1, 0, 0, 1, 213.55,-303.05) ">
	<g id="XMLID_18_">
		<g id="Layer0_0_MEMBER_2_MEMBER_4_FILL">
			
				<radialGradient id="XMLID_275_" cx="-398.3585" cy="-572.3973" r="13.8375" gradientTransform="matrix(1 0 0 1 226.05 1062.7)" gradientUnits="userSpaceOnUse">
				<stop  offset="0" style="stop-color:#1CA863"/>
				<stop  offset="1" style="stop-color:#17904E"/>
			</radialGradient>
			<path id="XMLID_19_" class="st11" d="M-181.4,506.6h6.3l13.5-22.4l-6.1-10.2c0.4,0.7,0.6,1.6,0.6,2.5c0,1-0.2,1.9-0.7,2.5
				l-15.2,25.3c-0.3,0.6-0.3,1.1,0,1.5C-182.6,506.4-182.1,506.6-181.4,506.6z"/>
		</g>
	</g>
</g>
<g id="XMLID_14_" transform="matrix( 1, 0, 0, 1, 213.55,-303.05) ">
	<g id="XMLID_15_">
		<g id="Layer0_0_MEMBER_2_MEMBER_5_FILL">
			
				<radialGradient id="XMLID_276_" cx="-398.3717" cy="-572.4367" r="20.305" gradientTransform="matrix(1 0 0 1 230.75 1042.95)" gradientUnits="userSpaceOnUse">
				<stop  offset="0" style="stop-color:#5880BE"/>
				<stop  offset="1" style="stop-color:#5780BE"/>
			</radialGradient>
			<path id="XMLID_16_" class="st12" d="M-175.1,446.5h-6.3c-0.8,0-1.4,0.3-1.7,0.8c-0.3,0.5-0.2,1.1,0.3,1.8l24.6,40.9
				c0.4,0.6,0.6,1.4,0.7,2.3c0,0.9-0.1,1.7-0.5,2.4l6-9.9L-175.1,446.5z"/>
		</g>
	</g>
</g>
<g id="XMLID_11_" transform="matrix( 1, 0, 0, 1, 213.55,-303.05) ">
	<g id="XMLID_12_">
		<g id="Layer0_0_MEMBER_2_MEMBER_6_FILL">
			
				<radialGradient id="XMLID_277_" cx="-398.3099" cy="-572.4592" r="16.5498" gradientTransform="matrix(1 0 0 1 236.75 1038)" gradientUnits="userSpaceOnUse">
				<stop  offset="0" style="stop-color:#DF4D45"/>
				<stop  offset="1" style="stop-color:#CB3A33"/>
			</radialGradient>
			<path id="XMLID_13_" class="st13" d="M-165.7,447.3c-0.9-0.5-1.7-0.8-2.5-0.8h-6.8l23,38.2l3.3-5.5c0.4-0.7,0.6-1.5,0.6-2.5
				s-0.2-1.8-0.6-2.5l-15.1-25.1C-164.2,448.3-164.8,447.7-165.7,447.3z"/>
		</g>
	</g>
</g>
<g id="XMLID_8_" transform="matrix( 1, 0, 0, 1, 81.7,30.55) ">
	<g id="XMLID_9_">
		<text id="XMLID_10_" transform="matrix(1 0 0 1 29.0557 33.396)" class="st0 st14 st15">6</text>
	</g>
</g>
<g id="XMLID_5_" transform="matrix( 1, 0, 0, 1, 81.7,93.5) ">
	<g id="XMLID_6_">
		<text id="XMLID_7_" transform="matrix(1 0 0 1 29.0557 33.6818)" class="st0 st14 st15">6</text>
	</g>
</g>
<g id="XMLID_2_" transform="matrix( 1, 0, 0, 1, 81.7,156.5) ">
	<g id="XMLID_3_">
		<text id="XMLID_4_" transform="matrix(1 0 0 1 29.0557 33.9675)" class="st9 st14 st15">6</text>
	</g>
</g>
</svg>
