<?xml version="1.0" encoding="utf-8"?>
<!-- Generator: Adobe Illustrator 19.0.0, SVG Export Plug-In . SVG Version: 6.00 Build 0)  -->
<svg version="1.1" xmlns="http://www.w3.org/2000/svg" xmlns:xlink="http://www.w3.org/1999/xlink" x="0px" y="0px"
	 viewBox="-213 303 185 188" style="enable-background:new -213 303 185 188;" xml:space="preserve">
<style type="text/css">
	.st0{fill:#4E4E4E;}
	.st1{fill:url(#SVGID_1_);}
	.st2{fill:url(#SVGID_2_);}
	.st3{fill:url(#SVGID_3_);}
	.st4{fill:url(#SVGID_4_);}
	.st5{fill:url(#SVGID_5_);}
	.st6{fill:url(#SVGID_6_);}
	.st7{fill:url(#SVGID_7_);}
	.st8{fill:url(#SVGID_8_);}
	.st9{fill:#E6E6E5;}
	.st10{fill:url(#SVGID_9_);}
	.st11{fill:url(#SVGID_10_);}
	.st12{fill:url(#SVGID_11_);}
	.st13{fill:url(#SVGID_12_);}
	.st14{font-family:'MyriadPro-Semibold';}
	.st15{font-size:23.0694px;}
</style>
<g id="Layer_1">
	<g>
		<g>
			<path class="st0" d="M-97.1,321c0,2.7-0.7,4.7-2.2,6.2c-1.5,1.4-3.5,2.2-6.2,2.2h-5.1v-16h5.5c2.6,0,4.5,0.7,5.9,2
				C-97.8,316.6-97.1,318.5-97.1,321z M-101.6,321.1c0-1.5-0.3-2.6-0.9-3.3c-0.6-0.7-1.5-1.1-2.6-1.1h-1.3v9h1
				c1.3,0,2.3-0.4,2.9-1.1S-101.6,322.7-101.6,321.1z"/>
			<path class="st0" d="M-89.9,329.5c-2.1,0-3.6-0.6-4.8-1.6c-1.1-1.1-1.7-2.7-1.7-4.7c0-2.1,0.5-3.7,1.6-4.8
				c1.1-1.1,2.6-1.7,4.5-1.7c1.9,0,3.3,0.5,4.3,1.5c1,1,1.5,2.4,1.5,4.2v1.9h-7.6c0,0.7,0.3,1.2,0.8,1.6c0.5,0.4,1.1,0.6,1.9,0.6
				c0.7,0,1.4-0.1,2.1-0.2c0.6-0.1,1.3-0.4,2-0.7v3.1c-0.7,0.3-1.4,0.6-2.1,0.7C-88,329.5-88.9,329.5-89.9,329.5z M-90.1,319.6
				c-0.5,0-0.9,0.2-1.3,0.5c-0.3,0.3-0.5,0.8-0.6,1.5h3.7c0-0.6-0.2-1.1-0.5-1.4S-89.6,319.6-90.1,319.6z"/>
			<path class="st0" d="M-80.1,329.3l-4.7-12.4h4.4l2.1,7.3c0,0,0,0.1,0,0.2c0,0.1,0,0.2,0.1,0.3c0,0.1,0,0.2,0.1,0.4
				c0,0.1,0,0.3,0,0.4h0.1c0-0.4,0.1-0.8,0.2-1.2l2.2-7.4h4.4l-4.7,12.4L-80.1,329.3L-80.1,329.3z"/>
			<path class="st0" d="M-66.6,329.3h-4.2v-16h9.4v3.5h-5.2v3.1h4.8v3.5h-4.8L-66.6,329.3L-66.6,329.3z"/>
			<path class="st0" d="M-54.5,329.5c-2.1,0-3.6-0.6-4.8-1.6c-1.1-1.1-1.7-2.7-1.7-4.7c0-2.1,0.5-3.7,1.6-4.8
				c1.1-1.1,2.6-1.7,4.5-1.7c1.9,0,3.3,0.5,4.3,1.5c1,1,1.5,2.4,1.5,4.2v1.9h-7.6c0,0.7,0.3,1.2,0.8,1.6c0.5,0.4,1.1,0.6,1.9,0.6
				c0.7,0,1.4-0.1,2.1-0.2s1.3-0.4,2-0.7v3.1c-0.7,0.3-1.4,0.6-2.1,0.7C-52.6,329.5-53.5,329.5-54.5,329.5z M-54.7,319.6
				c-0.5,0-0.9,0.2-1.3,0.5c-0.3,0.3-0.5,0.8-0.6,1.5h3.7c0-0.6-0.2-1.1-0.5-1.4C-53.7,319.8-54.2,319.6-54.7,319.6z"/>
			<path class="st0" d="M-38.5,325.5c0,1.3-0.4,2.3-1.4,3c-0.9,0.7-2.2,1-3.9,1c-0.9,0-1.7,0-2.4-0.1s-1.4-0.3-2.1-0.5v-3.4
				c0.7,0.3,1.4,0.5,2.2,0.7s1.5,0.3,2.1,0.3c0.9,0,1.4-0.2,1.4-0.6c0-0.2-0.1-0.4-0.4-0.6c-0.3-0.2-1-0.5-2.2-1
				c-1.1-0.5-1.9-1-2.4-1.6c-0.4-0.6-0.7-1.4-0.7-2.3c0-1.2,0.4-2.1,1.3-2.7c0.9-0.6,2.1-1,3.8-1c0.8,0,1.6,0.1,2.3,0.3
				c0.7,0.2,1.5,0.4,2.2,0.8l-1.2,2.8c-0.6-0.3-1.2-0.5-1.8-0.7c-0.6-0.2-1.1-0.3-1.5-0.3c-0.7,0-1,0.2-1,0.5c0,0.2,0.1,0.4,0.4,0.5
				s0.9,0.5,2.1,0.9c0.9,0.4,1.5,0.7,1.9,1.1s0.7,0.7,0.9,1.2C-38.6,324.3-38.5,324.8-38.5,325.5z"/>
			<path class="st0" d="M-31.4,326.2c0.6,0,1.3-0.1,2.1-0.4v3.1c-0.6,0.2-1.1,0.4-1.6,0.5c-0.5,0.1-1.1,0.2-1.8,0.2
				c-1.4,0-2.5-0.4-3.1-1.1c-0.6-0.7-0.9-1.8-0.9-3.3v-5.1h-1.5v-1.7l1.9-1.3l1.1-2.6h2.8v2.5h3v3.2h-3v4.8
				C-32.5,325.8-32.2,326.2-31.4,326.2z"/>
		</g>
		<g>
			<path class="st0" d="M-152.7,350.9H-163V349l3.9-3.9c1.2-1.2,1.9-2,2.3-2.5s0.7-1,0.8-1.4s0.3-0.9,0.3-1.4c0-0.7-0.2-1.2-0.6-1.6
				c-0.4-0.4-1-0.6-1.7-0.6c-0.6,0-1.1,0.1-1.7,0.3c-0.5,0.2-1.2,0.6-1.9,1.2l-1.3-1.6c0.8-0.7,1.7-1.2,2.5-1.5
				c0.8-0.3,1.6-0.4,2.5-0.4c1.4,0,2.5,0.4,3.4,1.1c0.8,0.7,1.3,1.7,1.3,3c0,0.7-0.1,1.3-0.4,1.9c-0.2,0.6-0.6,1.2-1.1,1.9
				c-0.5,0.7-1.4,1.5-2.5,2.6l-2.6,2.5v0.1h7.2L-152.7,350.9L-152.7,350.9z"/>
			<path class="st0" d="M-141.9,343.3c0,2.6-0.4,4.6-1.3,5.9c-0.8,1.3-2.1,1.9-3.9,1.9c-1.7,0-3-0.7-3.8-2c-0.9-1.3-1.3-3.2-1.3-5.8
				c0-2.7,0.4-4.6,1.3-5.9c0.8-1.3,2.1-1.9,3.9-1.9c1.7,0,3,0.7,3.8,2C-142.3,338.8-141.9,340.8-141.9,343.3z M-149.7,343.3
				c0,2.1,0.2,3.5,0.6,4.4c0.4,0.9,1.1,1.3,2,1.3s1.6-0.4,2-1.3c0.4-0.9,0.6-2.4,0.6-4.4c0-2-0.2-3.5-0.6-4.4
				c-0.4-0.9-1.1-1.4-2-1.4s-1.6,0.4-2,1.3C-149.5,339.8-149.7,341.3-149.7,343.3z"/>
			<path class="st0" d="M-134.2,350.9h-2.4v-9.8c0-1.2,0-2.1,0.1-2.8c-0.2,0.2-0.4,0.3-0.6,0.5c-0.2,0.2-1,0.8-2.3,1.9l-1.2-1.5
				l4.4-3.5h2L-134.2,350.9L-134.2,350.9z"/>
			<path class="st0" d="M-105.7,346.8c0,1.3-0.5,2.4-1.5,3.2c-1,0.8-2.3,1.1-4,1.1s-3.1-0.3-4.2-0.8V348c0.7,0.3,1.4,0.6,2.2,0.8
				c0.8,0.2,1.5,0.3,2.2,0.3c1,0,1.7-0.2,2.2-0.6c0.5-0.4,0.7-0.9,0.7-1.5c0-0.6-0.2-1-0.6-1.4c-0.4-0.4-1.3-0.9-2.6-1.4
				c-1.4-0.6-2.4-1.2-2.9-1.9c-0.6-0.7-0.8-1.6-0.8-2.6c0-1.3,0.4-2.3,1.3-3s2.1-1.1,3.6-1.1c1.4,0,2.9,0.3,4.3,1l-0.8,2
				c-1.3-0.6-2.5-0.8-3.6-0.8c-0.8,0-1.4,0.2-1.8,0.5c-0.4,0.3-0.6,0.8-0.6,1.4c0,0.4,0.1,0.7,0.2,1s0.4,0.5,0.8,0.8
				c0.4,0.2,1.1,0.6,2,1c1.1,0.5,1.9,0.9,2.4,1.3c0.5,0.4,0.9,0.9,1.1,1.4C-105.8,345.5-105.7,346.1-105.7,346.8z"/>
			<path class="st0" d="M-99.3,351.1c-1.8,0-3.2-0.5-4.2-1.6c-1-1-1.5-2.5-1.5-4.3c0-1.9,0.5-3.3,1.4-4.4s2.2-1.6,3.8-1.6
				c1.5,0,2.7,0.5,3.6,1.4c0.9,0.9,1.3,2.2,1.3,3.8v1.3h-7.6c0,1.1,0.3,2,0.9,2.6c0.6,0.6,1.4,0.9,2.4,0.9c0.7,0,1.3-0.1,1.9-0.2
				c0.6-0.1,1.2-0.3,1.9-0.6v2c-0.6,0.3-1.2,0.5-1.8,0.6S-98.5,351.1-99.3,351.1z M-99.7,341.1c-0.8,0-1.4,0.2-1.9,0.7
				c-0.5,0.5-0.7,1.2-0.8,2.1h5.2c0-0.9-0.2-1.7-0.7-2.1S-98.9,341.1-99.7,341.1z"/>
			<path class="st0" d="M-86.2,350.9l-0.5-1.6h-0.1c-0.6,0.7-1.1,1.2-1.7,1.4c-0.6,0.3-1.3,0.4-2.2,0.4c-1.1,0-2-0.3-2.6-0.9
				c-0.6-0.6-0.9-1.5-0.9-2.6c0-1.2,0.4-2.1,1.3-2.7c0.9-0.6,2.2-0.9,4-1l2-0.1v-0.6c0-0.7-0.2-1.3-0.5-1.6
				c-0.3-0.4-0.9-0.5-1.6-0.5c-0.6,0-1.1,0.1-1.7,0.3c-0.5,0.2-1.1,0.4-1.6,0.6l-0.8-1.7c0.6-0.3,1.3-0.6,2-0.7
				c0.7-0.2,1.4-0.3,2.1-0.3c1.5,0,2.6,0.3,3.3,1c0.7,0.6,1.1,1.6,1.1,3v7.7C-84.4,350.9-86.2,350.9-86.2,350.9z M-89.8,349.2
				c0.9,0,1.6-0.2,2.1-0.7c0.5-0.5,0.8-1.2,0.8-2.1v-1l-1.5,0.1c-1.1,0-2,0.2-2.5,0.6s-0.8,0.9-0.8,1.6c0,0.5,0.2,0.9,0.5,1.2
				C-90.9,349.1-90.4,349.2-89.8,349.2z"/>
			<path class="st0" d="M-74.6,347.6c0,1.1-0.4,2-1.2,2.6c-0.8,0.6-2,0.9-3.5,0.9c-1.5,0-2.7-0.2-3.7-0.7v-2.1
				c1.3,0.6,2.6,0.9,3.8,0.9c1.5,0,2.2-0.5,2.2-1.4c0-0.3-0.1-0.5-0.2-0.7c-0.2-0.2-0.4-0.4-0.8-0.6s-0.9-0.4-1.6-0.7
				c-1.3-0.5-2.2-1-2.7-1.5c-0.5-0.5-0.7-1.2-0.7-2c0-1,0.4-1.7,1.2-2.3c0.8-0.5,1.9-0.8,3.2-0.8c1.3,0,2.6,0.3,3.8,0.8l-0.8,1.8
				c-1.2-0.5-2.3-0.8-3.1-0.8c-1.3,0-1.9,0.4-1.9,1.1c0,0.4,0.2,0.7,0.5,0.9c0.3,0.2,1.1,0.6,2.2,1c0.9,0.4,1.6,0.7,2.1,1
				c0.4,0.3,0.7,0.7,1,1.1S-74.6,347.1-74.6,347.6z"/>
			<path class="st0" d="M-63.1,345.1c0,1.9-0.5,3.3-1.4,4.4s-2.3,1.6-4,1.6c-1.1,0-2-0.2-2.8-0.7c-0.8-0.5-1.5-1.2-1.9-2.1
				c-0.4-0.9-0.7-2-0.7-3.1c0-1.9,0.5-3.3,1.4-4.3c1-1,2.3-1.6,4-1.6c1.7,0,3,0.5,3.9,1.6S-63.1,343.3-63.1,345.1z M-71.5,345.1
				c0,2.6,1,4,2.9,4c1.9,0,2.9-1.3,2.9-4c0-2.6-1-3.9-2.9-3.9c-1,0-1.8,0.3-2.2,1C-71.2,342.9-71.5,343.9-71.5,345.1z"/>
			<path class="st0" d="M-51.5,350.9H-54v-7c0-0.9-0.2-1.5-0.5-2c-0.4-0.4-0.9-0.7-1.7-0.7c-1,0-1.8,0.3-2.3,0.9
				c-0.5,0.6-0.7,1.6-0.7,3.1v5.7h-2.4v-11.4h1.9l0.3,1.5h0.1c0.3-0.5,0.8-1,1.5-1.3c0.6-0.3,1.3-0.4,2.1-0.4c2.7,0,4.1,1.4,4.1,4.2
				V350.9z"/>
		</g>
		<g>
			<path class="st0" d="M-157.4,320.3h6.9v8.6c-1.9,0.6-3.9,1-6.2,1c-2.5,0-4.4-0.7-5.7-2.1c-1.3-1.4-2-3.5-2-6.1
				c0-2.6,0.7-4.6,2.2-6c1.5-1.4,3.5-2.2,6.2-2.2c1,0,2,0.1,2.9,0.3c0.9,0.2,1.7,0.4,2.3,0.7l-1.4,3.4c-1.2-0.6-2.4-0.9-3.8-0.9
				c-1.3,0-2.2,0.4-2.9,1.2c-0.7,0.8-1,2-1,3.5c0,1.5,0.3,2.6,0.9,3.4c0.6,0.8,1.5,1.2,2.7,1.2c0.6,0,1.2-0.1,1.8-0.2v-2.5h-2.9
				C-157.4,323.7-157.4,320.3-157.4,320.3z"/>
			<path class="st0" d="M-135,321.3c0,2.7-0.7,4.7-2.2,6.2c-1.5,1.4-3.5,2.2-6.2,2.2h-5.2v-16h5.6c2.6,0,4.6,0.7,6,2
				C-135.7,317-135,318.9-135,321.3z M-139.5,321.5c0-1.5-0.3-2.6-0.9-3.3c-0.6-0.7-1.5-1.1-2.6-1.1h-1.3v9h1c1.3,0,2.3-0.4,2.9-1.1
				C-139.8,324.2-139.5,323.1-139.5,321.5z"/>
			<path class="st0" d="M-127,320.3h6.9v8.6c-1.9,0.6-3.9,1-6.2,1c-2.5,0-4.4-0.7-5.7-2.1c-1.3-1.4-2-3.5-2-6.1c0-2.6,0.7-4.6,2.2-6
				c1.5-1.4,3.5-2.2,6.2-2.2c1,0,2,0.1,2.9,0.3s1.7,0.4,2.3,0.7l-1.4,3.4c-1.2-0.6-2.4-0.9-3.8-0.9c-1.3,0-2.2,0.4-2.9,1.2
				c-0.7,0.8-1,2-1,3.5c0,1.5,0.3,2.6,0.9,3.4c0.6,0.8,1.5,1.2,2.7,1.2c0.6,0,1.2-0.1,1.8-0.2v-2.5h-2.9
				C-127,323.7-127,320.3-127,320.3z"/>
		</g>
		
			<radialGradient id="SVGID_1_" cx="-308.8614" cy="249.6351" r="20.1129" gradientTransform="matrix(0.498 0 0 -0.498 -41.5629 477.1508)" gradientUnits="userSpaceOnUse">
			<stop  offset="0" style="stop-color:#FFCF4F"/>
			<stop  offset="1" style="stop-color:#F4C236"/>
		</radialGradient>
		<path class="st1" d="M-204.1,364h6.8c1.6,0,3.6-1.1,4.4-2.5l5.7-9.5c0.7-1.4,0.7-3.4-0.1-4.7l-3.4-5.6L-204.1,364z"/>
		
			<radialGradient id="SVGID_2_" cx="-320.9132" cy="259.849" r="27.6571" gradientTransform="matrix(0.498 0 0 -0.498 -41.5629 477.1508)" gradientUnits="userSpaceOnUse">
			<stop  offset="0" style="stop-color:#08A960"/>
			<stop  offset="1" style="stop-color:#07914B"/>
		</radialGradient>
		<path class="st2" d="M-196.8,336.5l-15.1,25.2c-0.6,1.2,0,2.2,1.5,2.2h6.3l13.4-22.3l-6.1-10.2C-196,332.9-196,335.1-196.8,336.5"
			/>
		
			<radialGradient id="SVGID_3_" cx="-311.4626" cy="299.5307" r="40.5382" gradientTransform="matrix(0.498 0 0 -0.498 -41.5629 477.1508)" gradientUnits="userSpaceOnUse">
			<stop  offset="0" style="stop-color:#567FC0"/>
			<stop  offset="1" style="stop-color:#557FC0"/>
		</radialGradient>
		<path class="st3" d="M-210.4,304c-1.6,0-2.3,1.1-1.4,2.5l24.5,40.7c0.8,1.3,0.8,3.3,0.1,4.7l6-9.9l-22.9-38H-210.4z"/>
		
			<radialGradient id="SVGID_4_" cx="-299.3973" cy="309.4946" r="33.0576" gradientTransform="matrix(0.498 0 0 -0.498 -41.5629 477.1508)" gradientUnits="userSpaceOnUse">
			<stop  offset="0" style="stop-color:#E14C40"/>
			<stop  offset="1" style="stop-color:#CD392D"/>
		</radialGradient>
		<path class="st4" d="M-204.1,304l22.9,38l3.3-5.5c0.8-1.4,0.8-3.6,0-5l-15-25c-0.8-1.4-2.8-2.5-4.4-2.5H-204.1z"/>
	</g>
	<g>
		<g>
			<path class="st0" d="M-97.1,384c0,2.7-0.7,4.7-2.2,6.2c-1.5,1.4-3.5,2.2-6.2,2.2h-5.1v-16h5.5c2.6,0,4.5,0.7,5.9,2
				C-97.8,379.6-97.1,381.5-97.1,384z M-101.6,384.1c0-1.5-0.3-2.6-0.9-3.3c-0.6-0.7-1.5-1.1-2.6-1.1h-1.3v9h1
				c1.3,0,2.3-0.4,2.9-1.1C-101.9,386.9-101.6,385.7-101.6,384.1z"/>
			<path class="st0" d="M-89.9,392.5c-2.1,0-3.6-0.6-4.8-1.7c-1.1-1.1-1.7-2.7-1.7-4.7c0-2.1,0.5-3.7,1.6-4.8
				c1.1-1.1,2.6-1.7,4.5-1.7c1.9,0,3.3,0.5,4.3,1.5c1,1,1.5,2.4,1.5,4.2v1.9h-7.6c0,0.7,0.3,1.2,0.8,1.6c0.5,0.4,1.1,0.6,1.9,0.6
				c0.7,0,1.4-0.1,2.1-0.2c0.6-0.1,1.3-0.4,2-0.7v3.1c-0.7,0.3-1.4,0.6-2.1,0.7C-88,392.5-88.9,392.5-89.9,392.5z M-90.1,382.6
				c-0.5,0-0.9,0.2-1.3,0.5c-0.3,0.3-0.5,0.8-0.6,1.5h3.7c0-0.6-0.2-1.1-0.5-1.4S-89.6,382.6-90.1,382.6z"/>
			<path class="st0" d="M-80.1,392.3l-4.7-12.4h4.4l2.1,7.3c0,0,0,0.1,0,0.2c0,0.1,0,0.2,0.1,0.3c0,0.1,0,0.2,0.1,0.4
				c0,0.1,0,0.3,0,0.4h0.1c0-0.4,0.1-0.8,0.2-1.2l2.2-7.4h4.4l-4.7,12.4L-80.1,392.3L-80.1,392.3z"/>
			<path class="st0" d="M-66.6,392.3h-4.2v-16h9.4v3.5h-5.2v3.1h4.8v3.5h-4.8L-66.6,392.3L-66.6,392.3z"/>
			<path class="st0" d="M-54.5,392.5c-2.1,0-3.6-0.6-4.8-1.7c-1.1-1.1-1.7-2.7-1.7-4.7c0-2.1,0.5-3.7,1.6-4.8
				c1.1-1.1,2.6-1.7,4.5-1.7c1.9,0,3.3,0.5,4.3,1.5c1,1,1.5,2.4,1.5,4.2v1.9h-7.6c0,0.7,0.3,1.2,0.8,1.6c0.5,0.4,1.1,0.6,1.9,0.6
				c0.7,0,1.4-0.1,2.1-0.2c0.6-0.1,1.3-0.4,2-0.7v3.1c-0.7,0.3-1.4,0.6-2.1,0.7C-52.6,392.5-53.5,392.5-54.5,392.5z M-54.7,382.6
				c-0.5,0-0.9,0.2-1.3,0.5c-0.3,0.3-0.5,0.8-0.6,1.5h3.7c0-0.6-0.2-1.1-0.5-1.4C-53.7,382.8-54.2,382.6-54.7,382.6z"/>
			<path class="st0" d="M-38.5,388.5c0,1.3-0.4,2.3-1.4,3c-0.9,0.7-2.2,1-3.9,1c-0.9,0-1.7-0.1-2.4-0.1s-1.4-0.3-2.1-0.5v-3.4
				c0.7,0.3,1.4,0.5,2.2,0.7s1.5,0.3,2.1,0.3c0.9,0,1.4-0.2,1.4-0.6c0-0.2-0.1-0.4-0.4-0.6c-0.3-0.2-1-0.5-2.2-1
				c-1.1-0.5-1.9-1-2.4-1.6c-0.4-0.6-0.7-1.4-0.7-2.3c0-1.2,0.4-2.1,1.3-2.7c0.9-0.6,2.1-1,3.8-1c0.8,0,1.6,0.1,2.3,0.3
				c0.7,0.2,1.5,0.4,2.2,0.8l-1.2,2.8c-0.6-0.3-1.2-0.5-1.8-0.7c-0.6-0.2-1.1-0.3-1.5-0.3c-0.7,0-1,0.2-1,0.5c0,0.2,0.1,0.4,0.4,0.5
				c0.2,0.1,0.9,0.5,2.1,0.9c0.9,0.4,1.5,0.7,1.9,1.1c0.4,0.3,0.7,0.7,0.9,1.2C-38.6,387.3-38.5,387.8-38.5,388.5z"/>
			<path class="st0" d="M-31.4,389.2c0.6,0,1.3-0.1,2.1-0.4v3.1c-0.6,0.2-1.1,0.4-1.6,0.5c-0.5,0.1-1.1,0.2-1.8,0.2
				c-1.4,0-2.5-0.4-3.1-1.1c-0.6-0.7-0.9-1.8-0.9-3.3v-5.1h-1.5v-1.7l1.9-1.4l1.1-2.6h2.8v2.5h3v3.2h-3v4.8
				C-32.5,388.8-32.2,389.2-31.4,389.2z"/>
		</g>
		<g>
			<path class="st0" d="M-152.7,413.9H-163V412l3.9-3.9c1.2-1.2,1.9-2,2.3-2.5c0.4-0.5,0.7-1,0.8-1.4c0.2-0.4,0.3-0.9,0.3-1.4
				c0-0.7-0.2-1.2-0.6-1.6c-0.4-0.4-1-0.6-1.7-0.6c-0.6,0-1.1,0.1-1.7,0.3c-0.5,0.2-1.2,0.6-1.9,1.2l-1.3-1.6
				c0.8-0.7,1.7-1.2,2.5-1.5c0.8-0.3,1.6-0.4,2.5-0.4c1.4,0,2.5,0.4,3.4,1.1c0.8,0.7,1.3,1.7,1.3,3c0,0.7-0.1,1.3-0.4,1.9
				c-0.2,0.6-0.6,1.2-1.1,1.9s-1.4,1.5-2.5,2.6l-2.6,2.5v0.1h7.2L-152.7,413.9L-152.7,413.9z"/>
			<path class="st0" d="M-141.9,406.3c0,2.6-0.4,4.6-1.3,5.9c-0.8,1.3-2.1,1.9-3.9,1.9c-1.7,0-3-0.7-3.8-2c-0.9-1.3-1.3-3.2-1.3-5.8
				c0-2.7,0.4-4.6,1.3-5.9c0.8-1.3,2.1-1.9,3.9-1.9c1.7,0,3,0.7,3.8,2C-142.3,401.8-141.9,403.8-141.9,406.3z M-149.7,406.3
				c0,2.1,0.2,3.5,0.6,4.4s1.1,1.3,2,1.3s1.6-0.4,2-1.3c0.4-0.9,0.6-2.4,0.6-4.4c0-2-0.2-3.5-0.6-4.4c-0.4-0.9-1.1-1.4-2-1.4
				s-1.6,0.4-2,1.3C-149.5,402.8-149.7,404.3-149.7,406.3z"/>
			<path class="st0" d="M-134.2,413.9h-2.4v-9.8c0-1.2,0-2.1,0.1-2.8c-0.2,0.2-0.4,0.3-0.6,0.5c-0.2,0.2-1,0.8-2.3,1.9l-1.2-1.5
				l4.4-3.5h2L-134.2,413.9L-134.2,413.9z"/>
			<path class="st0" d="M-105.7,409.8c0,1.3-0.5,2.4-1.5,3.2c-1,0.8-2.3,1.1-4,1.1s-3.1-0.3-4.2-0.8V411c0.7,0.3,1.4,0.6,2.2,0.8
				c0.8,0.2,1.5,0.3,2.2,0.3c1,0,1.7-0.2,2.2-0.6c0.5-0.4,0.7-0.9,0.7-1.5c0-0.6-0.2-1-0.6-1.4c-0.4-0.4-1.3-0.9-2.6-1.4
				c-1.4-0.6-2.4-1.2-2.9-1.9c-0.6-0.7-0.8-1.6-0.8-2.6c0-1.3,0.4-2.3,1.3-3c0.9-0.7,2.1-1.1,3.6-1.1c1.4,0,2.9,0.3,4.3,1l-0.8,2
				c-1.3-0.6-2.5-0.8-3.6-0.8c-0.8,0-1.4,0.2-1.8,0.5c-0.4,0.3-0.6,0.8-0.6,1.4c0,0.4,0.1,0.7,0.2,1c0.2,0.3,0.4,0.5,0.8,0.8
				c0.4,0.2,1.1,0.6,2,1c1.1,0.5,1.9,0.9,2.4,1.3c0.5,0.4,0.9,0.9,1.1,1.4C-105.8,408.5-105.7,409.1-105.7,409.8z"/>
			<path class="st0" d="M-99.3,414.1c-1.8,0-3.2-0.5-4.2-1.6c-1-1-1.5-2.5-1.5-4.3c0-1.9,0.5-3.3,1.4-4.4c0.9-1.1,2.2-1.6,3.8-1.6
				c1.5,0,2.7,0.5,3.6,1.4c0.9,0.9,1.3,2.2,1.3,3.8v1.3h-7.6c0,1.1,0.3,2,0.9,2.6c0.6,0.6,1.4,0.9,2.4,0.9c0.7,0,1.3-0.1,1.9-0.2
				c0.6-0.1,1.2-0.3,1.9-0.6v2c-0.6,0.3-1.2,0.5-1.8,0.6C-97.8,414-98.5,414.1-99.3,414.1z M-99.7,404.1c-0.8,0-1.4,0.2-1.9,0.7
				c-0.5,0.5-0.7,1.2-0.8,2.1h5.2c0-0.9-0.2-1.7-0.7-2.1C-98.3,404.3-98.9,404.1-99.7,404.1z"/>
			<path class="st0" d="M-86.2,413.9l-0.5-1.6h-0.1c-0.6,0.7-1.1,1.2-1.7,1.4c-0.6,0.3-1.3,0.4-2.2,0.4c-1.1,0-2-0.3-2.6-0.9
				c-0.6-0.6-0.9-1.5-0.9-2.6c0-1.2,0.4-2.1,1.3-2.7c0.9-0.6,2.2-0.9,4-1l2-0.1v-0.6c0-0.7-0.2-1.3-0.5-1.6
				c-0.3-0.4-0.9-0.5-1.6-0.5c-0.6,0-1.1,0.1-1.7,0.3c-0.5,0.2-1.1,0.4-1.6,0.6l-0.8-1.7c0.6-0.3,1.3-0.6,2-0.7s1.4-0.3,2.1-0.3
				c1.5,0,2.6,0.3,3.3,1c0.7,0.6,1.1,1.6,1.1,3v7.7C-84.4,413.9-86.2,413.9-86.2,413.9z M-89.8,412.2c0.9,0,1.6-0.2,2.1-0.7
				c0.5-0.5,0.8-1.2,0.8-2.1v-1l-1.5,0.1c-1.1,0-2,0.2-2.5,0.6c-0.5,0.3-0.8,0.9-0.8,1.6c0,0.5,0.2,0.9,0.5,1.2
				C-90.9,412.1-90.4,412.2-89.8,412.2z"/>
			<path class="st0" d="M-74.6,410.6c0,1.1-0.4,2-1.2,2.6c-0.8,0.6-2,0.9-3.5,0.9c-1.5,0-2.7-0.2-3.7-0.7v-2.1
				c1.3,0.6,2.6,0.9,3.8,0.9c1.5,0,2.2-0.5,2.2-1.4c0-0.3-0.1-0.5-0.2-0.7c-0.2-0.2-0.4-0.4-0.8-0.6s-0.9-0.4-1.6-0.7
				c-1.3-0.5-2.2-1-2.7-1.5c-0.5-0.5-0.7-1.2-0.7-2c0-1,0.4-1.7,1.2-2.3c0.8-0.5,1.9-0.8,3.2-0.8c1.3,0,2.6,0.3,3.8,0.8l-0.8,1.8
				c-1.2-0.5-2.3-0.8-3.1-0.8c-1.3,0-1.9,0.4-1.9,1.1c0,0.4,0.2,0.7,0.5,0.9c0.3,0.2,1.1,0.6,2.2,1c0.9,0.4,1.6,0.7,2.1,1
				c0.4,0.3,0.7,0.7,1,1S-74.6,410.1-74.6,410.6z"/>
			<path class="st0" d="M-63.1,408.1c0,1.9-0.5,3.3-1.4,4.4c-1,1-2.3,1.6-4,1.6c-1.1,0-2-0.2-2.8-0.7c-0.8-0.5-1.5-1.2-1.9-2.1
				c-0.4-0.9-0.7-2-0.7-3.1c0-1.9,0.5-3.3,1.4-4.3c1-1,2.3-1.6,4-1.6c1.7,0,3,0.5,3.9,1.6S-63.1,406.3-63.1,408.1z M-71.5,408.1
				c0,2.6,1,4,2.9,4c1.9,0,2.9-1.3,2.9-4c0-2.6-1-3.9-2.9-3.9c-1,0-1.8,0.3-2.2,1C-71.2,405.9-71.5,406.9-71.5,408.1z"/>
			<path class="st0" d="M-51.5,413.9H-54v-7c0-0.9-0.2-1.5-0.5-2c-0.4-0.4-0.9-0.7-1.7-0.7c-1,0-1.8,0.3-2.3,0.9
				c-0.5,0.6-0.7,1.6-0.7,3.1v5.7h-2.4v-11.4h1.9l0.3,1.5h0.1c0.3-0.5,0.8-1,1.5-1.3c0.6-0.3,1.3-0.4,2.1-0.4c2.7,0,4.1,1.4,4.1,4.2
				V413.9z"/>
		</g>
		<g>
			<path class="st0" d="M-157.4,383.3h6.9v8.6c-1.9,0.6-3.9,1-6.2,1c-2.5,0-4.4-0.7-5.7-2.1c-1.3-1.4-2-3.5-2-6.1
				c0-2.6,0.7-4.6,2.2-6c1.5-1.4,3.5-2.2,6.2-2.2c1,0,2,0.1,2.9,0.3c0.9,0.2,1.7,0.4,2.3,0.7l-1.4,3.4c-1.2-0.6-2.4-0.9-3.8-0.9
				c-1.3,0-2.2,0.4-2.9,1.2c-0.7,0.8-1,2-1,3.5c0,1.5,0.3,2.6,0.9,3.4s1.5,1.2,2.7,1.2c0.6,0,1.2-0.1,1.8-0.2v-2.5h-2.9
				C-157.4,386.7-157.4,383.3-157.4,383.3z"/>
			<path class="st0" d="M-135,384.3c0,2.7-0.7,4.7-2.2,6.2c-1.5,1.4-3.5,2.2-6.2,2.2h-5.2v-16h5.6c2.6,0,4.6,0.7,6,2
				C-135.7,380-135,381.9-135,384.3z M-139.5,384.5c0-1.5-0.3-2.6-0.9-3.3c-0.6-0.7-1.5-1.1-2.6-1.1h-1.3v9h1c1.3,0,2.3-0.4,2.9-1.1
				C-139.8,387.2-139.5,386.1-139.5,384.5z"/>
			<path class="st0" d="M-127,383.3h6.9v8.6c-1.9,0.6-3.9,1-6.2,1c-2.5,0-4.4-0.7-5.7-2.1c-1.3-1.4-2-3.5-2-6.1c0-2.6,0.7-4.6,2.2-6
				c1.5-1.4,3.5-2.2,6.2-2.2c1,0,2,0.1,2.9,0.3c0.9,0.2,1.7,0.4,2.3,0.7l-1.4,3.4c-1.2-0.6-2.4-0.9-3.8-0.9c-1.3,0-2.2,0.4-2.9,1.2
				c-0.7,0.8-1,2-1,3.5c0,1.5,0.3,2.6,0.9,3.4s1.5,1.2,2.7,1.2c0.6,0,1.2-0.1,1.8-0.2v-2.5h-2.9C-127,386.7-127,383.3-127,383.3z"/>
		</g>
		
			<radialGradient id="SVGID_5_" cx="-308.8614" cy="123.1291" r="20.1129" gradientTransform="matrix(0.498 0 0 -0.498 -41.5629 477.1508)" gradientUnits="userSpaceOnUse">
			<stop  offset="0" style="stop-color:#CCCCCC"/>
			<stop  offset="1" style="stop-color:#C0C0C0"/>
		</radialGradient>
		<path class="st5" d="M-204.1,427h6.8c1.6,0,3.6-1.1,4.4-2.5l5.7-9.5c0.7-1.4,0.7-3.4-0.1-4.7l-3.4-5.6L-204.1,427z"/>
		
			<radialGradient id="SVGID_6_" cx="-320.9132" cy="133.343" r="27.6571" gradientTransform="matrix(0.498 0 0 -0.498 -41.5629 477.1508)" gradientUnits="userSpaceOnUse">
			<stop  offset="0" style="stop-color:#A0A0A0"/>
			<stop  offset="1" style="stop-color:#7B7B7B"/>
		</radialGradient>
		<path class="st6" d="M-196.8,399.5l-15.1,25.2c-0.6,1.2,0,2.2,1.5,2.2h6.3l13.4-22.3l-6.1-10.2C-196,395.9-196,398.1-196.8,399.5"
			/>
		
			<radialGradient id="SVGID_7_" cx="-311.4624" cy="173.0247" r="40.5381" gradientTransform="matrix(0.498 0 0 -0.498 -41.5629 477.1508)" gradientUnits="userSpaceOnUse">
			<stop  offset="0" style="stop-color:#848484"/>
			<stop  offset="1" style="stop-color:#838383"/>
		</radialGradient>
		<path class="st7" d="M-210.4,367c-1.6,0-2.3,1.1-1.4,2.5l24.5,40.7c0.8,1.3,0.8,3.3,0.1,4.7l6-9.9l-22.9-38H-210.4z"/>
		
			<radialGradient id="SVGID_8_" cx="-299.3973" cy="182.9886" r="33.0576" gradientTransform="matrix(0.498 0 0 -0.498 -41.5629 477.1508)" gradientUnits="userSpaceOnUse">
			<stop  offset="0" style="stop-color:#626262"/>
			<stop  offset="1" style="stop-color:#474747"/>
		</radialGradient>
		<path class="st8" d="M-204.1,367l22.9,38l3.3-5.5c0.8-1.4,0.8-3.6,0-5l-15-25c-0.8-1.4-2.8-2.5-4.4-2.5H-204.1z"/>
	</g>
	<g>
		<g>
			<path class="st9" d="M-96.9,447c0,2.7-0.7,4.7-2.2,6.2s-3.5,2.2-6.2,2.2h-5.1v-16h5.5c2.6,0,4.5,0.7,5.9,2
				C-97.6,442.6-96.9,444.5-96.9,447z M-101.4,447.1c0-1.5-0.3-2.6-0.9-3.3c-0.6-0.7-1.5-1.1-2.6-1.1h-1.3v9h1
				c1.3,0,2.3-0.4,2.9-1.1C-101.7,449.9-101.4,448.7-101.4,447.1z"/>
			<path class="st9" d="M-89.7,455.5c-2.1,0-3.6-0.6-4.8-1.7s-1.7-2.7-1.7-4.7c0-2.1,0.5-3.7,1.6-4.8c1.1-1.1,2.6-1.7,4.5-1.7
				c1.9,0,3.3,0.5,4.3,1.5s1.5,2.4,1.5,4.2v1.9h-7.6c0,0.7,0.3,1.2,0.8,1.6c0.5,0.4,1.1,0.6,1.9,0.6c0.7,0,1.4-0.1,2.1-0.2
				c0.6-0.1,1.3-0.4,2-0.7v3.1c-0.7,0.3-1.4,0.6-2.1,0.7C-87.9,455.5-88.7,455.5-89.7,455.5z M-90,445.6c-0.5,0-0.9,0.2-1.3,0.5
				c-0.3,0.3-0.5,0.8-0.6,1.5h3.7c0-0.6-0.2-1.1-0.5-1.4C-89,445.8-89.4,445.6-90,445.6z"/>
			<path class="st9" d="M-80,455.3l-4.7-12.4h4.4l2.1,7.3c0,0,0,0.1,0,0.2c0,0.1,0,0.2,0.1,0.3c0,0.1,0,0.2,0.1,0.4
				c0,0.1,0,0.3,0,0.4h0.1c0-0.4,0.1-0.8,0.2-1.2l2.2-7.4h4.4l-4.7,12.4L-80,455.3L-80,455.3z"/>
			<path class="st9" d="M-66.5,455.3h-4.2v-16h9.4v3.5h-5.2v3.1h4.8v3.5h-4.8L-66.5,455.3L-66.5,455.3z"/>
			<path class="st9" d="M-54.3,455.5c-2.1,0-3.6-0.6-4.8-1.7s-1.7-2.7-1.7-4.7c0-2.1,0.5-3.7,1.6-4.8c1.1-1.1,2.6-1.7,4.5-1.7
				c1.9,0,3.3,0.5,4.3,1.5c1,1,1.5,2.4,1.5,4.2v1.9h-7.6c0,0.7,0.3,1.2,0.8,1.6c0.5,0.4,1.1,0.6,1.9,0.6c0.7,0,1.4-0.1,2.1-0.2
				s1.3-0.4,2-0.7v3.1c-0.7,0.3-1.4,0.6-2.1,0.7C-52.5,455.5-53.3,455.5-54.3,455.5z M-54.6,445.6c-0.5,0-0.9,0.2-1.3,0.5
				c-0.3,0.3-0.5,0.8-0.6,1.5h3.7c0-0.6-0.2-1.1-0.5-1.4C-53.6,445.8-54,445.6-54.6,445.6z"/>
			<path class="st9" d="M-38.3,451.5c0,1.3-0.4,2.3-1.4,3c-0.9,0.7-2.2,1-3.9,1c-0.9,0-1.7,0-2.4-0.1s-1.4-0.3-2.1-0.5v-3.4
				c0.7,0.3,1.4,0.5,2.2,0.7c0.8,0.2,1.5,0.3,2.1,0.3c0.9,0,1.4-0.2,1.4-0.6c0-0.2-0.1-0.4-0.4-0.6c-0.3-0.2-1-0.5-2.2-1
				c-1.1-0.5-1.9-1-2.4-1.6c-0.4-0.6-0.7-1.4-0.7-2.3c0-1.2,0.4-2.1,1.3-2.7c0.9-0.6,2.1-1,3.8-1c0.8,0,1.6,0.1,2.3,0.3
				c0.7,0.2,1.5,0.4,2.2,0.8l-1.2,2.8c-0.6-0.3-1.2-0.5-1.8-0.7c-0.6-0.2-1.1-0.3-1.5-0.3c-0.7,0-1,0.2-1,0.5c0,0.2,0.1,0.4,0.4,0.5
				c0.2,0.1,0.9,0.5,2.1,0.9c0.9,0.4,1.5,0.7,1.9,1.1c0.4,0.3,0.7,0.7,0.9,1.2C-38.4,450.3-38.3,450.8-38.3,451.5z"/>
			<path class="st9" d="M-31.2,452.2c0.6,0,1.3-0.1,2.1-0.4v3.1c-0.6,0.2-1.1,0.4-1.6,0.5c-0.5,0.1-1.1,0.2-1.8,0.2
				c-1.4,0-2.5-0.4-3.1-1.1c-0.6-0.7-0.9-1.8-0.9-3.3v-5.1h-1.5v-1.7l1.9-1.3l1.1-2.6h2.8v2.5h3v3.2h-3v4.8
				C-32.4,451.8-32,452.2-31.2,452.2z"/>
		</g>
		<g>
			<path class="st9" d="M-152.6,476.9h-10.3V475l3.9-3.9c1.2-1.2,1.9-2,2.3-2.5c0.4-0.5,0.7-1,0.8-1.4c0.2-0.4,0.3-0.9,0.3-1.4
				c0-0.7-0.2-1.2-0.6-1.6c-0.4-0.4-1-0.6-1.7-0.6c-0.6,0-1.1,0.1-1.7,0.3c-0.5,0.2-1.2,0.6-1.9,1.2l-1.3-1.6
				c0.8-0.7,1.7-1.2,2.5-1.5c0.8-0.3,1.6-0.4,2.5-0.4c1.4,0,2.5,0.4,3.4,1.1c0.8,0.7,1.3,1.7,1.3,3c0,0.7-0.1,1.3-0.4,1.9
				c-0.2,0.6-0.6,1.2-1.1,1.9c-0.5,0.7-1.4,1.5-2.5,2.6l-2.6,2.5v0.1h7.2L-152.6,476.9L-152.6,476.9z"/>
			<path class="st9" d="M-141.7,469.3c0,2.6-0.4,4.6-1.3,5.9c-0.8,1.3-2.1,1.9-3.9,1.9c-1.7,0-3-0.7-3.8-2c-0.9-1.3-1.3-3.2-1.3-5.8
				c0-2.7,0.4-4.6,1.3-5.9c0.8-1.3,2.1-1.9,3.9-1.9c1.7,0,3,0.7,3.8,2S-141.7,466.8-141.7,469.3z M-149.5,469.3
				c0,2.1,0.2,3.5,0.6,4.4s1.1,1.3,2,1.3s1.6-0.4,2-1.3c0.4-0.9,0.6-2.4,0.6-4.4c0-2-0.2-3.5-0.6-4.4c-0.4-0.9-1.1-1.4-2-1.4
				s-1.6,0.4-2,1.3C-149.3,465.8-149.5,467.3-149.5,469.3z"/>
			<path class="st9" d="M-134,476.9h-2.4v-9.8c0-1.2,0-2.1,0.1-2.8c-0.2,0.2-0.4,0.3-0.6,0.5c-0.2,0.2-1,0.8-2.3,1.9l-1.2-1.5
				l4.4-3.5h2L-134,476.9L-134,476.9z"/>
			<path class="st9" d="M-105.5,472.8c0,1.3-0.5,2.4-1.5,3.2c-1,0.8-2.3,1.1-4,1.1s-3.1-0.3-4.2-0.8V474c0.7,0.3,1.4,0.6,2.2,0.8
				c0.8,0.2,1.5,0.3,2.2,0.3c1,0,1.7-0.2,2.2-0.6s0.7-0.9,0.7-1.5c0-0.6-0.2-1-0.6-1.4c-0.4-0.4-1.3-0.9-2.6-1.4
				c-1.4-0.6-2.4-1.2-2.9-1.9c-0.6-0.7-0.8-1.6-0.8-2.6c0-1.3,0.4-2.3,1.3-3c0.9-0.7,2.1-1.1,3.6-1.1c1.4,0,2.9,0.3,4.3,1l-0.8,2
				c-1.3-0.6-2.5-0.8-3.6-0.8c-0.8,0-1.4,0.2-1.8,0.5c-0.4,0.3-0.6,0.8-0.6,1.4c0,0.4,0.1,0.7,0.2,1s0.4,0.5,0.8,0.8
				c0.4,0.2,1.1,0.6,2,1c1.1,0.5,1.9,0.9,2.4,1.3c0.5,0.4,0.9,0.9,1.1,1.4C-105.6,471.5-105.5,472.1-105.5,472.8z"/>
			<path class="st9" d="M-99.1,477.1c-1.8,0-3.2-0.5-4.2-1.6c-1-1-1.5-2.5-1.5-4.3c0-1.9,0.5-3.3,1.4-4.4c0.9-1.1,2.2-1.6,3.8-1.6
				c1.5,0,2.7,0.5,3.6,1.4c0.9,0.9,1.3,2.2,1.3,3.8v1.3h-7.6c0,1.1,0.3,2,0.9,2.6c0.6,0.6,1.4,0.9,2.4,0.9c0.7,0,1.3-0.1,1.9-0.2
				c0.6-0.1,1.2-0.3,1.9-0.6v2c-0.6,0.3-1.2,0.5-1.8,0.6S-98.3,477.1-99.1,477.1z M-99.6,467.1c-0.8,0-1.4,0.2-1.9,0.7
				c-0.5,0.5-0.7,1.2-0.8,2.1h5.2c0-0.9-0.2-1.7-0.7-2.1S-98.8,467.1-99.6,467.1z"/>
			<path class="st9" d="M-86,476.9l-0.5-1.6h-0.1c-0.6,0.7-1.1,1.2-1.7,1.4c-0.6,0.3-1.3,0.4-2.2,0.4c-1.1,0-2-0.3-2.6-0.9
				c-0.6-0.6-0.9-1.5-0.9-2.6c0-1.2,0.4-2.1,1.3-2.7c0.9-0.6,2.2-0.9,4-1l2-0.1v-0.6c0-0.7-0.2-1.3-0.5-1.6
				c-0.3-0.4-0.9-0.5-1.6-0.5c-0.6,0-1.1,0.1-1.7,0.3c-0.5,0.2-1.1,0.4-1.6,0.6l-0.8-1.7c0.6-0.3,1.3-0.6,2-0.7s1.4-0.3,2.1-0.3
				c1.5,0,2.6,0.3,3.3,1c0.7,0.6,1.1,1.6,1.1,3v7.7H-86L-86,476.9z M-89.6,475.2c0.9,0,1.6-0.2,2.1-0.7c0.5-0.5,0.8-1.2,0.8-2.1v-1
				l-1.5,0.1c-1.1,0-2,0.2-2.5,0.6c-0.5,0.3-0.8,0.9-0.8,1.6c0,0.5,0.2,0.9,0.5,1.2C-90.7,475.1-90.2,475.2-89.6,475.2z"/>
			<path class="st9" d="M-74.5,473.6c0,1.1-0.4,2-1.2,2.6c-0.8,0.6-2,0.9-3.5,0.9c-1.5,0-2.7-0.2-3.7-0.7v-2.1
				c1.3,0.6,2.6,0.9,3.8,0.9c1.5,0,2.2-0.5,2.2-1.4c0-0.3-0.1-0.5-0.2-0.7c-0.2-0.2-0.4-0.4-0.8-0.6c-0.4-0.2-0.9-0.4-1.6-0.7
				c-1.3-0.5-2.2-1-2.7-1.5c-0.5-0.5-0.7-1.2-0.7-2c0-1,0.4-1.7,1.2-2.3c0.8-0.5,1.9-0.8,3.2-0.8c1.3,0,2.6,0.3,3.8,0.8l-0.8,1.8
				c-1.2-0.5-2.3-0.8-3.1-0.8c-1.3,0-1.9,0.4-1.9,1.1c0,0.4,0.2,0.7,0.5,0.9c0.3,0.2,1.1,0.6,2.2,1c0.9,0.4,1.6,0.7,2.1,1
				c0.4,0.3,0.7,0.7,1,1.1S-74.5,473.1-74.5,473.6z"/>
			<path class="st9" d="M-63,471.1c0,1.9-0.5,3.3-1.4,4.4c-1,1-2.3,1.6-4,1.6c-1.1,0-2-0.2-2.8-0.7c-0.8-0.5-1.5-1.2-1.9-2.1
				c-0.4-0.9-0.7-2-0.7-3.1c0-1.9,0.5-3.3,1.4-4.3c1-1,2.3-1.6,4-1.6c1.7,0,3,0.5,3.9,1.6S-63,469.3-63,471.1z M-71.3,471.1
				c0,2.6,1,4,2.9,4c1.9,0,2.9-1.3,2.9-4c0-2.6-1-3.9-2.9-3.9c-1,0-1.8,0.3-2.2,1C-71.1,468.9-71.3,469.9-71.3,471.1z"/>
			<path class="st9" d="M-51.4,476.9h-2.4v-7c0-0.9-0.2-1.5-0.5-2c-0.4-0.4-0.9-0.7-1.7-0.7c-1,0-1.8,0.3-2.3,0.9
				c-0.5,0.6-0.7,1.6-0.7,3.1v5.7h-2.4v-11.4h1.9l0.3,1.5h0.1c0.3-0.5,0.8-1,1.5-1.3c0.6-0.3,1.3-0.4,2.1-0.4c2.7,0,4.1,1.4,4.1,4.2
				V476.9z"/>
		</g>
		<g>
			<path class="st9" d="M-157.3,446.3h6.9v8.6c-1.9,0.6-3.9,1-6.2,1c-2.5,0-4.4-0.7-5.7-2.1s-2-3.5-2-6.1c0-2.6,0.7-4.6,2.2-6
				c1.5-1.4,3.5-2.2,6.2-2.2c1,0,2,0.1,2.9,0.3c0.9,0.2,1.7,0.4,2.3,0.7l-1.4,3.4c-1.2-0.6-2.4-0.9-3.8-0.9c-1.3,0-2.2,0.4-2.9,1.2
				c-0.7,0.8-1,2-1,3.5c0,1.5,0.3,2.6,0.9,3.4s1.5,1.2,2.7,1.2c0.6,0,1.2-0.1,1.8-0.2v-2.5h-2.9
				C-157.3,449.7-157.3,446.3-157.3,446.3z"/>
			<path class="st9" d="M-134.8,447.3c0,2.7-0.7,4.7-2.2,6.2c-1.5,1.4-3.5,2.2-6.2,2.2h-5.2v-16h5.6c2.6,0,4.6,0.7,6,2
				C-135.5,443-134.8,444.9-134.8,447.3z M-139.3,447.5c0-1.5-0.3-2.6-0.9-3.3c-0.6-0.7-1.5-1.1-2.6-1.1h-1.3v9h1
				c1.3,0,2.3-0.4,2.9-1.1C-139.6,450.2-139.3,449.1-139.3,447.5z"/>
			<path class="st9" d="M-126.8,446.3h6.9v8.6c-1.9,0.6-3.9,1-6.2,1c-2.5,0-4.4-0.7-5.7-2.1c-1.3-1.4-2-3.5-2-6.1
				c0-2.6,0.7-4.6,2.2-6c1.5-1.4,3.5-2.2,6.2-2.2c1,0,2,0.1,2.9,0.3c0.9,0.2,1.7,0.4,2.3,0.7l-1.4,3.4c-1.2-0.6-2.4-0.9-3.8-0.9
				c-1.3,0-2.2,0.4-2.9,1.2c-0.7,0.8-1,2-1,3.5c0,1.5,0.3,2.6,0.9,3.4c0.6,0.8,1.5,1.2,2.7,1.2c0.6,0,1.2-0.1,1.8-0.2v-2.5h-2.9
				V446.3z"/>
		</g>
		
			<radialGradient id="SVGID_9_" cx="-308.5442" cy="-3.3769" r="20.1129" gradientTransform="matrix(0.498 0 0 -0.498 -41.5629 477.1508)" gradientUnits="userSpaceOnUse">
			<stop  offset="0" style="stop-color:#FFCF4F"/>
			<stop  offset="1" style="stop-color:#F4C236"/>
		</radialGradient>
		<path class="st10" d="M-203.9,490h6.8c1.6,0,3.6-1.1,4.4-2.5l5.7-9.5c0.7-1.4,0.7-3.4-0.1-4.7l-3.4-5.6L-203.9,490z"/>
		
			<radialGradient id="SVGID_10_" cx="-320.5956" cy="6.8369" r="27.657" gradientTransform="matrix(0.498 0 0 -0.498 -41.5629 477.1508)" gradientUnits="userSpaceOnUse">
			<stop  offset="0" style="stop-color:#08A960"/>
			<stop  offset="1" style="stop-color:#07914B"/>
		</radialGradient>
		<path class="st11" d="M-196.6,462.5l-15.1,25.2c-0.6,1.2,0,2.2,1.5,2.2h6.3l13.4-22.3l-6.1-10.2
			C-195.8,458.9-195.8,461.1-196.6,462.5"/>
		
			<radialGradient id="SVGID_11_" cx="-311.1451" cy="46.5187" r="40.5381" gradientTransform="matrix(0.498 0 0 -0.498 -41.5629 477.1508)" gradientUnits="userSpaceOnUse">
			<stop  offset="0" style="stop-color:#567FC0"/>
			<stop  offset="1" style="stop-color:#557FC0"/>
		</radialGradient>
		<path class="st12" d="M-210.2,430c-1.6,0-2.3,1.1-1.4,2.5l24.5,40.7c0.8,1.3,0.8,3.3,0.1,4.7l6-9.9l-22.9-38H-210.2z"/>
		
			<radialGradient id="SVGID_12_" cx="-299.08" cy="56.4825" r="33.0576" gradientTransform="matrix(0.498 0 0 -0.498 -41.5629 477.1508)" gradientUnits="userSpaceOnUse">
			<stop  offset="0" style="stop-color:#E14C40"/>
			<stop  offset="1" style="stop-color:#CD392D"/>
		</radialGradient>
		<path class="st13" d="M-203.9,430l22.9,38l3.3-5.5c0.8-1.4,0.8-3.6,0-5l-15-25c-0.8-1.4-2.8-2.5-4.4-2.5H-203.9z"/>
	</g>
	<text transform="matrix(1 0 0 1 -132.0317 350.9238)" class="st0 st14 st15">5</text>
	<text transform="matrix(1 0 0 1 -132.0315 413.886)" class="st0 st14 st15">5</text>
	<text transform="matrix(1 0 0 1 -132.0315 476.8863)" class="st9 st14 st15">5</text>
</g>
<g id="Layer_2">
</g>
</svg>
