<svg id="Layer_1" data-name="Layer 1" xmlns="http://www.w3.org/2000/svg" xmlns:xlink="http://www.w3.org/1999/xlink" width="185" height="188" viewBox="0 0 185 188"><defs><style>.cls-1{fill:#4285f4;}.cls-2{fill:#0f9d58;}.cls-3{fill:#ea4335;}.cls-4{fill:#fbbc04;}.cls-5{fill:#565656;}.cls-6{fill:#4e4e4e;}.cls-7{fill:url(#radial-gradient);}.cls-8{fill:url(#radial-gradient-2);}.cls-9{fill:url(#radial-gradient-3);}.cls-10{fill:url(#radial-gradient-4);}.cls-11{fill:#e6e6e5;}</style><radialGradient id="radial-gradient" cx="9.38" cy="978.64" r="8.21" gradientTransform="translate(0 -890)" gradientUnits="userSpaceOnUse"><stop offset="0" stop-color="#848484"/><stop offset="1" stop-color="#838383"/></radialGradient><radialGradient id="radial-gradient-2" cx="33.2" cy="971.74" r="8.21" gradientTransform="translate(0 -890)" gradientUnits="userSpaceOnUse"><stop offset="0" stop-color="#626262"/><stop offset="1" stop-color="#474747"/></radialGradient><radialGradient id="radial-gradient-3" cx="11.32" cy="969.81" r="6.3" gradientTransform="translate(0 -890)" gradientUnits="userSpaceOnUse"><stop offset="0" stop-color="#a0a0a0"/><stop offset="1" stop-color="#868686"/></radialGradient><radialGradient id="radial-gradient-4" cx="31.25" cy="980.59" r="6.3" gradientTransform="translate(0 -890)" gradientUnits="userSpaceOnUse"><stop offset="0" stop-color="#ccc"/><stop offset="1" stop-color="silver"/></radialGradient></defs><title>logos_2019</title><path class="cls-1" d="M18.32,29.09a3.45,3.45,0,0,1-2.94,1.69,3.38,3.38,0,0,1-1.68-.42l-12-6.95A3.43,3.43,0,0,1,.45,18.79,3.5,3.5,0,0,1,3.4,17.1a3.38,3.38,0,0,1,1.68.42l12,7A3.43,3.43,0,0,1,18.32,29.09Z"/><path class="cls-2" d="M24.32,11.92a3.49,3.49,0,0,1,2.95-1.69,3.43,3.43,0,0,1,1.68.42l12,7a3.44,3.44,0,0,1,1.26,4.63,3.47,3.47,0,0,1-4.63,1.26l-12-6.94A3.36,3.36,0,0,1,24.27,12,.56.56,0,0,1,24.32,11.92Z"/><path class="cls-3" d="M17.06,16.58l-6,3.47L5.6,16.89a3.17,3.17,0,0,0-1.69-.52l9.79-5.68a3.18,3.18,0,0,1,1.68-.42,3.37,3.37,0,0,1,1.68,6.31Z"/><path class="cls-4" d="M25.48,24.47l6-3.48,5.47,3.16a3.27,3.27,0,0,0,1.69.53l-9.79,5.68a3.38,3.38,0,0,1-1.68.42,3.48,3.48,0,0,1-2.95-1.69A3.52,3.52,0,0,1,25.48,24.47Z"/><path class="cls-5" d="M49.05,40.56V39.4l1.47-1.47c3.58-3.37,5.16-5.15,5.16-7.26a2.48,2.48,0,0,0-2.2-2.73,2.44,2.44,0,0,0-.54,0A4.7,4.7,0,0,0,50,29.09l-.63-1.36a5.81,5.81,0,0,1,3.89-1.37,3.86,3.86,0,0,1,4.19,3.49,4.35,4.35,0,0,1,0,.51c0,2.52-1.9,4.63-4.74,7.36l-1.15,1.05h6.2v1.55H49.05Z"/><path class="cls-5" d="M69.55,33.51c0,4.74-1.79,7.26-4.84,7.26-2.73,0-4.52-2.52-4.52-7.05s2-7.15,4.84-7.15S69.55,29.09,69.55,33.51Zm-7.47.21c0,3.58,1.06,5.68,2.84,5.68s2.84-2.21,2.84-5.78c0-3.37-.84-5.68-2.84-5.68C63.24,28,62.08,30,62.08,33.72Z"/><path class="cls-5" d="M75.76,28.57h0L73.34,29.8,73,28.33l3-1.58h1.58V40.53H75.86v-12Z"/><path class="cls-5" d="M84.17,39.27a8.13,8.13,0,0,0,1.48-.11,4.82,4.82,0,0,0,2.84-1.37,5.57,5.57,0,0,0,1.79-3.68h-.11a4.2,4.2,0,0,1-7.36-2.73,4.76,4.76,0,0,1,4.58-4.94h.15c2.84,0,4.52,2.32,4.52,5.79a8.85,8.85,0,0,1-2.42,6.52,7.06,7.06,0,0,1-4,1.89,9.54,9.54,0,0,1-1.69.11V39.27Zm.64-8a2.69,2.69,0,0,0,2.42,2.94h.21a3.16,3.16,0,0,0,2.73-1.48,1.39,1.39,0,0,0,.21-.63c0-2.31-.84-4.2-2.84-4.2-1.58,0-2.72,1.5-2.72,3.39Z"/><path class="cls-5" d="M102.48,38.46a6.2,6.2,0,0,0,3.15.94c1.79,0,2.84-.94,2.84-2.31s-.73-2-2.63-2.74c-2.2-.84-3.68-2-3.68-3.89,0-2.1,1.79-3.78,4.42-3.78a6.85,6.85,0,0,1,3,.63l-.52,1.47a5.89,5.89,0,0,0-2.63-.63c-1.9,0-2.63,1.16-2.63,2.1,0,1.26.84,1.9,2.73,2.63,2.31.95,3.58,2,3.58,4.1s-1.58,4-4.84,4a8.08,8.08,0,0,1-3.58-.84Z"/><path class="cls-5" d="M114.36,35.93a3.17,3.17,0,0,0,2.82,3.47,3.37,3.37,0,0,0,.55,0,5.88,5.88,0,0,0,2.74-.52l.31,1.26a7.3,7.3,0,0,1-3.26.63c-3,0-4.84-2-4.84-5.05s1.79-5.36,4.63-5.36c3.26,0,4.1,2.84,4.1,4.63a1.86,1.86,0,0,1-.1.84h-7Zm5.26-1.26c0-1.16-.42-3-2.52-3a3,3,0,0,0-2.74,3Z"/><path class="cls-5" d="M129.51,40.56l-.1-1.26h-.11a3.71,3.71,0,0,1-3.05,1.47,2.82,2.82,0,0,1-3-2.58,2.17,2.17,0,0,1,0-.26c0-2.42,2.1-3.68,6-3.68V34a2,2,0,0,0-1.72-2.31,2.68,2.68,0,0,0-.49,0,5.51,5.51,0,0,0-2.63.74l-.42-1.16a6.29,6.29,0,0,1,3.26-.84c3,0,3.79,2.1,3.79,4.1v3.68a8.91,8.91,0,0,0,.21,2.42h-1.69Zm-.21-5.05c-2,0-4.21.32-4.21,2.21a1.55,1.55,0,0,0,1.4,1.68h.29a2.56,2.56,0,0,0,2.42-1.68,1.17,1.17,0,0,0,.1-.53Z"/><path class="cls-5" d="M134.14,38.77a5,5,0,0,0,2.42.74c1.26,0,1.89-.63,1.89-1.47s-.52-1.37-1.89-1.79c-1.79-.63-2.63-1.58-2.63-2.84,0-1.58,1.26-2.95,3.47-2.95a4.75,4.75,0,0,1,2.42.63l-.42,1.27a4.52,4.52,0,0,0-2-.53c-1.05,0-1.68.63-1.68,1.37s.63,1.15,1.89,1.68c1.69.63,2.63,1.47,2.63,2.95,0,1.78-1.37,2.94-3.68,2.94a7.52,7.52,0,0,1-2.84-.63Z"/><path class="cls-5" d="M151.81,35.51c0,3.68-2.52,5.26-4.94,5.26-2.74,0-4.73-2-4.73-5.15,0-3.37,2.2-5.26,4.94-5.26a4.81,4.81,0,0,1,4.74,4.89A2.26,2.26,0,0,1,151.81,35.51Zm-7.78.11c0,2.21,1.26,3.78,3.05,3.78s3-1.57,3-3.89c0-1.68-.84-3.79-2.95-3.79-2.31.11-3.15,2-3.15,3.9Z"/><path class="cls-5" d="M154.55,33.41a20.86,20.86,0,0,0-.11-2.74H156l.11,1.69h0a3.73,3.73,0,0,1,3.26-1.9c1.36,0,3.47.84,3.47,4.21v5.89h-1.79V34.88c0-1.58-.63-3-2.31-3a2.6,2.6,0,0,0-2.42,1.9,2,2,0,0,0-.11.84v6h-1.79V33.41Z"/><g id="svg_70" data-name="svg 70"><g id="svg_71" data-name="svg 71"><g id="Layer0_0_MEMBER_0_MEMBER_0_MEMBER_0_FILL" data-name="Layer0 0 MEMBER 0 MEMBER 0 MEMBER 0 FILL"><path id="svg_1" data-name="svg 1" class="cls-6" d="M114.84,7.79c0-2.52-.63-4.31-2-5.47a8.43,8.43,0,0,0-5.79-2h-5.4V16h4.94a8.93,8.93,0,0,0,6.1-2.11,8.57,8.57,0,0,0,2.11-6.1m-5.26-3.15a4.84,4.84,0,0,1,.84,3.26,6.05,6.05,0,0,1-.84,3.47,3.51,3.51,0,0,1-2.84,1.05h-1V3.59H107a3.14,3.14,0,0,1,2.57,1Z"/></g></g></g><g id="svg_72" data-name="svg 72"><g id="svg_73" data-name="svg 73"><g id="Layer0_0_MEMBER_0_MEMBER_0_MEMBER_1_FILL" data-name="Layer0 0 MEMBER 0 MEMBER 0 MEMBER 1 FILL"><path id="svg_2" data-name="svg 2" class="cls-6" d="M125.67,5a5.83,5.83,0,0,0-4.2-1.47,6,6,0,0,0-4.42,1.68,6.46,6.46,0,0,0-1.58,4.74,6.15,6.15,0,0,0,1.68,4.63,7.19,7.19,0,0,0,4.74,1.57,14.17,14.17,0,0,0,2.52-.1,12.76,12.76,0,0,0,2.1-.74v-3a12.86,12.86,0,0,1-2,.74,10.71,10.71,0,0,1-2.11.21,3,3,0,0,1-1.89-.63,2,2,0,0,1-.84-1.58h7.47V9.06A5.52,5.52,0,0,0,125.67,5m-5.26,1.9a2.22,2.22,0,0,1,1.27-.53,2,2,0,0,1,1.78,2h-3.57A1.9,1.9,0,0,1,120.41,6.85Z"/></g></g></g><g id="svg_74" data-name="svg 74"><g id="svg_75" data-name="svg 75"><g id="Layer0_0_MEMBER_0_MEMBER_0_MEMBER_2_FILL" data-name="Layer0 0 MEMBER 0 MEMBER 0 MEMBER 2 FILL"><path id="svg_3" data-name="svg 3" class="cls-6" d="M140.19,3.69h-4.31L133.77,11a11.27,11.27,0,0,0-.21,1.16h-.1v-.85c-.11,0-.11-.1-.11-.31v-.09l-2.1-7.15h-4.36l4.53,12.1h4.1l4.63-12.1Z"/></g></g></g><g id="svg_76" data-name="svg 76"><g id="svg_77" data-name="svg 77"><g id="Layer0_0_MEMBER_0_MEMBER_0_MEMBER_3_FILL" data-name="Layer0 0 MEMBER 0 MEMBER 0 MEMBER 3 FILL"><path id="svg_4" data-name="svg 4" class="cls-6" d="M149.76.22h-9.19V15.89h4.1V10.11h4.73V6.66h-4.73V3.61h5.05Z"/></g></g></g><g id="svg_78" data-name="svg 78"><g id="svg_79" data-name="svg 79"><g id="Layer0_0_MEMBER_0_MEMBER_0_MEMBER_4_FILL" data-name="Layer0 0 MEMBER 0 MEMBER 0 MEMBER 4 FILL"><path id="svg_5" data-name="svg 5" class="cls-6" d="M160.28,5a5.84,5.84,0,0,0-4.21-1.47,6,6,0,0,0-4.41,1.68,6.37,6.37,0,0,0-1.58,4.74,6.35,6.35,0,0,0,1.68,4.63,7.19,7.19,0,0,0,4.73,1.57,12.23,12.23,0,0,0,2.42-.1,12.87,12.87,0,0,0,2.11-.74v-3a13.37,13.37,0,0,1-2,.74,10.61,10.61,0,0,1-2.1.21,3,3,0,0,1-1.9-.63,1.66,1.66,0,0,1-.73-1.58h7.46V9.06A5.47,5.47,0,0,0,160.28,5m-5.15,1.9a2.16,2.16,0,0,1,1.26-.53,1.28,1.28,0,0,1,1.26.63,1.84,1.84,0,0,1,.53,1.37H154.6a1.91,1.91,0,0,1,.53-1.47Z"/></g></g></g><g id="svg_80" data-name="svg 80"><g id="svg_81" data-name="svg 81"><g id="Layer0_0_MEMBER_0_MEMBER_0_MEMBER_5_FILL" data-name="Layer0 0 MEMBER 0 MEMBER 0 MEMBER 5 FILL"><path id="svg_6" data-name="svg 6" class="cls-6" d="M172.13,12.21a2.7,2.7,0,0,0-.42-1.68,3.48,3.48,0,0,0-.85-1.16,6.87,6.87,0,0,0-1.89-1,13.14,13.14,0,0,1-2.1-.84c-.21-.11-.42-.21-.42-.53s.31-.52.94-.52a4.71,4.71,0,0,1,1.48.31,10.62,10.62,0,0,1,1.78.74l1.16-2.74a9.2,9.2,0,0,0-2.1-.74,7.92,7.92,0,0,0-2.21-.31,6.43,6.43,0,0,0-3.68.95,3,3,0,0,0-1.27,2.63,3.36,3.36,0,0,0,.74,2.21,7.28,7.28,0,0,0,2.31,1.57c1.16.53,1.9.84,2.11.95a.87.87,0,0,1,.42.63c0,.42-.42.63-1.37.63a11.6,11.6,0,0,1-4.21-1v3.26a10.19,10.19,0,0,0,2.11.53,12.73,12.73,0,0,0,2.31.1,6.32,6.32,0,0,0,3.79-.94,3.78,3.78,0,0,0,1.37-2.95Z"/></g></g></g><g id="svg_82" data-name="svg 82"><g id="svg_83" data-name="svg 83"><g id="Layer0_0_MEMBER_0_MEMBER_0_MEMBER_6_FILL" data-name="Layer0 0 MEMBER 0 MEMBER 0 MEMBER 6 FILL"><path id="svg_7" data-name="svg 7" class="cls-6" d="M172.48,5.27V7H174v5a5.43,5.43,0,0,0,.84,3.26,3.7,3.7,0,0,0,3,1.05,10.79,10.79,0,0,0,1.79-.21,7.84,7.84,0,0,0,1.57-.53V12.44a7.91,7.91,0,0,1-2.1.42c-.84,0-1.16-.42-1-1.15V7h3V3.82h-3V1.4h-2.73l-1.05,2.52-1.9,1.37Z"/></g></g></g><g id="svg_102" data-name="svg 102"><g id="svg_103" data-name="svg 103"><g id="Layer0_0_MEMBER_0_MEMBER_2_MEMBER_0_FILL" data-name="Layer0 0 MEMBER 0 MEMBER 2 MEMBER 0 FILL"><path id="svg_17" data-name="svg 17" class="cls-6" d="M51.15,2.32c-1.47,1.37-2.1,3.26-2.1,5.89a8.4,8.4,0,0,0,2,6,7.27,7.27,0,0,0,5.57,2.1,19.74,19.74,0,0,0,6.11-.94V7H56v3.26h2.84v2.42a13.3,13.3,0,0,1-1.78.21,3.15,3.15,0,0,1-2.63-1.15,5.18,5.18,0,0,1-.85-3.37,5.48,5.48,0,0,1,1-3.47,3.71,3.71,0,0,1,2.84-1.16A9,9,0,0,1,61,4.53l1.37-3.36A17.37,17.37,0,0,0,60.2.43,11.3,11.3,0,0,0,57.36.11,9.71,9.71,0,0,0,51.15,2.32Z"/></g></g></g><g id="svg_104" data-name="svg 104"><g id="svg_105" data-name="svg 105"><g id="Layer0_0_MEMBER_0_MEMBER_2_MEMBER_1_FILL" data-name="Layer0 0 MEMBER 0 MEMBER 2 MEMBER 1 FILL"><path id="svg_18" data-name="svg 18" class="cls-6" d="M77.92,7.58a7.47,7.47,0,0,0-2-5.47A8.45,8.45,0,0,0,70,.11H64.56V15.79h5a9.42,9.42,0,0,0,6.1-2.11,8.23,8.23,0,0,0,2.21-6.1M72.55,4.64c.63.63.84,1.68.84,3.26a5.48,5.48,0,0,1-.94,3.47,3.16,3.16,0,0,1-2.74,1.05h-.95V3.5H70a3.14,3.14,0,0,1,2.52,1.14Z"/></g></g></g><g id="svg_106" data-name="svg 106"><g id="svg_107" data-name="svg 107"><g id="Layer0_0_MEMBER_0_MEMBER_2_MEMBER_2_FILL" data-name="Layer0 0 MEMBER 0 MEMBER 2 MEMBER 2 FILL"><path id="svg_19" data-name="svg 19" class="cls-6" d="M92.43,15.26V6.85H85.7v3.26h2.84v2.42a17.83,17.83,0,0,1-1.79.21,3.14,3.14,0,0,1-2.63-1.16,6.13,6.13,0,0,1-.84-3.37,5.43,5.43,0,0,1,1-3.47A3.65,3.65,0,0,1,87,3.59a9,9,0,0,1,3.79.84l1.37-3.37C91.59.84,90.85.64,89.91.31A13.63,13.63,0,0,0,87.07,0a8.5,8.5,0,0,0-6,2.1C79.6,3.47,79,5.37,79,8a8.4,8.4,0,0,0,2,6,7.27,7.27,0,0,0,5.57,2.1A15.91,15.91,0,0,0,92.43,15.26Z"/></g></g></g><path class="cls-7" d="M18.32,93.79a3.46,3.46,0,0,1-2.94,1.68,3.28,3.28,0,0,1-1.68-.42l-12-6.94A3.45,3.45,0,0,1,.44,83.45a3.49,3.49,0,0,1,3-1.69,3.29,3.29,0,0,1,1.68.43l12,6.94A3.43,3.43,0,0,1,18.32,93.79Z"/><path class="cls-8" d="M24.32,76.64A3.48,3.48,0,0,1,27.27,75a3.33,3.33,0,0,1,1.68.42l12,6.94A3.44,3.44,0,0,1,42.2,87a3.48,3.48,0,0,1-2.94,1.68,3.34,3.34,0,0,1-1.69-.42l-12-6.94a3.36,3.36,0,0,1-1.31-4.55A.56.56,0,0,0,24.32,76.64Z"/><path class="cls-9" d="M17.06,81.27l-6,3.47L5.6,81.59a3.1,3.1,0,0,0-1.69-.53l9.79-5.68A3.28,3.28,0,0,1,15.38,75a3.46,3.46,0,0,1,2.94,1.68A3.43,3.43,0,0,1,17.06,81.27Z"/><path class="cls-10" d="M25.48,89.16l6-3.47,5.47,3.15a3.1,3.1,0,0,0,1.69.53l-9.79,5.68a3.28,3.28,0,0,1-1.68.42,3.49,3.49,0,0,1-2.95-1.68A3.53,3.53,0,0,1,25.48,89.16Z"/><path class="cls-5" d="M49.05,105.25V104.1l1.47-1.48c3.58-3.36,5.16-5.15,5.16-7.25a2.48,2.48,0,0,0-2.2-2.74,2.44,2.44,0,0,0-.54,0A4.77,4.77,0,0,0,50,93.79l-.63-1.37a5.86,5.86,0,0,1,3.89-1.37,3.86,3.86,0,0,1,4.19,3.5,4.1,4.1,0,0,1,0,.5c0,2.53-1.9,4.63-4.74,7.36l-1.15,1.06h6.2V105H49.05Z"/><path class="cls-5" d="M69.55,98.17c0,4.74-1.79,7.26-4.84,7.26-2.73,0-4.52-2.52-4.52-7s2-7.16,4.84-7.16S69.55,93.79,69.55,98.17Zm-7.47.22c0,3.57,1.06,5.68,2.84,5.68s2.84-2.21,2.84-5.79c0-3.37-.84-5.68-2.84-5.68-1.68.14-2.84,2.13-2.84,5.82Z"/><path class="cls-5" d="M75.76,93.26h0l-2.42,1.26L73,93.05l3-1.58h1.58v13.78H75.86v-12Z"/><path class="cls-5" d="M84.17,104a8.12,8.12,0,0,0,1.48-.1,4.88,4.88,0,0,0,2.84-1.37,5.6,5.6,0,0,0,1.79-3.68h-.11a4.21,4.21,0,0,1-7.36-2.74,4.76,4.76,0,0,1,4.58-4.94h.15c2.84,0,4.52,2.31,4.52,5.78a8.87,8.87,0,0,1-2.42,6.53,7.06,7.06,0,0,1-4,1.89,9.53,9.53,0,0,1-1.69.1V104Zm.64-8a2.68,2.68,0,0,0,2.42,2.93h.21a3.13,3.13,0,0,0,2.73-1.47,1.43,1.43,0,0,0,.21-.63c0-2.32-.84-4.21-2.84-4.21-1.58,0-2.72,1.47-2.72,3.37Z"/><path class="cls-5" d="M102.48,103.15a6.31,6.31,0,0,0,3.15.95c1.79,0,2.84-.95,2.84-2.32s-.73-2-2.63-2.73c-2.2-.84-3.68-2-3.68-3.89,0-2.11,1.79-3.79,4.42-3.79a7,7,0,0,1,3,.63l-.52,1.47a6,6,0,0,0-2.63-.63c-1.9,0-2.63,1.16-2.63,2.11,0,1.26.84,1.89,2.73,2.63,2.31.94,3.58,2,3.58,4.1s-1.58,4-4.84,4a8.08,8.08,0,0,1-3.58-.84Z"/><path class="cls-5" d="M114.36,100.63a3.17,3.17,0,0,0,2.82,3.46,3.37,3.37,0,0,0,.55,0,6,6,0,0,0,2.74-.53l.31,1.26a7.17,7.17,0,0,1-3.26.63c-3,0-4.84-2-4.84-5s1.79-5.37,4.63-5.37c3.26,0,4.1,2.84,4.1,4.63a1.86,1.86,0,0,1-.1.84h-7Zm5.26-1.27c0-1.15-.42-2.94-2.52-2.94a3,3,0,0,0-2.74,2.94Z"/><path class="cls-5" d="M129.51,105.25l-.1-1.26h-.11a3.68,3.68,0,0,1-3.05,1.47,2.81,2.81,0,0,1-3-2.57,2.44,2.44,0,0,1,0-.27c0-2.42,2.1-3.68,6-3.68v-.21a2,2,0,0,0-1.72-2.3,2,2,0,0,0-.49,0,5.5,5.5,0,0,0-2.63.73L123.94,96a6.11,6.11,0,0,1,3.26-.84c3,0,3.79,2.1,3.79,4.1v3.68a8.94,8.94,0,0,0,.21,2.42h-1.69Zm-.21-5c-2,0-4.21.32-4.21,2.21a1.56,1.56,0,0,0,1.4,1.69,1.41,1.41,0,0,0,.29,0,2.57,2.57,0,0,0,2.42-1.69,1.15,1.15,0,0,0,.1-.52Z"/><path class="cls-5" d="M134.14,103.43a5,5,0,0,0,2.42.74c1.26,0,1.89-.63,1.89-1.47s-.52-1.37-1.89-1.79c-1.79-.63-2.63-1.58-2.63-2.84,0-1.58,1.26-2.95,3.47-2.95a4.76,4.76,0,0,1,2.42.64L139.4,97a4.52,4.52,0,0,0-2-.53c-1.05,0-1.68.63-1.68,1.37s.63,1.16,1.89,1.68c1.69.63,2.63,1.47,2.63,2.95,0,1.79-1.37,2.94-3.68,2.94a7.52,7.52,0,0,1-2.84-.63Z"/><path class="cls-5" d="M151.81,100.2c0,3.69-2.52,5.26-4.94,5.26-2.74,0-4.73-2-4.73-5.15,0-3.37,2.2-5.26,4.94-5.26a4.81,4.81,0,0,1,4.74,4.89A2.17,2.17,0,0,1,151.81,100.2Zm-7.78.11c0,2.21,1.26,3.79,3.05,3.79s3-1.58,3-3.9c0-1.68-.84-3.78-2.95-3.78-2.31.1-3.15,2-3.15,3.86Z"/><path class="cls-5" d="M154.55,98.1a20.71,20.71,0,0,0-.11-2.73H156l.11,1.68h0a3.72,3.72,0,0,1,3.26-1.89c1.36,0,3.47.84,3.47,4.2v5.89h-1.79V99.57c0-1.57-.63-2.94-2.31-2.94a2.58,2.58,0,0,0-2.42,1.89,2,2,0,0,0-.11.84v6h-1.79V98.1Z"/><g id="svg_70-2" data-name="svg 70-2"><g id="svg_71-2" data-name="svg 71-2"><g id="Layer0_0_MEMBER_0_MEMBER_0_MEMBER_0_FILL-2" data-name="Layer0 0 MEMBER 0 MEMBER 0 MEMBER 0 FILL-2"><path id="svg_1-2" data-name="svg 1-2" class="cls-6" d="M114.84,72.49c0-2.53-.63-4.32-2-5.47a8.38,8.38,0,0,0-5.79-2h-5.4V80.69h4.94a9,9,0,0,0,6.1-2.1,8.57,8.57,0,0,0,2.11-6.1m-5.26-3.16a4.84,4.84,0,0,1,.84,3.26,6,6,0,0,1-.84,3.47,3.56,3.56,0,0,1-2.84,1.06h-1V68.28H107a3.14,3.14,0,0,1,2.57,1Z"/></g></g></g><g id="svg_72-2" data-name="svg 72-2"><g id="svg_73-2" data-name="svg 73-2"><g id="Layer0_0_MEMBER_0_MEMBER_0_MEMBER_1_FILL-2" data-name="Layer0 0 MEMBER 0 MEMBER 0 MEMBER 1 FILL-2"><path id="svg_2-2" data-name="svg 2-2" class="cls-6" d="M125.67,69.65a5.84,5.84,0,0,0-4.2-1.48,5.94,5.94,0,0,0-4.42,1.69,6.43,6.43,0,0,0-1.58,4.73,6.15,6.15,0,0,0,1.68,4.63,7.15,7.15,0,0,0,4.74,1.58,14.18,14.18,0,0,0,2.52-.11,12.72,12.72,0,0,0,2.1-.73V76.9a11.91,11.91,0,0,1-2,.74,10.71,10.71,0,0,1-2.11.21,2.9,2.9,0,0,1-1.89-.63,2,2,0,0,1-.84-1.58h7.47V73.75a5.49,5.49,0,0,0-1.48-4.1m-5.26,1.89a2.22,2.22,0,0,1,1.27-.53,2,2,0,0,1,1.78,2h-3.57A1.9,1.9,0,0,1,120.41,71.54Z"/></g></g></g><g id="svg_74-2" data-name="svg 74-2"><g id="svg_75-2" data-name="svg 75-2"><g id="Layer0_0_MEMBER_0_MEMBER_0_MEMBER_2_FILL-2" data-name="Layer0 0 MEMBER 0 MEMBER 0 MEMBER 2 FILL-2"><path id="svg_3-2" data-name="svg 3-2" class="cls-6" d="M140.19,68.38h-4.31l-2.11,7.26a11.27,11.27,0,0,0-.21,1.16h-.1V76c-.11,0-.11-.11-.11-.32v-.21l-2.1-7.15h-4.36l4.53,12.1h4.1l4.63-12Z"/></g></g></g><g id="svg_76-2" data-name="svg 76-2"><g id="svg_77-2" data-name="svg 77-2"><g id="Layer0_0_MEMBER_0_MEMBER_0_MEMBER_3_FILL-2" data-name="Layer0 0 MEMBER 0 MEMBER 0 MEMBER 3 FILL-2"><path id="svg_4-2" data-name="svg 4-2" class="cls-6" d="M149.76,64.91h-9.19V80.59h4.1V74.8h4.73V71.33h-4.73v-3h5.05Z"/></g></g></g><g id="svg_78-2" data-name="svg 78-2"><g id="svg_79-2" data-name="svg 79-2"><g id="Layer0_0_MEMBER_0_MEMBER_0_MEMBER_4_FILL-2" data-name="Layer0 0 MEMBER 0 MEMBER 0 MEMBER 4 FILL-2"><path id="svg_5-2" data-name="svg 5-2" class="cls-6" d="M160.28,69.65a5.85,5.85,0,0,0-4.21-1.48,5.93,5.93,0,0,0-4.41,1.69,6.35,6.35,0,0,0-1.58,4.73,6.32,6.32,0,0,0,1.68,4.63,7.14,7.14,0,0,0,4.73,1.58,12.23,12.23,0,0,0,2.42-.11A12.83,12.83,0,0,0,161,80V76.9a12.35,12.35,0,0,1-2,.74,10.61,10.61,0,0,1-2.1.21,2.9,2.9,0,0,1-1.9-.63,1.64,1.64,0,0,1-.73-1.58h7.46V73.75a5.45,5.45,0,0,0-1.47-4.1m-5.15,1.89a2.16,2.16,0,0,1,1.26-.53,1.27,1.27,0,0,1,1.26.64,1.81,1.81,0,0,1,.53,1.36H154.6a1.91,1.91,0,0,1,.53-1.47Z"/></g></g></g><g id="svg_80-2" data-name="svg 80-2"><g id="svg_81-2" data-name="svg 81-2"><g id="Layer0_0_MEMBER_0_MEMBER_0_MEMBER_5_FILL-2" data-name="Layer0 0 MEMBER 0 MEMBER 0 MEMBER 5 FILL-2"><path id="svg_6-2" data-name="svg 6-2" class="cls-6" d="M172.13,76.9a2.7,2.7,0,0,0-.42-1.68,3.59,3.59,0,0,0-.85-1.16A6.87,6.87,0,0,0,169,73a13.14,13.14,0,0,1-2.1-.84c-.21-.1-.42-.21-.42-.52s.31-.53.94-.53a4.71,4.71,0,0,1,1.48.31,10.62,10.62,0,0,1,1.78.74l1.16-2.73a8.77,8.77,0,0,0-2.1-.75,7.92,7.92,0,0,0-2.21-.31,6.58,6.58,0,0,0-3.68,1A3,3,0,0,0,162.55,72a3.34,3.34,0,0,0,.74,2.21,7.31,7.31,0,0,0,2.31,1.58c1.16.52,1.9.83,2.11.94a.87.87,0,0,1,.42.64c0,.42-.42.63-1.37.63a11.62,11.62,0,0,1-4.21-1.06v3.27a10.17,10.17,0,0,0,2.11.52,12.73,12.73,0,0,0,2.31.11,6.33,6.33,0,0,0,3.79-1,3.77,3.77,0,0,0,1.37-2.95Z"/></g></g></g><g id="svg_82-2" data-name="svg 82-2"><g id="svg_83-2" data-name="svg 83-2"><g id="Layer0_0_MEMBER_0_MEMBER_0_MEMBER_6_FILL-2" data-name="Layer0 0 MEMBER 0 MEMBER 0 MEMBER 6 FILL-2"><path id="svg_7-2" data-name="svg 7-2" class="cls-6" d="M172.48,70v1.69H174v4.94a5.43,5.43,0,0,0,.84,3.26,3.67,3.67,0,0,0,3,1.05,10.79,10.79,0,0,0,1.79-.21,8.5,8.5,0,0,0,1.57-.52v-3a8.33,8.33,0,0,1-2.1.42c-.84,0-1.16-.42-1-1.16V71.67h3V68.51h-3V66.09h-2.73l-1.05,2.53L172.48,70Z"/></g></g></g><g id="svg_102-2" data-name="svg 102-2"><g id="svg_103-2" data-name="svg 103-2"><g id="Layer0_0_MEMBER_0_MEMBER_2_MEMBER_0_FILL-2" data-name="Layer0 0 MEMBER 0 MEMBER 2 MEMBER 0 FILL-2"><path id="svg_17-2" data-name="svg 17-2" class="cls-6" d="M51.15,67c-1.47,1.36-2.1,3.26-2.1,5.89a8.39,8.39,0,0,0,2,6A7.28,7.28,0,0,0,56.62,81a19.46,19.46,0,0,0,6.11-1V71.65H56v3.26h2.84v2.42a17.64,17.64,0,0,1-1.78.21,3.19,3.19,0,0,1-2.63-1.16A5.15,5.15,0,0,1,53.57,73a5.49,5.49,0,0,1,1-3.47,3.71,3.71,0,0,1,2.84-1.16,9,9,0,0,1,3.68.85l1.37-3.37a19.1,19.1,0,0,0-2.21-.74,11.29,11.29,0,0,0-2.84-.31A9.6,9.6,0,0,0,51.15,67Z"/></g></g></g><g id="svg_104-2" data-name="svg 104-2"><g id="svg_105-2" data-name="svg 105-2"><g id="Layer0_0_MEMBER_0_MEMBER_2_MEMBER_1_FILL-2" data-name="Layer0 0 MEMBER 0 MEMBER 2 MEMBER 1 FILL-2"><path id="svg_18-2" data-name="svg 18-2" class="cls-6" d="M77.92,72.28a7.46,7.46,0,0,0-2-5.47,8.41,8.41,0,0,0-5.89-2H64.56V80.48h5a9.41,9.41,0,0,0,6.1-2.1,8.24,8.24,0,0,0,2.21-6.1m-5.37-3c.63.63.84,1.68.84,3.26a5.47,5.47,0,0,1-.94,3.47,3.2,3.2,0,0,1-2.74,1.06h-.95V68.28H70a2.82,2.82,0,0,1,2.52,1Z"/></g></g></g><g id="svg_106-2" data-name="svg 106-2"><g id="svg_107-2" data-name="svg 107-2"><g id="Layer0_0_MEMBER_0_MEMBER_2_MEMBER_2_FILL-2" data-name="Layer0 0 MEMBER 0 MEMBER 2 MEMBER 2 FILL-2"><path id="svg_19-2" data-name="svg 19-2" class="cls-6" d="M92.43,80V71.54H85.7V74.8h2.84v2.42a17.83,17.83,0,0,1-1.79.21,3.14,3.14,0,0,1-2.63-1.16,6.08,6.08,0,0,1-.84-3.36,5.41,5.41,0,0,1,1-3.47A3.62,3.62,0,0,1,87,68.28a9,9,0,0,1,3.79.84l1.37-3.37c-.53-.22-1.27-.42-2.21-.74a13,13,0,0,0-2.84-.31,8.51,8.51,0,0,0-6,2.11C79.6,68.16,79,70.07,79,72.7a8.39,8.39,0,0,0,2,6,7.28,7.28,0,0,0,5.57,2.11A16.12,16.12,0,0,0,92.43,80Z"/></g></g></g><path class="cls-1" d="M18.32,163.39a3.47,3.47,0,0,1-2.94,1.69,3.38,3.38,0,0,1-1.68-.42l-12-6.81a3.45,3.45,0,0,1-1.26-4.63,3.49,3.49,0,0,1,2.95-1.68,3.28,3.28,0,0,1,1.68.42l12,6.94a3.3,3.3,0,0,1,1.26,4.49Z"/><path class="cls-2" d="M24.32,146.28a3.48,3.48,0,0,1,2.95-1.68A3.33,3.33,0,0,1,29,145l12,6.94a3.44,3.44,0,0,1,1.26,4.63,3.48,3.48,0,0,1-2.94,1.68,3.34,3.34,0,0,1-1.69-.42l-12-6.94a3.36,3.36,0,0,1-1.31-4.55Z"/><path class="cls-3" d="M17.06,150.91l-6,3.47L5.6,151.22a3.17,3.17,0,0,0-1.69-.52L13.7,145a3.28,3.28,0,0,1,1.68-.42,3.46,3.46,0,0,1,2.94,1.68A3.43,3.43,0,0,1,17.06,150.91Z"/><path class="cls-4" d="M25.48,158.8l6-3.47,5.47,3.15a3.18,3.18,0,0,0,1.69.53l-9.79,5.68a3.38,3.38,0,0,1-1.68.42,3.49,3.49,0,0,1-2.95-1.68A3.53,3.53,0,0,1,25.48,158.8Z"/><path class="cls-11" d="M49.05,175v-1.16l1.47-1.47c3.58-3.37,5.16-5.16,5.16-7.26a2.48,2.48,0,0,0-2.2-2.74,2.44,2.44,0,0,0-.54,0A4.77,4.77,0,0,0,50,163.5l-.63-1.37a5.86,5.86,0,0,1,3.89-1.37,3.87,3.87,0,0,1,4.19,3.5,4.18,4.18,0,0,1,0,.5c0,2.53-1.9,4.63-4.74,7.37l-1.15,1.05h6.2v1.57H49.05Z"/><path class="cls-11" d="M69.55,168c0,4.73-1.79,7.26-4.84,7.26-2.73,0-4.52-2.53-4.52-7.05S62.19,161,65,161,69.55,163.53,69.55,168Zm-7.47.21c0,3.58,1.06,5.68,2.84,5.68s2.84-2.21,2.84-5.79c0-3.36-.84-5.68-2.84-5.68C63.24,162.34,62.08,164.37,62.08,168.16Z"/><path class="cls-11" d="M75.76,162.9h0l-2.42,1.26L73,162.69l3-1.58h1.58V175H75.86v-12.1Z"/><path class="cls-11" d="M84.17,173.63a8.13,8.13,0,0,0,1.48-.11,4.81,4.81,0,0,0,2.84-1.36,5.62,5.62,0,0,0,1.79-3.69h-.11a4.2,4.2,0,0,1-7.36-2.74,4.76,4.76,0,0,1,4.57-4.93h.16c2.84,0,4.52,2.3,4.52,5.78a8.83,8.83,0,0,1-2.42,6.51,7.09,7.09,0,0,1-4,1.91,10.58,10.58,0,0,1-1.69.1v-1.47Zm.64-7.89a2.68,2.68,0,0,0,2.42,2.93l.21,0a3.16,3.16,0,0,0,2.73-1.48,1.43,1.43,0,0,0,.21-.63c0-2.31-.84-4.21-2.84-4.21-1.58,0-2.72,1.37-2.72,3.37Z"/><path class="cls-11" d="M102.48,172.79a6.2,6.2,0,0,0,3.15.94c1.79,0,2.84-.94,2.84-2.31s-.73-2-2.63-2.73c-2.2-.86-3.68-2-3.68-3.9,0-2.1,1.79-3.79,4.42-3.79a7,7,0,0,1,3,.64l-.52,1.46a6,6,0,0,0-2.63-.63c-1.9,0-2.63,1.16-2.63,2.1,0,1.26.84,1.9,2.73,2.63,2.31,1,3.58,2,3.58,4.1s-1.58,4-4.84,4a8.08,8.08,0,0,1-3.58-.84Z"/><path class="cls-11" d="M114.36,170.37a3.17,3.17,0,0,0,2.82,3.46,3.37,3.37,0,0,0,.55,0,6,6,0,0,0,2.74-.53l.31,1.27a7.44,7.44,0,0,1-3.26.63c-3,0-4.84-2-4.84-5.05s1.79-5.37,4.63-5.37c3.26,0,4.1,2.84,4.1,4.63a1.84,1.84,0,0,1-.1.84h-7Zm5.26-1.37c0-1.16-.42-2.94-2.52-2.94a3,3,0,0,0-2.74,2.94Z"/><path class="cls-11" d="M129.51,175l-.1-1.27h-.11a3.72,3.72,0,0,1-3.05,1.48,2.83,2.83,0,0,1-3-2.58,2.35,2.35,0,0,1,0-.26c0-2.42,2.1-3.69,6-3.69v-.21a2,2,0,0,0-1.72-2.3,2,2,0,0,0-.49,0,5.4,5.4,0,0,0-2.63.74l-.42-1.16a6.11,6.11,0,0,1,3.26-.84c3,0,3.79,2.1,3.79,4.1v3.68a8.94,8.94,0,0,0,.21,2.42h-1.69Zm-.21-5.16c-2,0-4.21.32-4.21,2.21a1.55,1.55,0,0,0,1.4,1.68,1.41,1.41,0,0,0,.29,0A2.56,2.56,0,0,0,129.2,172a1.17,1.17,0,0,0,.1-.53Z"/><path class="cls-11" d="M134.14,173.1a5,5,0,0,0,2.42.74c1.26,0,1.89-.63,1.89-1.47s-.52-1.37-1.89-1.79c-1.79-.63-2.63-1.58-2.63-2.84,0-1.58,1.26-3,3.47-3a4.75,4.75,0,0,1,2.42.63l-.42,1.27a4.52,4.52,0,0,0-2-.53c-1.05,0-1.68.63-1.68,1.37s.63,1.16,1.89,1.68c1.69.63,2.63,1.47,2.63,2.95,0,1.78-1.37,2.94-3.68,2.94a7.52,7.52,0,0,1-2.84-.63Z"/><path class="cls-11" d="M151.81,170c0,3.68-2.52,5.26-4.94,5.26-2.74,0-4.73-2-4.73-5.16,0-3.36,2.2-5.26,4.94-5.26S151.81,166.9,151.81,170Zm-7.78.1c0,2.21,1.26,3.79,3.05,3.79s3-1.58,3-3.89c0-1.69-.84-3.79-2.95-3.79-2.31,0-3.15,2-3.15,3.89Z"/><path class="cls-11" d="M154.55,167.74a20.93,20.93,0,0,0-.11-2.74H156l.11,1.69h0a3.73,3.73,0,0,1,3.26-1.9c1.36,0,3.47.84,3.47,4.21v5.89h-1.79v-5.68c0-1.58-.63-2.94-2.31-2.94a2.58,2.58,0,0,0-2.42,1.89,2,2,0,0,0-.11.84v6h-1.79v-7.26Z"/><g id="svg_70-3" data-name="svg 70-3"><g id="svg_71-3" data-name="svg 71-3"><g id="Layer0_0_MEMBER_0_MEMBER_0_MEMBER_0_FILL-3" data-name="Layer0 0 MEMBER 0 MEMBER 0 MEMBER 0 FILL-3"><path id="svg_1-3" data-name="svg 1-3" class="cls-11" d="M114.84,142.12c0-2.52-.63-4.31-2-5.47a8.32,8.32,0,0,0-5.79-2h-5.4v15.67h4.94a9,9,0,0,0,6.1-2.1,8.61,8.61,0,0,0,2.11-6.11M109.54,139a4.84,4.84,0,0,1,.84,3.26,6,6,0,0,1-.84,3.47,3.51,3.51,0,0,1-2.84,1.05h-1v-8.83H107a3.14,3.14,0,0,1,2.57,1.05Z"/></g></g></g><g id="svg_72-3" data-name="svg 72-3"><g id="svg_73-3" data-name="svg 73-3"><g id="Layer0_0_MEMBER_0_MEMBER_0_MEMBER_1_FILL-3" data-name="Layer0 0 MEMBER 0 MEMBER 0 MEMBER 1 FILL-3"><path id="svg_2-3" data-name="svg 2-3" class="cls-11" d="M125.67,139.39a5.79,5.79,0,0,0-4.2-1.47,5.89,5.89,0,0,0-4.42,1.68,6.45,6.45,0,0,0-1.58,4.73,6.15,6.15,0,0,0,1.68,4.63,7.15,7.15,0,0,0,4.74,1.58,14.18,14.18,0,0,0,2.52-.11,12.72,12.72,0,0,0,2.1-.73v-3.16a12.86,12.86,0,0,1-2,.74,10.71,10.71,0,0,1-2.11.21,3,3,0,0,1-1.89-.63,2,2,0,0,1-.84-1.58h7.47v-1.87a5.12,5.12,0,0,0-1.48-4m-5.26,1.89a2.21,2.21,0,0,1,1.27-.52,2,2,0,0,1,1.78,2h-3.57A1.78,1.78,0,0,1,120.41,141.3Z"/></g></g></g><g id="svg_74-3" data-name="svg 74-3"><g id="svg_75-3" data-name="svg 75-3"><g id="Layer0_0_MEMBER_0_MEMBER_0_MEMBER_2_FILL-3" data-name="Layer0 0 MEMBER 0 MEMBER 0 MEMBER 2 FILL-3"><path id="svg_3-3" data-name="svg 3-3" class="cls-11" d="M140.19,138h-4.31l-2.11,7.26a11.27,11.27,0,0,0-.21,1.16h-.1v-.84c-.11,0-.11-.11-.11-.32v-.21l-2.1-7.15h-4.36L131.42,150h4.1l4.63-12Z"/></g></g></g><g id="svg_76-3" data-name="svg 76-3"><g id="svg_77-3" data-name="svg 77-3"><g id="Layer0_0_MEMBER_0_MEMBER_0_MEMBER_3_FILL-3" data-name="Layer0 0 MEMBER 0 MEMBER 0 MEMBER 3 FILL-3"><path id="svg_4-3" data-name="svg 4-3" class="cls-11" d="M149.76,134.55h-9.19v15.67h4.1v-5.76h4.73V141h-4.73v-3.05h5.05Z"/></g></g></g><g id="svg_78-3" data-name="svg 78-3"><g id="svg_79-3" data-name="svg 79-3"><g id="Layer0_0_MEMBER_0_MEMBER_0_MEMBER_4_FILL-3" data-name="Layer0 0 MEMBER 0 MEMBER 0 MEMBER 4 FILL-3"><path id="svg_5-3" data-name="svg 5-3" class="cls-11" d="M160.28,139.39a5.8,5.8,0,0,0-4.21-1.47,5.88,5.88,0,0,0-4.41,1.68,7.53,7.53,0,0,0,.1,9.36,7.14,7.14,0,0,0,4.73,1.58,12.23,12.23,0,0,0,2.42-.11,12.83,12.83,0,0,0,2.11-.73v-3.16a13.37,13.37,0,0,1-2,.74,10.61,10.61,0,0,1-2.1.21,3,3,0,0,1-1.9-.63,1.66,1.66,0,0,1-.73-1.58h7.46v-1.87a5.08,5.08,0,0,0-1.47-4m-5.15,1.89a2.15,2.15,0,0,1,1.26-.52,1.25,1.25,0,0,1,1.26.63,1.84,1.84,0,0,1,.53,1.37H154.6a1.78,1.78,0,0,1,.53-1.48Z"/></g></g></g><g id="svg_80-3" data-name="svg 80-3"><g id="svg_81-3" data-name="svg 81-3"><g id="Layer0_0_MEMBER_0_MEMBER_0_MEMBER_5_FILL-3" data-name="Layer0 0 MEMBER 0 MEMBER 0 MEMBER 5 FILL-3"><path id="svg_6-3" data-name="svg 6-3" class="cls-11" d="M172.13,146.56a2.7,2.7,0,0,0-.42-1.68,3.59,3.59,0,0,0-.85-1.16,7.14,7.14,0,0,0-1.89-1.05,13.14,13.14,0,0,1-2.1-.84c-.21-.11-.42-.21-.42-.53s.31-.52.94-.52a4.71,4.71,0,0,1,1.48.31,10.62,10.62,0,0,1,1.78.74l1.16-2.74a9.87,9.87,0,0,0-2.1-.73,7.88,7.88,0,0,0-2.21-.32,6.58,6.58,0,0,0-3.68,1,3,3,0,0,0-1.27,2.63,3.29,3.29,0,0,0,.74,2.21,7.48,7.48,0,0,0,2.31,1.58l2.11.94c.21.21.42.42.42.63,0,.42-.42.64-1.37.64a11.62,11.62,0,0,1-4.21-1.06v3.26a10.19,10.19,0,0,0,2.11.53,13.7,13.7,0,0,0,2.31.11,6.33,6.33,0,0,0,3.79-1A3.78,3.78,0,0,0,172.13,146.56Z"/></g></g></g><g id="svg_82-3" data-name="svg 82-3"><g id="svg_83-3" data-name="svg 83-3"><g id="Layer0_0_MEMBER_0_MEMBER_0_MEMBER_6_FILL-3" data-name="Layer0 0 MEMBER 0 MEMBER 0 MEMBER 6 FILL-3"><path id="svg_7-3" data-name="svg 7-3" class="cls-11" d="M172.48,139.6v1.7H174v4.95a5.43,5.43,0,0,0,.84,3.26,3.7,3.7,0,0,0,3,1.05,10.79,10.79,0,0,0,1.79-.21,7.84,7.84,0,0,0,1.57-.53v-3a7.91,7.91,0,0,1-2.1.42c-.84,0-1.16-.42-1-1.15V141.3h3v-3.15h-3v-2.42h-2.73l-1.05,2.52-1.9,1.37Z"/></g></g></g><g id="svg_102-3" data-name="svg 102-3"><g id="svg_103-3" data-name="svg 103-3"><g id="Layer0_0_MEMBER_0_MEMBER_2_MEMBER_0_FILL-3" data-name="Layer0 0 MEMBER 0 MEMBER 2 MEMBER 0 FILL-3"><path id="svg_17-3" data-name="svg 17-3" class="cls-11" d="M51.15,136.65c-1.47,1.37-2.1,3.27-2.1,5.89a8.3,8.3,0,0,0,2,6,7.27,7.27,0,0,0,5.57,2.1,19.52,19.52,0,0,0,6.11-.92V141.3H56v3.26h2.84V147a13.3,13.3,0,0,1-1.78.21A3.15,3.15,0,0,1,54.42,146a5.15,5.15,0,0,1-.85-3.37,5.49,5.49,0,0,1,1-3.47A3.71,3.71,0,0,1,57.36,138a9.16,9.16,0,0,1,3.68.84l1.37-3.36a17.37,17.37,0,0,0-2.21-.74,11.78,11.78,0,0,0-2.84-.31A9.63,9.63,0,0,0,51.15,136.65Z"/></g></g></g><g id="svg_104-3" data-name="svg 104-3"><g id="svg_105-3" data-name="svg 105-3"><g id="Layer0_0_MEMBER_0_MEMBER_2_MEMBER_1_FILL-3" data-name="Layer0 0 MEMBER 0 MEMBER 2 MEMBER 1 FILL-3"><path id="svg_18-3" data-name="svg 18-3" class="cls-11" d="M77.92,141.91a7.49,7.49,0,0,0-2-5.47,8.45,8.45,0,0,0-5.89-2H64.56v15.67h5a9.36,9.36,0,0,0,6.1-2.11,8,8,0,0,0,2.21-6.1M72.55,139c.63.63.84,1.68.84,3.26a5.48,5.48,0,0,1-.94,3.47,3.16,3.16,0,0,1-2.74,1.05h-.95v-8.83H70A3.15,3.15,0,0,1,72.55,139Z"/></g></g></g><g id="svg_106-3" data-name="svg 106-3"><g id="svg_107-3" data-name="svg 107-3"><g id="Layer0_0_MEMBER_0_MEMBER_2_MEMBER_2_FILL-3" data-name="Layer0 0 MEMBER 0 MEMBER 2 MEMBER 2 FILL-3"><path id="svg_19-3" data-name="svg 19-3" class="cls-11" d="M92.43,149.59v-8.41H85.7v3.28h2.84v2.42a17.83,17.83,0,0,1-1.79.21,3.14,3.14,0,0,1-2.63-1.16,6.1,6.1,0,0,1-.84-3.36,5.46,5.46,0,0,1,1-3.48A3.65,3.65,0,0,1,87,137.94a9,9,0,0,1,3.79.84l1.37-3.38c-.53-.21-1.27-.42-2.21-.73a13,13,0,0,0-2.84-.32,8.56,8.56,0,0,0-6,2.1c-1.47,1.37-2.1,3.27-2.1,5.9a8.28,8.28,0,0,0,2,6,7.37,7.37,0,0,0,5.57,2.11A15.93,15.93,0,0,0,92.43,149.59Z"/></g></g></g></svg>