<?xml version="1.0" encoding="utf-8"?>
<!-- Generator: Adobe Illustrator 19.0.0, SVG Export Plug-In . SVG Version: 6.00 Build 0)  -->
<svg version="1.1" id="Layer_1" xmlns="http://www.w3.org/2000/svg" xmlns:xlink="http://www.w3.org/1999/xlink" x="0px" y="0px"
	 viewBox="-507 357 185 188" style="enable-background:new -507 357 185 188;" xml:space="preserve">
<style type="text/css">
	.st0{fill:#4E4E4E;}
	.st1{fill:url(#SVGID_1_);}
	.st2{fill:url(#SVGID_2_);}
	.st3{fill:url(#SVGID_3_);}
	.st4{fill:url(#SVGID_4_);}
	.st5{fill:url(#SVGID_5_);}
	.st6{fill:url(#SVGID_6_);}
	.st7{fill:url(#SVGID_7_);}
	.st8{fill:url(#SVGID_8_);}
	.st9{fill:#E6E6E5;}
	.st10{fill:url(#SVGID_9_);}
	.st11{fill:url(#SVGID_10_);}
	.st12{fill:url(#SVGID_11_);}
	.st13{fill:url(#SVGID_12_);}
	.st14{font-family:'Arial-BoldMT';}
	.st15{font-size:23.05px;}
</style>
<g transform="matrix( 1, 0, 0, 1, 213.55,-303.05) ">
	<g>
		<g id="Layer0_0_MEMBER_0_MEMBER_0_MEMBER_0_FILL">
			<path class="st0" d="M-604,678c0-2.6-0.7-4.4-2-5.6c-1.4-1.3-3.4-2-5.9-2h-5.5v16h5.1c2.6,0,4.6-0.7,6.2-2.2
				C-604.7,682.8-604,680.7-604,678 M-609.4,674.8c0.6,0.7,0.9,1.8,0.9,3.3c0,1.6-0.3,2.8-0.9,3.5c-0.6,0.7-1.6,1.1-2.9,1.1h-1v-9
				h1.3C-610.9,673.7-610,674.1-609.4,674.8z"/>
		</g>
	</g>
</g>
<g transform="matrix( 1, 0, 0, 1, 213.55,-303.05) ">
	<g>
		<g id="Layer0_0_MEMBER_0_MEMBER_0_MEMBER_1_FILL">
			<path class="st0" d="M-592.9,675.2c-1-1-2.4-1.5-4.3-1.5c-1.9,0-3.4,0.6-4.5,1.7c-1.1,1.1-1.6,2.7-1.6,4.8c0,2,0.6,3.6,1.7,4.7
				c1.3,1.1,2.9,1.6,4.8,1.6c1.3,0,2.1,0,2.5-0.1c0.5-0.1,1.2-0.3,2.1-0.7v-3.1c-0.9,0.4-1.6,0.6-2,0.7c-1.2,0.2-1.9,0.3-2.1,0.3
				c-0.7,0-1.4-0.2-1.9-0.6c-0.6-0.4-0.8-0.9-0.8-1.6h7.6v-1.9C-591.4,677.6-591.9,676.2-592.9,675.2 M-598.3,677.1
				c0.4-0.3,0.9-0.5,1.3-0.5c0.5,0,0.9,0.2,1.3,0.6c0.3,0.3,0.5,0.8,0.5,1.4h-3.7C-598.8,677.9-598.6,677.4-598.3,677.1z"/>
		</g>
	</g>
</g>
<g transform="matrix( 1, 0, 0, 1, 213.55,-303.05) ">
	<g>
		<g id="Layer0_0_MEMBER_0_MEMBER_0_MEMBER_2_FILL">
			<path class="st0" d="M-578.1,673.9h-4.4l-2.2,7.4c-0.1,0.5-0.2,0.9-0.2,1.2h-0.1V682l0-0.4c-0.1,0-0.1-0.1-0.1-0.3v-0.2l-2.1-7.3
				h-4.4l4.7,12.4h4.2L-578.1,673.9z"/>
		</g>
	</g>
</g>
<g transform="matrix( 1, 0, 0, 1, 213.55,-303.05) ">
	<g>
		<g id="Layer0_0_MEMBER_0_MEMBER_0_MEMBER_3_FILL">
			<path class="st0" d="M-568.3,670.3h-9.4v16h4.2l0-5.9h4.8v-3.5h-4.8v-3.1h5.2V670.3z"/>
		</g>
	</g>
</g>
<g transform="matrix( 1, 0, 0, 1, 213.55,-303.05) ">
	<g>
		<g id="Layer0_0_MEMBER_0_MEMBER_0_MEMBER_4_FILL">
			<path class="st0" d="M-557.5,675.2c-1-1-2.4-1.5-4.3-1.5c-1.9,0-3.4,0.6-4.5,1.7c-1.1,1.1-1.6,2.7-1.6,4.8c0,1.9,0.6,3.5,1.7,4.7
				c1.3,1.1,2.9,1.6,4.8,1.6c1.3,0,2.1,0,2.5-0.1c0.5-0.1,1.2-0.3,2.1-0.7v-3.1c-1,0.4-1.6,0.6-2,0.7c-1.2,0.2-1.9,0.3-2.1,0.3
				c-0.7,0-1.4-0.2-1.9-0.6c-0.5-0.4-0.8-0.9-0.8-1.6h7.6v-1.9C-556,677.6-556.5,676.2-557.5,675.2 M-562.8,677.1
				c0.4-0.3,0.8-0.5,1.3-0.5c0.6,0,1,0.2,1.3,0.6c0.3,0.3,0.5,0.8,0.5,1.4h-3.7C-563.3,677.9-563.2,677.4-562.8,677.1z"/>
		</g>
	</g>
</g>
<g transform="matrix( 1, 0, 0, 1, 213.55,-303.05) ">
	<g>
		<g id="Layer0_0_MEMBER_0_MEMBER_0_MEMBER_5_FILL">
			<path class="st0" d="M-545.4,682.5c0-0.7-0.1-1.3-0.4-1.8c-0.1-0.3-0.4-0.7-0.9-1.2c-0.3-0.3-0.9-0.7-1.9-1.1
				c-0.8-0.3-1.5-0.6-2.1-0.9c-0.3-0.1-0.4-0.3-0.4-0.5c0-0.3,0.3-0.5,1-0.5c0.4,0,0.9,0.1,1.5,0.3c0.8,0.3,1.4,0.5,1.8,0.7l1.2-2.8
				c-0.4-0.2-1.1-0.5-2.2-0.8c-0.7-0.2-1.5-0.3-2.3-0.3c-1.5,0-2.8,0.3-3.8,1c-0.9,0.6-1.3,1.5-1.3,2.7c0,0.8,0.2,1.6,0.7,2.3
				c0.5,0.5,1.3,1.1,2.4,1.6c1.2,0.5,2,0.9,2.2,1c0.3,0.2,0.4,0.4,0.4,0.6c0,0.4-0.5,0.6-1.4,0.6c-0.6,0-1.3-0.1-2.1-0.3
				c-0.5-0.1-1.3-0.4-2.2-0.7v3.4c0.6,0.2,1.3,0.4,2.1,0.5c0.5,0.1,1.3,0.1,2.4,0.1c1.7,0,3-0.3,3.9-1
				C-545.9,684.8-545.4,683.8-545.4,682.5z"/>
		</g>
	</g>
</g>
<g transform="matrix( 1, 0, 0, 1, 213.55,-303.05) ">
	<g>
		<g id="Layer0_0_MEMBER_0_MEMBER_0_MEMBER_6_FILL">
			<path class="st0" d="M-545,675.4v1.7h1.5v5.1c0,1.5,0.3,2.6,0.9,3.3c0.6,0.7,1.7,1.1,3.1,1.1c0.5,0,1.1-0.1,1.8-0.2
				c0.2,0,0.7-0.2,1.6-0.5v-3.1c-0.8,0.3-1.5,0.4-2.1,0.4c-0.8,0-1.2-0.4-1-1.2v-4.8h3V674h-3v-2.5h-2.8l-1.1,2.6L-545,675.4z"/>
		</g>
	</g>
</g>
<g transform="matrix( 1, 0, 0, 1, 213.55,-303.05) ">
	<g>
		<g id="Layer0_0_MEMBER_0_MEMBER_1_MEMBER_0_FILL">
			<path class="st0" d="M-669.9,706v1.9h10.3l0.1-2.2h-7.2v-0.1l2.6-2.5c1.5-1.5,2.3-2.4,2.5-2.6c0.6-0.9,1-1.5,1.1-1.9
				c0.3-0.5,0.4-1.2,0.4-1.9c0-1.2-0.4-2.2-1.3-3c-0.9-0.7-2.1-1.1-3.4-1.1c-1,0-1.8,0.1-2.5,0.4c-0.9,0.3-1.7,0.8-2.5,1.5l1.3,1.6
				c0.6-0.5,1.2-0.9,1.9-1.3c0.7-0.2,1.2-0.3,1.7-0.3c0.7,0,1.3,0.2,1.7,0.6c0.4,0.4,0.6,0.9,0.6,1.6c0,0.1-0.1,0.6-0.3,1.4
				c-0.1,0.4-0.4,0.9-0.8,1.4L-669.9,706z"/>
		</g>
	</g>
</g>
<g transform="matrix( 1, 0, 0, 1, 213.55,-303.05) ">
	<g>
		<g id="Layer0_0_MEMBER_0_MEMBER_1_MEMBER_1_FILL">
			<path class="st0" d="M-648.8,700.3c0-2.7-0.4-4.6-1.3-5.8c-0.8-1.3-2.1-2-3.8-2c-1.8,0-3.1,0.6-3.9,1.9c-0.9,1.3-1.3,3.2-1.3,5.9
				c0,2.5,0.4,4.5,1.3,5.8c0.8,1.3,2.1,2,3.8,2c1.8,0,3.1-0.6,3.9-1.9C-649.2,705-648.8,703-648.8,700.3 M-656.6,700.3
				c0-1.9,0.2-3.4,0.6-4.5c0.4-0.8,1-1.3,2-1.3s1.6,0.5,2,1.4c0.4,0.9,0.7,2.3,0.7,4.4c0,2-0.2,3.4-0.7,4.4c-0.3,0.9-1,1.3-2,1.3
				c-0.9,0-1.6-0.4-2-1.3C-656.4,703.8-656.6,702.3-656.6,700.3z"/>
		</g>
	</g>
</g>
<g transform="matrix( 1, 0, 0, 1, 213.55,-303.05) ">
	<g>
		<g id="Layer0_0_MEMBER_0_MEMBER_1_MEMBER_2_FILL">
			<path class="st0" d="M-641.1,692.7h-2l-4.4,3.5l1.2,1.5c1.4-1.1,2.2-1.8,2.3-1.9l0.7-0.5c-0.1,0.5-0.2,1.4-0.2,2.8v9.8h2.4V692.7
				z"/>
		</g>
	</g>
</g>
<g transform="matrix( 1, 0, 0, 1, 213.55,-303.05) ">
	<g>
		<g id="Layer0_0_MEMBER_0_MEMBER_1_MEMBER_3_FILL">
			<path class="st0" d="M-618.5,698.5c-0.5-0.4-0.7-0.6-0.8-0.8c-0.1-0.4-0.2-0.7-0.2-1c0-0.6,0.2-1.1,0.6-1.4
				c0.5-0.3,1.1-0.5,1.8-0.5c1.2,0,2.4,0.3,3.6,0.8l0.8-2c-1.3-0.7-2.8-1-4.3-1c-1.5,0-2.7,0.4-3.6,1.1c-0.9,0.7-1.3,1.7-1.3,3
				c0,1.1,0.3,2,0.8,2.6c0.5,0.6,1.4,1.3,2.9,1.9c1.3,0.5,2.2,1,2.6,1.4c0.4,0.4,0.6,0.9,0.6,1.4c0,0.6-0.2,1.1-0.7,1.5
				c-0.5,0.4-1.2,0.6-2.2,0.6c-0.8,0-1.5-0.1-2.1-0.3c-0.1,0-0.9-0.3-2.2-0.8v2.3c1.2,0.5,2.6,0.8,4.2,0.8c1.7,0,3-0.4,4-1.1
				c1-0.8,1.5-1.9,1.5-3.3c0-0.8-0.2-1.3-0.5-1.6c-0.2-0.5-0.6-1-1.1-1.4c-0.4-0.3-1.2-0.8-2.4-1.3L-618.5,698.5z"/>
		</g>
	</g>
</g>
<g transform="matrix( 1, 0, 0, 1, 213.55,-303.05) ">
	<g>
		<g id="Layer0_0_MEMBER_0_MEMBER_1_MEMBER_4_FILL">
			<path class="st0" d="M-610.5,697.8c-0.9,1.1-1.4,2.6-1.4,4.4c0,1.9,0.5,3.3,1.5,4.3c1,1.1,2.4,1.6,4.2,1.6l2.1-0.2
				c0.6-0.1,1.2-0.3,1.8-0.6v-2c-0.7,0.3-1.4,0.5-1.9,0.6c-0.8,0.1-1.4,0.2-1.9,0.2c-1,0-1.8-0.3-2.4-0.9c-0.6-0.6-0.9-1.5-0.9-2.6
				h7.6v-1.3c0-1.6-0.4-2.9-1.3-3.8c-0.9-0.9-2.1-1.4-3.6-1.4C-608.3,696.2-609.6,696.7-610.5,697.8 M-609.3,700.9
				c0.2-1,0.4-1.7,0.8-2.1c0.5-0.5,1.1-0.7,2-0.7c0.6,0,1.2,0.2,1.8,0.7c0.5,0.4,0.7,1.1,0.7,2.1H-609.3z"/>
		</g>
	</g>
</g>
<g transform="matrix( 1, 0, 0, 1, 213.55,-303.05) ">
	<g>
		<g id="Layer0_0_MEMBER_0_MEMBER_1_MEMBER_5_FILL">
			<path class="st0" d="M-600,697.3l0.8,1.7l1.6-0.6c0.6-0.2,1.2-0.3,1.7-0.3c0.8,0,1.4,0.2,1.6,0.5c0.3,0.3,0.5,0.9,0.5,1.6v0.6
				l-2,0.1c-1.8,0.1-3.2,0.4-4,1c-0.9,0.6-1.3,1.5-1.3,2.7c0,1.1,0.3,2,0.9,2.6c0.6,0.6,1.5,0.9,2.6,0.9c0.9,0,1.7-0.1,2.2-0.4
				c0.5-0.1,1.1-0.6,1.7-1.4h0.1l0.5,1.6l1.6,0.1v-7.7c0-1.4-0.4-2.4-1.1-3c-0.7-0.7-1.8-1-3.3-1c-0.7,0-1.4,0.1-2.1,0.3
				C-598.5,696.6-599.2,696.9-600,697.3 M-593.8,702.4v1c0,0.9-0.3,1.6-0.8,2.1c-0.5,0.5-1.2,0.7-2.1,0.7c-0.7,0-1.1-0.1-1.4-0.3
				c-0.3-0.3-0.5-0.7-0.5-1.2c0-0.6,0.3-1.2,0.8-1.6c0.5-0.4,1.3-0.6,2.5-0.6L-593.8,702.4z"/>
		</g>
	</g>
</g>
<g transform="matrix( 1, 0, 0, 1, 213.55,-303.05) ">
	<g>
		<g id="Layer0_0_MEMBER_0_MEMBER_1_MEMBER_6_FILL">
			<path class="st0" d="M-588.7,697c-0.8,0.6-1.2,1.4-1.2,2.3c0,0.9,0.2,1.5,0.7,2c0.5,0.5,1.4,1,2.7,1.5l1.6,0.7
				c0.3,0.1,0.5,0.3,0.8,0.6c0.1,0.3,0.2,0.5,0.2,0.7c0,0.9-0.7,1.4-2.2,1.4c-1.2,0-2.5-0.3-3.8-0.9v2.1c1,0.5,2.2,0.8,3.7,0.8
				c1.5,0,2.7-0.3,3.5-0.9c0.8-0.6,1.2-1.5,1.2-2.6c0-0.4,0-0.6,0-0.8c0-0.3-0.1-0.6-0.2-0.8c-0.6-0.7-0.9-1-1-1.1
				c-0.3-0.2-1-0.5-2.1-1c-1-0.4-1.8-0.7-2.2-1c-0.3-0.2-0.5-0.5-0.5-0.9c0-0.7,0.6-1.1,1.9-1.1c0.8,0,1.8,0.3,3.1,0.8l0.8-1.8
				c-1.3-0.5-2.5-0.8-3.8-0.8S-587.8,696.4-588.7,697z"/>
		</g>
	</g>
</g>
<g transform="matrix( 1, 0, 0, 1, 213.55,-303.05) ">
	<g>
		<g id="Layer0_0_MEMBER_0_MEMBER_1_MEMBER_7_FILL">
			<path class="st0" d="M-570,702.1c0-1.6-0.5-3-1.5-4.3c-0.9-1.1-2.2-1.6-3.9-1.6c-1.6,0-2.9,0.5-4,1.6c-0.9,1-1.4,2.5-1.4,4.3
				c0,1,0.2,2.1,0.7,3.1c0.4,0.8,1,1.5,1.9,2.1c0.8,0.5,1.7,0.8,2.8,0.8c1.8,0,3.1-0.5,4-1.6C-570.5,705.3-570,703.8-570,702.1
				 M-578.4,702.1c0-1.1,0.3-2.1,0.8-2.9c0.3-0.7,1.1-1,2.2-1c2,0,3,1.3,3,3.9c0,2.7-1,4-3,4C-577.4,706.1-578.4,704.8-578.4,702.1z
				"/>
		</g>
	</g>
</g>
<g transform="matrix( 1, 0, 0, 1, 213.55,-303.05) ">
	<g>
		<g id="Layer0_0_MEMBER_0_MEMBER_1_MEMBER_8_FILL">
			<path class="st0" d="M-565.4,699c0.5-0.6,1.3-0.9,2.3-0.9c0.6,0,1.2,0.2,1.7,0.7c0.3,0.6,0.5,1.2,0.5,2v7h2.4v-7.4
				c0-2.8-1.4-4.2-4.1-4.2c-0.9,0-1.6,0.1-2.1,0.4c-0.6,0.3-1.1,0.7-1.5,1.3h-0.1l-0.3-1.5h-1.9v11.4h2.4v-5.7
				C-566.1,700.7-565.9,699.6-565.4,699z"/>
		</g>
	</g>
</g>
<g transform="matrix( 1, 0, 0, 1, 213.55,-303.05) ">
	<g>
		<g id="Layer0_0_MEMBER_0_MEMBER_2_MEMBER_0_FILL">
			<path class="st0" d="M-669.1,672.7c-1.5,1.4-2.2,3.4-2.2,6s0.7,4.7,2,6.1c1.3,1.4,3.2,2.1,5.7,2.1c2.2,0,4.3-0.3,6.2-1v-8.6h-6.9
				v3.3h2.9v2.5c-0.8,0.1-1.4,0.2-1.8,0.2c-1.2,0-2.1-0.4-2.7-1.2c-0.6-0.8-0.9-1.9-0.9-3.4c0-1.6,0.3-2.7,1-3.5
				c0.7-0.8,1.7-1.2,2.9-1.2c1.3,0,2.6,0.3,3.8,0.9l1.4-3.4c-0.5-0.2-1.2-0.5-2.3-0.7c-0.9-0.2-1.9-0.3-2.9-0.3
				C-665.5,670.5-667.5,671.2-669.1,672.7z"/>
		</g>
	</g>
</g>
<g transform="matrix( 1, 0, 0, 1, 213.55,-303.05) ">
	<g>
		<g id="Layer0_0_MEMBER_0_MEMBER_2_MEMBER_1_FILL">
			<path class="st0" d="M-641.8,678.3c0-2.3-0.7-4.1-2-5.5c-1.4-1.3-3.4-2-6-2h-5.6v16h5.2c2.5,0,4.6-0.7,6.2-2.2
				C-642.6,683-641.8,681-641.8,678.3 M-647.3,675.2c0.6,0.7,0.9,1.8,0.9,3.3c0,1.6-0.3,2.7-1,3.5c-0.6,0.7-1.5,1.1-2.8,1.1h-1v-9
				h1.3C-648.8,674.1-647.9,674.5-647.3,675.2z"/>
		</g>
	</g>
</g>
<g transform="matrix( 1, 0, 0, 1, 213.55,-303.05) ">
	<g>
		<g id="Layer0_0_MEMBER_0_MEMBER_2_MEMBER_2_FILL">
			<path class="st0" d="M-627,685.9v-8.6h-6.9v3.3h2.9v2.5c-0.8,0.1-1.4,0.2-1.8,0.2c-1.2,0-2.1-0.4-2.7-1.2c-0.6-0.8-0.8-2-0.8-3.4
				c0-1.6,0.3-2.7,1-3.5c0.7-0.8,1.6-1.2,2.8-1.2c1.4,0,2.7,0.3,3.8,0.9l1.4-3.4c-0.5-0.2-1.3-0.5-2.3-0.7c-0.9-0.2-1.9-0.3-3-0.3
				c-2.5,0-4.6,0.7-6.1,2.2c-1.5,1.4-2.2,3.4-2.2,6s0.7,4.7,2,6.1c1.3,1.4,3.2,2.1,5.7,2.1C-631,686.9-628.9,686.5-627,685.9z"/>
		</g>
	</g>
</g>
<g transform="matrix( 1, 0, 0, 1, 213.55,-303.05) ">
	<g>
		<g id="Layer0_0_MEMBER_0_MEMBER_3_FILL">
			
				<radialGradient id="SVGID_1_" cx="-720.55" cy="850.05" r="10" gradientTransform="matrix(1 0 0 -1 18.35 1559.85)" gradientUnits="userSpaceOnUse">
				<stop  offset="0" style="stop-color:#FECE5B"/>
				<stop  offset="1" style="stop-color:#F3C146"/>
			</radialGradient>
			<path class="st1" d="M-693.6,706.6c0-0.9-0.2-1.7-0.6-2.4l-3.4-5.6L-711,721h6.9c0.8,0,1.6-0.3,2.5-0.8c0.9-0.5,1.5-1.1,1.8-1.8
				l5.7-9.5C-693.7,708.3-693.6,707.5-693.6,706.6z"/>
		</g>
	</g>
</g>
<g transform="matrix( 1, 0, 0, 1, 213.55,-303.05) ">
	<g>
		<g id="Layer0_0_MEMBER_0_MEMBER_4_FILL">
			
				<radialGradient id="SVGID_2_" cx="-720.55" cy="850.075" r="13.7601" gradientTransform="matrix(1 0 0 -1 12.35 1554.75)" gradientUnits="userSpaceOnUse">
				<stop  offset="0" style="stop-color:#1CA863"/>
				<stop  offset="1" style="stop-color:#17904E"/>
			</radialGradient>
			<path class="st2" d="M-697.6,698.6l-6-10.2c0.4,0.7,0.6,1.6,0.6,2.5c0,1-0.2,1.9-0.6,2.5l-15.2,25.2c-0.3,0.6-0.3,1.1,0,1.5
				c0.3,0.4,0.8,0.7,1.5,0.7h6.3L-697.6,698.6z"/>
		</g>
	</g>
</g>
<g transform="matrix( 1, 0, 0, 1, 213.55,-303.05) ">
	<g>
		<g id="Layer0_0_MEMBER_0_MEMBER_5_FILL">
			
				<radialGradient id="SVGID_3_" cx="-720.5728" cy="850.05" r="20.2212" gradientTransform="matrix(1 0 0 -1 17 1535)" gradientUnits="userSpaceOnUse">
				<stop  offset="0" style="stop-color:#5880BE"/>
				<stop  offset="1" style="stop-color:#5780BE"/>
			</radialGradient>
			<path class="st3" d="M-711,661h-6.3c-0.8,0-1.4,0.3-1.7,0.8c-0.3,0.5-0.2,1.1,0.3,1.8l24.5,40.7c0.4,0.6,0.6,1.4,0.6,2.3
				c0,0.9-0.1,1.7-0.5,2.4l6-9.9L-711,661z"/>
		</g>
	</g>
</g>
<g transform="matrix( 1, 0, 0, 1, 213.55,-303.05) ">
	<g>
		<g id="Layer0_0_MEMBER_0_MEMBER_6_FILL">
			
				<radialGradient id="SVGID_4_" cx="-720.55" cy="850.05" r="16.475" gradientTransform="matrix(1 0 0 -1 23.05 1530.05)" gradientUnits="userSpaceOnUse">
				<stop  offset="0" style="stop-color:#DF4D45"/>
				<stop  offset="1" style="stop-color:#CB3A33"/>
			</radialGradient>
			<path class="st4" d="M-701.7,661.8c-0.8-0.5-1.6-0.8-2.4-0.8h-6.9l22.9,38l3.3-5.5c0.4-0.7,0.6-1.5,0.6-2.5c0-1-0.2-1.8-0.6-2.5
				l-15-25C-700.2,662.8-700.8,662.2-701.7,661.8z"/>
		</g>
	</g>
</g>
<g transform="matrix( 1, 0, 0, 1, 213.55,-303.05) ">
	<g>
		<g id="Layer0_0_MEMBER_1_MEMBER_0_MEMBER_0_FILL">
			<path class="st0" d="M-612,733.4h-5.5v16h5.1c2.6,0,4.6-0.7,6.2-2.2c1.4-1.4,2.2-3.5,2.2-6.2c0-2.6-0.7-4.4-2-5.6
				C-607.5,734.1-609.5,733.4-612,733.4 M-613.3,736.7h1.3c1.1,0,2,0.4,2.6,1.1c0.6,0.7,0.9,1.8,0.9,3.3c0,1.6-0.3,2.8-0.9,3.5
				c-0.6,0.7-1.6,1.1-2.9,1.1h-1V736.7z"/>
		</g>
	</g>
</g>
<g transform="matrix( 1, 0, 0, 1, 213.55,-303.05) ">
	<g>
		<g id="Layer0_0_MEMBER_1_MEMBER_0_MEMBER_1_FILL">
			<path class="st0" d="M-592.9,738c-1-1-2.4-1.5-4.3-1.5c-1.9,0-3.4,0.6-4.5,1.7c-1.1,1.1-1.6,2.7-1.6,4.8c0,2,0.6,3.6,1.7,4.7
				c1.3,1.2,2.9,1.8,4.8,1.8c1.3,0,2.1-0.1,2.5-0.3c0.5-0.1,1.2-0.3,2.1-0.7v-3.1c-0.9,0.4-1.6,0.6-2,0.7c-0.9,0.1-1.6,0.2-2.1,0.2
				c-0.8,0-1.4-0.2-1.9-0.6c-0.6-0.5-0.8-1-0.8-1.6h7.6v-1.9C-591.4,740.5-591.9,739-592.9,738 M-597,739.6c0.5,0,0.9,0.2,1.3,0.6
				c0.3,0.3,0.5,0.8,0.5,1.4h-3.7c0.1-0.7,0.3-1.2,0.6-1.5C-597.9,739.8-597.4,739.6-597,739.6z"/>
		</g>
	</g>
</g>
<g transform="matrix( 1, 0, 0, 1, 213.55,-303.05) ">
	<g>
		<g id="Layer0_0_MEMBER_1_MEMBER_0_MEMBER_2_FILL">
			<path class="st0" d="M-578.1,736.9h-4.4l-2.2,7.4c-0.1,0.5-0.2,0.9-0.2,1.2h-0.1V745l0-0.4c-0.1,0-0.1-0.1-0.1-0.3v-0.2l-2.1-7.3
				h-4.4l4.7,12.4h4.2L-578.1,736.9z"/>
		</g>
	</g>
</g>
<g transform="matrix( 1, 0, 0, 1, 213.55,-303.05) ">
	<g>
		<g id="Layer0_0_MEMBER_1_MEMBER_0_MEMBER_3_FILL">
			<path class="st0" d="M-568.7,739.9h-4.8v-3.1h5.2v-3.5h-9.4v16h4.2l0-5.9h4.8V739.9z"/>
		</g>
	</g>
</g>
<g transform="matrix( 1, 0, 0, 1, 213.55,-303.05) ">
	<g>
		<g id="Layer0_0_MEMBER_1_MEMBER_0_MEMBER_4_FILL">
			<path class="st0" d="M-561.8,736.5c-1.9,0-3.4,0.6-4.5,1.7c-1.1,1.1-1.6,2.7-1.6,4.8c0,1.9,0.6,3.5,1.7,4.7
				c1.3,1.2,2.9,1.8,4.8,1.8c1.3,0,2.1-0.1,2.5-0.3c0.5-0.1,1.2-0.3,2.1-0.7v-3.1c-0.9,0.4-1.6,0.6-2,0.7c-0.9,0.1-1.6,0.2-2.1,0.2
				c-0.8,0-1.4-0.2-1.9-0.6c-0.5-0.4-0.8-1-0.8-1.6h7.6v-1.9c0-1.8-0.5-3.2-1.5-4.2S-559.9,736.5-561.8,736.5 M-561.5,739.6
				c0.6,0,1,0.2,1.3,0.6c0.3,0.3,0.5,0.8,0.5,1.4h-3.7c0.1-0.7,0.3-1.2,0.6-1.5C-562.5,739.8-562,739.6-561.5,739.6z"/>
		</g>
	</g>
</g>
<g transform="matrix( 1, 0, 0, 1, 213.55,-303.05) ">
	<g>
		<g id="Layer0_0_MEMBER_1_MEMBER_0_MEMBER_5_FILL">
			<path class="st0" d="M-550.7,740.5c-0.3-0.1-0.4-0.3-0.4-0.5c0-0.3,0.3-0.5,1-0.5c0.4,0,0.9,0.1,1.5,0.3c0.8,0.3,1.4,0.5,1.8,0.7
				l1.2-2.8c-0.4-0.2-1.1-0.5-2.2-0.8c-0.7-0.2-1.5-0.3-2.3-0.3c-1.5,0-2.8,0.3-3.8,1c-0.9,0.6-1.3,1.5-1.3,2.7
				c0,0.8,0.2,1.6,0.7,2.3c0.5,0.5,1.3,1.1,2.4,1.6c1.2,0.5,2,0.9,2.2,1c0.3,0.2,0.4,0.4,0.4,0.6c0,0.4-0.5,0.6-1.4,0.6
				c-0.6,0-1.3-0.1-2.1-0.3c-0.5-0.1-1.3-0.4-2.2-0.7v3.4c0.9,0.3,1.6,0.5,2.1,0.5c1,0.1,1.8,0.1,2.4,0.1c1.7,0,3-0.3,3.9-1
				c0.9-0.7,1.4-1.7,1.4-3c0-0.7-0.1-1.3-0.4-1.8c-0.2-0.5-0.5-0.9-0.9-1.2c-0.3-0.3-0.9-0.7-1.9-1.1
				C-549.2,741.3-549.9,741-550.7,740.5z"/>
		</g>
	</g>
</g>
<g transform="matrix( 1, 0, 0, 1, 213.55,-303.05) ">
	<g>
		<g id="Layer0_0_MEMBER_1_MEMBER_0_MEMBER_6_FILL">
			<path class="st0" d="M-536.3,740.1v-3.2h-3v-2.5h-2.8l-1.1,2.6l-1.9,1.4v1.7h1.5v5.1c0,1.5,0.3,2.6,0.9,3.3
				c0.6,0.7,1.7,1.1,3.1,1.1c0.5,0,1.1-0.1,1.8-0.2c0.2,0,0.7-0.2,1.6-0.5v-3.1c-0.8,0.3-1.5,0.4-2.1,0.4c-0.8,0-1.2-0.4-1-1.3v-4.8
				H-536.3z"/>
		</g>
	</g>
</g>
<g transform="matrix( 1, 0, 0, 1, 213.55,-303.05) ">
	<g>
		<g id="Layer0_0_MEMBER_1_MEMBER_1_MEMBER_0_FILL">
			<path class="st0" d="M-666.6,757.9c0.7-0.2,1.2-0.3,1.7-0.3c0.7,0,1.3,0.2,1.7,0.6c0.4,0.4,0.6,0.9,0.6,1.6c0,0.5-0.1,1-0.3,1.4
				c-0.1,0.4-0.4,0.9-0.8,1.4l-6.2,6.4v1.9h10.3l0.1-2.2h-7.2v-0.1l2.6-2.5c1.4-1.4,2.3-2.3,2.5-2.6c0.6-0.9,1-1.5,1.1-1.9
				c0.3-0.5,0.4-1.2,0.4-1.9c0-1.2-0.4-2.2-1.3-3c-0.9-0.7-2.1-1.1-3.4-1.1c-1,0-1.8,0.1-2.5,0.4c-0.9,0.3-1.7,0.8-2.5,1.5l1.3,1.6
				C-667.9,758.6-667.3,758.2-666.6,757.9z"/>
		</g>
	</g>
</g>
<g transform="matrix( 1, 0, 0, 1, 213.55,-303.05) ">
	<g>
		<g id="Layer0_0_MEMBER_1_MEMBER_1_MEMBER_1_FILL">
			<path class="st0" d="M-648.8,763.3c0-2.7-0.4-4.6-1.3-5.8c-0.8-1.3-2.1-2-3.8-2c-1.8,0-3.1,0.6-3.9,1.9c-0.9,1.3-1.3,3.2-1.3,5.9
				c0,2.5,0.4,4.5,1.3,5.8c0.8,1.3,2.1,2,3.8,2c1.8,0,3.1-0.6,3.9-1.9C-649.2,768-648.8,766-648.8,763.3 M-656.6,763.3
				c0-1.9,0.2-3.4,0.6-4.5c0.4-0.8,1-1.3,2-1.3s1.6,0.5,2,1.4c0.4,0.9,0.7,2.3,0.7,4.4c0,2-0.2,3.4-0.7,4.4c-0.3,0.9-1,1.3-2,1.3
				c-0.9,0-1.6-0.4-2-1.3C-656.4,766.8-656.6,765.3-656.6,763.3z"/>
		</g>
	</g>
</g>
<g transform="matrix( 1, 0, 0, 1, 213.55,-303.05) ">
	<g>
		<g id="Layer0_0_MEMBER_1_MEMBER_1_MEMBER_2_FILL">
			<path class="st0" d="M-641.1,755.7h-2l-4.4,3.5l1.2,1.5c1.4-1.1,2.2-1.8,2.3-1.9l0.7-0.5c-0.1,0.5-0.2,1.4-0.2,2.8v9.8h2.4V755.7
				z"/>
		</g>
	</g>
</g>
<g transform="matrix( 1, 0, 0, 1, 213.55,-303.05) ">
	<g>
		<g id="Layer0_0_MEMBER_1_MEMBER_1_MEMBER_3_FILL">
			<path class="st0" d="M-613,765.2c-0.2-0.5-0.6-1-1.1-1.4c-0.4-0.3-1.2-0.8-2.4-1.3l-2-1c-0.4-0.3-0.6-0.5-0.8-0.8
				c-0.1-0.4-0.2-0.7-0.2-1c0-0.6,0.2-1.1,0.6-1.4c0.5-0.3,1.1-0.5,1.8-0.5c1.2,0,2.4,0.3,3.6,0.8l0.8-2c-1.3-0.7-2.8-1-4.3-1
				c-1.5,0-2.7,0.4-3.6,1.1c-0.9,0.7-1.3,1.7-1.3,3c0,1.1,0.3,2,0.8,2.6c0.5,0.6,1.4,1.3,2.9,1.9c1.3,0.5,2.2,1,2.6,1.4
				c0.4,0.4,0.6,0.9,0.6,1.4c0,0.6-0.2,1.1-0.7,1.5c-0.5,0.4-1.2,0.6-2.2,0.6c-0.8,0-1.5-0.1-2.1-0.3c-0.1,0-0.9-0.3-2.2-0.8v2.3
				c1.2,0.5,2.6,0.8,4.2,0.8c1.7,0,3-0.4,4-1.1c1-0.8,1.5-1.9,1.5-3.3C-612.5,766-612.7,765.5-613,765.2z"/>
		</g>
	</g>
</g>
<g transform="matrix( 1, 0, 0, 1, 213.55,-303.05) ">
	<g>
		<g id="Layer0_0_MEMBER_1_MEMBER_1_MEMBER_4_FILL">
			<path class="st0" d="M-603,760.6c-0.9-0.9-2.1-1.4-3.6-1.4c-1.7,0-2.9,0.5-3.8,1.6c-0.9,1.1-1.4,2.6-1.4,4.4
				c0,1.9,0.5,3.3,1.5,4.3c1,1.1,2.4,1.6,4.2,1.6l2.1-0.2c0.6-0.1,1.2-0.3,1.8-0.6v-2c-0.7,0.3-1.4,0.5-1.9,0.6
				c-0.8,0.1-1.4,0.2-1.9,0.2c-1,0-1.8-0.3-2.4-0.9c-0.6-0.6-0.9-1.5-0.9-2.6h7.6v-1.3C-601.8,762.7-602.2,761.5-603,760.6
				 M-606.5,761.1c0.9,0,1.5,0.2,1.8,0.7c0.5,0.4,0.7,1.1,0.7,2.1h-5.2c0.2-1,0.4-1.7,0.8-2.1C-608,761.3-607.4,761.1-606.5,761.1z"
				/>
		</g>
	</g>
</g>
<g transform="matrix( 1, 0, 0, 1, 213.55,-303.05) ">
	<g>
		<g id="Layer0_0_MEMBER_1_MEMBER_1_MEMBER_5_FILL">
			<path class="st0" d="M-591.5,763.3c0-1.4-0.4-2.4-1.1-3c-0.7-0.7-1.8-1-3.3-1l-2.1,0.3c-0.6,0.1-1.2,0.3-2,0.7l0.8,1.7l1.6-0.6
				c0.6-0.2,1.2-0.3,1.7-0.3c0.8,0,1.4,0.2,1.6,0.5c0.3,0.3,0.5,0.9,0.5,1.6v0.6l-2,0.1c-1.8,0.1-3.2,0.4-4,1
				c-0.9,0.6-1.3,1.5-1.3,2.7c0,1.1,0.3,2,0.9,2.6c0.6,0.6,1.5,0.9,2.6,0.9c0.9,0,1.7-0.1,2.2-0.4c0.5-0.1,1.1-0.6,1.7-1.4h0.1
				l0.5,1.6l1.6,0.1V763.3 M-594.5,768.5c-0.5,0.5-1.2,0.7-2.1,0.7c-0.7,0-1.1-0.1-1.4-0.3c-0.3-0.3-0.5-0.7-0.5-1.2
				c0-0.8,0.3-1.3,0.8-1.6c0.5-0.4,1.3-0.6,2.5-0.6l1.5-0.1v1C-593.8,767.3-594,768-594.5,768.5z"/>
		</g>
	</g>
</g>
<g transform="matrix( 1, 0, 0, 1, 213.55,-303.05) ">
	<g>
		<g id="Layer0_0_MEMBER_1_MEMBER_1_MEMBER_6_FILL">
			<path class="st0" d="M-582.7,765c-0.3-0.2-1-0.5-2.1-1c-1-0.4-1.8-0.7-2.2-1c-0.3-0.2-0.5-0.5-0.5-0.9c0-0.7,0.6-1.1,1.9-1.1
				c0.8,0,1.8,0.3,3.1,0.8l0.8-1.8c-1.3-0.5-2.5-0.8-3.8-0.8s-2.3,0.3-3.2,0.8c-0.8,0.6-1.2,1.4-1.2,2.3c0,0.9,0.2,1.5,0.7,2
				c0.5,0.5,1.4,1,2.7,1.5l1.6,0.7c0.3,0.1,0.5,0.3,0.8,0.6c0.1,0.3,0.2,0.5,0.2,0.7c0,0.9-0.7,1.4-2.2,1.4c-1.2,0-2.5-0.3-3.8-0.9
				v2.1c1,0.5,2.2,0.8,3.7,0.8c1.5,0,2.7-0.3,3.5-0.9c0.8-0.6,1.2-1.5,1.2-2.6c0-0.4,0-0.7,0-0.9c0-0.4-0.1-0.6-0.2-0.8
				C-582,765.5-582.4,765.2-582.7,765z"/>
		</g>
	</g>
</g>
<g transform="matrix( 1, 0, 0, 1, 213.55,-303.05) ">
	<g>
		<g id="Layer0_0_MEMBER_1_MEMBER_1_MEMBER_7_FILL">
			<path class="st0" d="M-570,765.1c0-1.6-0.5-3-1.5-4.3c-0.9-1.1-2.2-1.6-3.9-1.6c-1.6,0-2.9,0.5-4,1.6c-0.9,1-1.4,2.5-1.4,4.3
				c0,1,0.2,2.1,0.7,3.1c0.4,0.8,1,1.5,1.9,2.1c0.8,0.5,1.7,0.8,2.8,0.8c1.6,0,2.9-0.5,4-1.6C-570.5,768.3-570,766.8-570,765.1
				 M-577.7,762.2c0.3-0.7,1.1-1,2.2-1c2,0,3,1.3,3,3.9c0,2.7-1,4-3,4c-1.9,0-2.9-1.3-2.9-4C-578.4,764-578.2,763-577.7,762.2z"/>
		</g>
	</g>
</g>
<g transform="matrix( 1, 0, 0, 1, 213.55,-303.05) ">
	<g>
		<g id="Layer0_0_MEMBER_1_MEMBER_1_MEMBER_8_FILL">
			<path class="st0" d="M-566.2,761L-566.2,761l-0.4-1.5h-1.9v11.4h2.4v-5.7c0-1.5,0.2-2.5,0.7-3.1c0.5-0.6,1.3-0.9,2.3-0.9
				c0.6,0,1.2,0.2,1.7,0.7c0.3,0.6,0.5,1.2,0.5,2v7h2.4v-7.4c0-2.8-1.4-4.2-4.1-4.2c-0.9,0-1.6,0.1-2.1,0.4
				C-565.3,760-565.8,760.4-566.2,761z"/>
		</g>
	</g>
</g>
<g transform="matrix( 1, 0, 0, 1, 213.55,-303.05) ">
	<g>
		<g id="Layer0_0_MEMBER_1_MEMBER_2_MEMBER_0_FILL">
			<path class="st0" d="M-669.1,735.7c-1.5,1.4-2.2,3.4-2.2,6s0.7,4.7,2,6.1c1.3,1.4,3.2,2.1,5.7,2.1c2.2,0,4.3-0.3,6.2-1v-8.6h-6.9
				v3.3h2.9v2.5c-0.8,0.1-1.4,0.2-1.8,0.2c-1.2,0-2.1-0.4-2.7-1.2c-0.6-0.8-0.9-1.9-0.9-3.4c0-1.6,0.3-2.7,1-3.5
				c0.7-0.8,1.7-1.2,2.9-1.2c1.3,0,2.6,0.3,3.8,0.9l1.4-3.4c-0.5-0.2-1.2-0.5-2.3-0.7c-0.9-0.2-1.9-0.3-2.9-0.3
				C-665.5,733.5-667.5,734.2-669.1,735.7z"/>
		</g>
	</g>
</g>
<g transform="matrix( 1, 0, 0, 1, 213.55,-303.05) ">
	<g>
		<g id="Layer0_0_MEMBER_1_MEMBER_2_MEMBER_1_FILL">
			<path class="st0" d="M-649.8,733.7h-5.6v16h5.2c2.5,0,4.6-0.7,6.2-2.2c1.5-1.5,2.2-3.5,2.2-6.3c0-2.3-0.7-4.1-2-5.5
				C-645.3,734.4-647.3,733.7-649.8,733.7 M-651.1,737.1h1.3c1.1,0,2,0.4,2.6,1.1c0.6,0.7,0.9,1.8,0.9,3.3c0,1.6-0.3,2.7-1,3.5
				c-0.6,0.7-1.5,1.1-2.8,1.1h-1V737.1z"/>
		</g>
	</g>
</g>
<g transform="matrix( 1, 0, 0, 1, 213.55,-303.05) ">
	<g>
		<g id="Layer0_0_MEMBER_1_MEMBER_2_MEMBER_2_FILL">
			<path class="st0" d="M-635.3,738.2c0.7-0.8,1.6-1.2,2.8-1.2c1.4,0,2.7,0.3,3.8,0.9l1.4-3.4c-0.5-0.2-1.3-0.5-2.3-0.7
				c-0.9-0.2-1.9-0.3-3-0.3c-2.5,0-4.6,0.7-6.1,2.2c-1.5,1.4-2.2,3.4-2.2,6s0.7,4.7,2,6.1c1.3,1.4,3.2,2.1,5.7,2.1
				c2.2,0,4.2-0.3,6.2-1v-8.6h-6.9v3.3h2.9v2.5c-0.8,0.1-1.4,0.2-1.8,0.2c-1.2,0-2.1-0.4-2.7-1.2c-0.6-0.8-0.8-2-0.8-3.4
				C-636.3,740.1-636,738.9-635.3,738.2z"/>
		</g>
	</g>
</g>
<g transform="matrix( 1, 0, 0, 1, 213.55,-303.05) ">
	<g>
		<g id="Layer0_0_MEMBER_1_MEMBER_3_FILL">
			
				<radialGradient id="SVGID_5_" cx="-720.55" cy="850.05" r="10" gradientTransform="matrix(1 0 0 -1 18.35 1622.85)" gradientUnits="userSpaceOnUse">
				<stop  offset="0" style="stop-color:#CCCCCC"/>
				<stop  offset="1" style="stop-color:#C0C0C0"/>
			</radialGradient>
			<path class="st5" d="M-694.2,767.3l-3.4-5.6L-711,784h6.9c0.8,0,1.6-0.3,2.5-0.8c0.9-0.5,1.5-1.1,1.8-1.8l5.7-9.5
				c0.4-0.7,0.5-1.5,0.5-2.4C-693.6,768.7-693.8,767.9-694.2,767.3z"/>
		</g>
	</g>
</g>
<g transform="matrix( 1, 0, 0, 1, 213.55,-303.05) ">
	<g>
		<g id="Layer0_0_MEMBER_1_MEMBER_4_FILL">
			
				<radialGradient id="SVGID_6_" cx="-720.55" cy="850.075" r="13.7601" gradientTransform="matrix(1 0 0 -1 12.35 1617.75)" gradientUnits="userSpaceOnUse">
				<stop  offset="0" style="stop-color:#A0A0A0"/>
				<stop  offset="1" style="stop-color:#7B7B7B"/>
			</radialGradient>
			<path class="st6" d="M-703,754c0,1-0.2,1.9-0.6,2.5l-15.2,25.2c-0.3,0.6-0.3,1.1,0,1.5c0.3,0.4,0.8,0.7,1.5,0.7h6.3l13.4-22.3
				l-6-10.2C-703.3,752.2-703,753-703,754z"/>
		</g>
	</g>
</g>
<g transform="matrix( 1, 0, 0, 1, 213.55,-303.05) ">
	<g>
		<g id="Layer0_0_MEMBER_1_MEMBER_5_FILL">
			
				<radialGradient id="SVGID_7_" cx="-720.5728" cy="850.05" r="20.2212" gradientTransform="matrix(1 0 0 -1 17 1598)" gradientUnits="userSpaceOnUse">
				<stop  offset="0" style="stop-color:#848484"/>
				<stop  offset="1" style="stop-color:#838383"/>
			</radialGradient>
			<path class="st7" d="M-711,724h-6.3c-0.8,0-1.4,0.3-1.7,0.8c-0.3,0.5-0.2,1.1,0.3,1.8l24.5,40.7c0.4,0.6,0.6,1.4,0.6,2.3
				c0,0.9-0.1,1.7-0.5,2.4l6-9.9L-711,724z"/>
		</g>
	</g>
</g>
<g transform="matrix( 1, 0, 0, 1, 213.55,-303.05) ">
	<g>
		<g id="Layer0_0_MEMBER_1_MEMBER_6_FILL">
			
				<radialGradient id="SVGID_8_" cx="-720.55" cy="850.05" r="16.475" gradientTransform="matrix(1 0 0 -1 23.05 1593.05)" gradientUnits="userSpaceOnUse">
				<stop  offset="0" style="stop-color:#626262"/>
				<stop  offset="1" style="stop-color:#474747"/>
			</radialGradient>
			<path class="st8" d="M-701.7,724.8c-0.8-0.5-1.6-0.8-2.4-0.8h-6.9l22.9,38l3.3-5.5c0.4-0.7,0.6-1.5,0.6-2.5c0-1-0.2-1.8-0.6-2.5
				l-15-25C-700.2,725.8-700.8,725.2-701.7,724.8z"/>
		</g>
	</g>
</g>
<g transform="matrix( 1, 0, 0, 1, 213.55,-303.05) ">
	<g>
		<g id="Layer0_0_MEMBER_2_MEMBER_0_MEMBER_0_FILL">
			<path class="st9" d="M-605.8,798.4c-1.4-1.3-3.4-2-5.9-2h-5.5v16h5.1c2.6,0,4.7-0.7,6.2-2.2s2.2-3.5,2.2-6.2
				C-603.8,801.5-604.5,799.6-605.8,798.4 M-613.1,799.7h1.3c1.1,0,2,0.4,2.6,1.1c0.6,0.7,0.9,1.8,0.9,3.3c0,1.6-0.3,2.8-0.9,3.5
				c-0.6,0.7-1.6,1.1-2.9,1.1h-1V799.7z"/>
		</g>
	</g>
</g>
<g transform="matrix( 1, 0, 0, 1, 213.55,-303.05) ">
	<g>
		<g id="Layer0_0_MEMBER_2_MEMBER_0_MEMBER_1_FILL">
			<path class="st9" d="M-592.7,801c-1-1-2.4-1.5-4.3-1.5c-1.9,0-3.4,0.6-4.5,1.7c-1,1.1-1.5,2.7-1.5,4.8c0,2.1,0.5,3.7,1.6,4.7
				c1.3,1.2,3,1.8,4.9,1.8c1.2,0,2-0.1,2.5-0.3c0.5-0.1,1.2-0.3,2.1-0.7v-3.1c-0.9,0.4-1.6,0.6-2,0.7c-0.9,0.1-1.6,0.2-2.1,0.2
				c-0.8,0-1.4-0.2-1.9-0.6c-0.5-0.4-0.8-1-0.8-1.6h7.6v-1.9C-591.2,803.5-591.7,802-592.7,801 M-595.6,803.2
				c0.3,0.3,0.5,0.8,0.5,1.4h-3.7c0.1-0.7,0.3-1.2,0.6-1.5c0.4-0.3,0.9-0.5,1.3-0.5C-596.3,802.6-595.9,802.8-595.6,803.2z"/>
		</g>
	</g>
</g>
<g transform="matrix( 1, 0, 0, 1, 213.55,-303.05) ">
	<g>
		<g id="Layer0_0_MEMBER_2_MEMBER_0_MEMBER_2_FILL">
			<path class="st9" d="M-578,799.9h-4.4l-2.2,7.4c-0.1,0.5-0.2,0.9-0.2,1.2h-0.1V808c-0.1-0.1-0.1-0.3-0.1-0.4l0-0.3v-0.2l-2.1-7.3
				h-4.4l4.6,12.4h4.2L-578,799.9z"/>
		</g>
	</g>
</g>
<g transform="matrix( 1, 0, 0, 1, 213.55,-303.05) ">
	<g>
		<g id="Layer0_0_MEMBER_2_MEMBER_0_MEMBER_3_FILL">
			<path class="st9" d="M-573.3,799.8h5.2v-3.5h-9.4v16h4.1l0.1-5.9h4.8v-3.5h-4.8V799.8z"/>
		</g>
	</g>
</g>
<g transform="matrix( 1, 0, 0, 1, 213.55,-303.05) ">
	<g>
		<g id="Layer0_0_MEMBER_2_MEMBER_0_MEMBER_4_FILL">
			<path class="st9" d="M-557.3,801c-1-1-2.4-1.5-4.3-1.5c-1.9,0-3.4,0.6-4.5,1.7c-1.1,1.1-1.6,2.7-1.6,4.8c0,2.1,0.6,3.7,1.7,4.7
				c1.3,1.2,2.9,1.8,4.8,1.8c1.2,0,2-0.1,2.5-0.3c0.5-0.1,1.2-0.3,2.1-0.7v-3.1c-1,0.4-1.6,0.6-2,0.7c-0.9,0.1-1.6,0.2-2.1,0.2
				c-0.8,0-1.4-0.2-1.9-0.6c-0.5-0.4-0.8-1-0.8-1.6h7.6v-1.9C-555.8,803.5-556.3,802-557.3,801 M-560.2,803.2
				c0.3,0.3,0.5,0.8,0.5,1.4h-3.7c0.1-0.7,0.3-1.2,0.6-1.5c0.4-0.3,0.8-0.5,1.3-0.5C-560.9,802.6-560.5,802.8-560.2,803.2z"/>
		</g>
	</g>
</g>
<g transform="matrix( 1, 0, 0, 1, 213.55,-303.05) ">
	<g>
		<g id="Layer0_0_MEMBER_2_MEMBER_0_MEMBER_5_FILL">
			<path class="st9" d="M-547.6,800c-0.7-0.2-1.5-0.3-2.3-0.3c-1.5,0-2.8,0.3-3.8,1c-0.9,0.6-1.3,1.5-1.3,2.7c0,0.8,0.2,1.6,0.7,2.3
				c0.5,0.5,1.3,1.1,2.4,1.6c1.2,0.5,2,0.9,2.2,1c0.3,0.2,0.4,0.4,0.4,0.6c0,0.4-0.5,0.6-1.4,0.6c-0.6,0-1.3-0.1-2.1-0.3
				c-0.5-0.1-1.3-0.4-2.2-0.7v3.4c0.6,0.2,1.3,0.4,2.1,0.5c0.5,0.1,1.3,0.1,2.4,0.1c1.7,0,3-0.3,3.9-1c0.9-0.7,1.4-1.7,1.4-3
				c0-0.8-0.1-1.4-0.4-1.8c-0.2-0.5-0.5-0.9-0.9-1.2c-0.3-0.3-0.9-0.7-1.9-1.1c-0.6-0.2-1.3-0.5-2.1-0.9c-0.3-0.1-0.4-0.3-0.4-0.5
				c0-0.3,0.3-0.5,1-0.5c0.4,0,0.9,0.1,1.5,0.3c0.8,0.3,1.4,0.5,1.8,0.7l1.2-2.8C-545.8,800.5-546.5,800.3-547.6,800z"/>
		</g>
	</g>
</g>
<g transform="matrix( 1, 0, 0, 1, 213.55,-303.05) ">
	<g>
		<g id="Layer0_0_MEMBER_2_MEMBER_0_MEMBER_6_FILL">
			<path class="st9" d="M-536.1,800h-3v-2.5h-2.8l-1.1,2.6l-1.9,1.3v1.7h1.5v5.1c0,1.4,0.3,2.5,0.9,3.3c0.6,0.7,1.7,1.1,3.1,1.1
				c0.5,0,1.1-0.1,1.8-0.2c0.2,0,0.7-0.2,1.6-0.5v-3.1c-0.7,0.3-1.4,0.4-2.1,0.4c-0.8,0-1.2-0.4-1-1.2v-4.8h3V800z"/>
		</g>
	</g>
</g>
<g transform="matrix( 1, 0, 0, 1, 213.55,-303.05) ">
	<g>
		<g id="Layer0_0_MEMBER_2_MEMBER_1_MEMBER_0_FILL">
			<path class="st9" d="M-666.5,820.9c0.7-0.2,1.2-0.3,1.7-0.3c0.7,0,1.3,0.2,1.7,0.6c0.4,0.4,0.6,0.9,0.6,1.6c0,0.5-0.1,1-0.3,1.4
				c-0.1,0.4-0.4,0.9-0.8,1.4l-6.2,6.4v1.9h10.3l0.1-2.2h-7.2v-0.1l2.6-2.5c1.4-1.3,2.2-2.2,2.5-2.6c0.6-0.9,1-1.5,1.2-1.9
				c0.2-0.6,0.3-1.2,0.3-1.9c0-1.2-0.4-2.2-1.3-3c-0.9-0.7-2-1.1-3.3-1.1c-1,0-1.8,0.1-2.5,0.4c-0.9,0.3-1.7,0.8-2.5,1.5l1.3,1.6
				C-667.8,821.6-667.1,821.2-666.5,820.9z"/>
		</g>
	</g>
</g>
<g transform="matrix( 1, 0, 0, 1, 213.55,-303.05) ">
	<g>
		<g id="Layer0_0_MEMBER_2_MEMBER_1_MEMBER_1_FILL">
			<path class="st9" d="M-649.9,820.5c-0.8-1.3-2.1-2-3.8-2c-1.8,0-3.1,0.6-3.9,1.9c-0.9,1.3-1.3,3.2-1.3,5.9c0,2.6,0.4,4.5,1.3,5.8
				c0.8,1.3,2.1,2,3.8,2c1.8,0,3.1-0.6,3.9-1.9c0.9-1.3,1.3-3.2,1.3-5.9C-648.6,823.8-649,821.9-649.9,820.5 M-651.8,821.9
				c0.4,0.9,0.6,2.4,0.6,4.4s-0.2,3.5-0.6,4.4c-0.4,0.9-1.1,1.3-2,1.3c-0.9,0-1.6-0.4-2-1.3c-0.4-0.9-0.6-2.4-0.6-4.4
				c0-2,0.2-3.5,0.6-4.5c0.4-0.8,1-1.3,2-1.3C-652.8,820.5-652.2,821-651.8,821.9z"/>
		</g>
	</g>
</g>
<g transform="matrix( 1, 0, 0, 1, 213.55,-303.05) ">
	<g>
		<g id="Layer0_0_MEMBER_2_MEMBER_1_MEMBER_2_FILL">
			<path class="st9" d="M-646,823.7l2.9-2.4c-0.1,0.5-0.1,1.4-0.1,2.8v9.8h2.4v-15.2h-2l-4.4,3.5L-646,823.7z"/>
		</g>
	</g>
</g>
<g transform="matrix( 1, 0, 0, 1, 213.55,-303.05) ">
	<g>
		<g id="Layer0_0_MEMBER_2_MEMBER_1_MEMBER_3_FILL">
			<path class="st9" d="M-619.1,823.7c-0.1-0.4-0.2-0.7-0.2-1c0-0.6,0.2-1.1,0.6-1.4c0.5-0.3,1.1-0.5,1.8-0.5c1.2,0,2.4,0.3,3.6,0.8
				l0.8-2c-1.3-0.7-2.8-1-4.3-1c-1.5,0-2.7,0.4-3.6,1.1c-0.9,0.7-1.3,1.7-1.3,3c0,1.1,0.3,2,0.8,2.6c0.5,0.6,1.4,1.3,2.9,1.9
				c1.3,0.5,2.2,1,2.6,1.4c0.4,0.4,0.6,0.9,0.6,1.4c0,0.6-0.2,1.1-0.7,1.5c-0.5,0.4-1.2,0.6-2.2,0.6c-0.8,0-1.5-0.1-2.2-0.3
				c-0.3-0.1-1-0.3-2.1-0.8v2.3c1.1,0.5,2.5,0.8,4.1,0.8c1.7,0,3-0.4,4-1.1c1-0.8,1.5-1.9,1.5-3.3c0-0.8-0.1-1.3-0.4-1.6
				c-0.2-0.5-0.6-1-1.1-1.4c-0.4-0.3-1.2-0.8-2.4-1.3l-2-1C-618.8,824.1-619,823.8-619.1,823.7z"/>
		</g>
	</g>
</g>
<g transform="matrix( 1, 0, 0, 1, 213.55,-303.05) ">
	<g>
		<g id="Layer0_0_MEMBER_2_MEMBER_1_MEMBER_4_FILL">
			<path class="st9" d="M-602.8,823.6c-0.9-0.9-2.1-1.4-3.6-1.4c-1.7,0-2.9,0.5-3.8,1.6c-0.9,1.1-1.4,2.6-1.4,4.4
				c0,1.9,0.5,3.3,1.5,4.3c1,1.1,2.4,1.6,4.2,1.6l2.2-0.2c0.6-0.1,1.2-0.3,1.8-0.6v-2c-0.7,0.3-1.4,0.5-1.9,0.6
				c-0.8,0.1-1.4,0.2-1.9,0.2c-1,0-1.8-0.3-2.4-0.9c-0.6-0.6-0.9-1.5-0.9-2.6h7.6v-1.3C-601.5,825.7-602,824.5-602.8,823.6
				 M-604.7,824.8c0.5,0.4,0.7,1.1,0.7,2.1h-5.2c0.2-1,0.4-1.7,0.8-2.1c0.5-0.5,1.1-0.7,1.9-0.7
				C-605.9,824.1-605.3,824.3-604.7,824.8z"/>
		</g>
	</g>
</g>
<g transform="matrix( 1, 0, 0, 1, 213.55,-303.05) ">
	<g>
		<g id="Layer0_0_MEMBER_2_MEMBER_1_MEMBER_5_FILL">
			<path class="st9" d="M-599.8,823.3l0.8,1.7l1.6-0.6c0.6-0.2,1.2-0.3,1.7-0.3c0.8,0,1.4,0.2,1.6,0.5c0.3,0.3,0.5,0.9,0.5,1.6v0.6
				l-2,0.1c-1.8,0.1-3.2,0.4-4,1c-0.9,0.6-1.3,1.5-1.3,2.7c0,1.1,0.3,2,0.9,2.6c0.6,0.6,1.5,0.9,2.6,0.9c0.9,0,1.7-0.1,2.2-0.4
				c0.5-0.1,1.1-0.6,1.7-1.4h0.1l0.5,1.6l1.7,0.1v-7.7c0-1.4-0.4-2.4-1.1-3c-0.7-0.7-1.8-1-3.3-1l-2.1,0.3
				C-598.3,822.6-599,822.9-599.8,823.3 M-594.4,831.5c-0.5,0.5-1.2,0.7-2.1,0.7c-0.6,0-1-0.1-1.4-0.3c-0.3-0.3-0.5-0.7-0.5-1.2
				c0-0.8,0.3-1.3,0.9-1.6c0.5-0.4,1.3-0.6,2.5-0.6l1.5-0.1v1C-593.5,830.2-593.8,830.9-594.4,831.5z"/>
		</g>
	</g>
</g>
<g transform="matrix( 1, 0, 0, 1, 213.55,-303.05) ">
	<g>
		<g id="Layer0_0_MEMBER_2_MEMBER_1_MEMBER_6_FILL">
			<path class="st9" d="M-584.7,827c-1-0.4-1.8-0.7-2.2-1c-0.3-0.2-0.5-0.5-0.5-0.9c0-0.7,0.6-1.1,1.9-1.1c0.8,0,1.8,0.3,3.1,0.8
				l0.8-1.8c-1.3-0.5-2.5-0.8-3.8-0.8s-2.3,0.3-3.2,0.8c-0.8,0.6-1.2,1.4-1.2,2.3c0,0.9,0.2,1.5,0.7,2c0.5,0.5,1.4,1,2.7,1.5
				l1.6,0.7c0.3,0.1,0.5,0.3,0.8,0.6c0.1,0.3,0.2,0.5,0.2,0.7c0,0.9-0.7,1.4-2.2,1.4c-1.2,0-2.5-0.3-3.8-0.9v2.1
				c1,0.5,2.2,0.8,3.7,0.8c1.5,0,2.7-0.3,3.5-0.9c0.8-0.6,1.1-1.5,1.1-2.6c0-0.4,0.1-0.6,0.1-0.8c0-0.3-0.1-0.6-0.2-0.8
				c-0.6-0.7-0.9-1-1-1.1C-582.8,827.8-583.5,827.5-584.7,827z"/>
		</g>
	</g>
</g>
<g transform="matrix( 1, 0, 0, 1, 213.55,-303.05) ">
	<g>
		<g id="Layer0_0_MEMBER_2_MEMBER_1_MEMBER_7_FILL">
			<path class="st9" d="M-571.4,823.9c-0.9-1.1-2.2-1.6-3.9-1.6c-1.6,0-2.9,0.5-4,1.6c-0.9,1-1.4,2.5-1.4,4.3c0,1,0.2,2.1,0.7,3.1
				c0.4,0.8,1,1.5,1.9,2.1c0.8,0.5,1.7,0.8,2.8,0.8c1.6,0,2.9-0.5,4-1.6c0.9-1.2,1.4-2.7,1.4-4.4
				C-569.9,826.5-570.4,825.1-571.4,823.9 M-577.5,825.2c0.4-0.7,1.1-1,2.2-1c1.9,0,2.9,1.3,2.9,3.9c0,2.7-1,4-2.9,4s-2.9-1.3-2.9-4
				C-578.2,826.7-577.9,825.8-577.5,825.2z"/>
		</g>
	</g>
</g>
<g transform="matrix( 1, 0, 0, 1, 213.55,-303.05) ">
	<g>
		<g id="Layer0_0_MEMBER_2_MEMBER_1_MEMBER_8_FILL">
			<path class="st9" d="M-558.3,826.5c0-2.8-1.4-4.2-4.1-4.2c-0.9,0-1.6,0.1-2.1,0.4c-0.6,0.3-1.1,0.7-1.5,1.3h-0.1l-0.3-1.5h-1.9
				v11.4h2.4v-5.7c0-1.5,0.2-2.5,0.7-3.1c0.5-0.6,1.3-0.9,2.3-0.9c0.6,0,1.2,0.2,1.7,0.7c0.3,0.6,0.5,1.2,0.5,2v7h2.5L-558.3,826.5z
				"/>
		</g>
	</g>
</g>
<g transform="matrix( 1, 0, 0, 1, 213.55,-303.05) ">
	<g>
		<g id="Layer0_0_MEMBER_2_MEMBER_2_MEMBER_0_FILL">
			<path class="st9" d="M-665.6,801.2c0.7-0.8,1.6-1.2,2.8-1.2c1.4,0,2.7,0.3,3.8,0.9l1.4-3.4c-0.5-0.2-1.2-0.5-2.3-0.7
				c-0.9-0.2-1.9-0.3-2.9-0.3c-2.6,0-4.6,0.7-6.2,2.2c-1.4,1.3-2.1,3.3-2.1,6c0,2.7,0.7,4.7,2,6.1c1.3,1.4,3.2,2.1,5.6,2.1
				c2.2,0,4.3-0.3,6.2-1v-8.6h-6.8v3.3h2.8v2.5c-0.8,0.1-1.4,0.2-1.8,0.2c-1.2,0-2.1-0.4-2.7-1.2c-0.6-0.8-0.8-2-0.8-3.4
				C-666.6,803.1-666.3,801.9-665.6,801.2z"/>
		</g>
	</g>
</g>
<g transform="matrix( 1, 0, 0, 1, 213.55,-303.05) ">
	<g>
		<g id="Layer0_0_MEMBER_2_MEMBER_2_MEMBER_1_FILL">
			<path class="st9" d="M-643.6,798.7c-1.4-1.3-3.4-2-6-2h-5.6v16h5.2c2.5,0,4.6-0.7,6.2-2.2c1.5-1.5,2.2-3.5,2.2-6.3
				C-641.6,801.9-642.3,800-643.6,798.7 M-651,800.1h1.4c1.1,0,2,0.4,2.6,1.1c0.6,0.7,0.9,1.8,0.9,3.3s-0.3,2.7-1,3.5
				c-0.6,0.7-1.5,1.1-2.9,1.1h-1V800.1z"/>
		</g>
	</g>
</g>
<g transform="matrix( 1, 0, 0, 1, 213.55,-303.05) ">
	<g>
		<g id="Layer0_0_MEMBER_2_MEMBER_2_MEMBER_2_FILL">
			<path class="st9" d="M-628.5,800.9l1.5-3.4c-0.5-0.2-1.3-0.5-2.4-0.7c-0.9-0.2-1.9-0.3-2.9-0.3c-2.6,0-4.6,0.7-6.2,2.2
				c-1.4,1.3-2.1,3.3-2.1,6c0,2.7,0.7,4.7,2,6.1c1.3,1.4,3.2,2.1,5.7,2.1c2.2,0,4.3-0.3,6.2-1v-8.6h-6.9l0,3.3h2.9v2.5
				c-0.8,0.1-1.4,0.2-1.8,0.2c-1.2,0-2.1-0.4-2.7-1.2c-0.6-0.8-0.8-2-0.8-3.4c0-1.6,0.3-2.7,1-3.5c0.7-0.8,1.6-1.2,2.8-1.2
				C-630.9,800-629.6,800.3-628.5,800.9z"/>
		</g>
	</g>
</g>
<g transform="matrix( 1, 0, 0, 1, 213.55,-303.05) ">
	<g>
		<g id="Layer0_0_MEMBER_2_MEMBER_3_FILL">
			
				<radialGradient id="SVGID_9_" cx="-720.55" cy="850.05" r="10.0125" gradientTransform="matrix(1 0 0 -1 18.5 1685.85)" gradientUnits="userSpaceOnUse">
				<stop  offset="0" style="stop-color:#FECE5B"/>
				<stop  offset="1" style="stop-color:#F3C146"/>
			</radialGradient>
			<path class="st10" d="M-694,830.3l-3.4-5.6l-13.4,22.3h6.8c0.8,0,1.7-0.3,2.5-0.8c0.9-0.5,1.5-1.1,1.9-1.8l5.7-9.5
				c0.4-0.7,0.5-1.5,0.5-2.4C-693.4,831.7-693.6,830.9-694,830.3z"/>
		</g>
	</g>
</g>
<g transform="matrix( 1, 0, 0, 1, 213.55,-303.05) ">
	<g>
		<g id="Layer0_0_MEMBER_2_MEMBER_4_FILL">
			
				<radialGradient id="SVGID_10_" cx="-720.55" cy="850.075" r="13.7602" gradientTransform="matrix(1 0 0 -1 12.5 1680.75)" gradientUnits="userSpaceOnUse">
				<stop  offset="0" style="stop-color:#1CA863"/>
				<stop  offset="1" style="stop-color:#17904E"/>
			</radialGradient>
			<path class="st11" d="M-717.1,846.9h6.3l13.4-22.3l-6.1-10.2c0.4,0.7,0.6,1.6,0.6,2.5c0,1-0.2,1.9-0.7,2.5l-15.1,25.2
				c-0.3,0.6-0.3,1.1,0,1.5C-718.3,846.7-717.8,846.9-717.1,846.9z"/>
		</g>
	</g>
</g>
<g transform="matrix( 1, 0, 0, 1, 213.55,-303.05) ">
	<g>
		<g id="Layer0_0_MEMBER_2_MEMBER_5_FILL">
			
				<radialGradient id="SVGID_11_" cx="-720.5762" cy="850.05" r="20.2101" gradientTransform="matrix(1 0 0 -1 17.2 1661)" gradientUnits="userSpaceOnUse">
				<stop  offset="0" style="stop-color:#5880BE"/>
				<stop  offset="1" style="stop-color:#5780BE"/>
			</radialGradient>
			<path class="st12" d="M-710.8,787h-6.3c-0.8,0-1.4,0.3-1.7,0.8c-0.3,0.5-0.2,1.1,0.3,1.8l24.5,40.7c0.4,0.6,0.6,1.4,0.7,2.3
				c0,0.9-0.1,1.7-0.5,2.4l6-9.9L-710.8,787z"/>
		</g>
	</g>
</g>
<g transform="matrix( 1, 0, 0, 1, 213.55,-303.05) ">
	<g>
		<g id="Layer0_0_MEMBER_2_MEMBER_6_FILL">
			
				<radialGradient id="SVGID_12_" cx="-720.55" cy="850.05" r="16.475" gradientTransform="matrix(1 0 0 -1 23.2 1656.05)" gradientUnits="userSpaceOnUse">
				<stop  offset="0" style="stop-color:#DF4D45"/>
				<stop  offset="1" style="stop-color:#CB3A33"/>
			</radialGradient>
			<path class="st13" d="M-701.5,787.8c-0.9-0.5-1.7-0.8-2.5-0.8h-6.8l22.9,38l3.3-5.5c0.4-0.7,0.6-1.5,0.6-2.5c0-1-0.2-1.8-0.6-2.5
				l-15-25C-700,788.8-700.6,788.2-701.5,787.8z"/>
		</g>
	</g>
</g>
<g transform="matrix( 1, 0, 0, 1, 81.7,30.55) ">
	<g>
		<defs>
			<rect id="SVGID_13_" x="-509" y="355" width="16.5" height="27"/>
		</defs>
		<clipPath id="SVGID_14_">
			<use xlink:href="#SVGID_13_"  style="overflow:visible;"/>
		</clipPath>
		<text transform="matrix(1 0 0 1 -507 374.3)" class="st0 st14 st15">6</text>
	</g>
</g>
<g transform="matrix( 1, 0, 0, 1, 81.7,93.5) ">
	<g>
		<defs>
			<rect id="SVGID_15_" x="-509" y="355" width="16.5" height="27"/>
		</defs>
		<clipPath id="SVGID_16_">
			<use xlink:href="#SVGID_15_"  style="overflow:visible;"/>
		</clipPath>
		<text transform="matrix(1 0 0 1 -507 374.3)" class="st0 st14 st15">6</text>
	</g>
</g>
<g transform="matrix( 1, 0, 0, 1, 81.7,156.5) ">
	<g>
		<defs>
			<rect id="SVGID_17_" x="-509" y="355" width="16.5" height="27"/>
		</defs>
		<clipPath id="SVGID_18_">
			<use xlink:href="#SVGID_17_"  style="overflow:visible;"/>
		</clipPath>
		<text transform="matrix(1 0 0 1 -507 374.3)" class="st9 st14 st15">6</text>
	</g>
</g>
</svg>
