<?xml version="1.0" encoding="utf-8"?>
<!-- Generator: Adobe Illustrator 19.0.0, SVG Export Plug-In . SVG Version: 6.00 Build 0)  -->
<svg version="1.1" id="Layer_1" xmlns="http://www.w3.org/2000/svg" xmlns:xlink="http://www.w3.org/1999/xlink" x="0px" y="0px"
	 viewBox="255.6 262.2 150.6 64" style="enable-background:new 255.6 262.2 150.6 64;" xml:space="preserve">
<style type="text/css">
	.st0{fill:none;}
	.st1{fill:#FCBF12;}
	.st2{fill:#0A9C58;}
	.st3{opacity:0.2;fill:#BD3A26;enable-background:new    ;}
	.st4{opacity:0.2;fill:#263238;enable-background:new    ;}
	.st5{opacity:0.2;fill:#FFFFFF;enable-background:new    ;}
	.st6{fill:url(#XMLID_2_);}
	.st7{fill:url(#XMLID_3_);}
	.st8{fill:#547DBE;}
	.st9{fill:#DA4536;}
	.st10{opacity:0.2;fill:#2D3079;enable-background:new    ;}
	.st11{opacity:0.2;fill:#3E2723;enable-background:new    ;}
	.st12{fill:url(#XMLID_4_);}
	.st13{opacity:0.54;}
	.st14{opacity:0.6;}
</style>
<g>
	<g id="XMLID_24_">
		<g id="XMLID_25_">
			<g id="XMLID_72_">
				<path id="XMLID_55_" class="st0" d="M282.7,282.4l-11.6-20.1h-15.5l12.8,22.1l-12.8,22.1h15.5l11.6-20.1
					C283.4,285.2,283.4,283.6,282.7,282.4z"/>
				<polygon id="XMLID_80_" class="st1" points="276,297.7 272.3,291.3 263.5,306.6 271.1,306.6 276.1,297.9 				"/>
				<path id="XMLID_54_" class="st0" d="M282.7,282.4l-11.6-20.1h-15.5l12.8,22.1l-12.8,22.1h15.5l11.6-20.1
					C283.4,285.2,283.4,283.6,282.7,282.4z"/>
				<polygon id="XMLID_64_" class="st2" points="268.4,284.4 272.3,291.3 263.5,306.6 255.6,306.6 				"/>
				<path id="XMLID_53_" class="st0" d="M282.7,282.4l-11.6-20.1h-15.5l12.8,22.1l-12.8,22.1h15.5l11.6-20.1
					C283.4,285.2,283.4,283.6,282.7,282.4z"/>
				<polygon id="XMLID_62_" class="st3" points="271.1,306.2 263.7,306.2 263.5,306.6 271.1,306.6 276.1,297.9 276,297.7 				"/>
				<path id="XMLID_52_" class="st0" d="M282.7,282.4l-11.6-20.1h-15.5l12.8,22.1l-12.8,22.1h15.5l11.6-20.1
					C283.4,285.2,283.4,283.6,282.7,282.4z"/>
				<polygon id="XMLID_60_" class="st4" points="255.8,306.2 255.6,306.6 263.5,306.6 263.7,306.2 				"/>
				<path id="XMLID_51_" class="st0" d="M282.7,282.4l-11.6-20.1h-15.5l12.8,22.1l-12.8,22.1h15.5l11.6-20.1
					C283.4,285.2,283.4,283.6,282.7,282.4z"/>
				<polygon id="XMLID_58_" class="st5" points="255.6,306.6 255.8,306.6 268.5,284.6 268.4,284.4 				"/>
				<path id="XMLID_36_" class="st0" d="M282.7,282.4l-11.6-20.1h-15.5l12.8,22.1l-12.8,22.1h15.5l11.6-20.1
					C283.4,285.2,283.4,283.6,282.7,282.4z"/>
				
					<radialGradient id="XMLID_2_" cx="281.2162" cy="244.6462" r="16.2112" gradientTransform="matrix(0.9444 0 0 0.9444 10.4618 66.6832)" gradientUnits="userSpaceOnUse">
					<stop  offset="0" style="stop-color:#BD3A26;stop-opacity:0.2"/>
					<stop  offset="1" style="stop-color:#BD3A26;stop-opacity:2.000000e-002"/>
				</radialGradient>
				<polygon id="XMLID_79_" class="st6" points="276.1,297.9 276.1,297.9 272.3,291.3 271.4,292.9 				"/>
				<path id="XMLID_35_" class="st0" d="M282.7,282.4l-11.6-20.1h-15.5l12.8,22.1l-12.8,22.1h15.5l11.6-20.1
					C283.4,285.2,283.4,283.6,282.7,282.4z"/>
				
					<radialGradient id="XMLID_3_" cx="281.1702" cy="244.7487" r="16.3428" gradientTransform="matrix(0.9444 0 0 0.9444 10.4618 66.6832)" gradientUnits="userSpaceOnUse">
					<stop  offset="0" style="stop-color:#263238;stop-opacity:0.2"/>
					<stop  offset="1" style="stop-color:#263238;stop-opacity:2.000000e-002"/>
				</radialGradient>
				<polygon id="XMLID_78_" class="st7" points="271.4,292.9 272.3,291.3 268.4,284.4 266.5,287.7 				"/>
				<path id="XMLID_34_" class="st0" d="M282.7,282.4l-11.6-20.1h-15.5l12.8,22.1l-12.8,22.1h15.5l11.6-20.1
					C283.4,285.2,283.4,283.6,282.7,282.4z"/>
				<g id="XMLID_75_">
					<g id="XMLID_76_">
						<polygon id="XMLID_77_" class="st8" points="263.5,262.3 255.6,262.3 276.1,297.9 280.1,291 280.1,291 						"/>
					</g>
				</g>
				<path id="XMLID_33_" class="st0" d="M282.7,282.4l-11.6-20.1h-15.5l12.8,22.1l-12.8,22.1h15.5l11.6-20.1
					C283.4,285.2,283.4,283.6,282.7,282.4z"/>
				<path id="XMLID_32_" class="st9" d="M282.7,286.5c0.7-1.3,0.7-2.9,0-4.2l-11.6-20.1h-7.6l16.6,28.7L282.7,286.5z"/>
				<path id="XMLID_31_" class="st0" d="M282.7,282.4l-11.6-20.1h-15.5l12.8,22.1l-12.8,22.1h15.5l11.6-20.1
					C283.4,285.2,283.4,283.6,282.7,282.4z"/>
				<polygon id="XMLID_30_" class="st10" points="280.1,291 280,290.8 276.1,297.5 255.8,262.3 255.6,262.3 276.1,297.9 				"/>
				<path id="XMLID_29_" class="st0" d="M282.7,282.4l-11.6-20.1h-15.5l12.8,22.1l-12.8,22.1h15.5l11.6-20.1
					C283.4,285.2,283.4,283.6,282.7,282.4z"/>
				<path id="XMLID_28_" class="st5" d="M271.1,262.6l11.6,20.1c0.3,0.6,0.5,1.2,0.5,1.9c0-0.8-0.1-1.6-0.5-2.2l-11.6-20.1h-15.5
					l0.2,0.3L271.1,262.6L271.1,262.6z"/>
				<path id="XMLID_27_" class="st0" d="M282.7,282.4l-11.6-20.1h-15.5l12.8,22.1l-12.8,22.1h15.5l11.6-20.1
					C283.4,285.2,283.4,283.6,282.7,282.4z"/>
				<path id="XMLID_74_" class="st11" d="M280.1,291l2.6-4.5c0.4-0.7,0.6-1.5,0.5-2.2c0,0.7-0.2,1.3-0.5,1.9l-2.7,4.6L280.1,291z"/>
				<path id="XMLID_26_" class="st0" d="M282.7,282.4l-11.6-20.1h-15.5l12.8,22.1l-12.8,22.1h15.5l11.6-20.1
					C283.4,285.2,283.4,283.6,282.7,282.4z"/>
				
					<radialGradient id="XMLID_4_" cx="259.1403" cy="207.5187" r="49.2048" gradientTransform="matrix(0.9444 0 0 0.9444 10.4618 66.6832)" gradientUnits="userSpaceOnUse">
					<stop  offset="0" style="stop-color:#FFFFFF;stop-opacity:0.1"/>
					<stop  offset="1" style="stop-color:#FFFFFF;stop-opacity:0"/>
				</radialGradient>
				<path id="XMLID_73_" class="st12" d="M282.7,282.4l-11.6-20.1h-15.5l12.8,22.1l-12.8,22.1h15.5l11.6-20.1
					C283.4,285.2,283.4,283.6,282.7,282.4z"/>
			</g>
		</g>
	</g>
	<g id="Layer_4_1_">
		<g id="XMLID_22_" class="st13">
			<g id="XMLID_104_">
				<path id="XMLID_96_" d="M339.4,266.2H350c10.8,0,17.5,7.2,17.5,17.2c0,10.1-6.8,17.2-17.5,17.2h-10.6V266.2L339.4,266.2z
					 M350.2,295.3c7.5,0,12.2-4.2,12.2-12s-4.6-12-12.2-12h-5.6v24H350.2z"/>
			</g>
			<g id="XMLID_103_">
				<rect id="XMLID_323_" x="299.6" y="265.3" class="st0" width="106.3" height="37.5"/>
			</g>
			<g id="XMLID_102_">
				<path id="XMLID_95_" d="M335.1,281.8h-16.5v5.1h11.6c-0.4,2.6-1.3,4.6-2.6,6c-1.7,1.7-4.4,3.6-9.1,3.6c-7.3,0-13-5.9-13-13.2
					c0-7.3,5.7-13.2,13-13.2c3.9,0,6.8,1.5,8.9,3.5l3.5-3.5c-3-2.8-6.9-5-12.4-5c-10,0-18.4,8.1-18.4,18.1s8.4,18.1,18.4,18.1
					c5.4,0,9.4-1.8,12.6-5.1c3.3-3.3,4.3-7.9,4.3-11.6C335.3,283.7,335.2,282.7,335.1,281.8z"/>
			</g>
			<g id="XMLID_86_">
				<path id="XMLID_61_" d="M405.9,281.8h-16.5v5.1H401c-0.4,2.6-1.3,4.6-2.6,6c-1.7,1.7-4.4,3.6-9.1,3.6c-7.3,0-13-5.9-13-13.2
					c0-7.3,5.7-13.2,13-13.2c3.9,0,6.8,1.5,8.9,3.5l3.5-3.5c-3-2.8-6.9-5-12.4-5c-10,0-18.4,8.1-18.4,18.1s8.4,18.1,18.4,18.1
					c5.4,0,9.4-1.8,12.6-5.1c3.3-3.3,4.3-7.9,4.3-11.6C406.2,283.7,406.1,282.7,405.9,281.8z"/>
			</g>
		</g>
	</g>
	<g id="XMLID_21_" class="st14">
		<g id="XMLID_23_">
			<path id="XMLID_67_" d="M307.4,313.9V326h-1.8v-12.1h-3.8v-1.7h9.5v1.7H307.4z"/>
			<path id="XMLID_69_" d="M318.2,326.2c-0.7,0-1.3-0.1-1.9-0.4s-1-0.7-1.3-1.2h-0.1v1.3h-1.7v-13.8h1.8v4.3l-0.1,1.3h0.1
				c0.3-0.5,0.7-0.9,1.3-1.2c0.6-0.3,1.2-0.4,1.9-0.4c1.2,0,2.3,0.5,3.2,1.5c0.9,1,1.3,2.2,1.3,3.6s-0.4,2.6-1.3,3.6
				C320.5,325.7,319.4,326.2,318.2,326.2z M317.9,324.6c0.8,0,1.6-0.3,2.1-1c0.6-0.6,0.9-1.4,0.9-2.4s-0.3-1.8-0.9-2.4s-1.3-1-2.1-1
				c-0.9,0-1.6,0.3-2.2,1c-0.6,0.6-0.8,1.5-0.8,2.4c0,1,0.3,1.8,0.8,2.5C316.3,324.3,317,324.6,317.9,324.6z"/>
			<path id="XMLID_81_" d="M326.9,313.3c0,0.3-0.1,0.6-0.4,0.9c-0.2,0.2-0.5,0.4-0.9,0.4c-0.3,0-0.6-0.1-0.9-0.4
				c-0.2-0.2-0.4-0.5-0.4-0.9c0-0.3,0.1-0.6,0.4-0.9c0.2-0.2,0.5-0.4,0.9-0.4c0.3,0,0.6,0.1,0.9,0.4
				C326.7,312.6,326.9,312.9,326.9,313.3z M326.5,316.5v9.4h-1.8v-9.4H326.5z"/>
			<path id="XMLID_84_" d="M330.9,312.2V326h-1.8v-13.8H330.9z"/>
			<path id="XMLID_87_" d="M335.8,313.3c0,0.3-0.1,0.6-0.4,0.9c-0.2,0.2-0.5,0.4-0.9,0.4c-0.3,0-0.6-0.1-0.9-0.4
				c-0.2-0.2-0.4-0.5-0.4-0.9c0-0.3,0.1-0.6,0.4-0.9c0.2-0.2,0.5-0.4,0.9-0.4c0.3,0,0.6,0.1,0.9,0.4
				C335.6,312.6,335.8,312.9,335.8,313.3z M335.4,316.5v9.4h-1.8v-9.4H335.4z"/>
			<path id="XMLID_90_" d="M345.3,323.3c0,0.8-0.4,1.5-1.1,2.1s-1.6,0.8-2.7,0.8c-0.9,0-1.8-0.2-2.5-0.7s-1.2-1.1-1.5-2l1.6-0.7
				c0.2,0.6,0.6,1,1,1.3s0.9,0.5,1.5,0.5s1-0.1,1.4-0.4c0.4-0.2,0.6-0.5,0.6-0.9c0-0.6-0.5-1-1.4-1.3l-1.6-0.4
				c-1.8-0.5-2.7-1.3-2.7-2.7c0-0.9,0.3-1.5,1-2.1s1.6-0.8,2.7-0.8c0.8,0,1.6,0.2,2.3,0.6c0.7,0.4,1.1,0.9,1.4,1.6l-1.6,0.7
				c-0.2-0.4-0.5-0.7-0.9-0.9c-0.4-0.2-0.9-0.3-1.4-0.3s-0.9,0.1-1.2,0.3c-0.4,0.2-0.5,0.5-0.5,0.8c0,0.5,0.5,0.9,1.5,1.2l1.4,0.4
				C344.4,321,345.3,321.9,345.3,323.3z"/>
			<path id="XMLID_92_" d="M349.4,313.3c0,0.3-0.1,0.6-0.4,0.9c-0.2,0.2-0.5,0.4-0.9,0.4c-0.3,0-0.6-0.1-0.9-0.4
				c-0.2-0.2-0.4-0.5-0.4-0.9c0-0.3,0.1-0.6,0.4-0.9c0.2-0.2,0.5-0.4,0.9-0.4c0.3,0,0.6,0.1,0.9,0.4
				C349.3,312.6,349.4,312.9,349.4,313.3z M349,316.5v9.4h-1.8v-9.4H349z"/>
		</g>
	</g>
</g>
</svg>
