<svg width="185" height="188" xmlns="http://www.w3.org/2000/svg" xmlns:xlink="http://www.w3.org/1999/xlink" preserveAspectRatio="none">
 <defs>
  <g id="Layer0_0_MEMBER_0_MEMBER_0_MEMBER_0_FILL">
   <path id="svg_1" d="m-97,321q0,-3.85 -2.05,-5.6q-2.15,-2 -5.9,-2l-5.5,0l0,16l5.1,0q3.85,0 6.2,-2.2q2.15,-2.15 2.15,-6.2m-5.4,-3.2q0.9,1.05 0.9,3.3q0,2.4 -0.9,3.5q-0.95,1.1 -2.9,1.1l-1,0l0,-9l1.3,0q1.65,0 2.6,1.1z" fill="#4E4E4E"/>
  </g>
  <g id="Layer0_0_MEMBER_0_MEMBER_0_MEMBER_1_FILL">
   <path id="svg_2" d="m-85.9,318.15q-1.5,-1.5 -4.3,-1.5q-2.8,0 -4.5,1.7q-1.6,1.6 -1.6,4.8q0,3 1.7,4.7q2,1.65 4.8,1.65q1.9,0 2.55,-0.15q0.7,-0.1 2.1,-0.7l0,-3.1q-1.4,0.6 -2,0.7q-1.75,0.25 -2.1,0.25q-1.1,0 -1.9,-0.65q-0.85,-0.6 -0.85,-1.6l7.6,0l0,-1.9q0,-2.7 -1.5,-4.2m-5.4,1.95q0.65,-0.5 1.3,-0.5q0.7,0 1.3,0.6q0.5,0.5 0.5,1.4l-3.7,0q0.15,-1.1 0.6,-1.5z" fill="#4E4E4E"/>
  </g>
  <g id="Layer0_0_MEMBER_0_MEMBER_0_MEMBER_2_FILL">
   <path id="svg_3" d="m-71.1,316.85l-4.4,0l-2.2,7.4q-0.2,0.8 -0.2,1.2l-0.1,0l0,-0.4l-0.05,-0.4q-0.1,-0.05 -0.1,-0.3l0,-0.2l-2.1,-7.3l-4.4,0l4.65,12.4l4.2,0l4.7,-12.4z" fill="#4E4E4E"/>
  </g>
  <g id="Layer0_0_MEMBER_0_MEMBER_0_MEMBER_3_FILL">
   <path id="svg_4" d="m-61.25,313.25l-9.4,0l0,16l4.15,0l0.05,-5.9l4.8,0l0,-3.5l-4.8,0l0,-3.1l5.2,0l0,-3.5z" fill="#4E4E4E"/>
  </g>
  <g id="Layer0_0_MEMBER_0_MEMBER_0_MEMBER_4_FILL">
   <path id="svg_5" d="m-50.5,318.15q-1.5,-1.5 -4.3,-1.5q-2.8,0 -4.5,1.7q-1.6,1.6 -1.6,4.8q0,2.9 1.7,4.7q2,1.65 4.8,1.65q1.9,0 2.5,-0.15q0.7,-0.1 2.1,-0.7l0,-3.1q-1.45,0.6 -2,0.7q-1.75,0.25 -2.1,0.25q-1.1,0 -1.9,-0.65q-0.8,-0.55 -0.8,-1.6l7.6,0l0,-1.9q0,-2.7 -1.5,-4.2m-5.35,1.95q0.6,-0.5 1.3,-0.5q0.9,0 1.3,0.6q0.5,0.5 0.5,1.4l-3.7,0q0.15,-1.1 0.6,-1.5z" fill="#4E4E4E"/>
  </g>
  <g id="Layer0_0_MEMBER_0_MEMBER_0_MEMBER_5_FILL">
   <path id="svg_6" d="m-38.4,325.5q0,-1.1 -0.4,-1.75q-0.2,-0.5 -0.9,-1.2q-0.45,-0.45 -1.9,-1.1q-1.2,-0.4 -2.1,-0.9q-0.4,-0.15 -0.4,-0.5q0,-0.5 1,-0.5q0.6,0 1.5,0.3q1.2,0.4 1.8,0.7l1.2,-2.8q-0.6,-0.35 -2.2,-0.8q-1.05,-0.3 -2.3,-0.3q-2.3,0 -3.8,1q-1.3,0.85 -1.3,2.7q0,1.25 0.7,2.3q0.7,0.8 2.4,1.6q1.85,0.8 2.2,1q0.4,0.35 0.4,0.6q0,0.65 -1.4,0.65q-0.9,0 -2.1,-0.3q-0.8,-0.2 -2.2,-0.7l0,3.35q0.95,0.35 2.1,0.5q0.7,0.15 2.4,0.15q2.6,0 3.9,-1q1.4,-1.05 1.4,-3z" fill="#4E4E4E"/>
  </g>
  <g id="Layer0_0_MEMBER_0_MEMBER_0_MEMBER_6_FILL">
   <path id="svg_7" d="m-38.05,318.4l0,1.7l1.5,0l0,5.1q0,2.25 0.9,3.3q0.95,1.1 3.1,1.1q0.8,0 1.8,-0.2q0.25,-0.05 1.6,-0.5l0,-3.1q-1.15,0.4 -2.1,0.4q-1.25,0 -1,-1.2l0,-4.8l3,0l0,-3.2l-3,0l0,-2.5l-2.8,0l-1.1,2.6l-1.9,1.3z" fill="#4E4E4E"/>
  </g>
  <g id="Layer0_0_MEMBER_0_MEMBER_1_MEMBER_0_FILL">
   <path id="svg_8" d="m-162.9,349l0,1.85l10.3,0l0.1,-2.15l-7.2,0l0,-0.1l2.6,-2.5q2.25,-2.25 2.5,-2.6q0.95,-1.35 1.1,-1.9q0.4,-0.8 0.4,-1.9q0,-1.85 -1.3,-3q-1.4,-1.1 -3.4,-1.1q-1.45,0 -2.5,0.4q-1.35,0.4 -2.5,1.5l1.3,1.6q0.85,-0.7 1.9,-1.25q1,-0.25 1.7,-0.25q1.1,0 1.7,0.6q0.6,0.6 0.6,1.6q0,0.2 -0.3,1.4q-0.15,0.6 -0.8,1.4l-6.2,6.4z" fill="#4E4E4E"/>
  </g>
  <g id="Layer0_0_MEMBER_0_MEMBER_1_MEMBER_1_FILL">
   <path id="svg_9" d="m-141.8,343.25q0,-4.05 -1.3,-5.75q-1.25,-2 -3.8,-2q-2.7,0 -3.9,1.85q-1.3,1.9 -1.3,5.9q0,3.8 1.3,5.8q1.25,2 3.8,2q2.75,0 3.9,-1.9q1.3,-1.8 1.3,-5.9m-7.8,0q0,-2.8 0.6,-4.5q0.55,-1.25 2,-1.25q1.45,0 2,1.35q0.65,1.3 0.65,4.4q0,2.95 -0.65,4.4q-0.5,1.3 -2,1.3q-1.4,0 -2,-1.3q-0.6,-1.35 -0.6,-4.4z" fill="#4E4E4E"/>
  </g>
  <g id="Layer0_0_MEMBER_0_MEMBER_1_MEMBER_2_FILL">
   <path id="svg_10" d="m-134.1,335.7l-2,0l-4.4,3.5l1.2,1.5q2.15,-1.7 2.3,-1.9l0.65,-0.5q-0.15,0.7 -0.15,2.8l0,9.75l2.4,0l0,-15.15z" fill="#4E4E4E"/>
  </g>
  <g id="Layer0_0_MEMBER_0_MEMBER_1_MEMBER_3_FILL">
   <path id="svg_11" d="m-111.5,341.45q-0.7,-0.55 -0.8,-0.8q-0.2,-0.6 -0.2,-1q0,-0.95 0.6,-1.4q0.8,-0.5 1.8,-0.5q1.85,0 3.6,0.8l0.8,-2q-2,-1 -4.3,-1q-2.2,0 -3.6,1.1q-1.3,1 -1.3,3q0,1.65 0.8,2.6q0.7,0.95 2.9,1.9q1.95,0.75 2.6,1.4q0.6,0.6 0.6,1.4q0,0.95 -0.7,1.5q-0.75,0.6 -2.2,0.6q-1.2,0 -2.15,-0.3q-0.2,-0.05 -2.2,-0.75l0,2.3q1.75,0.8 4.2,0.8q2.55,0 4,-1.1q1.5,-1.25 1.5,-3.25q0,-1.15 -0.45,-1.6q-0.3,-0.75 -1.1,-1.4q-0.6,-0.5 -2.4,-1.3l-2,-1z" fill="#4E4E4E"/>
  </g>
  <g id="Layer0_0_MEMBER_0_MEMBER_1_MEMBER_4_FILL">
   <path id="svg_12" d="m-103.45,340.8q-1.4,1.7 -1.4,4.4q0,2.8 1.5,4.3q1.45,1.6 4.2,1.6l2.1,-0.15q0.9,-0.15 1.8,-0.6l0,-2q-1.1,0.45 -1.9,0.6q-1.2,0.2 -1.9,0.2q-1.5,0 -2.4,-0.9q-0.9,-0.9 -0.9,-2.6l7.6,0l0,-1.3q0,-2.45 -1.3,-3.75q-1.4,-1.4 -3.6,-1.4q-2.5,0 -3.8,1.6m1.15,3.1q0.25,-1.55 0.8,-2.1q0.7,-0.7 1.95,-0.7q0.9,0 1.75,0.7q0.7,0.55 0.7,2.1l-5.2,0z" fill="#4E4E4E"/>
  </g>
  <g id="Layer0_0_MEMBER_0_MEMBER_1_MEMBER_5_FILL">
   <path id="svg_13" d="m-92.95,340.25l0.8,1.7l1.6,-0.6q0.9,-0.3 1.7,-0.3q1.25,0 1.6,0.5q0.5,0.5 0.5,1.6l0,0.6l-2,0.1q-2.75,0.15 -4,1q-1.3,0.85 -1.3,2.7q0,1.7 0.9,2.6q0.9,0.9 2.6,0.9q1.4,0 2.2,-0.4q0.75,-0.2 1.7,-1.4l0.1,0l0.5,1.6l1.6,0.1l0,-7.7q0,-2.05 -1.1,-3q-1,-1 -3.3,-1q-1.05,0 -2.1,0.3q-0.85,0.1 -2,0.7m6.2,5.1l0,1q0,1.35 -0.8,2.15q-0.7,0.7 -2.1,0.7q-1,0 -1.4,-0.3q-0.5,-0.45 -0.5,-1.2q0,-0.95 0.8,-1.6q0.75,-0.6 2.5,-0.6l1.5,-0.15z" fill="#4E4E4E"/>
  </g>
  <g id="Layer0_0_MEMBER_0_MEMBER_1_MEMBER_6_FILL">
   <path id="svg_14" d="m-81.65,339.95q-1.2,0.9 -1.2,2.3q0,1.3 0.7,2q0.75,0.75 2.7,1.5l1.6,0.7q0.4,0.2 0.8,0.6q0.2,0.4 0.2,0.7q0,1.4 -2.2,1.4q-1.85,0 -3.8,-0.9l0,2.1q1.5,0.75 3.7,0.75q2.25,0 3.5,-0.9q1.15,-0.9 1.15,-2.6q0.05,-0.55 0.05,-0.8q0,-0.5 -0.2,-0.75q-0.9,-1 -1,-1.1q-0.45,-0.25 -2.1,-1q-1.55,-0.55 -2.2,-1q-0.5,-0.35 -0.5,-0.9q0,-1.1 1.9,-1.1q1.2,0 3.1,0.8l0.8,-1.8q-1.9,-0.8 -3.8,-0.8q-1.9,0 -3.2,0.8z" fill="#4E4E4E"/>
  </g>
  <g id="Layer0_0_MEMBER_0_MEMBER_1_MEMBER_7_FILL">
   <path id="svg_15" d="m-63,345.1q0,-2.45 -1.5,-4.25q-1.3,-1.6 -3.9,-1.6q-2.4,0 -4,1.6q-1.4,1.55 -1.4,4.3q0,1.55 0.7,3.1q0.55,1.25 1.9,2.1q1.2,0.75 2.8,0.75q2.7,0 4,-1.6q1.4,-1.8 1.4,-4.4m-8.4,0q0,-1.7 0.75,-2.9q0.5,-1 2.15,-1q2.95,0 2.95,3.9q0,4 -2.95,4q-2.9,0 -2.9,-4z" fill="#4E4E4E"/>
  </g>
  <g id="Layer0_0_MEMBER_0_MEMBER_1_MEMBER_8_FILL">
   <path id="svg_16" d="m-58.4,342.05q0.75,-0.9 2.3,-0.9q0.9,0 1.7,0.7q0.5,0.85 0.5,2l0,7l2.4,0l0,-7.35q0,-4.2 -4.1,-4.2q-1.3,0 -2.1,0.4q-0.95,0.4 -1.5,1.3l-0.1,0l-0.3,-1.5l-1.9,0l0,11.35l2.4,0l0,-5.7q0,-2.25 0.7,-3.1z" fill="#4E4E4E"/>
  </g>
  <g id="Layer0_0_MEMBER_0_MEMBER_2_MEMBER_0_FILL">
   <path id="svg_17" d="m-162.1,315.65q-2.2,2.05 -2.2,6q0,3.95 2,6.1q1.95,2.1 5.7,2.1q3.3,0 6.2,-1l0,-8.6l-6.9,0l0,3.3l2.9,0l0,2.5q-1.2,0.2 -1.8,0.2q-1.8,0 -2.7,-1.2q-0.9,-1.2 -0.9,-3.4q0,-2.35 1,-3.5q1.05,-1.2 2.9,-1.2q2,0 3.8,0.9l1.4,-3.4q-0.7,-0.35 -2.3,-0.7q-1.35,-0.3 -2.9,-0.3q-3.85,0 -6.2,2.2z" fill="#4E4E4E"/>
  </g>
  <g id="Layer0_0_MEMBER_0_MEMBER_2_MEMBER_1_FILL">
   <path id="svg_18" d="m-134.85,321.25q0,-3.45 -2,-5.55q-2.15,-2 -6,-2l-5.6,0l0,16l5.2,0q3.75,0 6.2,-2.2q2.2,-2.2 2.2,-6.25m-5.4,-3.05q0.9,1 0.9,3.3q0,2.35 -0.95,3.5q-0.85,1.1 -2.85,1.1l-1,0l0,-9l1.3,0q1.65,0 2.6,1.1z" fill="#4E4E4E"/>
  </g>
  <g id="Layer0_0_MEMBER_0_MEMBER_2_MEMBER_2_FILL">
   <path id="svg_19" d="m-120,328.85l0,-8.6l-6.9,0l0,3.3l2.9,0l0,2.5q-1.2,0.2 -1.8,0.2q-1.8,0 -2.7,-1.2q-0.85,-1.25 -0.85,-3.4q0,-2.35 1,-3.5q1.05,-1.2 2.85,-1.2q2.05,0 3.85,0.9l1.4,-3.4q-0.8,-0.35 -2.3,-0.7q-1.4,-0.3 -2.95,-0.3q-3.8,0 -6.15,2.2q-2.2,2.05 -2.2,6q0,3.95 2,6.1q1.95,2.1 5.7,2.1q3.25,0 6.15,-1z" fill="#4E4E4E"/>
  </g>
  <g id="Layer0_0_MEMBER_0_MEMBER_3_FILL">
   <path id="svg_20" d="m-186.6,349.6q0,-1.35 -0.6,-2.35l-3.4,-5.6l-13.4,22.35l6.85,0q1.2,0 2.5,-0.75q1.3,-0.75 1.85,-1.75l5.7,-9.5q0.55,-1.05 0.5,-2.4z" fill="url(#Gradient_1)"/>
  </g>
  <g id="Layer0_0_MEMBER_0_MEMBER_4_FILL">
   <path id="svg_21" d="m-190.6,341.6l-6.05,-10.15q0.6,1.09531 0.6,2.5q0,1.5 -0.6,2.55l-15.15,25.2q-0.45,0.9 -0.05,1.55q0.45,0.65 1.55,0.65l6.3,0l13.4,-22.3z" fill="url(#Gradient_2)"/>
  </g>
  <g id="Layer0_0_MEMBER_0_MEMBER_5_FILL">
   <path id="svg_22" d="m-203.95,304l-6.35,0q-1.2,0 -1.65,0.75q-0.4,0.7 0.3,1.75l24.5,40.7q0.6,0.95 0.6,2.3q0.05,1.35 -0.5,2.4l6,-9.9l-22.9,-38z" fill="url(#Gradient_3)"/>
  </g>
  <g id="Layer0_0_MEMBER_0_MEMBER_6_FILL">
   <path id="svg_23" d="m-194.7,304.75q-1.25,-0.75 -2.45,-0.75l-6.85,0l22.9,38l3.3,-5.5q0.6,-1.05 0.6,-2.5q0,-1.5 -0.6,-2.5l-15,-25q-0.6,-1.05 -1.9,-1.75z" fill="url(#Gradient_4)"/>
  </g>
  <g id="Layer0_0_MEMBER_1_MEMBER_0_MEMBER_0_FILL">
   <path id="svg_24" d="m-104.95,376.4l-5.5,0l0,16l5.1,0q3.85,0 6.2,-2.2q2.15,-2.15 2.15,-6.2q0,-3.85 -2.05,-5.6q-2.15,-2 -5.9,-2m-1.35,3.3l1.3,0q1.65,0 2.6,1.1q0.9,1.05 0.9,3.3q0,2.4 -0.9,3.5q-0.95,1.1 -2.9,1.1l-1,0l0,-9z" fill="#4E4E4E"/>
  </g>
  <g id="Layer0_0_MEMBER_1_MEMBER_0_MEMBER_1_FILL">
   <path id="svg_25" d="m-85.9,381.05q-1.5,-1.5 -4.3,-1.5q-2.8,0 -4.5,1.7q-1.6,1.6 -1.6,4.8q0,3 1.7,4.7q1.9,1.75 4.8,1.75q1.9,0 2.55,-0.25q0.7,-0.1 2.1,-0.7l0,-3.1q-1.4,0.6 -2,0.7q-1.4,0.2 -2.1,0.2q-1.15,0 -1.9,-0.6q-0.85,-0.7 -0.85,-1.6l7.6,0l0,-1.9q0,-2.7 -1.5,-4.2m-4.1,1.55q0.7,0 1.3,0.6q0.5,0.5 0.5,1.4l-3.7,0q0.15,-1.1 0.6,-1.5q0.65,-0.5 1.3,-0.5z" fill="#4E4E4E"/>
  </g>
  <g id="Layer0_0_MEMBER_1_MEMBER_0_MEMBER_2_FILL">
   <path id="svg_26" d="m-71.1,379.85l-4.4,0l-2.2,7.4q-0.2,0.8 -0.2,1.2l-0.1,0l0,-0.4l-0.05,-0.4q-0.1,-0.05 -0.1,-0.3l0,-0.2l-2.1,-7.3l-4.4,0l4.65,12.4l4.2,0l4.7,-12.4z" fill="#4E4E4E"/>
  </g>
  <g id="Layer0_0_MEMBER_1_MEMBER_0_MEMBER_3_FILL">
   <path id="svg_27" d="m-61.65,382.85l-4.8,0l0,-3.1l5.2,0l0,-3.5l-9.4,0l0,16l4.15,0l0.05,-5.9l4.8,0l0,-3.5z" fill="#4E4E4E"/>
  </g>
  <g id="Layer0_0_MEMBER_1_MEMBER_0_MEMBER_4_FILL">
   <path id="svg_28" d="m-54.8,379.55q-2.8,0 -4.5,1.7q-1.6,1.6 -1.6,4.8q0,2.9 1.7,4.7q1.9,1.75 4.8,1.75q1.9,0 2.5,-0.25q0.7,-0.1 2.1,-0.7l0,-3.1q-1.4,0.6 -2,0.7q-1.4,0.2 -2.1,0.2q-1.15,0 -1.9,-0.6q-0.8,-0.65 -0.8,-1.6l7.6,0l0,-1.9q0,-2.7 -1.5,-4.2q-1.5,-1.5 -4.3,-1.5m0.25,3.05q0.9,0 1.3,0.6q0.5,0.5 0.5,1.4l-3.7,0q0.15,-1.1 0.6,-1.5q0.6,-0.5 1.3,-0.5z" fill="#4E4E4E"/>
  </g>
  <g id="Layer0_0_MEMBER_1_MEMBER_0_MEMBER_5_FILL">
   <path id="svg_29" d="m-43.7,383.55q-0.4,-0.15 -0.4,-0.5q0,-0.5 1,-0.5q0.6,0 1.5,0.3q1.2,0.4 1.8,0.7l1.2,-2.8q-0.6,-0.35 -2.2,-0.8q-1.05,-0.3 -2.3,-0.3q-2.3,0 -3.8,1q-1.3,0.85 -1.3,2.7q0,1.25 0.7,2.3q0.7,0.8 2.4,1.6q1.85,0.8 2.2,1q0.4,0.35 0.4,0.6q0,0.65 -1.4,0.65q-0.9,0 -2.1,-0.3q-0.8,-0.2 -2.2,-0.7l0,3.35q1.4,0.5 2.1,0.5q1.5,0.15 2.4,0.15q2.6,0 3.9,-1q1.4,-1.05 1.4,-3q0,-1.1 -0.4,-1.75q-0.3,-0.75 -0.9,-1.2q-0.45,-0.45 -1.9,-1.1q-0.9,-0.3 -2.1,-0.9z" fill="#4E4E4E"/>
  </g>
  <g id="Layer0_0_MEMBER_1_MEMBER_0_MEMBER_6_FILL">
   <path id="svg_30" d="m-29.25,383.1l0,-3.2l-3,0l0,-2.5l-2.8,0l-1.1,2.6l-1.9,1.4l0,1.7l1.5,0l0,5.1q0,2.25 0.9,3.3q0.95,1.1 3.1,1.1q0.8,0 1.8,-0.2q0.25,-0.05 1.6,-0.5l0,-3.1q-1.15,0.4 -2.1,0.4q-1.25,0 -1,-1.3l0,-4.8l3,0z" fill="#4E4E4E"/>
  </g>
  <g id="Layer0_0_MEMBER_1_MEMBER_1_MEMBER_0_FILL">
   <path id="svg_31" d="m-159.6,400.85q1,-0.25 1.7,-0.25q1.1,0 1.7,0.6q0.6,0.6 0.6,1.6q0,0.8 -0.3,1.4q-0.15,0.6 -0.8,1.4l-6.2,6.4l0,1.85l10.3,0l0.1,-2.15l-7.2,0l0,-0.1l2.6,-2.5q2.15,-2.15 2.5,-2.6q0.95,-1.35 1.1,-1.9q0.4,-0.8 0.4,-1.9q0,-1.85 -1.3,-3q-1.4,-1.1 -3.4,-1.1q-1.45,0 -2.5,0.4q-1.35,0.4 -2.5,1.5l1.3,1.6q0.85,-0.7 1.9,-1.25z" fill="#4E4E4E"/>
  </g>
  <g id="Layer0_0_MEMBER_1_MEMBER_1_MEMBER_1_FILL">
   <path id="svg_32" d="m-141.8,406.25q0,-4.05 -1.3,-5.75q-1.25,-2 -3.8,-2q-2.7,0 -3.9,1.85q-1.3,1.9 -1.3,5.9q0,3.8 1.3,5.8q1.25,2 3.8,2q2.75,0 3.9,-1.9q1.3,-1.8 1.3,-5.9m-7.8,0q0,-2.8 0.6,-4.5q0.55,-1.25 2,-1.25q1.45,0 2,1.35q0.65,1.3 0.65,4.4q0,2.95 -0.65,4.4q-0.5,1.3 -2,1.3q-1.35,0 -2,-1.3q-0.6,-1.35 -0.6,-4.4z" fill="#4E4E4E"/>
  </g>
  <g id="Layer0_0_MEMBER_1_MEMBER_1_MEMBER_2_FILL">
   <path id="svg_33" d="m-134.1,398.7l-2,0l-4.4,3.5l1.2,1.5q2.15,-1.7 2.3,-1.9l0.65,-0.5q-0.15,0.7 -0.15,2.8l0,9.75l2.4,0l0,-15.15z" fill="#4E4E4E"/>
  </g>
  <g id="Layer0_0_MEMBER_1_MEMBER_1_MEMBER_3_FILL">
   <path id="svg_34" d="m-106,408.15q-0.3,-0.75 -1.1,-1.4q-0.6,-0.5 -2.4,-1.3l-2,-1q-0.55,-0.4 -0.8,-0.8q-0.2,-0.6 -0.2,-1q0,-0.95 0.6,-1.4q0.8,-0.5 1.8,-0.5q1.85,0 3.6,0.8l0.8,-2q-2,-1 -4.3,-1q-2.2,0 -3.6,1.1q-1.3,1 -1.3,3q0,1.65 0.8,2.6q0.7,0.95 2.9,1.9q1.95,0.75 2.6,1.4q0.6,0.6 0.6,1.4q0,0.95 -0.7,1.5q-0.75,0.6 -2.2,0.6q-1.2,0 -2.15,-0.3q-0.2,-0.05 -2.2,-0.75l0,2.3q1.75,0.8 4.2,0.8q2.55,0 4,-1.1q1.5,-1.25 1.5,-3.25q0,-1.15 -0.45,-1.6z" fill="#4E4E4E"/>
  </g>
  <g id="Layer0_0_MEMBER_1_MEMBER_1_MEMBER_4_FILL">
   <path id="svg_35" d="m-96.05,403.6q-1.4,-1.4 -3.6,-1.4q-2.5,0 -3.8,1.6q-1.4,1.7 -1.4,4.4q0,2.8 1.5,4.3q1.45,1.6 4.2,1.6l2.1,-0.15q0.9,-0.15 1.8,-0.6l0,-2q-1.1,0.45 -1.9,0.6q-1.2,0.2 -1.9,0.2q-1.5,0 -2.4,-0.9q-0.9,-0.9 -0.9,-2.6l7.6,0l0,-1.3q0,-2.45 -1.3,-3.75m-3.5,0.5q1.3,0 1.75,0.7q0.7,0.55 0.7,2.1l-5.2,0q0.25,-1.55 0.8,-2.1q0.7,-0.7 1.95,-0.7z" fill="#4E4E4E"/>
  </g>
  <g id="Layer0_0_MEMBER_1_MEMBER_1_MEMBER_5_FILL">
   <path id="svg_36" d="m-84.45,406.25q0,-2.05 -1.1,-3q-1,-1 -3.3,-1l-2.1,0.3q-0.85,0.1 -2,0.7l0.8,1.7l1.6,-0.6q0.9,-0.3 1.7,-0.3q1.25,0 1.6,0.5q0.5,0.5 0.5,1.6l0,0.6l-2,0.1q-2.75,0.15 -4,1q-1.3,0.85 -1.3,2.7q0,1.7 0.9,2.6q0.9,0.9 2.6,0.9q1.4,0 2.2,-0.4q0.75,-0.2 1.7,-1.4l0.1,0l0.5,1.6l1.6,0.1l0,-7.7m-3.1,5.25q-0.7,0.7 -2.1,0.7q-1,0 -1.4,-0.3q-0.5,-0.45 -0.5,-1.2q0,-1.2 0.8,-1.6q0.75,-0.6 2.5,-0.6l1.5,-0.15l0,1q0,1.35 -0.8,2.15z" fill="#4E4E4E"/>
  </g>
  <g id="Layer0_0_MEMBER_1_MEMBER_1_MEMBER_6_FILL">
   <path id="svg_37" d="m-75.65,407.95q-0.45,-0.25 -2.1,-1q-1.55,-0.55 -2.2,-1q-0.5,-0.35 -0.5,-0.9q0,-1.1 1.9,-1.1q1.2,0 3.1,0.8l0.8,-1.8q-1.9,-0.8 -3.8,-0.8q-1.9,0 -3.2,0.8q-1.2,0.9 -1.2,2.3q0,1.3 0.7,2q0.75,0.75 2.7,1.5l1.6,0.7q0.4,0.2 0.8,0.6q0.2,0.4 0.2,0.7q0,1.4 -2.2,1.4q-1.85,0 -3.8,-0.9l0,2.1q1.5,0.75 3.7,0.75q2.25,0 3.5,-0.9q1.15,-0.9 1.15,-2.6q0.05,-0.6 0.05,-0.9q0,-0.55 -0.2,-0.75q-0.6,-0.7 -1,-1z" fill="#4E4E4E"/>
  </g>
  <g id="Layer0_0_MEMBER_1_MEMBER_1_MEMBER_7_FILL">
   <path id="svg_38" d="m-63,408.1q0,-2.45 -1.5,-4.25q-1.3,-1.6 -3.9,-1.6q-2.4,0 -4,1.6q-1.4,1.55 -1.4,4.3q0,1.55 0.7,3.1q0.55,1.25 1.9,2.1q1.2,0.75 2.8,0.75q2.4,0 4,-1.6q1.4,-1.8 1.4,-4.4m-7.65,-2.9q0.5,-1 2.15,-1q2.95,0 2.95,3.9q0,4 -2.95,4q-2.9,0 -2.9,-4q0,-1.7 0.75,-2.9z" fill="#4E4E4E"/>
  </g>
  <g id="Layer0_0_MEMBER_1_MEMBER_1_MEMBER_8_FILL">
   <path id="svg_39" d="m-59.2,404l-0.1,0l-0.3,-1.5l-1.9,0l0,11.35l2.4,0l0,-5.7q0,-2.25 0.7,-3.1q0.75,-0.9 2.3,-0.9q0.9,0 1.7,0.7q0.5,0.85 0.5,2l0,7l2.4,0l0,-7.35q0,-4.2 -4.1,-4.2q-1.3,0 -2.1,0.4q-0.95,0.4 -1.5,1.3z" fill="#4E4E4E"/>
  </g>
  <g id="Layer0_0_MEMBER_1_MEMBER_2_MEMBER_0_FILL">
   <path id="svg_40" d="m-162.1,378.65q-2.2,2.05 -2.2,6q0,3.95 2,6.1q1.95,2.1 5.7,2.1q3.3,0 6.2,-1l0,-8.6l-6.9,0l0,3.3l2.9,0l0,2.5q-1.2,0.2 -1.8,0.2q-1.8,0 -2.7,-1.2q-0.9,-1.2 -0.9,-3.4q0,-2.35 1,-3.5q1.05,-1.2 2.9,-1.2q2,0 3.8,0.9l1.4,-3.4q-0.7,-0.35 -2.3,-0.7q-1.35,-0.3 -2.9,-0.3q-3.85,0 -6.2,2.2z" fill="#4E4E4E"/>
  </g>
  <g id="Layer0_0_MEMBER_1_MEMBER_2_MEMBER_1_FILL">
   <path id="svg_41" d="m-142.85,376.7l-5.6,0l0,16l5.2,0q3.75,0 6.2,-2.2q2.2,-2.2 2.2,-6.25q0,-3.45 -2,-5.55q-2.15,-2 -6,-2m-1.3,3.4l1.3,0q1.65,0 2.6,1.1q0.9,1 0.9,3.3q0,2.35 -0.95,3.5q-0.85,1.1 -2.85,1.1l-1,0l0,-9z" fill="#4E4E4E"/>
  </g>
  <g id="Layer0_0_MEMBER_1_MEMBER_2_MEMBER_2_FILL">
   <path id="svg_42" d="m-128.35,381.15q1.05,-1.2 2.85,-1.2q2.05,0 3.85,0.9l1.4,-3.4q-0.8,-0.35 -2.3,-0.7q-1.4,-0.3 -2.95,-0.3q-3.8,0 -6.15,2.2q-2.2,2.05 -2.2,6q0,3.95 2,6.1q1.95,2.1 5.7,2.1q3.25,0 6.15,-1l0,-8.6l-6.9,0l0,3.3l2.9,0l0,2.5q-1.2,0.2 -1.8,0.2q-1.8,0 -2.7,-1.2q-0.85,-1.25 -0.85,-3.4q0,-2.35 1,-3.5z" fill="#4E4E4E"/>
  </g>
  <g id="Layer0_0_MEMBER_1_MEMBER_3_FILL">
   <path id="svg_43" d="m-187.2,410.25l-3.4,-5.6l-13.4,22.35l6.85,0q1.2,0 2.5,-0.75q1.3,-0.75 1.85,-1.75l5.7,-9.5q0.55,-1.05 0.5,-2.4q0,-1.35 -0.6,-2.35z" fill="url(#Gradient_5)"/>
  </g>
  <g id="Layer0_0_MEMBER_1_MEMBER_4_FILL">
   <path id="svg_44" d="m-196.05,396.95q0,1.5 -0.6,2.55l-15.15,25.2q-0.45,0.9 -0.05,1.55q0.45,0.65 1.55,0.65l6.3,0l13.4,-22.3l-6.05,-10.15q0.6,1.09531 0.6,2.5z" fill="url(#Gradient_6)"/>
  </g>
  <g id="Layer0_0_MEMBER_1_MEMBER_5_FILL">
   <path id="svg_45" d="m-203.95,367l-6.35,0q-1.2,0 -1.65,0.75q-0.4,0.7 0.3,1.75l24.5,40.7q0.6,0.95 0.6,2.3q0.05,1.35 -0.5,2.4l6,-9.9l-22.9,-38z" fill="url(#Gradient_7)"/>
  </g>
  <g id="Layer0_0_MEMBER_1_MEMBER_6_FILL">
   <path id="svg_46" d="m-194.7,367.75q-1.25,-0.75 -2.45,-0.75l-6.85,0l22.9,38l3.3,-5.5q0.6,-1.05 0.6,-2.5q0,-1.5 -0.6,-2.5l-15,-25q-0.6,-1.05 -1.9,-1.75z" fill="url(#Gradient_8)"/>
  </g>
  <g id="Layer0_0_MEMBER_2_MEMBER_0_MEMBER_0_FILL">
   <path id="svg_47" d="m-98.85,441.4q-2.15,-2 -5.9,-2l-5.5,0l0,16l5.1,0q3.95,0 6.15,-2.2q2.2,-2.2 2.2,-6.2q0,-3.8 -2.05,-5.6m-7.25,1.3l1.3,0q1.65,0 2.6,1.1q0.9,1.05 0.9,3.3q0,2.45 -0.9,3.5q-0.95,1.1 -2.9,1.1l-1,0l0,-9z" fill="#E6E6E5"/>
  </g>
  <g id="Layer0_0_MEMBER_2_MEMBER_0_MEMBER_1_FILL">
   <path id="svg_48" d="m-85.65,444.05q-1.5,-1.5 -4.35,-1.5q-2.8,0 -4.5,1.7q-1.55,1.65 -1.55,4.8q0,3.2 1.65,4.7q2,1.75 4.85,1.75q1.75,0 2.5,-0.25q0.7,-0.1 2.1,-0.7l0,-3.1q-1.4,0.6 -2,0.7q-1.4,0.2 -2.1,0.2q-1.15,0 -1.9,-0.6q-0.8,-0.65 -0.8,-1.6l7.6,0l0,-1.9q0,-2.7 -1.5,-4.2m-2.95,2.15q0.5,0.5 0.5,1.4l-3.7,0q0.15,-1.1 0.6,-1.5q0.65,-0.5 1.3,-0.5q0.9,0 1.3,0.6z" fill="#E6E6E5"/>
  </g>
  <g id="Layer0_0_MEMBER_2_MEMBER_0_MEMBER_2_FILL">
   <path id="svg_49" d="m-71,442.85l-4.4,0l-2.2,7.4q-0.2,0.8 -0.2,1.2l-0.1,0l0,-0.4q-0.1,-0.2 -0.1,-0.4l-0.05,-0.3l0,-0.2l-2.1,-7.3l-4.4,0l4.65,12.4l4.2,0l4.7,-12.4z" fill="#E6E6E5"/>
  </g>
  <g id="Layer0_0_MEMBER_2_MEMBER_0_MEMBER_3_FILL">
   <path id="svg_50" d="m-66.35,442.75l5.2,0l0,-3.5l-9.4,0l0,16l4.15,0l0.05,-5.9l4.8,0l0,-3.5l-4.8,0l0,-3.1z" fill="#E6E6E5"/>
  </g>
  <g id="Layer0_0_MEMBER_2_MEMBER_0_MEMBER_4_FILL">
   <path id="svg_51" d="m-50.3,444.05q-1.5,-1.5 -4.3,-1.5q-2.8,0 -4.5,1.7q-1.6,1.6 -1.6,4.8q0,3.15 1.7,4.7q2,1.75 4.8,1.75q1.8,0 2.5,-0.25q0.7,-0.1 2.1,-0.7l0,-3.1q-1.45,0.6 -2,0.7q-1.3,0.2 -2.1,0.2q-1.15,0 -1.9,-0.6q-0.8,-0.65 -0.8,-1.6l7.6,0l0,-1.9q0,-2.7 -1.5,-4.2m-2.85,2.15q0.5,0.5 0.5,1.4l-3.7,0q0.15,-1.1 0.6,-1.5q0.6,-0.5 1.25,-0.5q0.9,0 1.35,0.6z" fill="#E6E6E5"/>
  </g>
  <g id="Layer0_0_MEMBER_2_MEMBER_0_MEMBER_5_FILL">
   <path id="svg_52" d="m-40.6,442.95q-1.05,-0.3 -2.3,-0.3q-2.3,0 -3.8,1q-1.3,0.85 -1.3,2.7q0,1.25 0.7,2.3q0.7,0.8 2.4,1.6q1.85,0.8 2.2,1q0.4,0.35 0.4,0.6q0,0.65 -1.4,0.65q-0.9,0 -2.1,-0.3q-0.8,-0.2 -2.2,-0.7l0,3.35q0.95,0.35 2.1,0.5q0.7,0.15 2.4,0.15q2.6,0 3.9,-1q1.4,-1.05 1.4,-3q0,-1.2 -0.4,-1.75q-0.3,-0.75 -0.9,-1.2q-0.45,-0.45 -1.9,-1.1q-0.9,-0.3 -2.1,-0.9q-0.4,-0.15 -0.4,-0.5q0,-0.5 1,-0.5q0.6,0 1.5,0.3q1.2,0.4 1.8,0.7l1.2,-2.8q-0.6,-0.35 -2.2,-0.8z" fill="#E6E6E5"/>
  </g>
  <g id="Layer0_0_MEMBER_2_MEMBER_0_MEMBER_6_FILL">
   <path id="svg_53" d="m-29.1,443l-3,0l0,-2.5l-2.8,0l-1.1,2.6l-1.9,1.3l0,1.7l1.5,0l0,5.1q0,2.15 0.9,3.3q0.95,1.1 3.1,1.1q0.8,0 1.8,-0.2q0.25,-0.05 1.6,-0.5l0,-3.1q-1.05,0.4 -2.1,0.4q-1.25,0 -1,-1.2l0,-4.8l3,0l0,-3.2z" fill="#E6E6E5"/>
  </g>
  <g id="Layer0_0_MEMBER_2_MEMBER_1_MEMBER_0_FILL">
   <path id="svg_54" d="m-159.5,463.85q1,-0.25 1.7,-0.25q1.1,0 1.7,0.6q0.6,0.55 0.6,1.6q0,0.8 -0.3,1.4q-0.15,0.6 -0.8,1.4l-6.2,6.4l0,1.85l10.3,0l0.1,-2.15l-7.2,0l0,-0.1l2.6,-2.5q2.05,-1.95 2.5,-2.6q0.95,-1.35 1.15,-1.9q0.35,-0.85 0.35,-1.9q0,-1.85 -1.3,-3q-1.35,-1.1 -3.35,-1.1q-1.45,0 -2.5,0.4q-1.3,0.4 -2.5,1.5l1.3,1.6q0.9,-0.8 1.85,-1.25z" fill="#E6E6E5"/>
  </g>
  <g id="Layer0_0_MEMBER_2_MEMBER_1_MEMBER_1_FILL">
   <path id="svg_55" d="m-142.9,463.5q-1.25,-2 -3.8,-2q-2.7,0 -3.9,1.85q-1.3,1.9 -1.3,5.9q0,3.9 1.3,5.8q1.25,2 3.8,2q2.75,0 3.9,-1.9q1.3,-1.9 1.3,-5.9q0,-3.7 -1.3,-5.75m-1.85,1.35q0.6,1.35 0.6,4.4q0,3.05 -0.6,4.4q-0.6,1.3 -2,1.3q-1.4,0 -2,-1.3q-0.6,-1.35 -0.6,-4.4q0,-3 0.6,-4.5q0.55,-1.25 2,-1.25q1.35,0 2,1.35z" fill="#E6E6E5"/>
  </g>
  <g id="Layer0_0_MEMBER_2_MEMBER_1_MEMBER_2_FILL">
   <path id="svg_56" d="m-139.05,466.7l2.9,-2.4q-0.1,0.7 -0.1,2.8l0,9.75l2.4,0l0,-15.15l-2,0l-4.4,3.5l1.2,1.5z" fill="#E6E6E5"/>
  </g>
  <g id="Layer0_0_MEMBER_2_MEMBER_1_MEMBER_3_FILL">
   <path id="svg_57" d="m-112.1,466.65q-0.2,-0.6 -0.2,-1q0,-0.95 0.6,-1.4q0.8,-0.5 1.8,-0.5q1.85,0 3.6,0.8l0.8,-2q-2,-1 -4.3,-1q-2.2,0 -3.6,1.1q-1.3,1 -1.3,3q0,1.65 0.8,2.6q0.7,0.95 2.9,1.9q1.95,0.75 2.6,1.4q0.6,0.6 0.6,1.4q0,0.95 -0.7,1.5q-0.75,0.6 -2.2,0.6q-1.2,0 -2.2,-0.3q-0.4,-0.1 -2.15,-0.75l0,2.3q1.7,0.8 4.15,0.8q2.55,0 4,-1.1q1.5,-1.25 1.5,-3.25q0,-1.15 -0.4,-1.6q-0.3,-0.75 -1.1,-1.4q-0.6,-0.5 -2.4,-1.3l-2,-1q-0.7,-0.55 -0.8,-0.8z" fill="#E6E6E5"/>
  </g>
  <g id="Layer0_0_MEMBER_2_MEMBER_1_MEMBER_4_FILL">
   <path id="svg_58" d="m-95.85,466.6q-1.4,-1.4 -3.6,-1.4q-2.5,0 -3.8,1.6q-1.4,1.7 -1.4,4.4q0,2.8 1.5,4.3q1.45,1.6 4.15,1.6l2.15,-0.15q0.9,-0.15 1.8,-0.6l0,-2q-1.1,0.45 -1.9,0.6q-1.2,0.2 -1.9,0.2q-1.5,0 -2.4,-0.9q-0.9,-0.9 -0.9,-2.6l7.6,0l0,-1.3q0,-2.45 -1.3,-3.75m-1.85,1.2q0.7,0.55 0.7,2.1l-5.2,0q0.25,-1.55 0.8,-2.1q0.7,-0.7 1.9,-0.7q0.95,0 1.8,0.7z" fill="#E6E6E5"/>
  </g>
  <g id="Layer0_0_MEMBER_2_MEMBER_1_MEMBER_5_FILL">
   <path id="svg_59" d="m-92.75,466.25l0.8,1.7l1.6,-0.6q0.9,-0.3 1.7,-0.3q1.25,0 1.6,0.5q0.5,0.5 0.5,1.6l0,0.6l-2,0.1q-2.75,0.15 -4,1q-1.3,0.85 -1.3,2.7q0,1.7 0.9,2.6q0.9,0.9 2.6,0.9q1.4,0 2.2,-0.4q0.75,-0.2 1.65,-1.4l0.1,0l0.5,1.6l1.65,0.1l0,-7.7q0,-2.05 -1.1,-3q-1,-1 -3.3,-1l-2.1,0.3q-0.85,0.1 -2,0.7m5.35,8.25q-0.7,0.7 -2.1,0.7q-0.85,0 -1.4,-0.3q-0.5,-0.5 -0.5,-1.2q0,-1.15 0.85,-1.6q0.75,-0.6 2.5,-0.6l1.5,-0.15l0,1q0,1.3 -0.85,2.15z" fill="#E6E6E5"/>
  </g>
  <g id="Layer0_0_MEMBER_2_MEMBER_1_MEMBER_6_FILL">
   <path id="svg_60" d="m-77.65,469.95q-1.55,-0.55 -2.2,-1q-0.5,-0.35 -0.5,-0.9q0,-1.1 1.9,-1.1q1.2,0 3.1,0.8l0.8,-1.8q-1.9,-0.8 -3.8,-0.8q-1.9,0 -3.2,0.8q-1.2,0.9 -1.2,2.3q0,1.3 0.7,2q0.75,0.75 2.7,1.5l1.6,0.7q0.4,0.2 0.8,0.6q0.2,0.4 0.2,0.7q0,1.4 -2.2,1.4q-1.85,0 -3.8,-0.9l0,2.1q1.5,0.75 3.7,0.75q2.25,0 3.5,-0.9q1.15,-0.9 1.15,-2.6q0.05,-0.55 0.05,-0.8q0,-0.5 -0.2,-0.75q-0.9,-1 -1,-1.1q-0.45,-0.25 -2.1,-1z" fill="#E6E6E5"/>
  </g>
  <g id="Layer0_0_MEMBER_2_MEMBER_1_MEMBER_7_FILL">
   <path id="svg_61" d="m-64.4,466.85q-1.3,-1.6 -3.9,-1.6q-2.4,0 -4,1.6q-1.4,1.55 -1.4,4.3q0,1.55 0.7,3.1q0.55,1.25 1.9,2.1q1.2,0.75 2.8,0.75q2.4,0 4,-1.6q1.4,-1.8 1.4,-4.4q0,-2.35 -1.5,-4.25m-6.05,1.35q0.55,-1 2.2,-1q2.9,0 2.9,3.9q0,4 -2.9,4q-2.9,0 -2.9,-4q0,-2.05 0.7,-2.9z" fill="#E6E6E5"/>
  </g>
  <g id="Layer0_0_MEMBER_2_MEMBER_1_MEMBER_8_FILL">
   <path id="svg_62" d="m-51.3,469.5q0,-4.2 -4.1,-4.2q-1.3,0 -2.1,0.4q-0.95,0.4 -1.5,1.3l-0.1,0l-0.3,-1.5l-1.9,0l0,11.35l2.4,0l0,-5.7q0,-2.25 0.7,-3.1q0.75,-0.9 2.3,-0.9q0.9,0 1.7,0.7q0.5,0.85 0.5,2l0,7l2.45,0l-0.05,-7.35z" fill="#E6E6E5"/>
  </g>
  <g id="Layer0_0_MEMBER_2_MEMBER_2_MEMBER_0_FILL">
   <path id="svg_63" d="m-158.65,444.15q1,-1.2 2.85,-1.2q2.1,0 3.8,0.9l1.4,-3.4q-0.7,-0.35 -2.3,-0.7q-1.35,-0.3 -2.9,-0.3q-3.85,0 -6.2,2.2q-2.15,2 -2.15,6q0,4.05 2,6.1q1.95,2.1 5.65,2.1q3.35,0 6.2,-1l0,-8.6l-6.85,0l0,3.3l2.85,0l0,2.5q-1.2,0.2 -1.8,0.2q-1.8,0 -2.7,-1.2q-0.85,-1.25 -0.85,-3.4q0,-2.35 1,-3.5z" fill="#E6E6E5"/>
  </g>
  <g id="Layer0_0_MEMBER_2_MEMBER_2_MEMBER_1_FILL">
   <path id="svg_64" d="m-136.65,441.7q-2.15,-2 -6,-2l-5.6,0l0,16l5.2,0q3.75,0 6.2,-2.2q2.2,-2.2 2.2,-6.25q0,-3.55 -2,-5.55m-7.35,1.4l1.35,0q1.65,0 2.6,1.1q0.9,1.05 0.9,3.3q0,2.25 -0.95,3.5q-0.85,1.1 -2.9,1.1l-1,0l0,-9z" fill="#E6E6E5"/>
  </g>
  <g id="Layer0_0_MEMBER_2_MEMBER_2_MEMBER_2_FILL">
   <path id="svg_65" d="m-121.5,443.85l1.45,-3.4q-0.75,-0.35 -2.35,-0.7q-1.35,-0.3 -2.9,-0.3q-3.85,0 -6.2,2.2q-2.15,2 -2.15,6q0,4.05 2,6.1q1.95,2.1 5.7,2.1q3.3,0 6.2,-1l0,-8.6l-6.9,0l-0.05,3.3l2.9,0l0,2.5q-1.2,0.2 -1.8,0.2q-1.8,0 -2.7,-1.2q-0.85,-1.25 -0.85,-3.4q0,-2.35 1,-3.5q1,-1.2 2.85,-1.2q2.1,0 3.8,0.9z" fill="#E6E6E5"/>
  </g>
  <g id="Layer0_0_MEMBER_2_MEMBER_3_FILL">
   <path id="svg_66" d="m-187,473.25l-3.4,-5.6l-13.4,22.35l6.8,0q1.25,0 2.55,-0.75q1.3,-0.75 1.85,-1.75l5.7,-9.5q0.55,-1.05 0.5,-2.4q0,-1.35 -0.6,-2.35z" fill="url(#Gradient_9)"/>
  </g>
  <g id="Layer0_0_MEMBER_2_MEMBER_4_FILL">
   <path id="svg_67" d="m-210.1,489.9l6.3,0l13.4,-22.3l-6.05,-10.15q0.6,1.09531 0.6,2.5q0,1.5 -0.65,2.55l-15.1,25.2q-0.45,0.9 -0.05,1.55q0.45,0.65 1.55,0.65z" fill="url(#Gradient_10)"/>
  </g>
  <g id="Layer0_0_MEMBER_2_MEMBER_5_FILL">
   <path id="svg_68" d="m-203.75,430l-6.35,0q-1.2,0 -1.65,0.75q-0.4,0.7 0.25,1.75l24.5,40.7q0.65,0.95 0.65,2.3q0.05,1.35 -0.5,2.4l6,-9.9l-22.9,-38z" fill="url(#Gradient_11)"/>
  </g>
  <g id="Layer0_0_MEMBER_2_MEMBER_6_FILL">
   <path id="svg_69" d="m-194.5,430.75q-1.3,-0.75 -2.5,-0.75l-6.8,0l22.9,38l3.3,-5.5q0.6,-1.05 0.6,-2.5q0,-1.5 -0.6,-2.5l-15,-25q-0.6,-1.05 -1.9,-1.75z" fill="url(#Gradient_12)"/>
  </g>
  <!--  Font Name: Myriad Pro Semibold
Vendor ID: ADBE
© 1992, 1994, 1997, 2000, 2004 Adobe Systems Incorporated. All rights reserved.
http://www.adobe.com/type/legal.html
URL for more Information: http://www.adobe.com/go/font_vendor_id?ID=ADBE&Name=Myriad%20Pro&PSName=MyriadPro-Semibold&applanguage=en_US-->
  <radialGradient spreadMethod="pad" gradientTransform="matrix( 1, 0, 0, 1, -195.2,352.8) " fy="0" fx="0" r="10" cy="0" cx="0" gradientUnits="userSpaceOnUse" id="Gradient_1">
   <stop stop-color="#FECE5B" offset="0%"/>
   <stop stop-color="#F3C146" offset="100%"/>
  </radialGradient>
  <radialGradient spreadMethod="pad" gradientTransform="matrix( 0.9999999999999996, 0, 0, 0.9999999999999996, -201.2,347.7) " fy="0" fx="0" r="13.775" cy="0" cx="0" gradientUnits="userSpaceOnUse" id="Gradient_2">
   <stop stop-color="#1CA863" offset="0%"/>
   <stop stop-color="#17904E" offset="100%"/>
  </radialGradient>
  <radialGradient spreadMethod="pad" gradientTransform="matrix( 0.9999999999999998, 0, 0, 0.9999999999999998, -196.55,327.95) " fy="0" fx="0" r="20.2125" cy="0" cx="0" gradientUnits="userSpaceOnUse" id="Gradient_3">
   <stop stop-color="#5880BE" offset="0%"/>
   <stop stop-color="#5780BE" offset="100%"/>
  </radialGradient>
  <radialGradient spreadMethod="pad" gradientTransform="matrix( 1.0000000000000004, 0, 0, 1.0000000000000004, -190.5,323) " fy="0" fx="0" r="16.475" cy="0" cx="0" gradientUnits="userSpaceOnUse" id="Gradient_4">
   <stop stop-color="#DF4D45" offset="0%"/>
   <stop stop-color="#CB3A33" offset="100%"/>
  </radialGradient>
  <radialGradient spreadMethod="pad" gradientTransform="matrix( 1, 0, 0, 1, -195.2,415.8) " fy="0" fx="0" r="10" cy="0" cx="0" gradientUnits="userSpaceOnUse" id="Gradient_5">
   <stop stop-color="#CCCCCC" offset="0%"/>
   <stop stop-color="#C0C0C0" offset="100%"/>
  </radialGradient>
  <radialGradient spreadMethod="pad" gradientTransform="matrix( 0.9999999999999996, 0, 0, 0.9999999999999996, -201.2,410.7) " fy="0" fx="0" r="13.775" cy="0" cx="0" gradientUnits="userSpaceOnUse" id="Gradient_6">
   <stop stop-color="#A0A0A0" offset="0%"/>
   <stop stop-color="#7B7B7B" offset="100%"/>
  </radialGradient>
  <radialGradient spreadMethod="pad" gradientTransform="matrix( 0.9999999999999998, 0, 0, 0.9999999999999998, -196.55,390.95) " fy="0" fx="0" r="20.2125" cy="0" cx="0" gradientUnits="userSpaceOnUse" id="Gradient_7">
   <stop stop-color="#848484" offset="0%"/>
   <stop stop-color="#838383" offset="100%"/>
  </radialGradient>
  <radialGradient spreadMethod="pad" gradientTransform="matrix( 1.0000000000000004, 0, 0, 1.0000000000000004, -190.5,386) " fy="0" fx="0" r="16.475" cy="0" cx="0" gradientUnits="userSpaceOnUse" id="Gradient_8">
   <stop stop-color="#626262" offset="0%"/>
   <stop stop-color="#474747" offset="100%"/>
  </radialGradient>
  <radialGradient spreadMethod="pad" gradientTransform="matrix( 1.0000000000000013, 0, 0, 1.0000000000000013, -195.05,478.8) " fy="0" fx="0" r="10.0125" cy="0" cx="0" gradientUnits="userSpaceOnUse" id="Gradient_9">
   <stop stop-color="#FECE5B" offset="0%"/>
   <stop stop-color="#F3C146" offset="100%"/>
  </radialGradient>
  <radialGradient spreadMethod="pad" gradientTransform="matrix( 0.9999999999999996, 0, 0, 0.9999999999999996, -201.05,473.7) " fy="0" fx="0" r="13.775" cy="0" cx="0" gradientUnits="userSpaceOnUse" id="Gradient_10">
   <stop stop-color="#1CA863" offset="0%"/>
   <stop stop-color="#17904E" offset="100%"/>
  </radialGradient>
  <radialGradient spreadMethod="pad" gradientTransform="matrix( 0.9999999999999991, 0, 0, 0.9999999999999991, -196.35,453.95) " fy="0" fx="0" r="20.2" cy="0" cx="0" gradientUnits="userSpaceOnUse" id="Gradient_11">
   <stop stop-color="#5880BE" offset="0%"/>
   <stop stop-color="#5780BE" offset="100%"/>
  </radialGradient>
  <radialGradient spreadMethod="pad" gradientTransform="matrix( 1.0000000000000004, 0, 0, 1.0000000000000004, -190.35,449) " fy="0" fx="0" r="16.475" cy="0" cx="0" gradientUnits="userSpaceOnUse" id="Gradient_12">
   <stop stop-color="#DF4D45" offset="0%"/>
   <stop stop-color="#CB3A33" offset="100%"/>
  </radialGradient>
 </defs>
 <g>
  <title>background</title>
  <rect fill="none" id="canvas_background" height="402" width="582" y="-1" x="-1"/>
 </g>
 <g>
  <title>Layer 1</title>
  <g id="svg_70" transform="matrix(1,0,0,1,213.55,-303.05) ">
   <use id="svg_71" xlink:href="#Layer0_0_MEMBER_0_MEMBER_0_MEMBER_0_FILL"/>
  </g>
  <g id="svg_72" transform="matrix(1,0,0,1,213.55,-303.05) ">
   <use id="svg_73" xlink:href="#Layer0_0_MEMBER_0_MEMBER_0_MEMBER_1_FILL"/>
  </g>
  <g id="svg_74" transform="matrix(1,0,0,1,213.55,-303.05) ">
   <use id="svg_75" xlink:href="#Layer0_0_MEMBER_0_MEMBER_0_MEMBER_2_FILL"/>
  </g>
  <g id="svg_76" transform="matrix(1,0,0,1,213.55,-303.05) ">
   <use id="svg_77" xlink:href="#Layer0_0_MEMBER_0_MEMBER_0_MEMBER_3_FILL"/>
  </g>
  <g id="svg_78" transform="matrix(1,0,0,1,213.55,-303.05) ">
   <use id="svg_79" xlink:href="#Layer0_0_MEMBER_0_MEMBER_0_MEMBER_4_FILL"/>
  </g>
  <g id="svg_80" transform="matrix(1,0,0,1,213.55,-303.05) ">
   <use id="svg_81" xlink:href="#Layer0_0_MEMBER_0_MEMBER_0_MEMBER_5_FILL"/>
  </g>
  <g id="svg_82" transform="matrix(1,0,0,1,213.55,-303.05) ">
   <use id="svg_83" xlink:href="#Layer0_0_MEMBER_0_MEMBER_0_MEMBER_6_FILL"/>
  </g>
  <g id="svg_84" transform="matrix(1,0,0,1,213.55,-303.05) ">
   <use id="svg_85" xlink:href="#Layer0_0_MEMBER_0_MEMBER_1_MEMBER_0_FILL"/>
  </g>
  <g id="svg_86" transform="matrix(1,0,0,1,213.55,-303.05) ">
   <use id="svg_87" xlink:href="#Layer0_0_MEMBER_0_MEMBER_1_MEMBER_1_FILL"/>
  </g>
  <g id="svg_88" transform="matrix(1,0,0,1,213.55,-303.05) ">
   <use id="svg_89" xlink:href="#Layer0_0_MEMBER_0_MEMBER_1_MEMBER_2_FILL"/>
  </g>
  <g id="svg_90" transform="matrix(1,0,0,1,213.55,-303.05) ">
   <use id="svg_91" xlink:href="#Layer0_0_MEMBER_0_MEMBER_1_MEMBER_3_FILL"/>
  </g>
  <g id="svg_92" transform="matrix(1,0,0,1,213.55,-303.05) ">
   <use id="svg_93" xlink:href="#Layer0_0_MEMBER_0_MEMBER_1_MEMBER_4_FILL"/>
  </g>
  <g id="svg_94" transform="matrix(1,0,0,1,213.55,-303.05) ">
   <use id="svg_95" xlink:href="#Layer0_0_MEMBER_0_MEMBER_1_MEMBER_5_FILL"/>
  </g>
  <g id="svg_96" transform="matrix(1,0,0,1,213.55,-303.05) ">
   <use id="svg_97" xlink:href="#Layer0_0_MEMBER_0_MEMBER_1_MEMBER_6_FILL"/>
  </g>
  <g id="svg_98" transform="matrix(1,0,0,1,213.55,-303.05) ">
   <use id="svg_99" xlink:href="#Layer0_0_MEMBER_0_MEMBER_1_MEMBER_7_FILL"/>
  </g>
  <g id="svg_100" transform="matrix(1,0,0,1,213.55,-303.05) ">
   <use id="svg_101" xlink:href="#Layer0_0_MEMBER_0_MEMBER_1_MEMBER_8_FILL"/>
  </g>
  <g id="svg_102" transform="matrix(1,0,0,1,213.55,-303.05) ">
   <use id="svg_103" xlink:href="#Layer0_0_MEMBER_0_MEMBER_2_MEMBER_0_FILL"/>
  </g>
  <g id="svg_104" transform="matrix(1,0,0,1,213.55,-303.05) ">
   <use id="svg_105" xlink:href="#Layer0_0_MEMBER_0_MEMBER_2_MEMBER_1_FILL"/>
  </g>
  <g id="svg_106" transform="matrix(1,0,0,1,213.55,-303.05) ">
   <use id="svg_107" xlink:href="#Layer0_0_MEMBER_0_MEMBER_2_MEMBER_2_FILL"/>
  </g>
  <g id="svg_108" transform="matrix(1,0,0,1,213.55,-303.05) ">
   <use id="svg_109" xlink:href="#Layer0_0_MEMBER_0_MEMBER_3_FILL"/>
  </g>
  <g id="svg_110" transform="matrix(1,0,0,1,213.55,-303.05) ">
   <use id="svg_111" xlink:href="#Layer0_0_MEMBER_0_MEMBER_4_FILL"/>
  </g>
  <g id="svg_112" transform="matrix(1,0,0,1,213.55,-303.05) ">
   <use id="svg_113" xlink:href="#Layer0_0_MEMBER_0_MEMBER_5_FILL"/>
  </g>
  <g id="svg_114" transform="matrix(1,0,0,1,213.55,-303.05) ">
   <use id="svg_115" xlink:href="#Layer0_0_MEMBER_0_MEMBER_6_FILL"/>
  </g>
  <g id="svg_116" transform="matrix(1,0,0,1,213.55,-303.05) ">
   <use id="svg_117" xlink:href="#Layer0_0_MEMBER_1_MEMBER_0_MEMBER_0_FILL"/>
  </g>
  <g id="svg_118" transform="matrix(1,0,0,1,213.55,-303.05) ">
   <use id="svg_119" xlink:href="#Layer0_0_MEMBER_1_MEMBER_0_MEMBER_1_FILL"/>
  </g>
  <g id="svg_120" transform="matrix(1,0,0,1,213.55,-303.05) ">
   <use id="svg_121" xlink:href="#Layer0_0_MEMBER_1_MEMBER_0_MEMBER_2_FILL"/>
  </g>
  <g id="svg_122" transform="matrix(1,0,0,1,213.55,-303.05) ">
   <use id="svg_123" xlink:href="#Layer0_0_MEMBER_1_MEMBER_0_MEMBER_3_FILL"/>
  </g>
  <g id="svg_124" transform="matrix(1,0,0,1,213.55,-303.05) ">
   <use id="svg_125" xlink:href="#Layer0_0_MEMBER_1_MEMBER_0_MEMBER_4_FILL"/>
  </g>
  <g id="svg_126" transform="matrix(1,0,0,1,213.55,-303.05) ">
   <use id="svg_127" xlink:href="#Layer0_0_MEMBER_1_MEMBER_0_MEMBER_5_FILL"/>
  </g>
  <g id="svg_128" transform="matrix(1,0,0,1,213.55,-303.05) ">
   <use id="svg_129" xlink:href="#Layer0_0_MEMBER_1_MEMBER_0_MEMBER_6_FILL"/>
  </g>
  <g id="svg_130" transform="matrix(1,0,0,1,213.55,-303.05) ">
   <use id="svg_131" xlink:href="#Layer0_0_MEMBER_1_MEMBER_1_MEMBER_0_FILL"/>
  </g>
  <g id="svg_132" transform="matrix(1,0,0,1,213.55,-303.05) ">
   <use id="svg_133" xlink:href="#Layer0_0_MEMBER_1_MEMBER_1_MEMBER_1_FILL"/>
  </g>
  <g id="svg_134" transform="matrix(1,0,0,1,213.55,-303.05) ">
   <use id="svg_135" xlink:href="#Layer0_0_MEMBER_1_MEMBER_1_MEMBER_2_FILL"/>
  </g>
  <g id="svg_136" transform="matrix(1,0,0,1,213.55,-303.05) ">
   <use id="svg_137" xlink:href="#Layer0_0_MEMBER_1_MEMBER_1_MEMBER_3_FILL"/>
  </g>
  <g id="svg_138" transform="matrix(1,0,0,1,213.55,-303.05) ">
   <use id="svg_139" xlink:href="#Layer0_0_MEMBER_1_MEMBER_1_MEMBER_4_FILL"/>
  </g>
  <g id="svg_140" transform="matrix(1,0,0,1,213.55,-303.05) ">
   <use id="svg_141" xlink:href="#Layer0_0_MEMBER_1_MEMBER_1_MEMBER_5_FILL"/>
  </g>
  <g id="svg_142" transform="matrix(1,0,0,1,213.55,-303.05) ">
   <use id="svg_143" xlink:href="#Layer0_0_MEMBER_1_MEMBER_1_MEMBER_6_FILL"/>
  </g>
  <g id="svg_144" transform="matrix(1,0,0,1,213.55,-303.05) ">
   <use id="svg_145" xlink:href="#Layer0_0_MEMBER_1_MEMBER_1_MEMBER_7_FILL"/>
  </g>
  <g id="svg_146" transform="matrix(1,0,0,1,213.55,-303.05) ">
   <use id="svg_147" xlink:href="#Layer0_0_MEMBER_1_MEMBER_1_MEMBER_8_FILL"/>
  </g>
  <g id="svg_148" transform="matrix(1,0,0,1,213.55,-303.05) ">
   <use id="svg_149" xlink:href="#Layer0_0_MEMBER_1_MEMBER_2_MEMBER_0_FILL"/>
  </g>
  <g id="svg_150" transform="matrix(1,0,0,1,213.55,-303.05) ">
   <use id="svg_151" xlink:href="#Layer0_0_MEMBER_1_MEMBER_2_MEMBER_1_FILL"/>
  </g>
  <g id="svg_152" transform="matrix(1,0,0,1,213.55,-303.05) ">
   <use id="svg_153" xlink:href="#Layer0_0_MEMBER_1_MEMBER_2_MEMBER_2_FILL"/>
  </g>
  <g id="svg_154" transform="matrix(1,0,0,1,213.55,-303.05) ">
   <use id="svg_155" xlink:href="#Layer0_0_MEMBER_1_MEMBER_3_FILL"/>
  </g>
  <g id="svg_156" transform="matrix(1,0,0,1,213.55,-303.05) ">
   <use id="svg_157" xlink:href="#Layer0_0_MEMBER_1_MEMBER_4_FILL"/>
  </g>
  <g id="svg_158" transform="matrix(1,0,0,1,213.55,-303.05) ">
   <use id="svg_159" xlink:href="#Layer0_0_MEMBER_1_MEMBER_5_FILL"/>
  </g>
  <g id="svg_160" transform="matrix(1,0,0,1,213.55,-303.05) ">
   <use id="svg_161" xlink:href="#Layer0_0_MEMBER_1_MEMBER_6_FILL"/>
  </g>
  <g id="svg_162" transform="matrix(1,0,0,1,213.55,-303.05) ">
   <use id="svg_163" xlink:href="#Layer0_0_MEMBER_2_MEMBER_0_MEMBER_0_FILL"/>
  </g>
  <g id="svg_164" transform="matrix(1,0,0,1,213.55,-303.05) ">
   <use id="svg_165" xlink:href="#Layer0_0_MEMBER_2_MEMBER_0_MEMBER_1_FILL"/>
  </g>
  <g id="svg_166" transform="matrix(1,0,0,1,213.55,-303.05) ">
   <use id="svg_167" xlink:href="#Layer0_0_MEMBER_2_MEMBER_0_MEMBER_2_FILL"/>
  </g>
  <g id="svg_168" transform="matrix(1,0,0,1,213.55,-303.05) ">
   <use id="svg_169" xlink:href="#Layer0_0_MEMBER_2_MEMBER_0_MEMBER_3_FILL"/>
  </g>
  <g id="svg_170" transform="matrix(1,0,0,1,213.55,-303.05) ">
   <use id="svg_171" xlink:href="#Layer0_0_MEMBER_2_MEMBER_0_MEMBER_4_FILL"/>
  </g>
  <g id="svg_172" transform="matrix(1,0,0,1,213.55,-303.05) ">
   <use id="svg_173" xlink:href="#Layer0_0_MEMBER_2_MEMBER_0_MEMBER_5_FILL"/>
  </g>
  <g id="svg_174" transform="matrix(1,0,0,1,213.55,-303.05) ">
   <use id="svg_175" xlink:href="#Layer0_0_MEMBER_2_MEMBER_0_MEMBER_6_FILL"/>
  </g>
  <g id="svg_176" transform="matrix(1,0,0,1,213.55,-303.05) ">
   <use id="svg_177" xlink:href="#Layer0_0_MEMBER_2_MEMBER_1_MEMBER_0_FILL"/>
  </g>
  <g id="svg_178" transform="matrix(1,0,0,1,213.55,-303.05) ">
   <use id="svg_179" xlink:href="#Layer0_0_MEMBER_2_MEMBER_1_MEMBER_1_FILL"/>
  </g>
  <g id="svg_180" transform="matrix(1,0,0,1,213.55,-303.05) ">
   <use id="svg_181" xlink:href="#Layer0_0_MEMBER_2_MEMBER_1_MEMBER_2_FILL"/>
  </g>
  <g id="svg_182" transform="matrix(1,0,0,1,213.55,-303.05) ">
   <use id="svg_183" xlink:href="#Layer0_0_MEMBER_2_MEMBER_1_MEMBER_3_FILL"/>
  </g>
  <g id="svg_184" transform="matrix(1,0,0,1,213.55,-303.05) ">
   <use id="svg_185" xlink:href="#Layer0_0_MEMBER_2_MEMBER_1_MEMBER_4_FILL"/>
  </g>
  <g id="svg_186" transform="matrix(1,0,0,1,213.55,-303.05) ">
   <use id="svg_187" xlink:href="#Layer0_0_MEMBER_2_MEMBER_1_MEMBER_5_FILL"/>
  </g>
  <g id="svg_188" transform="matrix(1,0,0,1,213.55,-303.05) ">
   <use id="svg_189" xlink:href="#Layer0_0_MEMBER_2_MEMBER_1_MEMBER_6_FILL"/>
  </g>
  <g id="svg_190" transform="matrix(1,0,0,1,213.55,-303.05) ">
   <use id="svg_191" xlink:href="#Layer0_0_MEMBER_2_MEMBER_1_MEMBER_7_FILL"/>
  </g>
  <g id="svg_192" transform="matrix(1,0,0,1,213.55,-303.05) ">
   <use id="svg_193" xlink:href="#Layer0_0_MEMBER_2_MEMBER_1_MEMBER_8_FILL"/>
  </g>
  <g id="svg_194" transform="matrix(1,0,0,1,213.55,-303.05) ">
   <use id="svg_195" xlink:href="#Layer0_0_MEMBER_2_MEMBER_2_MEMBER_0_FILL"/>
  </g>
  <g id="svg_196" transform="matrix(1,0,0,1,213.55,-303.05) ">
   <use id="svg_197" xlink:href="#Layer0_0_MEMBER_2_MEMBER_2_MEMBER_1_FILL"/>
  </g>
  <g id="svg_198" transform="matrix(1,0,0,1,213.55,-303.05) ">
   <use id="svg_199" xlink:href="#Layer0_0_MEMBER_2_MEMBER_2_MEMBER_2_FILL"/>
  </g>
  <g id="svg_200" transform="matrix(1,0,0,1,213.55,-303.05) ">
   <use id="svg_201" xlink:href="#Layer0_0_MEMBER_2_MEMBER_3_FILL"/>
  </g>
  <g id="svg_202" transform="matrix(1,0,0,1,213.55,-303.05) ">
   <use id="svg_203" xlink:href="#Layer0_0_MEMBER_2_MEMBER_4_FILL"/>
  </g>
  <g id="svg_204" transform="matrix(1,0,0,1,213.55,-303.05) ">
   <use id="svg_205" xlink:href="#Layer0_0_MEMBER_2_MEMBER_5_FILL"/>
  </g>
  <g id="svg_206" transform="matrix(1,0,0,1,213.55,-303.05) ">
   <use id="svg_207" xlink:href="#Layer0_0_MEMBER_2_MEMBER_6_FILL"/>
  </g>
  <path id="svg_221" d="m84.125034,39.609198" opacity="0.5" stroke-width="1.5" stroke="#000" fill="#fff"/>
  <text stroke="#000000" transform="matrix(0.8647894595522843,0,0,0.8906060452778775,13.808368370081617,1.235740300115527) " xml:space="preserve" text-anchor="start" font-family="Helvetica, Arial, sans-serif" font-size="24" id="svg_224" y="51.731986" x="79.173935" stroke-width="0" fill="#565656">8</text>
  <text stroke="#000000" transform="matrix(0.8647894595522843,0,0,0.8906060452778775,13.808368370081617,1.235740300115527) " xml:space="preserve" text-anchor="start" font-family="Helvetica, Arial, sans-serif" font-size="24" id="svg_225" y="123.031432" x="79.752108" stroke-width="0" fill="#565656">8</text>
  <text stroke="#000000" transform="matrix(0.8647894595522843,0,0,0.8906060452778775,13.808368370081617,1.235740300115527) " xml:space="preserve" text-anchor="start" font-family="Helvetica, Arial, sans-serif" font-size="24" id="svg_226" y="193.208048" x="78.595763" stroke-width="0" fill="#e8e8e8">8</text>
 </g>
</svg>