<?xml version="1.0" encoding="utf-8"?>
<!-- Generator: Adobe Illustrator 19.0.0, SVG Export Plug-In . SVG Version: 6.00 Build 0)  -->
<svg version="1.1"
	 id="svg2" inkscape:version="0.48.2 r9819" sodipodi:docname="РќРѕРІРёР№ РґРѕРєСѓРјРµРЅС‚ 1" xmlns:sodipodi="http://sodipodi.sourceforge.net/DTD/sodipodi-0.dtd" xmlns:svg="http://www.w3.org/2000/svg" xmlns:rdf="http://www.w3.org/1999/02/22-rdf-syntax-ns#" xmlns:cc="http://creativecommons.org/ns#" xmlns:dc="http://purl.org/dc/elements/1.1/" xmlns:inkscape="http://www.inkscape.org/namespaces/inkscape"
	 xmlns="http://www.w3.org/2000/svg" xmlns:xlink="http://www.w3.org/1999/xlink" x="0px" y="0px" viewBox="-184 367 297.5 60"
	 style="enable-background:new -184 367 297.5 60;" xml:space="preserve">
<style type="text/css">
	.st0{fill:url(#path4221_1_);}
	.st1{fill:none;}
	.st2{opacity:9.000000e-02;fill:#010101;enable-background:new    ;}
	.st3{fill:url(#path4236_1_);}
	.st4{fill:#4E4E4E;}
	.st5{font-family:'Helvetica-Bold';}
	.st6{font-size:45.4663px;}
</style>
<linearGradient id="path4221_1_" gradientUnits="userSpaceOnUse" x1="2031.9133" y1="421.5316" x2="2047.4008" y2="431.209" gradientTransform="matrix(1 0 0 1 -2207.7988 -11.2378)">
	<stop  offset="0.54" style="stop-color:#0A985C"/>
	<stop  offset="0.54" style="stop-color:#F6C25B"/>
</linearGradient>
<path id="path4221" inkscape:connector-curvature="0" class="st0" d="M-158,410.5c-1.2-2-4-7.1-6.2-10.9l-2.4-4.2
	c0.6,1.1,0.5,2.8-0.1,3.8l-15.9,26c-0.7,1.1-0.2,2,1.1,2h14.2c1.3,0,2.9-0.9,3.6-2l6.4-10.4C-157.4,415-156.5,413-158,410.5
	L-158,410.5z"/>
<g id="g4223">
	<path id="path4225" inkscape:connector-curvature="0" class="st1" d="M-170.5,405.4l-12.1,19.8c-0.7,1.1-0.2,2,1.1,2h14.2
		c1.3,0,2.9-0.9,3.6-2l6.4-10.4L-170.5,405.4L-170.5,405.4z"/>
	<path id="path4227" inkscape:connector-curvature="0" class="st1" d="M-152.9,386.6l-10.8-17.4c-0.7-1.1-2.3-2-3.6-2h-14.2
		c-1.3,0-1.8,0.9-1.1,2l13.8,22.5l7.8-10.9L-152.9,386.6L-152.9,386.6z"/>
	<path id="path4229" inkscape:connector-curvature="0" class="st2" d="M-147.6,399.2c0.7-1.1,0.7-2.9,0-4l-5.3-8.6l-8.2-5.8
		l-7.8,10.9l2.1,3.4c0.7,1.1,0.7,2.9,0,4l-3.8,6.2l13.3,9.4L-147.6,399.2L-147.6,399.2z"/>
</g>
<linearGradient id="path4236_1_" gradientUnits="userSpaceOnUse" x1="2036.3815" y1="403.3404" x2="2052.2649" y2="393.4154" gradientTransform="matrix(1 0 0 1 -2207.7988 -11.2378)">
	<stop  offset="0.57" style="stop-color:#5586C5"/>
	<stop  offset="0.57" style="stop-color:#D9423E"/>
</linearGradient>
<path id="path4236" inkscape:connector-curvature="0" class="st3" d="M-147.6,395.2l-16.1-26c-0.7-1.1-2.3-2-3.6-2h-14.2
	c-1.3,0-1.8,0.9-1.1,2l15.9,26l2.5,4.5c2.1,3.8,5,8.9,6.2,10.9c1.8,3,0.2,5.1,0.9,4l9.5-15.3C-146.9,398.1-146.9,396.3-147.6,395.2z
	 M-166.7,395.2C-166.7,395.2-166.6,395.3-166.7,395.2L-166.7,395.2c0.1,0.1,0.1,0.1,0.1,0.1C-166.6,395.3-166.7,395.2-166.7,395.2z
	 M-165.5,397.2c0.1,0.1,0.1,0.2,0.2,0.3C-165.4,397.4-165.5,397.3-165.5,397.2z M-165.6,397.1c0.1,0.2,0.2,0.3,0.3,0.5
	C-165.4,397.5-165.5,397.3-165.6,397.1z">
	
		<namedview  zoom="0.0875" guide-bbox="true" document-units="px" pageshadow="2" window-y="-4" pageopacity="0.0" cx="1267.4286" window-x="-4" cy="885.96512" window-height="712" showguides="true" current-layer="layer1" window-width="1280" bordercolor="#666666" pagecolor="#ffffff" showgrid="false" borderopacity="1.0">
		<guide  position="-3095.1074,2723.3713" orientation="0,1" id="guide5732"></guide>
	</namedview>
</path>
<g>
	<path class="st4" d="M-113.7,393.2h14.1v17.6c-3.8,1.3-8,2-12.6,2c-5,0-8.9-1.5-11.6-4.4s-4.1-7.1-4.1-12.5c0-5.3,1.5-9.4,4.5-12.3
		c3-2.9,7.2-4.4,12.6-4.4c2.1,0,4,0.2,5.8,0.6s3.4,0.9,4.8,1.5l-2.8,6.9c-2.3-1.2-4.9-1.7-7.7-1.7c-2.6,0-4.6,0.8-6,2.5
		c-1.4,1.7-2.1,4.1-2.1,7.2c0,3,0.6,5.4,1.9,7s3.1,2.4,5.5,2.4c1.3,0,2.5-0.1,3.6-0.4V400h-5.8L-113.7,393.2L-113.7,393.2z"/>
	<path class="st4" d="M-68.1,395.3c0,5.4-1.5,9.6-4.5,12.6s-7.2,4.4-12.6,4.4h-10.5v-32.6h11.3c5.2,0,9.3,1.3,12.1,4
		C-69.5,386.4-68.1,390.3-68.1,395.3z M-77.2,395.6c0-3-0.6-5.2-1.8-6.6s-3-2.2-5.4-2.2h-2.6v18.3h2c2.7,0,4.6-0.8,5.9-2.3
		S-77.2,398.8-77.2,395.6z"/>
	<path class="st4" d="M-51.8,393.2h14.1v17.6c-3.8,1.3-8,2-12.6,2c-5,0-8.9-1.5-11.6-4.4c-2.7-2.9-4.1-7.1-4.1-12.5
		c0-5.3,1.5-9.4,4.5-12.3c3-2.9,7.2-4.4,12.6-4.4c2.1,0,4,0.2,5.8,0.6s3.4,0.9,4.8,1.5l-2.8,6.9c-2.3-1.2-4.9-1.7-7.7-1.7
		c-2.6,0-4.6,0.8-6,2.5c-1.4,1.7-2.1,4.1-2.1,7.2c0,3,0.6,5.4,1.9,7s3.1,2.4,5.5,2.4c1.3,0,2.5-0.1,3.6-0.4V400h-5.8L-51.8,393.2
		L-51.8,393.2z"/>
</g>
<text transform="matrix(1 0 0 1 -14.9336 412.1836)" class="st4 st5 st6">Tbilisi</text>
</svg>
